<svg width="54" height="54" viewBox="0 0 54 54" fill="none" xmlns="http://www.w3.org/2000/svg">
<path d="M27.1781 50.6518C38.2758 50.6518 47.2723 41.6581 47.2723 30.5638C47.2723 19.4695 38.2758 10.4758 27.1781 10.4758C16.0804 10.4758 7.08398 19.4695 7.08398 30.5638C7.08398 41.6581 16.0804 50.6518 27.1781 50.6518Z" fill="#F6B330"/>
<path d="M16.2231 37.9347C17.3899 37.9347 18.3358 38.8807 18.3358 40.0476C18.3358 41.2145 17.3899 42.1603 16.2231 42.1603H7.68008C6.51325 42.1603 5.56738 41.2144 5.56738 40.0476C5.56738 38.8806 6.51325 37.9347 7.68008 37.9347H7.72652C7.72652 37.0886 8.41243 36.4027 9.25872 36.4027C10.1048 36.4027 10.7907 37.0886 10.7907 37.9347C10.7907 36.4618 11.985 35.2678 13.4578 35.2678C14.9308 35.2678 16.1248 36.4619 16.1248 37.9347H16.2231Z" fill="#71C9FF"/>
<path d="M18.3364 40.0476C18.3364 38.8806 17.3906 37.9347 16.2237 37.9347H16.1256C16.1256 36.4618 14.9315 35.2678 13.4585 35.2678C12.7224 35.2678 12.0558 35.566 11.5732 36.0484L13.9002 42.1604H16.2238C17.3907 42.1603 18.3364 41.2144 18.3364 40.0476Z" fill="#22A3DD"/>
<path d="M12.8018 30.6375V28.6587C12.8018 25.9184 13.6072 23.2384 15.1177 20.9519V27.2321L12.8018 30.6375Z" fill="#C6C6C6"/>
<path d="M38.9089 22.647C37.866 22.647 37.0205 23.4925 37.0205 24.5354C37.0205 25.5784 37.866 26.4237 38.9089 26.4237H46.5446C47.5874 26.4237 48.433 25.5784 48.433 24.5354C48.433 23.4925 47.5874 22.647 46.5446 22.647H46.503C46.503 21.8908 45.8899 21.2777 45.1337 21.2777C44.3775 21.2777 43.7644 21.8908 43.7644 22.647C43.7644 21.3306 42.6971 20.2634 41.3806 20.2634C40.0641 20.2634 38.9968 21.3306 38.9968 22.647H38.9089Z" fill="#71C9FF"/>
<path d="M22.9399 31.4091H23.7579H24.8609H30.0718H33.0185C31.6997 29.3811 30.9977 27.0139 30.9977 24.5948V24.457H23.9458V24.5948C23.9458 26.8685 23.3255 29.0961 22.156 31.0395L22.0645 31.3329C22.349 31.3819 22.6414 31.4091 22.9399 31.4091Z" fill="#C6C6C6"/>
<path d="M17.8356 23.236V14.958H15.1182V27.2318L17.8356 23.236Z" fill="#C6C6C6"/>
<path d="M34.932 53.4598V32.8788C34.932 32.067 34.2741 31.4092 33.4624 31.4092H30.0715V31.6487C30.0715 33.0985 28.905 34.2739 27.4662 34.2739C26.0271 34.2739 24.8605 33.0986 24.8605 31.6487V31.4092H22.9395C20.1203 31.4092 17.8348 29.1237 17.8348 26.3043V23.2361L12.5854 30.955C12.328 31.3334 12.2716 31.8138 12.4344 32.2416L16.5911 43.1593C17.7972 46.3272 18.4154 49.6886 18.4154 53.0784V53.4598H34.932Z" fill="#C6C6C6"/>
<path d="M14.7501 32.7927C14.5328 32.7927 14.3277 32.6601 14.2457 32.4447L14.0895 32.0347C13.9827 31.7562 14.1229 31.4436 14.4012 31.3377C14.6845 31.23 14.9935 31.3711 15.0983 31.6494L15.2544 32.0595C15.3612 32.3379 15.2213 32.6506 14.9427 32.7564C14.8789 32.7812 14.8141 32.7927 14.7501 32.7927Z" fill="#F6F6F6"/>
<path d="M20.3752 50.1451C20.1053 50.1451 19.8718 49.9431 19.8394 49.6676C19.559 47.2526 18.9756 44.869 18.1061 42.5826L14.8835 34.12C14.7767 33.8406 14.9169 33.5287 15.1953 33.4229C15.4775 33.3164 15.7864 33.4563 15.8922 33.7347L19.1148 42.1984C20.0167 44.5677 20.6223 47.0389 20.913 49.5436C20.9474 49.8392 20.7347 50.1081 20.4381 50.1422C20.4172 50.1442 20.3961 50.1451 20.3752 50.1451Z" fill="#F6F6F6"/>
<path d="M19.9025 5.80054H13.0508V8.95932H19.9025V5.80054Z" fill="#C6C6C6"/>
<path d="M17.8357 8.95923H15.1182V14.9581H17.8357V8.95923Z" fill="#C6C6C6"/>
<path d="M16.4766 0.539795L15.1421 1.59182C14.3811 2.19187 14.0348 3.17694 14.2527 4.12129L14.6401 5.80058H18.3128L18.7004 4.12129C18.9181 3.17705 18.5718 2.19187 17.8108 1.59182L16.4766 0.539795Z" fill="#F6B330"/>
<path d="M38.3109 40.531V42.4102C38.3109 43.7542 37.2212 44.8438 35.8771 44.8438H34.9326V40.531H38.3109Z" fill="#C6C6C6"/>
<path d="M23.9238 18.9594V24.0296C23.9238 25.1507 24.3694 26.2357 25.1813 27.0915L25.9711 27.9241C26.1982 28.1635 26.5319 28.3018 26.8834 28.3018H28.0489C28.4005 28.3018 28.7343 28.1635 28.9614 27.9241L29.7512 27.0915C30.5631 26.2357 31.0085 25.1507 31.0085 24.0296V18.9594C28.8156 17.9074 26.117 17.9074 23.9238 18.9594Z" fill="#C6C6C6"/>
<path d="M27.2572 26.6813C27.1143 26.6813 26.9711 26.625 26.8652 26.5136L26.3562 25.9768C25.8327 25.4239 25.5449 24.7327 25.5449 24.0299V22.9362C25.5449 22.6378 25.7861 22.3967 26.0844 22.3967C26.3829 22.3967 26.6241 22.6379 26.6241 22.9362V24.0299C26.6241 24.4552 26.807 24.8822 27.14 25.2331L27.649 25.7699C27.854 25.9862 27.8454 26.3286 27.6289 26.5336C27.5241 26.6327 27.3908 26.6813 27.2572 26.6813Z" fill="#F6F6F6"/>
<path d="M28.0496 28.3016H26.8841C26.5326 28.3016 26.1989 28.1634 25.9718 27.924L25.6429 27.5774C25.5175 28.7239 25.2864 30.8788 24.8613 31.409V31.6486C24.8613 33.0984 26.0278 34.2737 27.4669 34.2737C28.9058 34.2737 30.0723 33.0985 30.0723 31.6486V31.409C29.6472 30.8788 29.416 28.7239 29.2908 27.5774L28.962 27.924C28.735 28.1634 28.4012 28.3016 28.0496 28.3016Z" fill="#C6C6C6"/>
<path d="M31.69 44.8946L30.7296 43.9342C30.4912 43.6958 30.4912 43.309 30.7296 43.0706L39.7566 34.0436C39.9951 33.8051 40.3818 33.8051 40.6203 34.0436L41.5806 35.0039C41.8192 35.2425 41.8192 35.6291 41.5806 35.8678L32.5539 44.8946C32.3152 45.1333 31.9286 45.1333 31.69 44.8946Z" fill="#C6C6C6"/>
<path d="M38.9634 39.878L37.8049 41.0365C37.4046 41.4367 36.7558 41.4367 36.3556 41.0365L34.8196 39.5007C34.4195 39.1005 34.4195 38.4516 34.8196 38.0513L35.9782 36.893C36.3784 36.4927 37.0273 36.4927 37.4274 36.893L38.9634 38.4287C39.3634 38.829 39.3634 39.4778 38.9634 39.878Z" fill="#C6C6C6"/>
<path d="M46.9779 22.1515C46.7587 21.3383 46.0151 20.7376 45.134 20.7376C44.6687 20.7376 44.2425 20.9043 43.9107 21.1818C43.4036 20.3103 42.4597 19.724 41.3812 19.724C39.9416 19.724 38.7422 20.77 38.5019 22.1409C37.356 22.3354 36.4816 23.3355 36.4816 24.5351C36.4816 25.0455 36.6759 25.4928 36.9456 25.8841H35.7246C35.4262 25.8841 35.1852 26.1253 35.1852 26.4238C35.1852 26.7222 35.4263 26.9632 35.7246 26.9632H38.9091H39.1647H46.545C47.8848 26.9632 48.9735 25.8745 48.9735 24.535C48.9734 23.3538 48.1258 22.3669 46.9779 22.1515ZM46.5449 25.8842H39.1646H38.909C38.1662 25.8842 37.5609 25.2786 37.5609 24.5352C37.5609 23.7923 38.1663 23.1871 38.909 23.1871H38.9977C39.2961 23.1871 39.5373 22.9457 39.5373 22.6474C39.5373 21.6311 40.3648 20.8036 41.3812 20.8036C42.3975 20.8036 43.2252 21.6311 43.2252 22.6474C43.2252 22.9458 43.4664 23.1871 43.7647 23.1871C44.0631 23.1871 44.3044 22.9457 44.3044 22.6474C44.3044 22.1897 44.6761 21.817 45.1338 21.817C45.5915 21.817 45.9632 22.1897 45.9632 22.6474C45.9632 22.9458 46.2464 23.1871 46.5447 23.1871C47.2885 23.1871 47.8939 23.7925 47.8939 24.5352C47.8942 25.2786 47.2887 25.8842 46.5449 25.8842ZM34.3527 26.4239C34.3527 26.7223 34.1115 26.9633 33.813 26.9633H33.4307C33.1323 26.9633 32.8912 26.7222 32.8912 26.4239C32.8912 26.1254 33.1324 25.8842 33.4307 25.8842H33.813C34.1115 25.8842 34.3527 26.1253 34.3527 26.4239ZM35.4719 47.283V53.4593C35.4719 53.7577 35.2307 53.9988 34.9324 53.9988C34.6339 53.9988 34.3928 53.7576 34.3928 53.4593V47.283C34.3928 46.9846 34.6339 46.7433 34.9324 46.7433C35.2307 46.7432 35.4719 46.9846 35.4719 47.283ZM32.3781 35.1058C32.5954 35.3088 32.607 35.6512 32.403 35.8685C32.3266 35.9504 32.2485 36.0296 32.1693 36.1069C32.0644 36.2089 31.9281 36.2594 31.7928 36.2594C31.6526 36.2594 31.5114 36.205 31.4056 36.0964C31.1978 35.8827 31.2026 35.5415 31.4162 35.3327L31.6153 35.1306C31.8193 34.9121 32.1616 34.9008 32.3781 35.1058ZM30.2691 37.3244C30.5466 37.2157 30.6829 36.903 30.5741 36.6246C30.4646 36.3471 30.1507 36.2069 29.8743 36.3194C29.3338 36.5311 28.7607 36.6388 28.1725 36.6388C25.5956 36.6388 23.5015 34.5394 23.4701 31.949H24.3349C24.341 32.0138 24.3608 32.074 24.3707 32.1377C24.3845 32.2256 24.3996 32.3119 24.4203 32.3972C24.4478 32.5101 24.4828 32.6183 24.5218 32.7259C24.5515 32.8075 24.5803 32.8881 24.6163 32.9663C24.6637 33.0698 24.7194 33.1674 24.7774 33.2645C24.8209 33.3377 24.8625 33.4112 24.9118 33.4805C24.9775 33.573 25.0514 33.6574 25.1264 33.742C25.1818 33.8048 25.2344 33.8691 25.2946 33.9275C25.3776 34.0077 25.469 34.0775 25.5604 34.1481C25.6245 34.1979 25.6849 34.2511 25.753 34.2958C25.8535 34.362 25.9621 34.4149 26.0703 34.4691C26.1392 34.5039 26.204 34.5447 26.2757 34.5742C26.3995 34.6254 26.5305 34.66 26.6614 34.6948C26.7254 34.712 26.7856 34.7374 26.851 34.7507C27.0506 34.7907 27.256 34.8133 27.467 34.8133C27.6778 34.8133 27.8834 34.7906 28.0825 34.7507C28.1501 34.7372 28.2126 34.711 28.2783 34.6931C28.407 34.6583 28.5357 34.6247 28.6571 34.5744C28.7311 34.544 28.7983 34.5022 28.8693 34.4661C28.9749 34.4126 29.081 34.3612 29.1792 34.2968C29.2498 34.2503 29.3123 34.1952 29.379 34.1435C29.4676 34.0746 29.5564 34.0068 29.6373 33.9289C29.6994 33.8687 29.7538 33.8023 29.8109 33.7375C29.8839 33.6547 29.9559 33.5727 30.02 33.4825C30.0705 33.4115 30.1133 33.3361 30.158 33.2609C30.2148 33.1655 30.2693 33.0698 30.316 32.9682C30.3525 32.889 30.3822 32.807 30.4121 32.7242C30.4508 32.6174 30.4855 32.5098 30.5129 32.3979C30.5337 32.3124 30.5486 32.2261 30.5622 32.138C30.5724 32.0744 30.5921 32.0143 30.5982 31.9494H33.0188H33.463C33.975 31.9494 34.3927 32.3668 34.3927 32.8788V34.9649C34.3927 35.2634 34.6338 35.5046 34.9323 35.5046C35.2307 35.5046 35.4718 35.2632 35.4718 34.9649V32.8788C35.4718 31.7711 34.5709 30.8699 33.463 30.8699H33.3361C32.1688 28.9789 31.5371 26.8211 31.5371 24.5953V24.4571C31.5371 24.4337 31.5153 24.4198 31.5123 24.3971C31.5219 24.2743 31.5486 24.1538 31.5486 24.0301V22.2805H33.7529C34.0513 22.2805 34.2923 22.0393 34.2923 21.7408C34.2923 21.4424 34.0512 21.2013 33.7529 21.2013H31.5486V19.2368L33.3219 17.9644C33.5641 17.7909 33.6203 17.4533 33.4457 17.2112C33.2733 16.968 32.9337 16.9127 32.6926 17.0872L30.9171 18.3612C30.2544 18.0775 29.5581 17.8934 28.8402 17.7832C28.788 17.7665 28.75 17.7221 28.6922 17.7221C28.6582 17.7221 28.6376 17.752 28.6053 17.7578C28.4059 17.7327 28.2077 17.7054 28.0066 17.6934V14.9582C28.0066 14.6598 27.7655 14.4185 27.4669 14.4185C27.1685 14.4185 26.9275 14.6599 26.9275 14.9582V17.6932C26.7262 17.705 26.5276 17.7324 26.3276 17.7577C26.2956 17.7519 26.2747 17.722 26.2409 17.722C26.1831 17.722 26.145 17.7663 26.093 17.7831C25.375 17.8933 24.6787 18.0774 24.016 18.3611L22.2405 17.0871C21.9984 16.9117 21.6598 16.9679 21.4872 17.211C21.3128 17.4532 21.369 17.7908 21.6112 17.9643L23.3845 19.2367V21.2012H21.1803C20.8819 21.2012 20.6406 21.4424 20.6406 21.7407C20.6406 22.0392 20.882 22.2803 21.1803 22.2803H23.3845V24.0299C23.3845 24.1606 23.4123 24.2877 23.4228 24.4173C23.4214 24.4324 23.4064 24.4413 23.4064 24.457V24.5952C23.4064 26.6992 22.8389 28.7621 21.7376 30.6884C19.8062 30.1567 18.3753 28.403 18.3753 26.3048V23.2358V14.9581V9.49855H19.9026C20.201 9.49855 20.4423 9.25738 20.4423 8.95887V5.8003C20.4423 5.50179 20.2009 5.26063 19.9026 5.26063H18.992L19.2266 4.24327C19.4908 3.10095 19.0665 1.89405 18.1455 1.16753L16.8117 0.11583C16.6152 -0.03861 16.3387 -0.03861 16.1423 0.11583L14.8075 1.16753C13.8875 1.89308 13.4633 3.10009 13.7263 4.24327L13.9616 5.26063H13.0513C12.7529 5.26063 12.5119 5.50179 12.5119 5.8003V8.95887C12.5119 9.25738 12.753 9.49855 13.0513 9.49855H14.5789V14.9578V20.8144C13.0691 23.1609 12.2619 25.8656 12.2619 28.6586V30.4706L12.1399 30.6502C11.7834 31.1747 11.7052 31.8412 11.9311 32.4332L12.8442 34.8324C11.9014 35.0164 11.0945 35.5785 10.6459 36.3957C10.2779 36.064 9.79263 35.8629 9.25954 35.8629C8.29089 35.8629 7.47582 36.5303 7.24977 37.4293C5.99136 37.6362 5.02832 38.7317 5.02832 40.0473C5.02832 41.5099 6.21826 42.6998 7.6808 42.6998H15.839L16.0872 43.352C17.2742 46.4707 17.8768 49.7429 17.8768 53.0781V53.4594C17.8768 53.7578 18.1181 53.9989 18.4164 53.9989C18.7147 53.9989 18.9561 53.7577 18.9561 53.4594V53.0781C18.9561 51.2196 18.762 49.3827 18.4051 47.5763L26.7023 37.5037C26.9239 37.5629 27.1496 37.6052 27.3811 37.6374L20.5318 53.2418C20.4125 53.5156 20.5365 53.8341 20.8093 53.9542C20.8798 53.9846 20.9542 53.9998 21.0266 53.9998C21.2344 53.9998 21.4318 53.8788 21.5213 53.6767L28.5408 37.684C29.1342 37.6464 29.7166 37.5407 30.2691 37.3244ZM24.4639 22.1227C26.3515 21.3198 28.5831 21.3211 30.4693 22.1227V24.0298C30.4693 25.0108 30.0747 25.9663 29.3596 26.7194L28.899 27.2058L28.5711 27.5518C28.4462 27.6835 28.2507 27.7625 28.0496 27.7625H26.8835C26.6824 27.7625 26.4869 27.6835 26.363 27.5528L25.5735 26.7195C24.8584 25.9664 24.4638 25.0109 24.4638 24.0299V22.1227H24.4639ZM28.1525 18.7786V20.4898C27.6924 20.455 27.2407 20.455 26.7806 20.4898V18.7786C27.2393 18.7389 27.6938 18.7387 28.1525 18.7786ZM25.4009 31.6487V31.5694C25.6946 31.0518 25.8833 30.0822 26.0616 28.6501C26.0778 28.6583 26.0981 28.6549 26.1146 28.6626C26.3528 28.7726 26.6113 28.8419 26.8835 28.8419H28.0496C28.3208 28.8419 28.5788 28.7733 28.8166 28.6638C28.8336 28.6561 28.8547 28.6593 28.8715 28.6511C29.0478 30.0745 29.2366 31.0498 29.5322 31.5694V31.6487C29.5322 32.7984 28.6054 33.7337 27.4669 33.7337C26.3276 33.7337 25.4009 32.7984 25.4009 31.6487ZM32.0663 30.8696H30.392C30.1443 30.2395 29.9481 28.6081 29.855 27.7673L30.1433 27.463C30.3419 27.254 30.5125 27.0274 30.6709 26.7953C30.9088 28.2195 31.3673 29.5967 32.0663 30.8696ZM30.4693 20.9888C30.0619 20.8414 29.6588 20.6912 29.2318 20.6062V18.9313C29.6537 19.0284 30.0725 19.1408 30.4693 19.3083V20.9888ZM25.7012 18.931V20.6062C25.2744 20.6911 24.8712 20.8414 24.4639 20.9888V19.3083C24.8606 19.1406 25.2794 19.0279 25.7012 18.931ZM24.2706 26.8058C24.4272 27.0341 24.5944 27.2572 24.7897 27.463L25.0781 27.7673C24.9889 28.5737 24.7917 30.2325 24.5407 30.8696H22.9401C22.9194 30.8696 22.9005 30.8638 22.8797 30.8635C23.5744 29.5963 24.0319 28.2228 24.2706 26.8058ZM18.8814 30.2096L14.471 36.0715L12.9398 32.0489C12.8396 31.7869 12.875 31.4903 13.0323 31.2585L14.5645 29.0059L15.5645 27.5364C15.5647 27.5359 15.5645 27.5356 15.5649 27.5352L17.296 24.9897V26.3044C17.296 27.8217 17.9046 29.1944 18.8814 30.2096ZM15.6579 20.9521V15.4976H17.2959V23.0685L15.6579 25.4773V20.9521ZM14.7789 4.00016C14.6092 3.2623 14.8828 2.48416 15.4768 2.01609L16.4769 1.22758L17.476 2.01609C18.0709 2.48416 18.3447 3.26306 18.1741 4.00016L17.8831 5.26063H15.0696L14.7789 4.00016ZM13.5909 6.33976H14.6406H18.3131H19.3628V8.4193H17.8355H15.1182H13.5909V6.33976ZM17.296 9.49855V14.4182H15.658V9.49855H17.296ZM13.3412 28.8836V28.6586C13.3412 26.6994 13.7653 24.7838 14.5788 23.0257V27.0641L13.4089 28.7842L13.3412 28.8836ZM7.68058 41.6206C6.81302 41.6206 6.10756 40.9151 6.10756 40.0473C6.10756 39.1798 6.81302 38.4743 7.72746 38.4743C8.02586 38.4743 8.26692 38.2329 8.26692 37.9346C8.26692 37.3873 8.71231 36.9421 9.25944 36.9421C9.80678 36.9421 10.252 37.3873 10.252 37.9346C10.252 38.233 10.4933 38.4743 10.7916 38.4743C11.09 38.4743 11.3313 38.2329 11.3313 37.9346C11.3313 36.842 12.1707 35.9711 13.2325 35.8529L15.4279 41.6206H7.68058ZM18.0979 46.2506C17.823 45.1428 17.5056 44.0438 17.0957 42.9676L14.9255 37.2658L19.7034 30.9151C20.3631 31.3798 21.1246 31.7016 21.9494 31.8486C21.9592 31.851 21.9635 31.8633 21.9734 31.865C22.1073 31.888 22.2489 31.8871 22.3862 31.901C22.3898 34.1891 23.7209 36.1528 25.6342 37.1019L18.0979 46.2506ZM41.0019 33.6623C40.5691 33.2266 39.8073 33.2266 39.3754 33.6623L36.939 36.0985C36.4624 36.0251 35.9621 36.1447 35.597 36.5111L34.4377 37.6694C34.073 38.0351 33.9542 38.5343 34.0271 39.0104L30.3484 42.6891C30.1311 42.9056 30.011 43.1954 30.011 43.5026C30.011 43.8095 30.1311 44.0993 30.3484 44.3158L31.3085 45.2759C31.525 45.4932 31.8148 45.6133 32.1217 45.6133C32.4289 45.6133 32.7187 45.4932 32.935 45.2759L34.3928 43.8181V44.844C34.3928 45.1424 34.6339 45.3835 34.9324 45.3835H35.8773C37.5161 45.3835 38.85 44.0497 38.85 42.4098V40.7542L39.3448 40.2598C39.6404 39.9651 39.8035 39.5724 39.8035 39.1538C39.804 38.9373 39.7572 38.7295 39.674 38.5368L41.9621 36.2487C42.1793 36.0324 42.2994 35.7424 42.2994 35.4355C42.2994 35.1276 42.1793 34.8386 41.9621 34.6223L41.0019 33.6623ZM35.2013 38.4323L36.3596 37.2747C36.4541 37.1805 36.5788 37.1326 36.7028 37.1326C36.8277 37.1326 36.9517 37.1805 37.046 37.2738L38.582 38.8097C38.6736 38.9023 38.7241 39.0243 38.7241 39.1539C38.7241 39.2826 38.6736 39.4036 38.582 39.4952C38.582 39.4952 38.582 39.4952 38.582 39.4962L37.4237 40.6547C37.2386 40.8377 36.922 40.8386 36.7371 40.6537L35.2022 39.1196C35.0134 38.9301 35.0134 38.6219 35.2013 38.4323ZM32.1722 44.5131C32.1437 44.5399 32.0997 44.5399 32.071 44.5131L31.1109 43.452L34.5783 40.0228L35.6208 41.0644L32.1722 44.5131ZM35.8772 44.3045H35.4719V42.739L36.4666 41.7441C36.6628 41.8279 36.8708 41.8751 37.0805 41.8751C37.3199 41.8751 37.5517 41.8024 37.7707 41.6933V42.4099C37.7707 43.4539 36.9212 44.3045 35.8772 44.3045ZM38.9915 37.6938L37.9683 36.6706L40.2392 34.4248L41.1994 35.486L38.9915 37.6938ZM32.6613 48.2582V53.4592C32.6613 53.7576 32.4201 53.9987 32.1216 53.9987C31.8232 53.9987 31.5822 53.7575 31.5822 53.4592V48.2582C31.5822 47.9598 31.8233 47.7186 32.1216 47.7186C32.4201 47.7186 32.6613 47.9599 32.6613 48.2582Z" fill="#231F20"/>
</svg>
