<svg width="54" height="54" viewBox="0 0 54 54" fill="none" xmlns="http://www.w3.org/2000/svg">
<path d="M54 18.8276H0V15.1034L27 3L54 15.1034V18.8276Z" fill="#4398D1"/>
<path d="M26.9995 15.1034C29.0563 15.1034 30.7237 13.4361 30.7237 11.3793C30.7237 9.3225 29.0563 7.65515 26.9995 7.65515C24.9427 7.65515 23.2754 9.3225 23.2754 11.3793C23.2754 13.4361 24.9427 15.1034 26.9995 15.1034Z" fill="#3E8CC7"/>
<path d="M54 45.8258H0V49.5518H54V45.8258Z" fill="#4398D1"/>
<path d="M11.1729 22.5516H3.72461V42.1015H11.1729V22.5516Z" fill="#4398D1"/>
<path d="M8.37965 25.3448H6.51758V39.3104H8.37965V25.3448Z" fill="#3582BD"/>
<path d="M1.8623 45.8257V42.1016H52.1382V45.8257" fill="#4398D1"/>
<path d="M52.1382 18.8276H1.8623V22.5518H52.1382V18.8276Z" fill="#4398D1"/>
<path d="M52.1382 18.8276H1.8623V20.6897H52.1382V18.8276Z" fill="#3E8CC7"/>
<path d="M52.1382 43.9656H1.8623V45.8276H52.1382V43.9656Z" fill="#3E8CC7"/>
<path d="M50.2764 22.5516H42.8281V42.1015H50.2764V22.5516Z" fill="#4398D1"/>
<path d="M47.4832 25.3448H45.6211V39.3104H47.4832V25.3448Z" fill="#3582BD"/>
<path d="M24.2071 22.5516H16.7588V42.1015H24.2071V22.5516Z" fill="#4398D1"/>
<path d="M21.4129 25.3448H19.5508V39.3104H21.4129V25.3448Z" fill="#3582BD"/>
<path d="M37.2412 22.5536H29.793V42.1035H37.2412V22.5536Z" fill="#4398D1"/>
<path d="M11.1729 22.5516H3.72461V24.4137H11.1729V22.5516Z" fill="#3E8CC7"/>
<path d="M50.2764 22.5516H42.8281V24.4137H50.2764V22.5516Z" fill="#3E8CC7"/>
<path d="M24.2071 22.5516H16.7588V24.4137H24.2071V22.5516Z" fill="#3E8CC7"/>
<path d="M37.2412 22.5516H29.793V24.4137H37.2412V22.5516Z" fill="#3E8CC7"/>
<path d="M34.449 25.3466H32.5869V39.3102H34.449V25.3466Z" fill="#3582BD"/>
<path d="M54 47.6897H0V49.5518H54V47.6897Z" fill="#3E8CC7"/>
<path d="M11.1729 40.2413H3.72461V42.1034H11.1729V40.2413Z" fill="#3E8CC7"/>
<path d="M50.2764 40.2413H42.8281V42.1034H50.2764V40.2413Z" fill="#3E8CC7"/>
<path d="M24.2071 40.2413H16.7588V42.1034H24.2071V40.2413Z" fill="#3E8CC7"/>
<path d="M37.2412 40.2413H29.793V42.1034H37.2412V40.2413Z" fill="#3E8CC7"/>
</svg>
