<svg width="54" height="54" viewBox="0 0 54 54" fill="none" xmlns="http://www.w3.org/2000/svg">
<g clip-path="url(#clip0_986_1953)">
<path d="M27 54C41.9117 54 54 41.9117 54 27C54 12.0883 41.9117 0 27 0C12.0883 0 0 12.0883 0 27C0 41.9117 12.0883 54 27 54Z" fill="#80B4E8"/>
<path d="M18.7734 11.4509C18.7734 9.85268 17.4865 8.56696 15.9067 8.56696C15.4629 8.56696 15.0458 8.66518 14.673 8.85268C14.0606 8.08482 13.111 7.59375 12.0548 7.59375C10.5549 7.59375 9.28569 8.58482 8.85967 9.94196C8.69104 9.89732 8.51353 9.87946 8.33602 9.87946C7.11123 9.87946 6.11719 10.8795 6.11719 12.1116C6.11719 13.3437 7.11123 14.3438 8.33602 14.3438H15.96C17.5131 14.308 18.7734 13.0312 18.7734 11.4509Z" fill="#93C4EC"/>
<path d="M41.6602 11.5865C41.6602 10.0632 40.4376 8.83775 38.9368 8.83775C38.5152 8.83775 38.1189 8.93136 37.7648 9.11007C37.183 8.37821 36.2808 7.91016 35.2774 7.91016C33.8525 7.91016 32.6468 8.85477 32.2421 10.1483C32.0819 10.1057 31.9132 10.0887 31.7446 10.0887C30.5811 10.0887 29.6367 11.0419 29.6367 12.2162C29.6367 13.3906 30.5811 14.3438 31.7446 14.3438H38.9873C40.4629 14.3097 41.6602 13.0928 41.6602 11.5865Z" fill="#93C4EC"/>
<path d="M24.9123 52.555C26.0725 52.6816 27.1166 53.1984 27.9076 53.9894C27.6123 53.9999 27.3064 54.0105 27.0006 54.0105C25.1127 54.0105 23.2775 53.8206 21.4951 53.4515C21.7588 53.2722 22.033 53.114 22.3283 52.9769C22.9506 52.6921 23.6467 52.5339 24.3744 52.5339C24.5537 52.5234 24.733 52.5339 24.9123 52.555Z" fill="#97CF6D"/>
<path d="M35.3219 52.6921C35.2375 52.7238 35.1531 52.7449 35.0687 52.7765C34.9633 52.8082 34.8578 52.8398 34.7523 52.8714C34.7312 52.882 34.7102 52.882 34.6891 52.8925C34.5098 52.9453 34.3305 52.998 34.1512 53.0402C32.2 53.5781 30.175 53.8945 28.0762 53.9789C29.1098 52.7132 30.6812 51.9011 32.4426 51.9011C32.643 51.9011 32.8328 51.9117 33.0227 51.9328C33.4129 51.9749 33.7926 52.0488 34.1512 52.1648C34.3727 52.2386 34.5941 52.323 34.8051 52.4285C34.9 52.4707 34.9949 52.5128 35.0793 52.5656C35.1637 52.5972 35.248 52.65 35.3219 52.6921Z" fill="#97CF6D"/>
<path d="M46.4916 45.6893C45.6901 46.5225 44.8252 47.3135 43.9287 48.0413C42.8213 48.9272 41.6506 49.7393 40.4061 50.4459C40.0791 50.3616 39.7733 50.2139 39.4885 50.0346C38.8873 50.5936 37.9592 50.8784 36.9151 50.8573C36.7041 50.8573 36.4827 50.8362 36.2612 50.8045C36.2401 50.8045 36.2084 50.794 36.1873 50.794C35.892 50.7518 35.5967 50.6885 35.3014 50.5936C35.2276 50.5725 35.1432 50.5409 35.0694 50.5198C34.8584 50.446 34.6475 50.3721 34.4471 50.2772C34.3522 50.235 34.2573 50.1928 34.1623 50.1401C33.3713 49.7393 32.7069 49.212 32.2217 48.6424C32.0635 48.4526 31.9159 48.2522 31.7998 48.0624C31.726 47.9463 31.6627 47.8303 31.61 47.7143C31.2409 46.9444 31.167 46.1534 31.4834 45.4573C31.7366 44.8877 32.2217 44.4659 32.844 44.2127C33.0866 44.1073 33.3502 44.0335 33.6244 43.9807C34.1518 43.8858 34.7424 43.8752 35.3541 43.9807C35.5651 44.0124 35.7655 44.0545 35.9764 44.1073C36.335 44.2022 36.7041 44.3288 37.0627 44.487C37.2631 44.5713 37.453 44.6768 37.6323 44.7717C37.9909 44.9721 38.3284 45.2042 38.6237 45.4573C38.6448 45.4678 38.6553 45.4889 38.6764 45.4995C38.7186 45.4467 38.7502 45.4045 38.7924 45.3518C39.1827 44.8877 39.6994 44.5397 40.3006 44.3499C40.617 44.2549 40.9545 44.2022 41.3026 44.2022C42.6315 44.2022 43.7705 44.9721 44.2768 46.0795C44.6776 45.742 45.1838 45.5417 45.7534 45.5417C45.9959 45.5627 46.2491 45.6049 46.4916 45.6893Z" fill="#729C51"/>
<path d="M26.3889 47.3874C26.3889 47.4506 26.3889 47.5139 26.3889 47.5667C26.3678 47.862 26.315 48.1573 26.2096 48.4209C26.1885 48.4948 26.1568 48.5581 26.1252 48.6319C25.9986 48.9167 25.8299 49.1803 25.6295 49.4229C25.0283 50.119 24.1424 50.5514 23.1404 50.5514C22.5709 50.5514 22.033 50.4038 21.5689 50.1506C21.5584 50.1506 21.5584 50.1401 21.5479 50.1401C20.9572 49.8131 20.4721 49.3069 20.1873 48.7057C20.1346 48.8006 20.0818 48.8956 20.0186 48.9905C20.0186 49.001 20.008 49.001 20.008 49.0116C19.6705 49.4967 19.1326 49.8448 18.5104 49.9397C18.3943 49.9608 18.2783 49.9713 18.1518 49.9713C17.4768 49.9713 16.8756 49.6866 16.4643 49.2331C16.4221 49.1909 16.3904 49.1487 16.3482 49.0959C16.0318 49.5811 15.5783 49.9713 15.051 50.235C14.8928 50.3088 14.724 50.3827 14.5447 50.4249C14.3021 50.4987 14.0596 50.5409 13.7959 50.5514C12.9838 50.0979 12.2033 49.6022 11.4545 49.0749C10.3998 48.326 9.39785 47.5139 8.45918 46.628C8.06895 46.2588 7.67871 45.8686 7.30957 45.4784C7.11973 45.278 6.94043 45.0776 6.75059 44.8666C6.30762 44.3604 5.8752 43.8436 5.46387 43.3057C5.90684 43.1581 6.39199 43.0526 6.90879 43.0104C7.11973 42.9893 7.33066 42.9788 7.55215 42.9788C8.00566 42.9788 8.43809 43.0209 8.84941 43.1053C9.26074 43.1897 9.66152 43.3057 10.0201 43.4534C10.6951 43.7381 11.2541 44.1284 11.6443 44.5924C11.6971 44.6452 11.7393 44.7084 11.7814 44.7612C11.8236 44.7295 11.8764 44.6979 11.9291 44.6768C12.2244 44.4975 12.5619 44.3709 12.9205 44.2866C13.142 44.2338 13.374 44.2127 13.6166 44.2127C14.3338 44.2127 14.9982 44.4342 15.5361 44.8245C16.0107 45.162 16.3904 45.6155 16.6119 46.1534C16.7701 46.0057 16.9494 45.8897 17.1498 45.7842C17.4557 45.6366 17.7932 45.5522 18.1623 45.5522C18.9322 45.5522 19.6178 45.9319 20.0291 46.512C20.4193 45.1831 21.6744 44.2022 23.1615 44.2022C23.6994 44.2022 24.2057 44.3288 24.6486 44.5608C25.6822 45.0987 26.3889 46.1639 26.3889 47.3874Z" fill="#729C51"/>
<path d="M43.917 48.0411C42.8095 48.927 41.6388 49.7391 40.3943 50.4457C40.3521 50.4668 40.3099 50.4879 40.2783 50.509C38.8439 51.3211 37.3357 52.0067 35.7642 52.5446C35.6166 52.5973 35.4689 52.6395 35.3213 52.6922C35.2369 52.7239 35.1525 52.745 35.0681 52.7766C34.9627 52.8082 34.8572 52.8399 34.7517 52.8715C34.7306 52.8821 34.7095 52.8821 34.6884 52.8926C34.6041 52.861 34.5197 52.8188 34.4353 52.7871C34.3404 52.745 34.2455 52.7028 34.1506 52.65C33.7392 52.4391 33.3595 52.1965 33.022 51.9328C32.8322 51.7852 32.6529 51.627 32.4947 51.4582C31.6826 50.6356 31.2291 49.6653 31.2713 48.7688C31.2818 48.5578 31.324 48.3469 31.3978 48.1465C31.4189 48.0832 31.44 48.0305 31.4716 47.9672C31.5138 47.8828 31.556 47.7985 31.5982 47.7141C31.9779 47.0918 32.6529 46.6911 33.4861 46.5118C33.697 46.4696 33.9185 46.4379 34.1506 46.4274C34.6041 46.3957 35.0787 46.4379 35.5744 46.5328C35.6166 46.5434 35.6588 46.5539 35.7115 46.5645C35.8802 46.5961 36.049 46.6489 36.2177 46.7016C36.492 46.786 36.7662 46.8914 37.0404 47.0075C37.0509 47.018 37.0615 47.018 37.0826 47.0286C37.6732 47.3028 38.2111 47.6403 38.6541 48.0305C39.2447 47.2395 40.2045 46.7332 41.2802 46.7332C42.3666 46.7121 43.3263 47.2395 43.917 48.0411Z" fill="#7EB058"/>
<path d="M26.3881 49.8868C26.3881 50.4563 26.2299 50.9942 25.9662 51.4477C25.7131 51.8907 25.3439 52.2704 24.9115 52.5446C24.4053 52.8715 23.7936 53.0508 23.1396 53.0508C22.8549 53.0508 22.5912 53.0192 22.3275 52.9559C21.4627 52.7344 20.735 52.186 20.3131 51.4477C20.2709 51.3739 20.2287 51.2895 20.1865 51.2051C20.1443 51.2895 20.1021 51.3633 20.0494 51.4477C19.6486 52.0594 18.9525 52.4708 18.151 52.4708C18.1088 52.4708 18.0666 52.4708 18.0244 52.4708C17.9295 52.4391 17.8346 52.4075 17.7396 52.3758C17.3916 52.2493 17.0436 52.1122 16.7061 51.975C16.5689 51.8696 16.4529 51.743 16.3475 51.6059C16.3053 51.6586 16.2736 51.7219 16.2314 51.7747C15.7146 51.5532 15.2084 51.3106 14.7127 51.0575C14.4068 50.8993 14.101 50.7411 13.8057 50.5723C12.9936 50.1188 12.2131 49.6231 11.4643 49.0958C10.4096 48.3469 9.40762 47.5348 8.46895 46.6489C8.07871 46.2797 7.68848 45.8895 7.31934 45.4993C7.40371 45.4993 7.47754 45.4993 7.56191 45.4993C7.99434 45.4993 8.41621 45.5415 8.81699 45.6153C9.07012 45.6575 9.3127 45.7208 9.54473 45.7946C9.89277 45.9001 10.2197 46.0372 10.515 46.2059C11.0424 46.5012 11.4854 46.8704 11.7807 47.2817C11.8545 47.2395 11.9178 47.1973 11.9916 47.1551C12.4557 46.8915 12.983 46.7438 13.5631 46.7333C13.5736 46.7333 13.5947 46.7333 13.6158 46.7333C14.4385 46.7333 15.1979 47.0286 15.7674 47.5243C16.1365 47.8407 16.4213 48.2309 16.6217 48.6739C17.0225 48.3047 17.5709 48.0833 18.1615 48.0833C18.8154 48.0833 19.4166 48.3575 19.8279 48.8004C19.9018 48.8743 19.965 48.9586 20.0283 49.043C20.0283 49.043 20.0283 49.043 20.0283 49.0536C20.0283 49.043 20.0283 49.0325 20.0389 49.0325C20.0916 48.8637 20.1549 48.7055 20.2287 48.5579C20.4291 48.1465 20.7139 47.7985 21.0619 47.5032C21.6314 47.0391 22.3592 46.7543 23.1607 46.7543C23.5088 46.7543 23.8463 46.8071 24.1732 46.9125C24.7006 47.0813 25.1646 47.3766 25.5338 47.7563C25.7342 47.9672 25.9029 48.1993 26.04 48.4524C26.0822 48.5262 26.1139 48.6 26.1455 48.6739C26.2932 49.0008 26.3775 49.3489 26.3986 49.7286C26.3881 49.7602 26.3881 49.8235 26.3881 49.8868Z" fill="#7EB058"/>
<path d="M9.14269 34.9173C9.78885 34.0477 10.0094 33.1174 9.63538 32.8395C9.26133 32.5615 8.43429 33.0413 7.78813 33.9109C7.14198 34.7806 6.92139 35.7109 7.29544 35.9888C7.66949 36.2667 8.49653 35.787 9.14269 34.9173Z" fill="#8BB34D"/>
<path d="M52.7532 30.6938C53.0721 30.3541 52.6904 29.4775 51.9006 28.7359C51.1108 27.9943 50.2119 27.6685 49.893 28.0082C49.574 28.3479 49.9557 29.2245 50.7455 29.9661C51.5353 30.7077 52.4342 31.0335 52.7532 30.6938Z" fill="#B3E665"/>
<path d="M48.879 39.0799C49.3303 38.964 49.4778 38.0193 49.2083 36.9699C48.9389 35.9205 48.3546 35.1638 47.9032 35.2797C47.4518 35.3956 47.3044 36.3402 47.5738 37.3896C47.8433 38.439 48.4276 39.1958 48.879 39.0799Z" fill="#B3E665"/>
<path d="M12.1189 46.7083C12.3832 45.6576 12.231 44.7137 11.7791 44.6001C11.3272 44.4864 10.7466 45.246 10.4824 46.2967C10.2181 47.3475 10.3703 48.2914 10.8222 48.405C11.2741 48.5187 11.8547 47.759 12.1189 46.7083Z" fill="#B3E665"/>
<path d="M16.7257 45.5388C17.1684 45.3933 17.253 44.441 16.9148 43.4117C16.5765 42.3825 15.9435 41.6661 15.5008 41.8115C15.0581 41.957 14.9734 42.9093 15.3117 43.9386C15.6499 44.9678 16.283 45.6843 16.7257 45.5388Z" fill="#9BCE54"/>
<path d="M2.87275 29.806C3.95617 29.801 4.83274 29.4193 4.83061 28.9533C4.82848 28.4873 3.94847 28.1135 2.86504 28.1185C1.78161 28.1234 0.905046 28.5052 0.907175 28.9712C0.909303 29.4372 1.78932 29.8109 2.87275 29.806Z" fill="#7F9F49"/>
<path d="M40.5816 41.4095C41.5042 40.8415 42.0541 40.0594 41.8099 39.6626C41.5656 39.2658 40.6196 39.4045 39.697 39.9724C38.7743 40.5403 38.2244 41.3224 38.4687 41.7193C38.7129 42.1161 39.6589 41.9774 40.5816 41.4095Z" fill="#7F9F49"/>
<path d="M40.2785 50.5092C38.8441 51.3213 37.3359 52.0069 35.7645 52.5448C35.6168 52.5975 35.4691 52.6397 35.3215 52.6924C35.2371 52.7241 35.1527 52.7452 35.0684 52.7768C34.9629 52.8084 34.8574 52.8401 34.752 52.8717C34.7309 52.8823 34.7098 52.8823 34.6887 52.8928C34.5094 52.9456 34.3301 52.9983 34.1508 53.0405C32.1996 53.5784 30.1746 53.8948 28.0758 53.9791C28.0125 53.9791 27.9598 53.9791 27.8965 53.9791C27.6012 53.9897 27.2953 54.0002 26.9895 54.0002C25.1016 54.0002 23.2664 53.8104 21.484 53.4413C20.2922 53.1987 19.132 52.8717 18.0035 52.4709C17.9086 52.4393 17.8137 52.4077 17.7188 52.376C17.3707 52.2495 17.0227 52.1124 16.6852 51.9752C16.527 51.912 16.3687 51.8381 16.2105 51.7749C15.6937 51.5534 15.1875 51.3108 14.6918 51.0577C14.3859 50.8995 14.0801 50.7413 13.7848 50.5725C12.9727 50.119 12.1922 49.6233 11.4434 49.0959C11.6965 49.0432 11.9602 49.0116 12.2344 49.0116C13.0043 49.0116 13.7109 49.2436 14.3121 49.6338C14.5758 49.8131 14.8184 50.0135 15.0293 50.2561C15.3141 50.562 15.5461 50.9206 15.7148 51.3213C16.0945 51.026 16.5375 50.794 17.0121 50.6569C17.3285 50.562 17.666 50.5092 18.0141 50.5092C18.0246 50.5092 18.0457 50.5092 18.0668 50.5092C18.9422 50.5092 19.7437 50.8045 20.3766 51.3002C20.7035 50.8678 21.0937 50.4881 21.5367 50.1823C21.5578 50.1612 21.5895 50.1401 21.6211 50.1295C22.4121 49.6022 23.3613 49.2963 24.3738 49.2963C24.8063 49.2963 25.2281 49.3491 25.6289 49.4545C25.8926 49.5178 26.1457 49.6127 26.3883 49.7182C27 49.9819 27.5484 50.3721 28.002 50.8573C28.8035 49.8237 29.9531 49.0749 31.2715 48.8006C31.5773 48.7374 31.8937 48.6952 32.2102 48.6846C32.284 48.6846 32.3578 48.6741 32.4422 48.6741C33.0434 48.6741 33.6129 48.769 34.1508 48.9377C34.5199 49.0538 34.8785 49.212 35.2055 49.4018C35.2266 49.4124 35.2477 49.4229 35.2793 49.444C35.3215 49.4651 35.3637 49.4967 35.4059 49.5284C35.7328 49.7288 36.0387 49.9713 36.3234 50.235C36.5344 50.4354 36.7348 50.6569 36.9141 50.8995C37.0512 51.0788 37.1672 51.2581 37.2832 51.4479C37.9477 50.8678 38.8125 50.5092 39.7723 50.5092C39.941 50.4776 40.1098 50.4881 40.2785 50.5092Z" fill="#87BD60"/>
<path d="M23.5518 34.8998C23.5518 34.8998 23.1721 35.3638 22.5814 36.0599C21.3264 37.5365 19.101 40.0361 17.5295 41.3228C17.1287 41.6498 16.7701 42.0294 16.4643 42.4513C16.1162 42.947 15.842 43.4955 15.6838 44.0861C15.6416 44.2337 15.5994 44.3919 15.5783 44.5501C15.5572 44.6345 15.5467 44.7189 15.5361 44.8033C15.5361 44.8138 15.5361 44.8138 15.5361 44.8244C15.4201 45.5732 15.4412 46.438 15.7049 47.3556L15.7682 47.5033L16.4748 49.233L17.0443 50.6251L17.7615 52.3654C17.4135 52.2388 17.0654 52.1017 16.7279 51.9646C16.5697 51.9013 16.4115 51.8275 16.2533 51.7642C15.7365 51.5427 15.2303 51.3001 14.7346 51.047L14.5764 50.4353L14.3654 49.6232L13.5955 46.7228L12.9521 44.297L12.6674 43.2423C12.6674 43.2423 12.5408 42.9259 12.5303 42.3564C12.5303 42.0716 12.5514 41.7341 12.6252 41.3439C12.7307 40.806 12.9416 40.1732 13.3213 39.456C14.2494 37.7263 15.1354 35.7541 15.515 34.8787C15.6416 34.5833 15.7154 34.4041 15.7154 34.4041H21.5057L23.5518 34.8998Z" fill="#A85441"/>
<path d="M39.308 35.8807L38.0107 40.7006C38.0318 42.2932 37.8104 43.7803 37.61 44.7823C37.4518 45.5627 37.3146 46.0479 37.3146 46.0479L37.283 46.1956L37.0826 47.0182L36.3232 50.2034L36.1756 50.8045L35.7643 52.5448C35.6166 52.5975 35.4689 52.6397 35.3213 52.6924C35.2369 52.7241 35.1525 52.7452 35.0682 52.7768C34.9627 52.8084 34.8572 52.8401 34.7518 52.8717L34.815 52.4182L35.0576 50.5303L35.2053 49.3702L35.5217 46.976L35.585 46.5331L35.6271 46.185C35.49 45.4995 35.3951 44.7401 35.3318 43.9913C35.1525 41.9241 35.1842 39.9307 35.1842 39.9307C35.2686 38.0217 34.3721 34.6467 34.3721 34.6467L39.4662 35.3112L39.308 35.8807Z" fill="#A85441"/>
<path d="M8.33223 28.7719H5.52676C5.2209 28.7719 4.96777 28.5188 4.96777 28.2129V27.5801C4.96777 25.9137 6.31777 24.5637 7.98418 24.5637H10.7791C11.085 24.5637 11.3381 24.8168 11.3381 25.1227V25.7555C11.3486 27.4114 9.99863 28.7719 8.33223 28.7719Z" fill="#BD5E44"/>
<path d="M39.54 35.7961C39.4662 35.8383 39.3818 35.8594 39.308 35.8805C38.9705 35.9965 38.6119 36.0598 38.2428 36.0598C37.167 36.0598 36.2705 36.8508 36.1229 37.9161L35.8064 40.2786C36.0174 41.7235 36.0174 43.1157 35.9541 44.1176C35.9014 45.0563 35.8064 45.668 35.8064 45.668L35.7115 46.5645L35.6693 46.9231L35.4057 49.4965L35.2896 50.6145L35.0893 52.5657L35.0682 52.7872C34.9627 52.8188 34.8572 52.8504 34.7518 52.8821C34.7307 52.8926 34.7096 52.8926 34.6885 52.9032C34.5092 52.9559 34.3299 53.0086 34.1506 53.0508V46.0161C33.9396 45.3938 33.7604 44.6977 33.6021 44.0016C33.1381 41.9344 32.9061 39.8778 32.9061 39.8778C32.9061 39.8672 32.9061 39.8567 32.9061 39.8461C32.8006 38.7704 32.2943 37.8211 31.535 37.1461C30.7861 36.4711 29.7947 36.0704 28.7189 36.0704H20.176C19.2373 36.0704 18.3197 36.3868 17.5814 36.9563C17.476 37.0407 17.3705 37.1356 17.265 37.22C16.8326 37.6313 16.358 38.0743 15.8623 38.5278C14.7654 39.5297 13.5842 40.5633 12.5822 41.3438C12.3607 41.5125 12.1498 41.6708 11.9494 41.8184C11.6119 42.061 11.2955 42.2614 11.0424 42.3985C11.0424 42.3985 10.5783 42.7149 10.0088 43.4532C9.60801 43.9594 9.16504 44.6661 8.7959 45.5942C8.66934 45.9106 8.55332 46.2586 8.44785 46.6383C8.05762 46.2692 7.66738 45.879 7.29824 45.4887C7.1084 45.2883 6.9291 45.0879 6.73926 44.877L6.89746 43.0102L6.97129 42.2086C7.02402 41.5547 7.39316 40.9747 7.9416 40.6266C8.46895 40.2997 9.15449 39.804 9.75566 39.1606C10.9264 37.9161 11.8123 36.1336 10.7049 33.9188C10.7049 33.9188 9.35488 31.4297 9.25996 28.6243C9.20723 27.2637 9.46035 25.8293 10.3041 24.5743C11.2533 23.1715 12.9408 22.0008 15.7885 21.4102C16.1893 21.3153 16.59 21.2942 16.9908 21.3364C17.3494 21.3786 17.6975 21.4629 18.0244 21.6106C18.4885 21.811 18.9736 21.9797 19.4693 22.1379C20.6084 22.486 21.8424 22.718 23.1396 22.8551C23.3822 22.8762 23.6248 22.8973 23.8674 22.9184C25.7342 23.0555 27.8436 23.3825 29.9318 23.1926C32.4842 22.9606 35.0893 22.6547 37.8209 22.1801C39.4029 21.8954 40.8057 20.9672 41.6072 19.575C41.6389 19.5223 41.66 19.4801 41.6916 19.4274C41.9764 18.9106 42.1557 18.2567 42.1346 17.4551C42.1346 17.4551 42.6303 17.2547 43.3158 17.1176C44.8029 16.8118 47.2182 16.7801 47.6189 19.6067C47.6189 19.6067 47.2814 20.0602 47.3236 20.5559L45.5307 20.3661C45.71 22.3383 42.3139 34.0348 39.54 35.7961Z" fill="#BD5E44"/>
<path d="M31.5463 37.1356C30.7975 36.4606 29.8061 36.0598 28.7303 36.0598H20.1873C19.2486 36.0598 18.3311 36.3762 17.5928 36.9458C17.8143 34.3618 20.8518 32.3157 24.5643 32.3157C28.3611 32.3157 31.4619 34.4567 31.5463 37.1356Z" fill="#E6A572"/>
<path d="M15.4826 34.8681C15.5775 35.9966 15.6936 37.2095 15.8623 38.5173C14.7654 39.5193 13.5842 40.5528 12.5822 41.3333C12.3607 41.5021 12.1498 41.6603 11.9494 41.8079C11.6119 42.0505 11.2955 42.2509 11.0424 42.388C11.0424 42.388 10.5783 42.7044 10.0088 43.4427C9.60801 43.9489 9.16504 44.6556 8.7959 45.5837C8.66934 45.9001 8.55332 46.2482 8.44785 46.6279C8.05762 46.2587 7.66738 45.8685 7.29824 45.4782C7.1084 45.2779 6.9291 45.0775 6.73926 44.8665L6.89746 42.9997L6.97129 42.1982C7.02402 41.5443 7.39316 40.9642 7.9416 40.6161C8.46895 40.2892 9.15449 39.7935 9.75566 39.1501C10.9264 37.9056 11.8123 36.1232 10.7049 33.9083C10.7049 33.9083 9.35488 31.4193 9.25996 28.6138C9.20723 27.2532 9.46035 25.8189 10.3041 24.5638C11.2533 23.1611 12.9408 21.9903 15.7885 21.3997C16.1893 21.3048 16.59 21.2837 16.9908 21.3259C15.8729 23.2454 14.8709 27.1161 15.4826 34.8681Z" fill="#B25945"/>
<path d="M18.7213 26.6626C19.6649 26.6626 20.4299 26.2471 20.4299 25.7345C20.4299 25.2219 19.6649 24.8064 18.7213 24.8064C17.7777 24.8064 17.0127 25.2219 17.0127 25.7345C17.0127 26.2471 17.7777 26.6626 18.7213 26.6626Z" fill="#A85441"/>
<path d="M23.277 27.8122C24.4536 27.8122 25.4074 27.2975 25.4074 26.6625C25.4074 26.0276 24.4536 25.5129 23.277 25.5129C22.1003 25.5129 21.1465 26.0276 21.1465 26.6625C21.1465 27.2975 22.1003 27.8122 23.277 27.8122Z" fill="#A85441"/>
<path d="M21.1467 24.7959C21.8107 24.7959 22.349 24.5031 22.349 24.1419C22.349 23.7808 21.8107 23.488 21.1467 23.488C20.4826 23.488 19.9443 23.7808 19.9443 24.1419C19.9443 24.5031 20.4826 24.7959 21.1467 24.7959Z" fill="#A85441"/>
<path d="M22.6443 29.8479C23.1453 29.8479 23.5514 29.6259 23.5514 29.3521C23.5514 29.0784 23.1453 28.8564 22.6443 28.8564C22.1434 28.8564 21.7373 29.0784 21.7373 29.3521C21.7373 29.6259 22.1434 29.8479 22.6443 29.8479Z" fill="#A85441"/>
<path d="M19.6809 30.0693C20.3449 30.0693 20.8832 29.7765 20.8832 29.4154C20.8832 29.0542 20.3449 28.7615 19.6809 28.7615C19.0168 28.7615 18.4785 29.0542 18.4785 29.4154C18.4785 29.7765 19.0168 30.0693 19.6809 30.0693Z" fill="#A85441"/>
<path d="M41.6813 16.6536C41.5442 16.8645 41.3016 17.0227 41.0063 17.1176C40.2574 17.3602 39.1184 17.2442 38.2008 16.6325C37.1356 15.9153 36.6821 14.7551 36.8403 13.9641C36.8719 13.8059 36.9246 13.6477 37.009 13.5317C37.4942 12.8145 38.6754 13.1942 39.9727 14.059C41.2489 14.9133 42.1664 15.9258 41.6813 16.6536Z" fill="#BD5E44"/>
<path d="M40.9955 17.1177C40.2467 17.3603 39.1076 17.2443 38.1901 16.6326C37.1248 15.9154 36.6713 14.7552 36.8295 13.9642C37.4201 13.9009 38.2639 14.2595 39.1498 14.8607C40.2467 15.5884 41.0694 16.4322 40.9955 17.1177Z" fill="#E6A572"/>
<path d="M47.7353 16.6536C47.8724 16.8645 48.115 17.0227 48.4103 17.1176C49.1591 17.3602 50.2982 17.2442 51.2158 16.6325C52.281 15.9153 52.7345 14.7551 52.5763 13.9641C52.5447 13.8059 52.4919 13.6477 52.4075 13.5317C51.9224 12.8145 50.7411 13.1942 49.4439 14.059C48.1572 14.9133 47.2501 15.9258 47.7353 16.6536Z" fill="#BD5E44"/>
<path d="M48.4099 17.1177C49.1587 17.3603 50.2978 17.2443 51.2153 16.6326C52.2806 15.9154 52.7341 14.7552 52.5759 13.9642C51.9853 13.9009 51.1415 14.2595 50.2556 14.8607C49.1587 15.5884 48.336 16.4322 48.4099 17.1177Z" fill="#E6A572"/>
<path d="M48.727 17.8981C48.727 17.972 48.727 18.0353 48.7165 18.1091L47.4298 25.9032C47.4087 25.9981 47.3876 26.1036 47.3665 26.1985C47.1555 26.9052 46.6177 27.4642 45.9427 27.7173C45.6895 27.8122 45.4048 27.8649 45.12 27.8649H44.5821C43.538 27.8649 42.6309 27.1688 42.3356 26.1985C42.304 26.1036 42.2829 26.0087 42.2723 25.9032L40.9856 18.1091C40.9751 18.0458 40.9645 17.972 40.9751 17.8981C41.0278 15.7993 42.7469 14.1118 44.8669 14.1118C45.2466 14.1118 45.6157 14.1646 45.9637 14.27C46.5966 14.4599 47.1661 14.7974 47.6196 15.2509C48.263 15.9259 48.6954 16.8645 48.727 17.8981Z" fill="#8F473B"/>
<path d="M48.7266 17.9931L47.4188 25.8927C47.3977 25.9876 47.3766 26.0931 47.3555 26.188C47.1445 26.8947 46.6066 27.4537 45.9316 27.7068C45.2566 27.4537 44.7188 26.8947 44.5078 26.188C44.4762 26.0931 44.4551 25.9982 44.4445 25.8927L43.1367 17.9931C43.1367 16.2212 44.318 14.7341 45.9316 14.2595C46.5645 14.4494 47.134 14.7869 47.5875 15.2404C48.2836 15.947 48.7266 16.9279 48.7266 17.9931Z" fill="#A65340"/>
<path d="M42.5572 21.2626C43.064 21.2626 43.4748 20.8518 43.4748 20.3451C43.4748 19.8383 43.064 19.4275 42.5572 19.4275C42.0505 19.4275 41.6396 19.8383 41.6396 20.3451C41.6396 20.8518 42.0505 21.2626 42.5572 21.2626Z" fill="#453538"/>
<path d="M47.0182 21.2626C47.5249 21.2626 47.9357 20.8518 47.9357 20.3451C47.9357 19.8383 47.5249 19.4275 47.0182 19.4275C46.5114 19.4275 46.1006 19.8383 46.1006 20.3451C46.1006 20.8518 46.5114 21.2626 47.0182 21.2626Z" fill="#453538"/>
<path d="M47.3453 26.188C47.0922 27.0212 46.3961 27.6541 45.5523 27.8123C45.4047 27.8439 45.257 27.8544 45.0988 27.8544H44.5609C43.5168 27.8544 42.6098 27.1583 42.3145 26.1775C42.5992 25.7556 42.9789 25.4076 43.4324 25.165C43.6117 25.0701 43.7594 24.933 43.8543 24.7642C43.9598 24.5955 44.0125 24.4056 44.0125 24.2052C44.0125 23.9837 44.1074 23.7728 44.2551 23.6251C44.4027 23.4775 44.6031 23.3826 44.8352 23.3826C45.2887 23.3826 45.6473 23.7517 45.6473 24.1947C45.6473 24.3951 45.7 24.5744 45.7949 24.7431C45.9004 24.9119 46.048 25.0595 46.2273 25.1544C46.6809 25.4181 47.0711 25.7662 47.3453 26.188Z" fill="#D0946C"/>
<path d="M47.3447 26.188C47.0916 27.0212 46.3955 27.654 45.5518 27.8122C44.6975 27.6435 44.0119 27.0212 43.7588 26.188C44.1596 25.5868 45.0561 24.9751 45.7943 24.7642C45.8998 24.9329 46.0475 25.0806 46.2268 25.1755C46.6803 25.4181 47.0705 25.7661 47.3447 26.188Z" fill="#E6A572"/>
<path d="M44.0232 26.3463C44.3203 26.3463 44.5611 26.1999 44.5611 26.0193C44.5611 25.8388 44.3203 25.6924 44.0232 25.6924C43.7262 25.6924 43.4854 25.8388 43.4854 26.0193C43.4854 26.1999 43.7262 26.3463 44.0232 26.3463Z" fill="#453538"/>
<path d="M45.5623 26.3463C45.8594 26.3463 46.1002 26.1999 46.1002 26.0193C46.1002 25.8388 45.8594 25.6924 45.5623 25.6924C45.2652 25.6924 45.0244 25.8388 45.0244 26.0193C45.0244 26.1999 45.2652 26.3463 45.5623 26.3463Z" fill="#453538"/>
<path d="M31.2074 24.3284C30.8376 23.602 30.3257 23.1504 29.693 22.9804C29.0722 22.8219 28.4889 22.9876 28.1171 23.1503L26.3394 20.4465C26.2408 20.2902 26.2592 20.0854 26.389 19.9472L28.0317 18.3157C28.2034 18.144 28.2088 17.857 28.0371 17.6853C27.8654 17.5137 27.5784 17.5082 27.4067 17.6799L25.764 19.3113C25.3301 19.743 25.2619 20.4237 25.5934 20.9271L27.5921 23.9666C27.5921 23.9666 27.5992 23.9688 27.597 23.9759C27.6066 23.9946 27.6186 24.0062 27.6305 24.0178C27.6376 24.0201 27.6424 24.0294 27.6424 24.0294C27.6543 24.041 27.6733 24.0549 27.6852 24.0664L27.6923 24.0687C27.7113 24.0826 27.7303 24.0964 27.7445 24.1009C27.7516 24.1032 27.7587 24.1054 27.7587 24.1054C27.7729 24.1099 27.7941 24.1167 27.806 24.1283L27.8131 24.1305L27.8202 24.1328C27.8273 24.135 27.8344 24.1373 27.8415 24.1396C27.8486 24.1418 27.8557 24.1441 27.8698 24.1486C27.8769 24.1508 27.884 24.1531 27.8933 24.1483C27.9004 24.1505 27.9169 24.1479 27.924 24.1502L27.931 24.1524C28.084 24.1621 28.6919 24.2384 28.9149 24.5434C28.9532 24.5946 29.066 24.7554 28.9607 25.1355C28.8956 25.3645 29.0283 25.6097 29.2551 25.6818C29.2622 25.6841 29.2622 25.6841 29.2693 25.6863C29.5054 25.7536 29.7528 25.6138 29.8201 25.3777C30.0063 24.7189 29.8191 24.2769 29.6345 24.0231C29.5794 23.951 29.522 23.8859 29.4553 23.8257C29.8306 23.9216 30.1405 24.2231 30.3848 24.7066C30.4937 24.9286 30.763 25.0142 30.9849 24.9053C31.2307 24.8196 31.3163 24.5503 31.2074 24.3284Z" fill="#CA8121"/>
<path d="M38.0566 7.28565C37.4484 7.70093 36.7249 7.93905 35.9702 7.95651C35.4435 7.96847 34.9871 8.29934 34.8196 8.77675C34.7858 8.88306 34.7613 8.98453 34.7559 9.09985C34.7536 9.10694 34.7514 9.11403 34.7562 9.12337C34.7221 9.89294 34.6104 10.6612 34.3759 11.3983L33.995 12.596C33.605 13.8221 32.9921 14.9148 32.2216 15.8403C29.792 18.7433 25.7694 20.0547 21.9423 18.8374L16.5633 17.1263C17.1568 15.8246 17.7801 14.6258 18.4258 13.528C19.0417 12.4752 19.6871 11.5255 20.3551 10.6766C22.8034 7.59234 25.6074 5.9167 28.8961 6.12773C29.2256 6.14671 29.5474 6.1164 29.8521 6.04164C30.9702 5.76516 31.8847 4.87761 32.1342 3.70052C32.1429 3.64866 32.1542 3.61322 32.1539 3.58971C32.1561 3.58262 32.1561 3.58262 32.1584 3.57553C32.1606 3.56845 32.1606 3.56845 32.1606 3.56845C32.1886 3.38225 32.2308 3.20057 32.2872 3.02339C32.9499 0.939792 35.256 -0.176267 37.3232 0.660773C37.7371 0.831467 38.1024 1.05693 38.4239 1.34649C38.4716 1.39288 38.5193 1.43926 38.567 1.48564C39.4565 2.36949 39.8815 3.68311 39.6052 4.96875C39.393 5.95481 38.8161 6.76244 38.0566 7.28565Z" fill="#EEC82F"/>
<path d="M38.0574 7.28535C37.4493 7.70062 36.7258 7.93874 35.971 7.9562C35.4443 7.96816 34.9879 8.29903 34.8204 8.77644C34.7866 8.88275 34.7622 8.98422 34.7567 9.09955C34.7544 9.10663 34.7522 9.11372 34.757 9.12306C34.7229 9.89264 34.6112 10.6609 34.3768 11.398L33.9958 12.5957C33.6058 13.8218 32.9929 14.9145 32.2224 15.84C29.7928 18.743 25.7702 20.0544 21.9432 18.837L19.5123 18.0638C20.1059 16.762 20.7291 15.5633 21.3749 14.4655C21.9907 13.4127 22.6362 12.463 23.3042 11.6141C25.7524 8.52983 28.5565 6.85418 31.8451 7.06522C32.1746 7.0842 32.4965 7.05389 32.8012 6.97913C33.9193 6.70264 34.8337 5.8151 35.0833 4.63801C35.092 4.58614 35.1032 4.55071 35.1029 4.52719C35.1052 4.52011 35.1052 4.52011 35.1074 4.51302C35.1097 4.50593 35.1097 4.50593 35.1097 4.50593C35.1377 4.31974 35.1799 4.13805 35.2362 3.96088C35.7029 2.49385 36.9852 1.5048 38.4177 1.34394C38.4654 1.39032 38.513 1.4367 38.5607 1.48308C39.4502 2.36694 39.8752 3.68055 39.5989 4.96619C39.3938 5.95451 38.817 6.76214 38.0574 7.28535Z" fill="#FBF355"/>
<path d="M27.3295 24.6946C26.9596 23.9682 26.4477 23.5166 25.8151 23.3466C25.1943 23.1881 24.6109 23.3538 24.2392 23.5165L22.4615 20.8127C22.3629 20.6564 22.3812 20.4516 22.511 20.3134L24.1538 18.682C24.3254 18.5102 24.3309 18.2232 24.1592 18.0515C23.9875 17.8799 23.7004 17.8744 23.5288 18.0461L21.886 19.6775C21.4522 20.1092 21.3839 20.7899 21.7155 21.2934L23.7142 24.3328C23.7142 24.3328 23.7213 24.3351 23.719 24.3421C23.7287 24.3608 23.7406 24.3724 23.7525 24.384C23.7596 24.3863 23.7645 24.3956 23.7645 24.3956C23.7764 24.4072 23.7954 24.4211 23.8073 24.4327L23.8144 24.4349C23.8334 24.4488 23.8524 24.4626 23.8666 24.4671C23.8737 24.4694 23.8808 24.4716 23.8808 24.4716C23.8949 24.4761 23.9162 24.4829 23.9281 24.4945L23.9352 24.4968L23.9423 24.499C23.9494 24.5013 23.9565 24.5035 23.9636 24.5058C23.9706 24.508 23.9777 24.5103 23.9919 24.5148C23.999 24.517 24.0061 24.5193 24.0154 24.5145C24.0225 24.5167 24.0389 24.5141 24.046 24.5164L24.0531 24.5186C24.2061 24.5283 24.814 24.6046 25.0369 24.9096C25.0753 24.9608 25.188 25.1216 25.0827 25.5017C25.0177 25.7307 25.1504 25.9759 25.3772 26.048C25.3843 26.0503 25.3843 26.0503 25.3914 26.0525C25.6275 26.1198 25.8749 25.98 25.9422 25.7439C26.1283 25.0851 25.9411 24.6432 25.7565 24.3893C25.7014 24.3172 25.6441 24.2521 25.5774 24.1919C25.9527 24.2878 26.2626 24.5893 26.5068 25.0728C26.6157 25.2948 26.885 25.3804 27.107 25.2715C27.3527 25.1858 27.4455 24.9188 27.3295 24.6946Z" fill="#E09122"/>
<path d="M40.2361 7.10485L37.6623 6.70756C37.6623 6.70756 37.6239 5.96956 38.2272 5.54494C38.5068 5.35293 38.9236 5.22018 39.5476 5.27038L40.3585 6.59748L40.4667 6.77239C40.5631 6.9357 40.4201 7.13995 40.2361 7.10485Z" fill="#594144"/>
<path d="M40.353 6.59514L38.6276 6.32727C38.2717 6.26868 38.0594 5.88117 38.2172 5.55677C38.2194 5.54969 38.2194 5.54969 38.2217 5.5426C38.5013 5.35059 38.9181 5.21783 39.5421 5.26803L40.353 6.59514Z" fill="#63494D"/>
<path d="M37.4351 4.67625C37.2931 5.12274 36.8901 5.40818 36.4482 5.42368C36.3306 5.4253 36.2033 5.40824 36.0829 5.36992C35.5159 5.18957 35.2018 4.58238 35.3821 4.01542C35.5625 3.44845 36.1696 3.13432 36.7366 3.31467C36.8571 3.35299 36.9708 3.41257 37.0658 3.48182C37.4154 3.75689 37.5771 4.22977 37.4351 4.67625Z" fill="#594144"/>
<path d="M37.435 4.67645C37.293 5.12294 36.89 5.40838 36.448 5.42388C36.0963 5.1559 35.9323 4.69011 36.0743 4.24363C36.2163 3.79714 36.6193 3.5117 37.0612 3.4962C37.4153 3.75709 37.577 4.22997 37.435 4.67645Z" fill="#63494D"/>
<path d="M30.2117 14.3577C28.8004 13.8385 27.2455 14.5068 26.6314 15.8488C25.5705 15.5036 24.3822 15.8045 23.6179 16.6618C22.453 15.9323 20.9342 16.1437 20.0094 17.1373C18.7434 16.4068 17.1157 16.7397 16.2457 17.9535L14.9235 19.804C16.1065 20.6485 17.7103 20.4641 18.6792 19.43C19.8528 20.1076 21.343 19.8637 22.2394 18.8611C23.4493 19.6206 25.0381 19.3611 25.9544 18.2713C27.3854 18.6796 28.9132 17.9247 29.4275 16.5041L30.2117 14.3577Z" fill="#FDFCFC"/>
<path d="M18.8695 12.7947L10.2545 20.668C10.0918 20.8114 10.0954 21.0701 10.2619 21.2089C10.7355 21.6093 11.8282 22.2222 13.6227 21.5365C13.8872 21.4412 14.1249 21.2827 14.315 21.0778L19.1191 16.0582L18.8695 12.7947Z" fill="#DC4355"/>
<path d="M18.8075 15.9122L18.4992 16.0717L18.1723 16.2408L18.0321 16.3133L17.1914 16.7483L16.5842 17.0624L16.5095 17.1011L14.4615 18.1665L13.7609 18.529L12.6985 19.0963L12.6425 19.1253C12.3903 19.2558 12.1184 19.3254 11.841 19.3387C11.794 19.3393 11.747 19.34 11.6999 19.3406C11.0815 19.3468 10.5815 19.2502 10.1772 19.0982C10.0094 19.037 9.85539 18.9568 9.71558 18.8811C9.21529 18.5893 8.91857 18.2218 8.75491 17.9512C8.64182 17.7669 8.71847 17.526 8.91722 17.4409L9.54374 17.1642L13.7332 15.3283L17.205 13.8104L17.6048 13.6332L17.9671 13.4754L18.2664 13.3442L18.5585 13.2108L18.6217 13.1841L18.8836 13.0723L19.6083 12.7565L19.0303 15.0154L19.01 15.0792L18.9987 15.1146L18.8046 15.8723L18.8075 15.9122Z" fill="#A83A4F"/>
<path d="M19.8086 18.1585C19.8086 18.1585 19.2169 17.8844 18.7143 17.2563C18.1279 16.5235 17.6527 15.3188 18.4205 13.5183C18.769 12.6927 19.3816 11.7481 20.3498 10.667C22.5137 7.93704 24.9585 6.31104 27.7736 6.1217C28.1401 6.09783 28.5164 6.09265 28.8978 6.12032C29.2273 6.13929 29.5492 6.10899 29.8539 6.03423C29.8516 6.04131 36.5719 17.3488 19.8086 18.1585Z" fill="#A64B2D"/>
<path d="M18.7158 17.2563C18.1295 16.5235 17.6543 15.3188 18.4221 13.5184C18.7705 12.6927 19.3831 11.7482 20.3514 10.667C22.5152 7.9371 24.9601 6.3111 27.7751 6.12176C28.9093 8.7145 31.0295 16.1317 18.7158 17.2563Z" fill="#BD5E44"/>
</g>
<defs>
<clipPath id="clip0_986_1953">
<rect width="54" height="54" fill="white"/>
</clipPath>
</defs>
</svg>
