<svg width="54" height="54" viewBox="0 0 54 54" fill="none" xmlns="http://www.w3.org/2000/svg">
<path d="M21.3301 45.6776C21.3301 45.6776 47.6745 49.1781 49.3837 32.5588C49.3859 32.5407 49.3816 32.5224 49.3717 32.5071C49.3617 32.4918 49.3467 32.4805 49.3293 32.4751C49.3118 32.4698 49.2931 32.4707 49.2762 32.4778C49.2594 32.4849 49.2456 32.4976 49.2373 32.5138C48.3039 34.3387 43.5916 41.6868 29.286 38.9252L21.3301 45.6776Z" fill="#66667F"/>
<path d="M20.1503 45.6778C26.5247 45.6778 31.6921 40.5104 31.6921 34.136C31.6921 27.7616 26.5247 22.5941 20.1503 22.5941C13.7759 22.5941 8.6084 27.7616 8.6084 34.136C8.6084 40.5104 13.7759 45.6778 20.1503 45.6778Z" fill="#66667F"/>
<path d="M20.15 16.155C16.5937 16.155 13.1173 17.2095 10.1603 19.1853C7.20335 21.161 4.89867 23.9692 3.53771 27.2548C2.17676 30.5404 1.82065 34.1558 2.51443 37.6437C3.20821 41.1317 4.92071 44.3356 7.43538 46.8503C9.95004 49.365 13.1539 51.0775 16.6419 51.7713C20.1298 52.4651 23.7452 52.109 27.0308 50.7481C30.3164 49.3872 33.1246 47.0825 35.1004 44.1256C37.0762 41.1686 38.1307 37.6922 38.1307 34.1359C38.1307 29.3671 36.2363 24.7936 32.8643 21.4216C29.4923 18.0495 24.9188 16.1551 20.15 16.155ZM6.19275 37.4647C5.71146 35.5218 5.6304 33.5012 5.95451 31.526C5.99036 31.3133 6.07081 31.1106 6.19057 30.9313C6.31033 30.752 6.4667 30.6 6.64938 30.4854C6.83206 30.3708 7.03694 30.2961 7.25053 30.2663C7.46412 30.2365 7.6816 30.2523 7.88867 30.3126L12.8598 31.751C13.3575 31.8949 13.7962 32.1941 14.1119 32.605C14.4275 33.0158 14.6036 33.5168 14.6144 34.0347V34.0529C14.6163 34.1376 14.62 34.2217 14.6255 34.3054C14.6652 34.8085 14.5416 35.3111 14.2731 35.7385C14.0047 36.1659 13.6056 36.4954 13.1351 36.678L8.22029 38.5363C8.01737 38.6122 7.80067 38.6443 7.58445 38.6305C7.36824 38.6166 7.15741 38.5571 6.96585 38.4559C6.7743 38.3546 6.60637 38.2139 6.47311 38.0431C6.33986 37.8723 6.2443 37.6751 6.19275 37.4647ZM18.6383 41.6276L17.5874 46.7762C17.5435 46.9886 17.455 47.1893 17.3279 47.365C17.2007 47.5407 17.0377 47.6874 16.8497 47.7955C16.6616 47.9035 16.4528 47.9705 16.237 47.9919C16.0212 48.0133 15.8033 47.9887 15.5976 47.9197C13.6977 47.2896 11.9458 46.2796 10.4484 44.9512C10.2877 44.8073 10.1593 44.6311 10.0715 44.4341C9.98379 44.2371 9.93873 44.0238 9.93932 43.8082C9.9399 43.5925 9.98612 43.3794 10.0749 43.1829C10.1637 42.9864 10.2931 42.8109 10.4546 42.6679L14.3244 39.2311C14.7117 38.8871 15.1989 38.6758 15.7148 38.6281C16.2307 38.5804 16.7484 38.6988 17.1922 38.9661L17.2081 38.9754C17.2806 39.0189 17.3538 39.0607 17.4276 39.1007C17.8743 39.3358 18.2333 39.7085 18.4514 40.1637C18.6695 40.6189 18.735 41.1322 18.6383 41.6276ZM17.5887 29.0391L17.5728 29.0485C17.5003 29.0923 17.4293 29.1376 17.3596 29.1843C16.9436 29.47 16.4465 29.614 15.9421 29.5949C15.4377 29.5758 14.953 29.3946 14.5597 29.0782L10.4938 25.7488C10.3264 25.6109 10.19 25.4392 10.0938 25.2448C9.9976 25.0504 9.94371 24.8378 9.93571 24.621C9.92771 24.4043 9.96578 24.1883 10.0474 23.9873C10.129 23.7864 10.2523 23.605 10.4092 23.4552C11.8521 22.0678 13.5623 20.9886 15.4356 20.2832C15.6378 20.208 15.8535 20.1765 16.0687 20.1906C16.2839 20.2048 16.4936 20.2643 16.6841 20.3654C16.8747 20.4664 17.0416 20.6066 17.1741 20.7768C17.3066 20.9469 17.4015 21.1432 17.4527 21.3527L18.6898 26.3783C18.8137 26.8813 18.7738 27.4106 18.5757 27.8892C18.3776 28.3678 18.0318 28.7706 17.5887 29.0388V29.0391ZM22.0275 26.3931L23.239 21.3613C23.2891 21.1515 23.383 20.9547 23.5146 20.7839C23.6462 20.613 23.8125 20.4719 24.0025 20.3699C24.1925 20.2679 24.4019 20.2073 24.6171 20.192C24.8322 20.1767 25.0481 20.2071 25.2506 20.2813C27.1275 20.9772 28.8431 22.0477 30.2931 23.4277C30.4507 23.5767 30.575 23.7574 30.6576 23.958C30.7402 24.1585 30.7794 24.3743 30.7725 24.5911C30.7656 24.8078 30.7128 25.0207 30.6176 25.2156C30.5224 25.4105 30.387 25.5829 30.2202 25.7216L26.1718 29.0717C25.7802 29.39 25.2963 29.5737 24.7921 29.5954C24.2879 29.6171 23.79 29.4756 23.3725 29.1921C23.3025 29.1459 23.2312 29.101 23.1586 29.0574L23.1427 29.048C22.698 28.7821 22.35 28.3811 22.1494 27.9034C21.9487 27.4257 21.906 26.8965 22.0275 26.3928V26.3931ZM30.3639 44.8776C28.8734 46.2137 27.1267 47.2326 25.23 47.8724C25.0247 47.9424 24.8069 47.9681 24.5909 47.9477C24.375 47.9273 24.1658 47.8614 23.9773 47.7542C23.7887 47.6471 23.625 47.5012 23.4969 47.3261C23.3689 47.151 23.2795 46.9508 23.2345 46.7386L22.1575 41.5959C22.0584 41.101 22.1214 40.5873 22.3372 40.1311C22.553 39.6748 22.9102 39.3003 23.3557 39.0631C23.4293 39.0228 23.5022 38.9804 23.5746 38.936L23.5904 38.9267C24.0329 38.6571 24.5499 38.5359 25.0661 38.581C25.5822 38.626 26.0705 38.8348 26.4596 39.177L30.3468 42.5942C30.509 42.7364 30.6392 42.9112 30.729 43.1073C30.8188 43.3034 30.866 43.5163 30.8677 43.7319C30.8693 43.9476 30.8252 44.1611 30.7384 44.3585C30.6516 44.556 30.524 44.7328 30.3639 44.8773V44.8776ZM32.7693 37.9847L27.7756 36.3488C27.2974 36.1875 26.8839 35.8764 26.5964 35.4615C26.309 35.0467 26.1629 34.5503 26.1799 34.0459C26.1816 33.962 26.1816 33.8777 26.1799 33.793V33.7751C26.1671 33.257 26.3203 32.7485 26.617 32.3237C26.9137 31.8988 27.3385 31.58 27.8293 31.4137L32.731 29.7529C32.9352 29.6833 33.1517 29.6577 33.3665 29.6779C33.5812 29.698 33.7892 29.7633 33.9769 29.8696C34.1646 29.9758 34.3276 30.1206 34.4553 30.2944C34.5831 30.4681 34.6725 30.667 34.7179 30.8778C35.1311 32.8364 35.1414 34.8586 34.7481 36.8213C34.7062 37.0341 34.6197 37.2356 34.4942 37.4125C34.3687 37.5894 34.2072 37.7377 34.0202 37.8476C33.8332 37.9575 33.625 38.0264 33.4094 38.0499C33.1937 38.0734 32.9756 38.0509 32.7693 37.9839V37.9847Z" fill="#BEC6E2"/>
<path d="M20.1829 36.2069C21.4758 36.2069 22.5239 35.1588 22.5239 33.8658C22.5239 32.5729 21.4758 31.5248 20.1829 31.5248C18.8899 31.5248 17.8418 32.5729 17.8418 33.8658C17.8418 35.1588 18.8899 36.2069 20.1829 36.2069Z" fill="white"/>
<path d="M6.13086 3.0227V9.34547C6.13086 9.49509 6.16033 9.64324 6.21759 9.78147C6.27486 9.9197 6.35879 10.0453 6.46459 10.1511C6.5704 10.2569 6.696 10.3408 6.83424 10.398C6.97248 10.4553 7.12064 10.4847 7.27026 10.4847H29.0737C33.0721 10.4649 36.9989 11.5454 40.4244 13.608C45.1994 16.5178 50.0316 22.0428 49.2807 32.4066C49.2793 32.4209 49.283 32.4353 49.291 32.4472C49.2991 32.4591 49.311 32.4678 49.3248 32.4719C49.3385 32.476 49.3533 32.4752 49.3665 32.4697C49.3798 32.4641 49.3907 32.4541 49.3974 32.4414C50.2373 30.7965 54.428 21.6924 49.378 11.9243C49.378 11.9243 43.6763 1.8833 32.0412 1.8833H7.2701C6.96794 1.88334 6.67817 2.00341 6.46453 2.21708C6.25088 2.43075 6.13086 2.72054 6.13086 3.0227Z" fill="#FFDDCF"/>
<path d="M30.7649 42.117L26.878 38.7001C26.3881 38.2666 25.7719 38.0019 25.1201 37.9451C24.4684 37.8883 23.8157 38.0424 23.2581 38.3846L23.2448 38.3927C23.1801 38.432 23.1149 38.4697 23.0491 38.5057C22.4833 38.8072 22.0301 39.2837 21.7572 39.864C21.4843 40.4442 21.4064 41.0972 21.5351 41.7253L22.6119 46.8685C22.7143 47.3554 22.9814 47.7922 23.368 48.1054C23.7547 48.4186 24.2374 48.5891 24.735 48.5883C24.9719 48.5882 25.2071 48.5497 25.4316 48.4742C26.5031 48.1134 27.5314 47.6353 28.4977 47.0485C28.7603 46.8896 29.0161 46.7191 29.2688 46.5444C29.2897 46.5313 29.3099 46.517 29.3292 46.5016C29.8382 46.1476 30.3253 45.7631 30.7878 45.3502C31.0146 45.1456 31.1954 44.8953 31.3185 44.6158C31.4416 44.3363 31.5041 44.0339 31.502 43.7284C31.4998 43.423 31.433 43.1215 31.306 42.8438C31.179 42.5661 30.9946 42.3184 30.7649 42.117ZM25.0268 47.2699C24.9052 47.3118 24.7759 47.3271 24.6478 47.3148C24.5198 47.3024 24.3958 47.2627 24.2845 47.1982C24.1749 47.1363 24.0799 47.0515 24.0059 46.9497C23.9319 46.8479 23.8807 46.7314 23.8556 46.608L23.842 46.5428C24.7282 46.6063 25.6321 46.6458 26.5372 46.6609C26.046 46.8931 25.5417 47.0964 25.0268 47.2699ZM29.939 44.4045C29.5502 44.7517 29.1424 45.0769 28.7174 45.3786C27.001 45.4277 25.2832 45.3843 23.5715 45.2487L22.7793 41.4649C22.7077 41.1033 22.7548 40.7283 22.9138 40.3957C23.0727 40.0631 23.3349 39.7909 23.6612 39.6195C23.7425 39.5747 23.8235 39.528 23.906 39.4781L23.9206 39.4692C24.247 39.269 24.6291 39.1789 25.0106 39.2122C25.3921 39.2455 25.7528 39.4005 26.0396 39.6543L28.169 41.5262C27.3737 42.3912 26.4437 43.1219 25.4151 43.69C25.3398 43.729 25.273 43.7827 25.2187 43.848C25.1645 43.9133 25.1238 43.9887 25.0992 44.0699C25.0746 44.1512 25.0665 44.2365 25.0755 44.3209C25.0844 44.4053 25.1101 44.487 25.1512 44.5613C25.1922 44.6356 25.2477 44.7009 25.3144 44.7534C25.3811 44.8059 25.4576 44.8445 25.5395 44.8669C25.6213 44.8893 25.7069 44.8951 25.791 44.8839C25.8751 44.8727 25.9561 44.8448 26.0293 44.8017C27.1864 44.1631 28.2316 43.34 29.1238 42.3649L29.9268 43.0709C30.0222 43.1548 30.0987 43.2579 30.1513 43.3735C30.2039 43.489 30.2314 43.6144 30.2321 43.7414C30.2336 43.8665 30.2082 43.9904 30.1577 44.1049C30.1071 44.2193 30.0326 44.3215 29.939 44.4045Z" fill="#3D3C4C"/>
<path d="M25.5436 33.7907V33.8066C25.5453 33.8823 25.5453 33.9575 25.5436 34.0323C25.5223 34.6731 25.7087 35.3037 26.0751 35.8299C26.4415 36.3562 26.9682 36.7499 27.5766 36.9523L32.57 38.5881C32.8601 38.683 33.1669 38.7155 33.4704 38.6833C33.7739 38.6511 34.0671 38.5551 34.3309 38.4015C34.5968 38.2462 34.8269 38.0362 35.0059 37.7856C35.1849 37.5349 35.3088 37.2492 35.3694 36.9472C35.7795 34.8996 35.7687 32.7901 35.3377 30.7469C35.2737 30.4483 35.1473 30.1667 34.9668 29.9205C34.7863 29.6743 34.5557 29.4691 34.2902 29.3184C34.0247 29.1677 33.7303 29.0749 33.4264 29.046C33.1225 29.0172 32.8159 29.053 32.5268 29.1512L27.625 30.8118C27.0047 31.0198 26.4676 31.4215 26.0929 31.9579C25.7181 32.4942 25.5256 33.1367 25.5436 33.7907ZM32.9343 30.3546C33.0547 30.3138 33.1822 30.2991 33.3087 30.3112C33.4351 30.3233 33.5576 30.3621 33.6679 30.4249C33.7769 30.4861 33.8716 30.5699 33.9454 30.6707C34.0192 30.7715 34.0706 30.887 34.096 31.0094C34.4908 32.8831 34.5007 34.8176 34.1249 36.6953C34.1004 36.8216 34.0492 36.9412 33.9745 37.0461C33.8998 37.1509 33.8035 37.2384 33.6921 37.3028C33.5836 37.3667 33.4628 37.4066 33.3376 37.4199C33.2124 37.4331 33.0858 37.4193 32.9664 37.3795L31.9723 37.0539C32.4859 34.9692 32.4405 32.786 31.8407 30.7245L32.9343 30.3546ZM30.6357 31.1328C31.1499 32.9331 31.1931 34.8353 30.7613 36.6572L27.973 35.7439C27.6239 35.6253 27.3225 35.397 27.1137 35.093C26.9049 34.7891 26.8 34.4258 26.8145 34.0574C26.8165 33.9646 26.8165 33.8714 26.8145 33.7753V33.7585C26.8041 33.3756 26.9168 32.9995 27.1362 32.6856C27.3556 32.3717 27.6701 32.1366 28.0332 32.0149L30.6357 31.1328Z" fill="#3D3C4C"/>
<path d="M22.8157 29.5925L22.8316 29.6022C22.8964 29.641 22.9599 29.6816 23.0222 29.722C23.5209 30.0543 24.1064 30.2325 24.7057 30.2343C25.3886 30.2352 26.0503 29.997 26.576 29.5611L30.6243 26.211C30.8602 26.0152 31.0519 25.7715 31.1868 25.4961C31.3216 25.2207 31.3966 24.9198 31.4066 24.6134C31.4167 24.3069 31.3616 24.0017 31.2451 23.7181C31.1286 23.4345 30.9533 23.1788 30.7307 22.9678C29.218 21.5282 27.4282 20.4114 25.4703 19.6853C25.1836 19.58 24.8779 19.5367 24.5732 19.558C24.2685 19.5794 23.9719 19.665 23.7027 19.8093C23.4335 19.9535 23.1979 20.1531 23.0114 20.395C22.8249 20.6368 22.6916 20.9154 22.6205 21.2124L21.4095 26.2441C21.2543 26.8792 21.3072 27.5474 21.5603 28.1502C21.8135 28.753 22.2536 29.2586 22.8157 29.5925ZM25.7668 28.5821C25.4801 28.814 25.1261 28.9471 24.7576 28.9614C24.3892 28.9757 24.0259 28.8705 23.7221 28.6615C23.6445 28.6104 23.5657 28.5608 23.4856 28.5127L23.4697 28.5027C23.1404 28.3072 22.8825 28.0112 22.7341 27.6581C22.5857 27.305 22.5546 26.9136 22.6454 26.5415L23.3284 23.7024C25.1439 24.2611 26.7838 25.2803 28.0885 26.6608L25.7668 28.5821ZM23.8563 21.5098C23.8861 21.3864 23.9417 21.2706 24.0194 21.1702C24.0972 21.0697 24.1953 20.9869 24.3074 20.9271C24.4172 20.8675 24.5386 20.8322 24.6632 20.8236C24.7879 20.8149 24.913 20.8331 25.03 20.8769C26.8256 21.5428 28.467 22.567 29.8544 23.8871C29.9482 23.9752 30.022 24.0824 30.0707 24.2014C30.1195 24.3205 30.1422 24.4486 30.1371 24.5772C30.1334 24.703 30.1027 24.8266 30.0472 24.9395C29.9916 25.0524 29.9124 25.1521 29.815 25.2319L29.0702 25.8483C27.5938 24.25 25.7129 23.0806 23.6265 22.4637L23.8563 21.5098Z" fill="#3D3C4C"/>
<path d="M9.53472 38.7197L13.3609 37.2725C13.9597 37.0429 14.4683 36.6259 14.8106 36.0836C15.1529 35.5413 15.3107 34.9028 15.2605 34.2635C15.2555 34.1891 15.2522 34.1143 15.2506 34.0422V34.0217C15.2389 33.3678 15.0176 32.7349 14.6191 32.2163C14.2206 31.6977 13.6661 31.3207 13.0373 31.141L8.06608 29.7027C7.7728 29.6174 7.4648 29.5952 7.16234 29.6376C6.85988 29.6799 6.56981 29.7858 6.31121 29.9483C6.05262 30.1108 5.83136 30.3262 5.662 30.5804C5.49264 30.8345 5.37901 31.1217 5.32859 31.4229C4.99005 33.4835 5.0744 35.5915 5.57652 37.6184C5.69237 38.0897 5.96277 38.5085 6.34454 38.808C6.72631 39.1075 7.19743 39.2705 7.68268 39.2708C7.94378 39.2709 8.20272 39.2236 8.44694 39.1312L9.53472 38.7197ZM7.2691 37.8988C7.15491 37.8394 7.0548 37.7562 6.9755 37.6548C6.89621 37.5535 6.83959 37.4362 6.80946 37.3111C6.34921 35.452 6.27189 33.5188 6.58219 31.6289C6.60192 31.5054 6.64797 31.3876 6.71722 31.2835C6.78647 31.1793 6.87729 31.0913 6.98354 31.0254C7.09096 30.9577 7.21149 30.9134 7.33721 30.8956C7.46293 30.8778 7.59101 30.8868 7.71301 30.922L12.6842 32.3603C13.0521 32.4653 13.3766 32.6856 13.6099 32.9889C13.8433 33.2921 13.9731 33.6622 13.9803 34.0448V34.0659C13.9825 34.16 13.9866 34.2534 13.9929 34.3462C14.0243 34.7136 13.9361 35.0812 13.7414 35.3944C13.5468 35.7075 13.2561 35.9493 12.9127 36.0837L9.71085 37.2949C9.40076 36.2706 9.24342 35.2061 9.24391 34.1359C9.24391 33.7957 9.25979 33.453 9.29156 33.1167C9.29926 33.0337 9.29051 32.9499 9.26583 32.8702C9.24114 32.7905 9.201 32.7164 9.14769 32.6522C9.04003 32.5226 8.88529 32.441 8.71749 32.4255C8.63441 32.4178 8.55062 32.4265 8.47092 32.4512C8.39121 32.4759 8.31715 32.516 8.25296 32.5693C8.12332 32.677 8.04176 32.8317 8.02621 32.9995C7.99175 33.3744 7.97396 33.7566 7.97396 34.1359C7.97315 35.3598 8.15718 36.5768 8.51984 37.7457L7.99746 37.9429C7.87997 37.9881 7.75414 38.0076 7.62849 37.9999C7.50283 37.9923 7.38028 37.9578 7.2691 37.8988Z" fill="#3D3C4C"/>
<path d="M10.0919 26.2399L14.1578 29.5693C14.6815 29.9994 15.3384 30.2341 16.016 30.2332C16.6206 30.2314 17.211 30.0502 17.7124 29.7124C17.7745 29.6708 17.8377 29.6305 17.902 29.5914L17.917 29.5825C18.4776 29.2458 18.9154 28.7379 19.1657 28.1337C19.416 27.5295 19.4656 26.8608 19.3073 26.2263L18.0701 21.2006C17.9974 20.904 17.8628 20.6261 17.675 20.3852C17.4873 20.1444 17.2506 19.946 16.9807 19.8031C16.7108 19.6602 16.4137 19.5761 16.1089 19.5563C15.8042 19.5365 15.4987 19.5814 15.2125 19.6881C13.2583 20.4243 11.4744 21.5503 9.96912 22.9977C9.74757 23.2097 9.57349 23.4663 9.45838 23.7505C9.34327 24.0347 9.28976 24.3402 9.30136 24.6466C9.31296 24.953 9.38942 25.2535 9.52569 25.5282C9.66196 25.8029 9.85494 26.0456 10.0919 26.2403V26.2399ZM17.2594 28.4952L17.2436 28.5048C17.1635 28.5535 17.0847 28.6037 17.0072 28.6555C16.7045 28.8659 16.3419 28.9728 15.9734 28.9603C15.605 28.9478 15.2504 28.8165 14.9627 28.5861L12.388 26.4777C13.7575 25.0933 15.4706 24.0981 17.3516 23.5941L18.0742 26.5299C18.1668 26.9016 18.1377 27.2932 17.991 27.647C17.8443 28.0008 17.5879 28.2981 17.2594 28.4952ZM10.8506 23.9125C12.2312 22.5852 13.8675 21.5526 15.6598 20.8776C15.7765 20.8331 15.9015 20.8142 16.0262 20.8222C16.151 20.8302 16.2725 20.865 16.3826 20.9241C16.4949 20.9833 16.5934 21.0656 16.6717 21.1656C16.75 21.2656 16.8062 21.381 16.8367 21.5043L17.0473 22.3602C14.8999 22.9312 12.948 24.0749 11.4003 25.6693L10.8968 25.2563C10.799 25.1771 10.7194 25.0778 10.6633 24.9652C10.6072 24.8525 10.5759 24.7292 10.5715 24.6034C10.5659 24.475 10.5879 24.3469 10.636 24.2277C10.6842 24.1085 10.7574 24.001 10.8506 23.9125Z" fill="#3D3C4C"/>
<path d="M17.7301 38.5425C17.6645 38.5068 17.5992 38.4696 17.5366 38.4314L17.5198 38.4212C16.9606 38.0819 16.3073 37.9312 15.656 37.9913C15.0048 38.0513 14.39 38.319 13.9023 38.7547L10.0325 42.1931C9.80393 42.3956 9.62079 42.6442 9.49517 42.9226C9.36955 43.201 9.3043 43.5028 9.30371 43.8082C9.30313 44.1136 9.36722 44.4157 9.49177 44.6946C9.61633 44.9734 9.79852 45.2227 10.0264 45.4261C11.5883 46.8122 13.4159 47.8659 15.3981 48.5232C15.6905 48.6199 16 48.6536 16.3064 48.6222C16.6127 48.5907 16.909 48.4949 17.1756 48.3409C17.4397 48.1877 17.6683 47.9805 17.8465 47.7327C18.0247 47.4849 18.1484 47.2022 18.2096 46.9032L19.2605 41.7548C19.386 41.1259 19.3047 40.4733 19.0289 39.8944C18.7531 39.3155 18.2975 38.8413 17.7301 38.5425ZM14.7461 39.7059C15.0314 39.4509 15.391 39.2941 15.772 39.2587C16.1531 39.2233 16.5354 39.3112 16.8628 39.5093L16.8804 39.5199C16.9607 39.5682 17.042 39.6146 17.124 39.6591C17.4512 39.8288 17.7148 40.0998 17.8755 40.4316C18.0362 40.7634 18.0854 41.1382 18.0157 41.5002L17.3664 44.6814C15.4811 44.1794 13.7637 43.184 12.3911 41.7976L14.7461 39.7059ZM16.5388 47.241C16.4277 47.306 16.304 47.3464 16.1759 47.3594C16.0479 47.3724 15.9186 47.3578 15.7967 47.3164C13.979 46.7135 12.3028 45.7472 10.8702 44.4762C10.7764 44.3936 10.7015 44.2918 10.6505 44.1777C10.5994 44.0637 10.5735 43.94 10.5743 43.815C10.5743 43.688 10.6012 43.5625 10.6532 43.4466C10.7052 43.3308 10.7812 43.2273 10.8761 43.1429L11.4394 42.6426C12.9967 44.2325 14.9575 45.3684 17.1115 45.9283L16.9646 46.6487C16.9401 46.7722 16.8894 46.889 16.8159 46.9911C16.7425 47.0933 16.648 47.1786 16.5388 47.2412V47.241Z" fill="#3D3C4C"/>
<path d="M20.1494 52.7519C22.8624 52.7524 25.5426 52.1589 28.0016 51.013C30.4607 49.8671 32.6391 48.1966 34.3837 46.119C43.8337 44.5543 49.1922 39.8718 49.9153 32.5609C49.9245 32.5253 49.9307 32.4891 49.9338 32.4525C49.9385 32.3849 49.9404 32.3201 49.9449 32.2529C49.9473 32.2226 49.9512 32.193 49.9536 32.1624C49.9547 32.1455 49.9536 32.1292 49.9527 32.1125C50.1106 29.8622 49.9646 27.6009 49.5186 25.3897C49.8391 25.0503 50.4596 24.3873 51.1329 23.6364C51.0634 24.6052 50.933 25.5686 50.7425 26.521C50.725 26.6032 50.724 26.6881 50.7395 26.7708C50.755 26.8534 50.7868 26.9321 50.8331 27.0024C50.8793 27.0727 50.939 27.133 51.0087 27.1801C51.0784 27.2271 51.1568 27.2598 51.2392 27.2763C51.3217 27.2928 51.4066 27.2927 51.4891 27.2761C51.5715 27.2596 51.6498 27.2268 51.7195 27.1797C51.7892 27.1326 51.8488 27.0722 51.895 27.0019C51.9411 26.9316 51.9728 26.8528 51.9883 26.7702C52.3065 25.1826 52.465 23.5672 52.4613 21.9481C52.4681 21.8929 52.4675 21.8369 52.4597 21.7818C52.432 18.2477 51.5693 14.7702 49.9419 11.633C49.938 11.6255 49.9339 11.6182 49.9299 11.6111C49.8696 11.5047 48.4176 8.97732 45.4899 6.42534C45.2304 6.19917 44.9537 5.96872 44.6608 5.737L44.6564 5.7335C42.62 4.1089 40.2986 2.87822 37.8111 2.10454C37.7612 2.08255 37.7088 2.06717 37.6549 2.0588C35.8325 1.51866 33.9412 1.24582 32.0404 1.2488H7.61205C7.05087 1.24939 6.51283 1.47252 6.11595 1.86926C5.71906 2.266 5.49573 2.80395 5.49493 3.36513V9.00336C5.49556 9.56466 5.71881 10.1028 6.11571 10.4997C6.51261 10.8966 7.05074 11.1198 7.61205 11.1205H29.0731C32.955 11.1 36.7676 12.1486 40.0932 14.1511C44.3614 16.7524 49.2829 21.9545 48.6878 31.9827C48.3728 32.7079 45.9339 37.6942 38.1942 38.7191C39.1492 34.959 38.9058 30.9945 37.4979 27.3795C36.09 23.7645 33.588 20.6796 30.3414 18.5559C27.0948 16.4322 23.2658 15.3758 19.3896 15.5343C15.5133 15.6928 11.7834 17.0583 8.72104 19.44C5.65867 21.8216 3.41681 25.1005 2.30874 28.8183C1.20068 32.5362 1.28175 36.5074 2.54064 40.1769C3.79953 43.8465 6.17333 47.0311 9.33036 49.2858C12.4874 51.5405 16.2699 52.7526 20.1494 52.7527V52.7519ZM47.1494 19.3502C47.6538 18.6219 48.8855 16.821 50.0109 15.002C50.7543 17.14 51.151 19.3832 51.1862 21.6465C50.4904 22.4638 49.7136 23.3164 49.1525 23.921C48.694 22.3142 48.0204 20.7767 47.1501 19.3502H47.1494ZM36.857 3.1396C36.4834 5.68669 35.9415 8.20627 35.2351 10.6818C33.2955 10.1465 31.294 9.86783 29.2819 9.85291L29.5904 2.5186H32.0405C33.6662 2.51463 35.2855 2.7234 36.857 3.1396ZM21.1846 8.95032C21.3531 8.95032 21.5147 8.88338 21.6338 8.76424C21.753 8.6451 21.8199 8.48351 21.8199 8.31502V2.51796H28.3187L28.0104 9.84894H14.2594V2.5186H20.5489V8.31566C20.549 8.48412 20.6161 8.64562 20.7353 8.76463C20.8545 8.88365 21.0162 8.95044 21.1846 8.95032ZM6.76552 9.00304V3.36481C6.76573 3.14036 6.85498 2.92516 7.01369 2.76645C7.1724 2.60775 7.3876 2.51849 7.61205 2.51828H12.9889V9.84957H7.61205C7.3876 9.84936 7.1724 9.76011 7.01369 9.6014C6.85498 9.44269 6.76573 9.22749 6.76552 9.00304ZM36.4496 11.0582C37.1611 8.58231 37.7083 6.06212 38.0876 3.5141C40.0852 4.21124 41.9548 5.23148 43.6219 6.53413C43.4271 8.84359 42.3433 12.238 41.8236 13.7631C41.4653 13.5139 41.1079 13.2802 40.755 13.0643C39.3977 12.2399 37.9539 11.5672 36.4496 11.0582ZM42.8939 14.56C43.3053 13.3878 44.4016 10.1142 44.7866 7.49851C46.3545 8.8704 47.7133 10.4642 48.8199 12.2294C49.0423 12.6595 49.243 13.088 49.4289 13.5146C48.3773 15.2788 47.0919 17.1899 46.392 18.2118C45.3967 16.8415 44.2197 15.613 42.8933 14.56H42.8939ZM48.1033 35.1683C46.8043 39.2769 43.6451 41.7486 40.0924 43.2286C40.4859 41.9789 40.8164 40.7102 41.0827 39.4274C41.9517 39.1861 42.7994 38.8735 43.617 38.4928C43.577 38.7534 43.5316 39.0415 43.4812 39.345C43.4537 39.5112 43.4933 39.6816 43.5914 39.8186C43.6894 39.9556 43.8379 40.048 44.0041 40.0756C44.0387 40.0813 44.0737 40.0841 44.1087 40.0842C44.2591 40.084 44.4045 40.0305 44.5191 39.9332C44.6337 39.8359 44.7101 39.7011 44.7347 39.5527C44.8617 38.7904 44.9586 38.1189 45.011 37.7463C46.1672 37.0497 47.21 36.1803 48.1032 35.1683H48.1033ZM39.7133 39.7546C39.5227 40.6027 39.1709 41.9928 38.5782 43.7946C37.5783 44.126 36.5602 44.3993 35.5288 44.6132C36.4939 43.2022 37.2596 41.6646 37.8039 40.044C38.475 39.9732 39.1107 39.8753 39.7133 39.7546ZM20.1494 16.7903C23.5801 16.7903 26.9336 17.8076 29.7861 19.7136C32.6386 21.6195 34.8618 24.3285 36.1747 27.498C37.4875 30.6675 37.831 34.1552 37.1617 37.5199C36.4924 40.8846 34.8404 43.9753 32.4146 46.4011C29.9888 48.8269 26.8981 50.4789 23.5334 51.1482C20.1687 51.8175 16.681 51.474 13.5115 50.1612C10.3421 48.8483 7.63304 46.6251 5.72708 43.7726C3.82112 40.9201 2.80382 37.5665 2.80382 34.1359C2.80899 29.5372 4.63813 25.1282 7.88994 21.8764C11.1417 18.6246 15.5507 16.7955 20.1494 16.7903Z" fill="#3D3C4C"/>
<path d="M17.6312 32.485C17.3283 32.9897 17.1819 33.573 17.2106 34.161C17.2392 34.7489 17.4415 35.3152 17.792 35.7882C18.1424 36.2612 18.6253 36.6196 19.1794 36.8182C19.7336 37.0167 20.3342 37.0465 20.9053 36.9037C21.4764 36.761 21.9923 36.452 22.3878 36.016C22.7833 35.5801 23.0407 35.0366 23.1273 34.4543C23.214 33.872 23.126 33.2772 22.8745 32.7449C22.6231 32.2127 22.2195 31.7669 21.7147 31.464C21.0376 31.0588 20.2274 30.9387 19.4618 31.1301C18.6963 31.3215 18.0379 31.8088 17.6312 32.485ZM18.7205 33.1387C18.8941 32.8494 19.1496 32.6181 19.4546 32.4739C19.7596 32.3298 20.1006 32.2794 20.4343 32.3291C20.768 32.3787 21.0794 32.5262 21.3293 32.7529C21.5792 32.9795 21.7562 33.2752 21.8381 33.6025C21.9199 33.9298 21.9028 34.274 21.789 34.5916C21.6752 34.9092 21.4698 35.1859 21.1988 35.3868C20.9277 35.5876 20.6031 35.7036 20.2662 35.72C19.9292 35.7364 19.5949 35.6525 19.3056 35.4789C18.9179 35.246 18.6384 34.8687 18.5287 34.4299C18.419 33.9911 18.488 33.5267 18.7205 33.1387Z" fill="#E95947"/>
</svg>
