<svg width="53" height="54" viewBox="0 0 53 54" fill="none" xmlns="http://www.w3.org/2000/svg">
<path d="M52.3746 18.7129C49.1328 33.5313 41.5088 36.1697 28.1068 36.1697C14.6997 36.1697 5.82304 30.2639 3.60386 20.4923C2.51984 15.7165 5.44976 11.3957 10.3228 8.01074C16.1417 3.97633 23.2748 2.34519 30.2902 3.27581C35.0252 3.90475 39.5198 5.41829 42.3474 8.94647C44.4797 11.6054 44.8632 14.8012 45.0166 18.0686C46.0495 14.1365 45.5944 9.93845 42.8178 6.77331C39.1823 2.62642 33.0872 1.23048 27.2376 1.40434C27.5239 1.3532 27.8154 1.30207 28.1017 1.25094C47.6244 -1.9909 54.4404 9.29418 52.3746 18.7129Z" fill="#F4E6F8"/>
<path d="M28.489 2.05942L28.9838 1.84058C29.0822 1.79681 29.1916 1.78314 29.2954 1.79955L29.8313 1.88435C29.998 1.9117 30.1265 1.7421 30.0582 1.58892L29.8395 1.09379C29.7957 0.995313 29.7821 0.885893 29.7985 0.781944L29.8832 0.245787C29.9106 0.0789221 29.7411 -0.0496463 29.588 0.0187411L29.0931 0.237581C28.9947 0.281349 28.8854 0.295026 28.7815 0.278613L28.2456 0.193813C28.0789 0.166458 27.9504 0.336058 28.0187 0.489246L28.2374 0.984371C28.2812 1.08285 28.2949 1.19227 28.2784 1.29622L28.1937 1.83237C28.1664 1.9965 28.3331 2.12507 28.489 2.05942Z" fill="#E9CFF1"/>
<path d="M36.7051 8.27159L36.2756 9.78002L34.7928 10.2811C34.6138 10.3425 34.578 10.5828 34.7365 10.6902L36.0353 11.5646L36.0506 13.1292C36.0506 13.3184 36.2756 13.4258 36.4239 13.3082L37.6562 12.3418L39.1493 12.8122C39.3334 12.8685 39.5021 12.6946 39.4356 12.5105L38.8987 11.0379L39.8038 9.75957C39.9163 9.60105 39.7987 9.3863 39.6095 9.39652L38.0448 9.45277L37.1091 8.19489C36.9966 8.04661 36.7563 8.08751 36.7051 8.27159Z" fill="#CE92DD"/>
<path d="M12.5703 19.3829L11.7828 19.884L10.9238 19.521C10.8164 19.4749 10.709 19.5721 10.7397 19.6846L10.9749 20.5845L10.3613 21.2902C10.2846 21.3771 10.3409 21.51 10.4585 21.5152L11.3891 21.5714L11.8697 22.3691C11.9311 22.4662 12.0743 22.456 12.1152 22.3486L12.4578 21.4794L13.3679 21.2697C13.4804 21.2441 13.5111 21.101 13.4242 21.0294L12.7032 20.4362L12.785 19.5056C12.7901 19.3982 12.6623 19.3215 12.5703 19.3829Z" fill="white"/>
<path d="M8.14762 2.03435L8.2192 2.76555L7.65674 3.23598C7.59027 3.29222 7.61583 3.40471 7.70276 3.42517L8.41862 3.58368L8.69474 4.26375C8.73054 4.34556 8.84303 4.35579 8.88905 4.27909L9.26232 3.65015L9.99352 3.59902C10.0804 3.59391 10.1265 3.48653 10.0651 3.42005L9.57935 2.87293L9.75831 2.16218C9.77877 2.07525 9.69184 2.00367 9.61002 2.03946L8.94018 2.33092L8.32147 1.94231C8.23966 1.88606 8.1425 1.94742 8.14762 2.03435Z" fill="#E9CFF1"/>
<path d="M48.8335 11.8406L48.1739 12.4235L47.32 12.2088C47.2177 12.1832 47.1257 12.2855 47.1717 12.3877L47.5194 13.1956L47.049 13.9422C46.9927 14.0342 47.0643 14.1518 47.1717 14.1416L48.0461 14.0598L48.6085 14.7347C48.675 14.8165 48.8131 14.7859 48.8335 14.6785L49.0278 13.8195L49.846 13.4922C49.9482 13.4513 49.9585 13.3132 49.8664 13.2621L49.1096 12.8121L49.0483 11.9326C49.0381 11.8253 48.9153 11.769 48.8335 11.8406Z" fill="white"/>
<path d="M1.71255 18.9394L3.02963 18.3467C3.29305 18.2314 3.58281 18.1765 3.87915 18.1985L5.36746 18.2918C5.82844 18.3192 6.15113 17.9131 5.92722 17.5729L5.216 16.4753C5.0777 16.2558 5.01185 16.0143 5.03819 15.7674L5.15014 14.5271C5.18307 14.143 4.69575 13.8741 4.28745 14.0606L2.97036 14.6533C2.70695 14.7686 2.41719 14.8235 2.12084 14.8015L0.632538 14.7082C0.171558 14.6808 -0.151129 15.0869 0.0727761 15.4271L0.784002 16.5247C0.922296 16.7442 0.988151 16.9857 0.961809 17.2326L0.849857 18.4729C0.816929 18.857 1.30425 19.1259 1.71255 18.9394Z" fill="#CE92DD"/>
<path d="M19.1163 8.37385L19.5458 8.14375C19.6327 8.09773 19.7248 8.07727 19.8219 8.0875L20.3077 8.12329C20.456 8.13352 20.5633 7.97501 20.4918 7.84206L20.2617 7.41254C20.2156 7.32562 20.1952 7.23358 20.2003 7.13642L20.2361 6.65066C20.2463 6.50237 20.0878 6.39499 19.9549 6.46658L19.5253 6.69668C19.4384 6.7427 19.3464 6.76315 19.2492 6.75293L18.7635 6.71713C18.6152 6.70691 18.5078 6.86542 18.5794 6.99836L18.8095 7.42788C18.8555 7.51481 18.8759 7.60685 18.8657 7.704L18.8299 8.18977C18.8248 8.34317 18.9833 8.44543 19.1163 8.37385Z" fill="white"/>
<path d="M41.2814 22.1134L41.624 21.9293C41.6904 21.8935 41.7671 21.8782 41.8438 21.8833L42.2325 21.914C42.3552 21.9242 42.437 21.7964 42.3807 21.689L42.1967 21.3464C42.1609 21.2799 42.1455 21.2032 42.1506 21.1265L42.1813 20.7379C42.1916 20.6152 42.0637 20.5334 41.9563 20.5896L41.6137 20.7737C41.5473 20.8095 41.4706 20.8249 41.3939 20.8197L41.0053 20.7891C40.8825 20.7788 40.8007 20.9067 40.857 21.0141L41.0411 21.3566C41.0768 21.4231 41.0922 21.4998 41.0871 21.5765L41.0564 21.9651C41.0462 22.0878 41.174 22.1697 41.2814 22.1134Z" fill="#E9CFF1"/>
<path d="M41.825 28.1474L41.8045 28.173L35.9805 35.7049C43.1851 34.6669 48.0274 31.604 50.9113 23.8267L49.4029 23.8369L41.3085 23.888L42.8732 26.7924L42.3619 27.452L41.825 28.1474Z" fill="#E9CFF1"/>
<path d="M5.84829 26.0148C5.83807 26.0199 5.82273 26.025 5.8125 26.0301C8.14417 29.9009 11.9025 32.7899 16.8521 34.4722L18.2532 30.7753C18.3964 30.3969 18.2072 29.9725 17.8288 29.8293L14.5154 28.5766L14.6125 28.326L13.912 28.0601L14.0807 27.6101C14.1728 27.3647 14.05 27.0886 13.8046 26.9965L13.7279 26.9659C13.8813 26.5415 13.7075 25.9176 14.1216 25.2785C14.1625 25.2938 14.2086 25.3092 14.2495 25.3245C14.2495 25.3245 14.4284 25.0688 14.6432 24.7978C14.7659 24.849 14.8886 24.895 15.0113 24.9308L17.6907 22.2207L20.3394 19.5413C20.3394 19.5413 20.365 19.5311 20.411 19.5158C20.411 19.5158 20.411 19.5158 20.4161 19.5158C20.4212 19.5158 20.4263 19.5107 20.4315 19.5107C20.4366 19.5107 20.4417 19.5055 20.4417 19.5055C20.4468 19.5055 20.4519 19.5004 20.457 19.5004C20.4621 19.5004 20.4673 19.4953 20.4724 19.4953C20.4775 19.4902 20.4826 19.4902 20.4877 19.4902C20.4928 19.4902 20.4928 19.4851 20.4979 19.4851C20.5133 19.48 20.5235 19.4749 20.5388 19.4697C20.544 19.4697 20.5491 19.4646 20.5542 19.4646C20.5593 19.4646 20.5695 19.4595 20.5746 19.4595C20.5797 19.4544 20.59 19.4544 20.6002 19.4493C20.6053 19.4442 20.6104 19.4442 20.6207 19.4391C20.6258 19.434 20.636 19.434 20.6462 19.4288C20.6513 19.4237 20.6616 19.4237 20.6667 19.4186C20.6769 19.4135 20.6922 19.4084 20.7025 19.4033C20.7076 19.3982 20.7127 19.3982 20.7178 19.3982C20.7331 19.393 20.7434 19.3879 20.7587 19.3828C20.7689 19.3777 20.7741 19.3777 20.7843 19.3726C20.7945 19.3675 20.7996 19.3675 20.8098 19.3624C20.8201 19.3573 20.8303 19.3573 20.8405 19.3521C20.8508 19.347 20.861 19.347 20.8661 19.3419C20.8763 19.3368 20.8865 19.3368 20.8917 19.3317C20.9019 19.3266 20.9121 19.3215 20.9275 19.3163C20.9428 19.3112 20.953 19.3061 20.9684 19.301C20.9837 19.2959 20.999 19.2908 21.0093 19.2857C21.0195 19.2806 21.0297 19.2754 21.0399 19.2703C21.0502 19.2652 21.0604 19.2601 21.0706 19.255C21.0809 19.2499 21.0911 19.2448 21.1013 19.2396C21.1115 19.2345 21.1269 19.2294 21.1371 19.2243C21.1473 19.2192 21.1575 19.2141 21.1678 19.209C21.178 19.2039 21.1933 19.1987 21.2036 19.1936C21.2138 19.1885 21.224 19.1834 21.2342 19.1783C21.2547 19.1681 21.2803 19.1578 21.3007 19.1527C21.3109 19.1476 21.3212 19.1425 21.3314 19.1425C21.3467 19.1374 21.3621 19.1323 21.3774 19.122C21.3876 19.1169 21.3979 19.1118 21.4081 19.1067C21.4234 19.1016 21.4388 19.0965 21.449 19.0863C21.4592 19.0811 21.4695 19.076 21.4848 19.0709C21.5001 19.0658 21.5155 19.0607 21.5257 19.0505C21.5359 19.0453 21.5462 19.0402 21.5615 19.0351C21.582 19.0249 21.6024 19.0147 21.628 19.0044C21.6382 18.9993 21.6484 18.9942 21.6587 18.9942C21.6484 19.0453 21.6433 19.1016 21.6331 19.1527C21.6331 19.1578 21.6331 19.1578 21.6331 19.1629C21.628 19.2141 21.6177 19.2652 21.6126 19.3215C21.6126 19.3266 21.6126 19.3317 21.6126 19.3368C21.6075 19.3879 21.5973 19.4391 21.5922 19.4902C21.5922 19.4953 21.5922 19.5004 21.5922 19.5055C21.5871 19.5567 21.5768 19.6078 21.5717 19.6589C21.5717 19.6641 21.5717 19.6692 21.5717 19.6692C21.541 19.889 21.5206 20.1038 21.495 20.3134V20.3186C21.4899 20.3646 21.4848 20.4157 21.4797 20.4617C21.4797 20.472 21.4797 20.4822 21.4746 20.4924C21.4695 20.5333 21.4643 20.5742 21.4643 20.61C21.4643 20.6202 21.4643 20.6356 21.4592 20.6458C21.4541 20.6816 21.4541 20.7174 21.449 20.7532C21.449 20.7685 21.449 20.7788 21.4439 20.7941C21.4388 20.8299 21.4388 20.8606 21.4337 20.8964C21.4337 20.9117 21.4337 20.9219 21.4286 20.9373C21.4234 20.9731 21.4234 21.0037 21.4234 21.0395C21.4234 21.0498 21.4234 21.0651 21.4183 21.0753C21.4183 21.1111 21.4132 21.1469 21.4132 21.1827C21.4132 21.1929 21.4132 21.2032 21.4132 21.2134C21.4081 21.3054 21.403 21.3872 21.3979 21.4742C21.3979 21.4793 21.3979 21.4895 21.3979 21.4946C21.3979 21.5304 21.3928 21.5611 21.3928 21.5969C21.3928 21.6071 21.3928 21.6225 21.3928 21.6327C21.3928 21.6582 21.3928 21.6838 21.3928 21.7094C21.3928 21.7247 21.3928 21.7401 21.3928 21.7503C21.3928 21.7707 21.3928 21.7963 21.3928 21.8219C21.3928 21.8372 21.3928 21.8526 21.3928 21.8628C21.3928 21.8832 21.3928 21.9037 21.3928 21.9241V22.0264C21.3928 22.0417 21.3928 22.052 21.3928 22.0673C21.3928 22.0878 21.3928 22.1082 21.3928 22.1236C21.3928 22.1338 21.3928 22.1491 21.3928 22.1593C21.3928 22.1798 21.3928 22.2003 21.3928 22.2207C21.3928 22.2309 21.3928 22.2412 21.3928 22.2463C21.3928 22.277 21.3979 22.3025 21.3979 22.3281C21.403 22.3946 21.403 22.4661 21.403 22.5377C21.3672 24.7927 18.5344 29.6299 18.5344 29.6299C18.5344 29.6299 18.5498 29.6299 18.5753 29.635C18.5856 29.635 18.5958 29.635 18.606 29.6401C18.6162 29.6401 18.6316 29.6452 18.6469 29.6452C18.6623 29.6452 18.6776 29.6504 18.6929 29.6504H18.698C18.7338 29.6555 18.7696 29.6606 18.8105 29.6657H18.8157C18.8566 29.6708 18.9077 29.6759 18.9588 29.681C18.9588 29.681 18.9639 29.681 18.9691 29.681C19.0202 29.6861 19.0764 29.6913 19.1327 29.6964C19.1378 29.6964 19.1378 29.6964 19.1429 29.6964C19.1685 29.7015 19.1992 29.7015 19.2247 29.7015C19.2298 29.7015 19.2298 29.7015 19.2349 29.7015C19.2656 29.7015 19.2963 29.7066 19.3321 29.7117H19.3372C19.3679 29.7117 19.3986 29.7168 19.4292 29.7168C19.4344 29.7168 19.4395 29.7168 19.4446 29.7168C19.6849 29.7322 19.9559 29.7475 20.2423 29.7526C20.2474 29.7731 20.2474 29.7986 20.2525 29.8191C20.2576 29.8447 20.2627 29.8702 20.2627 29.8958C20.2627 29.9009 20.2627 29.906 20.2678 29.9111C20.2729 29.9367 20.2781 29.9623 20.2832 29.9878V29.9929C20.2934 30.0492 20.3087 30.1003 20.319 30.1515C20.411 30.4992 20.5695 30.806 20.7843 31.0412C20.999 31.2764 21.2803 31.44 21.6126 31.4963C21.6535 31.5014 21.6893 31.5116 21.7302 31.5167C21.1115 32.6928 20.544 33.7103 20.2985 33.9711C20.1451 34.1398 19.8076 34.5847 19.3832 35.1727C20.8865 35.5358 22.4768 35.7966 24.1591 35.9551C25.2124 34.7023 26.956 32.3195 27.8918 31.0258C29.1701 30.8264 30.0956 30.6832 30.0905 30.8315C30.0905 30.8418 30.0854 30.8571 30.0701 30.8724C29.6405 31.3991 29.7479 33.245 29.7939 33.7052C29.84 34.1654 29.4871 35.5 29.4871 35.5C29.5178 35.5358 29.5536 35.5716 29.5894 35.6074C29.5996 35.6176 29.615 35.6278 29.6252 35.6432C29.6456 35.6636 29.6661 35.6841 29.6917 35.7045C29.707 35.7199 29.7223 35.7301 29.7377 35.7454C29.7581 35.7608 29.7735 35.7761 29.7939 35.7914L29.799 35.7966C29.7786 35.9142 29.753 36.0267 29.7326 36.1289C30.5558 36.1136 31.3535 36.088 32.1307 36.0471C32.3762 35.4131 33.225 33.2348 34.0022 31.7264C34.9124 29.9418 34.7794 28.5714 34.1045 28.1215C32.8312 27.2727 30.6785 26.7716 28.6383 26.4596C28.6383 26.4596 29.0474 25.8563 29.3746 25.2478C29.39 25.2478 29.4053 25.2478 29.4207 25.2478C29.6508 25.2785 29.707 24.9512 30.1314 24.6802C30.4178 24.4961 30.4638 24.2405 30.607 24.0206C30.6785 24.041 30.745 24.0462 30.8064 24.0308C31.0569 24.2251 31.3177 24.2916 31.512 24.1893C31.5273 24.1842 31.5427 24.174 31.558 24.1689C31.783 24.0717 32.0029 23.9797 32.2074 23.8928C32.3097 23.8467 32.4068 23.8058 32.4989 23.7649C32.6778 23.6882 32.8415 23.6115 33.0051 23.5399C33.0767 23.5093 33.1432 23.4786 33.2096 23.4479C34.759 22.7474 35.4748 22.3025 35.6129 21.8883C35.618 21.8679 35.6282 21.8474 35.6282 21.827C35.6487 21.7247 35.6333 21.6225 35.5873 21.5151C35.5873 21.51 35.5822 21.5048 35.5822 21.4997C35.5771 21.4844 35.5669 21.4691 35.5566 21.4537C35.5464 21.4333 35.5362 21.4128 35.5208 21.3975C35.5208 21.3821 35.5157 21.3668 35.5106 21.3514C35.5055 21.3361 35.5004 21.3208 35.4902 21.3054C35.4851 21.3003 35.4799 21.2901 35.4799 21.285C35.4493 21.2338 35.4186 21.1827 35.3879 21.1367C35.3572 21.0907 35.3317 21.0446 35.301 20.9986C35.2959 20.9884 35.2907 20.9833 35.2856 20.9731C33.4448 18.0482 31.7626 16.591 30.7246 16.141C30.3462 15.8342 30.0854 15.6603 29.8042 15.5223C29.8195 15.4609 29.8246 15.42 29.8246 15.42L29.4513 14.8524C29.4565 14.8269 29.4667 14.8064 29.4718 14.7808C30.2081 14.745 30.8371 14.4382 30.8626 13.8962C30.9035 13.0577 30.5149 12.306 30.5149 12.306C30.5047 12.3111 30.4996 12.3111 30.4893 12.3162C30.3717 11.8867 30.2337 11.4521 30.2132 11.2424C30.1928 11.0328 30.1416 10.7873 30.0803 10.5368C30.1263 10.5266 30.1672 10.4857 30.1672 10.4345C30.1723 10.3732 30.1263 10.3169 30.0649 10.3118C30.0496 10.3118 30.0343 10.3118 30.0189 10.3118C29.978 10.1635 29.932 10.0152 29.886 9.8874C29.8655 9.82604 29.84 9.77491 29.8093 9.71866C29.9218 9.87717 30.0496 10.0817 30.1314 10.2709C30.1314 10.2709 29.9422 9.64707 29.932 9.15108C29.9218 8.64998 29.4309 7.09553 27.4162 8.32784C26.4294 8.93121 24.8442 8.47101 24.9874 9.87717C25.1306 11.2833 24.609 11.2322 25.2226 11.943C25.7953 12.5975 25.9283 14.0957 26.6953 13.7326C26.6646 13.8809 26.6339 14.019 26.593 14.1417L26.1942 14.4587C26.143 14.4587 26.097 14.4587 26.051 14.4587C25.5294 14.4894 24.8596 14.4331 24.2153 14.4792C24.0977 14.4536 23.9852 14.4485 23.8881 14.4689C23.0137 14.6274 19.9355 15.8086 17.885 16.9949C17.7623 17.0665 17.6549 17.1636 17.568 17.2761L15.3744 20.16C15.1801 20.4004 14.9756 20.6714 14.7659 20.9628L12.741 23.632C12.741 23.632 12.7922 23.6729 12.8791 23.7394L12.5314 24.3018C12.5314 24.3018 12.5621 24.3376 12.6183 24.3939C11.928 25.3859 11.6519 25.437 11.294 26.0557C11.069 26.0097 10.8338 26.1324 10.752 26.3523L10.5832 26.8022L10.1026 26.6233L9.96962 26.6437L9.89804 26.8329L7.53057 25.9381C7.17775 25.8051 6.12441 25.7284 5.84829 26.0148ZM30.6479 21.1674C30.7757 20.9322 30.8933 20.6765 30.9905 20.4055C30.9905 20.4055 30.9904 20.4106 30.9956 20.4106C31.1336 20.6049 31.287 20.789 31.4046 20.927C31.5222 21.0651 31.604 21.152 31.604 21.152C31.0569 21.3975 30.5456 21.6429 30.3513 21.7401C30.4382 21.5662 30.5354 21.377 30.6479 21.1674ZM29.5792 9.48856C29.5792 9.48856 29.6252 9.54481 29.6866 9.63173C29.6456 9.58571 29.6047 9.54481 29.5587 9.50902C29.5741 9.49368 29.5792 9.48856 29.5792 9.48856ZM11.2224 27.2164L13.2677 27.9885L13.2268 28.0959L11.1815 27.3238L11.2224 27.2164Z" fill="#E9CFF1"/>
<path d="M17.0506 40.0099C17.0506 40.0099 16.0331 40.7565 15.6138 41.2831C15.1536 41.8609 14.6883 42.3723 14.407 42.7507C14.1309 43.129 11.8044 43.7682 12.781 41.9837C13.8241 40.0713 15.0922 38.1487 15.0922 38.1487L17.0506 40.0099Z" fill="#AA8AE0"/>
<path d="M26.3575 29.5023C26.3575 29.5023 22.2259 35.3162 21.2902 36.0678C20.5334 36.6814 15.9775 41.2221 15.957 41.2476C15.5582 40.8437 14.827 40.4499 14.781 40.4244C14.0242 39.8721 13.5742 39.7801 13.5742 39.7801C13.5742 39.7801 17.4706 34.0532 18.1251 33.3424C18.7796 32.6317 21.7709 26.5059 21.7709 26.5059L26.291 25.6213L26.3575 29.5023Z" fill="#3E1C7A"/>
<path d="M15.2613 46.4327L14.7448 46.7753C13.4512 45.9265 12.7506 43.6562 12.1882 42.7307C11.6257 41.8052 11.7996 41.4217 11.8047 41.4217C12.3671 41.0586 12.7762 40.7723 13.0677 40.5575C13.1904 40.4655 13.3642 40.491 13.4614 40.6138C13.6353 40.8387 13.8551 41.2222 13.8091 41.6876C13.758 42.204 14.4176 42.6028 14.8267 42.7971C14.9391 42.8483 14.9954 42.971 14.9647 43.0937C14.8727 43.4619 14.8522 43.8709 14.9801 44.2902C15.5988 46.3356 15.2613 46.4327 15.2613 46.4327Z" fill="#3E1C7A"/>
<path d="M12.6941 42.4085C13.2055 43.3187 13.7884 45.4459 15.261 46.4378L14.7446 46.7804C13.4509 45.9316 12.7504 43.6613 12.1879 42.7358C11.6254 41.8103 11.8044 41.4268 11.8044 41.4268C11.9885 41.3092 12.1675 41.1609 12.3413 41.074C12.3209 41.212 12.2851 41.6825 12.6941 42.4085Z" fill="#321266"/>
<path d="M47.6235 33.4954L47.1889 33.8022L46.969 33.9556L45.4811 35.0089L39.2428 39.4268L39.611 46.3298L36.7322 45.2407L25.9482 41.1449L24.9255 41.7534L4.4314 53.9998H1.68555L14.6376 43.9266L21.3565 38.7059L22.4456 37.8571H25.0278L27.1396 38.5167L33.7511 40.5773L36.5379 41.4466L36.6606 41.4875L36.4765 40.3114L35.8118 36.0367L41.8813 28.3105L41.9017 28.2849L42.454 27.5793L43.6198 26.0964L47.2503 32.8L47.6235 33.4954Z" fill="#B63760"/>
<path d="M52.5619 23.1667L42.0029 23.2281H39.1445L49.32 36.5994L52.5619 23.1667Z" fill="#B63760"/>
<path d="M44.6675 33.4954L36.4299 39.4268L36.4759 40.3114L36.5373 41.4466L36.7316 45.2407L36.7827 46.1508L36.7878 46.3298L26.914 42.5204L24.925 41.7534L23.3501 41.1449L7.75445 50.6199L5.30144 52.9613H3.07715L14.4682 43.5891L21.6115 38.4604L22.445 37.8571L24.5824 38.5371L33.8886 41.4875L33.7505 40.5773L33.6074 39.6723L33.05 36.0367L40.7046 26.1322L40.7353 26.0964L41.8244 28.1469L41.9011 28.2849L44.6726 33.4954H44.6675Z" fill="url(#paint0_linear_986_1704)"/>
<path d="M49.5613 23.1667L39.1455 23.2281L46.3348 36.5994L49.5613 23.1667Z" fill="url(#paint1_linear_986_1704)"/>
<path d="M36.7937 46.3297H39.6111L39.243 39.4319H36.4307L36.7937 46.3297Z" fill="#A8385A"/>
<path d="M46.335 36.5992H49.3211L52.563 23.1665H49.5615L46.335 36.5992Z" fill="#B63760"/>
<path d="M11.8872 37.1311L2.4429 33.0098C2.06452 32.8666 1.87533 32.4422 2.0185 32.0638L3.63431 25.437C3.77748 25.0586 4.98933 25.1353 5.36772 25.2784L15.6659 29.1748C16.0443 29.318 16.2335 29.7424 16.0903 30.1208L13.682 36.4817C13.5388 36.855 12.2656 37.2743 11.8872 37.1311Z" fill="#49176E"/>
<path d="M11.7489 37.0954L1.45072 33.199C1.07233 33.0559 0.883139 32.6315 1.02631 32.2531L3.43468 25.8921C3.57785 25.5137 4.00226 25.3245 4.38064 25.4677L14.6789 29.3641C15.0572 29.5072 15.2464 29.9316 15.1033 30.31L12.6949 36.6659C12.5517 37.0443 12.1273 37.2386 11.7489 37.0954Z" fill="url(#paint2_linear_986_1704)"/>
<path d="M13.2424 33.7869L2.51978 29.7321C2.259 29.6349 2.12606 29.3434 2.22321 29.0776L3.4504 25.8408C3.54756 25.58 3.83902 25.4471 4.10491 25.5443L14.8275 29.5991C15.0883 29.6963 15.2212 29.9877 15.1241 30.2536L13.8918 33.4955C13.7946 33.7562 13.5032 33.8892 13.2424 33.7869Z" fill="#3E1C7A"/>
<path d="M13.1906 33.5926L2.46802 29.5377C2.20724 29.4406 2.0743 29.1491 2.17145 28.8832L3.39865 25.6465C3.4958 25.3857 3.78726 25.2528 4.05315 25.3499L14.7758 29.4048C15.0365 29.5019 15.1695 29.7934 15.0723 30.0593L13.8451 33.296C13.748 33.5619 13.4565 33.6897 13.1906 33.5926Z" fill="url(#paint3_linear_986_1704)"/>
<path d="M5.68501 31.1073L5.53161 31.1329L5.02539 30.8568L5.24015 29.9108L5.39355 29.8853L6.05317 30.1358L5.68501 31.1073Z" fill="#B6871E"/>
<path d="M10.4213 32.8971L10.2679 32.9227L9.76172 32.6517L9.97648 31.7057L10.1299 31.675L10.7895 31.9256L10.4213 32.8971Z" fill="#B6871E"/>
<path d="M5.52973 31.133L4.87012 30.8824L5.23828 29.9109L5.89789 30.1614L5.52973 31.133Z" fill="url(#paint4_linear_986_1704)"/>
<path d="M10.2651 32.9223L9.60547 32.6769L9.97363 31.7053L10.6332 31.9508L10.2651 32.9223Z" fill="url(#paint5_linear_986_1704)"/>
<path d="M9.00339 26.6948L8.87044 26.7153L7.82732 26.25L7.80176 25.9841L7.9347 25.9636L9.11077 26.4085L9.00339 26.6948Z" fill="#B6871E"/>
<path d="M12.3364 27.958L12.2034 27.9784L11.1603 27.5131L11.1348 27.2421L11.2677 27.2217L12.4438 27.6717L12.3364 27.958Z" fill="#B6871E"/>
<path d="M11.8671 27.6204L11.5143 27.4874L11.7393 26.8943C11.7955 26.746 11.7188 26.5824 11.5706 26.5261L9.13151 25.6006C9.05992 25.575 8.98322 25.575 8.91164 25.6057C8.84005 25.6364 8.78892 25.6926 8.76335 25.7642L8.53837 26.3574L8.18555 26.2244L8.41053 25.6313C8.47189 25.4625 8.59973 25.3347 8.75824 25.258C8.92186 25.1864 9.10083 25.1813 9.26957 25.2427L11.7086 26.1682C12.0512 26.296 12.2251 26.6846 12.0972 27.0272L11.8671 27.6204Z" fill="#3E1C7A"/>
<path d="M8.8704 26.7153L7.69434 26.2705L7.80172 25.9841L8.97778 26.429L8.8704 26.7153Z" fill="url(#paint6_linear_986_1704)"/>
<path d="M12.2046 27.9783L11.0234 27.5334L11.1359 27.2419L12.312 27.6868L12.2046 27.9783Z" fill="url(#paint7_linear_986_1704)"/>
<path d="M27.9108 15.3536C28.821 15.3638 30.943 16.8262 33.2952 20.6765C33.5969 21.1674 31.71 22.4048 30.6874 21.6429C27.9364 19.6027 26.2644 15.3382 27.9108 15.3536Z" fill="url(#paint8_linear_986_1704)"/>
<path d="M29.7264 34.9783C29.7264 34.9783 28.8827 36.6555 29.6497 37.4276C30.3962 38.1741 29.256 39.8462 28.2742 39.1917C27.2976 38.5423 26.6686 37.2333 26.6993 36.9367C26.7249 36.6401 27.4305 36.001 27.5021 35.7044C27.5737 35.4078 27.7527 34.4465 27.7527 34.4465C27.7527 34.4465 29.8236 34.4619 29.7264 34.9783Z" fill="#AA8AE0"/>
<path d="M32.0937 39.7948L31.9199 40.3879C30.3859 40.572 28.3917 39.2834 27.3639 38.9357C26.3412 38.588 26.2236 38.1841 26.2236 38.179C26.4231 37.5398 26.5509 37.054 26.6327 36.7012C26.6685 36.5529 26.8168 36.4558 26.9702 36.4916C27.2463 36.5529 27.6605 36.7063 27.9264 37.0898C28.2178 37.5193 28.9797 37.3966 29.4195 37.2841C29.5371 37.2535 29.6598 37.3097 29.716 37.4222C29.8797 37.7597 30.1302 38.0869 30.4984 38.3273C32.288 39.5033 32.0937 39.7948 32.0937 39.7948Z" fill="#3E1C7A"/>
<path d="M27.5378 38.3631C28.5144 38.7313 30.3296 39.984 32.0937 39.7948L31.9199 40.388C30.3859 40.572 28.3917 39.2835 27.3639 38.9358C26.3361 38.5881 26.2236 38.179 26.2236 38.179C26.2901 37.9694 26.331 37.7444 26.4077 37.5603C26.4793 37.6881 26.7554 38.0716 27.5378 38.3631Z" fill="#321266"/>
<path d="M22.071 25.3447C24.2032 25.539 29.5569 25.9174 31.9141 27.4872C32.5891 27.9371 32.722 29.3075 31.8118 31.092C30.8966 32.8766 29.8739 35.5918 29.8739 35.5918C29.8739 35.5918 28.4166 36.1082 27.307 34.8708C27.307 34.8708 27.6547 33.5362 27.6138 33.076C27.5678 32.6158 27.4604 30.7699 27.8899 30.2432C28.3194 29.7166 22.0096 31.317 19.4325 30.8619C17.106 30.4529 17.4997 24.9305 22.071 25.3447Z" fill="url(#paint9_linear_986_1704)"/>
<path d="M18.3954 27.1855C18.2267 28.152 18.8659 29.5121 19.9141 29.6757C22.6906 30.1155 29.7214 28.9292 29.2459 29.4661C28.7703 30.003 28.6016 31.312 28.6425 31.7773C28.6834 32.2426 28.0238 35.4026 28.0238 35.4026C28.0494 35.4282 28.0698 35.4487 28.0954 35.4691C27.8295 35.3413 27.5636 35.1521 27.3131 34.876C27.3131 34.876 27.6608 33.5414 27.6199 33.0812C27.5738 32.621 27.4665 30.7751 27.896 30.2484C28.3255 29.7218 22.0054 31.3478 19.4334 30.8671C18.0784 30.6115 17.6438 28.5406 18.3954 27.1855Z" fill="#3E1C7A"/>
<path d="M18.1383 29.5224C19.0024 29.5684 20.1478 29.507 20.6693 28.9701C22.4539 27.1191 23.0266 25.3959 26.4423 25.8305C24.7037 25.5647 23.047 25.4368 22.0704 25.3499C18.803 25.0482 17.6729 27.7838 18.1383 29.5224Z" fill="#3E1C7A"/>
<path d="M28.4852 20.5077C27.616 22.0826 27.6262 22.7116 27.5853 23.5757C27.5597 24.1944 26.445 25.8307 26.445 25.8307C23.0293 25.3909 22.3032 26.7051 20.5136 28.5561C19.6187 29.4867 16.3564 28.9907 16.3564 28.9907C16.3564 28.9907 19.3733 23.8365 19.2199 21.6889C19.1074 20.1293 19.8744 14.6939 20.7386 14.1928C21.6027 13.6866 22.9577 13.8911 23.8526 13.84C24.7167 13.794 26.0564 14.3257 26.3785 14.4382C27.6057 14.8575 27.7847 14.8882 28.8432 15.7779C29.5539 16.3711 29.3596 18.9328 28.4852 20.5077Z" fill="url(#paint10_linear_986_1704)"/>
<path d="M21.2947 17.496L20.2567 16.8262L19.7198 16.9898C19.3721 18.7437 19.1624 20.8146 19.2238 21.6838C19.3772 23.8365 16.3604 28.9856 16.3604 28.9856C16.3604 28.9856 16.7848 29.0521 17.3677 29.0879C18.9221 26.6795 19.8016 23.3661 19.9601 21.2441C20.1186 19.1221 21.2947 17.496 21.2947 17.496Z" fill="#3E1C7A"/>
<path d="M24.2907 14.7757C24.2907 14.7757 23.3959 17.358 24.6896 21.8935C24.6896 21.8935 27.5581 16.5705 27.2309 15.2155C26.6531 12.8327 24.2907 14.7757 24.2907 14.7757Z" fill="#FCEEEC"/>
<path d="M15.2298 17.8847C14.2378 18.1301 12.8981 19.5772 11.3028 22.369C9.70233 25.1711 9.52336 24.4348 8.85352 25.9381C8.85352 25.9381 8.97623 26.3012 9.3853 26.3012C9.3853 26.3012 9.47223 26.746 9.90686 26.6387C10.3415 26.5313 10.0091 27.0733 11.0318 26.7665C12.0544 26.4597 11.267 25.4728 12.0493 24.4911C12.8317 23.5093 15.4292 21.0498 15.8178 20.4873C16.2116 19.9198 16.1042 17.6648 15.2298 17.8847Z" fill="url(#paint11_linear_986_1704)"/>
<path d="M23.0426 14.8985C22.4188 14.1673 22.4955 13.3492 19.8468 14.4844C18.5276 15.0468 15.9351 16.003 15.0607 17.1433C14.2477 18.1966 13.1893 19.4289 13.2711 19.8175C13.4603 20.7584 14.1045 22.2668 14.4318 21.9805C15.8635 20.743 17.8731 19.0147 18.1696 18.8869C19.2588 18.4216 20.445 17.8643 20.445 17.8643C20.445 17.8643 24.1164 16.1615 23.0426 14.8985Z" fill="url(#paint12_linear_986_1704)"/>
<path d="M10.3613 23.647C10.3613 23.647 10.9187 24.2861 12.0794 24.6748C12.0794 24.6748 12.7083 23.7953 12.9896 23.5652L10.9903 22.6448L10.3613 23.647Z" fill="#FCEEEC"/>
<path d="M10.5762 22.9724C10.5762 22.9724 11.7062 23.9286 12.8414 24.2763L18.1694 18.8869C18.1694 18.8869 21.5033 17.6137 22.9453 16.4836C24.3872 15.3536 22.5873 13.6815 21.6874 13.8451C20.813 13.9985 17.7348 15.1848 15.6844 16.3711C15.5617 16.4427 15.4543 16.5399 15.3673 16.6524L10.5762 22.9724Z" fill="url(#paint13_linear_986_1704)"/>
<path d="M24.7052 11.2422C24.7052 11.2422 24.6337 12.7353 24.3933 13.5176C24.1786 14.2335 23.9587 15.3431 26.004 15.3431C27.5534 15.3431 27.446 12.7148 27.446 12.7148L24.7052 11.2422Z" fill="url(#paint14_linear_986_1704)"/>
<path d="M27.6913 9.25842C27.8345 9.66748 27.9725 10.2146 28.0185 10.6134C28.0594 11.0123 28.5299 12.2139 28.4429 12.6894C28.356 13.165 28.2231 13.8297 26.9396 13.8348C25.6562 13.8348 25.0068 13.3491 24.4955 12.5054C23.979 11.6617 23.7029 10.7004 23.7591 10.4243C23.8154 10.1481 23.933 8.9823 25.2676 8.68061C26.4999 8.39938 27.451 8.57323 27.6913 9.25842Z" fill="url(#paint15_linear_986_1704)"/>
<path d="M24.5512 11.3498L25.1751 11.9889C25.3387 12.1577 25.5637 12.2446 25.7938 12.2344C26.3358 12.2088 27.3789 12.1014 28.3146 11.6821C28.3146 11.6821 28.6981 12.4338 28.6623 13.2724C28.6214 14.111 27.1232 14.3871 26.0443 13.9627C24.9654 13.5383 24.3467 13.1445 24.0041 12.4338C23.6615 11.723 23.6769 11.043 23.6769 11.043L24.5512 11.3498Z" fill="#331D60"/>
<path d="M27.2822 10.8589C27.2822 10.8589 27.5481 11.2066 27.8038 11.3958C27.8038 11.3958 27.7117 11.6157 27.4459 11.6259L27.2822 10.8589Z" fill="#ED9D8D"/>
<path d="M25.5384 10.5469C25.5026 10.5572 25.4668 10.552 25.4412 10.5316C25.4003 10.5009 25.4003 10.4498 25.4463 10.414C25.4565 10.4038 25.7275 10.189 26.2491 10.1328C26.3105 10.1276 26.3616 10.1583 26.3616 10.2043C26.3616 10.2504 26.3105 10.2913 26.2491 10.3015C25.8247 10.3424 25.6099 10.5111 25.5997 10.5214C25.5793 10.5316 25.5588 10.5418 25.5384 10.5469Z" fill="#39147E"/>
<path d="M27.3839 10.0867C27.3532 10.0918 27.3226 10.0867 27.2919 10.0662C27.2407 10.0304 27.2305 9.96394 27.2663 9.91281C27.2714 9.90258 27.4504 9.65203 27.8697 9.68782C27.931 9.69294 27.9771 9.74918 27.9719 9.81054C27.9668 9.8719 27.9106 9.91792 27.8492 9.91281C27.568 9.88724 27.4555 10.0355 27.4504 10.0458C27.435 10.0662 27.4095 10.0815 27.3839 10.0867Z" fill="#39147E"/>
<path d="M27.845 12.0503C27.8348 12.2548 27.8962 12.5974 27.8962 12.5974C27.8604 12.6128 27.8195 12.6281 27.7785 12.6434C27.257 12.8429 26.9604 12.7968 26.7968 12.6946C26.7048 12.6383 26.6536 12.5565 26.6229 12.49C26.5871 12.4082 26.582 12.3418 26.582 12.3418C26.9093 12.3673 27.4053 12.2088 27.6712 12.1168C27.7734 12.081 27.845 12.0503 27.845 12.0503Z" fill="#341355"/>
<path d="M27.7676 12.0864L27.7216 12.3625C27.2307 12.5466 26.8165 12.5466 26.6171 12.4904C26.5813 12.4086 26.5762 12.3421 26.5762 12.3421C26.9034 12.3625 27.5068 12.1785 27.7676 12.0864Z" fill="white"/>
<path d="M27.7777 12.6436C27.2561 12.8431 26.9595 12.797 26.7959 12.6948C26.9749 12.6334 27.1999 12.572 27.4095 12.5669C27.568 12.5567 27.6856 12.5925 27.7777 12.6436Z" fill="#E9537F"/>
<path d="M25.9938 11.2168C26.0501 11.1503 26.1319 11.0992 26.2341 11.0787C26.2699 11.0685 26.3006 11.0685 26.3364 11.0685C26.3517 11.0225 26.3568 10.9662 26.3415 10.9151C26.3006 10.7821 26.1574 10.7054 26.0245 10.7515C25.8915 10.7924 25.8148 10.9355 25.8557 11.0685C25.8762 11.135 25.9324 11.1861 25.9938 11.2168Z" fill="#39147E"/>
<path d="M27.5983 10.6491C27.6545 10.5827 27.7364 10.5315 27.8386 10.5111C27.8744 10.5009 27.9051 10.5009 27.9409 10.5009C27.9562 10.4548 27.9613 10.3986 27.946 10.3475C27.9051 10.2145 27.7619 10.1378 27.629 10.1838C27.496 10.2247 27.4193 10.3679 27.4602 10.5009C27.4807 10.5673 27.5318 10.6185 27.5983 10.6491Z" fill="#39147E"/>
<path d="M25.2161 7.69893C27.2359 6.46663 27.7216 8.02107 27.7319 8.52218C27.7421 9.02328 27.9313 9.64199 27.9313 9.64199C27.7779 9.27383 27.4148 8.82898 27.4148 8.82898C27.4148 8.82898 26.7603 9.50393 25.9524 9.33008C25.032 9.13577 24.6588 9.55507 24.7866 10.1942C25.1445 11.9634 24.4849 11.6311 24.4133 11.5339C24.3469 11.4317 23.6259 11.2425 23.8202 11.8918C23.9736 12.4032 24.7201 12.577 24.6997 12.9759C23.7435 13.7275 23.6361 12.0299 23.0174 11.314C22.3987 10.6033 22.9202 10.6493 22.7822 9.24827C22.6441 7.84722 24.2241 8.30742 25.2161 7.69893Z" fill="#331D60"/>
<path d="M24.3267 11.4418C24.2091 11.3497 23.6569 11.2372 23.6773 11.6259C23.6978 11.9889 23.887 12.4798 24.4239 12.6485C24.9659 12.8173 24.5773 11.6412 24.3267 11.4418Z" fill="url(#paint16_linear_986_1704)"/>
<path d="M28.0377 22.6947C28.3901 23.3613 28.9631 23.7498 29.3176 23.5624C29.6722 23.375 29.6739 22.6827 29.3216 22.0161C28.9692 21.3495 28.3962 20.961 28.0417 21.1484C27.6871 21.3358 27.6854 22.0281 28.0377 22.6947Z" fill="#3E1C7A"/>
<path d="M27.7808 22.7683C28.0262 23.2327 28.4256 23.5032 28.6728 23.3726C28.9199 23.2419 28.9213 22.7596 28.6759 22.2952C28.4304 21.8308 28.0311 21.5603 27.7839 21.6909C27.5367 21.8215 27.5353 22.3039 27.7808 22.7683Z" fill="#FFE0E3"/>
<path d="M27.5576 21.9396C28.7286 21.4897 30.3699 20.1347 31.0244 19.9301C31.6789 19.7307 33.7959 20.5079 33.3254 21.2749C32.7936 22.1493 31.4028 22.6555 28.2633 23.3407L27.5576 21.9396Z" fill="url(#paint17_linear_986_1704)"/>
<path d="M27.6144 21.9038C26.5355 21.8015 26.4281 22.3333 25.8963 22.1799C25.3645 22.0265 25.3799 22.4356 25.6048 22.5634C25.8247 22.6912 26.244 22.7168 26.3565 22.6657C26.3565 22.6657 25.8145 23.0901 25.6151 23.3253C25.6151 23.3253 24.7407 23.1054 24.6998 23.4276C24.6589 23.7446 24.7816 23.8264 25.2162 23.8571C25.6509 23.8878 25.5026 24.0872 25.7838 24.0105C25.7838 24.0105 25.9628 24.3428 26.2849 24.3684C26.2849 24.3684 26.2798 24.6139 26.3923 24.711C26.5099 24.8082 27.0059 24.5781 27.236 24.6087C27.4661 24.6394 27.5223 24.3122 27.9467 24.0412C28.3711 23.7702 28.274 23.3304 28.7291 23.0952C29.179 22.8651 28.6933 22.0061 27.6144 21.9038Z" fill="url(#paint18_linear_986_1704)"/>
<path d="M28.6775 22.2974C28.4525 21.8781 28.1048 21.6173 27.8594 21.6685L28.8667 21.1265L29.8996 23.0133L28.6417 23.3917C28.6519 23.3866 28.6622 23.3814 28.6724 23.3763C28.9229 23.2434 28.9229 22.7627 28.6775 22.2974Z" fill="#FCEEEC"/>
<path d="M29.3173 23.5602C29.6701 23.371 29.6753 22.6807 29.3224 22.016C28.9901 21.3871 28.4583 21.0036 28.1055 21.1263C28.1975 21.0803 30.3758 20.0014 31.0201 19.9042C31.6797 19.8071 33.0858 20.2212 33.3926 20.8911C33.6994 21.5558 32.6921 22.1285 29.3173 23.5602Z" fill="url(#paint19_linear_986_1704)"/>
<path d="M23.8563 13.8347C23.7489 13.891 23.6518 13.9779 23.57 14.0648C23.5495 14.0853 23.529 14.1108 23.5086 14.1364C23.4881 14.162 23.4677 14.1824 23.4523 14.208C23.4166 14.2591 23.3808 14.3051 23.3501 14.3614C23.3194 14.4125 23.2836 14.4637 23.258 14.5199C23.2325 14.5761 23.2018 14.6273 23.1762 14.6835L23.1098 14.8523C23.0893 14.9085 23.0689 14.9699 23.0535 15.0261L23.0228 15.113C23.0126 15.1437 23.0075 15.1744 22.9973 15.2L22.9512 15.3789C22.9359 15.4403 22.9308 15.4965 22.9155 15.5579C22.9052 15.6193 22.8899 15.6755 22.8848 15.7369C22.8694 15.8596 22.8541 15.9772 22.8388 16.0999L22.8132 16.4681L22.7927 16.3965L23.1865 16.8925C23.3194 17.0561 23.4523 17.2248 23.5802 17.3936L23.6313 17.4601L23.5904 17.5316L23.1353 18.3293L22.6751 19.1219L22.6802 19.0145C22.8234 19.3469 22.9564 19.6843 23.0944 20.0218C23.2325 20.3593 23.3654 20.6968 23.4984 21.0343C23.6313 21.3717 23.7591 21.7092 23.887 22.0518C24.0148 22.3893 24.1426 22.7319 24.2603 23.0745C24.0966 22.7472 23.9432 22.42 23.7898 22.0927C23.6364 21.7655 23.483 21.4331 23.3347 21.1058C23.1865 20.7735 23.0382 20.4462 22.8899 20.1139C22.7467 19.7815 22.5984 19.4491 22.4553 19.1168L22.4297 19.0605L22.4604 19.0094L22.9155 18.2117L23.3808 17.4191L23.391 17.5521C23.2632 17.3834 23.1353 17.2146 23.0075 17.0459L22.624 16.5397L22.5984 16.5039L22.6035 16.4681L22.6444 16.0948C22.6649 15.9721 22.6854 15.8442 22.7058 15.7215C22.7314 15.5988 22.7621 15.4761 22.7978 15.3534L22.8541 15.1744C22.8643 15.1437 22.8745 15.113 22.8848 15.0824L22.9206 14.9954C23.0075 14.7602 23.1302 14.5352 23.2785 14.3307C23.3143 14.2796 23.3603 14.2336 23.4012 14.1824C23.4217 14.1569 23.4472 14.1364 23.4677 14.1159C23.4881 14.0955 23.5137 14.0699 23.5342 14.0495C23.6313 13.9523 23.7387 13.8807 23.8563 13.8347Z" fill="#3E1C7A"/>
<path d="M27.6146 14.8984C27.7066 15.0723 27.7884 15.2513 27.86 15.4404C27.9316 15.6245 27.9878 15.8137 28.039 16.008C28.085 16.2023 28.1208 16.4018 28.1412 16.6012C28.1566 16.8006 28.1566 17.0051 28.131 17.2097L28.1259 17.2403L28.1003 17.2659C27.9469 17.4091 27.7935 17.5522 27.635 17.6954L27.1697 18.1249L27.2106 18.0176L27.3282 18.7488L27.3845 19.1169L27.4407 19.4851L27.4509 19.5413L27.4151 19.5822L26.7453 20.3901L26.4078 20.7941L26.0703 21.198C25.9578 21.331 25.8453 21.469 25.7329 21.602L25.3954 22.0008C25.1653 22.2667 24.9403 22.5326 24.7051 22.7985C24.8994 22.507 25.0988 22.2207 25.3033 21.9344C25.4056 21.7912 25.5079 21.648 25.6101 21.5099C25.7124 21.3668 25.8198 21.2287 25.922 21.0855L26.2391 20.6663L26.5612 20.2521C26.776 19.976 26.9958 19.6998 27.2157 19.4288L27.1901 19.526L27.1339 19.1578L27.0777 18.7897L26.9652 18.0585L26.9549 17.992L27.0061 17.9511L27.4867 17.5369C27.6452 17.3988 27.8089 17.2608 27.9674 17.1227L27.9367 17.179C27.9674 16.9949 27.9827 16.8006 27.9776 16.6114C27.9725 16.4171 27.952 16.2279 27.9214 16.0336C27.8907 15.8393 27.8447 15.6501 27.7935 15.4609C27.768 15.3637 27.7424 15.2717 27.7117 15.1797C27.681 15.0825 27.6503 14.9905 27.6146 14.8984Z" fill="#3E1C7A"/>
<path d="M25.3906 15.5018C25.3906 15.5018 26.0911 15.7217 26.444 15.5376C26.7968 15.3535 26.2855 15.0927 26.2855 15.0927L25.9787 14.9393L25.8048 14.8984L25.3906 15.5018Z" fill="#B7B3B8"/>
<path d="M25.9882 15.9414C26.0138 16.1408 26.0189 16.33 26.024 16.5294C26.024 16.7237 26.0189 16.918 25.9984 17.1175C25.9626 17.5112 25.8859 17.8998 25.753 18.2884L25.7274 18.36L25.6967 18.4316L25.6354 18.5748C25.6303 18.585 25.6251 18.5952 25.62 18.6106L25.5996 18.6515L25.5536 18.7333C25.5178 18.7844 25.482 18.8355 25.4411 18.8816C25.2774 19.0656 25.0831 19.1884 24.9042 19.2906C24.7201 19.3929 24.5411 19.4747 24.3622 19.5565C24.1883 19.6332 24.0145 19.7099 23.8508 19.7917C23.6872 19.8684 23.5287 19.9502 23.3753 20.0372C23.2219 20.1241 23.0787 20.2212 22.9407 20.3184C22.6697 20.5229 22.4293 20.753 22.2299 21.0138C21.826 21.5354 21.5754 22.1694 21.4169 22.8393L20.2306 23.5602L20.0977 22.4353C20.2408 22.0467 20.4147 21.6632 20.6346 21.295C20.8493 20.932 21.1101 20.5843 21.4118 20.2775C21.7135 19.9707 22.0612 19.7099 22.4293 19.5054C22.6134 19.4031 22.7975 19.3111 22.9867 19.2344C23.1759 19.1526 23.3651 19.0861 23.5491 19.0247C23.9224 18.8969 24.2906 18.8049 24.6076 18.677C24.7661 18.6157 24.9042 18.539 25.0064 18.452C25.032 18.4316 25.0525 18.406 25.078 18.3856L25.1036 18.3498L25.1189 18.3293C25.124 18.3242 25.1292 18.3089 25.1343 18.3038L25.2007 18.1913L25.2314 18.135L25.2621 18.0737C25.4206 17.7566 25.5331 17.414 25.6098 17.0561C25.6507 16.8771 25.6763 16.6931 25.7018 16.5141C25.7223 16.33 25.7376 16.1408 25.7376 15.967L25.9882 15.9414Z" fill="url(#paint20_linear_986_1704)"/>
<path d="M25.4521 15.3995V15.7165C25.4521 15.783 25.4675 15.8443 25.5033 15.9006L25.534 15.9517C25.5953 16.0591 25.7027 16.1256 25.8254 16.1358H25.8459C25.9635 16.146 26.0811 16.1 26.1578 16.008L26.2754 15.8699C26.347 15.7881 26.3777 15.6807 26.3623 15.5784L26.3061 15.1847C26.2805 15.016 26.1476 14.883 25.9788 14.8677C25.9686 14.8677 25.9584 14.8677 25.943 14.8626C25.7794 14.8421 25.6158 14.929 25.5544 15.0824L25.4828 15.2563C25.4573 15.3074 25.4521 15.3535 25.4521 15.3995Z" fill="url(#paint21_linear_986_1704)"/>
<path d="M24.3979 13.5178L23.6309 14.1263C23.6309 14.1263 24.0348 15.5018 25.3847 15.9057L25.937 14.8217C25.9267 14.8268 24.4388 14.8115 24.3979 13.5178Z" fill="#FFE0E3"/>
<path d="M27.2354 14.198L27.6291 14.7911C27.6291 14.7911 27.5064 15.8291 26.3201 15.9774L25.9366 14.8269C25.9264 14.8269 26.9797 15.3587 27.2354 14.198Z" fill="#FFE0E3"/>
<path d="M19.4684 18.3551C19.4838 18.3244 19.494 18.3091 19.494 18.3091C19.494 18.3091 18.3435 18.6875 17.372 18.4471L12.8467 24.2763L18.1747 18.8869C18.1696 18.8869 18.7168 18.6772 19.4684 18.3551Z" fill="#3E1C7A"/>
<path d="M28.8311 19.751C28.8311 19.751 29.91 19.9555 31.4133 19.9453C31.4133 19.9453 30.4469 20.022 29.4344 20.4924C29.4395 20.4924 29.1123 20.1396 28.8311 19.751Z" fill="#3E1C7A"/>
<path d="M29.3174 23.5604C32.6922 22.1287 33.6995 21.556 33.3927 20.8912C33.3722 20.8503 33.3518 20.8146 33.3262 20.7736C33.3211 20.743 33.3109 20.7072 33.2955 20.6816C33.1575 20.4566 33.0194 20.2367 32.8865 20.0271C32.8967 20.0476 33.3825 20.9168 32.6052 21.4742C31.8792 22.0008 29.66 23.3456 29.3532 23.5348C29.3429 23.5451 29.3327 23.5502 29.3174 23.5604Z" fill="#3E1C7A"/>
<defs>
<linearGradient id="paint0_linear_986_1704" x1="51.1905" y1="28.1513" x2="8.21862" y2="55.9247" gradientUnits="userSpaceOnUse">
<stop offset="0.00396825" stop-color="#EB6C92"/>
<stop offset="1" stop-color="#AF4161"/>
</linearGradient>
<linearGradient id="paint1_linear_986_1704" x1="50.3443" y1="24.9996" x2="1.76794" y2="56.3953" gradientUnits="userSpaceOnUse">
<stop offset="0.00396825" stop-color="#EB6C92"/>
<stop offset="1" stop-color="#AF4161"/>
</linearGradient>
<linearGradient id="paint2_linear_986_1704" x1="0.979244" y1="31.2802" x2="15.1486" y2="31.2802" gradientUnits="userSpaceOnUse">
<stop stop-color="#9346E2"/>
<stop offset="1" stop-color="#5E1E9F"/>
</linearGradient>
<linearGradient id="paint3_linear_986_1704" x1="2.14448" y1="29.4714" x2="15.1035" y2="29.4714" gradientUnits="userSpaceOnUse">
<stop stop-color="#9346E2"/>
<stop offset="1" stop-color="#5E1E9F"/>
</linearGradient>
<linearGradient id="paint4_linear_986_1704" x1="4.87075" y1="30.523" x2="5.89675" y2="30.523" gradientUnits="userSpaceOnUse">
<stop stop-color="#FACC47"/>
<stop offset="0.996" stop-color="#B68924"/>
</linearGradient>
<linearGradient id="paint5_linear_986_1704" x1="9.60528" y1="32.314" x2="10.6313" y2="32.314" gradientUnits="userSpaceOnUse">
<stop stop-color="#FACC47"/>
<stop offset="0.996" stop-color="#B68924"/>
</linearGradient>
<linearGradient id="paint6_linear_986_1704" x1="7.69328" y1="26.3493" x2="8.97969" y2="26.3493" gradientUnits="userSpaceOnUse">
<stop stop-color="#FACC47"/>
<stop offset="0.996" stop-color="#B68924"/>
</linearGradient>
<linearGradient id="paint7_linear_986_1704" x1="11.0255" y1="27.61" x2="12.3119" y2="27.61" gradientUnits="userSpaceOnUse">
<stop stop-color="#FACC47"/>
<stop offset="0.996" stop-color="#B68924"/>
</linearGradient>
<linearGradient id="paint8_linear_986_1704" x1="23.1705" y1="32.1783" x2="31.5052" y2="16.0202" gradientUnits="userSpaceOnUse">
<stop stop-color="#602BCA"/>
<stop offset="0.287" stop-color="#5F2AC7"/>
<stop offset="0.5166" stop-color="#5A28BD"/>
<stop offset="0.7264" stop-color="#5324AC"/>
<stop offset="0.9231" stop-color="#491F94"/>
<stop offset="1" stop-color="#441C89"/>
</linearGradient>
<linearGradient id="paint9_linear_986_1704" x1="18.0375" y1="30.5127" x2="32.4578" y2="30.5127" gradientUnits="userSpaceOnUse">
<stop stop-color="#602BCA"/>
<stop offset="0.287" stop-color="#5F2AC7"/>
<stop offset="0.5166" stop-color="#5A28BD"/>
<stop offset="0.7264" stop-color="#5324AC"/>
<stop offset="0.9231" stop-color="#491F94"/>
<stop offset="1" stop-color="#441C89"/>
</linearGradient>
<linearGradient id="paint10_linear_986_1704" x1="18.5493" y1="29.7936" x2="26.8839" y2="13.6357" gradientUnits="userSpaceOnUse">
<stop stop-color="#602BCA"/>
<stop offset="0.287" stop-color="#5F2AC7"/>
<stop offset="0.5166" stop-color="#5A28BD"/>
<stop offset="0.7264" stop-color="#5324AC"/>
<stop offset="0.9231" stop-color="#491F94"/>
<stop offset="1" stop-color="#441C89"/>
</linearGradient>
<linearGradient id="paint11_linear_986_1704" x1="9.82405" y1="27.2933" x2="12.108" y2="23.5435" gradientUnits="userSpaceOnUse">
<stop stop-color="#EEC9BF"/>
<stop offset="0.2767" stop-color="#EEC6BC"/>
<stop offset="0.4981" stop-color="#EFBCB2"/>
<stop offset="0.7003" stop-color="#F1ACA1"/>
<stop offset="0.8901" stop-color="#F39589"/>
<stop offset="1" stop-color="#F48478"/>
</linearGradient>
<linearGradient id="paint12_linear_986_1704" x1="15.7916" y1="16.1148" x2="19.4145" y2="18.8791" gradientUnits="userSpaceOnUse">
<stop stop-color="#FF627B"/>
<stop offset="1" stop-color="#FFAE5A"/>
</linearGradient>
<linearGradient id="paint13_linear_986_1704" x1="13.1041" y1="26.9861" x2="21.4388" y2="10.828" gradientUnits="userSpaceOnUse">
<stop stop-color="#602BCA"/>
<stop offset="0.287" stop-color="#5F2AC7"/>
<stop offset="0.5166" stop-color="#5A28BD"/>
<stop offset="0.7264" stop-color="#5324AC"/>
<stop offset="0.9231" stop-color="#491F94"/>
<stop offset="1" stop-color="#441C89"/>
</linearGradient>
<linearGradient id="paint14_linear_986_1704" x1="27.3702" y1="13.7442" x2="24.3233" y2="13.1258" gradientUnits="userSpaceOnUse">
<stop stop-color="#EEC9BF"/>
<stop offset="0.2767" stop-color="#EEC6BC"/>
<stop offset="0.4981" stop-color="#EFBCB2"/>
<stop offset="0.7003" stop-color="#F1ACA1"/>
<stop offset="0.8901" stop-color="#F39589"/>
<stop offset="1" stop-color="#F48478"/>
</linearGradient>
<linearGradient id="paint15_linear_986_1704" x1="27.038" y1="14.0541" x2="25.1461" y2="8.25049" gradientUnits="userSpaceOnUse">
<stop stop-color="#EEC9BF"/>
<stop offset="0.2767" stop-color="#EEC6BC"/>
<stop offset="0.4981" stop-color="#EFBCB2"/>
<stop offset="0.7003" stop-color="#F1ACA1"/>
<stop offset="0.8901" stop-color="#F39589"/>
<stop offset="1" stop-color="#F48478"/>
</linearGradient>
<linearGradient id="paint16_linear_986_1704" x1="25.0689" y1="14.6959" x2="23.177" y2="8.89233" gradientUnits="userSpaceOnUse">
<stop stop-color="#EEC9BF"/>
<stop offset="0.2767" stop-color="#EEC6BC"/>
<stop offset="0.4981" stop-color="#EFBCB2"/>
<stop offset="0.7003" stop-color="#F1ACA1"/>
<stop offset="0.8901" stop-color="#F39589"/>
<stop offset="1" stop-color="#F48478"/>
</linearGradient>
<linearGradient id="paint17_linear_986_1704" x1="26.4704" y1="26.1943" x2="30.5866" y2="21.4645" gradientUnits="userSpaceOnUse">
<stop stop-color="#EEC9BF"/>
<stop offset="0.2767" stop-color="#EEC6BC"/>
<stop offset="0.4981" stop-color="#EFBCB2"/>
<stop offset="0.7003" stop-color="#F1ACA1"/>
<stop offset="0.8901" stop-color="#F39589"/>
<stop offset="1" stop-color="#F48478"/>
</linearGradient>
<linearGradient id="paint18_linear_986_1704" x1="25.1086" y1="25.0088" x2="29.2248" y2="20.279" gradientUnits="userSpaceOnUse">
<stop stop-color="#EEC9BF"/>
<stop offset="0.2767" stop-color="#EEC6BC"/>
<stop offset="0.4981" stop-color="#EFBCB2"/>
<stop offset="0.7003" stop-color="#F1ACA1"/>
<stop offset="0.8901" stop-color="#F39589"/>
<stop offset="1" stop-color="#F48478"/>
</linearGradient>
<linearGradient id="paint19_linear_986_1704" x1="24.6935" y1="32.9635" x2="33.0282" y2="16.8055" gradientUnits="userSpaceOnUse">
<stop stop-color="#602BCA"/>
<stop offset="0.287" stop-color="#5F2AC7"/>
<stop offset="0.5166" stop-color="#5A28BD"/>
<stop offset="0.7264" stop-color="#5324AC"/>
<stop offset="0.9231" stop-color="#491F94"/>
<stop offset="1" stop-color="#441C89"/>
</linearGradient>
<linearGradient id="paint20_linear_986_1704" x1="20.0974" y1="19.753" x2="26.5591" y2="19.753" gradientUnits="userSpaceOnUse">
<stop stop-color="#FACC47"/>
<stop offset="0.996" stop-color="#B68924"/>
</linearGradient>
<linearGradient id="paint21_linear_986_1704" x1="25.4499" y1="15.5013" x2="26.3617" y2="15.5013" gradientUnits="userSpaceOnUse">
<stop stop-color="#FACC47"/>
<stop offset="0.996" stop-color="#B68924"/>
</linearGradient>
</defs>
</svg>
