<svg width="14" height="14" viewBox="0 0 14 14" fill="none" xmlns="http://www.w3.org/2000/svg">
<path fill-rule="evenodd" clip-rule="evenodd" d="M3.32906 3.08748C3.10125 3.31529 3.10125 3.68463 3.32906 3.91244L6.21641 6.7998L3.32907 9.68714C3.10126 9.91495 3.10126 10.2843 3.32907 10.5121C3.55687 10.7399 3.92622 10.7399 4.15402 10.5121L7.04137 7.62475L9.92872 10.5121C10.1565 10.7399 10.5259 10.7399 10.7537 10.5121C10.9815 10.2843 10.9815 9.91495 10.7537 9.68714L7.86633 6.7998L10.7537 3.91244C10.9815 3.68463 10.9815 3.31529 10.7537 3.08748C10.5259 2.85967 10.1565 2.85967 9.92873 3.08748L7.04137 5.97484L4.15402 3.08748C3.92621 2.85967 3.55686 2.85967 3.32906 3.08748Z" fill="#24272C" fill-opacity="0.7"/>
</svg>
