<svg width="71" height="74" viewBox="0 0 71 74" fill="none" xmlns="http://www.w3.org/2000/svg">
<path d="M35.3703 0C27.7748 0 26.6943 4.33799 26.6943 4.33799C26.6943 4.33799 14.2683 -2.76487 11.3922 4.08374C8.51608 10.9324 22.2292 18.4166 22.2292 18.4166C22.2292 18.4166 7.22899 35.1647 1.50857 48.6395C-4.21185 62.0983 7.56268 74 16.3181 74H35.3544H54.3907C63.1302 74 74.9047 62.1142 69.2002 48.6395C63.5116 35.1806 48.5113 18.4325 48.5113 18.4325C48.5113 18.4325 62.2245 10.9482 59.3484 4.09964C56.4723 -2.74898 44.0462 4.35387 44.0462 4.35387C44.0462 4.35387 42.9816 0 35.3703 0Z" fill="#BDDDE9"/>
<path d="M35.3721 63.1123C43.4898 63.1123 50.0704 56.5317 50.0704 48.414C50.0704 40.2964 43.4898 33.7157 35.3721 33.7157C27.2545 33.7157 20.6738 40.2964 20.6738 48.414C20.6738 56.5317 27.2545 63.1123 35.3721 63.1123Z" fill="#2DB664"/>
<path d="M32.3834 57.2488L24.7085 48.5729L27.6005 46.0146L32.7489 51.8462L43.6018 42.5505L46.1124 45.4743L32.3834 57.2488Z" fill="white"/>
<path d="M20.4178 17.0659H50.3388C52.0072 17.0659 53.3579 18.4166 53.3579 20.085C53.3579 21.7535 52.0072 23.1041 50.3388 23.1041H20.4178C18.7493 23.1041 17.3987 21.7535 17.3987 20.085C17.3987 18.4166 18.7493 17.0659 20.4178 17.0659Z" fill="#9CCEDE"/>
</svg>
