<svg width="20" height="24" viewBox="0 0 20 24" fill="none" xmlns="http://www.w3.org/2000/svg">
<path d="M6.36727 11.9138H3.22477V16.4326H6.36727V11.9138ZM9.38977 1.35005C9.38977 1.10255 9.76477 1.10255 9.76477 1.35005V1.7588C9.76477 2.0063 9.38977 2.0063 9.38977 1.7588V1.35005ZM12.6673 4.25255C12.9148 4.25255 12.9148 4.62755 12.6673 4.62755H12.2585C12.011 4.62755 12.011 4.25255 12.2585 4.25255H12.6673ZM12.161 2.7338C12.3748 2.61005 12.5585 2.9363 12.3485 3.0563L11.996 3.2588C11.7823 3.38255 11.5948 3.0563 11.8085 2.9363L12.161 2.7338ZM10.961 1.6688C11.0135 1.5788 11.126 1.5488 11.216 1.6013C11.306 1.6538 11.336 1.7663 11.2835 1.8563L11.081 2.2088C10.9573 2.42255 10.6348 2.23505 10.7585 2.0213L10.961 1.6688ZM6.48352 4.62755C6.23602 4.62755 6.23602 4.25255 6.48352 4.25255H6.89227C7.13977 4.25255 7.13977 4.62755 6.89227 4.62755H6.48352ZM6.80602 3.0563C6.59227 2.93255 6.77977 2.61005 6.99352 2.7338L7.34602 2.9363C7.55977 3.06005 7.37227 3.38255 7.15852 3.2588L6.80602 3.0563ZM7.86727 1.8563C7.74352 1.64255 8.06977 1.4588 8.18977 1.6688L8.39227 2.0213C8.51602 2.23505 8.18977 2.42255 8.06977 2.2088L7.86727 1.8563ZM14.5723 5.1713L14.9623 5.9588L15.836 6.0863C15.9973 6.1088 16.0498 6.3038 15.9335 6.41255L15.311 7.0238L15.4573 7.8938C15.4835 8.04005 15.326 8.16755 15.176 8.08505L14.4035 7.68005L13.6235 8.0888C13.4848 8.16005 13.3273 8.0438 13.3535 7.8938L13.4998 7.0238L12.8698 6.40505C12.761 6.2963 12.821 6.1088 12.9748 6.0863L13.8485 5.9588L14.2385 5.1713C14.306 5.0288 14.5048 5.03255 14.5723 5.1713ZM4.96102 7.2263L5.35477 8.0138L6.22477 8.1413C6.38602 8.16755 6.43852 8.3588 6.32227 8.46755L5.69977 9.0788L5.84602 9.9488C5.87227 10.0951 5.71477 10.2263 5.56477 10.1401L4.79227 9.73505L4.01227 10.1476C3.87352 10.2188 3.71602 10.1026 3.74227 9.95255L3.88852 9.08255L3.25852 8.4638C3.14977 8.35505 3.20977 8.16755 3.36352 8.14505L4.23352 8.01755L4.62727 7.23005C4.69852 7.0838 4.89727 7.08755 4.96102 7.2263ZM9.76852 2.85005L10.1585 3.63755L11.0323 3.76505C11.1935 3.78755 11.246 3.98255 11.1298 4.0913L10.5073 4.70255L10.6535 5.57255C10.6798 5.7188 10.5223 5.85005 10.3723 5.7638L9.59977 5.3588L8.81602 5.76755C8.67727 5.8388 8.51977 5.72255 8.54602 5.57255L8.69227 4.70255L8.06227 4.0838C7.95352 3.97505 8.01352 3.78755 8.16727 3.76505L9.03727 3.63755L9.43102 2.85005C9.50227 2.70755 9.70102 2.7113 9.76852 2.85005ZM17.1898 16.8076H2.00977V18.0376H17.186V16.8076H17.1898ZM15.9785 9.6713H12.836V16.4326H15.9785V9.6713ZM11.171 7.5338H8.02852V16.4363H11.171V7.5338Z" fill="white"/>
</svg>
