<svg width="54" height="54" viewBox="0 0 54 54" fill="none" xmlns="http://www.w3.org/2000/svg">
<path d="M29.0196 1.56924L34.3132 17.8611H51.4434C53.6437 17.8611 54.5585 20.6764 52.7784 21.9697L38.9196 32.0386L44.2131 48.3304C44.8931 50.423 42.4981 52.1628 40.718 50.8698L26.8597 40.801L13.0009 50.87C11.221 52.1633 8.826 50.4232 9.50577 48.3306L14.7993 32.0388L0.940519 21.9699C-0.839367 20.6766 0.0754209 17.8613 2.27543 17.8613H19.4062L24.6997 1.56946C25.3795 -0.523116 28.3398 -0.523116 29.0196 1.56924Z" fill="#FFC91D"/>
<path d="M51.4437 17.8611H49.2419C49.2586 18.546 48.9701 19.2459 48.302 19.7314L35.101 29.3225C34.7089 29.6074 34.5446 30.1126 34.6946 30.5737L39.7367 46.0922C40.1831 47.466 39.3039 48.6879 38.1438 48.999L40.7185 50.8696C42.4983 52.1628 44.8933 50.4228 44.2135 48.3302L38.92 32.0384L52.7788 21.9695C54.5585 20.6764 53.6437 17.8611 51.4437 17.8611Z" fill="#FFA91A"/>
<path d="M36.885 54.0001H17.0195C15.7833 54.0001 14.7812 52.998 14.7812 51.7618V44.0388C14.7812 40.9484 17.2866 38.4431 20.377 38.4431H33.5278C36.6182 38.4431 39.1235 40.9484 39.1235 44.0388V51.7618C39.1233 52.998 38.1212 54.0001 36.885 54.0001Z" fill="#A54AF4"/>
<path d="M16.1244 49.6783C15.8773 49.6783 15.6768 49.4777 15.6768 49.2306V44.0387C15.6768 43.2255 15.8887 42.4238 16.2896 41.7196C16.412 41.505 16.6853 41.4298 16.9002 41.5522C17.1151 41.6744 17.1901 41.9479 17.0676 42.1628C16.7435 42.732 16.5721 43.3809 16.5721 44.0389V49.2309C16.5721 49.478 16.3717 49.6783 16.1244 49.6783ZM17.8604 41.0604C17.723 41.0604 17.5874 40.9973 17.4996 40.8782C17.353 40.6793 17.3958 40.399 17.5947 40.2524C17.6339 40.2235 17.6738 40.1953 17.7138 40.1676C17.9177 40.027 18.1964 40.0783 18.3365 40.2815C18.4771 40.485 18.426 40.7639 18.2226 40.9042C18.1899 40.9268 18.1575 40.9499 18.1254 40.9736C18.0455 41.0322 17.9524 41.0604 17.8604 41.0604Z" fill="#B171F4"/>
<path d="M36.2043 39.1239C36.6383 39.9189 36.8852 40.8308 36.8852 41.8004V49.5234C36.8852 50.7596 35.8832 51.7617 34.6469 51.7617H14.7812C14.7812 52.9979 15.7833 54 17.0195 54H36.8852C38.1214 54 39.1235 52.9979 39.1235 51.7617V44.0387C39.1233 41.918 37.9433 40.0729 36.2043 39.1239Z" fill="#893ADD"/>
<path d="M36.886 39.5623C37.5886 40.4974 38.0051 41.66 38.0051 42.9197V50.6427C38.0051 51.8789 37.0031 52.881 35.7669 52.881H15.9014C15.5732 52.881 15.2624 52.8087 14.9814 52.6818C15.3326 53.4587 16.1125 54.0001 17.0205 54.0001H36.8862C38.1224 54.0001 39.1245 52.998 39.1245 51.7618V44.0388C39.1243 42.2081 38.2451 40.5831 36.886 39.5623Z" fill="#6C2BC1"/>
<path d="M34.599 33.389C34.599 37.5941 31.1755 41.003 26.9523 41.003C22.7291 41.003 19.3057 37.5941 19.3057 33.389C19.3057 29.1839 22.7291 25.775 26.9523 25.775C31.1753 25.775 34.599 29.1839 34.599 33.389Z" fill="#FFD2C0"/>
<path d="M31.7803 27.485C32.8428 28.7926 33.4803 30.4568 33.4803 32.2698C33.4803 36.4748 30.0568 39.8838 25.8336 39.8838C24.0025 39.8838 22.3224 39.2423 21.0059 38.1735C22.4077 39.8987 24.5502 41.0029 26.9528 41.0029C31.176 41.0029 34.5994 37.594 34.5994 33.3889C34.5994 31.0069 33.5002 28.8812 31.7803 27.485Z" fill="#FCC4AE"/>
<path d="M10.0612 34.5836L10.3162 34.6523C10.5161 34.706 10.5161 34.9896 10.3162 35.0433L10.0612 35.112C8.4499 35.5458 7.19131 36.8044 6.75753 38.4157L6.68881 38.6707C6.6351 38.8706 6.3515 38.8706 6.29779 38.6707L6.22907 38.4157C5.79529 36.8044 4.5367 35.5458 2.92536 35.112L2.67042 35.0433C2.47054 34.9896 2.47054 34.706 2.67042 34.6523L2.92536 34.5836C4.5367 34.1498 5.79529 32.8912 6.22907 31.2799L6.29779 31.0249C6.3515 30.825 6.6351 30.825 6.68881 31.0249L6.75753 31.2799C7.19131 32.8912 8.4499 34.1498 10.0612 34.5836Z" fill="#FFA91A"/>
<path d="M8.08532 34.7352C8.20059 34.7663 8.20059 34.9297 8.08532 34.9605C7.36369 35.1548 6.80009 35.7184 6.60581 36.4401C6.5747 36.5553 6.4113 36.5553 6.38042 36.4401C6.18613 35.7184 5.62253 35.1548 4.90091 34.9605C4.78564 34.9294 4.78564 34.766 4.90091 34.7352C5.62253 34.5409 6.18613 33.9773 6.38042 33.2556C6.41153 33.1404 6.57492 33.1404 6.60581 33.2556C6.80009 33.977 7.36369 34.5409 8.08532 34.7352Z" fill="#FFC91D"/>
<path d="M42.5993 9.01881L42.8149 9.07678C42.9836 9.12221 42.9836 9.36171 42.8149 9.40737L42.5993 9.46534C41.2375 9.83198 40.1739 10.8956 39.8073 12.2574L39.7493 12.4729C39.7039 12.6417 39.4644 12.6417 39.4187 12.4729L39.3607 12.2574C38.9941 10.8956 37.9305 9.83198 36.5687 9.46534L36.3531 9.40737C36.1844 9.36194 36.1844 9.12244 36.3531 9.07678L36.5687 9.01881C37.9305 8.65217 38.9941 7.58854 39.3607 6.22677L39.4187 6.01122C39.4641 5.84245 39.7036 5.84245 39.7493 6.01122L39.8073 6.22677C40.1739 7.58854 41.2375 8.65217 42.5993 9.01881Z" fill="#FFA91A"/>
<path d="M40.9282 9.14682C41.0255 9.17301 41.0255 9.31111 40.9282 9.3373C40.3182 9.50159 39.8419 9.97789 39.6779 10.5876C39.6517 10.685 39.5136 10.685 39.4874 10.5876C39.3231 9.97767 38.8468 9.50136 38.2371 9.3373C38.1397 9.31111 38.1397 9.17301 38.2371 9.14682C38.847 8.98253 39.3233 8.50622 39.4874 7.89651C39.5136 7.79914 39.6517 7.79914 39.6779 7.89651C39.8422 8.50622 40.3185 8.98253 40.9282 9.14682Z" fill="#FFC91D"/>
<path d="M47.8609 35.2814L48.0046 35.3201C48.1171 35.3503 48.1171 35.5101 48.0046 35.5404L47.8609 35.5791C46.953 35.8235 46.2439 36.5326 45.9995 37.4404L45.9608 37.5841C45.9306 37.6967 45.7707 37.6967 45.7405 37.5841L45.7018 37.4404C45.4574 36.5326 44.7483 35.8235 43.8404 35.5791L43.6967 35.5404C43.5842 35.5101 43.5842 35.3503 43.6967 35.3201L43.8404 35.2814C44.7483 35.037 45.4574 34.3279 45.7018 33.42L45.7405 33.2763C45.7707 33.1637 45.9306 33.1637 45.9608 33.2763L45.9995 33.42C46.2439 34.3279 46.9532 35.037 47.8609 35.2814Z" fill="#FFA91A"/>
<path d="M46.7489 35.3662C46.8138 35.3837 46.8138 35.4757 46.7489 35.4931C46.3424 35.6026 46.0248 35.9202 45.9154 36.3267C45.8979 36.3916 45.8059 36.3916 45.7885 36.3267C45.679 35.9202 45.3614 35.6026 44.9549 35.4931C44.89 35.4757 44.89 35.3837 44.9549 35.3662C45.3614 35.2568 45.679 34.9392 45.7885 34.5327C45.8059 34.4678 45.8979 34.4678 45.9154 34.5327C46.0248 34.9392 46.3424 35.2568 46.7489 35.3662Z" fill="#FFC91D"/>
<path d="M15.7929 12.3293L15.9724 12.3777C16.1132 12.4155 16.1132 12.6152 15.9724 12.653L15.7929 12.7013C14.6581 13.0069 13.7718 13.8932 13.4662 15.028L13.4179 15.2075C13.3801 15.3483 13.1804 15.3483 13.1426 15.2075L13.0942 15.028C12.7887 13.8932 11.9023 13.0069 10.7675 12.7013L10.588 12.653C10.4472 12.6152 10.4472 12.4155 10.588 12.3777L10.7675 12.3293C11.9023 12.0238 12.7887 11.1374 13.0942 10.0026L13.1426 9.82312C13.1804 9.68233 13.3801 9.68233 13.4179 9.82312L13.4662 10.0026C13.7718 11.1374 14.6581 12.0238 15.7929 12.3293Z" fill="#FFA91A"/>
<path d="M14.401 12.4358C14.482 12.4578 14.482 12.5728 14.401 12.5945C13.8927 12.7313 13.4958 13.1283 13.359 13.6364C13.3371 13.7175 13.2221 13.7175 13.2003 13.6364C13.0636 13.1281 12.6665 12.7313 12.1584 12.5945C12.0774 12.5726 12.0774 12.4575 12.1584 12.4358C12.6667 12.2991 13.0636 11.902 13.2003 11.3939C13.2223 11.3129 13.3373 11.3129 13.359 11.3939C13.4958 11.9022 13.8927 12.2991 14.401 12.4358Z" fill="#FFC91D"/>
</svg>
