<svg width="14" height="13" viewBox="0 0 14 13" fill="none" xmlns="http://www.w3.org/2000/svg">
<path d="M13.2926 2.13684H11.3326V1.41474C11.7011 1.38526 11.9958 1.07579 11.9958 0.707368C11.9958 0.309474 11.6716 0 11.2884 0H2.71158C2.31368 0 2.00421 0.324211 2.00421 0.707368C2.00421 1.09053 2.29895 1.4 2.66737 1.41474V2.13684H0.707368C0.309474 2.13684 0 2.46105 0 2.84421V3.41895C0 5.37895 1.31158 7.08842 3.19789 7.58947L4.18526 7.85474L4.2 7.86947C4.22947 7.89895 4.25895 7.94316 4.28842 7.97263C4.74526 8.44421 5.30526 8.76842 5.95368 8.94526V9.99158C5.95368 10.2421 5.76211 10.4337 5.51158 10.4337H4.74526C4.43579 10.4337 4.18526 10.6842 4.18526 10.9937V11.7011C4.18526 12.0105 4.43579 12.2611 4.74526 12.2611H9.25474C9.56421 12.2611 9.81474 12.0105 9.81474 11.7011V10.9937C9.81474 10.6842 9.56421 10.4337 9.25474 10.4337H8.48842C8.23789 10.4337 8.04632 10.2421 8.04632 9.99158V8.94526C8.69474 8.76842 9.25474 8.44421 9.71158 7.97263C9.74105 7.94316 9.77053 7.89895 9.8 7.86947L9.81474 7.85474L10.8021 7.58947C12.6884 7.08842 14 5.36421 14 3.41895V2.84421C14 2.44632 13.6758 2.13684 13.2926 2.13684ZM1.42947 3.55158H2.68211C2.71158 4.14105 2.82947 5.09895 3.16842 6.05684C2.15158 5.62947 1.47368 4.67158 1.42947 3.55158ZM9.04842 4.08211L8.35579 4.74526C8.25263 4.84842 8.20842 4.99579 8.22316 5.12842L8.4 6.07158C8.41474 6.16 8.38526 6.24842 8.31158 6.30737C8.2379 6.36632 8.13474 6.36632 8.06105 6.32211L7.22105 5.86526C7.16211 5.83579 7.08842 5.80632 7.01474 5.80632C6.94105 5.80632 6.86737 5.82105 6.80842 5.86526L5.96842 6.32211C5.88 6.36632 5.79158 6.36632 5.71789 6.30737C5.64421 6.24842 5.6 6.16 5.61474 6.07158L5.79158 5.12842C5.82105 4.98105 5.77684 4.83368 5.65895 4.74526L4.96632 4.08211C4.89263 4.02316 4.87789 3.92 4.90737 3.83158C4.93684 3.74316 5.01053 3.68421 5.09895 3.66947L6.04211 3.53684C6.18947 3.52211 6.30737 3.43368 6.36632 3.30105L6.77895 2.44632C6.82316 2.35789 6.89684 2.31368 7 2.31368C7.08842 2.31368 7.17684 2.35789 7.22105 2.44632L7.63368 3.30105C7.69263 3.43368 7.82526 3.52211 7.95789 3.53684L8.90105 3.66947C8.98947 3.68421 9.06316 3.74316 9.09263 3.83158C9.13684 3.93474 9.10737 4.02316 9.04842 4.08211ZM10.8316 6.07158C11.1705 5.11368 11.2737 4.14105 11.3179 3.55158H12.5705C12.5263 4.67158 11.8484 5.62947 10.8316 6.07158Z" fill="white"/>
</svg>
