<svg width="54" height="54" viewBox="0 0 54 54" fill="none" xmlns="http://www.w3.org/2000/svg">
<g clip-path="url(#clip0_995_3102)">
<path d="M12.4483 0C8.35172 0 5 3.35172 5 7.44828V44.9746C5.01117 44.9559 5.01676 44.9364 5.02793 44.9187C5.17503 44.6822 5.38545 44.5817 5.60052 44.5649C6.74103 41.9077 9.3861 40.0345 12.4483 40.0345H48.7586V0H12.4483Z" fill="#366DB6"/>
<path d="M12.4483 37.2415C8.35172 37.2415 5 40.5932 5 44.6897C5 48.7863 8.35172 52.138 12.4483 52.138H18.9655V44.6897H24.5517V52.138H48.7586V37.2415H12.4483Z" fill="#F2ECBF"/>
<path d="M12.4487 40.9656C10.3949 40.9656 8.72461 42.6359 8.72461 44.6897C8.72461 46.7436 10.3949 48.4139 12.4487 48.4139H18.966V44.6897H24.5522V48.4139H48.7591V40.9656H12.4487Z" fill="#CCC496"/>
<path d="M18.9659 45.6206H12.4486C11.9347 45.6206 11.5176 45.2044 11.5176 44.6896C11.5176 44.1747 11.9347 43.7585 12.4486 43.7585H18.9659C19.4798 43.7585 19.8969 44.1747 19.8969 44.6896C19.8969 45.2044 19.4798 45.6206 18.9659 45.6206Z" fill="#ADA477"/>
<path d="M30.1383 45.6206H24.5521C24.0382 45.6206 23.6211 45.2044 23.6211 44.6896C23.6211 44.1747 24.0382 43.7585 24.5521 43.7585H30.1383C30.6523 43.7585 31.0694 44.1747 31.0694 44.6896C31.0694 45.2044 30.6523 45.6206 30.1383 45.6206Z" fill="#ADA477"/>
<path d="M11.5172 0.0651855C7.85641 0.52791 5 3.66736 5 7.44829V44.6897C5 40.9087 7.85641 37.7628 11.5172 37.3V0.0651855Z" fill="#1F436D"/>
<path d="M5 13.8353V19.5518C5 15.7709 7.85641 12.6314 11.5172 12.1687V6.45215C7.85641 6.91487 5 10.0543 5 13.8353Z" fill="#112C47"/>
<path d="M5 28.7969V34.5135C5 30.7325 7.85641 27.5931 11.5172 27.1304V21.4138C7.85641 21.8765 5 25.016 5 28.7969Z" fill="#112C47"/>
<path d="M24.552 53.9999L21.7589 51.2068L18.9658 53.9999V43.7585H24.552V53.9999Z" fill="#DD352E"/>
<path d="M48.7591 43.7585H44.1039C43.59 43.7585 43.1729 44.1747 43.1729 44.6896C43.1729 45.2044 43.59 45.6206 44.1039 45.6206H48.7591V43.7585Z" fill="#ADA477"/>
<path d="M43.1725 6.51733H17.1035V30.7242H43.1725V6.51733Z" fill="white"/>
<path d="M39.4482 27.0001V10.2415L20.8276 10.2415L20.8276 27.0001L39.4482 27.0001Z" fill="#EBBA16"/>
<path d="M31.9816 21.654H28.6456L28.0936 23.25H26.3296L29.3416 14.862H31.2976L34.3096 23.25H32.5336L31.9816 21.654ZM31.5256 20.31L30.3136 16.806L29.1016 20.31H31.5256Z" fill="#112C47"/>
</g>
<defs>
<clipPath id="clip0_995_3102">
<rect width="43.7586" height="54" fill="white" transform="translate(5)"/>
</clipPath>
</defs>
</svg>
