<svg width="54" height="54" viewBox="0 0 54 54" fill="none" xmlns="http://www.w3.org/2000/svg">
<path d="M45 4.5C45 52.5262 45.0675 49.7475 44.8537 50.4787C44.6438 51.1717 44.2166 51.7787 43.6352 52.2102C43.0538 52.6417 42.349 52.8747 41.625 52.875H7.875C6.97989 52.875 6.12145 52.5194 5.48851 51.8865C4.85558 51.2535 4.5 50.3951 4.5 49.5V4.5C4.5 3.60489 4.85558 2.74645 5.48851 2.11351C6.12145 1.48058 6.97989 1.125 7.875 1.125H41.625C42.5201 1.125 43.3785 1.48058 44.0115 2.11351C44.6444 2.74645 45 3.60489 45 4.5Z" fill="#6FABE6"/>
<path d="M44.9997 4.5001C44.9997 52.5264 45.0672 49.7476 44.8534 50.4789C44.1334 50.6926 46.5072 50.6251 10.1247 50.6251C9.22957 50.6251 8.37113 50.2695 7.73819 49.6366C7.10526 49.0037 6.74968 48.1452 6.74968 47.2501C6.74968 -0.719894 6.67093 2.0251 6.89593 1.27135C7.61593 1.0576 5.24218 1.1251 41.6247 1.1251C42.5198 1.1251 43.3782 1.48068 44.0112 2.11362C44.6441 2.74655 44.9997 3.605 44.9997 4.5001Z" fill="#82BCF4"/>
<path d="M40.5 5.625H9V48.375H40.5V5.625Z" fill="#DAD7E5"/>
<path d="M40.5 5.625V46.125H15.75C14.5565 46.125 13.4119 45.6509 12.568 44.807C11.7241 43.9631 11.25 42.8185 11.25 41.625V5.625H40.5Z" fill="#EDEBF2"/>
<path d="M29.25 11.25H20.25C19.3549 11.25 18.4964 10.8944 17.8635 10.2615C17.2306 9.62855 16.875 8.77011 16.875 7.875V5.625C16.875 5.32663 16.9935 5.04048 17.2045 4.82951C17.4155 4.61853 17.7016 4.5 18 4.5C18.2984 4.5 18.5845 4.61853 18.7955 4.82951C19.0065 5.04048 19.125 5.32663 19.125 5.625V7.875C19.125 8.17337 19.2435 8.45952 19.4545 8.67049C19.6655 8.88147 19.9516 9 20.25 9H29.25C29.5484 9 29.8345 8.88147 30.0455 8.67049C30.2565 8.45952 30.375 8.17337 30.375 7.875V5.625C30.375 5.32663 30.4935 5.04048 30.7045 4.82951C30.9155 4.61853 31.2016 4.5 31.5 4.5C31.7984 4.5 32.0845 4.61853 32.2955 4.82951C32.5065 5.04048 32.625 5.32663 32.625 5.625V7.875C32.625 8.77011 32.2694 9.62855 31.6365 10.2615C31.0036 10.8944 30.1451 11.25 29.25 11.25Z" fill="#425B72"/>
<path d="M33.75 1.125H15.75V5.625H33.75V1.125Z" fill="#FFCC66"/>
<path d="M33.75 1.125V3.375H20.25C19.6533 3.375 19.081 3.13795 18.659 2.71599C18.2371 2.29403 18 1.72174 18 1.125H33.75Z" fill="#FFDE76"/>
<path d="M12.701 19.924C12.4891 19.7121 12.3701 19.4248 12.3701 19.1252C12.3701 18.8256 12.4891 18.5383 12.701 18.3265C12.9128 18.1146 13.2001 17.9956 13.4997 17.9956C13.7993 17.9956 14.0866 18.1146 14.2985 18.3265L15.7497 19.789L19.451 16.0765C19.6628 15.8646 19.9501 15.7456 20.2497 15.7456C20.5493 15.7456 20.8366 15.8646 21.0485 16.0765C21.2603 16.2883 21.3793 16.5756 21.3793 16.8752C21.3793 17.1748 21.2603 17.4621 21.0485 17.674C14.9172 23.794 16.3572 23.6252 12.701 19.924Z" fill="#F26674"/>
<path d="M29.25 28.125H24.75C24.4516 28.125 24.1655 28.0065 23.9545 27.7955C23.7435 27.5845 23.625 27.2984 23.625 27C23.625 26.7016 23.7435 26.4155 23.9545 26.2045C24.1655 25.9935 24.4516 25.875 24.75 25.875H29.25C29.5484 25.875 29.8345 25.9935 30.0455 26.2045C30.2565 26.4155 30.375 26.7016 30.375 27C30.375 27.2984 30.2565 27.5845 30.0455 27.7955C29.8345 28.0065 29.5484 28.125 29.25 28.125Z" fill="#C6C3D8"/>
<path d="M27 32.625H24.75C24.4516 32.625 24.1655 32.5065 23.9545 32.2955C23.7435 32.0845 23.625 31.7984 23.625 31.5C23.625 31.2016 23.7435 30.9155 23.9545 30.7045C24.1655 30.4935 24.4516 30.375 24.75 30.375H27C27.2984 30.375 27.5845 30.4935 27.7955 30.7045C28.0065 30.9155 28.125 31.2016 28.125 31.5C28.125 31.7984 28.0065 32.0845 27.7955 32.2955C27.5845 32.5065 27.2984 32.625 27 32.625Z" fill="#C6C3D8"/>
<path d="M36 18H24.75C24.4516 18 24.1655 17.8815 23.9545 17.6705C23.7435 17.4595 23.625 17.1734 23.625 16.875C23.625 16.5766 23.7435 16.2905 23.9545 16.0795C24.1655 15.8685 24.4516 15.75 24.75 15.75H36C36.2984 15.75 36.5845 15.8685 36.7955 16.0795C37.0065 16.2905 37.125 16.5766 37.125 16.875C37.125 17.1734 37.0065 17.4595 36.7955 17.6705C36.5845 17.8815 36.2984 18 36 18Z" fill="#C6C3D8"/>
<path d="M36 22.5H24.75C24.4516 22.5 24.1655 22.3815 23.9545 22.1705C23.7435 21.9595 23.625 21.6734 23.625 21.375C23.625 21.0766 23.7435 20.7905 23.9545 20.5795C24.1655 20.3685 24.4516 20.25 24.75 20.25H36C36.2984 20.25 36.5845 20.3685 36.7955 20.5795C37.0065 20.7905 37.125 21.0766 37.125 21.375C37.125 21.6734 37.0065 21.9595 36.7955 22.1705C36.5845 22.3815 36.2984 22.5 36 22.5Z" fill="#C6C3D8"/>
<path d="M19.125 27H14.625V31.5H19.125V27Z" fill="#9DCC6B"/>
<path d="M27 38.25H24.75C24.4516 38.25 24.1655 38.1315 23.9545 37.9205C23.7435 37.7095 23.625 37.4234 23.625 37.125C23.625 36.8266 23.7435 36.5405 23.9545 36.3295C24.1655 36.1185 24.4516 36 24.75 36H27C27.2984 36 27.5845 36.1185 27.7955 36.3295C28.0065 36.5405 28.125 36.8266 28.125 37.125C28.125 37.4234 28.0065 37.7095 27.7955 37.9205C27.5845 38.1315 27.2984 38.25 27 38.25Z" fill="#C6C3D8"/>
<path d="M29.25 42.75H24.75C24.4516 42.75 24.1655 42.6315 23.9545 42.4205C23.7435 42.2095 23.625 41.9234 23.625 41.625C23.625 41.3266 23.7435 41.0405 23.9545 40.8295C24.1655 40.6185 24.4516 40.5 24.75 40.5H29.25C29.5484 40.5 29.8345 40.6185 30.0455 40.8295C30.2565 41.0405 30.375 41.3266 30.375 41.625C30.375 41.9234 30.2565 42.2095 30.0455 42.4205C29.8345 42.6315 29.5484 42.75 29.25 42.75Z" fill="#C6C3D8"/>
<path d="M19.125 37.125H14.625V41.625H19.125V37.125Z" fill="#9DCC6B"/>
<path d="M19.125 37.125V40.5C18.2299 40.5 17.3714 40.1444 16.7385 39.5115C16.1056 38.8785 15.75 38.0201 15.75 37.125H19.125Z" fill="#B5E08C"/>
<path d="M19.125 27V30.375C18.2299 30.375 17.3714 30.0194 16.7385 29.3865C16.1056 28.7536 15.75 27.8951 15.75 27H19.125Z" fill="#B5E08C"/>
<path d="M49.5 33.7501C49.5025 35.2989 49.1053 36.8222 48.3468 38.1726C47.5883 39.523 46.4941 40.6547 45.1701 41.4584C43.8461 42.2621 42.3371 42.7105 40.789 42.7603C39.241 42.81 37.7063 42.4594 36.3334 41.7423C34.9606 41.0253 33.796 39.9661 32.9523 38.6672C32.1087 37.3683 31.6145 35.8737 31.5176 34.3279C31.4207 32.7821 31.7244 31.2374 32.3993 29.8433C33.0742 28.4493 34.0974 27.2529 35.37 26.3701C36.719 25.4342 38.2984 24.8852 39.937 24.7825C41.5757 24.6798 43.2112 25.0273 44.6666 25.7874C46.1219 26.5476 47.3416 27.6913 48.1935 29.0948C49.0455 30.4984 49.4973 32.1082 49.5 33.7501Z" fill="#FFCC66"/>
<path d="M49.4999 33.7501C49.505 35.5867 48.9389 37.3795 47.8799 38.8801C46.3793 39.9391 44.5865 40.5053 42.7499 40.5001C41.108 40.4974 39.4981 40.0456 38.0946 39.1937C36.6911 38.3417 35.5473 37.122 34.7872 35.6667C34.0271 34.2113 33.6796 32.5758 33.7823 30.9371C33.885 29.2985 34.434 27.7191 35.3699 26.3701C36.7189 25.4342 38.2982 24.8852 39.9369 24.7825C41.5756 24.6798 43.2111 25.0273 44.6664 25.7874C46.1218 26.5476 47.3414 27.6913 48.1934 29.0948C49.0454 30.4984 49.4972 32.1082 49.4999 33.7501Z" fill="#FFDE76"/>
<path d="M40.4998 28.125C37.1248 28.125 36.0898 32.625 38.2498 32.625C38.5482 32.625 38.8344 32.5065 39.0453 32.2955C39.2563 32.0845 39.3748 31.7984 39.3748 31.5C39.3743 31.3008 39.4267 31.105 39.5267 30.9326C39.6266 30.7602 39.7706 30.6175 39.9438 30.519C40.117 30.4206 40.3132 30.3698 40.5124 30.3721C40.7117 30.3743 40.9067 30.4294 41.0777 30.5317C41.2486 30.6341 41.3893 30.78 41.4854 30.9545C41.5815 31.1291 41.6295 31.326 41.6245 31.5252C41.6195 31.7244 41.5617 31.9187 41.457 32.0882C41.3523 32.2577 41.2045 32.3964 41.0286 32.49C40.5969 32.7443 40.2255 33.0893 39.94 33.501C39.6545 33.9128 39.4617 34.3815 39.3748 34.875V35.3925C39.3748 35.6909 39.4934 35.977 39.7043 36.188C39.9153 36.399 40.2015 36.5175 40.4998 36.5175C40.7982 36.5175 41.0844 36.399 41.2953 36.188C41.5063 35.977 41.6248 35.6909 41.6248 35.3925C41.6144 35.2106 41.6527 35.0292 41.7357 34.867C41.8188 34.7049 41.9436 34.5678 42.0973 34.47C42.758 34.1134 43.2809 33.5467 43.5834 32.8596C43.8858 32.1724 43.9505 31.404 43.7672 30.676C43.5839 29.9479 43.1631 29.3018 42.5713 28.8398C41.9795 28.3777 41.2506 28.1262 40.4998 28.125Z" fill="#F26674"/>
<path d="M40.9275 37.215C40.7571 37.145 40.572 37.1179 40.3887 37.1361C40.2053 37.1544 40.0293 37.2174 39.8759 37.3196C39.7226 37.4218 39.5968 37.5601 39.5094 37.7223C39.4221 37.8845 39.3759 38.0658 39.375 38.25C39.375 38.5484 39.4935 38.8345 39.7045 39.0455C39.9155 39.2565 40.2016 39.375 40.5 39.375C40.7582 39.372 41.0074 39.2802 41.206 39.1152C41.4045 38.9501 41.5402 38.7218 41.5904 38.4685C41.6405 38.2152 41.602 37.9524 41.4813 37.7242C41.3606 37.4959 41.1651 37.3162 40.9275 37.215Z" fill="#F26674"/>
</svg>
