<svg width="78" height="54" viewBox="0 0 78 54" fill="none" xmlns="http://www.w3.org/2000/svg">
<path d="M26.5818 41.8891C26.5818 41.8891 25.9647 44.8484 25.4775 49.5883H39.0858C39.0858 49.5883 38.9235 44.8771 37.9815 41.4019L26.5818 41.8891Z" fill="#9AB2D5"/>
<path d="M37.981 41.4019L26.5813 41.8891C26.5813 41.8891 26.3633 43.0411 26.1592 44.2916C27.6025 44.9082 29.1094 45.3638 30.6525 45.6501C30.7809 45.6722 30.9128 45.6633 31.037 45.624C31.1612 45.5847 31.2742 45.5162 31.3665 45.4243L32.3962 44.3996L33.7954 45.7267C33.8848 45.8116 33.9924 45.8751 34.11 45.9123C34.2275 45.9496 34.352 45.9595 34.4741 45.9415C35.2806 45.8221 37.144 45.4351 38.5732 44.2898C38.4388 43.5088 38.1781 42.1288 37.981 41.4019Z" fill="#5B7A99"/>
<path d="M32.5376 21.8472C32.5376 21.8472 29.6477 22.3674 27.6361 22.7059C27.2101 22.7772 26.8077 22.9503 26.4631 23.2107C26.1185 23.471 25.8419 23.8107 25.6569 24.201C25.0312 25.5252 24.1071 27.7121 23.627 29.9589L27.3141 30.2047C27.3141 30.2047 26.6689 38.7773 25.317 42.0957C26.8936 43.1084 28.6607 43.788 30.5096 44.0929L32.2918 42.3415L34.504 44.4001C36.1003 43.9613 37.6227 43.288 39.0214 42.4025C39.0214 42.4025 38.085 38.3158 38.1999 33.8912V30.7272C39.2466 30.4331 40.3114 30.2073 41.3874 30.0512C41.3874 30.0512 41.2094 27.8786 40.9345 26.1499C40.8651 25.7157 40.6905 25.3049 40.4259 24.9536C40.1614 24.6023 39.8149 24.321 39.4167 24.1342C37.6167 23.2872 34.2954 21.8472 32.5376 21.8472Z" fill="#ACFCCA"/>
<path d="M38.1994 32.6704C37.1484 32.3092 36.0655 32.0485 34.9653 31.892C30.6233 31.2396 28.8658 31.8253 28.2799 32.2261C28.0475 32.3852 27.5626 32.7424 27.0334 33.1405C26.8855 34.4817 26.6783 36.1193 26.4102 37.6877C27.7454 37.1838 29.0405 36.579 30.284 35.8786C30.8873 35.5278 31.3467 35.2799 31.6958 35.1049C32.0084 34.9472 32.3623 34.8911 32.7083 34.9442C33.0543 34.9974 33.3751 35.1572 33.626 35.4013C33.769 35.5414 33.9209 35.7008 34.0732 35.8782C34.6043 36.496 36.2562 38.0266 38.3829 38.2832C38.2293 36.8244 38.168 35.3574 38.1994 33.8909V32.6704Z" fill="#6CB787"/>
<path d="M31.1437 18.1482L30.8945 22.8114C30.8945 22.8114 31.2883 24.6185 33.2042 26.6082C34.4374 24.7129 34.9615 22.4429 34.6841 20.1988L31.1437 18.1482Z" fill="#FFDDCF"/>
<path d="M23.6265 29.9583C23.2493 31.3307 22.9844 32.7315 22.8345 34.1468C22.8091 34.421 22.8422 34.6975 22.9318 34.958C23.0213 35.2184 23.1652 35.4569 23.3539 35.6575C23.5426 35.8581 23.7717 36.0163 24.0262 36.1217C24.2806 36.227 24.5546 36.2771 24.8298 36.2686C25.6848 36.2341 26.8777 35.9278 28.5306 35.0791C28.5306 35.0791 32.6001 32.8062 34.0729 32.4485L31.876 30.2725L27.4265 31.2466L28.0453 30.2527L23.6265 29.9583Z" fill="#FFDDCF"/>
<path d="M31.1437 18.1482L30.8945 22.8114C30.8945 22.8114 30.917 22.9136 30.9761 23.0946L34.7379 22.0349C34.782 21.4226 34.7641 20.8075 34.6843 20.1988L31.1437 18.1482Z" fill="#F7A59D"/>
<path d="M29.7726 16.3082C29.7726 16.3082 29.9178 17.1924 31.1421 17.4376V18.1483C31.1415 18.6407 31.2796 19.1234 31.5406 19.541C31.8016 19.9586 32.1749 20.2943 32.6178 20.5096C33.4723 20.9257 34.3588 21.2728 35.2688 21.5474C35.6045 21.648 35.9581 21.6745 36.3051 21.6249C36.6521 21.5753 36.9841 21.451 37.2783 21.2604C37.5725 21.0698 37.8217 20.8176 38.0087 20.5212C38.1958 20.2248 38.3161 19.8912 38.3615 19.5437C38.6548 17.2822 38.902 13.7978 38.3377 10.3599L29.9785 11.9255C29.9785 11.9255 28.9845 13.6175 29.7726 16.3082Z" fill="#FFDDCF"/>
<path d="M38.4899 18.432C38.5838 17.4979 38.6565 16.4335 38.6734 15.2931L32.9943 15.0706C32.9943 15.0706 32.6252 17.1378 33.9131 18.0807C34.1491 18.2448 34.4169 18.3577 34.6992 18.4122C34.9815 18.4666 35.272 18.4613 35.5522 18.3967C35.8957 18.3441 36.2115 18.1774 36.4488 17.9235C36.4669 17.9004 36.4896 17.8813 36.5154 17.8674C36.5412 17.8535 36.5696 17.845 36.5988 17.8424C36.628 17.8399 36.6574 17.8434 36.6852 17.8527C36.7131 17.862 36.7387 17.8769 36.7605 17.8965C36.9937 18.1042 37.2688 18.2594 37.5671 18.3518C37.8655 18.4442 38.1801 18.4715 38.4899 18.432Z" fill="#F7A59D"/>
<path d="M33.4881 14.9202H36.4651C36.4891 15.4176 36.3758 15.912 36.1377 16.3493C35.3978 17.5688 33.7294 17.2165 33.4947 15.7654C33.4533 15.4853 33.4511 15.2009 33.4881 14.9202Z" fill="#66667F"/>
<path d="M39.3797 14.9202H36.6994C36.6754 15.4176 36.7887 15.912 37.0268 16.3493C37.7667 17.5688 39.4352 17.2165 39.6698 15.7654C39.6976 15.5862 39.7077 15.4047 39.7002 15.2236C39.6962 15.1414 39.6606 15.064 39.6009 15.0074C39.5412 14.9509 39.4619 14.9196 39.3797 14.9202Z" fill="#66667F"/>
<path d="M32.965 12.5532C35.1108 12.3529 39.5027 11.5307 40.2974 8.15996H38.725C38.725 8.15996 39.9313 6.40062 39.3461 4.41187C39.3461 4.41187 35.9979 6.90942 31.3865 7.48768C30.7706 7.56311 30.201 7.85304 29.7776 8.30658C29.3542 8.76012 29.1041 9.34829 29.0712 9.96787C29.0703 9.98636 29.0696 10.0049 29.0689 10.0235C29.0689 10.0235 26.9031 9.91888 26.6839 13.1709C26.6839 13.1709 26.5908 16.0049 29.7731 16.3082C29.7731 16.3082 29.7718 16.3025 29.7697 16.2913C29.7265 16.0599 29.7431 15.8213 29.8179 15.5981C29.8927 15.3748 30.0231 15.1744 30.197 15.0157C30.3709 14.857 30.5823 14.7453 30.8114 14.6911C31.0405 14.6369 31.2797 14.6421 31.5062 14.7062L31.7462 14.7737L31.7617 13.8578C31.7666 13.5304 31.892 13.2163 32.114 12.9756C32.336 12.7349 32.639 12.5845 32.965 12.5532Z" fill="#FFCA42"/>
<path d="M30.0424 11.9984C29.7102 12.8172 28.8508 14.1262 26.7812 13.9325C26.993 14.7951 27.6632 16.1076 29.7726 16.3087C29.7726 16.3087 29.7714 16.3025 29.7691 16.2908C29.7261 16.0594 29.7428 15.8209 29.8176 15.5978C29.8925 15.3747 30.023 15.1744 30.1968 15.0158C30.3707 14.8572 30.5821 14.7455 30.8111 14.6914C31.0401 14.6373 31.2791 14.6425 31.5056 14.7065L31.7456 14.7741L31.7611 13.8583C31.7659 13.531 31.8912 13.217 32.113 12.9763C32.3348 12.7357 32.6376 12.5852 32.9634 12.5537C35.1093 12.3533 39.5011 11.5311 40.2958 8.1604C38.0106 10.9143 32.8761 11.3167 30.9661 11.3691C30.7677 11.3731 30.5748 11.4347 30.4108 11.5465C30.2468 11.6582 30.1188 11.8152 30.0424 11.9984Z" fill="#FF9F52"/>
<path d="M27.4268 31.2469C27.6565 30.7821 27.9453 30.3488 28.286 29.958C28.7083 29.4823 29.2589 29.1387 29.8717 28.9683C30.4845 28.7978 31.1334 28.8079 31.7407 28.9971C32.7067 29.3115 33.6294 29.7458 34.4873 30.2899L38.1989 32.7284V30.7271C38.1989 30.7271 39.9384 30.1558 41.3864 30.0511C41.3864 30.0511 41.6158 32.7366 41.4711 34.9511C41.448 35.2806 41.3472 35.5999 41.1768 35.8829C41.0064 36.1658 40.7714 36.4044 40.4909 36.5789C40.2105 36.7534 39.8927 36.859 39.5636 36.887C39.2345 36.9149 38.9035 36.8644 38.5976 36.7397C37.7647 36.3996 36.7482 35.8195 35.5853 34.84C34.6126 34.0116 33.5658 33.2744 32.4581 32.6376C30.8794 31.742 28.874 30.8848 27.4268 31.2469Z" fill="#FFDDCF"/>
<path d="M39.3384 32.2537C39.5014 32.0456 39.6077 31.7988 39.6471 31.5375C39.6865 31.2761 39.6576 31.009 39.5632 30.7621C39.4994 30.5843 39.4121 30.4158 39.3037 30.2612C39.0774 29.9534 38.7731 29.7116 38.4222 29.5606C38.0713 29.4097 37.6865 29.355 37.3075 29.4022C36.1611 29.5207 35.0221 29.7017 33.8955 29.9445C35.2536 30.7763 36.6936 31.7425 38.1989 32.7285C38.4132 32.7497 38.6296 32.7175 38.8284 32.6346C39.0273 32.5518 39.2025 32.4209 39.3384 32.2537Z" fill="#FFDDCF"/>
<path d="M25.6564 24.2005C25.54 24.4467 25.4134 24.7228 25.2812 25.0234L30.975 23.0948L30.442 22.2195C29.5463 22.3775 28.5078 22.5583 27.6355 22.7054C27.2095 22.7766 26.8071 22.9498 26.4625 23.2101C26.1179 23.4704 25.8413 23.8102 25.6564 24.2005Z" fill="#6CB787"/>
<path d="M41.9497 30.0042C41.9423 29.9148 41.7662 27.7905 41.4916 26.0607C41.4079 25.5354 41.1969 25.0386 40.877 24.6137C40.557 24.1887 40.138 23.8486 39.6563 23.6229C39.505 23.5523 39.3632 23.4841 39.2259 23.4184C38.5006 23.062 37.7576 22.7427 36.9998 22.4618C36.9809 22.4557 36.9616 22.4506 36.9421 22.4466C36.8461 22.3997 36.7387 22.3812 36.6326 22.3933C36.5264 22.4053 36.4259 22.4473 36.3428 22.5144C36.2597 22.5815 36.1975 22.6709 36.1634 22.7722C36.1293 22.8734 36.1248 22.9823 36.1504 23.086C36.359 24.0255 36.4816 24.9821 36.5167 25.944C36.0097 25.8364 35.482 25.8854 35.0034 26.0844C34.8644 26.1402 34.7533 26.249 34.6945 26.3868C34.6357 26.5245 34.6341 26.68 34.6899 26.819C34.7457 26.958 34.8545 27.0691 34.9922 27.1279C35.13 27.1867 35.2854 27.1883 35.4244 27.1325C35.633 27.0409 35.8609 27.0017 36.0882 27.0185C36.3154 27.0353 36.5351 27.1074 36.728 27.2287C36.8097 27.2921 36.9072 27.3319 37.0099 27.3438C37.1126 27.3556 37.2166 27.339 37.3105 27.2958C37.4044 27.2526 37.4847 27.1845 37.5426 27.0988C37.6004 27.0131 37.6337 26.9132 37.6386 26.8099C37.6732 25.8196 37.6088 24.8284 37.4465 23.8509C37.9426 24.0576 38.3218 24.2385 38.7392 24.4377C38.8786 24.5041 39.0216 24.5727 39.1756 24.6448C39.4906 24.7922 39.7648 25.0143 39.9742 25.292C40.1836 25.5696 40.3218 25.8942 40.3769 26.2376C40.5651 27.4215 40.7088 28.834 40.7784 29.5783C40.3919 29.6449 40.017 29.716 39.6567 29.79C39.3656 29.4446 38.9932 29.1769 38.5731 29.011C38.1529 28.845 37.6981 28.786 37.2495 28.8392C35.8407 28.9874 34.9343 29.3803 34.4825 29.6287C34.0992 29.4045 33.7251 29.2054 33.36 29.0313L33.3703 28.6668C33.3837 28.1918 33.4597 27.7207 33.5962 27.2655L33.7191 26.8554C34.6263 25.4366 35.1684 23.8153 35.2969 22.1361C35.7021 22.2294 36.1224 22.2369 36.5306 22.1582C36.9389 22.0794 37.3262 21.9162 37.6676 21.6789C38.009 21.4416 38.2971 21.1355 38.5133 20.7804C38.7294 20.4252 38.8689 20.0287 38.9228 19.6164C39.0168 18.8905 39.0898 18.1575 39.1429 17.4323C39.4335 17.2717 39.6828 17.0456 39.871 16.772C40.0592 16.4983 40.1811 16.1847 40.2271 15.8558C40.2768 15.5237 40.2802 15.1864 40.2373 14.8534C40.221 14.7161 40.155 14.5895 40.0516 14.4976C39.9483 14.4057 39.8148 14.3549 39.6765 14.3549H33.5126L32.3201 14.2544L32.3267 13.8669C32.3288 13.6785 32.4004 13.4975 32.5278 13.3586C32.6552 13.2198 32.8294 13.133 33.0169 13.1148C34.405 12.9851 36.3409 12.646 37.9581 11.7806C38.0118 12.286 38.053 12.8045 38.0784 13.3335C38.0853 13.4784 38.1477 13.615 38.2526 13.7151C38.3575 13.8152 38.497 13.8711 38.642 13.8712C38.651 13.8712 38.6603 13.8712 38.6695 13.8712C38.819 13.8639 38.9595 13.7976 39.0601 13.6867C39.1607 13.5759 39.2131 13.4296 39.206 13.2801C39.17 12.5294 39.1045 11.7969 39.0143 11.0943C39.9307 10.3992 40.5779 9.40793 40.8456 8.28927C40.8651 8.20637 40.8657 8.12012 40.8472 8.03698C40.8287 7.95384 40.7916 7.87596 40.7387 7.80918C40.6859 7.74239 40.6186 7.68843 40.5419 7.65134C40.4652 7.61424 40.3812 7.59497 40.296 7.59496H39.6483C39.9703 6.80974 40.2793 5.58419 39.8883 4.25233C39.8626 4.16497 39.8162 4.08511 39.7529 4.01958C39.6897 3.95404 39.6116 3.90476 39.5252 3.87595C39.4388 3.84713 39.3468 3.83963 39.2569 3.85408C39.167 3.86854 39.0819 3.90452 39.0089 3.95896C38.9767 3.98296 35.7292 6.37379 31.3166 6.92706C30.6394 7.00911 30.0062 7.3054 29.5093 7.7727C29.0124 8.24 28.6778 8.85385 28.5544 9.5247C27.7468 9.71275 26.3029 10.4282 26.1205 13.1322C26.1205 13.1384 26.1205 13.1449 26.1195 13.1514C26.1169 13.2295 26.0747 15.0722 27.6346 16.1584C27.7575 16.2441 27.9094 16.2773 28.0568 16.251C28.2043 16.2246 28.3352 16.1407 28.4208 16.0178C28.5064 15.8949 28.5397 15.7431 28.5133 15.5956C28.487 15.4482 28.4031 15.3172 28.2802 15.2316C27.2605 14.5224 27.2475 13.3058 27.2485 13.1959C27.4264 10.6291 28.8827 10.5888 29.0414 10.5873C29.1162 10.591 29.191 10.5797 29.2614 10.5541C29.3317 10.5286 29.3963 10.4893 29.4514 10.4385C29.5065 10.3878 29.5509 10.3266 29.5821 10.2585C29.6133 10.1904 29.6306 10.1168 29.6331 10.042L29.6351 9.99496C29.6603 9.50766 29.857 9.04497 30.1904 8.68866C30.5238 8.33236 30.9724 8.10538 31.4569 8.04786C34.9258 7.61289 37.6746 6.14621 38.9363 5.36325C38.9532 6.23688 38.7182 7.09689 38.2592 7.84047C38.2011 7.92529 38.1672 8.02439 38.1612 8.12707C38.1553 8.22974 38.1775 8.3321 38.2254 8.42308C38.2734 8.51407 38.3452 8.59023 38.4333 8.64336C38.5214 8.69648 38.6223 8.72454 38.7251 8.72452H39.5064C38.3488 11.2092 34.5793 11.8349 32.9113 11.9909C32.4468 12.0346 32.0149 12.2484 31.6984 12.5912C31.3819 12.934 31.2033 13.3817 31.1969 13.8482L31.1928 14.0896C30.9012 14.0802 30.6113 14.1364 30.3444 14.2541C30.0774 14.3717 29.8403 14.5478 29.6505 14.7693C29.4607 14.9908 29.3231 15.2522 29.2478 15.534C29.1725 15.8158 29.1615 16.1109 29.2155 16.3976C29.2155 16.3989 29.2163 16.4001 29.2166 16.4014C29.2849 16.8121 29.6499 17.5195 30.5787 17.8632V18.1341L30.3905 21.6557C29.5306 21.8073 28.4535 21.9955 27.5425 22.149C27.0268 22.2354 26.5396 22.4451 26.1224 22.7604C25.7052 23.0756 25.3704 23.4871 25.1465 23.9596C24.47 25.3915 23.5636 27.5688 23.0799 29.8184C22.6941 31.2197 22.4241 32.6504 22.2727 34.096C22.2408 34.4535 22.2855 34.8137 22.4038 35.1526C22.5222 35.4914 22.7115 35.8011 22.9591 36.0609C23.1904 36.3048 23.4688 36.4991 23.7774 36.6321C24.0861 36.7651 24.4185 36.834 24.7546 36.8346C24.7875 36.8346 24.8204 36.8339 24.8534 36.8328C25.2413 36.8135 25.6265 36.7574 26.0037 36.6652C25.6367 39.0369 25.2222 40.8317 24.7944 41.8819C24.746 42.0008 24.7395 42.1325 24.776 42.2556C24.8125 42.3786 24.8898 42.4855 24.9952 42.5587C25.0275 42.5812 25.3117 42.7763 25.7938 43.0424C25.5726 44.3198 25.2186 46.5849 24.9159 49.5303C24.9083 49.6041 24.9154 49.6786 24.9366 49.7497C24.9578 49.8208 24.9928 49.887 25.0396 49.9445C25.0864 50.0021 25.1441 50.0498 25.2093 50.0851C25.2746 50.1203 25.3462 50.1423 25.4199 50.1499C25.4396 50.1518 25.4591 50.1528 25.4784 50.1528C25.618 50.1526 25.7527 50.1007 25.8563 50.007C25.9599 49.9134 26.0252 49.7847 26.0394 49.6458C26.3139 46.9753 26.6305 44.8723 26.8495 43.5694C27.9872 44.0878 29.1893 44.4514 30.4237 44.6504C30.5106 44.6638 30.5994 44.6568 30.6831 44.6298C30.7668 44.6029 30.8431 44.5567 30.9058 44.4951L32.3027 43.1222L34.1197 44.813C34.1878 44.8764 34.2706 44.922 34.3607 44.9457C34.4508 44.9694 34.5453 44.9704 34.6358 44.9487C35.7664 44.6451 36.8612 44.2213 37.9015 43.6846C38.2268 45.6447 38.4338 47.6227 38.5215 49.6077C38.5266 49.7539 38.5882 49.8924 38.6934 49.9941C38.7986 50.0959 38.9391 50.1528 39.0854 50.1529C39.0921 50.1529 39.0987 50.1529 39.1053 50.1529C39.255 50.1477 39.3964 50.0833 39.4986 49.9738C39.6008 49.8643 39.6553 49.7188 39.6501 49.5691C39.5587 47.4032 39.3232 45.2458 38.9452 43.1112C39.0703 43.0367 39.1961 42.9598 39.3226 42.8803C39.4215 42.8179 39.4985 42.7262 39.543 42.6181C39.5876 42.51 39.5975 42.3907 39.5713 42.2767C39.2336 40.671 38.9994 39.0453 38.8703 37.4096C39.0416 37.4446 39.2159 37.4624 39.3908 37.4627C39.8886 37.4613 40.376 37.3194 40.7967 37.0533C41.1537 36.8334 41.4526 36.5308 41.6681 36.1712C41.8836 35.8116 42.0094 35.4054 42.035 34.9869C42.1803 32.7652 41.9609 30.1365 41.9503 30.0046L41.9497 30.0042ZM37.3673 29.9637C37.6462 29.9266 37.93 29.9647 38.1893 30.074C38.4485 30.1833 38.6739 30.3599 38.842 30.5856C38.9215 30.6992 38.9855 30.823 39.0322 30.9536C39.0931 31.1086 39.1131 31.2767 39.0903 31.4417C39.0675 31.6067 39.0027 31.7631 38.902 31.8958C38.8386 31.9759 38.7586 32.0414 38.6674 32.0877C38.5763 32.134 38.4763 32.16 38.3742 32.164C37.9386 31.8663 36.6336 30.9773 35.6473 30.3429C36.2032 30.1472 36.7807 30.0199 37.3673 29.9637ZM31.5847 20.4708C31.8178 20.6925 32.0837 20.877 32.3729 21.0179C32.9639 21.3048 33.5694 21.5605 34.1871 21.784C34.1151 23.1397 33.7486 24.4635 33.1131 25.6632C31.9335 24.2556 31.5431 23.0414 31.4627 22.7549L31.5847 20.4708ZM39.1333 15.4849C39.1292 15.551 39.1221 15.6146 39.1124 15.6752C39.0267 16.2056 38.6888 16.4544 38.4018 16.5104C38.0557 16.577 37.7229 16.408 37.5097 16.0567C37.4074 15.8798 37.3374 15.6862 37.3028 15.4849H39.1333ZM35.8619 15.4849C35.8274 15.6862 35.7573 15.8797 35.655 16.0565C35.4418 16.408 35.1086 16.5773 34.7629 16.5104C34.4756 16.4539 34.1382 16.2056 34.0523 15.6752C34.0426 15.6146 34.0355 15.551 34.0314 15.4849H35.8619ZM30.3278 16.2021L30.3305 16.2162H30.3274C30.3258 16.2053 30.3265 16.1944 30.3244 16.1836C30.2971 16.0482 30.3056 15.908 30.3491 15.777C30.3926 15.6459 30.4696 15.5285 30.5725 15.4363C30.6756 15.3406 30.8017 15.273 30.9385 15.2402C31.0754 15.2073 31.2184 15.2103 31.3537 15.2488L31.5854 15.3139H31.5881L31.5936 15.3155C31.6004 15.3175 31.6077 15.3172 31.6139 15.3187C31.6417 15.3262 31.67 15.3315 31.6986 15.3347L32.9002 15.4359C32.9031 15.576 32.9154 15.7156 32.9369 15.8541C33.0839 16.7632 33.7155 17.4554 34.5463 17.6174C34.6685 17.6414 34.7928 17.6535 34.9173 17.6536C35.2528 17.6486 35.5815 17.5584 35.8726 17.3915C36.1638 17.2247 36.4078 16.9867 36.5818 16.6999C36.7349 16.9495 36.9407 17.1627 37.1848 17.3245C37.4289 17.4863 37.7054 17.5929 37.995 17.6367C37.9457 18.2464 37.8812 18.8606 37.8023 19.4695C37.7674 19.7359 37.6751 19.9916 37.5316 20.2189C37.3881 20.4461 37.1969 20.6394 36.9713 20.7855C36.7457 20.9315 36.4911 21.0267 36.225 21.0646C35.959 21.1024 35.6879 21.0819 35.4305 21.0046C34.5496 20.7393 33.6915 20.4034 32.8646 20C32.518 19.8299 32.2258 19.5661 32.0213 19.2386C31.8167 18.9111 31.7078 18.5329 31.707 18.1468V17.4357C31.707 17.3051 31.6617 17.1786 31.579 17.0777C31.4962 16.9768 31.3811 16.9076 31.2531 16.882C30.467 16.7261 30.34 16.2552 30.328 16.2021H30.3278ZM26.1676 24.4417C26.3137 24.1338 26.532 23.8658 26.804 23.6604C27.076 23.4551 27.3936 23.3185 27.7297 23.2623C27.9337 23.2279 28.1461 23.1917 28.3624 23.1549C28.2165 23.9857 28.0035 25.3742 27.8872 26.9586C27.879 27.0697 27.9039 27.1807 27.9586 27.2776C28.0134 27.3746 28.0956 27.4532 28.195 27.5036C28.2943 27.554 28.4063 27.5738 28.5169 27.5607C28.6275 27.5476 28.7317 27.5021 28.8165 27.4298C29.0948 27.2244 29.4129 27.0792 29.7504 27.0035C30.0879 26.9278 30.4375 26.9232 30.7769 26.9901C30.8499 27.0067 30.9255 27.0086 30.9993 26.9957C31.073 26.9828 31.1435 26.9554 31.2065 26.915C31.2696 26.8747 31.324 26.8221 31.3666 26.7605C31.4092 26.699 31.4391 26.6295 31.4546 26.5563C31.4701 26.483 31.4708 26.4074 31.4568 26.3338C31.4428 26.2603 31.4143 26.1902 31.373 26.1278C31.3317 26.0653 31.2784 26.0117 31.2161 25.9701C31.1539 25.9285 31.084 25.8996 31.0105 25.8852C30.3756 25.7505 29.7157 25.7952 29.1047 26.0141C29.2468 24.6434 29.4435 23.5077 29.5481 22.9497C29.8175 22.9027 30.0808 22.8566 30.3304 22.8125C30.3301 22.8526 30.334 22.8927 30.3421 22.932C30.3589 23.0089 30.7607 24.7722 32.5695 26.7567L32.5139 26.9422C32.3562 27.4708 32.2658 28.0172 32.2451 28.5684C32.1311 28.5284 32.0181 28.4914 31.9063 28.4573C31.1947 28.2364 30.4346 28.2255 29.717 28.4258C28.9993 28.6262 28.3547 29.0292 27.8605 29.5867C27.8362 29.615 27.813 29.6424 27.7899 29.6702L27.3522 29.6409L26.4346 29.5798L24.328 29.4386C24.7822 27.7187 25.3983 26.0456 26.1678 24.4417H26.1676ZM24.8077 35.7042C24.6156 35.7128 24.4239 35.6795 24.246 35.6067C24.0681 35.5339 23.9081 35.4232 23.7771 35.2825C23.6403 35.139 23.5356 34.968 23.4701 34.7809C23.4046 34.5938 23.3798 34.3949 23.3973 34.1974C23.5257 32.968 23.7452 31.7498 24.0538 30.5528L25.2758 30.6343L26.7041 30.7296C26.699 30.7887 26.6934 30.8532 26.6873 30.9203C26.4191 31.0294 26.0777 31.1799 25.7115 31.3709C25.6457 31.4052 25.5874 31.4521 25.5397 31.509C25.4921 31.5658 25.4561 31.6315 25.4339 31.7023C25.4116 31.773 25.4035 31.8475 25.4101 31.9213C25.4166 31.9952 25.4376 32.0671 25.4719 32.1328C25.5062 32.1986 25.5531 32.257 25.61 32.3046C25.6668 32.3522 25.7325 32.3882 25.8032 32.4104C25.874 32.4327 25.9484 32.4408 26.0223 32.4343C26.0962 32.4277 26.1681 32.4067 26.2338 32.3724C26.6044 32.1802 26.9863 32.0104 27.3774 31.8642C27.4026 31.8569 27.4273 31.8478 27.4512 31.8369C27.5438 31.8033 27.5986 31.7854 27.6004 31.7848C27.6055 31.7832 27.6097 31.7803 27.6145 31.7785C27.623 31.7755 27.6318 31.7737 27.6402 31.7703C28.6944 31.3399 30.3096 31.9514 31.7626 32.7687C30.1652 33.525 28.4271 34.4911 28.2642 34.5818C26.883 35.2898 25.7198 35.6682 24.8077 35.7042ZM32.8561 42.0947L32.8463 35.2832C32.846 35.1336 32.7864 34.9902 32.6806 34.8844C32.5747 34.7787 32.4312 34.7193 32.2815 34.7193H32.2807C32.2065 34.7195 32.1331 34.7342 32.0647 34.7627C31.9962 34.7911 31.934 34.8328 31.8816 34.8853C31.8293 34.9379 31.7878 35.0002 31.7595 35.0687C31.7312 35.1373 31.7167 35.2107 31.7168 35.2849L31.7267 42.1046L30.3192 43.4881C28.7997 43.1967 27.3414 42.6467 26.0078 41.8622C26.4429 40.6146 26.8434 38.7451 27.2015 36.294C27.7437 36.0868 28.2738 35.8491 28.7891 35.5819C28.7951 35.579 28.8008 35.5757 28.8066 35.5726C28.8315 35.5585 31.1874 34.2456 32.9219 33.4797C33.5003 33.861 34.0575 34.2734 34.5912 34.7151C35.5212 35.5993 36.5687 36.3509 37.7041 36.9488C37.8201 38.6887 38.0477 40.4193 38.3856 42.13C37.2142 42.826 35.9627 43.3773 34.6585 43.7719L32.8561 42.0947ZM40.9079 34.9135C40.8907 35.1537 40.8169 35.3866 40.6924 35.5928C40.568 35.7991 40.3964 35.9729 40.1918 36.1C39.9872 36.2272 39.7554 36.304 39.5153 36.3243C39.2753 36.3446 39.0339 36.3077 38.8108 36.2167C38.705 36.1736 38.5962 36.1261 38.4843 36.0742C37.4713 35.6051 36.4166 34.8659 35.3492 33.8771C35.3428 33.8713 35.3365 33.8655 35.3298 33.86C34.8795 33.4788 31.3759 30.5963 28.5656 30.5042C28.6118 30.4465 28.6602 30.3883 28.7109 30.3304C29.0618 29.9367 29.5187 29.6524 30.027 29.5118C30.5353 29.3712 31.0734 29.3801 31.5768 29.5375C32.4937 29.8381 33.3699 30.251 34.1853 30.7668L37.8891 33.2001C37.8925 33.2023 37.8961 33.2034 37.8994 33.2055C37.924 33.2209 37.9498 33.2343 37.9765 33.2457C37.9849 33.2494 37.9933 33.2532 38.0019 33.2565C38.0318 33.2679 38.0625 33.2767 38.0939 33.2829C38.0997 33.284 38.1055 33.2841 38.1113 33.285C38.1304 33.2884 38.1497 33.2908 38.169 33.292C38.2119 33.2945 38.2543 33.2957 38.2961 33.2956C38.5786 33.3024 38.8589 33.2443 39.1153 33.1257C39.3718 33.0071 39.5976 32.8312 39.7753 32.6116C39.9711 32.3654 40.1085 32.0781 40.1773 31.7712C40.2461 31.4643 40.2445 31.1458 40.1726 30.8397C40.3991 30.7949 40.6306 30.7517 40.8673 30.7101C40.963 32.1092 40.9766 33.5127 40.908 34.9135H40.9079Z" fill="#3D3C4C"/>
<path d="M33.2036 46.1687H31.8538C31.704 46.1687 31.5604 46.2282 31.4545 46.3341C31.3486 46.44 31.2891 46.5836 31.2891 46.7334C31.2891 46.8832 31.3486 47.0268 31.4545 47.1327C31.5604 47.2386 31.704 47.2981 31.8538 47.2981H31.9595V49.5881C31.9595 49.7379 32.019 49.8815 32.1249 49.9874C32.2308 50.0933 32.3744 50.1528 32.5242 50.1528C32.674 50.1528 32.8176 50.0933 32.9235 49.9874C33.0294 49.8815 33.0889 49.7379 33.0889 49.5881V47.2981H33.2036C33.3533 47.2981 33.497 47.2386 33.6029 47.1327C33.7088 47.0268 33.7683 46.8832 33.7683 46.7334C33.7683 46.5836 33.7088 46.44 33.6029 46.3341C33.497 46.2282 33.3533 46.1687 33.2036 46.1687Z" fill="#3D3C4C"/>
<path d="M71.2308 25.2991L74.6708 32.2095C74.8989 32.6668 75.0044 33.1754 74.9771 33.6857C74.9497 34.196 74.7905 34.6904 74.5148 35.1207C73.5997 36.5481 72.6051 37.923 71.536 39.239C71.3639 39.4504 71.269 39.7142 71.2672 39.9868C71.2654 40.2594 71.3567 40.5245 71.526 40.7381C71.7578 41.0262 71.889 41.3822 71.8996 41.7518C71.9103 42.1214 71.7996 42.4843 71.5847 42.7852C71.5761 42.7969 71.5674 42.8086 71.5584 42.8203C71.3697 43.0657 71.118 43.2553 70.8301 43.3691C70.5423 43.4828 70.229 43.5165 69.9235 43.4666C69.618 43.4166 69.3318 43.2849 69.0951 43.0853C68.8585 42.8857 68.6804 42.6258 68.5796 42.3331C68.3049 41.5283 68.2506 40.6647 68.4222 39.8318C68.5487 39.2036 68.7731 38.5993 69.0874 38.041L71.5045 33.6521C71.5364 33.5941 71.5501 33.5278 71.5437 33.4619C71.5373 33.396 71.5111 33.3336 71.4686 33.2829L67.4619 28.5029C67.4619 28.5029 67.9724 25.5189 71.2308 25.2991Z" fill="#FFDDCF"/>
<path d="M71.2313 25.2991C67.973 25.5189 67.4619 28.5021 67.4619 28.5021L69.5957 31.0475C69.8493 30.3908 69.9362 29.6815 69.8484 28.9831C69.8191 28.796 69.8279 28.6049 69.8742 28.4212C69.9205 28.2376 70.0033 28.0652 70.1177 27.9142C70.5977 27.3161 71.1304 26.7623 71.7095 26.2595L71.2313 25.2991Z" fill="#F7A59D"/>
<path d="M56.807 23.1177L53.4741 23.4791C53.3899 23.4882 53.3048 23.4756 53.2268 23.4425C53.1489 23.4094 53.0807 23.3569 53.0288 23.29C52.9769 23.2232 52.943 23.1441 52.9303 23.0604C52.9176 22.9767 52.9265 22.8911 52.9562 22.8118L55.8773 15.0228L54.935 12.7463C54.935 12.7463 51.3663 16.9907 48.633 23.3281C48.4677 23.7113 48.3956 24.1282 48.4225 24.5446C48.4494 24.961 48.5746 25.3652 48.7877 25.7239C49.0009 26.0827 49.2961 26.3858 49.649 26.6085C50.0019 26.8312 50.4025 26.9671 50.8181 27.0052C52.9043 27.1969 55.0036 27.1952 57.0895 27.0001L58.5165 24.9979L56.807 23.1177Z" fill="#FFDDCF"/>
<path d="M57.0897 27L58.5167 24.9979L56.8072 23.1177L55.936 23.2121L53.6152 27.146C54.7752 27.1605 55.9351 27.1117 57.0897 27Z" fill="#F7A59D"/>
<path d="M66.3564 39.0422C67.0152 39.72 67.6344 40.4353 68.2108 41.1844C69.3152 42.6082 69.9451 44.3427 70.0116 46.1434C70.0656 47.2917 70.0467 48.4422 69.9551 49.5881H54.4424C54.8989 47.7868 55.4947 46.0238 56.2243 44.3148C57.381 41.6556 57.8821 40.0512 57.8821 40.0512L66.3564 39.0422Z" fill="#9AB2D5"/>
<path d="M69.9557 49.5881C70.0473 48.4422 70.0661 47.2917 70.0121 46.1434C69.9457 44.3426 69.3158 42.608 68.2113 41.1842C67.6349 40.4351 67.0157 39.7199 66.3569 39.0422L57.8828 40.0511C57.8828 40.0511 59.4067 42.3523 64.1286 41.5758C64.1286 41.5758 65.6286 41.2769 66.8863 42.2776C67.2195 42.5615 67.4763 42.9242 67.6334 43.3327C68.0643 44.3537 69.108 47.2275 68.3523 49.5885L69.9557 49.5881Z" fill="#5B7A99"/>
<path d="M57.6155 34.2283C57.6155 34.2283 57.3332 36.5242 57.8824 40.0514C57.8824 40.0514 59.4494 41.1653 61.9906 41.1653C64.5318 41.1653 66.3566 39.0424 66.3566 39.0424L65.7885 38.2659C65.6036 38.0133 65.4847 37.7184 65.4426 37.4081C65.3967 37.1014 65.3914 36.7899 65.427 36.4817L65.6282 35.1938L57.6155 34.2283Z" fill="#FFDDCF"/>
<path d="M57.5859 34.55C57.9794 34.8596 61.0565 37.1417 65.4233 36.5069C65.4246 36.4985 65.4253 36.4894 65.4266 36.4812L65.6278 35.1934L57.6154 34.2283C57.6154 34.2283 57.6017 34.3394 57.5859 34.55Z" fill="#F7A59D"/>
<path d="M58.0513 17.5592C58.0513 17.5592 55.0398 17.2314 54.5377 14.4251C54.0357 11.6188 55.2488 9.19322 55.2488 9.19322C55.2488 9.19322 56.2622 7.16649 58.2178 6.98819C58.4448 6.96627 58.6654 6.90024 58.8672 6.79379C58.9465 6.75242 59.0401 6.70668 59.147 6.65896C60.2315 6.18451 61.443 6.0842 62.5907 6.37383C63.7385 6.66346 64.7573 7.32657 65.4868 8.25878C66.2583 9.23549 66.8393 10.3485 67.1996 11.5399C67.3793 12.144 67.5026 12.7636 67.5678 13.3905C67.749 15.0336 68.2573 19.9845 68.2573 23.8339H58.2186C58.2186 23.8339 58.0513 19.7342 58.0513 17.5592Z" fill="#DD6F55"/>
<path d="M68.2576 23.8335C68.2576 22.7347 68.216 21.5464 68.1525 20.3707C64.5438 19.9575 64.3376 14.3491 64.3376 14.3491L63.5894 14.2202L61.4407 19.3117L61.3467 23.8335H68.2576Z" fill="#B45441"/>
<path d="M62.5306 19.0408L61.8267 15.6369L57.981 10.3633C57.981 10.3633 56.3732 12.3278 54.4187 12.8696C54.4079 13.3909 54.448 13.9121 54.5386 14.4256C55.0406 17.2315 58.0522 17.5598 58.0522 17.5598C58.0522 19.7347 58.2195 23.8339 58.2195 23.8339H62.4775L62.5306 19.0408Z" fill="#B45441"/>
<path d="M64.9293 21.0303C65.0197 21.1339 65.1174 21.2308 65.2216 21.3204C65.7678 21.7887 66.4518 22.0661 67.1699 22.1103C67.9977 22.1701 69.9782 22.6062 71.2307 25.299C71.2307 25.299 69.203 26.5919 68.2574 28.2081C68.2574 28.2081 68.9406 31.2743 66.274 32.9713L65.6275 35.1934C65.6275 35.1934 60.2411 36.1675 57.6149 34.2282V32.2483C57.6149 32.2483 55.259 31.2118 55.6086 28.2352C55.6086 28.2352 55.918 26.4389 57.332 25.1374L56.8068 23.1173C56.8068 23.1173 57.9503 22.2843 59.3926 22.2279C60.5572 22.1612 61.7098 21.9577 62.8269 21.6218L64.9293 21.0303Z" fill="#FF6C86"/>
<path d="M57.7275 22.6195C58.425 23.1534 62.5275 25.9143 69.9307 23.408C69.1935 22.6619 68.2151 22.202 67.1703 22.1103C66.4522 22.0661 65.7682 21.7887 65.222 21.3204C65.1178 21.2308 65.02 21.1339 64.9297 21.0303L62.8273 21.6224C61.7104 21.9583 60.5578 22.1617 59.3934 22.2283C58.8192 22.2578 58.2549 22.3903 57.7275 22.6195Z" fill="#CB4461"/>
<path d="M51.5877 6.29026L49.5295 6.16677C49.4638 6.1628 49.3999 6.14481 49.3424 6.11413C49.285 6.08346 49.2355 6.04088 49.1977 5.98954L47.8593 4.17773C47.8187 4.12282 47.7649 4.07801 47.7023 4.04708C47.6398 4.01615 47.5704 4 47.4999 4C47.4294 4 47.36 4.01615 47.2974 4.04708C47.2349 4.07801 47.181 4.12282 47.1405 4.17773L45.8019 5.98954C45.764 6.04082 45.7145 6.08334 45.6571 6.11397C45.5997 6.1446 45.5357 6.16256 45.47 6.16651L43.4119 6.29026C43.3322 6.29504 43.2554 6.32042 43.1897 6.36367C43.124 6.40692 43.0719 6.46641 43.039 6.53574C43.0061 6.60507 42.9937 6.68163 43.003 6.75718C43.0124 6.83274 43.0432 6.90443 43.0921 6.96457L44.5841 8.79823C44.6243 8.84762 44.6523 8.90494 44.6662 8.96601C44.6801 9.02707 44.6795 9.09032 44.6644 9.15112L44.0849 11.4849C44.0655 11.5633 44.0701 11.6453 44.0984 11.7212C44.1266 11.7971 44.1772 11.8636 44.2441 11.9128C44.311 11.962 44.3914 11.9917 44.4756 11.9985C44.5599 12.0052 44.6443 11.9887 44.719 11.9509L47.2934 10.6465C47.357 10.6143 47.4278 10.5974 47.4998 10.5974C47.5718 10.5974 47.6427 10.6143 47.7063 10.6465L50.2806 11.9509C50.3552 11.9887 50.4397 12.0053 50.524 11.9985C50.6082 11.9918 50.6886 11.962 50.7555 11.9128C50.8225 11.8637 50.8731 11.7971 50.9013 11.7212C50.9296 11.6453 50.9342 11.5633 50.9147 11.4849L50.3352 9.15156C50.3201 9.09076 50.3194 9.02751 50.3333 8.96644C50.3472 8.90538 50.3753 8.84805 50.4155 8.79867L51.9075 6.96501C51.9566 6.90488 51.9875 6.83314 51.9969 6.75751C52.0064 6.68188 51.994 6.60523 51.9611 6.53581C51.9282 6.46639 51.876 6.40684 51.8102 6.36357C51.7444 6.3203 51.6675 6.29495 51.5877 6.29026Z" fill="#FFD967"/>
<path d="M63.8252 16.2913C63.8252 16.2913 63.7107 18.6804 64.7169 20.5493C65.0999 21.2579 65.225 22.0775 65.0708 22.8681C64.8623 23.9269 64.3552 25.2466 63.1313 25.8993C62.7577 26.1055 62.331 26.195 61.906 26.1565C61.4811 26.1179 61.0774 25.9529 60.747 25.6829C60.4892 25.4707 60.2925 25.1939 60.1769 24.8806C60.0614 24.5674 60.0312 24.2291 60.0894 23.9004C60.1461 23.5115 60.2881 23.1399 60.5053 22.8123L61.0795 21.9229C61.3493 21.5049 61.4811 21.0127 61.4563 20.5158L61.3376 18.1479L63.8252 16.2913Z" fill="#FFDDCF"/>
<path d="M63.8249 16.2913L61.3373 18.1483L61.456 20.5162C61.4591 20.5784 61.4598 20.6404 61.458 20.7023C61.4457 21.1363 61.3147 21.5586 61.0792 21.9234L60.505 22.8128C60.4573 22.8867 60.413 22.9627 60.372 23.0406L60.3655 23.0525C60.3249 23.1303 60.288 23.2098 60.255 23.2908L60.2512 23.2998C60.2177 23.3825 60.1886 23.4668 60.1638 23.5524L60.163 23.5551C60.1379 23.6421 60.1177 23.7304 60.1025 23.8196C61.5312 24.2872 63.0318 24.4964 64.5339 24.4374C64.6985 24.1221 64.8309 23.791 64.9292 23.4492C64.9312 23.4426 64.933 23.4358 64.9349 23.429C64.9518 23.3706 64.9678 23.3124 64.9829 23.2546C64.9885 23.2326 64.9935 23.2109 64.999 23.189C65.0096 23.1466 65.0203 23.1032 65.0299 23.0608C65.044 22.9957 65.0581 22.9314 65.0708 22.868C65.0738 22.853 65.0749 22.8379 65.0776 22.8228C65.1449 22.4557 65.1521 22.08 65.0989 21.7106C65.0414 21.3039 64.912 20.9106 64.7169 20.5491C63.7104 18.6804 63.8249 16.2913 63.8249 16.2913Z" fill="#F7A59D"/>
<path d="M58.6096 8.99258C58.6177 8.96598 58.6332 8.94223 58.6543 8.92414C58.6755 8.90604 58.7013 8.89433 58.7288 8.89039C58.7564 8.88645 58.7845 8.89044 58.8098 8.90189C58.8352 8.91333 58.8568 8.93177 58.872 8.95503C59.0704 9.2508 59.5214 9.73884 60.5379 10.3602C62.2617 11.4136 63.6981 12.7064 63.8414 14.7174V15.9246C63.8414 16.9507 62.8305 18.7219 62.8305 18.7219C62.7363 18.8334 62.6364 18.9398 62.531 19.0407C62.035 19.5216 61.4417 19.8908 60.7912 20.1235C60.5591 20.2041 60.3125 20.2343 60.0679 20.212C59.8232 20.1897 59.5861 20.1154 59.3725 19.9942C59.184 19.8888 59.0012 19.7735 58.825 19.6486C58.284 19.2581 57.8443 18.7439 57.5425 18.1489C57.2406 17.5539 57.0855 16.8953 57.0899 16.2282V12.614C57.0899 12.0489 57.2524 11.4956 57.5581 11.0202L57.9808 10.3627C58.2475 9.94783 58.4557 9.49807 58.5993 9.02618L58.6096 8.99258Z" fill="#FFDDCF"/>
<path d="M57.0898 16.2283C57.0904 16.5204 57.1207 16.8118 57.1802 17.0978C57.7659 17.3326 58.7545 17.5363 59.6892 16.8289C59.6892 16.8289 61.5337 18.3848 63.8166 16.2279C63.8322 16.1275 63.8404 16.0262 63.8412 15.9246V14.7177C63.8257 14.5118 63.7955 14.3073 63.7505 14.1057H57.0898V16.2283Z" fill="#F7A59D"/>
<path d="M62.7368 13.9358H59.76C59.736 14.4332 59.8492 14.9276 60.0874 15.3649C60.8271 16.5844 62.4957 16.2322 62.7303 14.781C62.7716 14.5009 62.7738 14.2165 62.7368 13.9358Z" fill="#66667F"/>
<path d="M56.9722 13.9356H59.5251C59.5492 14.4329 59.436 14.9274 59.1979 15.3647C58.458 16.5842 56.7896 16.2319 56.5549 14.7808C56.534 14.6483 56.5232 14.5145 56.5225 14.3804C56.5227 14.3216 56.5346 14.2635 56.5574 14.2094C56.5801 14.1552 56.6133 14.106 56.6551 14.0647C56.6969 14.0234 56.7464 13.9907 56.8008 13.9686C56.8552 13.9464 56.9135 13.9352 56.9722 13.9356Z" fill="#66667F"/>
<path d="M60.4657 13.9358H58.9131V14.5047H60.4657V13.9358Z" fill="#5D5D72"/>
<path d="M62.1119 46.2151C61.9973 46.0161 61.8175 45.8627 61.6028 45.7809C61.3191 45.675 61.0577 45.5169 60.832 45.315C60.8089 45.2937 60.7791 45.2812 60.7477 45.2797C60.7163 45.2782 60.6854 45.2878 60.6604 45.3068C60.6353 45.3257 60.6178 45.3529 60.6108 45.3835C60.6038 45.4142 60.6078 45.4463 60.6221 45.4742C60.7364 45.6919 60.8934 45.8842 61.0837 46.0398C61.1653 46.1069 61.2372 46.1851 61.2972 46.272C61.3957 46.4203 61.4602 46.5886 61.4859 46.7647C61.5723 47.2851 61.7052 48.6475 60.9509 49.5883H63.0005C62.9463 47.9001 62.4205 46.7506 62.1119 46.2151Z" fill="#5B7A99"/>
<path d="M61.5993 32.5956C61.2978 32.4651 60.9608 32.4413 60.644 32.5284C59.0673 32.9422 57.6201 32.2483 57.6201 32.2483V34.2283C60.246 36.1676 65.6329 35.1935 65.6329 35.1935L66.2793 32.9714C64.7219 33.3812 63.0714 33.2486 61.5993 32.5956Z" fill="#D85678"/>
<path d="M71.7371 25.0473C70.9041 23.2658 69.7629 22.3853 68.7889 21.952C68.6726 18.5128 68.2925 14.8025 68.1302 13.3312C68.0615 12.6696 67.9311 12.0159 67.7405 11.3786C67.36 10.1193 66.7457 8.94293 65.9298 7.911C65.1236 6.8788 63.9963 6.14485 62.7262 5.82523C61.4561 5.50562 60.1157 5.6186 58.917 6.14629C58.7367 6.22617 58.561 6.316 58.3907 6.41537C56.0032 6.48102 54.7953 8.84079 54.7441 8.94342C54.1348 10.2818 53.8306 11.7388 53.8533 13.2092C51.5645 16.2748 49.6388 19.5953 48.1147 23.1043C47.9141 23.5695 47.8265 24.0757 47.8592 24.5813C47.892 25.0869 48.044 25.5776 48.303 26.0131C48.562 26.4486 48.9205 26.8165 49.3491 27.0867C49.7777 27.3569 50.2642 27.5217 50.7688 27.5676C51.8488 27.6638 52.9322 27.7126 53.9896 27.7126H54.0297C54.1795 27.7126 54.3231 27.6531 54.429 27.5472C54.5349 27.4413 54.5944 27.2976 54.5944 27.1478C54.5944 26.9981 54.5349 26.8544 54.429 26.7485C54.3231 26.6426 54.1795 26.5831 54.0297 26.5831C54.0167 26.5823 54.0036 26.5823 53.9905 26.5831C52.9664 26.5831 51.9166 26.5358 50.8705 26.442C50.5439 26.4119 50.229 26.3048 49.9517 26.1297C49.6744 25.9545 49.4426 25.7161 49.2751 25.4341C49.1076 25.1521 49.0093 24.8344 48.9882 24.5071C48.9671 24.1798 49.0238 23.8521 49.1536 23.551C50.4853 20.4894 52.128 17.5728 54.0557 14.847C54.5028 16.6135 55.8468 17.4367 56.791 17.8046C56.9564 18.2895 57.1991 18.7443 57.5097 19.1516C57.5298 20.2024 57.5617 21.2255 57.5905 22.0658C57.249 22.2037 56.9208 22.3725 56.61 22.5701L53.5249 22.9059L55.2403 18.3318C55.2916 18.1919 55.2855 18.0374 55.2233 17.9019C55.1611 17.7665 55.048 17.6611 54.9085 17.6088C54.7689 17.5565 54.6144 17.5614 54.4785 17.6225C54.3426 17.6836 54.2363 17.796 54.1829 17.9351L52.4282 22.613C52.3681 22.7733 52.3477 22.9457 52.3687 23.1156C52.3897 23.2855 52.4515 23.4478 52.5488 23.5887C52.6461 23.7295 52.7761 23.8447 52.9276 23.9244C53.0791 24.0041 53.2477 24.0459 53.4189 24.0463C53.4579 24.0463 53.4968 24.0442 53.5356 24.04L56.3839 23.7311L56.7042 24.9631C55.8741 25.8515 55.3029 26.9499 55.0524 28.1396C55.0507 28.1495 55.0492 28.1594 55.048 28.1695C54.7677 30.5561 56.0887 32.0042 57.0505 32.5884V34.1965C57.0155 34.5112 56.8054 36.7106 57.3039 40.0039C57.1657 40.4218 56.6586 41.9006 55.7064 44.09C54.9616 45.8293 54.3472 47.6217 53.8684 49.4522C53.8322 49.5975 53.8552 49.7513 53.9323 49.8796C54.0095 50.008 54.1345 50.1005 54.2798 50.1367C54.4252 50.1729 54.5789 50.1499 54.7073 50.0727C54.8357 49.9955 54.9281 49.8705 54.9643 49.7252C55.4305 47.9562 56.0246 46.2235 56.742 44.5406C57.4761 42.8512 57.9472 41.591 58.1981 40.8797C59.3809 41.4476 60.6775 41.7385 61.9895 41.7301C64.026 41.7301 65.6159 40.5267 66.3472 39.8525C66.6734 40.2071 67.1788 40.781 67.7656 41.5325C67.7848 41.5569 67.8031 41.5819 67.8221 41.6066C67.8683 41.9173 67.9434 42.223 68.0466 42.5197C68.2133 42.996 68.5327 43.404 68.9551 43.6802C69.2478 44.4782 69.414 45.3172 69.4475 46.1666C69.5035 47.2855 69.4772 48.4071 69.3688 49.5222C69.3601 49.5959 69.3659 49.6705 69.386 49.7419C69.4061 49.8133 69.44 49.88 69.4859 49.9383C69.5318 49.9966 69.5887 50.0453 69.6534 50.0815C69.7181 50.1178 69.7893 50.141 69.863 50.1497C69.8853 50.1525 69.9079 50.1539 69.9304 50.1538C70.0685 50.1537 70.2018 50.1029 70.305 50.0111C70.4082 49.9194 70.4742 49.793 70.4905 49.6559C70.6061 48.4815 70.6348 47.3001 70.5763 46.1214C70.5483 45.4228 70.4416 44.7295 70.2584 44.0547C70.5996 44.0502 70.9351 43.9672 71.2389 43.812C71.5428 43.6568 71.8068 43.4337 72.0104 43.1599L72.0409 43.1189C72.3285 42.7182 72.4771 42.2345 72.4642 41.7415C72.4513 41.2484 72.2776 40.7732 71.9695 40.3881C71.8805 40.2751 71.8325 40.1352 71.8333 39.9914C71.8341 39.8476 71.8837 39.7083 71.974 39.5964C73.0565 38.2635 74.0637 36.8712 74.9908 35.4259C75.3178 34.9126 75.5067 34.3237 75.5393 33.716C75.5719 33.1084 75.447 32.5026 75.1768 31.9573L71.7371 25.0473ZM55.0945 14.3287C54.6336 11.7517 55.7439 9.47057 55.7541 9.4501C55.7642 9.42963 56.7423 7.54352 58.4959 7.54352C58.5115 7.54352 58.5275 7.54352 58.5431 7.54352C58.6611 7.54716 58.7771 7.51249 58.8736 7.44469C59.0344 7.34234 59.2031 7.25292 59.3781 7.1773C60.3476 6.75229 61.4312 6.66259 62.4575 6.92238C63.4838 7.18218 64.3942 7.77665 65.0447 8.6118C65.7725 9.533 66.3203 10.5829 66.6595 11.7068C66.8297 12.2772 66.9461 12.8623 67.0072 13.4544C67.1625 14.8573 67.5165 18.3136 67.6455 21.6013C67.5018 21.576 67.3569 21.5579 67.2114 21.5471C66.6156 21.5129 66.0475 21.284 65.5945 20.8956C65.5147 20.825 65.4546 20.7658 65.4153 20.7247C65.3572 20.5731 65.29 20.425 65.214 20.2814C64.3023 18.5882 64.3872 16.3651 64.3891 16.3182V16.3174C64.3994 16.187 64.4062 16.0562 64.4062 15.9246V14.7177C64.4062 14.7036 64.4062 14.6907 64.4048 14.6773C64.4006 14.6182 64.3945 14.5593 64.3881 14.5004H64.8028C64.9525 14.5004 65.0962 14.4409 65.2021 14.335C65.308 14.2291 65.3675 14.0855 65.3675 13.9357C65.3675 13.7859 65.308 13.6423 65.2021 13.5364C65.0962 13.4305 64.9525 13.371 64.8028 13.371H57.655V12.6142C57.6547 12.1572 57.7861 11.7099 58.0334 11.3256L58.4569 10.668C58.6261 10.4047 58.7742 10.1283 58.8998 9.84159C59.3111 10.2216 59.7617 10.5568 60.2439 10.8417C61.2004 11.4269 61.8719 11.9705 62.358 12.5529C62.454 12.6679 62.5917 12.7401 62.7408 12.7535C62.89 12.767 63.0384 12.7207 63.1534 12.6247C63.2684 12.5288 63.3406 12.3911 63.3541 12.2419C63.3675 12.0928 63.3212 11.9444 63.2253 11.8294C62.6579 11.1493 61.8975 10.5294 60.8323 9.87843C59.6224 9.13923 59.3315 8.64342 59.2777 8.53076C59.2742 8.40425 59.2244 8.28342 59.1377 8.19121C59.051 8.099 58.9335 8.04184 58.8074 8.03057C58.6674 8.01879 58.5277 8.05655 58.4127 8.13726C58.2977 8.21796 58.2146 8.3365 58.1781 8.47218L58.0595 8.86225C57.9309 9.28432 57.7447 9.68665 57.5062 10.0579L57.0835 10.7153C56.719 11.2815 56.5253 11.9407 56.5256 12.6142V13.3727C56.3916 13.3779 56.2638 13.4307 56.1652 13.5217C56.0666 13.6127 56.0038 13.7359 55.9879 13.8691C55.9451 14.2018 55.9486 14.5388 55.9982 14.8706C56.0627 15.292 56.2456 15.6864 56.5256 16.0079V16.2283C56.5256 16.2943 56.5288 16.36 56.5314 16.4259C56.153 16.2028 55.8282 15.8994 55.5799 15.537C55.3316 15.1746 55.1659 14.7622 55.0945 14.3287ZM57.1133 14.6909C57.1036 14.6302 57.0965 14.5665 57.0924 14.5003H58.9228C58.8883 14.7016 58.8183 14.8951 58.7159 15.0719C58.5028 15.4234 58.1697 15.5926 57.8239 15.5259C57.5363 15.4699 57.1987 15.2211 57.113 14.6909H57.1133ZM57.679 16.6447C57.7781 16.6611 57.8784 16.6698 57.9789 16.6706C58.3143 16.6656 58.643 16.5754 58.9341 16.4086C59.2253 16.2418 59.4692 16.0038 59.6432 15.7169C59.8172 16.0038 60.0613 16.2418 60.3524 16.4086C60.6436 16.5754 60.9723 16.6655 61.3078 16.6706C61.4324 16.6705 61.5567 16.6584 61.679 16.6344C62.4923 16.4758 63.1137 15.8083 63.2771 14.927V15.9246C63.279 16.4293 63.1794 16.9291 62.9841 17.3945C62.7888 17.8599 62.5019 18.2812 62.1405 18.6334C61.7024 19.0585 61.1784 19.385 60.6038 19.591C60.4472 19.6448 60.281 19.6647 60.1162 19.6492C59.9514 19.6337 59.7917 19.5833 59.648 19.5012C59.4773 19.4057 59.3117 19.3012 59.152 19.1882C58.7412 18.8919 58.3976 18.5122 58.1437 18.0739C57.8898 17.6355 57.7313 17.1485 57.6787 16.6447H57.679ZM62.1941 14.5003C62.1901 14.5662 62.1831 14.6297 62.1732 14.6909C62.0875 15.2211 61.7497 15.4699 61.4628 15.5259C61.1175 15.5928 60.784 15.4236 60.5706 15.072C60.4683 14.8952 60.3983 14.7016 60.3638 14.5003H62.1941ZM60.6498 23.9746C60.6951 23.6683 60.8079 23.3759 60.9801 23.1185L61.5543 22.2291C61.8892 21.7121 62.0523 21.1025 62.0202 20.4873L62.0039 20.1626C62.3339 19.9569 62.6415 19.7173 62.9216 19.4477C63.1334 19.2435 63.3257 19.0201 63.4959 18.7802C63.6408 19.4892 63.8842 20.1745 64.219 20.8161C64.5395 21.4096 64.6445 22.0959 64.5162 22.7581C64.3394 23.6561 63.9091 24.8433 62.8644 25.4002C62.5905 25.5523 62.2775 25.6194 61.9653 25.5929C61.6531 25.5665 61.3559 25.4477 61.1114 25.2517C60.9268 25.1 60.7865 24.9013 60.7052 24.6766C60.624 24.4518 60.6048 24.2093 60.6498 23.9746ZM58.663 20.2193C58.8042 20.3129 58.948 20.4037 59.0966 20.4876C59.4427 20.682 59.8329 20.7844 60.2299 20.785C60.4552 20.7844 60.6792 20.7501 60.8943 20.6831C60.8866 20.9827 60.8041 21.2755 60.6543 21.5351C60.2298 21.6026 59.8017 21.6459 59.3723 21.665C59.1496 21.6743 58.9279 21.6992 58.7087 21.7397C58.6924 21.2714 58.6766 20.7566 58.6624 20.2192L58.663 20.2193ZM56.1681 28.32C56.1985 28.1676 56.5224 26.6712 57.6888 25.5791L58.3375 25.1502C58.4624 25.0676 58.5494 24.9388 58.5794 24.792C58.6093 24.6452 58.5797 24.4926 58.4971 24.3677C58.4145 24.2427 58.2857 24.1557 58.1389 24.1258C57.9922 24.0958 57.8395 24.1254 57.7146 24.208L57.6807 24.2304L57.4591 23.3782C58.0582 23.0372 58.7271 22.837 59.4151 22.7927C59.5661 22.7868 59.722 22.7765 59.8802 22.7636C59.7 23.0937 59.5812 23.4537 59.5295 23.8262C59.4586 24.2487 59.5 24.6823 59.6495 25.0837C59.799 25.4851 60.0514 25.8402 60.3814 26.1133C60.8592 26.5128 61.4633 26.7298 62.0861 26.7254C62.5433 26.7253 62.9935 26.6127 63.3969 26.3976C64.5331 25.7918 65.3028 24.6091 65.6248 22.9772C65.6686 22.7538 65.6931 22.5271 65.6981 22.2996C66.1478 22.5124 66.6334 22.6392 67.1298 22.6734C67.7892 22.7211 69.3772 23.0594 70.505 25.1136C69.707 25.6843 68.9828 26.3518 68.349 27.1007C68.2155 26.866 68.0583 26.6455 67.88 26.4427C67.7793 26.3318 67.6387 26.2655 67.4891 26.2583C67.3395 26.2511 67.1931 26.3036 67.0823 26.4043C66.9714 26.505 66.9051 26.6457 66.8979 26.7953C66.8907 26.9449 66.9432 27.0912 67.0439 27.2021C67.3253 27.5537 67.5511 27.9464 67.7137 28.3663C67.7761 28.6981 68.1302 31.0398 66.066 32.4307C65.3262 32.544 64.5796 32.6074 63.8313 32.6204C63.7572 32.6211 63.6839 32.6363 63.6156 32.6653C63.5473 32.6942 63.4854 32.7364 63.4335 32.7893C63.3815 32.8421 63.3404 32.9048 63.3126 32.9735C63.2848 33.0423 63.2709 33.1158 63.2715 33.19C63.2721 33.2641 63.2874 33.3375 63.3164 33.4057C63.3453 33.474 63.3875 33.5359 63.4403 33.5879C63.4932 33.6399 63.5558 33.6809 63.6246 33.7087C63.6934 33.7365 63.7669 33.7505 63.8411 33.7498H63.8512C64.4039 33.7401 64.9524 33.703 65.4909 33.6442L65.1865 34.6906C64.0389 34.8517 60.2779 35.2508 58.1802 33.9302V33.019C58.5019 33.1103 58.9157 33.2166 59.4093 33.3208C59.4823 33.3372 59.5578 33.339 59.6315 33.326C59.7052 33.313 59.7756 33.2855 59.8386 33.245C59.9015 33.2046 59.9558 33.152 59.9983 33.0904C60.0408 33.0288 60.0706 32.9593 60.086 32.8861C60.1014 32.8128 60.1021 32.7373 60.088 32.6638C60.0739 32.5903 60.0454 32.5203 60.0041 32.4579C59.9627 32.3955 59.9094 32.342 59.8472 32.3004C59.785 32.2588 59.7151 32.23 59.6416 32.2157C59.0278 32.0914 58.4227 31.9278 57.8299 31.7256C57.667 31.6469 55.8943 30.735 56.1681 28.32ZM61.9901 40.6003C60.7378 40.6119 59.503 40.305 58.4018 39.7085C58.1746 38.2105 58.0801 36.6954 58.1195 35.1808C59.4725 35.8271 61.1637 36.0047 62.6089 36.0047C63.3919 36.003 64.1742 35.9551 64.9516 35.8614L64.8684 36.3942C64.8236 36.7563 64.8284 37.1227 64.8825 37.4835C64.9375 37.8869 65.0922 38.2702 65.3325 38.5988L65.6162 38.9866C65.0292 39.5333 63.6666 40.6003 61.9901 40.6003ZM74.0402 34.815C73.1365 36.2241 72.1546 37.5815 71.0992 38.8809C70.8475 39.1928 70.709 39.5809 70.7061 39.9817C70.7033 40.3825 70.8364 40.7724 71.0837 41.0879C71.239 41.2791 71.3276 41.5158 71.3358 41.762C71.344 42.0082 71.2714 42.2503 71.1292 42.4514L71.109 42.4785C70.9866 42.6427 70.8214 42.77 70.6314 42.8463C70.4414 42.9227 70.2341 42.9453 70.0321 42.9115C69.8233 42.8806 69.627 42.7927 69.4649 42.6576C69.3027 42.5225 69.1809 42.3453 69.1129 42.1454C68.8716 41.4345 68.8247 40.6719 68.9772 39.9367C69.0927 39.3669 69.2969 38.8187 69.5824 38.3122L71.9995 33.9233C72.0872 33.7658 72.1247 33.5854 72.1073 33.406C72.0898 33.2266 72.0181 33.0568 71.9017 32.9191L70.1151 30.7874C70.0678 30.7294 70.0095 30.6814 69.9436 30.6461C69.8776 30.6109 69.8053 30.5891 69.7308 30.582C69.6563 30.5749 69.5812 30.5827 69.5098 30.6049C69.4383 30.6271 69.372 30.6633 69.3147 30.7114C69.2574 30.7594 69.2101 30.8184 69.1758 30.8848C69.1414 30.9513 69.1206 31.0239 69.1146 31.0984C69.1085 31.173 69.1173 31.248 69.1405 31.3191C69.1637 31.3903 69.2007 31.4561 69.2496 31.5127L70.9321 33.5201L68.5931 37.7676C68.2503 38.3779 68.0056 39.0382 67.868 39.7246C67.8602 39.7651 67.8554 39.8049 67.8487 39.8453C67.2933 39.1923 66.8992 38.7864 66.7873 38.6735L66.2445 37.9318C66.1152 37.755 66.032 37.5488 66.0025 37.3318C65.9643 37.0791 65.9584 36.8226 65.9851 36.5684L66.1808 35.316L66.7596 33.3267C68.8208 31.8945 69.0467 29.5627 68.8533 28.3185C69.4519 27.3939 70.4244 26.5847 71.0193 26.1393L74.1662 32.4603C74.3496 32.8305 74.4344 33.2417 74.4123 33.6542C74.3903 34.0667 74.2621 34.4665 74.0402 34.815Z" fill="#3D3C4C"/>
<path d="M50.8153 9.06474L52.92 6.41974C52.9625 6.36629 52.9892 6.30257 52.9974 6.23542C53.0055 6.16827 52.9947 6.10023 52.9661 6.03861C52.9375 5.97699 52.8923 5.92412 52.8352 5.88568C52.7781 5.84723 52.7113 5.82467 52.642 5.82041L49.6011 5.63387L47.8125 3.15801C47.7772 3.1092 47.7304 3.06936 47.676 3.04186C47.6217 3.01436 47.5613 3 47.5 3C47.4387 3 47.3783 3.01436 47.324 3.04186C47.2696 3.06936 47.2228 3.1092 47.1875 3.15801L45.3989 5.63387L42.358 5.82041C42.2887 5.82467 42.2219 5.84723 42.1648 5.88568C42.1077 5.92412 42.0625 5.97699 42.0339 6.03861C42.0053 6.10023 41.9945 6.16827 42.0026 6.23542C42.0108 6.30257 42.0375 6.36629 42.08 6.41974L44.1847 9.06474L43.3401 12.5422C43.3232 12.6119 43.3272 12.6848 43.3518 12.7522C43.3763 12.8197 43.4203 12.8788 43.4785 12.9225C43.5367 12.9662 43.6065 12.9927 43.6798 12.9987C43.753 13.0047 43.8264 12.99 43.8913 12.9564L47.5 11.0864L51.1086 12.9564C51.1735 12.99 51.2469 13.0047 51.3201 12.9987C51.3934 12.9927 51.4632 12.9662 51.5214 12.9225C51.5796 12.8788 51.6236 12.8197 51.6481 12.7522C51.6727 12.6848 51.6768 12.6119 51.6598 12.5422L50.8153 9.06474ZM47.6794 10.3367C47.6242 10.3081 47.5626 10.2931 47.5 10.2931C47.4374 10.2931 47.3758 10.3081 47.3206 10.3367L44.2781 11.9127L44.9707 9.06297C44.9838 9.00894 44.9843 8.95272 44.9722 8.89846C44.9602 8.84419 44.9358 8.79324 44.9008 8.74935L43.1258 6.51911L45.6297 6.36541C45.6868 6.36191 45.7424 6.34597 45.7923 6.31875C45.8422 6.29154 45.8852 6.25375 45.9182 6.20818L47.5 4.01868L49.0816 6.20818C49.1145 6.25375 49.1575 6.29154 49.2074 6.31875C49.2573 6.34597 49.3129 6.36191 49.37 6.36541L51.8742 6.51911L50.0997 8.74945C50.0648 8.79334 50.0404 8.84428 50.0283 8.89855C50.0162 8.95282 50.0168 9.00903 50.0299 9.06307L50.7221 11.9131L47.6794 10.3367Z" fill="#3D3C4C"/>
<path d="M61.4093 45.1754C61.3008 45.0745 61.1571 45.0203 61.0091 45.0244C60.861 45.0285 60.7205 45.0906 60.6178 45.1973C60.5151 45.304 60.4584 45.4468 60.46 45.5948C60.4616 45.7429 60.5212 45.8845 60.6262 45.989C60.6411 46.0031 62.13 47.4726 62.1986 49.6062C62.2033 49.7529 62.2648 49.8919 62.3702 49.994C62.4756 50.096 62.6166 50.1531 62.7633 50.153H62.7817C62.8558 50.1506 62.9287 50.1337 62.9963 50.1031C63.0638 50.0726 63.1247 50.029 63.1755 49.9749C63.2262 49.9208 63.2658 49.8573 63.292 49.7879C63.3181 49.7185 63.3304 49.6446 63.328 49.5705C63.2437 46.9649 61.4841 45.2471 61.4093 45.1754Z" fill="#3D3C4C"/>
<path d="M60.4661 36.7854C60.3163 36.7854 60.1727 36.8449 60.0668 36.9508C59.9609 37.0567 59.9014 37.2003 59.9014 37.3501V37.6966C59.9014 37.8463 59.9609 37.99 60.0668 38.0959C60.1727 38.2018 60.3163 38.2613 60.4661 38.2613C60.6158 38.2613 60.7595 38.2018 60.8654 38.0959C60.9713 37.99 61.0308 37.8463 61.0308 37.6966V37.3501C61.0308 37.2003 60.9713 37.0567 60.8654 36.9508C60.7595 36.8449 60.6158 36.7854 60.4661 36.7854Z" fill="#3D3C4C"/>
</svg>
