<svg width="54" height="54" viewBox="0 0 54 54" fill="none" xmlns="http://www.w3.org/2000/svg">
<path d="M44.6879 35.0678C44.6882 34.663 44.575 34.2662 44.3611 33.9226L42.2877 30.5802C42.0296 30.0628 41.8951 29.4927 41.8948 28.9145V18.621C41.8948 15.411 40.6196 12.3324 38.3498 10.0626C36.0799 7.79276 33.0014 6.51758 29.7914 6.51758H24.2051C20.9951 6.51758 17.9166 7.79276 15.6467 10.0626C13.3769 12.3324 12.1017 15.411 12.1017 18.621V28.9145C12.1014 29.4927 11.9669 30.0628 11.7088 30.5802L9.63539 33.9226C9.42148 34.2662 9.30826 34.663 9.30859 35.0678C9.30847 35.3533 9.36462 35.636 9.47383 35.8998C9.58304 36.1636 9.74317 36.4034 9.94506 36.6053C10.147 36.8071 10.3867 36.9673 10.6505 37.0765C10.9143 37.1857 11.197 37.2418 11.4826 37.2417H42.5139C42.7995 37.2418 43.0822 37.1857 43.346 37.0765C43.6098 36.9673 43.8495 36.8071 44.0514 36.6053C44.2533 36.4034 44.4135 36.1636 44.5227 35.8998C44.6319 35.636 44.688 35.3533 44.6879 35.0678Z" fill="#88B337"/>
<path d="M29.7922 6.51724L34.4473 0H19.5508L24.206 6.51724V8.37931H29.7922V6.51724Z" fill="#88B337"/>
<path d="M44.3641 33.9218L42.2907 30.5793C42.0326 30.062 41.8981 29.4919 41.8978 28.9137V18.6202C41.8986 15.9364 41.0027 13.3293 39.3524 11.2129C36.8702 24.8712 28.1185 32.7654 19.8975 37.2409H42.5216C42.909 37.2411 43.2894 37.1377 43.6235 36.9414C43.9575 36.7451 44.233 36.4631 44.4213 36.1246C44.6097 35.7861 44.7042 35.4033 44.695 35.016C44.6857 34.6287 44.5731 34.2509 44.3688 33.9218H44.3641Z" fill="#6B962A"/>
<path d="M31.6541 20.4827V19.8896C31.6534 19.0594 31.3232 18.2635 30.7362 17.6764C30.1492 17.0894 29.3532 16.7593 28.523 16.7586H27.93V14.8965H26.0679V16.7586H25.4748C24.7417 16.759 24.0319 17.0167 23.4693 17.4868C22.9067 17.9569 22.5269 18.6094 22.396 19.3308C22.2652 20.0522 22.3916 20.7966 22.7533 21.4343C23.115 22.072 23.689 22.5626 24.3753 22.8205L26.0679 23.4555V26.9999H25.4748C25.1383 26.9997 24.8157 26.8659 24.5778 26.628C24.3398 26.3901 24.2061 26.0674 24.2058 25.7309V25.1379H22.3438V25.7309C22.3445 26.5611 22.6746 27.3571 23.2616 27.9441C23.8487 28.5311 24.6446 28.8613 25.4748 28.862H28.523C29.2562 28.8615 29.9659 28.6038 30.5285 28.1338C31.0911 27.6637 31.471 27.0111 31.6018 26.2897C31.7327 25.5684 31.6062 24.824 31.2445 24.1863C30.8828 23.5485 30.3088 23.058 29.6226 22.8L27.93 22.1651V18.6206H28.523C28.8595 18.6209 29.1821 18.7546 29.4201 18.9926C29.658 19.2305 29.7918 19.5531 29.792 19.8896V20.4827H31.6541ZM28.969 24.5439C29.2477 24.6479 29.4809 24.8466 29.6279 25.1051C29.7749 25.3637 29.8264 25.6658 29.7732 25.9584C29.7201 26.2511 29.5657 26.5157 29.3372 26.7061C29.1087 26.8965 28.8205 27.0005 28.523 26.9999H27.93V24.1538L28.969 24.5439ZM26.0679 21.4668L25.0289 21.0767C24.7502 20.9727 24.517 20.774 24.3699 20.5154C24.2229 20.2568 24.1715 19.9548 24.2246 19.6621C24.2778 19.3695 24.4321 19.1048 24.6606 18.9144C24.8892 18.724 25.1774 18.62 25.4748 18.6206H26.0679V21.4668Z" fill="white"/>
<path d="M45.6216 9.31058C45.4663 8.37919 45.0238 7.51959 44.3561 6.8519C43.6884 6.18421 42.8289 5.74179 41.8975 5.58644C42.8289 5.4311 43.6884 4.98867 44.3561 4.32098C45.0238 3.65329 45.4663 2.7937 45.6216 1.8623C45.7769 2.7937 46.2194 3.65329 46.8871 4.32098C47.5548 4.98867 48.4143 5.4311 49.3457 5.58644C48.4143 5.74179 47.5548 6.18421 46.8871 6.8519C46.2194 7.51959 45.7769 8.37919 45.6216 9.31058Z" fill="#FDB62F"/>
<path d="M3.72414 27.9307C3.5688 26.9993 3.12637 26.1397 2.45868 25.472C1.79099 24.8043 0.931391 24.3619 0 24.2066C0.931391 24.0512 1.79099 23.6088 2.45868 22.9411C3.12637 22.2734 3.5688 21.4138 3.72414 20.4824C3.87948 21.4138 4.32191 22.2734 4.9896 22.9411C5.65729 23.6088 6.51689 24.0512 7.44828 24.2066C6.51689 24.3619 5.65729 24.8043 4.9896 25.472C4.32191 26.1397 3.87948 26.9993 3.72414 27.9307Z" fill="#FDB62F"/>
<path d="M53.6017 32.4816C53.2331 31.8673 52.6431 31.4178 51.953 31.2256C51.263 31.0333 50.5255 31.113 49.8924 31.4481L36.6615 37.092C36.4303 37.1901 36.1818 37.2408 35.9306 37.241H19.5528C19.059 37.241 18.5853 37.0448 18.2361 36.6956C17.8869 36.3464 17.6907 35.8728 17.6907 35.3789C17.6907 34.8851 17.8869 34.4115 18.2361 34.0623C18.5853 33.7131 19.059 33.5169 19.5528 33.5169H27.0011C28.4826 33.5169 29.9035 32.9283 30.9511 31.8807C31.9987 30.8331 32.5873 29.4122 32.5873 27.9307H17.0986C15.8309 27.9308 14.5795 28.2159 13.4368 28.7649C12.2942 29.314 11.2897 30.113 10.4976 31.1027L4.65625 38.172L11.2312 50.2178L36.5274 44.1363C37.6208 43.8853 38.6786 43.4987 39.6762 42.9855L52.6613 36.31C53.2912 35.9248 53.7435 35.3064 53.9196 34.5893C54.0957 33.8723 53.9814 33.1147 53.6017 32.4816Z" fill="#FEC9A3"/>
<path d="M9.13574 46.3794L11.2306 50.2181L36.5268 44.1366C37.6202 43.8856 38.678 43.499 39.6755 42.9858L46.717 39.366C35.0073 42.9449 19.4591 45.1821 9.13574 46.3794Z" fill="#F7BB8F"/>
<path d="M0 37.2413V54H12.1034L14.8966 51.2069L3.72414 34.4482L0 37.2413Z" fill="#4398D1"/>
<path d="M0 54H12.1034L14.8966 51.2069L12.8483 48.1345C8.70669 49.8432 4.40167 51.125 0 51.9601V54Z" fill="#3E8CC7"/>
<path d="M8.37769 51.2066C9.40609 51.2066 10.2398 50.3729 10.2398 49.3445C10.2398 48.3161 9.40609 47.4824 8.37769 47.4824C7.3493 47.4824 6.51562 48.3161 6.51562 49.3445C6.51562 50.3729 7.3493 51.2066 8.37769 51.2066Z" fill="#D9D9D9"/>
</svg>
