<svg width="54" height="54" viewBox="0 0 54 54" fill="none" xmlns="http://www.w3.org/2000/svg">
<g clip-path="url(#clip0_1001_3460)">
<path d="M35.7093 24.8034C34.0813 25.5078 32.7866 25.6557 32.7866 25.6557C32.213 25.7648 31.2055 25.8752 30.6284 25.9344H30.6229L30.5475 25.9421L30.4141 25.9553L30.3761 25.9592L30.2973 25.9668L30.2095 25.9754H30.1954H30.1869C30.1869 25.9754 30.1754 25.9698 30.152 25.9604L30.1392 25.9558L30.1174 25.9477C29.947 25.8867 29.4731 25.7533 28.6684 25.8113C27.7692 25.8765 26.8248 26.312 26.6023 26.4199C22.5405 26.6794 18.672 25.5372 16.597 23.3842C14.4674 21.1775 15.6326 18.3255 15.6326 18.3255C15.2707 17.783 15.3308 17.4216 15.7527 17.2809C16.0076 17.1951 16.2455 17.0653 16.4555 16.8974C16.2548 15.3307 16.476 13.4027 16.476 13.4027C16.476 13.4027 16.6434 12.1088 17.1621 10.8521C20.1453 11.4704 22.9666 11.014 23.1891 10.9756H23.1946H23.2032C22.4403 11.3166 22.0994 12.0794 22.0994 12.0794C26.4579 12.8039 29.0085 11.3835 29.0085 11.3835C29.0085 11.3835 28.7307 13.1479 28.9233 14.4264C29.0806 15.4786 29.733 16.6319 30.6161 18.5066C30.6161 18.5066 30.7167 16.8999 32.6447 16.94C34.5727 16.98 34.1107 19.7314 33.5482 20.4547C32.9856 21.1779 32.1823 21.7 31.2289 21.4592C31.2281 21.4587 32.6327 23.879 35.7093 24.8034Z" fill="#FFD7B0"/>
<path d="M24.5432 32.2101C23.5587 32.338 22.4379 32.4032 21.5174 32.2318C19.3583 31.83 16.4245 30.655 15.3075 30.1176C14.3226 29.6449 13.9519 29.2874 14.2148 28.8322C14.2549 28.7647 14.3017 28.7015 14.3546 28.6434C14.846 28.092 16.3201 28.2334 18.1518 28.4124C19.9119 28.5829 21.4458 28.6733 22.6928 28.2036C22.6996 28.2462 22.7072 28.2927 22.7158 28.3396C22.7209 28.3681 22.726 28.3971 22.732 28.4248C22.7349 28.441 22.7384 28.4568 22.7413 28.4725C22.757 28.5527 22.775 28.6365 22.7955 28.724L22.8206 28.8301C22.8483 28.9426 22.8798 29.0602 22.9161 29.1821C22.9237 29.2085 22.931 29.235 22.9395 29.2618C23.0439 29.6042 23.1702 29.9396 23.3175 30.2659L23.3371 30.3085C23.3797 30.4048 23.4283 30.5033 23.479 30.6017C23.4948 30.6341 23.5114 30.6661 23.5285 30.6989C23.5586 30.7557 23.5899 30.8138 23.6222 30.8732L23.6538 30.9299C23.6683 30.9559 23.6832 30.9819 23.6964 31.0074C23.7096 31.033 23.7254 31.0573 23.739 31.082C23.7527 31.1067 23.7684 31.1319 23.7816 31.1566C23.8417 31.2563 23.9057 31.3569 23.9726 31.4579L24.0186 31.5257C24.0885 31.6277 24.1615 31.7297 24.2376 31.8317C24.2564 31.8568 24.2751 31.8819 24.2948 31.9067C24.3769 32.0092 24.4597 32.1104 24.5432 32.2101Z" fill="#FFD7B0"/>
<path d="M43.4983 35.3212C43.384 35.7431 43.1049 35.946 42.7478 35.7389C42.0557 35.337 41.2736 34.4211 39.8664 33.1477C38.9356 32.3052 37.5672 31.616 36.748 31.2461C37.3021 30.1645 37.5659 29.0338 37.6937 28.1968C37.7436 27.8683 37.7726 27.5848 37.7892 27.3679C38.0244 27.4958 38.2525 27.6266 38.4668 27.7647C40.5512 29.1046 42.7712 32.41 43.3065 33.706C43.566 34.3329 43.6052 34.924 43.4983 35.3212Z" fill="#FFD7B0"/>
<path d="M36.7502 31.2461C36.3317 31.0569 36.0564 30.9512 36.0564 30.9512C36.5972 32.0324 37.0148 33.2789 37.3485 34.5187C36.4753 35.0697 35.2654 35.3557 34.012 35.4865C31.576 35.7422 28.9729 35.4111 28.3439 35.2999C27.6997 35.191 27.0463 35.146 26.3932 35.1656C26.6762 34.2421 26.9592 31.7404 26.9592 31.7404C26.1655 31.9453 25.3601 32.1019 24.5475 32.2092C24.4622 32.1095 24.3818 32.0101 24.3063 31.9109C24.2871 31.8862 24.2679 31.8611 24.2492 31.8359C24.1727 31.7339 24.0997 31.6319 24.0301 31.5299L23.9841 31.4621C23.9172 31.3611 23.8532 31.2606 23.7931 31.1608C23.7778 31.1361 23.7633 31.111 23.7505 31.0863C23.7377 31.0615 23.7211 31.0364 23.7079 31.0117C23.6947 30.987 23.6781 30.9601 23.6653 30.9341L23.624 30.8762C23.5916 30.8173 23.5603 30.7592 23.5302 30.7018C23.5131 30.6695 23.4965 30.6371 23.4808 30.6047C23.43 30.5062 23.3832 30.4078 23.3388 30.3115L23.3192 30.2689C23.1722 29.9423 23.0462 29.6066 22.9421 29.2639C22.934 29.2375 22.9263 29.2107 22.9186 29.1842C22.8824 29.0623 22.8509 28.9447 22.8232 28.8322L22.798 28.7261C22.7776 28.6389 22.7595 28.5551 22.7439 28.4747C22.7409 28.4589 22.7375 28.4431 22.7345 28.4269C22.7286 28.3971 22.7234 28.3681 22.7183 28.3417C22.7098 28.2948 22.7021 28.2496 22.6953 28.2057C22.7456 28.187 22.7959 28.1674 22.8453 28.1465C24.1183 27.6104 26.5531 26.4486 26.5531 26.4486C26.5531 26.4486 27.6402 25.8903 28.6678 25.8157C28.8442 25.8029 29.0049 25.7995 29.1502 25.8025H29.2039L29.258 25.8047H29.3006C29.3194 25.8047 29.3373 25.8047 29.3552 25.8081C29.3731 25.8115 29.391 25.8081 29.4084 25.8119C29.4511 25.8149 29.4937 25.8191 29.5363 25.8238C29.5551 25.8238 29.5734 25.8281 29.5917 25.8306C29.61 25.8332 29.6237 25.8345 29.6386 25.837H29.6446L29.6825 25.8426C29.714 25.8477 29.7438 25.8524 29.772 25.8579C29.8116 25.8652 29.8487 25.8728 29.8828 25.8805C29.8998 25.8843 29.9165 25.8882 29.9318 25.8924L29.9744 25.9031L29.9979 25.9095C30.0247 25.9167 30.049 25.924 30.0699 25.9312L30.0852 25.9359C30.1193 25.9478 30.1453 25.9576 30.1624 25.9645L30.1705 25.9679L30.1807 25.9721L30.1849 25.9747H30.1879L30.3209 25.9619L30.3529 25.9589L30.3746 25.9568L30.424 25.9517L30.5753 25.9372C30.5911 25.9372 30.6073 25.9338 30.6239 25.9321L30.7275 25.9214L31.0092 25.892H31.0185L31.1161 25.8814L31.2269 25.869L31.3403 25.8566H31.3458L31.4554 25.8439L31.6233 25.8247H31.6339L31.8134 25.8034C31.8338 25.8012 31.856 25.7983 31.8739 25.7957C32.0201 25.7778 32.1658 25.7591 32.3077 25.7399L32.4023 25.7271H32.407L32.4952 25.7143L32.5413 25.7079L32.5869 25.7011C32.7373 25.6785 32.878 25.6563 33.0037 25.6338L33.0408 25.6269L33.077 25.6201C33.1349 25.6342 35.7593 26.279 37.7892 27.3674C37.7726 27.5844 37.7436 27.8678 37.6938 28.1964C37.5659 29.0338 37.3004 30.1644 36.7502 31.2461Z" fill="#FFCC29"/>
<path d="M38.5718 40.2061C38.1616 40.7452 37.7031 41.2459 37.2021 41.7019C37.0899 41.8042 36.9775 41.9024 36.865 41.9964C36.8147 42.0391 36.7644 42.0817 36.7141 42.1209C36.5292 42.27 36.3452 42.4093 36.1622 42.5385C36.031 42.6309 35.9007 42.7188 35.7714 42.8023C34.5249 43.6052 33.4023 43.9637 32.8078 44.1116C31.7338 42.9229 31.0366 41.5971 31.0366 41.5971C31.0366 41.5971 28.9181 41.9534 26.9287 42.4554C26.7972 42.2756 26.6704 42.0993 26.5485 41.9265C26.5076 41.8697 26.4674 41.8129 26.4279 41.7561C26.2691 41.5288 26.1184 41.309 25.9758 41.0968C25.8684 40.9371 25.7657 40.7808 25.6676 40.628C25.634 40.5773 25.602 40.5266 25.57 40.4771C25.5084 40.3805 25.4482 40.2855 25.3893 40.192C25.3271 40.0927 25.2666 39.996 25.2086 39.9009C25.1561 39.8157 25.1054 39.7316 25.0565 39.6486C25.0318 39.606 25.0071 39.5672 24.9836 39.5263C24.935 39.4445 24.8877 39.3648 24.843 39.2859C24.8204 39.2476 24.8004 39.2097 24.7778 39.1726C24.69 39.0192 24.6079 38.8723 24.5315 38.7319C24.4939 38.6637 24.4577 38.5964 24.4224 38.5308C24.387 38.4651 24.3503 38.3944 24.3167 38.3292C24.2669 38.2329 24.2196 38.1402 24.1747 38.0513C24.1603 38.0219 24.1453 37.9921 24.1321 37.9635C24.13 37.9603 24.1281 37.9569 24.1266 37.9533C24.1142 37.9282 24.1023 37.903 24.0899 37.8783C24.0215 37.7362 23.9598 37.6057 23.905 37.4866C23.8849 37.444 23.8653 37.4014 23.847 37.3588C23.7848 37.219 23.7328 37.0945 23.6885 36.9863C23.8909 36.8393 24.0946 36.6948 24.2936 36.5554C24.6981 36.2733 25.0859 36.0125 25.4149 35.7947C25.9915 35.4141 26.39 35.1652 26.39 35.1652C27.043 35.1456 27.6964 35.1906 28.3406 35.2995C28.8848 35.3954 30.9002 35.6545 33.0094 35.5599C33.1611 35.5531 33.3133 35.5443 33.4658 35.5335C33.6474 35.5203 33.8289 35.5049 34.0101 35.4862C34.1784 35.4683 34.3459 35.4482 34.5121 35.4244C34.6615 35.4033 34.8097 35.3796 34.9566 35.3532C35.8592 35.1921 36.6962 34.927 37.3466 34.5183C37.9594 36.7979 38.2889 39.0528 38.5718 40.2061Z" fill="#65C950"/>
<path d="M23.248 43.7681C21.6136 44.5353 19.501 45.6293 18.2685 46.2779C17.5078 46.3491 17.3036 45.7094 17.3181 45.1732C17.3208 45.027 17.3417 44.8817 17.3804 44.7407C17.5291 44.2195 17.082 43.8922 17.082 43.8922C17.082 43.8922 19.0488 41.4783 20.6828 39.6892C20.8763 40.2458 21.2368 41.0798 21.8919 42.057C22.2983 42.6621 22.7517 43.2343 23.248 43.7681Z" fill="#E8E8E8"/>
<path d="M18.2683 46.2778C17.9576 46.4415 17.7032 46.5762 17.5259 46.6708L17.2514 46.8174L17.2408 46.8029L16.988 46.456L15.5088 44.427C16.2942 43.5486 17.0835 43.8913 17.0835 43.8913C17.0835 43.8913 17.5306 44.2186 17.3818 44.7398C17.3432 44.8808 17.3223 45.0261 17.3196 45.1723C17.3034 45.7093 17.5076 46.349 18.2683 46.2778Z" fill="#F94C66"/>
<path d="M26.9281 42.4555C26.1115 42.6614 25.3163 42.8923 24.6987 43.1327C24.3066 43.2853 23.8038 43.5073 23.2497 43.7681C22.7535 43.2342 22.3001 42.6621 21.8936 42.057C21.239 41.0798 20.8781 40.2458 20.6846 39.6892C21.2625 39.0559 21.799 38.5014 22.1915 38.1588C22.6232 37.7829 23.153 37.3759 23.6895 36.9868C23.7322 37.0951 23.7859 37.2195 23.8481 37.3593C23.8664 37.4019 23.8856 37.4445 23.906 37.4871C23.9606 37.6073 24.0222 37.7379 24.091 37.8788C24.1025 37.9035 24.1153 37.9287 24.1277 37.9538C24.1292 37.9574 24.131 37.9608 24.1332 37.964C24.1468 37.9926 24.1613 38.0224 24.1758 38.0518C24.2184 38.1405 24.2674 38.2334 24.3177 38.3297C24.3513 38.395 24.3865 38.4622 24.4234 38.5313C24.4604 38.6003 24.4967 38.6674 24.5325 38.7324C24.6089 38.8745 24.6911 39.0214 24.7789 39.1731C24.7997 39.2106 24.8215 39.2481 24.8441 39.2865C24.8867 39.3653 24.9361 39.445 24.9847 39.5268C25.0081 39.5669 25.0324 39.6082 25.0576 39.6491C25.1067 39.7315 25.1574 39.8156 25.2097 39.9014C25.2677 39.9965 25.3282 40.0932 25.3904 40.1925C25.4526 40.2918 25.5089 40.3805 25.5711 40.4776C25.6031 40.5271 25.635 40.5778 25.6687 40.6285C25.7667 40.7808 25.8694 40.937 25.9768 41.0973C26.1189 41.3104 26.2696 41.5301 26.429 41.7566C26.4682 41.8133 26.5083 41.87 26.5496 41.9271C26.6701 42.0992 26.7962 42.2754 26.9281 42.4555Z" fill="#FFD7B0"/>
<path d="M45.5989 43.4306V46.8183C44.3481 47.0339 44.0954 46.081 44.0954 46.081C44.0464 45.9497 44.0358 45.8071 44.0648 45.67C44.0938 45.5329 44.1611 45.4069 44.259 45.3066C44.4487 45.1008 44.7368 44.7411 44.8484 44.3158C44.9017 44.1262 44.9095 43.9267 44.8713 43.7335C44.8331 43.5404 44.7499 43.3589 44.6285 43.2039C45.2171 43.3496 45.5989 43.4306 45.5989 43.4306Z" fill="#F94C66"/>
<path d="M44.8466 44.315C44.735 44.7412 44.4469 45.1 44.2572 45.3059C44.1593 45.4061 44.092 45.5322 44.063 45.6693C44.034 45.8064 44.0446 45.9489 44.0936 46.0802C44.0936 46.0802 42.085 46.1906 39.8438 46.1535C40.2145 45.1341 40.2989 43.9932 40.2827 43.0625C40.2747 42.6182 40.244 42.1747 40.1907 41.7336C41.6149 42.3976 43.4995 42.921 44.6259 43.2018C44.7476 43.3569 44.8311 43.5386 44.8694 43.732C44.9078 43.9254 44.9 44.1252 44.8466 44.315Z" fill="#E8E8E8"/>
<path d="M39.8458 46.1547C37.5815 46.1168 35.0799 45.928 34.1704 45.3219C33.6739 44.9908 33.2141 44.5616 32.8066 44.112C33.5486 43.9275 35.1123 43.4148 36.713 42.1214C37.4067 41.5598 38.0304 40.9169 38.5707 40.2065C38.6517 40.5351 38.7288 40.7742 38.8076 40.8991C39.1486 41.1953 39.6357 41.4761 40.1914 41.7348C40.2447 42.1759 40.2755 42.6194 40.2835 43.0636C40.301 43.994 40.2166 45.1348 39.8458 46.1547Z" fill="#FFD7B0"/>
<path d="M28.8135 13.2807L28.8058 13.2828C28.796 13.2317 28.7875 13.181 28.7798 13.1303C28.7508 12.9363 28.7312 12.7326 28.7197 12.5247C28.7346 12.7271 28.7628 12.9824 28.8135 13.2807Z" fill="#3F9379"/>
<path d="M28.72 12.5248C28.7049 12.3485 28.6999 12.1715 28.7051 11.9946C28.7055 12.1715 28.7098 12.3496 28.72 12.5248Z" fill="#3F9379"/>
<path d="M12.0086 31.9629C13.0816 31.9628 14.1306 32.2809 15.0228 32.877C15.915 33.4731 16.6105 34.3204 17.0212 35.3117C17.4318 36.303 17.5393 37.3939 17.3301 38.4463C17.1208 39.4987 16.6041 40.4654 15.8454 41.2242C15.0867 41.983 14.12 42.4997 13.0676 42.7091C12.0152 42.9185 10.9243 42.811 9.93298 42.4004C8.94162 41.9898 8.09429 41.2945 7.49814 40.4023C6.90199 39.5101 6.58379 38.4612 6.58379 37.3881C6.58379 35.9493 7.15532 34.5695 8.17266 33.5521C9.18999 32.5346 10.5698 31.963 12.0086 31.9629ZM12.0086 31.6646C10.6843 31.6648 9.40098 32.1242 8.37738 32.9645C7.35378 33.8048 6.65321 34.974 6.39501 36.2729C6.13682 37.5719 6.33698 38.9201 6.9614 40.088C7.58582 41.2559 8.59585 42.1712 9.81942 42.6778C11.043 43.1845 12.4044 43.2513 13.6717 42.8668C14.939 42.4823 16.0337 41.6702 16.7694 40.569C17.5051 39.4679 17.8362 38.1457 17.7064 36.8277C17.5765 35.5097 16.9937 34.2776 16.0573 33.3412C15.5269 32.8078 14.8959 32.3849 14.201 32.0971C13.506 31.8093 12.7608 31.6623 12.0086 31.6646Z" fill="#462E68"/>
<path d="M19.3535 18.163C20.2585 18.163 20.9921 17.0045 20.9921 15.5753C20.9921 14.1461 20.2585 12.9875 19.3535 12.9875C18.4485 12.9875 17.7148 14.1461 17.7148 15.5753C17.7148 17.0045 18.4485 18.163 19.3535 18.163Z" fill="white"/>
<path d="M18.7603 22.2248C18.4918 22.2619 18.3141 22.1179 18.1965 21.9022C18.058 21.6465 18.003 21.2953 17.9834 21.02C18.2293 21.0831 18.6487 21.1317 19.2982 21.0401H19.3007C19.3007 21.0401 19.6225 22.1051 18.7603 22.2248Z" fill="#FF5C5C"/>
<path d="M17.7823 37.1623C17.7838 38.0996 17.5609 39.0236 17.1322 39.8572C16.7035 40.6907 16.0815 41.4094 15.3182 41.9534C14.2038 42.7474 12.8438 43.1202 11.4804 43.0054C10.1169 42.8906 8.83835 42.2957 7.87245 41.3265C6.90154 40.3589 6.30109 39.0813 6.17585 37.7163C6.15823 37.5331 6.14942 37.3474 6.14942 37.1593C6.14767 36.1245 6.41963 35.1077 6.93772 34.2119C7.45581 33.3161 8.20159 32.5733 9.09942 32.0588H9.1024C9.97428 31.5602 10.9615 31.2985 11.9659 31.2998C12.1427 31.2998 12.3183 31.3079 12.4914 31.3237C13.6722 31.43 14.7916 31.8981 15.6966 32.664C16.3513 33.2163 16.8772 33.9052 17.2375 34.6823C17.5978 35.4593 17.7837 36.3058 17.7823 37.1623Z" fill="#E8E8E8"/>
<path d="M37.2022 41.7021C37.0899 41.8044 36.9776 41.9025 36.8651 41.9966C36.4125 41.5133 36.0839 40.8459 35.7928 39.8879C35.454 38.7696 34.8177 36.5155 34.5117 35.4249C34.6612 35.4039 34.8093 35.3802 34.9562 35.3538C35.2665 36.4618 35.8883 38.6609 36.2203 39.7583C36.4943 40.6622 36.7926 41.2687 37.2022 41.7021Z" fill="#FFCC29"/>
<path d="M36.1621 42.5386C36.0308 42.6309 35.9005 42.7189 35.7713 42.8024C35.1576 42.3038 34.7506 41.5733 34.3994 40.4158C34.012 39.1373 33.2355 36.3714 33.0088 35.5621L33.4652 35.5356C33.7209 36.446 34.4544 39.0571 34.829 40.2862C35.1729 41.4288 35.5565 42.0971 36.1621 42.5386Z" fill="#FFCC29"/>
<path d="M25.4984 37.1254C25.1775 37.3427 24.6887 37.1838 24.4096 36.77C24.3639 36.7032 24.3255 36.6317 24.2949 36.5569C24.6994 36.2747 25.0872 36.0139 25.4162 35.7961C25.4752 35.8525 25.528 35.915 25.5735 35.9828C25.8517 36.3953 25.8181 36.9068 25.4984 37.1254Z" fill="#FFCC29"/>
<path d="M45.6611 50.9278C45.6952 50.8907 46.1482 50.39 45.9241 50.303C45.6914 50.2127 45.5294 50.6589 45.5294 50.6589C45.5034 50.2707 45.1544 49.8828 45.0896 50.1803C45.0589 50.3218 45.1297 50.4991 45.2119 50.6453C44.948 50.5147 44.6753 50.4027 44.3958 50.3103C44.51 50.2106 44.689 50.0269 44.7482 49.8125C44.8373 49.4886 44.3796 49.5781 44.2679 49.9353C44.2679 49.9353 44.4465 49.0194 44.1115 48.9303C43.7766 48.8413 43.8767 50.0324 43.8767 50.0324C43.8096 49.833 43.6989 49.6511 43.5528 49.4997C43.3593 49.3058 43.0555 49.5129 43.4727 50.0397C41.9427 49.6484 39.7995 49.3352 37.282 49.1417H37.2889C37.2889 49.1417 37.7871 48.6052 37.5539 48.5144C37.3208 48.4236 37.1597 48.8702 37.1597 48.8702C37.1337 48.482 36.7847 48.0942 36.7199 48.3916C36.6632 48.6525 36.9492 49.0309 37.0208 49.1221C36.5764 49.0897 36.1218 49.0613 35.657 49.0369C36.3879 48.3324 36.0231 48.0311 35.8015 48.2523C35.6555 48.4039 35.5449 48.586 35.4776 48.7854C35.4776 48.7854 35.5782 47.5921 35.2432 47.6829C34.9082 47.7737 35.0868 48.6878 35.0868 48.6878C34.9751 48.3307 34.517 48.2412 34.6065 48.5651C34.6547 48.7403 34.7829 48.8945 34.8903 49.0002C33.7614 48.9516 32.5805 48.9256 31.365 48.9256C29.6177 48.9256 27.9428 48.9789 26.3898 49.0765C26.5177 48.9107 26.6835 48.6571 26.53 48.5975C26.2973 48.5067 26.1358 48.9529 26.1358 48.9529C26.1098 48.5651 25.7608 48.1768 25.696 48.4743C25.6534 48.6776 25.8158 48.9529 25.924 49.1072C24.5151 49.2052 23.2144 49.3403 22.062 49.5052C22.1187 49.3539 22.027 49.2359 21.8549 49.2922C21.5331 49.3995 21.4099 49.5027 21.4099 49.5027C21.3354 49.108 21.2697 48.41 20.9075 48.5979C20.5452 48.7859 21.0503 49.5202 21.0503 49.5202C20.8086 49.2385 20.2584 49.0514 20.339 49.4089C20.3577 49.4795 20.3903 49.5457 20.4351 49.6034C20.4798 49.6612 20.5357 49.7094 20.5994 49.7452C19.6264 49.9284 18.8069 50.1368 18.177 50.3644C17.2842 50.2645 16.3865 50.2156 15.4882 50.2182C13.8687 50.2182 12.4065 50.3648 11.3662 50.6018C11.4179 50.5294 11.4573 50.4489 11.4826 50.3636C11.5721 50.0397 11.1139 50.1287 11.0023 50.4863C11.0023 50.4863 11.1813 49.5704 10.8463 49.4814C10.5113 49.3923 10.6115 50.5835 10.6115 50.5835C10.5444 50.384 10.4338 50.202 10.2876 50.0507C10.0626 49.8257 9.69094 50.1402 10.467 50.8682C10.0238 51.045 9.77148 51.2479 9.77148 51.4648C9.77148 52.0354 11.5371 52.5162 13.945 52.6628C13.8997 52.607 13.8677 52.5415 13.8517 52.4714C13.7716 52.1134 14.3205 52.301 14.5621 52.5814C14.5481 52.5605 14.338 52.2481 14.2962 51.9847C14.2749 51.8479 14.2992 51.7235 14.4202 51.6604C14.6333 51.5492 14.7458 51.7491 14.8153 52.0124C14.8639 52.1936 14.8924 52.4045 14.9227 52.5665C14.9227 52.5665 15.0458 52.4638 15.3676 52.3564C15.5914 52.2818 15.6796 52.5042 15.4814 52.7105H15.4882C16.3865 52.7129 17.2842 52.6641 18.177 52.5643C20.0948 53.2564 23.7701 53.7743 28.1994 53.9439C28.0685 53.7734 27.7157 53.2756 27.7915 52.9257C27.8844 52.4996 28.3882 53.0536 28.4231 53.6132C28.4231 53.6132 28.6554 52.9739 28.9899 53.1017C29.2759 53.213 28.7935 53.7939 28.649 53.9592C29.529 53.9878 30.4389 54.0018 31.3659 54.0018C34.7966 54.0018 37.9516 53.7968 40.446 53.4538C39.8042 52.7966 40.1541 52.5213 40.3684 52.7361C40.5146 52.8873 40.6252 53.0691 40.6923 53.2684C40.6923 53.2684 40.5917 52.0751 40.9267 52.1663C41.2617 52.2575 41.0831 53.1716 41.0831 53.1716C41.1948 52.8141 41.6529 52.7246 41.5634 53.0485C41.5363 53.1406 41.493 53.2272 41.4356 53.3042C44.2407 52.8422 45.9897 52.1893 45.9897 51.4648C45.9858 51.2798 45.8738 51.1013 45.6611 50.9278Z" fill="#98B2EA"/>
<g style="mix-blend-mode:multiply">
<path d="M31.3638 52.5976C35.8384 52.5976 39.4658 51.9898 39.4658 51.2402C39.4658 50.4905 35.8384 49.8828 31.3638 49.8828C26.8891 49.8828 23.2617 50.4905 23.2617 51.2402C23.2617 51.9898 26.8891 52.5976 31.3638 52.5976Z" fill="#D6C5BF"/>
</g>
<g style="mix-blend-mode:multiply">
<path d="M18.8354 51.3294C18.8354 51.7129 17.3058 52.0215 15.4192 52.0215C15.2125 52.0215 15.01 52.0177 14.8131 52.0104C14.7437 51.747 14.6329 51.5472 14.4181 51.6584C14.297 51.7215 14.2727 51.8459 14.2941 51.9827C12.9601 51.8885 12.0029 51.6311 12.0029 51.3294C12.0029 50.9458 13.5325 50.6377 15.4192 50.6377C17.3058 50.6377 18.8354 50.9475 18.8354 51.3294Z" fill="#D6C5BF"/>
</g>
<path d="M39.1849 7.95478C39.1849 7.95478 39.747 6.1073 42.7737 5.11644C42.7737 5.11644 42.4519 4.41495 40.9258 4.41751C38.809 4.42092 38.7566 7.58017 38.7566 7.58017C38.7566 7.58017 37.8658 5.94791 37.4712 5.4382C36.6406 4.3668 34.9141 2.88114 30.334 2.43835C25.7539 1.99555 23.3047 1.23568 21.5782 0.148926C21.5782 0.148926 21.0025 2.06374 22.3415 3.69685C22.3415 3.69685 22.2946 3.70281 22.2068 3.7237C21.3545 3.89843 16.6593 4.95109 13.6961 7.43143C13.5979 7.49407 13.5094 7.57058 13.4331 7.65859C13.2009 7.93432 13.1825 8.26887 13.3394 8.61834C13.7182 9.46302 15.1148 10.3968 16.9619 10.8093C17.0288 10.8242 17.0957 10.8387 17.1626 10.8519C20.1458 11.4703 22.9671 11.0139 23.1896 10.9755H23.1951H23.2037C22.4408 11.3165 22.0999 12.0793 22.0999 12.0793C26.4584 12.8038 29.009 11.3834 29.009 11.3834C29.009 11.3834 28.7312 13.1477 28.9238 14.4263C29.0811 15.4785 29.7335 16.6317 30.6166 18.5065C30.6166 18.5065 30.7172 16.8998 32.6452 16.9399C34.5732 16.9799 34.1112 19.7313 33.5487 20.4545C32.9861 21.1778 32.1828 21.6998 31.2294 21.459C31.2294 21.459 32.6358 23.8793 35.7107 24.8032C37.4733 24.0395 39.6247 22.6225 40.9399 20.0331C43.4705 15.0519 41.9371 10.4108 41.3818 9.36841C40.7183 8.12227 39.1849 7.95478 39.1849 7.95478Z" fill="#3F9379"/>
<g style="mix-blend-mode:multiply">
<path d="M17.7818 37.1624C17.7818 40.4013 15.1778 43.024 11.9653 43.024C9.0605 43.024 6.65302 40.8782 6.21875 38.0735C6.75341 38.7027 7.41851 39.2081 8.16796 39.5547C8.9174 39.9012 9.73325 40.0806 10.5589 40.0804C13.722 40.0804 16.2855 37.4965 16.2855 34.3095C16.2858 33.9035 16.2438 33.4986 16.1602 33.1013C17.2038 34.1955 17.7847 35.6503 17.7818 37.1624Z" fill="#C9A89B"/>
</g>
<g style="mix-blend-mode:multiply">
<path d="M31.0356 41.5972C31.0356 41.5972 28.917 41.9534 26.9276 42.4555C26.1111 42.6613 25.3158 42.8923 24.6983 43.1327C24.3062 43.2853 23.8033 43.5073 23.2493 43.7681C21.6149 44.5352 19.5024 45.6292 18.2699 46.2779C17.9592 46.4415 17.7048 46.5762 17.5275 46.6708L17.2424 46.8029L17.2117 46.8174L16.9896 46.456L16.5566 45.7528C16.5566 45.7528 17.1929 45.4494 17.3212 45.1724C17.3337 45.1464 17.3413 45.1184 17.3434 45.0897C17.3493 44.9192 17.4148 44.7563 17.5283 44.629C17.4167 45.2435 17.6621 45.3535 18.0645 45.1127C18.3372 44.9512 20.0896 43.4259 21.8911 42.057C22.7434 41.4079 23.6103 40.7942 24.3335 40.3774C24.6208 40.2117 24.914 40.0527 25.2076 39.9018C27.2106 38.8718 29.2226 38.2308 29.4562 38.6203C29.7242 39.067 31.0356 41.5972 31.0356 41.5972Z" fill="#C9A89B"/>
</g>
<g style="mix-blend-mode:multiply">
<path d="M45.5985 43.4305V44.7223L45.5614 44.7108C45.0525 44.5365 44.6997 44.802 44.6835 44.8148C44.8007 44.6792 44.8399 44.4857 44.848 44.3157C44.8536 44.193 44.8455 44.0701 44.8237 43.9492C44.8237 43.9492 42.409 43.4702 40.284 43.064C39.8327 42.9788 39.3938 42.8936 38.9944 42.8207C38.0782 42.6502 37.3268 42.4601 36.7135 42.1217C35.8015 41.6193 35.1942 40.7895 34.8026 39.2101C34.5111 38.0334 34.2519 36.717 34.009 35.4875C33.7056 33.9553 33.4273 32.5592 33.1422 31.7414C32.6286 30.2672 31.2755 29.7132 30.4692 30.4313C29.6629 31.1494 26.9549 31.7414 26.9549 31.7414C26.1612 31.9462 25.3559 32.1028 24.5432 32.2102C23.5587 32.338 22.4379 32.4032 21.5174 32.2319C19.3583 31.83 16.4245 30.655 15.3075 30.1176C14.3226 29.645 13.9519 29.2874 14.2148 28.8323C14.2465 28.8701 14.2735 28.9116 14.2954 28.9559C14.5481 29.4622 19.3882 31.2342 22.0237 31.1451C22.6352 31.1247 23.1884 31.0782 23.6981 31.0105C25.387 30.7863 26.6055 30.3286 27.9207 29.7971C29.633 29.1046 31.316 28.0771 30.6158 26.9605C29.9339 25.8725 29.1868 25.8034 29.1485 25.8005C29.3115 25.7954 29.4745 25.8081 29.6347 25.8384H29.6407C29.8461 25.8759 30.0463 25.9374 30.2374 26.0216L31.6173 25.8256H31.628L33.071 25.6206C33.1175 25.6415 35.4452 26.7082 37.6878 28.1968C38.333 28.6207 38.9539 29.0804 39.5476 29.5738C42.1388 31.7554 43.3751 35.1209 43.3751 35.1209L43.4923 35.3212C43.3781 35.7432 43.0989 35.946 42.7418 35.7389C42.0497 35.337 41.2677 34.4212 39.8604 33.1477C38.9297 32.3052 37.5612 31.6161 36.7421 31.2461C36.3236 31.0569 36.0483 30.9512 36.0483 30.9512C36.5891 32.0324 37.0067 33.279 37.3404 34.5187C37.9537 36.7979 38.2831 39.0528 38.5661 40.2061C38.6471 40.5347 38.7242 40.7737 38.8031 40.8986C39.144 41.1948 39.6311 41.4757 40.1869 41.7343C41.6112 42.3983 43.4957 42.9217 44.6221 43.2025C45.2166 43.3496 45.5985 43.4305 45.5985 43.4305Z" fill="#C9A89B"/>
</g>
<g style="mix-blend-mode:multiply">
<path d="M31.4317 20.1293C31.4317 20.1293 31.4662 19.1964 32.1937 18.8209C32.9212 18.4454 33.5745 18.3606 33.5319 18.9999C33.4893 19.6392 32.4452 20.6479 32.0476 20.7545C31.6499 20.861 31.4266 20.6339 31.4317 20.1293Z" fill="#C9A89B"/>
<path d="M18.0908 22.4985C18.0908 22.4985 18.2455 23.1058 19.3962 22.4985C19.3962 22.4985 18.543 24.0115 18.0908 22.4985Z" fill="#C9A89B"/>
<path d="M15.5261 17.5442C15.716 17.6722 15.888 17.825 16.0375 17.9985C16.3073 18.3041 15.6322 18.3254 15.6322 18.3254C15.6322 18.3254 15.0432 17.8212 15.5261 17.5442Z" fill="#C9A89B"/>
<path d="M41.38 9.36804C41.6963 9.96127 42.3283 11.7184 42.3492 14.0402C41.9392 13.0029 41.2935 12.041 40.6172 11.2206C40.7992 10.4416 40.8567 9.57431 40.745 8.61157C41.0067 8.81711 41.223 9.07469 41.38 9.36804Z" fill="#C9A89B"/>
<path d="M40.938 20.0326C39.6228 22.622 37.4715 24.0387 35.7088 24.8028C32.6322 23.8788 31.2275 21.4586 31.2275 21.4586H31.2314C31.2868 21.468 31.9069 21.5647 32.5142 21.326C32.8057 21.215 33.0622 21.028 33.257 20.7844C33.4556 20.531 33.6223 20.2541 33.7535 19.9601C33.7637 19.9755 33.7739 19.9908 33.785 20.0062C33.8447 20.0957 33.9065 20.1839 33.9687 20.2704C35.0107 21.7194 36.2871 22.7772 37.7617 23.4139L37.812 23.2963C36.0685 22.5436 34.7836 21.2634 33.8413 19.8502L33.8161 19.8131C33.8755 19.6663 33.9257 19.516 33.9666 19.3631C34.1481 18.6812 34.1221 17.9814 33.7335 17.4832L33.7309 17.4798L33.7249 17.4717C33.7616 17.4623 35.6116 16.9816 37.4109 15.7039C38.3016 17.6886 39.1987 19.8233 39.7549 21.5063L39.8759 21.4663C39.3159 19.7726 38.412 17.623 37.5158 15.6276C38.8212 14.6764 40.0801 13.3007 40.5766 11.3752C41.2231 12.1701 41.8351 13.094 42.228 14.0874L42.3465 14.0406C42.3676 16.1223 41.8844 18.1783 40.938 20.0326Z" fill="#C9A89B"/>
<path d="M38.758 7.51636L38.7154 7.51125C38.3936 7.47545 36.3978 7.29816 32.3001 7.89182C31.0348 8.07465 29.7486 8.3994 28.5532 8.77103C27.3441 9.00457 24.5075 9.56499 22.1005 10.1288C18.9467 10.8674 14.4834 9.80536 14.4834 9.80536C14.6905 9.97284 14.9978 10.1301 15.3315 10.2695C16.1267 10.6019 17.0703 10.8316 17.1517 10.8512H17.1572L16.7434 12.0914C19.9257 12.3373 22.4968 11.4922 22.4968 11.4922L23.0508 11.0472L23.0687 11.0379V11.0404L23.0969 11.0945C23.1437 11.0707 27.8641 8.66278 32.3193 8.01797C36.7746 7.37317 38.726 7.64081 38.7452 7.64336L38.7542 7.58029L38.7631 7.51722L38.758 7.51636ZM24.3822 10.3509L24.9154 10.0717L25.4745 9.88718C25.0684 10.0513 24.7014 10.2094 24.3822 10.3509Z" fill="#C9A89B"/>
<path d="M37.6658 5.61592L37.6368 5.67303L37.6078 5.73014C37.5857 5.71906 35.3491 4.59864 31.2113 3.7987C29.6174 3.49058 27.9643 3.4096 26.5234 3.42836L22.9861 3.67C22.5898 3.71986 22.3605 3.75822 22.3503 3.75992L22.3426 3.71432L22.2049 3.7237C22.2927 3.70281 22.3396 3.69685 22.3396 3.69685C21.001 2.06374 21.5776 0.148926 21.5776 0.148926C21.5912 0.191543 22.4849 2.82745 26.7288 3.29795C28.1275 3.28942 29.7086 3.37721 31.236 3.67255C34.9012 4.38129 37.0857 5.34232 37.5656 5.56734C37.6296 5.5976 37.6632 5.61464 37.6658 5.61592Z" fill="#C9A89B"/>
<path d="M29.7213 5.44758C35.219 5.12539 38.0808 6.53092 38.1093 6.54541L38.1669 6.4312C38.1383 6.41671 35.2497 4.99583 29.7136 5.31973C27.1958 5.46718 24.3204 6.12946 21.54 6.77129C18.2269 7.53499 15.0983 8.25651 13.282 7.89213L13.2568 8.01743C13.6369 8.08828 14.023 8.12168 14.4096 8.11715C16.272 8.11715 18.8594 7.5205 21.5694 6.89573C24.3442 6.25604 27.2141 5.59418 29.7213 5.44758Z" fill="#C9A89B"/>
<path d="M40.6172 11.2206C40.6053 11.2726 40.5925 11.3237 40.5793 11.3748C39.7505 10.3675 38.8112 9.45659 37.7788 8.65924C36.8643 9.02916 35.798 9.40335 34.7296 9.75281C34.8646 10.0209 36.1828 12.6508 37.5185 15.6272C37.4835 15.6532 37.4481 15.6784 37.4132 15.7031C36.0354 12.6346 34.6724 9.92371 34.6068 9.79287C33.3423 10.2037 32.0834 10.5775 31.0793 10.8647C31.0883 11.0599 31.2106 13.4128 32.0566 16.0487C32.1512 16.3436 32.2573 16.6496 32.3766 16.962H32.2394C32.132 16.6779 32.0301 16.3854 31.9338 16.0845C31.1156 13.533 30.9707 11.2449 30.9536 10.9005C30.6719 10.9806 30.4128 11.0539 30.1805 11.1183L28.9932 11.4946L28.8151 12.1002C28.8151 12.1002 26.6646 13.1827 24.7327 13.2253C22.8009 13.2679 22.1045 12.9875 22.1045 12.9875L22.6743 12.1633L22.1659 12.0895C22.1659 12.0895 25.7798 10.8886 28.0045 10.6542C29.8515 10.4594 33.0879 9.97229 34.1333 9.8112C35.9659 9.22648 37.8722 8.55142 39.077 7.93943C39.1094 7.77194 39.4243 6.24794 40.3099 5.60398C41.2475 4.9221 42.7749 5.11644 42.7749 5.11644C42.7749 5.11644 40.327 5.95302 39.0868 7.93432L39.1562 7.89809L39.2151 8.01145C38.8456 8.20366 38.4053 8.40226 37.9174 8.60299C38.9079 9.37696 39.8129 10.2545 40.6172 11.2206Z" fill="#C9A89B"/>
</g>
<path d="M22.7962 32.4856C22.3593 32.4897 21.9229 32.4539 21.4926 32.3786C19.2717 31.9652 16.2727 30.7451 15.2457 30.252C14.427 29.8595 14.0656 29.5599 13.9974 29.2189C13.9548 29.0012 14.0349 28.7804 14.2458 28.5443C14.7892 27.9344 16.2808 28.0798 18.1688 28.2639C19.8194 28.425 21.4039 28.5307 22.6437 28.0644C22.6643 28.0565 22.6865 28.0534 22.7086 28.0552C22.7307 28.057 22.7521 28.0637 22.7712 28.0748C22.7904 28.0859 22.8068 28.1011 22.8193 28.1194C22.8318 28.1376 22.8401 28.1585 22.8435 28.1803C23.0859 29.6304 23.7128 30.9888 24.659 32.114C24.6763 32.1344 24.6878 32.1592 24.6922 32.1856C24.6967 32.212 24.6939 32.2392 24.6842 32.2641C24.6745 32.2891 24.6583 32.311 24.6372 32.3276C24.6162 32.3441 24.591 32.3547 24.5644 32.3582C23.9784 32.4388 23.3878 32.4814 22.7962 32.4856ZM15.8738 28.402C15.2013 28.402 14.6959 28.4872 14.4675 28.7429C14.3234 28.9044 14.265 29.0412 14.2889 29.1606C14.349 29.4589 14.9367 29.7734 15.3735 29.9831C16.3899 30.471 19.3544 31.6771 21.5463 32.0854C22.258 32.2179 23.1691 32.2214 24.2567 32.0952C23.4085 31.0173 22.8324 29.7509 22.5772 28.4032C21.3084 28.823 19.7538 28.7182 18.139 28.5609C17.2973 28.4787 16.5105 28.402 15.8738 28.402Z" fill="#5B2E66"/>
<path d="M43.018 35.9692C42.896 35.9666 42.7769 35.9316 42.6728 35.8678C42.2198 35.6044 41.7459 35.1433 41.09 34.5091C40.7116 34.1418 40.2828 33.7258 39.7659 33.2583C38.8343 32.4149 37.4368 31.7207 36.6863 31.3831C36.6681 31.3749 36.6518 31.3631 36.6382 31.3485C36.6245 31.3338 36.614 31.3166 36.6071 31.2979C36.6003 31.2788 36.5976 31.2586 36.599 31.2385C36.6004 31.2183 36.6059 31.1986 36.6152 31.1807C37.3648 29.7125 37.5792 28.1548 37.638 27.3587C37.6399 27.334 37.6479 27.3101 37.6614 27.2893C37.6748 27.2684 37.6932 27.2513 37.715 27.2393C37.7367 27.2274 37.7611 27.2211 37.7859 27.2209C37.8107 27.2208 37.8352 27.2269 37.857 27.2386C38.1068 27.3728 38.3382 27.5083 38.5449 27.6413C40.6694 29.0072 42.8919 32.3292 43.4417 33.6504C43.8095 34.539 43.7796 35.4774 43.3722 35.8337C43.2747 35.9207 43.1487 35.9689 43.018 35.9692ZM36.9501 31.1747C37.7407 31.54 39.0606 32.2176 39.9662 33.0376C40.487 33.5063 40.9178 33.9266 41.298 34.2952C41.9373 34.9166 42.4009 35.3653 42.8224 35.61C43.0355 35.7331 43.1425 35.6394 43.1779 35.61C43.4442 35.3773 43.5158 34.6059 43.1681 33.765C42.614 32.4209 40.3736 29.17 38.3859 27.8919C38.2415 27.799 38.0846 27.7048 37.9171 27.6106C37.8353 28.4459 37.6022 29.8323 36.9501 31.1747Z" fill="#5B2E66"/>
<path d="M32.0658 35.7301C30.31 35.7301 28.7706 35.5276 28.3134 35.4471C27.6799 35.3406 27.0376 35.2963 26.3956 35.315C26.3716 35.3162 26.3478 35.3117 26.326 35.3016C26.3043 35.2916 26.2853 35.2764 26.2707 35.2574C26.256 35.2385 26.2461 35.2163 26.2417 35.1927C26.2373 35.1691 26.2386 35.1449 26.2456 35.1219C26.4731 34.3791 26.705 32.5648 26.7808 31.9388C26.0493 32.1181 25.3087 32.2581 24.5622 32.3581C24.5373 32.3615 24.512 32.3585 24.4886 32.3495C24.4653 32.3405 24.4445 32.3257 24.4283 32.3066C23.4474 31.1397 22.7976 29.7309 22.5468 28.2272C22.5414 28.1932 22.5479 28.1583 22.5653 28.1285C22.5827 28.0988 22.6099 28.076 22.6422 28.064C22.6964 28.044 22.7432 28.0252 22.7863 28.0073C24.0358 27.481 26.4412 26.3341 26.4872 26.3124L26.5332 26.289L26.5417 26.2851C26.8175 26.1522 27.7521 25.7311 28.656 25.665C29.4917 25.6049 29.9912 25.7464 30.1668 25.8099L30.1749 25.8129L30.1915 25.8189H30.1958L30.206 25.8227H30.2094L30.2793 25.8163L30.3569 25.8087L30.4025 25.804L30.5278 25.7916H30.5337L30.5985 25.7848H30.6151C31.2463 25.7213 32.3953 25.5964 33.0469 25.4728C33.0677 25.4684 33.0892 25.4684 33.11 25.4728C33.1368 25.4792 35.8124 26.1372 37.858 27.2338C37.8836 27.2475 37.9046 27.2683 37.9186 27.2937C37.9325 27.3191 37.9387 27.3481 37.9364 27.377C37.8734 28.1965 37.6522 29.7981 36.8795 31.3115C36.862 31.3456 36.8321 31.3716 36.7959 31.3843C36.7598 31.397 36.7201 31.3953 36.6852 31.3796C36.562 31.3238 36.4508 31.2752 36.3557 31.2347C36.7738 32.1382 37.1459 33.2037 37.4889 34.4775C37.4972 34.5083 37.4955 34.5409 37.4839 34.5706C37.4723 34.6002 37.4515 34.6254 37.4246 34.6425C36.311 35.3444 34.5654 35.7079 32.2367 35.7266L32.0658 35.7301ZM26.676 35.0115C27.2421 35.011 27.8072 35.0583 28.3654 35.153C28.8299 35.2353 30.4306 35.4445 32.235 35.4309C34.4085 35.4147 36.1132 35.0754 37.1719 34.4507C36.7968 33.0758 36.3869 31.9524 35.9198 31.0191C35.9062 30.9922 35.9012 30.9619 35.9052 30.932C35.9093 30.9022 35.9222 30.8743 35.9424 30.852C35.9626 30.8297 35.9891 30.814 36.0184 30.807C36.0476 30.8 36.0783 30.8021 36.1064 30.8128C36.1167 30.8167 36.3344 30.9006 36.6775 31.0528C37.3475 29.6809 37.5627 28.2524 37.6313 27.4546C35.7489 26.4654 33.3695 25.8487 33.0712 25.7737C32.4021 25.8977 31.2655 26.0209 30.642 26.084H30.636C30.6096 26.087 30.584 26.0899 30.5589 26.0921L30.434 26.1044L30.3914 26.1087L30.3113 26.1164L30.2137 26.1257C30.2056 26.1264 30.1975 26.1264 30.1894 26.1257C30.1671 26.1249 30.1451 26.1198 30.1246 26.1108L30.102 26.1014L30.0944 26.0985L30.0863 26.0955L30.0679 26.0887C29.9111 26.032 29.4602 25.905 28.6812 25.9608C27.8288 26.0226 26.9368 26.4258 26.6747 26.5523L26.6624 26.5583L26.6236 26.5779C26.5959 26.5911 24.1675 27.749 22.906 28.2826L22.8634 28.2992C23.1142 29.6778 23.713 30.9695 24.6031 32.0517C25.3815 31.9449 26.153 31.7929 26.9138 31.5966C26.9373 31.5901 26.962 31.5896 26.9858 31.5949C27.0096 31.6003 27.0317 31.6113 27.0502 31.6272C27.0687 31.643 27.083 31.6632 27.0919 31.6858C27.1008 31.7085 27.1041 31.733 27.1013 31.7572C27.0902 31.8536 26.8482 33.9793 26.5848 35.0119L26.676 35.0115Z" fill="#5B2E66"/>
<path d="M32.807 44.2609C32.7861 44.2609 32.7655 44.2566 32.7464 44.2481C32.7273 44.2397 32.7102 44.2273 32.6962 44.2119C31.7876 43.2061 31.1389 42.0908 30.9557 41.7622C30.5052 41.8406 28.6761 42.1684 26.9645 42.6005C26.9357 42.6077 26.9053 42.6062 26.8773 42.5961C26.8493 42.586 26.8249 42.5678 26.8073 42.5438C24.8021 39.8001 23.905 37.9198 23.5492 37.0432C23.5365 37.0122 23.5347 36.978 23.5438 36.9459C23.5529 36.9137 23.5725 36.8856 23.5994 36.8659C24.9206 35.9083 26.2959 35.0478 26.3095 35.0393C26.3312 35.0257 26.356 35.0179 26.3815 35.0167C27.0457 34.996 27.7103 35.0417 28.3654 35.1531C28.8303 35.2349 30.4319 35.4454 32.2351 35.4309C34.4755 35.4139 36.2151 35.0551 37.264 34.3928C37.2836 34.3803 37.3058 34.3725 37.329 34.3702C37.3521 34.3678 37.3755 34.3709 37.3972 34.3792C37.419 34.3874 37.4385 34.4007 37.4542 34.4179C37.4699 34.435 37.4814 34.4556 37.4877 34.478C37.8742 35.9147 38.1483 37.3411 38.3686 38.4866C38.4965 39.1608 38.6098 39.7434 38.7142 40.1688C38.7199 40.1906 38.7206 40.2135 38.716 40.2357C38.7115 40.2579 38.702 40.2787 38.6882 40.2966C36.5574 43.0868 33.8899 43.9954 32.8411 44.2562C32.8299 44.2591 32.8185 44.2607 32.807 44.2609ZM31.0358 41.4481C31.0629 41.4481 31.0896 41.4555 31.1128 41.4696C31.136 41.4836 31.1549 41.5038 31.1675 41.5278C31.1743 41.5406 31.843 42.8021 32.8577 43.9451C33.9232 43.6664 36.4014 42.7701 38.4095 40.1722C38.3081 39.746 38.2007 39.1877 38.0771 38.5454C37.8678 37.4549 37.6083 36.1098 37.252 34.7486C36.1342 35.3828 34.4491 35.7126 32.2376 35.7288C30.4115 35.7438 28.7856 35.5298 28.3138 35.4463C27.6934 35.3427 27.0645 35.2982 26.4357 35.3133C26.2226 35.4471 25.0391 36.1976 23.8718 37.0389C24.2464 37.9339 25.1243 39.7208 26.991 42.2868C28.9352 41.8014 30.9915 41.4537 31.0124 41.4503C31.0201 41.4488 31.0279 41.4481 31.0358 41.4481Z" fill="#5B2E66"/>
<path d="M18.156 46.4328C17.7826 46.4328 17.5593 46.2661 17.4383 46.1178C17.1067 45.7181 17.1357 45.0524 17.2363 44.6999C17.3539 44.2878 17.0078 44.0232 16.9929 44.0121C16.977 44 16.9637 43.9848 16.9537 43.9675C16.9437 43.9502 16.9373 43.931 16.9348 43.9112C16.9323 43.8913 16.9338 43.8712 16.9391 43.8519C16.9445 43.8327 16.9537 43.8147 16.9661 43.799C16.9857 43.7751 18.9542 41.3617 20.5724 39.5901C20.5898 39.571 20.6119 39.5568 20.6364 39.5488C20.661 39.5408 20.6872 39.5394 20.7125 39.5446C20.7378 39.5498 20.7614 39.5614 20.7808 39.5785C20.8002 39.5955 20.8149 39.6172 20.8234 39.6416C21.0906 40.4088 21.7746 41.9566 23.357 43.6686C23.373 43.6858 23.3847 43.7065 23.3911 43.729C23.3976 43.7516 23.3986 43.7753 23.3941 43.7984C23.3896 43.8214 23.3798 43.843 23.3653 43.8615C23.3509 43.88 23.3323 43.8948 23.311 43.9047C21.7422 44.6386 19.7405 45.6729 18.3375 46.4115C18.3201 46.4204 18.3012 46.426 18.2817 46.4281C18.2382 46.4306 18.196 46.4328 18.156 46.4328ZM17.2861 43.8757C17.4315 44.0304 17.6467 44.3471 17.5231 44.7796C17.4434 45.0588 17.4119 45.6166 17.668 45.9252C17.7958 46.0799 17.9791 46.1468 18.2254 46.1298C19.5756 45.4193 21.4674 44.4421 23.0012 43.7172C21.6719 42.2418 20.9819 40.9044 20.6269 39.9702C19.2465 41.4976 17.6723 43.4073 17.2861 43.8778V43.8757Z" fill="#5B2E66"/>
<path d="M17.2501 46.9676C17.2266 46.9676 17.2034 46.9621 17.1824 46.9514C17.1615 46.9408 17.1433 46.9253 17.1295 46.9063L15.3873 44.5163C15.3671 44.4887 15.3569 44.4551 15.3586 44.4209C15.3602 44.3868 15.3735 44.3543 15.3962 44.3288C16.2439 43.3805 17.1056 43.7398 17.1436 43.7551C17.1536 43.7597 17.1632 43.7653 17.1721 43.7717C17.1939 43.7879 17.7006 44.1677 17.5254 44.7818C17.4457 45.0609 17.4142 45.6188 17.6703 45.9273C17.8037 46.088 17.9951 46.1536 18.2563 46.1298C18.2908 46.126 18.3256 46.1345 18.3546 46.1536C18.3836 46.1728 18.4049 46.2015 18.415 46.2347C18.4251 46.2679 18.4233 46.3036 18.4099 46.3357C18.3965 46.3677 18.3723 46.3941 18.3416 46.4102C17.7283 46.7332 17.3277 46.9476 17.3238 46.9497C17.3012 46.962 17.2758 46.9681 17.2501 46.9676ZM15.701 44.4404L17.294 46.6237C17.3967 46.5692 17.5646 46.4797 17.7824 46.3646C17.6487 46.3122 17.5305 46.2267 17.4389 46.1161C17.1073 45.7164 17.1363 45.0507 17.2369 44.6982C17.3426 44.3279 17.0737 44.0765 17.0072 44.0215C16.9032 43.9857 16.3202 43.8169 15.701 44.4404Z" fill="#5B2E66"/>
<path d="M23.2483 43.9174C23.2277 43.9174 23.2074 43.9131 23.1886 43.9049C23.1697 43.8967 23.1528 43.8847 23.1388 43.8697C21.6007 42.2076 20.88 40.7044 20.5425 39.7357C20.5336 39.7104 20.5318 39.6832 20.5372 39.6569C20.5426 39.6307 20.555 39.6064 20.5732 39.5866C21.2163 38.8813 21.7277 38.3626 22.0921 38.0447C22.485 37.7037 22.9926 37.3048 23.6003 36.8637C23.6186 36.8507 23.6396 36.8419 23.6617 36.838C23.6838 36.8341 23.7065 36.8352 23.7282 36.8412C23.7497 36.8471 23.7697 36.8579 23.7865 36.8726C23.8033 36.8874 23.8166 36.9058 23.8253 36.9264C24.1765 37.7903 25.0612 39.6458 27.0481 42.3636C27.0625 42.3834 27.0718 42.4064 27.0752 42.4307C27.0786 42.4549 27.076 42.4796 27.0675 42.5026C27.0591 42.5256 27.0452 42.5462 27.0269 42.5625C27.0086 42.5789 26.9866 42.5904 26.9628 42.5962C26.0483 42.8264 25.3042 43.0523 24.7514 43.2675C24.3883 43.409 23.9033 43.6212 23.3097 43.8991C23.2907 43.9095 23.2698 43.9157 23.2483 43.9174ZM20.8536 39.7238C21.1357 40.505 21.8087 41.9672 23.2828 43.5871C23.8368 43.3288 24.295 43.1294 24.6436 42.9934C25.1639 42.791 25.8471 42.5801 26.6769 42.3657C24.8844 39.8875 24.0111 38.1359 23.6212 37.2187C23.088 37.61 22.641 37.9637 22.2864 38.2714C21.9433 38.5723 21.4609 39.0607 20.8536 39.7238Z" fill="#5B2E66"/>
<path d="M45.2522 46.9986C44.4254 46.9986 44.0452 46.4595 43.9532 46.1288C43.8954 45.9721 43.8831 45.8024 43.9176 45.6391C43.9521 45.4757 44.0321 45.3255 44.1484 45.2057C44.5971 44.7181 45.0233 43.9911 44.5106 43.2955C44.4931 43.2736 44.4822 43.2471 44.4791 43.2192C44.4759 43.1913 44.4808 43.1631 44.493 43.1378C44.5052 43.1125 44.5242 43.0912 44.548 43.0763C44.5718 43.0614 44.5993 43.0535 44.6274 43.0535C44.6402 43.0534 44.653 43.0551 44.6653 43.0586C45.2436 43.2026 45.6255 43.2836 45.6293 43.2845C45.6628 43.2916 45.6928 43.31 45.7143 43.3366C45.7357 43.3632 45.7474 43.3964 45.7474 43.4306V46.8183C45.7474 46.8535 45.735 46.8875 45.7124 46.9144C45.6898 46.9413 45.6584 46.9593 45.6238 46.9653C45.5011 46.9868 45.3767 46.998 45.2522 46.9986ZM44.9312 43.4306C45.1904 44.0337 44.9977 44.7232 44.3678 45.4077C44.2894 45.4867 44.235 45.5863 44.2109 45.695C44.1867 45.8037 44.1939 45.917 44.2315 46.0218C44.2343 46.0286 44.2367 46.0356 44.2387 46.0427C44.2477 46.0742 44.4612 46.8004 45.449 46.6888V43.5504C45.3404 43.5265 45.1618 43.486 44.9317 43.4306H44.9312Z" fill="#5B2E66"/>
<path d="M40.7842 46.3112C40.4782 46.3112 40.1629 46.3087 39.8428 46.3035C39.8191 46.3031 39.7958 46.2969 39.7749 46.2856C39.754 46.2744 39.7361 46.2583 39.7226 46.2387C39.7091 46.2191 39.7005 46.1966 39.6975 46.1731C39.6945 46.1495 39.6971 46.1256 39.7052 46.1032C39.9477 45.4363 40.3146 43.9839 40.0461 41.7524C40.0426 41.7257 40.0464 41.6986 40.0571 41.6739C40.0678 41.6492 40.085 41.6278 40.1069 41.6121C40.1287 41.5964 40.1544 41.5868 40.1812 41.5845C40.208 41.5822 40.235 41.5872 40.2592 41.599C41.6997 42.2706 43.6371 42.8008 44.6654 43.0574C44.6996 43.0658 44.7298 43.0861 44.7507 43.1145C45.2489 43.7857 45.1138 44.6001 44.3709 45.4077C44.2925 45.4868 44.2381 45.5864 44.214 45.6951C44.1898 45.8037 44.197 45.917 44.2346 46.0218C44.244 46.0438 44.2479 46.0678 44.2462 46.0916C44.2444 46.1154 44.2369 46.1385 44.2244 46.1589C44.2119 46.1793 44.1947 46.1963 44.1742 46.2087C44.1537 46.221 44.1306 46.2283 44.1067 46.2298C44.0863 46.2311 42.6036 46.3112 40.7842 46.3112ZM40.0533 46.0082C41.8007 46.0304 43.3856 45.9656 43.9068 45.9409C43.889 45.808 43.9016 45.6728 43.9435 45.5455C43.9854 45.4182 44.0556 45.302 44.1489 45.2057C44.5891 44.7271 45.0081 44.018 44.5384 43.3344C43.545 43.0851 41.776 42.5979 40.3696 41.9783C40.4689 42.9662 40.5192 44.578 40.0533 46.0082Z" fill="#5B2E66"/>
<path d="M39.8451 46.3035H39.8426C36.8009 46.2524 34.8644 45.9626 34.0892 45.4456C33.6289 45.1388 33.161 44.7237 32.6986 44.2119C32.6813 44.1927 32.6693 44.1695 32.6637 44.1443C32.6581 44.1192 32.6591 44.0931 32.6666 44.0684C32.6741 44.0438 32.6879 44.0215 32.7066 44.0038C32.7252 43.9861 32.7482 43.9735 32.7731 43.9672C33.7913 43.7115 36.3829 42.8315 38.4549 40.1159C38.4721 40.0936 38.4952 40.0766 38.5216 40.0668C38.5479 40.057 38.5765 40.0548 38.6041 40.0605C38.6316 40.0661 38.657 40.0795 38.6772 40.0991C38.6974 40.1186 38.7117 40.1435 38.7183 40.1708C38.795 40.4815 38.8645 40.6933 38.9259 40.8016C39.234 41.0628 39.6819 41.3313 40.2572 41.599C40.2802 41.6096 40.3001 41.626 40.315 41.6465C40.33 41.667 40.3394 41.691 40.3425 41.7162C40.4618 42.7006 40.5739 44.5929 39.9875 46.2055C39.9768 46.2346 39.9574 46.2596 39.9319 46.2772C39.9064 46.2947 39.8761 46.3039 39.8451 46.3035ZM33.0843 44.1944C33.4352 44.5714 33.8267 44.9086 34.2516 45.1997C34.9616 45.6728 36.8581 45.9511 39.7394 46.0056C39.9768 45.308 40.2935 43.9174 40.0531 41.8363C39.4773 41.5632 39.0256 41.2866 38.7098 41.0138C38.6987 41.0042 38.6891 40.993 38.6812 40.9806C38.6033 40.8404 38.5436 40.6909 38.5035 40.5357C36.558 42.9525 34.2243 43.8705 33.0843 44.1944Z" fill="#5B2E66"/>
<path d="M25.4555 26.6083C21.7477 26.6083 18.3809 25.4546 16.487 23.4904C15.3517 22.312 15.1416 20.9546 15.1659 20.0239C15.1787 19.4517 15.2793 18.885 15.4642 18.3434C15.2622 18.0191 15.1987 17.743 15.2745 17.5213C15.3172 17.3982 15.4254 17.232 15.7033 17.1378C15.915 17.0667 16.1148 16.9643 16.2961 16.8339C16.1137 15.2831 16.3246 13.407 16.3268 13.3879C16.334 13.332 16.5032 12.0578 17.0231 10.7976C17.0365 10.765 17.0609 10.7381 17.0921 10.7217C17.1233 10.7054 17.1592 10.7005 17.1936 10.7081C20.1935 11.3298 23.045 10.8517 23.1652 10.8308H23.1712H23.1805C23.216 10.8258 23.2521 10.8338 23.2822 10.8532C23.3123 10.8727 23.3344 10.9023 23.3445 10.9367C23.3545 10.9711 23.3518 11.008 23.3369 11.0406C23.322 11.0732 23.2958 11.0993 23.2632 11.1142C22.7799 11.3307 22.4748 11.736 22.3316 11.9666C26.4634 12.5952 28.9105 11.2676 28.9352 11.254C28.9596 11.2404 28.9874 11.2339 29.0153 11.2354C29.0432 11.2368 29.0702 11.246 29.0931 11.262C29.116 11.278 29.134 11.3001 29.145 11.3258C29.1559 11.3515 29.1594 11.3798 29.1551 11.4074C29.1521 11.4249 28.8828 13.1645 29.0699 14.4051C29.1909 15.2149 29.6239 16.1098 30.2269 17.3534C30.3378 17.5819 30.4507 17.815 30.5679 18.0617C30.752 17.5469 31.2604 16.7623 32.6459 16.7917C33.2686 16.8049 33.7288 17.0875 33.9773 17.6096C34.4116 18.5216 34.0919 19.9962 33.6641 20.5472C33.0525 21.3343 32.3101 21.7213 31.5421 21.6625C32.0109 22.3158 33.3836 23.9502 35.7515 24.6615C35.7807 24.6704 35.8065 24.688 35.8254 24.712C35.8443 24.7359 35.8554 24.7652 35.8572 24.7956C35.8589 24.8261 35.8513 24.8564 35.8353 24.8824C35.8193 24.9084 35.7957 24.9289 35.7677 24.9411C34.1759 25.6306 32.9123 25.7934 32.8062 25.8049C32.2602 25.9085 31.3278 26.0142 30.6408 26.0845H30.6339L30.5602 26.0922H30.5555L30.388 26.1088L30.3079 26.1165L30.2099 26.1259C30.202 26.1265 30.194 26.1265 30.186 26.1259C30.1637 26.125 30.1417 26.1199 30.1213 26.1109L30.0957 26.1003L30.0889 26.0977H30.0842L30.0659 26.0909C29.909 26.0342 29.4581 25.9072 28.6791 25.9631C27.8212 26.0253 26.9224 26.4318 26.6675 26.5571C26.6493 26.5661 26.6294 26.5711 26.6091 26.5721C26.2219 26.5959 25.8373 26.608 25.4555 26.6083ZM17.2533 11.0247C16.7845 12.2116 16.6247 13.4113 16.623 13.4237C16.6213 13.436 16.4065 15.3504 16.6025 16.8808C16.6056 16.9053 16.6026 16.9302 16.5937 16.9532C16.5849 16.9763 16.5705 16.9968 16.5518 17.0129C16.327 17.1927 16.0722 17.3313 15.7992 17.4225C15.6688 17.4651 15.5861 17.532 15.5579 17.6185C15.5102 17.7579 15.5805 17.9799 15.7557 18.2429C15.7693 18.2631 15.7777 18.2863 15.7802 18.3106C15.7826 18.3348 15.779 18.3593 15.7698 18.3818C15.5782 18.9155 15.475 19.4769 15.4642 20.0439C15.4344 21.3109 15.8512 22.4011 16.7027 23.285C18.7261 25.383 22.5021 26.5286 26.5635 26.2754C26.8619 26.1327 27.7743 25.7291 28.6573 25.6652C29.4935 25.6051 29.9926 25.7466 30.1681 25.8101L30.1762 25.813L30.1911 25.8186L30.2086 25.825L30.2785 25.8186L30.3561 25.8109L30.5287 25.7939L30.5973 25.787H30.6122C31.2941 25.7171 32.2189 25.6123 32.7525 25.5109H32.7631C32.7751 25.5109 33.8644 25.3792 35.2776 24.8222C34.1281 24.4075 33.0815 23.7499 32.2091 22.8942C31.4675 22.1697 31.1125 21.5619 31.0976 21.5368C31.0829 21.5114 31.0759 21.4822 31.0777 21.4529C31.0795 21.4235 31.0899 21.3954 31.1076 21.3719C31.1253 21.3485 31.1495 21.3308 31.1772 21.3211C31.205 21.3114 31.2349 21.31 31.2634 21.3173C31.7083 21.4294 32.5811 21.4554 33.4284 20.3656C33.8017 19.8858 34.0898 18.5416 33.7075 17.7395C33.5081 17.3202 33.1488 17.1024 32.6395 17.0918C30.8837 17.056 30.7669 18.4594 30.7644 18.519C30.7622 18.552 30.7491 18.5834 30.7272 18.6081C30.7053 18.6329 30.6757 18.6497 30.6432 18.6558C30.6107 18.662 30.5771 18.6571 30.5477 18.6421C30.5182 18.6271 30.4946 18.6027 30.4805 18.5727C30.296 18.1806 30.1247 17.8273 29.9589 17.4851C29.346 16.2198 28.9028 15.3052 28.7754 14.4512C28.6258 13.4552 28.7528 12.1924 28.8227 11.6414C28.3067 11.8633 27.7703 12.0346 27.2211 12.1528C26.1297 12.397 24.3504 12.6088 22.0755 12.2312C22.052 12.2282 22.0296 12.2197 22.0101 12.2062C21.9906 12.1928 21.9746 12.175 21.9634 12.1541C21.9521 12.1333 21.9461 12.1101 21.9456 12.0864C21.9452 12.0628 21.9504 12.0394 21.9608 12.0181C22.1105 11.7119 22.3182 11.4376 22.5724 11.2105C21.553 11.3235 19.4506 11.4594 17.2533 11.0247Z" fill="#5B2E66"/>
<path d="M30.1934 26.1266C30.1538 26.1295 30.1148 26.1165 30.0848 26.0905C30.0548 26.0645 30.0364 26.0277 30.0336 25.9881C30.0308 25.9486 30.0438 25.9095 30.0697 25.8795C30.0957 25.8496 30.1325 25.8312 30.1721 25.8283H30.1746L30.1951 25.8262C30.2147 25.8246 30.2343 25.8268 30.253 25.8329C30.2717 25.8389 30.289 25.8486 30.3039 25.8613C30.3188 25.8741 30.331 25.8897 30.3398 25.9072C30.3487 25.9247 30.354 25.9438 30.3553 25.9634C30.3556 25.9674 30.3556 25.9714 30.3553 25.9754C30.3552 26.0129 30.341 26.0489 30.3155 26.0764C30.29 26.1039 30.2551 26.1208 30.2177 26.1237H30.21C30.2046 26.1251 30.199 26.1261 30.1934 26.1266Z" fill="#5B2E66"/>
<path d="M31.4313 20.3959C31.4262 20.3963 31.4211 20.3963 31.416 20.3959C31.3965 20.3939 31.3776 20.3881 31.3604 20.3788C31.3432 20.3696 31.328 20.357 31.3156 20.3418C31.3033 20.3267 31.2941 20.3092 31.2885 20.2905C31.2829 20.2717 31.281 20.2521 31.283 20.2326C31.283 20.213 31.5042 18.2573 33.3287 18.3715C33.3682 18.374 33.4052 18.3921 33.4314 18.4218C33.4576 18.4516 33.4709 18.4905 33.4684 18.5301C33.466 18.5696 33.4479 18.6066 33.4181 18.6328C33.3884 18.659 33.3495 18.6723 33.3099 18.6698C31.7757 18.5739 31.5869 20.1947 31.5796 20.2637C31.5754 20.3001 31.5579 20.3336 31.5306 20.358C31.5032 20.3823 31.4679 20.3958 31.4313 20.3959Z" fill="#5B2E66"/>
<path d="M32.8942 19.6497C32.8683 19.6497 32.8429 19.6429 32.8204 19.6301C32.5155 19.4638 32.1789 19.3636 31.8326 19.336C31.813 19.3352 31.7937 19.3306 31.776 19.3223C31.7582 19.3141 31.7422 19.3024 31.7289 19.288C31.7156 19.2736 31.7053 19.2567 31.6986 19.2383C31.6918 19.2199 31.6888 19.2003 31.6896 19.1807C31.6904 19.1611 31.6951 19.1419 31.7033 19.1241C31.7115 19.1063 31.7232 19.0903 31.7376 19.077C31.7521 19.0638 31.769 19.0535 31.7874 19.0467C31.8058 19.04 31.8253 19.0369 31.8449 19.0377C32.2389 19.0663 32.622 19.1798 32.9679 19.3706C32.9965 19.3869 33.0188 19.4121 33.0315 19.4425C33.0443 19.4728 33.0466 19.5065 33.0382 19.5383C33.0298 19.5701 33.0111 19.5982 32.985 19.6183C32.959 19.6383 32.9271 19.6492 32.8942 19.6493V19.6497Z" fill="#5B2E66"/>
<path d="M18.713 22.4509C18.4973 22.4509 18.2365 22.361 18.0434 22.006C17.9066 21.755 17.8197 21.403 17.7856 20.9597C17.7838 20.9361 17.7876 20.9123 17.7968 20.8905C17.806 20.8686 17.8202 20.8492 17.8384 20.834C17.8566 20.8187 17.8781 20.808 17.9013 20.8028C17.9244 20.7975 17.9484 20.7979 17.9714 20.8038C18.2229 20.8677 18.6716 20.9235 19.3833 20.8225C19.3914 20.8219 19.3995 20.8219 19.4076 20.8225C19.4396 20.8226 19.4707 20.8329 19.4964 20.8519C19.5221 20.8709 19.541 20.8976 19.5504 20.9282C19.5589 20.9559 19.7541 21.6152 19.4652 22.064C19.3292 22.2771 19.1136 22.4049 18.8238 22.445C18.787 22.4493 18.75 22.4513 18.713 22.4509ZM18.1031 21.1349C18.141 21.4396 18.2105 21.6889 18.3055 21.8632C18.4645 22.156 18.655 22.1658 18.7846 22.1475C18.9861 22.1198 19.1255 22.0397 19.215 21.9024C19.3671 21.6659 19.3288 21.3182 19.2934 21.1353C18.7624 21.1997 18.3729 21.1809 18.1031 21.1349Z" fill="#5B2E66"/>
<path d="M17.9338 21.0956C17.9215 21.0954 17.9092 21.0939 17.8972 21.0909C17.6513 21.0282 17.5383 20.9511 17.5264 20.9426C17.51 20.9314 17.4959 20.9171 17.4851 20.9004C17.4742 20.8837 17.4668 20.8651 17.4633 20.8455C17.4598 20.8259 17.4602 20.8059 17.4645 20.7865C17.4689 20.7671 17.4771 20.7487 17.4886 20.7325C17.5001 20.7164 17.5148 20.7026 17.5317 20.6922C17.5486 20.6817 17.5674 20.6748 17.5871 20.6717C17.6067 20.6686 17.6268 20.6695 17.6461 20.6743C17.6654 20.6791 17.6835 20.6877 17.6994 20.6996C17.7843 20.7468 17.8756 20.7813 17.9705 20.8019C18.0056 20.8109 18.0363 20.8325 18.0567 20.8625C18.0771 20.8925 18.0859 20.9289 18.0814 20.9649C18.0769 21.0009 18.0594 21.034 18.0323 21.0581C18.0051 21.0821 17.9701 21.0954 17.9338 21.0956Z" fill="#5B2E66"/>
<path d="M17.9062 14.408C17.9161 14.3628 17.9263 14.3181 17.9374 14.2729C17.9484 14.2277 17.9625 14.1843 17.9753 14.1391C17.9881 14.0939 18.006 14.0539 18.0217 14.0078C18.0375 13.9618 18.0558 13.9226 18.075 13.8779C18.1515 13.7029 18.2519 13.5394 18.3733 13.392C18.4992 13.2376 18.654 13.1092 18.8289 13.014C19.0148 12.9161 19.2228 12.8678 19.4328 12.8738C19.5389 12.8787 19.6439 12.8965 19.7456 12.9271C19.8463 12.9582 19.943 13.0011 20.0337 13.0549C20.1234 13.1063 20.2075 13.1669 20.2847 13.2356C20.324 13.2684 20.3593 13.3046 20.396 13.34C20.4326 13.3754 20.4659 13.4133 20.4974 13.4525C20.7462 13.7595 20.9277 14.1154 21.0301 14.4971C21.0823 14.6834 21.12 14.8735 21.1431 15.0656C21.1648 15.2567 21.1732 15.4491 21.1682 15.6414C21.159 16.0257 21.09 16.4063 20.9636 16.7695C20.8358 17.1304 20.6444 17.4765 20.37 17.7497C20.2343 17.8878 20.0738 17.9991 19.8969 18.0778C19.809 18.1149 19.7172 18.1421 19.6233 18.1588C19.5307 18.1723 19.4368 18.1738 19.3437 18.1635C19.4336 18.1508 19.5217 18.1283 19.6067 18.0966C19.6889 18.0643 19.7674 18.0232 19.8407 17.9738C19.9838 17.8744 20.1095 17.752 20.2127 17.6116C20.4157 17.3287 20.5621 17.0091 20.6436 16.6706C20.7289 16.3329 20.7693 15.9854 20.7638 15.6371C20.762 15.4636 20.7494 15.2904 20.7258 15.1185C20.7029 14.9476 20.6676 14.7787 20.6201 14.613C20.5752 14.4486 20.5159 14.2884 20.4429 14.1344C20.3725 13.9833 20.2858 13.8404 20.1842 13.7082C20.1599 13.675 20.1322 13.6452 20.1062 13.6132C20.0802 13.5812 20.0512 13.5531 20.0209 13.528C19.964 13.4722 19.9021 13.4217 19.836 13.3771C19.7079 13.2892 19.5611 13.2324 19.4072 13.2113C19.2505 13.1937 19.0918 13.2143 18.9448 13.2714C18.7894 13.3354 18.6465 13.4264 18.5229 13.5403C18.3927 13.6594 18.2767 13.7933 18.1773 13.9392C18.1517 13.9763 18.1257 14.013 18.1031 14.0522C18.0806 14.0914 18.055 14.1289 18.0341 14.1689C18.0132 14.209 17.9885 14.2482 17.968 14.2891C17.9476 14.33 17.9276 14.3667 17.9062 14.408Z" fill="#5B2E66"/>
<path d="M26.9552 31.8897C26.9189 31.8898 26.8837 31.8766 26.8564 31.8526C26.8291 31.8287 26.8115 31.7955 26.8069 31.7595C26.8023 31.7234 26.811 31.6869 26.8314 31.6568C26.8518 31.6267 26.8825 31.6051 26.9177 31.5961C26.9284 31.5935 28.0058 31.3127 28.5598 31.123C28.5969 31.1112 28.6373 31.1143 28.6721 31.1319C28.707 31.1494 28.7336 31.1799 28.7462 31.2167C28.7589 31.2536 28.7566 31.294 28.7398 31.3292C28.723 31.3645 28.6931 31.3917 28.6565 31.4052C28.0918 31.5982 27.0371 31.8739 26.9944 31.885C26.9816 31.8884 26.9685 31.89 26.9552 31.8897Z" fill="#5B2E66"/>
<path d="M30.4697 30.5793C30.4373 30.5783 30.4061 30.5667 30.3808 30.5464C30.3555 30.526 30.3376 30.498 30.3297 30.4665C30.3218 30.4351 30.3244 30.4019 30.337 30.372C30.3497 30.3421 30.3717 30.3172 30.3998 30.301C30.4135 30.2933 31.2471 29.8322 31.3664 29.1409C31.3697 29.1216 31.3768 29.1032 31.3873 29.0866C31.3978 29.07 31.4114 29.0557 31.4274 29.0444C31.4434 29.0331 31.4615 29.0251 31.4806 29.0207C31.4997 29.0164 31.5195 29.0159 31.5388 29.0193C31.5581 29.0226 31.5765 29.0297 31.5931 29.0402C31.6097 29.0506 31.624 29.0642 31.6353 29.0803C31.6466 29.0963 31.6547 29.1143 31.659 29.1335C31.6633 29.1526 31.6638 29.1723 31.6605 29.1916C31.5156 30.0278 30.5818 30.5418 30.5417 30.5631C30.5195 30.5746 30.4947 30.5802 30.4697 30.5793Z" fill="#5B2E66"/>
<path d="M36.0537 31.1006C36.0243 31.1006 35.9955 31.092 35.971 31.0756C35.9465 31.0593 35.9274 31.0362 35.9161 31.009C35.902 30.9758 34.502 27.6746 32.0732 25.88C32.0414 25.8565 32.0202 25.8213 32.0143 25.7822C32.0085 25.743 32.0184 25.7032 32.0419 25.6714C32.0654 25.6395 32.1006 25.6184 32.1397 25.6125C32.1788 25.6066 32.2187 25.6165 32.2505 25.64C34.7462 27.4841 36.1769 30.8598 36.1909 30.8939C36.2004 30.9166 36.2041 30.9412 36.2018 30.9656C36.1995 30.9901 36.1912 31.0135 36.1776 31.034C36.164 31.0544 36.1456 31.0712 36.124 31.0828C36.1024 31.0945 36.0782 31.1006 36.0537 31.1006Z" fill="#5B2E66"/>
<path d="M31.0367 41.7465C31.0107 41.7463 30.9852 41.7392 30.9628 41.726C30.9403 41.7129 30.9217 41.6941 30.9088 41.6715C30.8602 41.5863 29.7095 39.5897 29.3247 38.7897C29.3144 38.7719 29.3079 38.7521 29.3056 38.7317C29.3033 38.7112 29.3053 38.6905 29.3114 38.6708C29.3175 38.6512 29.3276 38.633 29.3411 38.6174C29.3546 38.6019 29.3711 38.5893 29.3897 38.5804C29.4083 38.5716 29.4285 38.5666 29.4491 38.566C29.4697 38.5653 29.4902 38.5689 29.5093 38.5766C29.5284 38.5843 29.5457 38.5958 29.5602 38.6105C29.5746 38.6251 29.5859 38.6426 29.5932 38.6619C29.9738 39.4516 31.1556 41.504 31.1675 41.5245C31.1773 41.5415 31.1836 41.5602 31.1861 41.5797C31.1886 41.5991 31.1873 41.6188 31.1822 41.6377C31.1771 41.6567 31.1683 41.6744 31.1564 41.6899C31.1444 41.7054 31.1295 41.7184 31.1125 41.7282C31.0893 41.741 31.0631 41.7474 31.0367 41.7465Z" fill="#5B2E66"/>
<path d="M29.0694 37.9361C29.0391 37.936 29.0096 37.9268 28.9847 37.9096C28.9598 37.8924 28.9407 37.8681 28.93 37.8398C28.9176 37.8086 28.6338 37.0628 28.543 36.594C28.5367 36.5557 28.5455 36.5164 28.5677 36.4844C28.5899 36.4525 28.6237 36.4305 28.6618 36.4231C28.7 36.4157 28.7395 36.4235 28.772 36.4449C28.8045 36.4662 28.8274 36.4994 28.8358 36.5374C28.9211 36.9806 29.2057 37.726 29.2083 37.7332C29.2225 37.7701 29.2215 37.811 29.2055 37.8471C29.1895 37.8833 29.1599 37.9116 29.1231 37.9258C29.106 37.9326 29.0877 37.9361 29.0694 37.9361Z" fill="#5B2E66"/>
<path d="M11.9656 43.1716C11.1855 43.1722 10.413 43.0185 9.6924 42.7195C8.97185 42.4206 8.31748 41.9821 7.76693 41.4294C6.77342 40.4369 6.15806 39.1284 6.02727 37.7302C6.00895 37.5435 6 37.3513 6 37.1595C6.00068 36.1727 6.24237 35.201 6.70404 34.3289C7.23552 33.3253 8.04096 32.4933 9.02671 31.9295C9.92249 31.4184 10.936 31.1494 11.9673 31.1492C12.1467 31.1492 12.3279 31.1573 12.506 31.1739C13.7182 31.2817 14.8672 31.7626 15.7948 32.5504C16.7253 33.3322 17.3954 34.3789 17.716 35.5511C18.0467 36.7441 18.0024 38.0098 17.5892 39.1767C17.176 40.3437 16.4138 41.3552 15.4061 42.0742C14.4024 42.7911 13.1991 43.175 11.9656 43.1716ZM9.17587 32.1861L9.17161 32.1886C8.23466 32.7241 7.4692 33.5148 6.96444 34.4687C6.52619 35.2989 6.29752 36.2237 6.29832 37.1625C6.29832 37.3449 6.30685 37.5273 6.32389 37.705C6.44844 39.0341 7.03332 40.2778 7.97746 41.2214C8.91872 42.1652 10.1642 42.7446 11.4925 42.8564C12.8207 42.9682 14.1456 42.6053 15.2314 41.8321C15.9754 41.302 16.5816 40.6014 16.9994 39.789C17.4172 38.9766 17.6344 38.076 17.6329 37.1625C17.6333 36.6453 17.564 36.1304 17.4271 35.6317C17.1223 34.5176 16.4853 33.5227 15.6009 32.7797C14.7199 32.0316 13.6287 31.5749 12.4775 31.4722C12.307 31.4564 12.1365 31.4488 11.966 31.4488C10.9877 31.448 10.0261 31.7021 9.17587 32.1861Z" fill="#5B2E66"/>
<path d="M12.0151 42.587C9.01989 42.587 6.58301 40.1309 6.58301 37.1119C6.58301 34.0928 9.01989 31.6372 12.0151 31.6372C15.0102 31.6372 17.4471 34.0941 17.4471 37.1119C17.4471 40.1296 15.0102 42.587 12.0151 42.587ZM12.0151 31.8503C9.13708 31.8503 6.7961 34.2109 6.7961 37.1119C6.7961 40.0129 9.13708 42.3739 12.0151 42.3739C14.893 42.3739 17.234 40.0133 17.234 37.1119C17.234 34.2105 14.8926 31.8503 12.0151 31.8503Z" fill="#5B2E66"/>
<path d="M9.85057 41.3097C9.83429 41.3098 9.81822 41.306 9.80369 41.2986C9.79114 41.2925 9.77991 41.2839 9.77067 41.2734C9.76143 41.263 9.75434 41.2508 9.74983 41.2375C9.74531 41.2243 9.74346 41.2103 9.74436 41.1964C9.74527 41.1824 9.74892 41.1688 9.75511 41.1563L10.8321 38.9627C10.8445 38.9374 10.8665 38.918 10.8932 38.9088C10.92 38.8997 10.9492 38.9015 10.9746 38.9139C11 38.9264 11.0194 38.9484 11.0285 38.9751C11.0377 39.0019 11.0358 39.0311 11.0234 39.0565L9.94646 41.25C9.93756 41.2679 9.92388 41.2829 9.90695 41.2934C9.89003 41.304 9.87051 41.3096 9.85057 41.3097Z" fill="#5B2E66"/>
<path d="M15.7834 40.1231C15.759 40.1232 15.7353 40.1148 15.7165 40.0993L13.7199 38.4836C13.7087 38.4749 13.6993 38.4641 13.6924 38.4518C13.6855 38.4394 13.681 38.4258 13.6794 38.4118C13.6778 38.3977 13.679 38.3835 13.6829 38.3699C13.6869 38.3563 13.6935 38.3436 13.7024 38.3326C13.7112 38.3216 13.7222 38.3124 13.7347 38.3057C13.7472 38.299 13.7608 38.2948 13.7749 38.2935C13.789 38.2921 13.8032 38.2935 13.8167 38.2977C13.8303 38.3019 13.8428 38.3087 13.8537 38.3178L15.8503 39.9326C15.8675 39.9464 15.88 39.9653 15.8861 39.9865C15.8922 40.0078 15.8915 40.0303 15.8841 40.0512C15.8768 40.072 15.8631 40.09 15.8451 40.1028C15.827 40.1155 15.8055 40.1223 15.7834 40.1223V40.1231Z" fill="#5B2E66"/>
<path d="M14.0615 35.6282C14.0379 35.6282 14.015 35.6204 13.9964 35.606C13.9778 35.5915 13.9645 35.5714 13.9585 35.5486C13.9526 35.5258 13.9544 35.5017 13.9636 35.48C13.9728 35.4583 13.9889 35.4403 14.0095 35.4288L15.8702 34.3923C15.8824 34.3855 15.8958 34.3812 15.9097 34.3796C15.9236 34.378 15.9377 34.3792 15.9512 34.383C15.9646 34.3868 15.9772 34.3933 15.9882 34.402C15.9991 34.4107 16.0083 34.4214 16.0151 34.4337C16.0219 34.4459 16.0262 34.4593 16.0278 34.4732C16.0294 34.4871 16.0282 34.5012 16.0244 34.5147C16.0206 34.5281 16.0141 34.5407 16.0054 34.5517C15.9967 34.5626 15.9859 34.5718 15.9737 34.5786L14.1135 35.6167C14.0974 35.6248 14.0795 35.6288 14.0615 35.6282Z" fill="#5B2E66"/>
<path d="M9.5569 36.57H9.54965L7.51381 36.4328C7.48555 36.4309 7.45919 36.4179 7.44053 36.3966C7.42187 36.3753 7.41243 36.3475 7.41429 36.3192C7.41616 36.291 7.42917 36.2646 7.45047 36.2459C7.47177 36.2273 7.49961 36.2178 7.52787 36.2197L9.565 36.3569C9.59325 36.3579 9.61997 36.3701 9.63927 36.3907C9.65857 36.4114 9.66888 36.4389 9.66792 36.4671C9.66696 36.4954 9.65481 36.5221 9.63415 36.5414C9.61349 36.5607 9.58601 36.571 9.55775 36.57H9.5569Z" fill="#5B2E66"/>
<path d="M11.4566 34.4158C11.4321 34.4157 11.4084 34.4072 11.3895 34.3916C11.3705 34.3761 11.3575 34.3545 11.3526 34.3305L10.9806 32.5875C10.9767 32.5606 10.9833 32.5332 10.9989 32.511C11.0145 32.4888 11.0381 32.4734 11.0647 32.468C11.0913 32.4625 11.119 32.4675 11.1421 32.4818C11.1652 32.496 11.182 32.5186 11.189 32.5449L11.561 34.2879C11.5641 34.3017 11.5644 34.316 11.5619 34.3299C11.5594 34.3438 11.5542 34.3571 11.5466 34.369C11.5389 34.3809 11.529 34.3912 11.5173 34.3992C11.5057 34.4072 11.4926 34.4129 11.4788 34.4158C11.4714 34.4164 11.464 34.4164 11.4566 34.4158Z" fill="#5B2E66"/>
<path d="M19.4043 20.9704C19.3536 20.9811 18.6304 21.1447 18.174 21.9348C18.0188 21.6506 17.9575 21.2559 17.9336 20.9482C18.211 21.0186 18.6798 21.0731 19.4043 20.9704Z" fill="#5B2E66"/>
<path d="M11.4561 34.3093L9.55664 36.4636L10.9277 39.0096L13.7869 38.4023L14.0609 35.5235L11.4561 34.3093Z" fill="#5B2E66"/>
<path d="M12.9646 31.8417L11.0843 32.5662L9.03613 32.6613L9.09921 32.0591H9.10219C9.97407 31.5605 10.9613 31.2988 11.9657 31.3001C12.1425 31.3001 12.3181 31.3082 12.4911 31.3239L12.9646 31.8417Z" fill="#5B2E66"/>
<path d="M7.52001 36.3263L6.81511 38.244L6.17584 37.7164C6.15823 37.5332 6.14942 37.3475 6.14942 37.1594C6.14787 36.1964 6.38306 35.2477 6.83429 34.3969L7.46801 34.3147L7.52001 36.3263Z" fill="#5B2E66"/>
<path d="M11.4775 42.4363L10.8156 42.909C9.70098 42.6818 8.67809 42.1309 7.875 41.3253V40.4866L9.85331 41.2026L11.4775 42.4363Z" fill="#5B2E66"/>
<path d="M17.3912 39.278C16.9782 40.3538 16.2572 41.284 15.3183 41.9523L14.668 41.789L15.7846 40.0166L17.1168 38.6375L17.3912 39.278Z" fill="#5B2E66"/>
<path d="M17.5714 35.5909L17.2347 36.072L15.9221 34.4858L15.002 32.6643H15.6962C16.6028 33.4278 17.2566 34.4482 17.5714 35.5909Z" fill="#5B2E66"/>
<path d="M18.8974 17.8768C19.5138 17.8768 20.0136 16.9052 20.0136 15.7067C20.0136 14.5082 19.5138 13.5366 18.8974 13.5366C18.281 13.5366 17.7812 14.5082 17.7812 15.7067C17.7812 16.9052 18.281 17.8768 18.8974 17.8768Z" fill="#5B2E66"/>
<path d="M18.7228 14.7961C18.766 14.5215 18.6644 14.2774 18.4958 14.2509C18.3273 14.2244 18.1556 14.4255 18.1124 14.7001C18.0692 14.9747 18.1708 15.2188 18.3394 15.2453C18.508 15.2718 18.6796 15.0707 18.7228 14.7961Z" fill="white"/>
<path d="M17.9424 47.9448C17.9185 47.9449 17.895 47.9392 17.8738 47.9283C17.8526 47.9174 17.8343 47.9016 17.8205 47.8821L17.128 46.9058C17.1146 46.8899 17.1047 46.8715 17.0988 46.8516C17.093 46.8317 17.0913 46.8109 17.094 46.7903C17.0967 46.7698 17.1036 46.75 17.1143 46.7323C17.1251 46.7146 17.1394 46.6993 17.1564 46.6874C17.1733 46.6755 17.1926 46.6673 17.2129 46.6633C17.2332 46.6592 17.2542 46.6595 17.2744 46.664C17.2946 46.6685 17.3137 46.6772 17.3304 46.6894C17.347 46.7017 17.361 46.7173 17.3713 46.7353L18.0638 47.7117C18.0798 47.7339 18.0892 47.7602 18.0912 47.7875C18.0932 47.8148 18.0876 47.8421 18.075 47.8664C18.0625 47.8908 18.0434 47.9111 18.02 47.9253C17.9966 47.9395 17.9698 47.947 17.9424 47.9469V47.9448Z" fill="#5B2E66"/>
<path d="M14.3801 44.2332C14.3546 44.2334 14.3295 44.2271 14.3071 44.2149C14.2847 44.2027 14.2658 44.1849 14.2522 44.1633L13.4399 42.8703C13.4284 42.8537 13.4203 42.835 13.4162 42.8152C13.4121 42.7955 13.412 42.775 13.4161 42.7553C13.4201 42.7355 13.4281 42.7167 13.4396 42.7001C13.451 42.6835 13.4658 42.6694 13.4829 42.6586C13.5 42.6479 13.5191 42.6407 13.539 42.6376C13.559 42.6344 13.5794 42.6354 13.599 42.6403C13.6185 42.6453 13.6369 42.6542 13.6529 42.6665C13.669 42.6788 13.6823 42.6942 13.6922 42.7118L14.505 44.0044C14.5192 44.0271 14.527 44.0532 14.5276 44.08C14.5283 44.1067 14.5218 44.1332 14.5087 44.1566C14.4956 44.18 14.4765 44.1994 14.4534 44.2129C14.4302 44.2264 14.4039 44.2334 14.3771 44.2332H14.3801Z" fill="#5B2E66"/>
<path d="M10.3695 45.1117C10.3457 45.1117 10.3223 45.106 10.3012 45.0951C10.28 45.0842 10.2618 45.0684 10.2481 45.049L7.06964 40.5976C7.04778 40.5654 7.0394 40.5258 7.0463 40.4875C7.05321 40.4491 7.07484 40.415 7.10657 40.3924C7.1383 40.3698 7.17762 40.3605 7.21612 40.3665C7.25461 40.3725 7.28922 40.3934 7.31256 40.4246L10.4901 44.8764C10.506 44.8987 10.5154 44.925 10.5174 44.9523C10.5194 44.9796 10.5138 45.0069 10.5012 45.0313C10.4887 45.0556 10.4697 45.076 10.4463 45.0903C10.4229 45.1045 10.3961 45.1121 10.3687 45.1121L10.3695 45.1117Z" fill="#5B2E66"/>
<path d="M13.4846 46.7132C13.459 46.7133 13.4337 46.7067 13.4113 46.6942C13.3889 46.6816 13.3701 46.6635 13.3568 46.6416L11.8383 44.1621C11.8176 44.1282 11.8113 44.0874 11.8206 44.0488C11.83 44.0102 11.8543 43.9769 11.8882 43.9562C11.9221 43.9356 11.9628 43.9292 12.0014 43.9385C12.04 43.9479 12.0733 43.9722 12.094 44.0061L13.6125 46.486C13.6262 46.5087 13.6337 46.5346 13.6341 46.5612C13.6346 46.5877 13.628 46.6138 13.6149 46.637C13.6019 46.6601 13.583 46.6793 13.5601 46.6927C13.5372 46.7061 13.5112 46.7132 13.4846 46.7132Z" fill="#5B2E66"/>
<path d="M19.2764 48.5875C19.2507 48.5876 19.2255 48.5811 19.2031 48.5685C19.1807 48.556 19.1619 48.5379 19.1486 48.5159L18.2659 47.0746C18.2557 47.0578 18.2489 47.0392 18.2459 47.0198C18.2429 47.0003 18.2437 46.9805 18.2484 46.9614C18.253 46.9423 18.2614 46.9243 18.273 46.9085C18.2846 46.8926 18.2992 46.8792 18.316 46.869C18.3328 46.8588 18.3514 46.8519 18.3709 46.8489C18.3903 46.8459 18.4101 46.8468 18.4292 46.8514C18.4483 46.8561 18.4663 46.8644 18.4821 46.876C18.498 46.8876 18.5114 46.9023 18.5216 46.919L19.4043 48.3604C19.418 48.3831 19.4255 48.409 19.4259 48.4355C19.4263 48.462 19.4197 48.4882 19.4067 48.5113C19.3937 48.5344 19.3748 48.5537 19.3519 48.5671C19.329 48.5805 19.3029 48.5875 19.2764 48.5875Z" fill="#5B2E66"/>
<path d="M18.4622 12.1105C18.4424 12.115 18.4216 12.1135 18.4027 12.1061C18.3838 12.0987 18.3675 12.0858 18.3559 12.0691C18.3444 12.0523 18.3381 12.0325 18.3379 12.0122C18.3377 11.9919 18.3436 11.9719 18.3548 11.955C18.3976 11.8916 18.4459 11.8321 18.4993 11.7773C18.6069 11.6658 18.7309 11.5714 18.8671 11.4973C19.1506 11.3425 19.4736 11.2752 19.7953 11.3038C19.9562 11.3171 20.1142 11.3544 20.2641 11.4146C20.2824 11.4218 20.3011 11.4287 20.3195 11.4363L20.3732 11.4623C20.409 11.4798 20.4448 11.4968 20.4784 11.5164C20.5463 11.5553 20.6113 11.599 20.6728 11.6473C20.703 11.6711 20.7337 11.6946 20.7623 11.7202C20.7908 11.7457 20.8181 11.773 20.845 11.8003C20.8979 11.8537 20.9472 11.9107 20.9924 11.9708C21.0364 12.0321 21.0768 12.096 21.1134 12.1621L21.116 12.1676C21.125 12.1858 21.1283 12.2062 21.1256 12.2263C21.1229 12.2464 21.1142 12.2652 21.1008 12.2803C21.0873 12.2955 21.0697 12.3062 21.0501 12.3113C21.0305 12.3164 21.0098 12.3155 20.9907 12.3087H20.9877C20.9528 12.2985 20.9195 12.2865 20.8863 12.2759C20.853 12.2652 20.8219 12.2512 20.7883 12.2422L20.6924 12.2107L20.6459 12.1945L20.599 12.1804C20.5675 12.1711 20.5377 12.1608 20.5074 12.151C20.4772 12.1412 20.4465 12.1344 20.4171 12.125C20.3583 12.1054 20.2986 12.0931 20.2411 12.0764C20.2125 12.0688 20.1831 12.0641 20.1558 12.0568C20.1277 12.0493 20.0993 12.0432 20.0706 12.0385C19.96 12.0155 19.8482 11.9993 19.7356 11.9899C19.5057 11.9701 19.2743 11.9757 19.0456 12.0065C18.9242 12.0219 18.798 12.0423 18.6668 12.0688C18.6007 12.0807 18.5325 12.0952 18.4622 12.1105Z" fill="#5B2E66"/>
<path d="M35.7087 24.9521C35.6942 24.9521 35.6799 24.9499 35.6661 24.9457C34.0466 24.4599 32.8938 23.5602 32.2102 22.8911C31.4687 22.1666 31.1137 21.5589 31.0987 21.5337C31.084 21.5083 31.077 21.4791 31.0788 21.4498C31.0806 21.4205 31.091 21.3923 31.1087 21.3689C31.1264 21.3455 31.1506 21.3278 31.1784 21.3181C31.2061 21.3083 31.236 21.307 31.2645 21.3143C32.301 21.5759 33.066 20.8305 33.4295 20.3626C33.8028 19.8827 34.0909 18.5386 33.7086 17.7365C33.5092 17.3171 33.1499 17.0994 32.6406 17.0887C30.8848 17.0529 30.768 18.4563 30.7655 18.516C30.7633 18.549 30.7502 18.5803 30.7283 18.6051C30.7064 18.6299 30.6768 18.6466 30.6444 18.6528C30.6119 18.6589 30.5782 18.6541 30.5488 18.6391C30.5193 18.624 30.4957 18.5996 30.4816 18.5697C30.2971 18.1776 30.1258 17.8243 29.96 17.4821C29.3471 16.2168 28.9039 15.3022 28.7765 14.4481C28.6269 13.4522 28.7539 12.1894 28.8238 11.6383C28.3078 11.8603 27.7714 12.0316 27.2222 12.1498C26.1308 12.394 24.3515 12.6058 22.0766 12.2282C22.0534 12.2251 22.0313 12.2167 22.0121 12.2035C21.9928 12.1903 21.9769 12.1728 21.9656 12.1524C21.9544 12.1319 21.9481 12.1091 21.9473 12.0858C21.9465 12.0624 21.9512 12.0392 21.9611 12.0181C22.1107 11.7118 22.3184 11.4375 22.5726 11.2105C21.5323 11.3255 19.3712 11.4662 17.1295 10.9999C17.0622 10.9863 16.9944 10.9714 16.9267 10.9573C15.1278 10.5554 13.6302 9.64085 13.2002 8.68153C13.0126 8.26345 13.0527 7.87691 13.3161 7.56495C13.3993 7.4679 13.496 7.38336 13.6033 7.31393C16.489 4.90091 20.9655 3.83547 22.0753 3.59852C20.8927 1.97137 21.4105 0.184416 21.436 0.105999C21.4424 0.0838126 21.4538 0.0634019 21.4693 0.0463807C21.4849 0.0293595 21.5042 0.0161942 21.5258 0.00792622C21.5473 -0.000341805 21.5705 -0.00348585 21.5934 -0.00125789C21.6164 0.000970076 21.6385 0.00850936 21.6581 0.0207637C23.5422 1.20383 26.1414 1.88188 30.3499 2.28802C33.8923 2.62897 36.261 3.62963 37.5907 5.34499C37.863 5.69701 38.3552 6.5515 38.6497 7.07527C38.6965 6.69172 38.783 6.31408 38.908 5.94846C39.2945 4.84977 39.9926 4.26804 40.9268 4.26634H40.9353C42.5318 4.26634 42.8957 5.02024 42.9106 5.05221C42.9194 5.07131 42.9241 5.09206 42.9243 5.11309C42.9245 5.13413 42.9203 5.15496 42.9119 5.17424C42.9035 5.19352 42.8911 5.2108 42.8755 5.22495C42.8599 5.2391 42.8416 5.2498 42.8216 5.25635C41.982 5.5308 40.8058 6.05457 39.9709 6.98918C39.7377 7.24261 39.5426 7.52858 39.3917 7.83812C39.8409 7.9289 40.9545 8.25237 41.5102 9.29821C41.7992 9.84073 42.3255 11.2761 42.4636 13.2126C42.6327 15.5926 42.1508 17.9736 41.0696 20.1005C39.7028 22.7939 37.4313 24.2187 35.7692 24.9397C35.7501 24.948 35.7295 24.9523 35.7087 24.9521ZM31.5424 21.6612C32.0112 22.3098 33.3639 23.925 35.6993 24.6444C37.3137 23.9361 39.4923 22.5527 40.8049 19.9654C43.2162 15.2191 41.8993 10.6607 41.2481 9.43884C40.6319 8.27964 39.1825 8.10534 39.168 8.10363C39.1461 8.10136 39.1249 8.09429 39.1061 8.08291C39.0872 8.07153 39.0711 8.05614 39.0589 8.03782C39.0467 8.0195 39.0387 7.99871 39.0354 7.97694C39.0322 7.95516 39.0338 7.93294 39.0401 7.91185C39.0461 7.89182 39.1965 7.41195 39.7305 6.80891C40.1963 6.283 41.0555 5.55978 42.5318 5.0407C42.3187 4.82761 41.8282 4.56722 40.9319 4.56722H40.9259C40.1196 4.56722 39.5358 5.06542 39.1901 6.04392C39.0229 6.541 38.9271 7.05928 38.9054 7.58327C38.9049 7.61618 38.8934 7.64797 38.8729 7.67371C38.8524 7.69944 38.824 7.71766 38.792 7.72554C38.7601 7.73342 38.7264 7.73051 38.6963 7.71727C38.6661 7.70402 38.6412 7.68118 38.6254 7.65231C38.6165 7.63612 37.736 6.02432 37.3529 5.52995C36.0765 3.88363 33.7756 2.9209 30.321 2.5872C26.1934 2.18915 23.5874 1.5273 21.6781 0.385144C21.5801 0.898687 21.4279 2.34556 22.4576 3.60278C22.4743 3.62339 22.4853 3.64808 22.4893 3.67431C22.4933 3.70055 22.4903 3.72739 22.4805 3.75207C22.4708 3.77675 22.4546 3.7984 22.4337 3.81478C22.4129 3.83116 22.388 3.84168 22.3617 3.84527C22.3617 3.84527 22.3191 3.85124 22.2415 3.86957C21.3406 4.05453 16.7174 5.09823 13.7921 7.54747C13.7877 7.55136 13.783 7.55492 13.7781 7.55813C13.6921 7.61278 13.6146 7.67969 13.5479 7.75672C13.3608 7.97834 13.3348 8.24853 13.4759 8.55922C13.793 9.26582 15.0297 10.2264 16.9953 10.6654C17.0613 10.6803 17.1274 10.6944 17.1934 10.708C20.1937 11.3298 23.0453 10.8516 23.1655 10.8307H23.1714H23.1808C23.2163 10.8258 23.2524 10.8337 23.2825 10.8532C23.3126 10.8726 23.3347 10.9023 23.3447 10.9367C23.3548 10.9711 23.3521 11.008 23.3372 11.0405C23.3222 11.0731 23.2961 11.0993 23.2635 11.1141C22.7802 11.3306 22.4751 11.7359 22.3319 11.9665C26.4551 12.5934 28.9107 11.2676 28.9355 11.2539C28.9599 11.2403 28.9876 11.2339 29.0156 11.2353C29.0435 11.2367 29.0704 11.2459 29.0934 11.2619C29.1163 11.2779 29.1342 11.3 29.1452 11.3258C29.1562 11.3515 29.1597 11.3797 29.1554 11.4074C29.1524 11.4248 28.883 13.1645 29.0701 14.4051C29.1912 15.2148 29.6242 16.1098 30.2272 17.3534C30.3372 17.5805 30.4497 17.8124 30.5681 18.0574C30.6214 17.9048 30.6936 17.7595 30.7829 17.6248C31.0463 17.2319 31.5846 16.7674 32.647 16.7904C33.2697 16.8036 33.7299 17.0862 33.9784 17.6082C34.4127 18.5202 34.0931 19.9948 33.6652 20.5459C33.0528 21.333 32.3104 21.72 31.5424 21.6612Z" fill="#5B2E66"/>
</g>
<defs>
<clipPath id="clip0_1001_3460">
<rect width="54" height="54" fill="white"/>
</clipPath>
</defs>
</svg>
