<svg width="54" height="54" viewBox="0 0 54 54" fill="none" xmlns="http://www.w3.org/2000/svg">
<path d="M52.875 10.125C52.875 51.8738 53.0437 48.96 52.47 50.22C52.1151 51.0095 51.54 51.6799 50.8137 52.1508C50.0874 52.6218 49.2406 52.8732 48.375 52.875H5.625C4.43153 52.875 3.28693 52.4009 2.44302 51.557C1.59911 50.7131 1.125 49.5685 1.125 48.375V10.125H52.875Z" fill="#DAD7E5"/>
<path d="M52.875 10.125C52.875 51.8738 53.0437 48.96 52.47 50.22C51.8914 50.4863 51.262 50.6245 50.625 50.625H12.375C9.98805 50.625 7.69887 49.6768 6.01104 47.989C4.32321 46.3011 3.375 44.0119 3.375 41.625V10.125H52.875Z" fill="#EDEBF2"/>
<path d="M52.875 5.62495V10.125H1.125V5.62495C1.12681 4.75933 1.37824 3.9126 1.84915 3.18627C2.32007 2.45995 2.99047 1.88486 3.78 1.52995C5.04 0.956205 1.63125 1.12495 48.375 1.12495C49.5685 1.12495 50.7131 1.59906 51.557 2.44297C52.4009 3.28689 52.875 4.43148 52.875 5.62495Z" fill="#6FABE6"/>
<path d="M52.8749 5.625V7.875H6.74993C5.85483 7.875 4.99638 7.51942 4.36345 6.88649C3.73051 6.25355 3.37493 5.39511 3.37493 4.5C3.26213 3.49174 3.40129 2.47124 3.77993 1.53C4.35858 1.26367 4.98794 1.12551 5.62493 1.125H48.3749C49.5684 1.125 50.713 1.59911 51.5569 2.44302C52.4008 3.28693 52.8749 4.43153 52.8749 5.625Z" fill="#82BCF4"/>
<path d="M48.3746 6.74992C48.2072 6.75189 48.0415 6.71649 47.8896 6.6463C47.7376 6.57612 47.6032 6.47291 47.4962 6.34421C47.3892 6.2155 47.3123 6.06455 47.2711 5.90234C47.2298 5.74014 47.2252 5.57077 47.2577 5.40658C47.2902 5.24239 47.3589 5.08753 47.4589 4.95327C47.5588 4.819 47.6875 4.70874 47.8354 4.63049C47.9834 4.55225 48.1469 4.50801 48.3142 4.50099C48.4814 4.49397 48.6481 4.52435 48.8021 4.58992C49.0396 4.69107 49.2351 4.87085 49.3558 5.09909C49.4765 5.32733 49.515 5.59014 49.4649 5.84342C49.4148 6.0967 49.2791 6.32502 49.0805 6.49008C48.882 6.65514 48.6327 6.74689 48.3746 6.74992Z" fill="#425B72"/>
<path d="M43.8747 6.75003C43.6704 6.75033 43.4698 6.69496 43.2945 6.58985C43.1192 6.48475 42.9759 6.33388 42.8799 6.15345C42.7839 5.97302 42.7388 5.76985 42.7496 5.56575C42.7604 5.36166 42.8265 5.16435 42.941 4.99503C43.0335 4.85656 43.1556 4.74037 43.2985 4.65484C43.4414 4.5693 43.6015 4.51656 43.7673 4.50042C43.933 4.48427 44.1003 4.50513 44.257 4.56148C44.4137 4.61783 44.556 4.70827 44.6735 4.82628C44.8321 4.98363 44.9404 5.18467 44.9843 5.40376C45.0283 5.62285 45.006 5.85007 44.9203 6.05644C44.8346 6.26282 44.6894 6.439 44.5032 6.56253C44.317 6.68605 44.0982 6.75133 43.8747 6.75003Z" fill="#425B72"/>
<path d="M39.3747 6.74999C39.1706 6.751 38.9701 6.69648 38.7946 6.59225C38.6192 6.48802 38.4753 6.33802 38.3786 6.15831C38.2818 5.9786 38.2358 5.77595 38.2454 5.57208C38.255 5.36821 38.3199 5.17078 38.4331 5.00096C38.5463 4.83114 38.7036 4.69532 38.8881 4.60804C39.0726 4.52077 39.2773 4.48533 39.4804 4.50552C39.6835 4.52571 39.8773 4.60078 40.041 4.72267C40.2047 4.84456 40.3322 5.0087 40.4097 5.19749C40.4798 5.36792 40.5069 5.55295 40.4886 5.7363C40.4704 5.91966 40.4074 6.09573 40.3052 6.24904C40.203 6.40235 40.0647 6.52821 39.9025 6.61556C39.7402 6.70291 39.559 6.74907 39.3747 6.74999Z" fill="#425B72"/>
<path d="M25.875 6.75H5.625C5.32663 6.75 5.04048 6.63147 4.82951 6.42049C4.61853 6.20952 4.5 5.92337 4.5 5.625C4.5 5.32663 4.61853 5.04048 4.82951 4.82951C5.04048 4.61853 5.32663 4.5 5.625 4.5H25.875C26.1734 4.5 26.4595 4.61853 26.6705 4.82951C26.8815 5.04048 27 5.32663 27 5.625C27 5.92337 26.8815 6.20952 26.6705 6.42049C26.4595 6.63147 26.1734 6.75 25.875 6.75Z" fill="#425B72"/>
<path d="M47.25 23.6249V40.4999L41.625 38.2499H30.375C29.4799 38.2499 28.6214 37.8943 27.9885 37.2614C27.3556 36.6284 27 35.77 27 34.8749V23.6249C27.002 22.9286 27.2192 22.2499 27.6221 21.6819C28.0249 21.114 28.5935 20.6845 29.25 20.4524C29.9925 20.1599 29.25 20.2499 43.875 20.2499C44.7701 20.2499 45.6285 20.6055 46.2615 21.2384C46.8944 21.8713 47.25 22.7298 47.25 23.6249Z" fill="#6FABE6"/>
<path d="M47.25 23.6251V36.0001H33.75C32.5565 36.0001 31.4119 35.526 30.568 34.682C29.7241 33.8381 29.25 32.6935 29.25 31.5001V20.4526C29.6093 20.3163 29.9907 20.2476 30.375 20.2501H43.875C44.7701 20.2501 45.6285 20.6056 46.2615 21.2386C46.8944 21.8715 47.25 22.73 47.25 23.6251Z" fill="#82BCF4"/>
<path d="M27 25.875C27 37.9462 27.0787 37.5075 26.7975 38.25C26.5654 38.9065 26.1359 39.4751 25.5679 39.8779C25 40.2808 24.3213 40.498 23.625 40.5H12.375L6.75 42.75V25.875C6.75 24.9799 7.10558 24.1214 7.73851 23.4885C8.37145 22.8556 9.22989 22.5 10.125 22.5H23.625C24.5201 22.5 25.3786 22.8556 26.0115 23.4885C26.6444 24.1214 27 24.9799 27 25.875Z" fill="#DB5669"/>
<path d="M27 25.8751C27 37.9463 27.0787 37.5076 26.7975 38.2501H13.5C12.3065 38.2501 11.1619 37.776 10.318 36.932C9.47411 36.0881 9 34.9435 9 33.7501V22.7026C9.35931 22.5663 9.74072 22.4976 10.125 22.5001H23.625C24.5201 22.5001 25.3786 22.8556 26.0115 23.4886C26.6444 24.1215 27 24.98 27 25.8751Z" fill="#F26674"/>
<path d="M21.375 30.375C21.375 29.1815 20.9009 28.0369 20.057 27.193C19.2131 26.3491 18.0685 25.875 16.875 25.875C15.6815 25.875 14.5369 26.3491 13.693 27.193C12.8491 28.0369 12.375 29.1815 12.375 30.375V32.625C12.3817 33.4117 12.5945 34.1828 12.9922 34.8616C13.3899 35.5403 13.9585 36.103 14.6415 36.4934C15.3245 36.8839 16.0979 37.0884 16.8845 37.0867C17.6712 37.085 18.4437 36.8771 19.125 36.4838L19.4288 36.7987C19.5336 36.9036 19.6582 36.9868 19.7952 37.0436C19.9323 37.1004 20.0792 37.1296 20.2275 37.1296C20.3758 37.1296 20.5227 37.1004 20.6598 37.0436C20.7968 36.9868 20.9214 36.9036 21.0263 36.7987C21.1311 36.6939 21.2143 36.5693 21.2711 36.4323C21.3279 36.2952 21.3571 36.1483 21.3571 36C21.3571 35.8517 21.3279 35.7048 21.2711 35.5677C21.2143 35.4307 21.1311 35.3061 21.0263 35.2013L20.7338 34.875C21.5438 33.5362 21.375 32.5575 21.375 30.375ZM18.7987 32.9513C18.5869 32.7394 18.2996 32.6204 18 32.6204C17.7004 32.6204 17.4131 32.7394 17.2012 32.9513C16.9894 33.1631 16.8704 33.4504 16.8704 33.75C16.8704 34.0496 16.9894 34.3369 17.2012 34.5487L17.4488 34.7963C17.1161 34.884 16.7678 34.8943 16.4306 34.8263C16.0934 34.7584 15.7762 34.614 15.5035 34.4043C15.2308 34.1946 15.0098 33.9252 14.8575 33.6167C14.7052 33.3083 14.6257 32.969 14.625 32.625V30.375C14.625 29.7783 14.8621 29.206 15.284 28.784C15.706 28.3621 16.2783 28.125 16.875 28.125C17.4717 28.125 18.044 28.3621 18.466 28.784C18.8879 29.206 19.125 29.7783 19.125 30.375C19.125 33.66 19.125 33.3225 18.7987 32.9513Z" fill="#EDEBF2"/>
<path d="M41.557 33.3562C37.9008 23.625 38.1708 23.625 37.1245 23.625C36.0783 23.625 36.3258 23.6812 32.692 33.3562C32.5876 33.6367 32.5989 33.9472 32.7233 34.2193C32.8478 34.4915 33.0753 34.7031 33.3558 34.8075C33.6362 34.9119 33.9467 34.9007 34.2189 34.7762C34.491 34.6517 34.7026 34.4242 34.807 34.1438L35.3695 32.625H38.8795C39.4308 34.0987 39.5433 34.875 40.4995 34.875C40.6815 34.8756 40.8609 34.832 41.0223 34.7481C41.1838 34.6641 41.3224 34.5422 41.4264 34.3929C41.5304 34.2435 41.5966 34.0712 41.6194 33.8906C41.6421 33.7101 41.6207 33.5267 41.557 33.3562ZM36.2133 30.375L37.1245 27.9563L38.0358 30.375H36.2133Z" fill="#EDEBF2"/>
</svg>
