<svg width="55" height="55" viewBox="0 0 55 55" fill="none" xmlns="http://www.w3.org/2000/svg">
<g opacity="0.3">
<path d="M26.905 54.9871C40.3641 54.9871 51.2749 53.7235 51.2749 52.1647C51.2749 50.6058 40.3641 49.3422 26.905 49.3422C13.4459 49.3422 2.53516 50.6058 2.53516 52.1647C2.53516 53.7235 13.4459 54.9871 26.905 54.9871Z" fill="#102770"/>
</g>
<path d="M39.4993 42.4818C39.4419 42.4751 39.3839 42.4721 39.325 42.4721C38.5025 42.4719 37.7661 43.0888 37.2709 44.0618C36.8696 44.8516 36.6274 45.8757 36.6271 46.9947C36.6267 48.7314 37.2101 50.2397 38.0667 50.9977C38.0667 50.9977 32.467 50.4361 31.1371 50.8024L28.2871 41.9368L39.4993 42.4818Z" fill="white"/>
<path d="M38.0673 51.0439C38.0658 51.0439 38.0642 51.0439 38.0627 51.0437C38.0068 51.0381 32.4562 50.4869 31.15 50.8469C31.126 50.8535 31.1009 50.8401 31.0935 50.8162L28.2434 41.9506C28.2388 41.9361 28.2416 41.9203 28.2509 41.908C28.2602 41.8959 28.2741 41.8888 28.2901 41.8897L39.304 42.4253C39.3113 42.4253 39.3167 42.4251 39.3258 42.4251C39.3895 42.4251 39.4483 42.4284 39.5055 42.4351C39.5304 42.4381 39.5485 42.4603 39.5464 42.4852C39.5444 42.5103 39.5233 42.5304 39.4978 42.5278L39.3024 42.5183C38.5381 42.5295 37.8142 43.0982 37.3131 44.0823C36.9015 44.8922 36.6746 45.9262 36.6742 46.994C36.6738 48.6642 37.2194 50.1846 38.098 50.9622C38.1131 50.9756 38.1179 50.9972 38.1098 51.0156C38.1025 51.0329 38.0856 51.0439 38.0673 51.0439ZM32.7581 50.6305C34.6322 50.6305 37.2905 50.8754 37.9348 50.9376C37.0966 50.1187 36.5808 48.6253 36.5812 46.9943C36.5813 45.9121 36.812 44.8632 37.23 44.0404C37.647 43.2214 38.2175 42.6812 38.842 42.4962L28.3525 41.9862L31.1685 50.7459C31.5093 50.6621 32.0828 50.6305 32.7581 50.6305Z" fill="#102770"/>
<path d="M39.4993 42.4818C39.4419 42.4751 39.3839 42.4721 39.325 42.4721C38.5025 42.4719 37.7661 43.0888 37.2709 44.0618C36.8696 44.8516 36.6274 45.8757 36.6271 46.9947C36.6267 48.7314 37.2101 50.2397 38.0667 50.9977C38.0667 50.9977 32.467 50.4361 31.1371 50.8024L28.2871 41.9368L39.4993 42.4818Z" fill="white"/>
<path d="M38.0673 51.0439C38.0658 51.0439 38.0642 51.0439 38.0627 51.0437C38.0068 51.0381 32.4562 50.4869 31.15 50.8469C31.126 50.8535 31.1009 50.8401 31.0935 50.8162L28.2434 41.9506C28.2388 41.9361 28.2416 41.9203 28.2509 41.908C28.2602 41.8959 28.2741 41.8888 28.2901 41.8897L39.304 42.4253C39.3113 42.4253 39.3167 42.4251 39.3258 42.4251C39.3895 42.4251 39.4483 42.4284 39.5055 42.4351C39.5304 42.4381 39.5485 42.4603 39.5464 42.4852C39.5444 42.5103 39.5233 42.5304 39.4978 42.5278L39.3024 42.5183C38.5381 42.5295 37.8142 43.0982 37.3131 44.0823C36.9015 44.8922 36.6746 45.9262 36.6742 46.994C36.6738 48.6642 37.2194 50.1846 38.098 50.9622C38.1131 50.9756 38.1179 50.9972 38.1098 51.0156C38.1025 51.0329 38.0856 51.0439 38.0673 51.0439ZM32.7581 50.6305C34.6322 50.6305 37.2905 50.8754 37.9348 50.9376C37.0966 50.1187 36.5808 48.6253 36.5812 46.9943C36.5813 45.9121 36.812 44.8632 37.23 44.0404C37.647 43.2214 38.2175 42.6812 38.842 42.4962L28.3525 41.9862L31.1685 50.7459C31.5093 50.6621 32.0828 50.6305 32.7581 50.6305Z" fill="#102770"/>
<g opacity="0.3">
<path d="M39.4993 42.4816C39.4419 42.4749 39.3839 42.4719 39.325 42.4719C38.5025 42.4717 37.7661 43.0886 37.2709 44.0615C36.8696 44.8513 36.6274 45.8755 36.6271 46.9944C36.6267 48.7311 37.2101 50.2394 38.0667 50.9974C38.0667 50.9974 32.467 50.4358 31.1371 50.8022L28.2871 41.9365L39.4993 42.4816Z" fill="#102770"/>
</g>
<path d="M38.0669 51.2948C38.057 51.2948 38.0469 51.2944 38.0371 51.2933C36.4949 51.1386 32.2631 50.8004 31.2162 51.0888C31.0625 51.131 30.9024 51.0446 30.8536 50.8927L28.0036 42.0271C27.9736 41.934 27.9913 41.8324 28.0507 41.7548C28.1102 41.6772 28.2042 41.6332 28.3014 41.6386L39.3079 42.1738C39.3136 42.1738 39.3189 42.1721 39.325 42.1738C39.3987 42.1738 39.4668 42.1777 39.5339 42.1855C39.6932 42.2043 39.8092 42.346 39.7959 42.5059C39.7827 42.6658 39.6448 42.7873 39.4847 42.7788L39.2976 42.7696C38.6324 42.7832 37.9917 43.3014 37.5362 44.1964C37.1421 44.9715 36.9251 45.9652 36.9247 46.9943C36.9243 48.5946 37.4375 50.043 38.2638 50.7744C38.3606 50.86 38.3911 50.9983 38.3394 51.1167C38.2919 51.2256 38.1843 51.2948 38.0669 51.2948ZM32.7646 50.3814C34.2816 50.3814 36.2763 50.5366 37.347 50.631C36.7078 49.7293 36.329 48.4087 36.3294 46.994C36.3296 45.873 36.5699 44.7835 37.0055 43.9263C37.2672 43.4124 37.5881 42.9995 37.947 42.7039L28.7022 42.2544L31.3393 50.4574C31.6995 50.4032 32.1991 50.3814 32.7646 50.3814Z" fill="#102770"/>
<path d="M44.2766 47.1146L43.9339 51.7678C42.8775 51.8733 41.2845 51.6503 39.9409 51.397C39.1913 51.2553 38.5199 51.1049 38.0637 50.9968C37.207 50.2388 36.6237 48.7305 36.624 46.9938C36.6242 45.8749 36.8664 44.8507 37.2679 44.0609L41.9661 46.1076L44.2766 47.1146Z" fill="#FFCBBD"/>
<path d="M43.3499 51.8407C42.2947 51.8407 40.9554 51.6345 39.9388 51.4427C39.1727 51.2979 38.4938 51.1451 38.0594 51.0422C38.0519 51.0405 38.045 51.0368 38.0393 51.0317C37.1413 50.2371 36.5836 48.6899 36.584 46.9939C36.5842 45.9117 36.8148 44.8628 37.2329 44.04C37.244 44.018 37.2703 44.0086 37.293 44.0184L44.3017 47.0721C44.3197 47.0799 44.3309 47.0985 44.3294 47.1183L43.9867 51.7715C43.985 51.794 43.9674 51.8122 43.945 51.8143C43.7615 51.8325 43.5614 51.8407 43.3499 51.8407ZM38.0925 50.9543C38.5264 51.0569 39.1986 51.2082 39.9563 51.3513C41.6715 51.6749 43.0325 51.8039 43.8972 51.7253L44.2345 47.1441L37.2964 44.1212C36.8971 44.9251 36.6776 45.9431 36.6772 46.9937C36.6769 48.6584 37.2189 50.1745 38.0925 50.9543Z" fill="#102770"/>
<g opacity="0.3">
<path d="M44.0249 50.5296L43.9339 51.7674C42.8775 51.873 41.2845 51.65 39.9409 51.3966C39.1913 51.255 38.5199 51.1046 38.0637 50.9964C37.207 50.2385 36.6237 48.7301 36.624 46.9934C36.6242 45.8745 36.8664 44.8504 37.2679 44.0605L39.3843 44.9823C38.4992 45.0142 38.2842 45.572 38.0095 46.1861C37.7202 46.8328 37.8098 47.7179 38.1152 48.4841C38.4112 49.2264 39.0618 49.7692 39.8434 49.9367C40.1438 50.0011 40.4748 50.0687 40.8225 50.1344C41.8617 50.3312 43.0512 50.5085 44.0249 50.5296Z" fill="#102770"/>
</g>
<path d="M43.335 52.0929C42.4651 52.0929 41.3101 51.958 39.8885 51.6899C39.1175 51.5444 38.4348 51.3904 37.9979 51.2869C37.95 51.2756 37.9059 51.2527 37.8691 51.2201C36.9188 50.3793 36.3287 48.7599 36.3291 46.9941C36.3293 45.8732 36.5696 44.7837 37.0052 43.9265C37.0767 43.7861 37.2451 43.7254 37.3894 43.7883L44.3982 46.842C44.5142 46.8925 44.5855 47.0107 44.5762 47.1369L44.2335 51.7901C44.2229 51.9343 44.1101 52.0501 43.9662 52.0645C43.7761 52.0834 43.5654 52.0929 43.335 52.0929ZM38.2097 50.7252C38.6417 50.8266 39.2817 50.9694 39.9989 51.1049C41.556 51.3984 42.8125 51.53 43.6585 51.49L43.9667 47.3037L37.4167 44.4497C37.0982 45.1824 36.9246 46.0742 36.9244 46.9943C36.9242 48.5596 37.4151 49.9795 38.2097 50.7252Z" fill="#102770"/>
<g opacity="0.3">
<path d="M41.9697 46.1082L39.1003 44.8577L37.2715 44.0616C37.7666 43.0888 38.503 42.4717 39.3256 42.4719C39.3844 42.4719 39.4425 42.4749 39.4998 42.4816C40.7302 42.6128 41.7358 44.128 41.9697 46.1082Z" fill="#17172B"/>
<path d="M41.9703 46.1548C41.964 46.1548 41.9577 46.1535 41.9517 46.1509L37.2534 44.1042C37.2417 44.099 37.2326 44.0893 37.2283 44.0772C37.224 44.0652 37.2248 44.0519 37.2306 44.0404C37.7531 43.014 38.5168 42.4254 39.326 42.4254H39.3262C39.3898 42.4254 39.4486 42.4288 39.5058 42.4355C40.7442 42.5676 41.7769 44.0758 42.0165 46.1029C42.0183 46.1194 42.0115 46.1358 41.9981 46.1457C41.9899 46.1516 41.9802 46.1548 41.9703 46.1548ZM37.3361 44.0387L41.9141 46.0329C41.6624 44.0899 40.6746 42.6536 39.4954 42.5278C39.4414 42.5215 39.3861 42.5183 39.3262 42.5183H39.326C38.5645 42.5185 37.8413 43.0717 37.3361 44.0387Z" fill="#102770"/>
</g>
<path d="M41.9697 46.1082L39.1003 44.8577L37.2715 44.0616C37.7666 43.0888 38.503 42.4717 39.3256 42.4719C39.3844 42.4719 39.4425 42.4749 39.4998 42.4816C40.7302 42.6128 41.7358 44.128 41.9697 46.1082Z" fill="white"/>
<path d="M41.9703 46.1548C41.964 46.1548 41.9577 46.1535 41.9517 46.1509L37.2534 44.1042C37.2417 44.099 37.2326 44.0893 37.2283 44.0772C37.224 44.0652 37.2248 44.0519 37.2306 44.0404C37.7531 43.014 38.5168 42.4254 39.326 42.4254H39.3262C39.3898 42.4254 39.4486 42.4288 39.5058 42.4355C40.7442 42.5676 41.7769 44.0758 42.0165 46.1029C42.0183 46.1194 42.0115 46.1358 41.9981 46.1457C41.9899 46.1516 41.9802 46.1548 41.9703 46.1548ZM37.3361 44.0387L41.9141 46.0329C41.6624 44.0899 40.6746 42.6536 39.4954 42.5278C39.4414 42.5215 39.3861 42.5183 39.3262 42.5183H39.326C38.5645 42.5185 37.8413 43.0717 37.3361 44.0387Z" fill="#102770"/>
<g opacity="0.3">
<path d="M41.9697 46.1075L39.1003 44.857L37.2715 44.0609C37.7666 43.0881 38.503 42.471 39.3256 42.4712C39.3844 42.4712 39.4425 42.4742 39.4998 42.4809C40.7302 42.6121 41.7358 44.1273 41.9697 46.1075Z" fill="#102770"/>
</g>
<path d="M41.9707 46.4059C41.9305 46.4059 41.8899 46.3977 41.8518 46.3811L37.1535 44.3345C37.0781 44.3017 37.0199 44.2393 36.9921 44.1621C36.9644 44.0848 36.9698 43.9996 37.007 43.9264C37.574 42.8129 38.4193 42.1741 39.3262 42.1741C39.3262 42.1741 39.3264 42.1741 39.3265 42.1741C39.4003 42.1741 39.4684 42.178 39.5354 42.1858C40.8887 42.3302 42.0128 43.9288 42.2663 46.0732C42.2788 46.1791 42.2337 46.2836 42.1481 46.3472C42.096 46.3859 42.0336 46.4059 41.9707 46.4059ZM37.692 43.9194L41.5917 45.6181C41.2756 44.0422 40.4266 42.8797 39.4693 42.7776C39.4224 42.772 39.3766 42.7695 39.3265 42.7695H39.3264C38.7234 42.7695 38.1389 43.1845 37.692 43.9194Z" fill="#102770"/>
<path d="M44.4698 51.8258L41.9569 51.5512C40.9454 51.4406 40.1494 50.6408 40.0387 49.6293C39.655 46.1257 39.564 38.6671 46.0239 40.0304L44.4698 51.8258Z" fill="#FF5722"/>
<path d="M44.4709 51.8724C44.4693 51.8724 44.4676 51.8724 44.4659 51.8722L41.953 51.5978C40.9136 51.4843 40.1077 50.677 39.9936 49.6348C39.7254 47.1847 39.5992 42.7811 41.7693 40.8158C42.7977 39.8844 44.2327 39.605 46.0347 39.9853C46.0599 39.9907 46.0761 40.0152 46.0707 40.0404C46.0653 40.0655 46.0407 40.0817 46.0156 40.0763C44.2444 39.7025 42.8366 39.9745 41.8316 40.8847C39.6923 42.8223 39.8198 47.1922 40.0862 49.6245C40.1954 50.6232 40.9674 51.3964 41.963 51.5053L44.476 51.7797C44.5015 51.7825 44.5199 51.8054 44.5171 51.8311C44.5145 51.8549 44.4944 51.8724 44.4709 51.8724Z" fill="#102770"/>
<g opacity="0.3">
<path d="M44.679 50.2524L44.4717 51.8268L41.9593 51.5522C40.9476 51.4411 40.1513 50.6414 40.0405 49.6298C39.8503 47.8938 39.7326 45.1871 40.4476 43.0626C40.1643 44.8366 40.2674 46.7416 40.4137 48.074C40.5245 49.0857 41.3201 49.8853 42.3318 49.9957L44.679 50.2524Z" fill="#102770"/>
</g>
<path d="M44.4731 52.1242C44.4623 52.1242 44.4513 52.1237 44.4403 52.1224L41.8708 51.8417C40.7499 51.7194 39.8791 50.8518 39.7534 49.7321C39.4711 47.2162 39.3352 42.6886 41.5983 40.6336C42.69 39.6422 44.2008 39.3414 46.0885 39.7398C46.2495 39.7736 46.3522 39.9317 46.3183 40.0927C46.2845 40.2537 46.1262 40.3564 45.9654 40.3226C44.2754 39.9659 42.9408 40.2189 41.9985 41.0746C39.9316 42.9515 40.0755 47.2629 40.3452 49.6658C40.4396 50.5066 41.0935 51.158 41.9354 51.2499L44.5049 51.5306C44.6684 51.5485 44.7864 51.6954 44.7687 51.859C44.7521 52.0112 44.6231 52.1242 44.4731 52.1242Z" fill="#102770"/>
<path d="M44.4711 51.8259C43.2041 51.8257 42.1375 50.8743 41.9973 49.6149C41.6833 46.7918 41.4956 42.0831 43.4444 40.5085C45.2083 39.0832 48.275 40.2535 48.2744 43.2906C48.2739 45.5071 47.4371 48.3584 46.8285 50.1394C46.4839 51.1483 45.537 51.8262 44.4711 51.8259Z" fill="white"/>
<path d="M44.4721 51.8723C44.472 51.8723 44.4718 51.8723 44.4716 51.8723C43.1777 51.8721 42.0943 50.9038 41.9516 49.62C41.648 46.8908 41.4345 42.0732 43.4156 40.4726C44.2577 39.7922 45.4648 39.6695 46.4912 40.1598C47.6375 40.7075 48.3218 41.8779 48.3214 43.2909C48.321 45.4623 47.5334 48.2219 46.873 50.1548C46.5219 51.1821 45.5572 51.8723 44.4721 51.8723ZM44.4716 51.7793C44.4718 51.7793 44.472 51.7793 44.4721 51.7793C45.5173 51.7793 46.4466 51.1144 46.7848 50.1246C47.443 48.1984 48.2278 45.4493 48.2281 43.2909C48.2285 41.9148 47.564 40.7756 46.4508 40.2438C45.4567 39.7687 44.288 39.8869 43.4738 40.545C41.5272 42.1179 41.7423 46.8995 42.0439 49.6098C42.1816 50.8463 43.2252 51.7791 44.4716 51.7793Z" fill="#102770"/>
<g opacity="0.3">
<path d="M48.2382 44.1491C48.0696 46.2036 47.3626 48.5819 46.8293 50.1405C46.4851 51.149 45.5382 51.8271 44.4722 51.8268C43.2051 51.8266 42.1387 50.8748 41.9982 49.6154C41.7997 47.8325 41.6521 45.2963 42.0613 43.2737C41.877 44.7476 42.0054 46.38 42.1683 47.5935C42.3081 48.6387 43.3745 49.4287 44.6416 49.4291C45.7076 49.4292 46.6545 48.8667 46.9994 48.0293C47.4209 47.0051 47.9519 45.5552 48.2382 44.1491Z" fill="#102770"/>
</g>
<path d="M44.4736 52.1237C44.4735 52.1237 44.4733 52.1237 44.4731 52.1237C43.051 52.1233 41.8604 51.0591 41.7035 49.6478C41.3256 46.2516 41.2889 41.869 43.2592 40.2771C44.1762 39.5363 45.4878 39.4011 46.6011 39.9331C47.8369 40.5236 48.5746 41.7789 48.5742 43.291C48.5738 45.4968 47.779 48.2852 47.1122 50.236C46.7263 51.3651 45.6661 52.1237 44.4736 52.1237ZM44.4733 51.5282C44.4735 51.5282 44.4736 51.5282 44.4738 51.5282C45.4116 51.5282 46.2454 50.9316 46.5488 50.0435C47.2008 48.1354 47.9782 45.4149 47.9787 43.291C47.9789 42.014 47.368 40.9597 46.3444 40.4705C45.4232 40.0305 44.3843 40.1338 43.6336 40.7404C41.7801 42.2382 41.9996 46.9228 42.2954 49.5822C42.4186 50.6913 43.3549 51.528 44.4733 51.5282Z" fill="#102770"/>
<path d="M43.3184 41.2794L48.1365 41.9573C48.2556 41.9741 48.3386 42.0843 48.3217 42.2034C48.305 42.3226 48.1948 42.4056 48.0756 42.3888C48.0743 42.3886 48.0719 42.3883 48.0704 42.3881L43.2702 41.5946C43.1832 41.5802 43.1244 41.4981 43.1389 41.4112C43.1529 41.3258 43.2329 41.2673 43.3184 41.2794Z" fill="#102770"/>
<path d="M42.5507 42.6014L48.281 43.3054C48.4003 43.3201 48.4852 43.4286 48.4706 43.5481C48.4559 43.6674 48.3472 43.7523 48.2279 43.7378C48.2268 43.7376 48.2246 43.7374 48.2236 43.7372L42.5088 42.9177C42.4217 42.9052 42.3612 42.8244 42.3737 42.7373C42.3858 42.6511 42.4647 42.591 42.5507 42.6014Z" fill="#102770"/>
<path d="M42.1505 44.5872L48.0777 45.1597C48.1974 45.1713 48.285 45.2777 48.2735 45.3974C48.262 45.5171 48.1555 45.6048 48.0358 45.5933C48.0347 45.5933 48.0326 45.5929 48.0315 45.5929L42.1166 44.9043C42.0291 44.8941 41.9666 44.815 41.9766 44.7275C41.9869 44.6409 42.0643 44.579 42.1505 44.5872Z" fill="#102770"/>
<path d="M41.8144 46.6485L47.7464 47.1023C47.8663 47.1115 47.9562 47.2163 47.9469 47.3361C47.9377 47.456 47.8329 47.5459 47.7131 47.5366C47.712 47.5366 47.7099 47.5364 47.7088 47.5362L41.7868 46.9661C41.6992 46.9577 41.6349 46.8797 41.6433 46.792C41.6519 46.7057 41.728 46.642 41.8144 46.6485Z" fill="#102770"/>
<path d="M41.9844 49.2399L46.9031 49.6243C47.0229 49.6337 47.1126 49.7385 47.1032 49.8584C47.0938 49.9783 46.989 50.068 46.869 50.0585C46.8677 50.0585 46.8653 50.0582 46.864 50.0582L41.9557 49.5576C41.8681 49.5487 41.8044 49.4703 41.8133 49.3828C41.8221 49.2963 41.8984 49.2332 41.9844 49.2399Z" fill="#102770"/>
<path d="M14.2666 42.4761C14.3239 42.4694 14.382 42.4664 14.4408 42.4664C15.2634 42.4666 15.9994 43.0839 16.4944 44.057C16.8955 44.847 17.1371 45.8714 17.1369 46.9901C17.1366 48.7268 16.5526 50.2349 15.6956 50.9925C15.6956 50.9925 21.2957 50.4333 22.6254 50.8002L25.4793 41.9359L14.2666 42.4761Z" fill="white"/>
<path d="M15.6962 51.0389C15.6778 51.0389 15.6611 51.0281 15.6536 51.011C15.6456 50.9926 15.6503 50.9708 15.6653 50.9576C16.5443 50.1804 17.0904 48.6602 17.091 46.9901C17.0912 45.9224 16.8648 44.8882 16.4535 44.0781C15.9529 43.0936 15.2292 42.5247 14.4647 42.5132L14.2694 42.5227C14.2465 42.5249 14.2229 42.505 14.2209 42.4801C14.2188 42.4551 14.2369 42.433 14.2618 42.43C14.3249 42.4225 14.3934 42.4192 14.463 42.4201L25.4775 41.8894C25.4924 41.8889 25.5075 41.8956 25.5166 41.9077C25.5259 41.9198 25.5287 41.9358 25.524 41.9503L22.6701 50.8146C22.6625 50.8383 22.6373 50.8519 22.6135 50.8452C21.3073 50.4846 15.7567 51.0333 15.7009 51.0389C15.6992 51.0387 15.6977 51.0389 15.6962 51.0389ZM14.925 42.4909C15.5496 42.6761 16.1197 43.2164 16.5363 44.0359C16.9542 44.8588 17.1841 45.9079 17.1839 46.9901C17.1835 48.6211 16.6672 50.1144 15.8286 50.9328C16.7049 50.8487 21.3086 50.4278 22.5949 50.7441L25.4146 41.9857L14.925 42.4909Z" fill="#102770"/>
<path d="M14.2666 42.4761C14.3239 42.4694 14.382 42.4664 14.4408 42.4664C15.2634 42.4666 15.9994 43.0839 16.4944 44.057C16.8955 44.847 17.1371 45.8714 17.1369 46.9901C17.1366 48.7268 16.5526 50.2349 15.6956 50.9925C15.6956 50.9925 21.2957 50.4333 22.6254 50.8002L25.4793 41.9359L14.2666 42.4761Z" fill="white"/>
<path d="M15.6962 51.0389C15.6778 51.0389 15.6611 51.0281 15.6536 51.011C15.6456 50.9926 15.6503 50.9708 15.6653 50.9576C16.5443 50.1804 17.0904 48.6602 17.091 46.9901C17.0912 45.9224 16.8648 44.8882 16.4535 44.0781C15.9529 43.0936 15.2292 42.5247 14.4647 42.5132L14.2694 42.5227C14.2465 42.5249 14.2229 42.505 14.2209 42.4801C14.2188 42.4551 14.2369 42.433 14.2618 42.43C14.3249 42.4225 14.3934 42.4192 14.463 42.4201L25.4775 41.8894C25.4924 41.8889 25.5075 41.8956 25.5166 41.9077C25.5259 41.9198 25.5287 41.9358 25.524 41.9503L22.6701 50.8146C22.6625 50.8383 22.6373 50.8519 22.6135 50.8452C21.3073 50.4846 15.7567 51.0333 15.7009 51.0389C15.6992 51.0387 15.6977 51.0389 15.6962 51.0389ZM14.925 42.4909C15.5496 42.6761 16.1197 43.2164 16.5363 44.0359C16.9542 44.8588 17.1841 45.9079 17.1839 46.9901C17.1835 48.6211 16.6672 50.1144 15.8286 50.9328C16.7049 50.8487 21.3086 50.4278 22.5949 50.7441L25.4146 41.9857L14.925 42.4909Z" fill="#102770"/>
<g opacity="0.3">
<path d="M14.2646 42.4762C14.322 42.4695 14.3801 42.4665 14.4389 42.4665C15.2614 42.4667 15.9975 43.084 16.4924 44.0571C16.8935 44.8471 17.1352 45.8715 17.135 46.9902C17.1346 48.7269 16.5507 50.235 15.6937 50.9926C15.6937 50.9926 21.2938 50.4335 22.6234 50.8004L25.4774 41.936L14.2646 42.4762Z" fill="#102770"/>
</g>
<path d="M15.6943 51.2899C15.5771 51.2899 15.4693 51.2205 15.4216 51.1114C15.3699 50.993 15.4004 50.8547 15.4972 50.7691C16.3239 50.0383 16.8376 48.5901 16.838 46.9897C16.8382 45.9607 16.6215 44.967 16.2276 44.1914C15.7725 43.2964 15.1322 42.778 14.4667 42.764L14.2798 42.7731C14.1201 42.7813 13.982 42.6601 13.9688 42.5001C13.9556 42.3402 14.0716 42.1985 14.2311 42.1799C14.3026 42.1715 14.3787 42.1672 14.4567 42.1684L25.4637 41.638C25.5611 41.6334 25.6551 41.6768 25.7144 41.7544C25.7738 41.832 25.7915 41.9336 25.7615 42.0267L22.9076 50.891C22.8586 51.0429 22.6985 51.1291 22.545 51.0868C21.4981 50.798 17.2663 51.1343 15.7241 51.2884C15.7141 51.2896 15.7042 51.2899 15.6943 51.2899ZM15.8179 42.6991C16.1766 42.9946 16.4974 43.4077 16.7587 43.9216C17.1943 44.7794 17.4339 45.8689 17.4337 46.9898C17.4333 48.4045 17.0541 49.725 16.4143 50.6265C17.8841 50.4977 21.0959 50.2544 22.4223 50.4556L25.0629 42.2538L15.8179 42.6991Z" fill="#102770"/>
<path d="M9.48438 47.1075L9.82502 51.7609C10.8814 51.8668 12.4744 51.6446 13.8182 51.3918C14.5678 51.2505 15.2394 51.1003 15.6956 50.9925C16.5526 50.2349 17.1365 48.7268 17.1369 46.9901C17.1371 45.8712 16.8955 44.8468 16.4943 44.057L11.7952 46.1016L9.48438 47.1075Z" fill="#FFCBBD"/>
<path d="M10.4186 51.834C10.2058 51.834 10.0046 51.8256 9.81997 51.8072C9.79745 51.805 9.77976 51.7869 9.77828 51.7644L9.43763 47.111C9.43614 47.0913 9.44731 47.0729 9.46537 47.0648L16.4753 44.0141C16.498 44.0043 16.5243 44.0138 16.5355 44.0357C16.9534 44.8587 17.1832 45.9078 17.1831 46.99C17.1827 48.6862 16.6244 50.233 15.7259 51.0273C15.7202 51.0323 15.7133 51.036 15.7058 51.0377C15.271 51.1405 14.5919 51.2931 13.8263 51.4374C12.8109 51.6285 11.4733 51.834 10.4186 51.834ZM9.86818 51.7182C10.733 51.7972 12.0939 51.6687 13.8092 51.346C14.5664 51.2032 15.2388 51.0522 15.6731 50.9498C16.547 50.1705 17.0896 48.6547 17.09 46.99C17.0902 45.9394 16.8709 44.9212 16.4722 44.1171L9.53275 47.1369L9.86818 51.7182Z" fill="#102770"/>
<g opacity="0.3">
<path d="M9.7373 50.5224L9.82777 51.7604C10.8841 51.8663 12.4771 51.6441 13.8209 51.3913C14.5705 51.25 15.2421 51.0998 15.6984 50.992C16.5554 50.2344 17.1393 48.7263 17.1397 46.9896C17.1398 45.8707 16.8982 44.8463 16.4971 44.0565L14.3803 44.9774C15.2654 45.0096 15.4802 45.5674 15.7546 46.1817C16.0435 46.8286 15.9536 47.7135 15.6477 48.4795C15.3514 49.2218 14.7006 49.7642 13.919 49.9314C13.6186 49.9956 13.2876 50.0632 12.9397 50.1287C11.9005 50.3249 10.711 50.5019 9.7373 50.5224Z" fill="#102770"/>
</g>
<path d="M10.4312 52.0857C10.1993 52.0857 9.98742 52.076 9.79626 52.057C9.65237 52.0425 9.53956 51.9267 9.52895 51.7824L9.18831 47.1291C9.179 47.003 9.25048 46.8848 9.36645 46.8344L16.3766 43.7839C16.5211 43.7211 16.6895 43.7816 16.7608 43.9222C17.1962 44.7797 17.4358 45.8692 17.4356 46.9902C17.4352 48.7561 16.8444 50.3752 15.8937 51.2156C15.8569 51.2482 15.8128 51.2711 15.7649 51.2823C15.3275 51.3856 14.6444 51.5392 13.8743 51.6843C12.4546 51.9513 11.3007 52.0857 10.4312 52.0857ZM10.1041 51.4824C10.95 51.5233 12.2066 51.3919 13.7641 51.0989C14.4805 50.9638 15.1209 50.8214 15.5533 50.7201C16.3483 49.9748 16.8397 48.5551 16.8401 46.9898C16.8403 46.0699 16.667 45.1781 16.3489 44.4451L9.79756 47.296L10.1041 51.4824Z" fill="#102770"/>
<g opacity="0.3">
<path d="M11.792 46.1011L14.6619 44.8519L16.4912 44.0565C15.9964 43.0836 15.2602 42.4661 14.4376 42.4659C14.3788 42.4659 14.3207 42.4689 14.2634 42.4756C13.033 42.6063 12.0269 44.1209 11.792 46.1011Z" fill="#17172B"/>
<path d="M11.7926 46.1475C11.7827 46.1475 11.7731 46.1443 11.7649 46.1384C11.7515 46.1285 11.7444 46.1121 11.7464 46.0956C11.9869 44.0687 13.0202 42.5609 14.2592 42.4293C14.3154 42.4228 14.3757 42.4194 14.4383 42.4194C15.2474 42.4196 16.0112 43.0086 16.5333 44.0353C16.5391 44.0467 16.54 44.0601 16.5355 44.0722C16.5313 44.0843 16.5219 44.094 16.5102 44.0992L11.811 46.1438C11.8053 46.1462 11.7989 46.1475 11.7926 46.1475ZM14.4383 42.5123C14.3793 42.5123 14.3225 42.5155 14.2694 42.5216C13.0897 42.6469 12.1012 44.0828 11.8488 46.0256L16.4276 44.0333C15.9229 43.0661 15.1998 42.5125 14.4383 42.5123Z" fill="#102770"/>
</g>
<path d="M11.792 46.1011L14.6619 44.8519L16.4912 44.0565C15.9964 43.0836 15.2602 42.4661 14.4376 42.4659C14.3788 42.4659 14.3207 42.4689 14.2634 42.4756C13.033 42.6063 12.0269 44.1209 11.792 46.1011Z" fill="white"/>
<path d="M11.7926 46.1475C11.7827 46.1475 11.7731 46.1443 11.7649 46.1384C11.7515 46.1285 11.7444 46.1121 11.7464 46.0956C11.9869 44.0687 13.0202 42.5609 14.2592 42.4293C14.3154 42.4228 14.3757 42.4194 14.4383 42.4194C15.2474 42.4196 16.0112 43.0086 16.5333 44.0353C16.5391 44.0467 16.54 44.0601 16.5355 44.0722C16.5313 44.0843 16.5219 44.094 16.5102 44.0992L11.811 46.1438C11.8053 46.1462 11.7989 46.1475 11.7926 46.1475ZM14.4383 42.5123C14.3793 42.5123 14.3225 42.5155 14.2694 42.5216C13.0897 42.6469 12.1012 44.0828 11.8488 46.0256L16.4276 44.0333C15.9229 43.0661 15.1998 42.5125 14.4383 42.5123Z" fill="#102770"/>
<g opacity="0.3">
<path d="M11.7969 46.1017L14.6668 44.8525L16.4961 44.0571C16.0013 43.0842 15.2651 42.4667 14.4425 42.4666C14.3837 42.4666 14.3256 42.4695 14.2683 42.4762C13.0379 42.6069 12.0318 44.1215 11.7969 46.1017Z" fill="#102770"/>
</g>
<path d="M11.7959 46.3992C11.733 46.3992 11.6705 46.3793 11.6182 46.3404C11.5325 46.2768 11.4875 46.1723 11.5002 46.0664C11.7546 43.9222 12.8795 42.324 14.2359 42.1799C14.2992 42.1725 14.3694 42.1686 14.4416 42.1686C15.3489 42.1688 16.1939 42.8078 16.7606 43.9219C16.7978 43.995 16.8032 44.0803 16.7755 44.1575C16.7477 44.2348 16.6893 44.2971 16.6141 44.3299L11.9151 46.3745C11.8767 46.3912 11.8363 46.3992 11.7959 46.3992ZM14.4416 42.7642C14.3924 42.7642 14.3454 42.7668 14.302 42.7719C13.3417 42.8739 12.4921 44.0362 12.1753 45.6119L16.0757 43.9148C15.629 43.1795 15.0445 42.7642 14.4416 42.7642Z" fill="#102770"/>
<path d="M9.28834 51.8191L11.8013 51.5457C12.8128 51.4356 13.6091 50.636 13.7202 49.6247C14.1054 46.1213 14.1997 38.6627 7.73926 40.0232L9.28834 51.8191Z" fill="#FF5722"/>
<path d="M9.28909 51.8655C9.26563 51.8655 9.24553 51.8479 9.24292 51.824C9.24013 51.7985 9.25856 51.7755 9.28406 51.7727L11.797 51.4992C12.7929 51.3909 13.565 50.6178 13.6748 49.6194C13.9423 47.187 14.0717 42.8173 11.9331 40.8786C10.9284 39.968 9.52102 39.6953 7.7495 40.0683C7.72437 40.0736 7.69961 40.0576 7.6944 40.0324C7.689 40.0073 7.70519 39.9825 7.73032 39.9773C9.53256 39.5978 10.9675 39.8779 11.9956 40.8098C14.1647 42.776 14.0367 47.1796 13.7673 49.6296C13.6527 50.6718 12.8467 51.4787 11.807 51.5919L9.29411 51.8654C9.29244 51.8654 9.29076 51.8655 9.28909 51.8655Z" fill="#102770"/>
<g opacity="0.3">
<path d="M9.08301 50.2446L9.28963 51.819L11.802 51.5456C12.8137 51.4348 13.6104 50.6355 13.7215 49.6238C13.9125 47.8879 14.0314 45.1813 13.3172 43.0565C13.5998 44.8305 13.4957 46.7355 13.3489 48.0679C13.2377 49.0796 12.4418 49.8789 11.4301 49.9889L9.08301 50.2446Z" fill="#102770"/>
</g>
<path d="M9.28984 52.1165C9.1398 52.1165 9.01081 52.0035 8.99424 51.8509C8.97656 51.6874 9.09457 51.5404 9.258 51.5227L11.8277 51.2431C12.6696 51.1515 13.3239 50.5004 13.4187 49.6598C13.6895 47.257 13.8351 42.9456 11.7691 41.0678C10.8272 40.2117 9.49273 39.9582 7.80255 40.3141C7.64172 40.3476 7.48369 40.245 7.44981 40.084C7.41593 39.923 7.51887 39.7651 7.67988 39.7313C9.56775 39.3338 11.0783 39.635 12.1697 40.627C14.4319 42.6831 14.2939 47.2105 14.0104 49.7264C13.8844 50.8461 13.0133 51.7131 11.8921 51.835L9.32241 52.1146C9.31161 52.1159 9.30063 52.1165 9.28984 52.1165Z" fill="#102770"/>
<path d="M9.29058 51.8191C10.5577 51.8193 11.6248 50.8685 11.7654 49.6092C12.0805 46.7861 12.2702 42.0777 10.3224 40.5023C8.55904 39.0763 5.49177 40.2453 5.49121 43.2824C5.49065 45.4988 6.32625 48.3505 6.93419 50.1319C7.27837 51.1404 8.22491 51.8187 9.29058 51.8191Z" fill="white"/>
<path d="M9.29178 51.8655C9.29159 51.8655 9.2914 51.8655 9.29122 51.8655C8.206 51.8653 7.24141 51.1746 6.89071 50.1469C6.23102 48.2138 5.44475 45.4536 5.44531 43.2825C5.44569 41.8695 6.13032 40.6992 7.27696 40.1521C8.30354 39.6622 9.51068 39.7854 10.3524 40.4663C12.3328 42.0679 12.1172 46.8855 11.8125 49.6145C11.669 50.8976 10.5855 51.8653 9.29178 51.8655ZM8.58332 39.9477C8.15612 39.9477 7.72203 40.0426 7.31698 40.2359C6.20366 40.7671 5.53876 41.9061 5.53838 43.2823C5.53783 45.4406 6.32149 48.1901 6.97876 50.1167C7.31661 51.1068 8.24602 51.7723 9.29122 51.7725C9.2914 51.7725 9.29159 51.7725 9.29178 51.7725C10.538 51.7725 11.5817 50.8403 11.7198 49.6039C12.0225 46.8936 12.2395 42.1122 10.2938 40.5383C9.81149 40.1484 9.20466 39.9477 8.58332 39.9477Z" fill="#102770"/>
<g opacity="0.3">
<path d="M5.52637 44.1397C5.69408 46.1944 6.40012 48.5729 6.93268 50.1319C7.2763 51.1406 8.22302 51.8191 9.28906 51.8193C10.5561 51.8194 11.6229 50.8684 11.764 49.6088C11.9632 47.8259 12.1119 45.2897 11.7035 43.2671C11.8871 44.741 11.7579 46.3734 11.5946 47.5869C11.4545 48.6321 10.3875 49.4215 9.12061 49.4214C8.05456 49.4212 7.10784 48.8581 6.76329 48.0206C6.34242 46.9963 5.81191 45.546 5.52637 44.1397Z" fill="#102770"/>
</g>
<path d="M9.28721 52.1164C9.28702 52.1164 9.28684 52.1164 9.28665 52.1164C8.09403 52.1162 7.03376 51.3571 6.64826 50.2276C5.98242 48.2764 5.18889 45.4876 5.18945 43.282C5.18983 41.7698 5.92807 40.5148 7.16406 39.9249C8.27738 39.3935 9.58914 39.5292 10.5057 40.2704C12.4753 41.8632 12.4368 46.2458 12.0574 49.6418C11.8999 51.0525 10.709 52.1164 9.28721 52.1164ZM8.58731 40.1928C8.19734 40.1928 7.79918 40.2817 7.42057 40.4623C6.39678 40.9509 5.7853 42.0051 5.78493 43.282C5.78455 45.4059 6.56058 48.1267 7.2119 50.0353C7.51513 50.9237 8.34886 51.5207 9.28665 51.5209C9.28684 51.5209 9.28702 51.5209 9.28721 51.5209C10.4054 51.5209 11.3417 50.6847 11.4655 49.5757C11.7624 46.9166 11.9839 42.2318 10.1312 40.7335C9.68909 40.3757 9.14667 40.1928 8.58731 40.1928Z" fill="#102770"/>
<path d="M10.4975 41.5873L5.69665 42.3784C5.57789 42.3979 5.46583 42.3177 5.44629 42.1989C5.42674 42.0804 5.50716 41.9681 5.62573 41.9488C5.62703 41.9486 5.62945 41.9482 5.63094 41.948L10.4493 41.2723C10.5364 41.26 10.617 41.3209 10.6293 41.408C10.6414 41.4937 10.5825 41.5731 10.4975 41.5873Z" fill="#102770"/>
<path d="M11.251 42.9108L5.53581 43.7277C5.41667 43.7449 5.30648 43.662 5.28935 43.5431C5.27223 43.4241 5.35506 43.3138 5.47419 43.2966C5.47531 43.2964 5.47754 43.2963 5.47847 43.2961L11.2089 42.5947C11.2964 42.5841 11.3759 42.6462 11.3865 42.7335C11.3973 42.8199 11.3366 42.8985 11.251 42.9108Z" fill="#102770"/>
<path d="M11.6501 44.8976L5.73507 45.5838C5.61557 45.5975 5.5076 45.5121 5.49364 45.3926C5.47987 45.2731 5.56549 45.1651 5.68481 45.1512C5.68593 45.1512 5.68798 45.1508 5.68909 45.1508L11.6166 44.5808C11.7043 44.5724 11.7821 44.6367 11.7907 44.7243C11.7987 44.8105 11.7361 44.8876 11.6501 44.8976Z" fill="#102770"/>
<path d="M11.9771 46.9597L6.05494 47.5272C5.93525 47.5388 5.82878 47.4509 5.81742 47.3312C5.80588 47.2115 5.89374 47.1051 6.01343 47.0937C6.01455 47.0937 6.0166 47.0935 6.01771 47.0933L11.9499 46.6419C12.0378 46.6352 12.1143 46.701 12.121 46.7888C12.1275 46.8757 12.0633 46.9515 11.9771 46.9597Z" fill="#102770"/>
<path d="M11.8064 49.551L6.89796 50.0495C6.77827 50.0616 6.67142 49.9744 6.65933 49.8548C6.64723 49.7351 6.73434 49.6282 6.85403 49.6161C6.85533 49.6159 6.85775 49.6157 6.85924 49.6157L11.7781 49.2334C11.8659 49.2265 11.9426 49.2922 11.9493 49.3801C11.9558 49.4665 11.8922 49.5422 11.8064 49.551Z" fill="#102770"/>
<path d="M38.8802 22.5632C40.2368 22.5632 41.3365 21.2692 41.3365 19.673C41.3365 18.0767 40.2368 16.7827 38.8802 16.7827C37.5236 16.7827 36.4238 18.0767 36.4238 19.673C36.4238 21.2692 37.5236 22.5632 38.8802 22.5632Z" fill="#FFCBBD"/>
<g opacity="0.3">
<path d="M41.3344 19.6733C41.334 21.2697 40.2345 22.5636 38.8769 22.5632C37.5205 22.5628 36.4215 21.2686 36.4219 19.6722C36.4221 19.1 36.5637 18.5658 36.8087 18.1172C36.9239 19.587 37.9738 20.7368 39.2527 20.7372C40.1222 20.7373 40.8863 20.2053 41.3232 19.4033C41.3305 19.4917 41.3344 19.5819 41.3344 19.6733Z" fill="#102770"/>
</g>
<path d="M38.8761 22.861C38.8759 22.861 38.8757 22.861 38.8755 22.861C37.3569 22.8606 36.1217 21.4301 36.1221 19.6724C36.1223 18.8297 36.4031 18.0354 36.9128 17.4359C37.4342 16.8225 38.1315 16.4849 38.8762 16.4849C38.8764 16.4849 38.8766 16.4849 38.8768 16.4849C40.3954 16.4852 41.6306 17.9157 41.6302 19.6735C41.6301 20.5162 41.3492 21.3103 40.8395 21.91C40.3181 22.5234 39.6208 22.861 38.8761 22.861ZM38.8762 17.0803C38.3091 17.0803 37.773 17.3435 37.3664 17.8216C36.9482 18.3135 36.7175 18.971 36.7175 19.6724C36.7172 21.102 37.6853 22.2652 38.8757 22.2654C38.8757 22.2654 38.8759 22.2654 38.8761 22.2654C39.4432 22.2654 39.9793 22.0021 40.3859 21.5239C40.8041 21.032 41.0348 20.3747 41.0348 19.6731C41.0351 18.2437 40.067 17.0803 38.8766 17.0802C38.8766 17.0803 38.8764 17.0803 38.8762 17.0803Z" fill="#102770"/>
<path d="M15.345 22.5577C16.7016 22.5577 17.8014 21.2637 17.8014 19.6675C17.8014 18.0712 16.7016 16.7772 15.345 16.7772C13.9884 16.7772 12.8887 18.0712 12.8887 19.6675C12.8887 21.2637 13.9884 22.5577 15.345 22.5577Z" fill="#FFCBBD"/>
<g opacity="0.3">
<path d="M17.8023 19.6682C17.8019 21.2646 16.7013 22.5584 15.3448 22.5581C13.9884 22.5577 12.8883 21.2634 12.8887 19.6671C12.8887 19.5667 12.8928 19.4673 12.9017 19.37C13.3362 20.1873 14.1072 20.7316 14.9867 20.7318C16.2577 20.732 17.3042 19.5969 17.4309 18.1401C17.667 18.5828 17.8023 19.107 17.8023 19.6682Z" fill="#102770"/>
</g>
<path d="M15.3485 22.8561C15.3483 22.8561 15.3483 22.8561 15.3482 22.8561C13.8296 22.8558 12.5944 21.4252 12.5947 19.6675C12.5949 18.8248 12.8758 18.0307 13.3855 17.431C13.9068 16.8176 14.6043 16.48 15.3489 16.48C15.3491 16.48 15.3493 16.48 15.3495 16.48C16.868 16.4804 18.1033 17.9107 18.1029 19.6686C18.1023 21.4264 16.8669 22.8561 15.3485 22.8561ZM15.3489 17.0755C14.7817 17.0755 14.2456 17.3387 13.8391 17.8167C13.4206 18.3087 13.1902 18.9659 13.19 19.6675C13.1898 21.0971 14.1578 22.2603 15.3482 22.2605C15.3482 22.2605 15.3483 22.2605 15.3485 22.2605C16.5387 22.2605 17.507 21.0978 17.5072 19.6682C17.5074 18.2387 16.5395 17.0755 15.3493 17.0753C15.3491 17.0755 15.3489 17.0755 15.3489 17.0755Z" fill="#102770"/>
<path d="M38.6722 22.9296C38.6722 22.9303 38.6722 22.9303 38.6722 22.9318C38.6713 26.9843 33.251 28.0046 33.251 28.0046C31.2626 28.4195 29.4075 28.6172 27.3901 28.5972C27.3037 28.5987 27.2173 28.5987 27.1317 28.5987C25.2133 28.5984 23.4321 28.3999 21.5286 28.002C21.5286 28.002 16.1072 26.9795 16.1104 22.9247C16.1105 22.0977 16.4739 21.5171 16.7501 21.1949C16.9177 20.9983 17.0539 20.898 17.0539 20.898C17.0539 20.898 16.822 19.3601 16.666 18.0342C16.6571 17.9642 16.6496 17.8949 16.6414 17.8264C16.5783 17.2674 16.5307 16.7656 16.5264 16.4581C16.5154 15.7651 16.5772 15.1108 16.7062 14.4937C17.6347 10.0066 22.0489 7.52862 27.3945 7.43909C32.1453 7.52118 36.1595 9.48964 37.644 13.0772C38.0205 13.9816 38.2338 14.9911 38.2567 16.0981C38.2605 16.218 38.2605 16.3401 38.259 16.4629C38.2538 16.7608 38.2096 17.2423 38.1493 17.7812C37.9935 19.1561 37.7288 20.9025 37.7288 20.9025C37.7288 20.9025 37.8003 20.9546 37.9031 21.0588C38.1761 21.3319 38.6724 21.9625 38.6722 22.9296Z" fill="#FFCBBD"/>
<path d="M27.4226 7.43738C27.4147 7.43738 27.4069 7.43738 27.3993 7.43841C27.3914 7.43738 27.3836 7.43738 27.376 7.43738H27.4226Z" fill="#FFCBBD"/>
<path d="M27.3979 7.48559C27.3957 7.48559 27.3936 7.4854 27.3914 7.48522C27.3887 7.48484 27.3861 7.48466 27.3835 7.48466H27.3768C27.351 7.48466 27.3301 7.46373 27.3301 7.43795C27.3301 7.41216 27.351 7.39124 27.3768 7.39124H27.4192C27.445 7.39124 27.4659 7.41216 27.4659 7.43795C27.4659 7.46373 27.445 7.48466 27.4192 7.48466H27.4125C27.4099 7.48466 27.4072 7.48484 27.4046 7.48522C27.4022 7.48559 27.4001 7.48559 27.3979 7.48559Z" fill="#102770"/>
<path d="M27.3993 7.43841C27.3914 7.43738 27.3836 7.43738 27.376 7.43738H27.4228C27.4147 7.43738 27.4071 7.43738 27.3993 7.43841Z" fill="#FFCBBD"/>
<path d="M27.3979 7.48559C27.3957 7.48559 27.3936 7.4854 27.3914 7.48522C27.3887 7.48484 27.3861 7.48466 27.3835 7.48466H27.3768C27.351 7.48466 27.3301 7.46373 27.3301 7.43795C27.3301 7.41216 27.351 7.39124 27.3768 7.39124H27.4192C27.445 7.39124 27.4659 7.41216 27.4659 7.43795C27.4659 7.46373 27.445 7.48466 27.4192 7.48466H27.4125C27.4099 7.48466 27.4072 7.48484 27.4046 7.48522C27.4022 7.48559 27.4001 7.48559 27.3979 7.48559Z" fill="#102770"/>
<path d="M27.376 7.43738H27.4228C27.415 7.43738 27.4071 7.43738 27.3995 7.43841C27.3914 7.43738 27.3836 7.43738 27.376 7.43738Z" fill="#FFCBBD"/>
<path d="M27.3979 7.48559C27.3957 7.48559 27.3936 7.4854 27.3914 7.48522C27.3887 7.48484 27.3861 7.48466 27.3835 7.48466H27.3768C27.351 7.48466 27.3301 7.46373 27.3301 7.43795C27.3301 7.41216 27.351 7.39124 27.3768 7.39124H27.4192C27.445 7.39124 27.4659 7.41216 27.4659 7.43795C27.4659 7.46373 27.445 7.48466 27.4192 7.48466H27.4125C27.4099 7.48466 27.4072 7.48484 27.4046 7.48522C27.4022 7.48559 27.4001 7.48559 27.3979 7.48559Z" fill="#102770"/>
<path d="M27.3993 6.5546C27.3914 6.55357 27.3836 6.55357 27.376 6.55357H27.4228C27.4147 6.55336 27.4071 6.55336 27.3993 6.5546Z" fill="#FFCBBD"/>
<path d="M27.3979 6.60131C27.3957 6.60131 27.3934 6.60113 27.3914 6.60094C27.3887 6.60056 27.3861 6.60038 27.3835 6.60038H27.3768C27.351 6.60038 27.3301 6.57945 27.3301 6.55367C27.3301 6.52788 27.351 6.50696 27.3768 6.50696H27.4192C27.445 6.50696 27.4659 6.52788 27.4659 6.55367C27.4659 6.57945 27.445 6.60038 27.4192 6.60038H27.4125C27.4099 6.60038 27.4072 6.60056 27.4046 6.60094C27.4022 6.60113 27.4001 6.60131 27.3979 6.60131Z" fill="#102770"/>
<path d="M27.6531 28.8973C27.5664 28.8973 27.4798 28.8969 27.3929 28.896C25.4028 28.9142 23.5198 28.7221 21.4693 28.2933C21.4177 28.2836 20.0557 28.0207 18.6738 27.2432C16.8015 26.1897 15.8124 24.6962 15.8135 22.9243C15.8142 21.7714 16.4454 21.0506 16.7364 20.7794C16.6331 20.0817 16.2446 17.4054 16.2299 16.4633C16.1858 13.6497 17.3071 11.2764 19.4723 9.60001C21.4438 8.07364 24.2385 7.20156 27.3475 7.14162C27.3564 7.14088 27.3653 7.1433 27.3748 7.1405H27.4171C27.4258 7.1405 27.4344 7.14088 27.4428 7.14162C30.5521 7.20267 33.3469 8.07606 35.3179 9.60336C37.4824 11.2807 38.6026 13.6546 38.5574 16.4681C38.5423 17.4102 38.1527 20.0864 38.049 20.7841C38.34 21.0553 38.9708 21.7764 38.971 22.9294C38.9712 24.7013 37.9816 26.1943 36.1089 27.2469C34.7267 28.0239 33.3646 28.286 33.3072 28.2968C31.3529 28.7048 29.5464 28.8973 27.6531 28.8973ZM27.4292 28.3007C29.3621 28.3165 31.1954 28.1293 33.1913 27.7129C33.2488 27.7019 38.3761 26.6876 38.3755 22.9295C38.3753 21.7725 37.5861 21.167 37.5526 21.1418C37.4649 21.0759 37.4193 20.9665 37.4357 20.8581C37.4407 20.8245 37.9455 17.4828 37.9619 16.4586C38.0567 10.562 32.7283 7.83091 27.3964 7.73635C24.3993 7.78754 21.7155 8.61625 19.8368 10.071C17.8257 11.628 16.7842 13.8353 16.8252 16.4542C16.8412 17.4783 17.3445 20.8204 17.3495 20.8539C17.3661 20.9633 17.3205 21.0728 17.2315 21.1383C17.1989 21.1627 16.4095 21.7678 16.4089 22.9247C16.4067 26.6891 21.5335 27.6995 21.5852 27.7091C23.5863 28.1276 25.4192 28.3156 27.3514 28.3007C27.3585 28.3003 27.3657 28.3 27.3728 28.3001C27.3849 28.3003 27.397 28.3003 27.4093 28.3001C27.416 28.3003 27.4227 28.3003 27.4292 28.3007Z" fill="#102770"/>
<path d="M31.2384 17.38C31.5037 17.2393 31.7842 17.1842 32.0685 17.1591C32.3521 17.138 32.6388 17.1552 32.9173 17.2112C33.1952 17.2678 33.4699 17.3461 33.7259 17.4673C33.9842 17.5814 34.2249 17.7341 34.4397 17.9159C34.4799 17.95 34.485 18.0101 34.4509 18.0503C34.4286 18.0768 34.3947 18.0879 34.3627 18.0829L34.3549 18.0816C34.2177 18.0589 34.0909 18.0205 33.9613 17.9917C33.831 17.9651 33.7061 17.9288 33.5781 17.9044C33.3257 17.8448 33.0729 17.8007 32.8212 17.7579C32.569 17.7166 32.3162 17.6877 32.061 17.6559C31.8064 17.6235 31.545 17.5976 31.2807 17.5613L31.2705 17.5598C31.218 17.5526 31.1813 17.5042 31.1884 17.4517C31.1927 17.42 31.2124 17.394 31.2384 17.38Z" fill="#102770"/>
<path d="M23.5063 17.5592C23.242 17.5953 22.9807 17.6212 22.726 17.6534C22.4708 17.685 22.218 17.7139 21.9658 17.755C21.7142 17.7978 21.4614 17.8418 21.209 17.9012C21.0809 17.9255 20.956 17.9616 20.8257 17.9885C20.6961 18.0171 20.5692 18.0555 20.432 18.0782L20.4244 18.0795C20.3724 18.088 20.3233 18.0529 20.3147 18.0007C20.3091 17.9665 20.3226 17.9334 20.3473 17.9125C20.5623 17.7306 20.803 17.5782 21.0614 17.4641C21.3175 17.3431 21.592 17.2649 21.8701 17.2083C22.1486 17.1523 22.4353 17.1355 22.719 17.1566C23.003 17.1817 23.2835 17.237 23.5488 17.3779C23.5957 17.4028 23.6134 17.4609 23.5886 17.5076C23.5737 17.5358 23.5467 17.5534 23.5173 17.5577L23.5063 17.5592Z" fill="#102770"/>
<path d="M18.0111 14.1582L17.7604 17.3318L17.5244 20.3216C17.4855 20.8147 17.0739 21.195 16.5791 21.1948H16.1894L15.6358 18.0672L15.0771 14.9115L16.7078 14.4933L18.0111 14.1582Z" fill="#A1523F"/>
<path d="M16.6102 21.4924H16.61C16.1164 21.4922 15.6957 21.1395 15.6097 20.6534L14.6023 14.9632C14.5736 14.8013 14.6817 14.6468 14.8435 14.6181C15.0051 14.5895 15.1599 14.6974 15.1886 14.8594L16.196 20.5496C16.2316 20.7508 16.4058 20.8969 16.6102 20.8969C16.8282 20.8969 17.0124 20.7268 17.0296 20.5094L17.5331 14.1343C17.5461 13.9703 17.6887 13.8482 17.8534 13.8609C18.0174 13.8739 18.1397 14.0172 18.1269 14.1812L17.6234 20.5563C17.5817 21.0812 17.1368 21.4924 16.6102 21.4924Z" fill="#102770"/>
<path d="M39.5137 12.5806L38.9901 15.75L38.1908 20.6061C38.1597 20.7778 38.0701 20.9263 37.9447 21.0318C37.9326 21.0419 37.9216 21.0508 37.9086 21.059C37.7881 21.1484 37.6415 21.1996 37.4829 21.1996C37.1083 21.1996 36.7962 20.9112 36.7671 20.5367L36.4688 16.5769L36.2666 13.8951L37.6493 13.0772L39.5137 12.5806Z" fill="#A1523F"/>
<path d="M37.4794 21.497H37.4792C36.9524 21.497 36.5076 21.0856 36.4664 20.5603L35.9657 13.9176C35.9534 13.7536 36.0763 13.6106 36.2403 13.5982C36.4057 13.587 36.5472 13.7087 36.5597 13.8727L37.0604 20.5147C37.0773 20.7312 37.2614 20.9015 37.4796 20.9015C37.684 20.9015 37.858 20.7555 37.8938 20.5543L39.2165 12.5327C39.2433 12.3705 39.3963 12.2611 39.5588 12.2873C39.7211 12.3141 39.831 12.4673 39.8041 12.6297L38.4809 20.655C38.3937 21.1444 37.9729 21.497 37.4794 21.497Z" fill="#102770"/>
<g opacity="0.3">
<path d="M27.4226 7.43738C27.4147 7.43738 27.4069 7.43738 27.3993 7.43841C27.3914 7.43738 27.3836 7.43738 27.376 7.43738H27.4226Z" fill="#6B184E"/>
<path d="M27.3979 7.48559C27.3957 7.48559 27.3936 7.4854 27.3914 7.48522C27.3887 7.48484 27.3861 7.48466 27.3835 7.48466H27.3768C27.351 7.48466 27.3301 7.46373 27.3301 7.43795C27.3301 7.41216 27.351 7.39124 27.3768 7.39124H27.4192C27.445 7.39124 27.4659 7.41216 27.4659 7.43795C27.4659 7.46373 27.445 7.48466 27.4192 7.48466H27.4125C27.4099 7.48466 27.4072 7.48484 27.4046 7.48522C27.4022 7.48559 27.4001 7.48559 27.3979 7.48559Z" fill="#102770"/>
</g>
<path d="M29.4774 23.2074C29.4772 23.6759 29.3298 24.1746 29.0316 24.5761C28.6865 25.0455 28.1405 25.381 27.3939 25.3808C26.7759 25.3806 26.2104 25.047 25.8245 24.5701C25.5057 24.1779 25.3113 23.6874 25.3115 23.2064C25.3117 22.6847 25.5364 22.6774 25.9014 22.806C26.0364 22.852 26.191 22.919 26.3604 22.9838C26.6648 23.1009 27.017 23.2161 27.3945 23.2161C27.7908 23.2161 28.161 23.0929 28.4758 22.9726C28.6504 22.9058 28.8093 22.841 28.9443 22.798C29.2767 22.6951 29.4776 22.7264 29.4774 23.2074Z" fill="#102770"/>
<path d="M29.0006 23.0627C29.0006 23.4618 28.6315 23.8566 28.0957 23.9071C27.56 23.9575 27.2896 23.9575 26.7538 23.9067C26.1472 23.8492 25.7537 23.3503 25.8685 22.9034C25.8767 22.8706 25.8877 22.8379 25.9013 22.8064C26.0366 22.8529 26.1909 22.9199 26.3603 22.9842C26.665 23.1018 27.0176 23.2167 27.3947 23.2167C27.791 23.2167 28.1615 23.0938 28.4757 22.9737C28.6506 22.9067 28.809 22.8412 28.9444 22.799C28.9594 22.8332 28.9702 22.8673 28.9799 22.9041C28.9939 22.9561 29.0006 23.0093 29.0006 23.0627Z" fill="white"/>
<path d="M29.0362 24.576C28.6911 25.0455 28.1451 25.3809 27.3985 25.3807C26.7805 25.3805 26.215 25.047 25.8291 24.5701C26.1011 24.3966 26.9156 24.1667 27.2846 24.4762C27.3996 24.5736 27.4277 24.7586 27.4277 24.7586C27.4277 24.7586 27.456 24.5736 27.5721 24.4762C27.9455 24.1637 28.7726 24.4012 29.0362 24.576Z" fill="#FF457D"/>
<path d="M27.3983 25.6134C27.3981 25.6134 27.3979 25.6134 27.3977 25.6134C26.0725 25.6131 25.0828 24.3423 25.083 23.2062C25.083 23.0106 25.1068 22.7338 25.3123 22.5882C25.5096 22.4486 25.7615 22.509 25.9819 22.5866C26.066 22.6156 26.1561 22.6515 26.2514 22.6897C26.3138 22.7146 26.3788 22.7407 26.4463 22.7662C26.7255 22.874 27.0558 22.9834 27.3983 22.9836H27.3984C27.7519 22.9836 28.0868 22.8742 28.396 22.756C28.4418 22.7385 28.4863 22.7212 28.5296 22.7042C28.6538 22.6558 28.7713 22.61 28.8785 22.5763C29.0657 22.5179 29.3047 22.4682 29.4926 22.6065C29.6906 22.7521 29.7133 23.019 29.7133 23.207C29.7133 23.7954 29.5035 24.3845 29.1378 24.8231C28.8375 25.1838 28.2916 25.6134 27.3983 25.6134ZM25.5819 22.9697C25.5729 22.9858 25.5482 23.0454 25.5482 23.2062C25.548 24.104 26.3559 25.1479 27.3977 25.1481C27.3979 25.1481 27.3981 25.1481 27.3981 25.1481C28.1116 25.1481 28.5436 24.8095 28.7806 24.5253C29.0776 24.169 29.248 23.6884 29.2481 23.207C29.2481 23.0558 29.2251 22.9991 29.2165 22.9832C29.1998 22.9808 29.1473 22.9797 29.0173 23.0205C28.9254 23.0491 28.8154 23.0921 28.6987 23.1376C28.6543 23.1549 28.6089 23.1725 28.5622 23.1904C28.2281 23.3183 27.8284 23.4488 27.3984 23.4488C27.3983 23.4488 27.3983 23.4488 27.3983 23.4488C26.9794 23.4488 26.598 23.3233 26.2801 23.2007C26.2112 23.1746 26.1435 23.1474 26.0785 23.1215C25.9888 23.0856 25.9039 23.0517 25.8289 23.0259C25.6632 22.9674 25.6012 22.9669 25.5819 22.9697Z" fill="#102770"/>
<g opacity="0.3">
<path d="M38.672 22.9296C38.672 22.9305 38.672 22.9305 38.672 22.9316C38.6711 26.9847 33.2514 28.0046 33.2514 28.0046C31.2624 28.4198 29.4081 28.6172 27.3899 28.5976C27.3035 28.5985 27.2171 28.5985 27.1319 28.5985C25.2133 28.5982 23.4323 28.3999 21.5288 28.002C21.5288 28.002 16.1076 26.9797 16.1104 22.9247C16.1104 22.6487 16.1506 22.3996 16.2159 22.1788C16.9662 25.4529 21.5292 26.3134 21.5292 26.3134C23.4336 26.7114 25.2146 26.9106 27.1332 26.911C27.2185 26.911 27.3039 26.911 27.3903 26.91C29.4082 26.9296 31.2626 26.7312 33.2517 26.3159C33.2517 26.3159 37.815 25.4574 38.5667 22.1837C38.632 22.4044 38.6722 22.6535 38.672 22.9296Z" fill="#102770"/>
</g>
<g opacity="0.3">
<path d="M38.9139 16.2012C38.9087 16.4991 38.7371 17.2738 38.6767 17.8129C37.4216 17.9279 35.6165 17.8058 33.9215 17.0298C31.6282 15.9797 29.6402 14.0133 29.6402 14.0133C29.7525 15.1002 30.0403 16.2139 30.2649 16.9627C30.3913 17.3857 30.019 17.7935 29.5881 17.7002C25.4412 16.8045 22.2155 13.8962 22.2155 13.8962C22.3017 14.6503 22.583 15.6389 22.8276 16.3991C22.9785 16.8682 22.5132 17.3013 22.0555 17.1157C19.2791 15.9926 18.4746 15.0462 18.4746 15.0462C18.0722 16.7695 16.2122 18.1812 15.5451 18.5971C15.5362 18.5271 15.3591 17.1336 15.351 17.0651C15.2878 16.5061 16.5343 16.7652 16.53 16.4577C16.519 15.7647 16.5808 15.1104 16.7098 14.4934C17.6383 10.0062 22.0525 7.52826 27.3981 7.43872C32.1489 7.52081 36.1631 9.48927 37.6476 13.0768C38.0241 13.9813 38.2374 14.9907 38.2603 16.0977C38.2639 16.2176 38.9154 16.0784 38.9139 16.2012Z" fill="#102770"/>
</g>
<path d="M18.4789 13.5578C18.4789 13.5578 19.283 14.5037 22.0601 15.6273C22.5174 15.8123 22.9828 15.3799 22.8317 14.9105C22.5872 14.1506 22.3056 13.1617 22.22 12.4076C22.22 12.4076 25.4449 15.3163 29.592 16.2118C30.0231 16.3049 30.3952 15.8968 30.2688 15.4743C30.0447 14.7251 29.7567 13.6112 29.6443 12.5243C29.6443 12.5243 31.6323 14.4909 33.9256 15.5409C35.9628 16.4737 37.4016 16.4166 38.9176 16.2016C38.9176 16.2016 38.9453 16.0422 39.5153 12.5807C39.5153 12.5807 42.394 10.9728 43.2197 9.61842C43.2197 9.61842 40.6995 8.99838 39.5938 8.14323C39.5938 8.14323 41.0765 6.64013 41.747 5.01863C39.7796 4.77181 33.4051 2.26055 30.1609 1.60049C26.8622 0.929441 21.9421 0.935211 17.1682 5.68168C14.8314 8.00512 13.2302 8.94886 12.3468 9.33101C11.9607 9.49798 11.8388 9.98549 12.0986 10.3161L14.5191 13.3958L15.2541 16.9333C15.2543 16.9333 17.623 17.2257 18.4789 13.5578Z" fill="#A1523F"/>
<path d="M22.8253 14.9102C22.8722 15.0561 22.8596 15.1991 22.8052 15.3212C22.6922 14.8781 22.5977 14.4361 22.5547 14.0533C22.5547 14.0533 22.5599 14.0586 22.5711 14.0675C22.6535 14.3629 22.7419 14.6496 22.8253 14.9102Z" fill="#925A4D"/>
<path d="M22.806 15.3676C22.8047 15.3676 22.8034 15.3676 22.8021 15.3674C22.7823 15.3657 22.7658 15.3517 22.7609 15.3326C22.6306 14.8218 22.5482 14.405 22.5091 14.0586C22.5069 14.0389 22.5175 14.0199 22.5353 14.0113C22.5532 14.0029 22.5744 14.0065 22.5884 14.0206C22.5889 14.0212 22.593 14.0251 22.6007 14.031C22.6083 14.0372 22.6139 14.0456 22.6165 14.0549C22.6874 14.3086 22.768 14.5759 22.8704 14.8961C22.9186 15.0461 22.911 15.1996 22.8484 15.34C22.841 15.3569 22.8242 15.3676 22.806 15.3676ZM22.7053 14.682C22.7341 14.8229 22.7678 14.9727 22.8069 15.1326C22.8125 15.064 22.8041 14.9938 22.7818 14.9243C22.7548 14.8402 22.7295 14.7596 22.7053 14.682Z" fill="#102770"/>
<g opacity="0.45">
<path d="M41.7423 4.83198C41.5382 5.32545 41.2588 5.80775 40.9685 6.24016C38.3282 5.54063 33.2696 3.6241 30.4968 3.06083C27.1985 2.38941 22.6393 2.7885 17.5044 7.14183C15.0793 9.19797 11.5225 9.40273 11.5225 9.40273C11.5225 9.40273 13.3776 9.2594 17.163 5.49502C21.9372 0.74893 26.8569 0.743346 30.1561 1.41402C33.4001 2.07446 39.7747 4.58516 41.7423 4.83198Z" fill="white"/>
</g>
<g opacity="0.3">
<path d="M43.2153 9.61822C42.3902 10.9728 39.5113 12.5809 39.5113 12.5809C38.9419 16.0422 38.9134 16.2015 38.9134 16.2015C37.3978 16.4164 35.9587 16.4733 33.9216 15.5409C31.6283 14.4909 29.6403 12.5245 29.6403 12.5245C29.7525 13.6114 30.0403 14.7251 30.265 15.4739C30.3914 15.8968 30.0191 16.3047 29.5882 16.2114C25.4413 15.3157 22.2156 12.4074 22.2156 12.4074C22.3018 13.1615 22.583 14.1501 22.8276 14.9103C22.9786 15.3794 22.5132 15.8118 22.0555 15.6269C19.2792 14.5037 18.4747 13.5574 18.4747 13.5574C17.6186 17.2257 15.2499 16.9325 15.2499 16.9325L14.8877 15.1899C15.6552 14.9935 16.8725 14.2947 17.4358 11.8823C17.4358 11.8823 18.2396 12.8279 21.0166 13.9511C21.4744 14.1365 21.9397 13.7041 21.7888 13.2344C21.544 12.4744 21.2629 11.4856 21.1767 10.7315C21.1767 10.7315 24.4024 13.6406 28.5493 14.5363C28.9802 14.6294 29.3525 14.2208 29.2261 13.7988C29.0014 13.0492 28.7137 11.9355 28.6014 10.8486C28.6014 10.8486 30.5892 12.815 32.8827 13.8651C33.9184 14.3396 34.7994 14.5577 35.6146 14.6296C36.8651 14.7398 37.9858 13.8571 38.19 12.6185C38.1938 12.5956 38.1977 12.5723 38.2016 12.5487C38.3672 11.5441 38.9439 10.6556 39.7884 10.0867C40.2568 9.77123 40.7806 9.39001 41.2348 8.98999C42.2386 9.37829 43.2153 9.61822 43.2153 9.61822Z" fill="#102770"/>
</g>
<path d="M15.3707 17.236C15.2771 17.236 15.2207 17.2295 15.213 17.2285C15.0864 17.2129 14.9839 17.1183 14.958 16.9936L14.2371 13.5247L11.8598 10.5C11.6782 10.2688 11.6152 9.97267 11.6875 9.68768C11.7595 9.40363 11.955 9.17393 12.2239 9.05759C13.1297 8.66575 14.6857 7.72536 16.9537 5.47042C20.7541 1.69171 25.2164 0.291542 30.2156 1.30863C31.8632 1.64387 34.2488 2.43144 36.5556 3.19296C38.7534 3.91854 40.8295 4.60392 41.7794 4.72305C41.8715 4.73459 41.9531 4.78858 41.9998 4.8688C42.0465 4.94903 42.053 5.04657 42.0176 5.13238C41.4909 6.40635 40.5002 7.58817 40.0425 8.09467C41.185 8.80648 43.2637 9.32396 43.2864 9.32954C43.3785 9.35225 43.4543 9.4174 43.4906 9.50526C43.5267 9.59293 43.5189 9.69271 43.4696 9.77368C42.7043 11.0287 40.3593 12.4353 39.7817 12.7693C39.2402 16.0582 39.2078 16.2464 39.2065 16.253C39.1844 16.3801 39.0827 16.4784 38.955 16.4966C37.54 16.6973 35.9762 16.8097 33.7974 15.812C32.2304 15.0946 30.8219 13.9766 30.0496 13.3037C30.1862 14.0924 30.3863 14.8425 30.5497 15.3892C30.64 15.691 30.5659 16.0095 30.3517 16.241C30.1389 16.4709 29.8299 16.5688 29.5248 16.5031C26.3814 15.8243 23.7924 14.0412 22.6467 13.149C22.7743 13.7268 22.9568 14.3405 23.1107 14.8193C23.2164 15.1476 23.125 15.4976 22.8723 15.7325C22.6197 15.9674 22.2638 16.0331 21.9438 15.9034C20.1214 15.1661 19.1233 14.4976 18.6371 14.1073C18.1438 15.7707 17.3176 16.5329 16.6849 16.8817C16.1231 17.1909 15.6173 17.236 15.3707 17.236ZM27.1409 1.58468C23.531 1.58468 20.2556 3.02673 17.3734 5.89278C15.0394 8.21361 13.4134 9.19198 12.4602 9.60429C12.3622 9.64673 12.2909 9.73031 12.2647 9.83399C12.2383 9.9386 12.2614 10.0471 12.328 10.132L14.7484 13.2117C14.7769 13.2479 14.7964 13.2901 14.8057 13.3352L15.4922 16.6386C16.044 16.6031 17.5409 16.2455 18.1839 13.49C18.2094 13.3806 18.2944 13.2948 18.4037 13.2683C18.5124 13.2421 18.6267 13.2788 18.6997 13.3636C18.7134 13.3793 19.5278 14.2836 22.1668 15.3513C22.3222 15.4144 22.4354 15.325 22.4665 15.2962C22.4976 15.2673 22.5945 15.161 22.5433 15.0017C22.3084 14.2715 22.0095 13.2345 21.9192 12.4413C21.9052 12.3183 21.9687 12.1995 22.0787 12.1429C22.1887 12.0863 22.3224 12.1036 22.4143 12.1865C22.446 12.2151 25.6326 15.0533 29.6499 15.9209C29.7897 15.951 29.8811 15.8721 29.9139 15.8365C29.9474 15.8003 30.0207 15.7008 29.9786 15.5598C29.7523 14.8029 29.4582 13.6672 29.3432 12.555C29.3301 12.4299 29.3973 12.3103 29.5105 12.2559C29.6239 12.2014 29.7592 12.2243 29.8485 12.3127C29.8681 12.332 31.8278 14.2554 34.0446 15.2705C35.973 16.1534 37.3401 16.1104 38.655 15.9365C38.7112 15.5985 38.8541 14.7335 39.2166 12.5325C39.2313 12.443 39.286 12.3652 39.3651 12.3209C39.3908 12.3065 41.7286 10.9922 42.7207 9.7949C41.9398 9.57525 40.2798 9.05423 39.4068 8.37891C39.3394 8.32679 39.2977 8.24823 39.2919 8.16335C39.2862 8.07829 39.3173 7.99489 39.377 7.9344C39.3904 7.92081 40.6218 6.66211 41.312 5.24816C40.2083 5.02628 38.3367 4.40847 36.3688 3.75865C34.0783 3.00253 31.7098 2.22054 30.0967 1.89237C29.0883 1.68706 28.1027 1.58468 27.1409 1.58468Z" fill="#102770"/>
<path d="M38.6363 35.3548L39.7243 34.5276C40 34.318 40.0013 33.9034 39.7268 33.6922L35.2979 30.2841L38.6363 35.3548Z" fill="#FF5722"/>
<path d="M38.6371 35.4011C38.6232 35.4011 38.6092 35.3948 38.6001 35.3827C38.5846 35.3622 38.5885 35.333 38.609 35.3176L39.6968 34.4903C39.8167 34.3993 39.8856 34.2606 39.8861 34.1102C39.8865 33.9596 39.8184 33.8208 39.6991 33.729L35.2702 30.3211C35.2497 30.3055 35.246 30.2762 35.2616 30.2558C35.2772 30.2353 35.3065 30.2316 35.3269 30.2472L39.7558 33.6551C39.8982 33.7647 39.9798 33.9308 39.9792 34.1104C39.9787 34.29 39.8964 34.4555 39.7532 34.5642L38.6654 35.3915C38.6569 35.3982 38.647 35.4011 38.6371 35.4011Z" fill="#102770"/>
<path d="M15.1837 35.3503L14.0961 34.5227C13.8204 34.3129 13.8193 33.8986 14.0941 33.6873L18.5245 30.2812L15.1837 35.3503Z" fill="#FF5722"/>
<path d="M15.1843 35.3965C15.1744 35.3965 15.1646 35.3934 15.1562 35.387L14.0686 34.5595C13.9254 34.4506 13.8433 34.2851 13.8428 34.1053C13.8424 33.9256 13.9237 33.7596 14.0663 33.6501L18.4967 30.2441C18.517 30.2285 18.5462 30.2324 18.5621 30.2527C18.5777 30.2729 18.5738 30.3022 18.5535 30.318L14.1231 33.724C14.0038 33.8158 13.9357 33.9547 13.936 34.1051C13.9364 34.2557 14.0053 34.3942 14.1252 34.4854L15.2128 35.313C15.2333 35.3286 15.2372 35.3576 15.2217 35.3781C15.2122 35.3902 15.1983 35.3965 15.1843 35.3965Z" fill="#102770"/>
<path d="M39.3039 39.4302C39.3039 39.5557 39.3025 39.6806 39.2986 39.8053C39.0986 46.4813 33.6234 51.8316 26.8994 51.8301C20.1759 51.8287 14.7023 46.4761 14.5052 39.7999C14.5015 39.6752 14.5 39.5503 14.5 39.4248C14.5015 32.5759 20.0556 27.0241 26.9046 27.0256C33.7545 27.0271 39.3054 32.5811 39.3039 39.4302Z" fill="#4FA1FF"/>
<mask id="mask0_991_3083" style="mask-type:luminance" maskUnits="userSpaceOnUse" x="14" y="27" width="26" height="25">
<path d="M26.902 51.8298C33.7514 51.8298 39.3039 46.2773 39.3039 39.4279C39.3039 32.5784 33.7514 27.0259 26.902 27.0259C20.0526 27.0259 14.5 32.5784 14.5 39.4279C14.5 46.2773 20.0526 51.8298 26.902 51.8298Z" fill="white"/>
</mask>
<g mask="url(#mask0_991_3083)">
<path d="M33.4336 46.3179C33.3761 45.7061 33.0345 45.1322 32.5262 44.7934C31.8735 44.3588 31.7256 43.407 31.6353 42.7241C31.5625 42.1733 31.2159 41.745 30.6787 42.1247C29.4444 42.997 27.655 41.6692 27.3041 40.3962C26.9979 39.0342 27.3214 37.8428 28.0133 36.6848C28.4936 35.8811 29.5036 35.6393 30.3142 36.0365C31.2697 36.5045 32.76 35.0578 32.9154 34.1127C32.9331 34.0049 32.9446 33.8594 32.9066 33.7734C32.52 32.9043 31.1954 32.8482 30.7524 33.6544C30.4656 34.1764 29.8727 34.3661 29.3433 34.0839C28.3703 33.5649 28.0639 33.998 27.7326 34.9531C27.6258 35.261 27.6245 35.818 27.2429 35.5812C26.8678 35.3485 26.5465 34.8843 26.7414 34.4427C27.217 33.3657 27.6595 32.2221 27.9437 31.0613C27.9623 30.9855 28.0379 30.8828 28.0904 30.8774C29.2984 30.751 29.1722 29.1933 29.4092 28.3251C29.4928 28.0191 29.4289 27.879 29.2316 27.758C29.03 27.6344 28.9362 27.7745 28.8582 27.9897C28.7274 28.3506 28.5989 28.7133 28.4658 29.0727C28.3975 29.2572 28.3728 29.5377 28.1674 29.5073C27.9269 29.4718 27.8033 29.1788 27.8175 28.9126C27.8579 28.1502 28.0602 27.2991 28.5245 26.6824C28.8759 26.2156 29.5546 25.8781 30.0931 26.2368C30.7621 26.6822 31.2835 26.6372 32.016 26.2612C32.3236 26.1032 32.6546 25.9323 32.98 25.8342C33.5299 25.6685 33.9226 25.226 34.0617 24.6671C34.2093 24.1096 34.6581 23.7079 35.2176 23.6018C35.5702 23.5349 35.798 23.3399 35.9011 22.9147C36.0845 22.158 36.6818 21.5869 37.402 21.344C38.4729 20.9827 39.3571 21.0427 40.1329 21.8425C40.3447 22.0609 40.5655 21.9758 40.7725 21.9315C41.314 21.8152 41.8921 21.7264 42.4061 21.5983C42.7957 21.5013 43.3549 21.6858 43.6065 21.998C43.7763 22.2085 43.9734 22.2319 44.1681 22.2042C44.4356 22.166 44.7236 22.161 44.9764 22.132C45.5865 22.0616 45.8464 22.1869 46.1675 22.7371C46.2946 23.2764 45.9357 23.9969 45.4307 24.1276C45.2841 24.1656 45.1067 24.1905 44.9382 24.1931C44.4658 24.2008 44.3874 24.4979 44.5454 25.0948C44.8848 26.3759 44.4596 28.2619 43.0931 28.7367C42.7618 28.8519 42.5783 28.9819 42.7328 29.5083C42.8137 29.7838 42.8595 30.1091 42.7238 30.3939C42.4124 31.0466 42.2447 31.7831 42.4457 32.4849C42.6038 33.0366 42.0738 33.453 41.5774 33.1615C41.0379 32.8449 40.5115 32.4838 40.0101 32.1024C39.6225 31.8077 39.4014 31.9004 39.2368 32.4183C39.095 32.8646 38.8604 33.3177 38.7521 33.749C38.614 34.2985 38.1529 34.6782 37.6483 34.2568C37.072 33.8899 36.7626 33.7497 36.1679 33.8998C35.9573 33.9528 35.7211 33.8711 35.5175 33.7164C35.3105 33.5593 35.0706 33.3849 34.9619 33.8106C34.8593 34.2116 35.1908 34.1864 35.3399 34.3085C35.6104 34.5299 35.9054 34.705 36.1885 34.8854C36.6857 35.2022 36.7416 35.7042 36.4177 36.1746C36.102 36.6333 35.5078 37.0115 34.9579 36.6318C34.5875 36.3965 34.2236 36.1497 33.8547 35.9138C33.6799 35.802 33.5151 35.6039 33.3553 36.0069C33.1857 36.4341 33.4312 36.4661 33.5931 36.5756C34.2381 37.0117 34.8859 37.4419 35.5456 37.8546C36.1133 38.2097 36.3032 38.9305 36.0018 39.5189C35.3803 40.7323 35.4957 42.045 35.938 43.4085C36.1189 43.9664 36.2544 44.5176 36.3764 45.094C36.6249 46.2377 36.0871 47.9443 34.8234 48.2521C34.3204 48.3646 33.9053 48.0141 33.7607 47.5521C33.6369 47.1537 33.5369 46.7288 33.4336 46.3179Z" fill="#77E236"/>
<path d="M9.64185 38.4789C9.11507 37.3942 9.19585 36.545 10.4052 36.0784C12.1918 35.3024 13.9555 34.4738 15.6928 33.5991C15.9858 33.4515 16.2864 33.274 16.547 33.5969C16.7672 33.8698 16.7522 34.2136 16.6399 34.5771C16.4409 35.2223 16.9199 35.3839 17.3707 35.6028C17.7504 35.7873 18.1683 35.5505 18.4809 35.2372C18.7556 34.9617 18.4751 34.6196 18.4192 34.3139C18.3802 34.1001 18.2573 33.872 18.4206 33.6837C18.589 33.4891 18.7616 33.6732 18.9058 33.7732C19.1949 33.9733 19.4702 34.0046 19.7911 33.8221C20.072 33.6624 20.3728 33.6716 20.5882 33.9954C20.8013 34.316 20.768 34.7091 20.6392 35.066C20.1146 36.5186 19.5248 37.9923 19.0119 39.4057C18.7917 40.0125 18.1164 40.2201 17.5781 40.4444C17.0379 40.6694 17.0243 41.2701 17.2579 41.7234C17.3543 41.9103 17.4614 42.0461 17.6328 41.9769C18.3154 41.7014 18.8855 42.1995 19.3889 42.5502C19.7753 42.8194 20.3058 42.9875 20.7695 42.7453C21.3242 42.4553 21.7797 42.4873 22.3268 42.8168C22.7556 43.0751 23.3599 43.4627 23.895 43.3112C24.5927 43.1137 24.956 45.1328 24.8155 45.6532C24.4311 47.0781 23.9079 48.6014 23.3707 50.0023C23.0788 50.7636 23.0306 51.532 23.2802 52.279C23.4051 52.6529 23.5041 53.0921 23.5963 53.506C23.6532 53.7625 23.8381 54.0747 23.7007 54.2744C23.5293 54.5233 23.2735 54.2625 23.0749 54.1443C22.4035 53.7411 21.9833 52.9852 21.7864 52.2531C21.6403 51.71 21.4696 51.1521 21.3575 50.6056C21.1345 49.5183 20.7488 48.3655 19.7455 47.7347C18.8377 47.1094 18.5065 45.1949 18.7817 44.2339C18.8535 43.9826 19.1785 43.7138 18.9289 43.4322C18.6687 43.1386 18.3208 42.7563 17.9686 42.8959C17.2467 43.1822 16.4538 42.731 15.8963 42.3008C15.3529 41.8816 14.8038 41.4596 14.1985 41.1255C13.3087 40.6424 13.0602 39.5959 12.7534 38.7384C12.493 38.0104 11.4303 37.1971 10.6517 37.2965C10.0806 37.3697 9.89575 38.0199 9.64185 38.4789Z" fill="#77E236"/>
<path d="M21.7281 27.3964C21.952 27.2738 22.1903 27.1425 22.401 27.0312C22.8518 26.793 23.632 26.1228 24.0426 26.8423C24.6302 27.872 24.7561 28.8322 24.3801 29.8878C24.0599 30.7865 23.6703 31.7522 23.3643 32.703C23.1078 33.5001 22.7897 33.6002 22.2709 33.1496C21.9721 32.8901 21.6274 32.6524 21.509 32.2362C21.3149 31.5536 20.8154 31.0421 20.2075 30.7117C19.8708 30.5287 19.5098 30.2563 19.6256 29.6292C19.7257 29.0875 19.8439 28.4068 20.3866 28.1311C20.8273 27.9072 21.2812 27.6457 21.729 27.4003C21.7288 27.399 21.7285 27.3977 21.7281 27.3964Z" fill="#77E236"/>
<path d="M18.1149 32.4736C17.7307 32.7082 17.4003 32.8744 17.0444 32.7257C16.8942 32.6629 16.7684 32.5404 16.7388 32.3567C16.698 32.1045 16.8988 32.0563 17.031 31.9774C17.2536 31.8445 17.4845 31.7346 17.7104 31.6077C18.1123 31.3819 18.5699 31.2611 18.7031 31.8655C18.8256 32.4217 18.2573 32.2519 18.1149 32.4736Z" fill="#77E236"/>
<path d="M36.5168 43.4608C36.4269 42.9902 36.3889 42.3775 36.8343 42.0793C37.1675 41.8563 37.2141 42.3464 37.2803 42.618C37.3941 43.0846 37.4404 43.6991 36.9762 43.9997C36.6039 44.2406 36.6463 43.7037 36.5168 43.4608Z" fill="#77E236"/>
<path d="M26.9331 30.5891C27.0361 30.9843 27.2181 31.574 26.7892 31.8395C26.5199 32.0062 26.4817 31.5764 26.4391 31.3512C26.3635 30.9512 26.1428 30.3477 26.5344 30.0514C26.8719 29.7962 26.777 30.4802 26.9331 30.5891Z" fill="#77E236"/>
<path d="M26.2122 31.6043C26.2734 31.866 26.2425 32.073 26.0249 32.173C25.8768 32.2411 25.7636 32.1938 25.7102 31.9909C25.6435 31.7376 25.6927 31.5142 25.8677 31.3759C26.0549 31.2277 26.1476 31.3941 26.2122 31.6043Z" fill="#77E236"/>
<path d="M34.6353 48.4216C34.1355 48.4216 33.7552 48.0337 33.6182 47.5963C33.5149 47.2664 33.4281 46.917 33.3442 46.5794L33.2879 46.3539C33.2861 46.3465 33.2848 46.339 33.284 46.3316C33.2304 45.7613 32.9157 45.2324 32.4425 44.9171C31.7659 44.4664 31.5944 43.5588 31.4866 42.7435C31.4474 42.4464 31.3262 42.2195 31.1706 42.1514C31.0589 42.1026 30.9219 42.1344 30.7637 42.2461C30.2829 42.586 29.6963 42.6469 29.0677 42.4222C28.1932 42.1097 27.3907 41.2741 27.1597 40.4355C26.8677 39.1377 27.0987 37.9239 27.8848 36.6084C28.3928 35.7583 29.4651 35.4549 30.3791 35.9026C30.7087 36.0641 31.0903 35.937 31.3522 35.8019C32.0237 35.4556 32.672 34.6709 32.7679 34.0882C32.7895 33.9575 32.7844 33.866 32.7699 33.833C32.6134 33.481 32.2541 33.2511 31.8325 33.2335C31.4228 33.2163 31.0587 33.4049 30.8824 33.7256C30.5559 34.3196 29.864 34.5299 29.2728 34.2146C28.9179 34.0253 28.6547 33.9687 28.4687 34.0415C28.2163 34.1403 28.048 34.4968 27.8729 35.0013C27.8514 35.0627 27.8341 35.1384 27.8159 35.2187C27.7636 35.4478 27.7092 35.685 27.521 35.7635C27.4155 35.8074 27.2953 35.7886 27.164 35.7071C26.7176 35.4301 26.3822 34.886 26.6048 34.382C27.1744 33.092 27.5538 32.0254 27.7988 31.0252C27.8222 30.9294 27.9272 30.7442 28.0744 30.7285C28.8883 30.6433 29.0134 29.8026 29.1343 28.9896C29.1721 28.7349 29.2081 28.4946 29.2652 28.285C29.3352 28.0283 29.2821 27.963 29.1533 27.8839C29.112 27.8584 29.0943 27.8599 29.0945 27.8597C29.0913 27.8612 29.0558 27.8796 28.9979 28.0395C28.9527 28.1642 28.9078 28.2891 28.8628 28.4138C28.7775 28.6508 28.6923 28.8878 28.605 29.1234C28.5919 29.1586 28.5808 29.1979 28.5694 29.2373C28.5197 29.4091 28.4369 29.6969 28.1452 29.6537C27.8122 29.6044 27.651 29.2306 27.6683 28.9038C27.6968 28.368 27.8302 27.3554 28.405 26.5919C28.8082 26.0563 29.5655 25.706 30.1753 26.1118C30.7624 26.5027 31.2095 26.5066 31.9477 26.1276L31.9619 26.1204C32.2772 25.9584 32.6033 25.7911 32.9369 25.6906C33.4218 25.5446 33.7881 25.1481 33.9171 24.6301C34.0781 24.0225 34.5654 23.573 35.1898 23.4546C35.5034 23.395 35.6728 23.2229 35.7562 22.8789C35.9442 22.103 36.5415 21.4763 37.3542 21.2021C38.5869 20.7862 39.4768 20.9515 40.2396 21.738C40.3634 21.8655 40.4777 21.8463 40.6695 21.8013C40.6935 21.7957 40.7173 21.7901 40.7411 21.7849C40.9604 21.7378 41.1882 21.6946 41.4084 21.6529C41.7321 21.5917 42.0666 21.5284 42.3701 21.4528C42.817 21.3415 43.4359 21.5479 43.7224 21.9035C43.8317 22.0392 43.9551 22.0831 44.147 22.0557C44.3033 22.0334 44.4647 22.0222 44.6205 22.0112C44.7398 22.0029 44.8525 21.9951 44.9591 21.9828C45.6348 21.9044 45.9472 22.0632 46.2958 22.6609C46.3033 22.6735 46.3087 22.6873 46.3122 22.7017C46.4609 23.3319 46.0348 24.1236 45.4679 24.2705C45.3039 24.3129 45.1166 24.3379 44.9403 24.3408C44.7341 24.3442 44.6849 24.4093 44.6687 24.4307C44.5974 24.5251 44.6043 24.7353 44.6892 25.0556C45.0658 26.4776 44.523 28.3963 43.1418 28.8764C42.8654 28.9724 42.7485 29.0331 42.8754 29.4654C42.9923 29.8631 42.9866 30.1876 42.8579 30.4571C42.5104 31.1855 42.4198 31.8536 42.5886 32.4429C42.6792 32.7592 42.5864 33.0713 42.3462 33.2575C42.1076 33.4425 41.7837 33.4546 41.5017 33.2889C40.9881 32.9874 40.4558 32.6277 39.9195 32.2199C39.7795 32.1134 39.6704 32.0682 39.6043 32.0892C39.5498 32.1065 39.4662 32.1853 39.3784 32.4623C39.3151 32.6616 39.2339 32.8619 39.1554 33.0559C39.0524 33.31 38.9551 33.5503 38.8963 33.7842C38.7989 34.172 38.5692 34.4592 38.282 34.5526C38.1158 34.6068 37.8561 34.6195 37.5603 34.3764C37.0088 34.0255 36.7469 33.906 36.2043 34.043C35.9615 34.1042 35.6857 34.03 35.4275 33.8338C35.3765 33.795 35.2214 33.6765 35.1788 33.6921C35.1784 33.6921 35.1408 33.7109 35.1062 33.8462C35.0632 34.0147 35.1027 34.0311 35.2495 34.0921C35.3095 34.1171 35.3774 34.1454 35.4344 34.1921C35.6514 34.3699 35.8906 34.5203 36.122 34.666C36.1711 34.6969 36.2201 34.7278 36.2687 34.7587C36.5319 34.9264 36.6988 35.1518 36.7515 35.4108C36.807 35.6838 36.734 35.9768 36.5406 36.2579C36.2986 36.6095 35.9522 36.8567 35.6138 36.9189C35.3552 36.9662 35.0993 36.9092 34.8737 36.7532C34.6835 36.6326 34.4902 36.5055 34.2972 36.3785C34.1234 36.2642 33.9497 36.1499 33.7749 36.0383C33.7492 36.0219 33.7237 36.0036 33.6982 35.9858C33.6613 35.9595 33.5995 35.9156 33.5763 35.9135C33.577 35.915 33.5422 35.9396 33.494 36.061C33.4009 36.2955 33.4462 36.3204 33.5804 36.3942C33.6135 36.4124 33.6465 36.4308 33.677 36.4515C34.2058 36.8091 34.905 37.2772 35.625 37.7275C36.2562 38.1223 36.4753 38.9212 36.1348 39.5858C35.6004 40.6293 35.5829 41.829 36.0801 43.3617C36.2426 43.8626 36.3831 44.4032 36.5224 45.0625C36.7746 46.2233 36.2638 48.0536 34.859 48.3959C34.7817 48.4136 34.7073 48.4216 34.6353 48.4216ZM33.5796 46.2923L33.6334 46.5077C33.7163 46.8413 33.8019 47.186 33.9026 47.5075C34.015 47.8665 34.341 48.207 34.7907 48.1067C35.9999 47.812 36.452 46.144 36.2307 45.1254C36.0914 44.4668 35.9576 43.9516 35.7962 43.454C35.2732 41.8411 35.2962 40.569 35.8692 39.4505C36.1385 38.9244 35.9654 38.2925 35.4664 37.9803C34.7423 37.5274 34.0402 37.0574 33.5095 36.6985C33.4864 36.6829 33.4611 36.6693 33.4361 36.6555C33.2381 36.5464 33.0413 36.3932 33.2167 35.9515C33.2632 35.8341 33.3429 35.6725 33.4953 35.6276C33.6452 35.5831 33.7699 35.6721 33.8704 35.7436C33.8916 35.7587 33.913 35.7741 33.9346 35.7879C34.1105 35.9003 34.2853 36.0152 34.4601 36.1302C34.652 36.2562 34.8439 36.3824 35.0375 36.5057C35.2037 36.6203 35.3781 36.6602 35.5595 36.6267C35.8217 36.5784 36.0967 36.3778 36.2947 36.0898C36.4414 35.8769 36.4982 35.6628 36.4591 35.4707C36.4224 35.2903 36.3044 35.1357 36.1082 35.0106C36.06 34.9798 36.0116 34.9493 35.9628 34.9188C35.7238 34.7684 35.4764 34.6128 35.2452 34.4233C35.222 34.4043 35.1775 34.3859 35.1345 34.3678C34.9863 34.306 34.7103 34.1913 34.8171 33.7733C34.8681 33.5739 34.9541 33.4555 35.0801 33.4116C35.2739 33.3438 35.4664 33.4905 35.6071 33.5974C35.7892 33.7355 35.9803 33.7932 36.1311 33.7548C36.7811 33.5908 37.1325 33.7517 37.7278 34.1307C37.7332 34.134 37.7384 34.1379 37.7433 34.142C37.8995 34.2725 38.0497 34.3155 38.1897 34.2701C38.376 34.2096 38.5361 33.9957 38.6074 33.7124C38.6712 33.4583 38.7769 33.1972 38.8793 32.9447C38.9556 32.7562 39.0347 32.5611 39.0945 32.3727C39.1602 32.1657 39.2752 31.8817 39.5144 31.8059C39.7372 31.7356 39.9552 31.8735 40.0997 31.9833C40.6265 32.3841 41.149 32.737 41.6523 33.0326C41.8299 33.1368 42.021 33.1331 42.1636 33.0226C42.3075 32.9111 42.3594 32.7251 42.3021 32.5254C42.1126 31.8642 42.209 31.1252 42.589 30.3292C42.6845 30.129 42.6846 29.8739 42.5895 29.5497C42.4129 28.9481 42.6323 28.7385 43.0439 28.5955C44.2713 28.1689 44.7443 26.4281 44.4013 25.1323C44.2871 24.7014 44.2965 24.4298 44.4312 24.2515C44.5342 24.1154 44.6991 24.0475 44.9355 24.0436C45.0866 24.0411 45.2534 24.019 45.3932 23.9829C45.7983 23.8779 46.1238 23.2605 46.027 22.7916C45.7432 22.3115 45.5458 22.2156 44.9934 22.2791C44.88 22.2923 44.7586 22.3007 44.6412 22.3089C44.4906 22.3193 44.3348 22.3303 44.1891 22.351C43.8936 22.393 43.6654 22.308 43.4905 22.0907C43.2762 21.8249 42.776 21.6587 42.4419 21.7421C42.1303 21.8197 41.7913 21.8837 41.4637 21.9459C41.2452 21.9872 41.0194 22.0301 40.8037 22.0764C40.7817 22.0811 40.7597 22.0863 40.7376 22.0915C40.5416 22.1375 40.2732 22.2004 40.026 21.9455C39.3536 21.2525 38.559 21.1103 37.4494 21.4845C36.734 21.7257 36.2093 22.2733 36.0455 22.9492C35.9334 23.4114 35.6791 23.6651 35.2451 23.7474C34.7345 23.8442 34.3359 24.2109 34.2053 24.7046C34.0513 25.3233 33.6089 25.7994 33.0225 25.9761C32.715 26.0688 32.4012 26.2298 32.0977 26.3856L32.0834 26.3929C31.3779 26.7551 30.7849 26.8759 30.01 26.3601C29.569 26.0666 28.9687 26.3387 28.6427 26.7713C28.1154 27.4716 27.9922 28.4179 27.9656 28.9198C27.9553 29.1137 28.0376 29.3369 28.1886 29.3593C28.1951 29.3604 28.1988 29.36 28.1995 29.3596C28.2286 29.3429 28.2654 29.2157 28.2831 29.1545C28.2967 29.1078 28.3101 29.0616 28.3256 29.0201C28.4125 28.7854 28.4974 28.5492 28.5822 28.3131C28.6273 28.188 28.6723 28.063 28.7176 27.9381C28.7714 27.7897 28.8466 27.6309 28.9966 27.5784C29.0928 27.5447 29.198 27.5622 29.3088 27.6302C29.5751 27.7934 29.6479 28.0129 29.5522 28.3634C29.4997 28.5557 29.4651 28.7878 29.4286 29.0333C29.3049 29.8648 29.1513 30.8981 28.1312 31.0215C28.1156 31.0385 28.0934 31.0725 28.0879 31.0958C27.8386 32.1131 27.4538 33.1955 26.8772 34.5018C26.7232 34.8505 26.9838 35.2445 27.3209 35.4538C27.382 35.4916 27.4069 35.4884 27.4068 35.4884C27.4538 35.4666 27.5024 35.2542 27.5257 35.152C27.5451 35.0675 27.565 34.9802 27.5916 34.9035C27.7993 34.3047 28.0004 33.9051 28.36 33.7641C28.6359 33.6562 28.9704 33.7157 29.4128 33.9516C29.8635 34.1921 30.3716 34.0365 30.6213 33.5819C30.8523 33.1614 31.3217 32.9129 31.8448 32.9356C32.3801 32.958 32.8388 33.2556 33.0419 33.712C33.085 33.8099 33.0916 33.9525 33.0614 34.1362C32.9505 34.8103 32.2448 35.676 31.4885 36.0662C31.0259 36.3046 30.5969 36.3406 30.2479 36.1697C29.4741 35.7907 28.5679 36.0448 28.1402 36.7607C27.3956 38.0065 27.1759 39.1511 27.4483 40.3629C27.6504 41.096 28.3905 41.8636 29.1679 42.1415C29.5398 42.2744 30.0885 42.3582 30.5917 42.0027C30.9021 41.7834 31.1425 41.8139 31.2897 41.8781C31.5442 41.9894 31.7281 42.2981 31.7817 42.704C31.8809 43.4546 32.0346 44.2874 32.6074 44.6688C33.1517 45.0318 33.5145 45.6378 33.5796 46.2923Z" fill="#54A520"/>
<path d="M23.5237 54.5271C23.3712 54.5271 23.2307 54.4299 23.1048 54.3428C23.0678 54.3171 23.0319 54.2922 22.9976 54.2717C22.3733 53.8968 21.8793 53.1751 21.6416 52.2913C21.6023 52.1456 21.5613 51.9987 21.5202 51.8513C21.4087 51.4522 21.2935 51.0395 21.2106 50.635C21.013 49.6712 20.6587 48.4849 19.6653 47.8602C18.6729 47.1771 18.3591 45.1652 18.6374 44.1924C18.6635 44.101 18.7124 44.0156 18.7595 43.9329C18.8771 43.7271 18.9125 43.639 18.8163 43.5303C18.5469 43.2265 18.2638 42.938 18.0222 43.0339C17.3995 43.2809 16.6533 43.0735 15.8041 42.4183C15.2753 42.0103 14.7284 41.5885 14.1253 41.2555C13.2992 40.807 12.9956 39.9124 12.7277 39.1232C12.6892 39.0095 12.651 38.8972 12.6119 38.7881C12.3791 38.1372 11.3767 37.3533 10.6692 37.444C10.2907 37.4924 10.1107 37.8639 9.92012 38.2574C9.87265 38.3555 9.82351 38.457 9.77176 38.5504C9.74477 38.599 9.69154 38.6279 9.63756 38.6271C9.5819 38.6256 9.53183 38.5932 9.50763 38.5434C9.17555 37.8593 9.0996 37.3096 9.27569 36.8623C9.43242 36.4645 9.79429 36.1538 10.3512 35.9388C12.0987 35.1798 13.8753 34.3468 15.6254 33.4654L15.6705 33.4425C15.9528 33.299 16.3395 33.1026 16.6624 33.5024C16.8884 33.7824 16.9275 34.148 16.7817 34.62C16.6432 35.0688 16.8728 35.2013 17.3245 35.415C17.3614 35.4325 17.3984 35.45 17.4353 35.4679C17.8025 35.6462 18.2147 35.2916 18.3749 35.131C18.4915 35.0143 18.4611 34.8896 18.3639 34.6332C18.328 34.5383 18.2906 34.44 18.2724 34.3397C18.2644 34.2954 18.2521 34.2505 18.2402 34.2055C18.1908 34.0208 18.1296 33.7909 18.3075 33.5853C18.543 33.3133 18.8053 33.5114 18.9313 33.6065C18.9514 33.6215 18.971 33.6364 18.9901 33.6497C19.2466 33.8272 19.4572 33.8393 19.717 33.6917C20.1025 33.4726 20.4743 33.5551 20.7118 33.9121C20.9243 34.2319 20.9476 34.6481 20.7788 35.1157C20.5083 35.8649 20.2168 36.6289 19.9352 37.3677C19.672 38.0577 19.3998 38.7712 19.1515 39.4558C18.9328 40.0586 18.339 40.2974 17.8148 40.5079C17.7538 40.5325 17.6935 40.5567 17.6348 40.5811C17.4705 40.6496 17.3588 40.7618 17.3029 40.9148C17.2266 41.1242 17.259 41.4007 17.3899 41.6544C17.5004 41.8688 17.5462 41.8504 17.5766 41.8381C18.2636 41.5607 18.8466 41.9788 19.3151 42.3148C19.3687 42.3533 19.4214 42.3911 19.4735 42.4274C19.6325 42.5382 20.1908 42.8786 20.7 42.6126C21.2918 42.3033 21.8011 42.326 22.4031 42.6884L22.4617 42.7238C22.8599 42.9644 23.4049 43.2943 23.8539 43.1672C23.9834 43.1305 24.1798 43.1284 24.3807 43.3265C24.8765 43.8162 25.0781 45.2488 24.9586 45.6913C24.6113 46.9788 24.11 48.4879 23.5091 50.0548C23.2201 50.8087 23.1905 51.541 23.4209 52.2312C23.5525 52.6253 23.6571 53.0955 23.7411 53.4732C23.755 53.5363 23.7789 53.6061 23.804 53.68C23.8794 53.9015 23.9646 54.1524 23.8228 54.3585C23.7602 54.4493 23.6809 54.5042 23.5873 54.5213C23.5653 54.5252 23.5443 54.5271 23.5237 54.5271ZM18.1236 42.7159C18.492 42.7159 18.814 43.0791 19.0391 43.333C19.2861 43.6117 19.1247 43.8939 19.0181 44.0807C18.9778 44.1511 18.9399 44.2177 18.9237 44.2743C18.6675 45.1697 18.9711 47.0209 19.8289 47.6115C20.9126 48.2926 21.2927 49.5534 21.5023 50.5751C21.5833 50.9693 21.697 51.377 21.807 51.7711C21.8484 51.9194 21.8897 52.067 21.9291 52.2137C22.1471 53.0238 22.5922 53.6807 23.1504 54.016C23.1895 54.0392 23.2314 54.0681 23.2742 54.0977C23.3552 54.1537 23.4771 54.2391 23.533 54.2282C23.5493 54.2252 23.5659 54.2054 23.5771 54.1893C23.634 54.1064 23.5769 53.9381 23.5216 53.7755C23.495 53.6973 23.4674 53.6165 23.4499 53.5376C23.3675 53.1666 23.2647 52.7048 23.138 52.3254C22.885 51.568 22.9163 50.7681 23.2307 49.9482C23.828 48.3905 24.3259 46.8915 24.6707 45.6136C24.771 45.2413 24.57 43.9324 24.1709 43.5383C24.0638 43.4326 23.9847 43.4393 23.9345 43.4534C23.3611 43.6158 22.7519 43.2474 22.307 42.9784L22.2489 42.9432C21.7343 42.6331 21.3385 42.6145 20.8376 42.8762C20.3938 43.1081 19.82 43.0318 19.3029 42.6715C19.2498 42.6344 19.1958 42.5959 19.1411 42.5566C18.6897 42.2329 18.2229 41.898 17.6877 42.1141C17.3597 42.2467 17.1831 41.9036 17.1248 41.7908C16.9565 41.4645 16.9185 41.0987 17.0228 40.8126C17.1071 40.5816 17.2791 40.4065 17.52 40.3061C17.5797 40.2812 17.6412 40.2566 17.7033 40.2315C18.1923 40.0349 18.6979 39.8318 18.871 39.3542C19.1202 38.6673 19.3928 37.9527 19.6563 37.2616C19.9376 36.5241 20.2285 35.7613 20.4981 35.0146C20.5926 34.7529 20.6632 34.3778 20.4633 34.077C20.3136 33.8522 20.112 33.8096 19.8637 33.9506C19.508 34.153 19.1666 34.1346 18.8202 33.8946C18.7978 33.8792 18.775 33.8619 18.7515 33.8442C18.5855 33.7187 18.5721 33.7342 18.5322 33.7801C18.4609 33.8624 18.4827 33.9613 18.5274 34.1286C18.541 34.1794 18.5549 34.2321 18.5648 34.2863C18.5782 34.36 18.6091 34.4413 18.6419 34.5277C18.7295 34.7593 18.8498 35.0763 18.5853 35.3413C18.1512 35.7763 17.6845 35.92 17.3048 35.7358C17.2689 35.7183 17.2328 35.7011 17.1966 35.6842C16.7864 35.4901 16.2756 35.2486 16.4966 34.5323C16.6123 34.1569 16.5913 33.889 16.4301 33.6895C16.2741 33.4963 16.1273 33.5439 15.8047 33.7079L15.7585 33.7312C14.0034 34.6152 12.2218 35.4504 10.4633 36.2142C9.97485 36.4027 9.67851 36.6497 9.55193 36.9712C9.43131 37.2776 9.46295 37.6588 9.64984 38.1307C9.6504 38.1296 9.65096 38.1284 9.65152 38.1273C9.85814 37.7007 10.0923 37.2171 10.6308 37.1482C11.4962 37.038 12.616 37.9168 12.8917 38.6876C12.9312 38.7982 12.9699 38.9119 13.009 39.0271C13.2714 39.8008 13.543 40.6006 14.2675 40.9939C14.8916 41.3385 15.4475 41.7674 15.9852 42.1823C16.7456 42.769 17.3938 42.9622 17.9116 42.7569C17.9842 42.7288 18.0546 42.7159 18.1236 42.7159Z" fill="#54A520"/>
<path d="M22.791 33.5655C22.5521 33.5655 22.3278 33.398 22.1709 33.2617C22.1296 33.2258 22.0873 33.1902 22.0449 33.1547C21.7791 32.9313 21.4777 32.6782 21.3634 32.2766C21.1503 31.5274 20.5773 31.0831 20.1341 30.842C19.7592 30.6382 19.3456 30.313 19.4771 29.6018L19.4815 29.5778C19.5863 29.0098 19.7168 28.303 20.3171 27.9981C20.6246 27.842 20.9452 27.6636 21.2551 27.4911C21.3792 27.422 21.5032 27.353 21.6268 27.285C21.635 27.2774 21.6443 27.2709 21.6542 27.2653L21.7309 27.2232C21.9325 27.1127 22.1417 26.998 22.3291 26.899C22.3993 26.8619 22.4814 26.8117 22.5681 26.7584C22.9073 26.5507 23.3291 26.2918 23.7137 26.3906C23.9007 26.4386 24.0543 26.5656 24.1697 26.7679C24.7903 27.8554 24.9011 28.8624 24.5182 29.9372C24.4017 30.2642 24.279 30.5924 24.1489 30.9398C23.9272 31.5324 23.6979 32.1454 23.5039 32.748C23.3501 33.2254 23.1657 33.4795 22.9229 33.5473C22.8786 33.5599 22.8345 33.5655 22.791 33.5655ZM21.8269 27.5104C21.8184 27.5181 21.8089 27.525 21.7984 27.5307C21.6659 27.6033 21.5328 27.6774 21.3999 27.7515C21.0876 27.9254 20.7646 28.105 20.4519 28.2638C19.9828 28.502 19.872 29.1023 19.7743 29.6319L19.7699 29.6561C19.6794 30.1457 19.9069 30.3798 20.2764 30.5807C20.7698 30.8489 21.4087 31.3467 21.6499 32.1953C21.7391 32.5091 21.9807 32.712 22.2364 32.9268C22.2802 32.9635 22.3236 33 22.3662 33.037C22.5726 33.2163 22.7333 33.2919 22.8427 33.261C22.9764 33.2237 23.1035 33.0205 23.2204 32.6573C23.4164 32.0481 23.647 31.4319 23.87 30.8359C23.9996 30.4897 24.1221 30.1626 24.2377 29.8378C24.5941 28.8373 24.4934 27.9362 23.9112 26.9159C23.8362 26.7843 23.7474 26.7071 23.6398 26.6795C23.3773 26.6119 23.0151 26.8344 22.7239 27.0129C22.6331 27.0685 22.5473 27.1212 22.4686 27.1627C22.2824 27.2612 22.0747 27.3751 21.8744 27.4849L21.8269 27.5104Z" fill="#54A520"/>
<path d="M17.3211 32.9317C17.2122 32.9317 17.1012 32.9112 16.9877 32.8637C16.7714 32.7734 16.6273 32.5975 16.5923 32.3811C16.5411 32.0642 16.7699 31.9468 16.8929 31.8837C16.9145 31.8725 16.9357 31.8617 16.9553 31.8502C17.0882 31.7709 17.2246 31.6992 17.3564 31.63C17.4504 31.5805 17.5448 31.5311 17.6381 31.4786C17.9981 31.2765 18.2784 31.2255 18.4952 31.3225C18.6726 31.4019 18.7918 31.5741 18.8491 31.8342C18.9584 32.3295 18.6082 32.4268 18.4202 32.4792C18.3493 32.4989 18.2611 32.5235 18.241 32.5547C18.2289 32.5737 18.2125 32.5895 18.1933 32.6013C17.9055 32.777 17.6204 32.9317 17.3211 32.9317ZM18.2615 31.5728C18.1609 31.5728 18.0098 31.6114 17.7844 31.7379C17.6885 31.7917 17.5919 31.8425 17.4953 31.8934C17.367 31.9607 17.2343 32.0305 17.1083 32.1057C17.0835 32.1205 17.0567 32.1344 17.0292 32.1486C16.898 32.2159 16.8713 32.2392 16.8866 32.3336C16.9115 32.4875 17.0327 32.5596 17.1027 32.589C17.368 32.6999 17.6196 32.6005 18.0135 32.3623C18.0971 32.2599 18.2259 32.2241 18.3406 32.1923C18.5399 32.1368 18.6069 32.1182 18.5585 31.8982C18.5226 31.7353 18.4604 31.6329 18.3739 31.594C18.3463 31.5818 18.3097 31.5728 18.2615 31.5728Z" fill="#54A520"/>
<path d="M36.8141 44.2098C36.7784 44.2098 36.7441 44.2033 36.7114 44.1904C36.5464 44.1249 36.5001 43.9361 36.4554 43.7537C36.4351 43.6707 36.4141 43.5849 36.3856 43.5315C36.3785 43.5183 36.3735 43.5041 36.3707 43.4892C36.3171 43.2089 36.1542 42.356 36.7516 41.9561C36.8754 41.8733 36.9913 41.853 37.0967 41.8958C37.2953 41.9766 37.3511 42.2396 37.4003 42.4718C37.4086 42.5112 37.4167 42.549 37.425 42.5833C37.6519 43.5138 37.3502 43.9354 37.057 44.1253C36.9703 44.1815 36.8889 44.2098 36.8141 44.2098ZM36.6596 43.4131C36.6989 43.4948 36.7222 43.5903 36.7449 43.6828C36.7629 43.7567 36.7925 43.8777 36.8212 43.9112C36.8314 43.9092 36.8549 43.9015 36.8956 43.8751C37.2041 43.6754 37.2851 43.2644 37.1361 42.6536C37.1272 42.6168 37.1185 42.576 37.1095 42.5334C37.0883 42.4334 37.0386 42.1992 36.985 42.1715C36.9852 42.1721 36.9643 42.1723 36.9178 42.2033C36.6289 42.3966 36.5446 42.7925 36.6596 43.4131Z" fill="#54A520"/>
<path d="M26.679 32.0258C26.6347 32.0258 26.5975 32.0152 26.5687 32.0022C26.3857 31.9197 26.3416 31.6612 26.306 31.4534C26.3015 31.427 26.2973 31.4017 26.2928 31.3788C26.2814 31.3188 26.2667 31.2542 26.2515 31.1867C26.1608 30.7878 26.0367 30.2413 26.4447 29.9326C26.5538 29.85 26.656 29.826 26.7488 29.8615C26.9043 29.9209 26.9415 30.1111 26.9743 30.279C26.9864 30.3405 27.0061 30.4423 27.0253 30.4721C27.0508 30.4922 27.0692 30.5201 27.0774 30.5516L27.0934 30.6121C27.203 31.0277 27.3687 31.6558 26.8678 31.9659C26.7958 32.0105 26.7323 32.0258 26.679 32.0258ZM26.6398 30.1592C26.6353 30.1621 26.6301 30.1659 26.6243 30.1701C26.3885 30.3487 26.4443 30.6914 26.5419 31.1208C26.5581 31.1921 26.5735 31.2604 26.5854 31.3235C26.5901 31.3481 26.5947 31.3751 26.5996 31.4033C26.6137 31.4862 26.6457 31.6738 26.6872 31.7252C26.6926 31.723 26.7005 31.7192 26.7109 31.7127C27.0009 31.5333 26.9251 31.1426 26.8052 30.6882L26.7999 30.6673C26.731 30.5867 26.7072 30.4644 26.682 30.3362C26.672 30.2843 26.6565 30.2051 26.6398 30.1592Z" fill="#54A520"/>
<path d="M25.9079 32.3505C25.8524 32.3505 25.8077 32.3369 25.7746 32.3213C25.6745 32.274 25.6041 32.1753 25.5654 32.0283C25.4818 31.7103 25.5579 31.4298 25.7746 31.2586C25.9027 31.1573 26.0097 31.161 26.0771 31.1821C26.2344 31.231 26.3075 31.4099 26.3537 31.5601C26.3546 31.5633 26.3556 31.5666 26.3563 31.5698C26.4423 31.9376 26.3515 32.1859 26.0862 32.3079C26.0183 32.3391 25.9585 32.3505 25.9079 32.3505ZM25.9911 31.4713C25.9844 31.4747 25.9738 31.4808 25.9593 31.4924C25.804 31.615 25.8159 31.8105 25.8533 31.9527C25.8721 32.0244 25.8947 32.0487 25.9017 32.0521C25.9047 32.0534 25.9235 32.0549 25.9619 32.0372C26.024 32.0087 26.1394 31.9557 26.0674 31.6426C26.032 31.5283 26.0039 31.486 25.9911 31.4713Z" fill="#54A520"/>
</g>
<path d="M26.9028 51.8763C26.9017 51.8763 26.9009 51.8763 26.9 51.8763C20.036 51.8748 14.4528 46.2892 14.4541 39.4252C14.4556 32.5622 20.0403 26.9792 26.9026 26.9792C26.9039 26.9792 26.9041 26.9792 26.9052 26.9792C30.2303 26.98 33.3562 28.2756 35.7068 30.6273C38.0574 32.979 39.3517 36.1053 39.3509 39.4304C39.3502 42.7554 38.0546 45.8814 35.7029 48.232C33.3521 50.5822 30.2268 51.8763 26.9028 51.8763ZM26.9026 27.0723C20.0909 27.0723 14.5487 32.6131 14.5472 39.4252C14.5457 46.238 20.0872 51.7817 26.9 51.7832C26.9008 51.7832 26.9021 51.7832 26.9028 51.7832C30.2022 51.7832 33.3039 50.4988 35.6374 48.1663C37.9716 45.8331 39.2575 42.7307 39.2581 39.4304C39.2588 36.1301 37.9742 33.027 35.6411 30.693C33.308 28.3588 30.2055 27.0729 26.9052 27.0723C26.9045 27.0723 26.9034 27.0723 26.9026 27.0723Z" fill="#102770"/>
<g opacity="0.3">
<path d="M14.5228 39.4281C14.9085 45.9299 20.3022 51.0842 26.9004 51.0857C33.4994 51.0872 38.8951 45.9338 39.2824 39.4311C39.2489 38.8641 39.1775 38.3072 39.0702 37.7627C37.9465 43.4568 32.9244 47.7491 26.9013 47.7478C23.8534 47.7473 21.0624 46.6471 18.9035 44.8218C18.4067 44.5018 17.3343 43.5036 16.9678 42.7689C15.8775 41.313 15.1006 39.6093 14.7361 37.7573C14.6051 38.4211 14.5265 39.1031 14.5059 39.7997C14.5243 40.4257 14.5893 41.04 14.697 41.6393C14.5891 41.04 14.5243 40.4257 14.5059 39.7997C14.5092 39.6753 14.5154 39.5517 14.5228 39.4281Z" fill="#102770"/>
</g>
<g opacity="0.5">
<path d="M33.4067 30.9832C33.3062 30.9832 33.2049 30.9542 33.1154 30.8939C32.3224 30.358 31.4635 29.928 30.5626 29.6158C30.2906 29.5216 30.1466 29.2247 30.2408 28.9528C30.3349 28.6808 30.632 28.5369 30.9038 28.6309C31.8905 28.9729 32.8309 29.4436 33.6991 30.0304C33.9376 30.1916 34.0001 30.5155 33.8391 30.7539C33.738 30.9028 33.5738 30.9832 33.4067 30.9832Z" fill="white"/>
</g>
<g opacity="0.5">
<path d="M19.1794 32.0296C19.0381 32.0296 18.8974 31.9725 18.7946 31.8601C18.6005 31.6477 18.6154 31.318 18.8278 31.1239C21.0537 29.0895 23.9419 27.9691 26.9594 27.9691C26.9605 27.9691 26.9611 27.9691 26.9622 27.9691C27.5452 27.9691 28.1318 28.0114 28.7053 28.0946C28.9901 28.1359 29.1876 28.4002 29.1462 28.685C29.1049 28.9698 28.841 29.1677 28.5558 29.126C28.0316 29.05 27.4953 29.0113 26.962 29.0113C26.9613 29.0113 26.9604 29.0113 26.9594 29.0113C24.2025 29.0113 21.5644 30.0347 19.5308 31.8934C19.4307 31.9846 19.3048 32.0296 19.1794 32.0296Z" fill="white"/>
</g>
<path d="M19.7842 35.5569C19.8285 35.227 19.9811 34.9132 20.205 34.6558C20.4293 34.3998 20.7361 34.1952 21.0913 34.1128C21.2677 34.0718 21.4539 34.0612 21.6342 34.085C21.8144 34.1098 21.9877 34.1668 22.1411 34.25C22.449 34.4175 22.6802 34.6667 22.8272 34.9456C22.8734 35.0333 22.8399 35.1418 22.7522 35.1881C22.6925 35.2196 22.623 35.214 22.5702 35.1796L22.5614 35.1738C22.4436 35.0964 22.3341 35.0206 22.223 34.9566C22.1106 34.895 22.0008 34.8415 21.8898 34.8058C21.6696 34.7315 21.4544 34.7148 21.2426 34.7628C21.0308 34.8093 20.8253 34.9247 20.6481 35.0845C20.4695 35.2436 20.3221 35.4463 20.2099 35.6747L20.205 35.6846C20.1509 35.795 20.0174 35.8406 19.907 35.7864C19.8186 35.743 19.7719 35.649 19.7842 35.5569Z" fill="#102770"/>
<path d="M26.7633 33.8037C26.8027 33.478 26.95 33.1656 27.1713 32.9099C27.3926 32.6552 27.7001 32.4544 28.0533 32.3768C28.2288 32.3367 28.4131 32.334 28.591 32.3585C28.6364 32.3609 28.6783 32.3766 28.7215 32.3872C28.7645 32.3987 28.8073 32.4108 28.8494 32.4239C28.9335 32.4505 29.0085 32.4946 29.0864 32.5318C29.3838 32.7044 29.6053 32.951 29.7529 33.2237C29.8 33.3106 29.7676 33.419 29.6809 33.4661C29.6213 33.4983 29.5515 33.4932 29.4985 33.4588L29.4862 33.4508C29.2539 33.2997 29.0435 33.1591 28.8252 33.083C28.6095 33.0048 28.3989 32.9845 28.1936 33.0288C27.9883 33.0722 27.7884 33.1809 27.6158 33.3363C27.442 33.4912 27.299 33.6904 27.1903 33.916L27.1851 33.9268C27.1317 34.0375 26.9986 34.0841 26.8878 34.0306C26.7998 33.9886 26.7523 33.8955 26.7633 33.8037Z" fill="#102770"/>
<path d="M24.3087 35.6675C24.4083 35.8265 24.5406 35.9399 24.689 35.9922C24.8373 36.043 25.0028 36.0443 25.1765 35.9924C25.3433 35.944 25.4665 35.8645 25.548 35.734C25.6305 35.6039 25.6597 35.4198 25.6513 35.2143L25.6511 35.2085C25.6482 35.1346 25.7057 35.0721 25.7796 35.0691C25.8328 35.0669 25.8801 35.0963 25.9035 35.1404C26.019 35.3587 26.0634 35.6487 25.9544 35.9253C25.8991 36.0609 25.8071 36.1861 25.6926 36.2792C25.5793 36.373 25.443 36.4361 25.3146 36.4713C25.065 36.5499 24.7565 36.5502 24.4974 36.4175C24.2372 36.2887 24.0544 36.0415 23.9989 35.7841C23.9794 35.6938 24.0369 35.6048 24.1272 35.5853C24.1979 35.57 24.2677 35.6018 24.304 35.6597L24.3087 35.6675Z" fill="#102770"/>
<path d="M26.902 52.1278C26.9008 52.1278 26.9001 52.1278 26.8992 52.1278C23.5739 52.1271 20.4303 50.85 18.0471 48.5314C15.6688 46.2176 14.3053 43.1198 14.2075 39.8085C14.2036 39.6808 14.2021 39.5531 14.2021 39.4245C14.2023 38.6086 14.2803 37.7926 14.4341 36.9987C14.548 36.411 14.7051 35.8265 14.9013 35.2616C16.6732 30.1568 21.4958 26.7277 26.9018 26.7277C26.9027 26.7277 26.9036 26.7277 26.9046 26.7277C32.313 26.7288 37.1354 30.1611 38.9048 35.2685C39.1029 35.8401 39.2611 36.4315 39.3749 37.026C39.5254 37.8129 39.6018 38.6218 39.6016 39.4301C39.6016 39.5587 39.5999 39.6864 39.5962 39.8141C39.497 43.1252 38.1322 46.2224 35.7531 48.5351C33.3695 50.852 30.2261 52.1278 26.902 52.1278ZM26.9018 27.3231C21.7488 27.3231 17.1527 30.5913 15.4638 35.4568C15.2769 35.9952 15.1273 36.5521 15.0188 37.112C14.8721 37.8687 14.7978 38.6468 14.7976 39.4247C14.7976 39.5473 14.7991 39.6691 14.8026 39.7908C14.997 46.3734 20.3103 51.5307 26.8992 51.5322C26.8999 51.5322 26.901 51.5322 26.902 51.5322C33.4896 51.5324 38.8036 46.3777 39.0009 39.7962C39.0046 39.6743 39.0061 39.5526 39.0061 39.4299C39.0063 38.6591 38.9335 37.8881 38.79 37.1379C38.6815 36.5713 38.5309 36.008 38.3421 35.4634C36.6557 30.5955 32.0592 27.3242 26.9046 27.3231C26.9038 27.3231 26.9023 27.3231 26.9018 27.3231Z" fill="#102770"/>
<path d="M14.4281 34.7693L15.2387 35.466C15.2387 35.466 14.4176 36.5978 14.5193 36.7586C15.1386 37.7398 15.8414 38.5238 17.0266 38.4024C17.0266 38.4024 17.4361 38.1878 18.1414 37.5387C18.7819 36.9492 19.3582 36.9874 19.593 37.215C19.8314 37.4466 20.0265 37.8866 19.5317 38.4966C19.364 38.7034 19.179 38.8695 19.109 39.0068C19.0357 39.1511 19.1053 39.3264 19.2577 39.3806C19.4197 39.4381 19.6568 39.4886 19.9727 39.4729C20.9637 39.424 21.7029 40.3808 21.3846 41.3208C21.0771 42.2288 20.3718 43.218 18.7604 43.4458C16.6744 43.7406 15.7234 43.2332 15.3089 42.9989C14.6892 42.6487 9.87127 39.5586 14.4281 34.7693Z" fill="#FFCBBD"/>
<g opacity="0.3">
<path d="M21.3848 41.3214C21.0771 42.2296 20.3719 43.2188 18.7603 43.4461C16.6751 43.7411 15.724 43.2341 15.3094 42.9995C14.8457 42.7374 12.0337 40.9428 12.5517 38.0509C12.9331 40.1204 14.9256 41.3879 15.3098 41.6046C15.7243 41.8391 16.6757 42.3463 18.7607 42.0519C20.2132 41.846 20.9294 41.0229 21.2816 40.1973C21.4646 40.5234 21.5195 40.9238 21.3848 41.3214Z" fill="#102770"/>
</g>
<path d="M17.7633 43.8155C16.0182 43.8155 14.8619 43.1644 14.3999 42.845C13.584 42.2808 12.0247 40.6971 11.9638 38.7422C11.9177 37.2586 12.7103 35.8635 14.3198 34.5951C14.4488 34.4935 14.6363 34.5154 14.7381 34.6448C14.8399 34.774 14.8176 34.9612 14.6884 35.0631C13.2356 36.2079 12.5191 37.4396 12.5591 38.7238C12.6125 40.4409 14.0082 41.85 14.7387 42.3552C15.2291 42.6944 16.5984 43.4512 18.7171 43.1515C19.924 42.981 20.7261 42.3331 21.101 41.2259C21.219 40.8774 21.1591 40.5089 20.9369 40.2146C20.7099 39.914 20.3632 39.7526 19.9858 39.771C19.6821 39.7863 19.4028 39.7494 19.1564 39.6619C19.003 39.6076 18.8805 39.4897 18.8204 39.3386C18.7601 39.1874 18.7679 39.0175 18.8418 38.8723C18.9034 38.7513 19.003 38.6419 19.1186 38.5151C19.1785 38.4494 19.2405 38.3814 19.2988 38.3096C19.5888 37.952 19.6175 37.6559 19.3839 37.4293C19.2794 37.3279 18.872 37.27 18.3415 37.7584C17.6159 38.4263 17.1814 38.6573 17.1632 38.6668C17.1297 38.6843 17.093 38.6955 17.0554 38.6992C16.0584 38.8014 15.094 38.1869 14.2683 36.9219C14.1784 36.7841 14.2171 36.5997 14.3548 36.5098C14.4926 36.4199 14.677 36.4586 14.767 36.5963C15.242 37.324 15.9994 38.1702 16.9338 38.1115C17.056 38.0374 17.4106 37.8055 17.9379 37.3201C18.6752 36.6412 19.4321 36.646 19.7984 37.0017C19.9726 37.171 20.4849 37.7921 19.7612 38.6847C19.6921 38.7697 19.6214 38.8475 19.5588 38.916C19.4967 38.9844 19.4276 39.0601 19.3911 39.1122C19.5127 39.1508 19.7014 39.1882 19.9564 39.1759C20.5257 39.1484 21.0696 39.4017 21.4121 39.8553C21.7499 40.3028 21.8447 40.8864 21.665 41.4165C21.3536 42.3362 20.604 43.4859 18.8005 43.7409C18.4347 43.7928 18.0887 43.8155 17.7633 43.8155Z" fill="#102770"/>
<path d="M19.02 41.1169C19.2378 41.1048 19.4539 41.0847 19.6646 41.0553C19.8753 41.0261 20.0819 40.9881 20.2798 40.9345C20.4775 40.8802 20.664 40.8089 20.8392 40.7296C21.0119 40.6449 21.1644 40.5449 21.3148 40.4355L21.331 40.4237C21.435 40.3482 21.5808 40.3712 21.6563 40.4753C21.7207 40.5639 21.7135 40.6829 21.6453 40.7629C21.4814 40.9559 21.2658 41.0959 21.0421 41.1916C20.8161 41.283 20.5806 41.326 20.35 41.3479C20.1186 41.368 19.8896 41.3584 19.6653 41.3323C19.441 41.3029 19.2214 41.2592 19.0086 41.1825C18.9911 41.1761 18.982 41.1568 18.9883 41.1393C18.993 41.1261 19.0051 41.1177 19.0181 41.1169H19.02Z" fill="#102770"/>
<path d="M18.4017 42.4341C18.7993 42.4114 19.1874 42.3734 19.5623 42.3073C19.7501 42.2768 19.9329 42.2312 20.1134 42.1904C20.2955 42.1515 20.4686 42.0961 20.6503 42.0583L20.6653 42.0551C20.7916 42.0289 20.9152 42.1098 20.9414 42.236C20.9635 42.3425 20.9092 42.4473 20.8159 42.4931C20.6255 42.5867 20.4209 42.6511 20.2141 42.685C20.0075 42.7219 19.7981 42.7316 19.5917 42.7258C19.3851 42.7208 19.1803 42.6999 18.9791 42.6638C18.7779 42.6256 18.5804 42.5763 18.3894 42.4994C18.3721 42.4924 18.3637 42.4726 18.3706 42.4553C18.3756 42.4428 18.3873 42.4348 18.4 42.4341H18.4017Z" fill="#102770"/>
<path d="M15.1893 35.6475C15.1264 35.6475 15.0631 35.6276 15.0091 35.5866L13.9215 34.759C13.7156 34.6023 13.5972 34.3642 13.5967 34.1057C13.5961 33.8471 13.7132 33.6085 13.9183 33.4508L18.3487 30.0448C18.4792 29.9445 18.6661 29.969 18.7663 30.0993C18.8666 30.2296 18.842 30.4167 18.7117 30.5168L14.2813 33.9231C14.2245 33.9666 14.1922 34.0327 14.1922 34.1044C14.1922 34.176 14.2251 34.2419 14.2821 34.2853L15.3697 35.1129C15.5006 35.2125 15.5259 35.3994 15.4263 35.5302C15.3678 35.6071 15.279 35.6475 15.1893 35.6475Z" fill="#102770"/>
<path d="M39.4035 34.7751L38.6995 35.3665C38.6995 35.3665 39.1654 36.8065 39.0638 36.9674C38.4441 37.9483 37.9886 38.5291 36.8032 38.4072C36.8032 38.4072 36.3937 38.1926 35.6888 37.5429C35.0486 36.953 34.4722 36.991 34.2374 37.2186C33.9988 37.45 33.8035 37.8901 34.2981 38.5002C34.4656 38.7071 34.6507 38.8733 34.7207 39.0107C34.794 39.1549 34.7242 39.3303 34.5717 39.3844C34.4098 39.4418 34.1727 39.4922 33.8566 39.4766C32.8656 39.4271 32.126 40.3836 32.4438 41.3237C32.7507 42.2319 33.4558 43.2214 35.0671 43.4498C37.1528 43.7456 38.104 43.2385 38.5187 43.0044C39.139 42.6544 43.958 39.5665 39.4035 34.7751Z" fill="#FFCBBD"/>
<g opacity="0.3">
<path d="M32.4926 41.3236C32.7999 42.2318 33.5047 43.2214 35.1161 43.4496C37.2011 43.7455 38.1527 43.2389 38.5674 43.0045C39.0313 42.7426 41.8441 40.9491 41.3273 38.057C40.945 40.1264 38.952 41.3929 38.5678 41.6096C38.153 41.8439 37.2017 42.3508 35.1165 42.0554C33.6642 41.8489 32.9483 41.0254 32.5963 40.1997C32.4131 40.5256 32.358 40.9262 32.4926 41.3236Z" fill="#102770"/>
</g>
<path d="M34.8278 41.1824C34.6152 41.2591 34.3954 41.3029 34.1711 41.3323C33.9468 41.3584 33.7178 41.368 33.4865 41.3479C33.2558 41.326 33.0204 41.283 32.7944 41.1916C32.5706 41.0959 32.3551 40.9559 32.1911 40.7629C32.1079 40.6648 32.1198 40.5179 32.2179 40.4345C32.3015 40.3636 32.4206 40.3617 32.5055 40.4235L32.5219 40.4355C32.6723 40.5447 32.8247 40.6449 32.9975 40.7296C33.1724 40.8089 33.3591 40.88 33.5566 40.9345C33.7545 40.9881 33.9611 41.0259 34.1719 41.0553C34.3826 41.0849 34.5987 41.105 34.8165 41.1169H34.818C34.8366 41.118 34.8509 41.1339 34.8498 41.1525C34.8492 41.1664 34.8401 41.178 34.8278 41.1824Z" fill="#102770"/>
<path d="M35.4457 42.4992C35.2547 42.5761 35.0571 42.6254 34.856 42.6635C34.6548 42.6995 34.45 42.7205 34.2434 42.7255C34.037 42.7313 33.8276 42.7216 33.621 42.6848C33.4142 42.6509 33.2096 42.5865 33.0192 42.4929C32.9036 42.4361 32.8557 42.2961 32.9127 42.1803C32.9607 42.0828 33.0678 42.0335 33.1696 42.0547L33.1848 42.058C33.3665 42.0958 33.5398 42.1511 33.7217 42.1902C33.9022 42.2309 34.085 42.2766 34.2728 42.3071C34.6477 42.3732 35.0358 42.4111 35.4334 42.4338L35.4351 42.434C35.4537 42.4351 35.4681 42.4512 35.4669 42.4698C35.466 42.4832 35.4575 42.4943 35.4457 42.4992Z" fill="#102770"/>
<path d="M36.0612 43.8192C35.7349 43.8192 35.3879 43.7965 35.021 43.7444C33.2177 43.4886 32.4685 42.3387 32.1574 41.4187C31.9782 40.8884 32.0729 40.3049 32.4111 39.8575C32.7538 39.4043 33.2981 39.1506 33.8671 39.1789C34.122 39.1917 34.3109 39.1539 34.4325 39.1154C34.396 39.0631 34.3269 38.9873 34.2647 38.919C34.2024 38.8503 34.1315 38.7727 34.0626 38.6875C33.3392 37.7947 33.8517 37.1737 34.0259 37.0045C34.3926 36.649 35.1493 36.6445 35.8864 37.3236C36.413 37.8087 36.7672 38.0408 36.8903 38.1156C37.8238 38.1737 38.5825 37.3288 39.0577 36.6013C39.1476 36.4638 39.3321 36.4249 39.4699 36.515C39.6076 36.6049 39.6463 36.7894 39.5562 36.9271C38.7301 38.1916 37.7659 38.8053 36.7684 38.7031C36.7308 38.6992 36.6941 38.6882 36.6606 38.6705C36.6425 38.661 36.2081 38.43 35.4827 37.7616C34.9525 37.273 34.5449 37.3307 34.4405 37.4321C34.2069 37.6586 34.2353 37.955 34.5252 38.3126C34.5832 38.3844 34.6452 38.4524 34.7052 38.5181C34.8206 38.6448 34.9203 38.7545 34.9818 38.8755C35.0555 39.0206 35.0633 39.1906 35.003 39.3417C34.9427 39.4927 34.8202 39.6105 34.6668 39.6649C34.4205 39.7522 34.1417 39.789 33.8374 39.7736C33.4599 39.7542 33.1133 39.9162 32.8862 40.2166C32.6637 40.5109 32.6038 40.8795 32.7214 41.2279C33.0958 42.3353 33.8975 42.9835 35.1044 43.1547C37.2226 43.455 38.5926 42.699 39.0832 42.3599C39.8139 41.8551 41.2099 40.4467 41.2643 38.7295C41.3049 37.4453 40.589 36.2132 39.1365 35.0679C39.0073 34.9661 38.9851 34.7788 39.087 34.6496C39.1888 34.5205 39.376 34.4985 39.5052 34.6001C41.1143 35.8691 41.9063 37.2646 41.8596 38.7481C41.7978 40.7028 40.2381 42.2858 39.4218 42.8498C38.9604 43.169 37.8044 43.8192 36.0612 43.8192Z" fill="#102770"/>
<path d="M38.6396 35.6525C38.5497 35.6525 38.4609 35.612 38.4023 35.5349C38.3027 35.404 38.3282 35.2172 38.4591 35.1176L39.5469 34.2903C39.6039 34.247 39.6368 34.1811 39.637 34.1094C39.6372 34.0378 39.6048 33.9717 39.548 33.9279L35.1191 30.52C34.9888 30.4197 34.9644 30.2328 35.0647 30.1025C35.1651 29.9722 35.352 29.9478 35.4823 30.0481L39.9112 33.4561C40.1161 33.6137 40.2332 33.8525 40.2325 34.1113C40.2317 34.3698 40.1131 34.6079 39.9073 34.7645L38.8194 35.5917C38.7658 35.6328 38.7025 35.6525 38.6396 35.6525Z" fill="#102770"/>
<path d="M39.0855 37.3801C38.9455 37.3801 38.8206 37.2809 38.7934 37.1383C38.6849 36.5719 38.5343 36.0084 38.3456 35.4638C38.2918 35.3083 38.3741 35.1388 38.5295 35.085C38.6849 35.0312 38.8545 35.1134 38.9083 35.2689C39.1063 35.8405 39.2646 36.4319 39.3783 37.0264C39.4092 37.188 39.3033 37.344 39.1417 37.3749C39.1229 37.3782 39.1041 37.3801 39.0855 37.3801Z" fill="#102770"/>
<path d="M14.7317 37.3534C14.7129 37.3534 14.6939 37.3515 14.6747 37.348C14.5134 37.3167 14.4078 37.1603 14.4391 36.999C14.553 36.4113 14.7101 35.8268 14.9063 35.2619C14.9603 35.1064 15.13 35.0243 15.2853 35.0781C15.4407 35.1321 15.5228 35.3017 15.469 35.4571C15.2821 35.9955 15.1325 36.5524 15.0239 37.1123C14.9962 37.2545 14.8715 37.3534 14.7317 37.3534Z" fill="#102770"/>
<path d="M23.6794 21.1752C23.8549 20.0694 23.3867 19.0762 22.6336 18.9567C21.8806 18.8372 21.1279 19.6367 20.9524 20.7425C20.777 21.8482 21.2452 22.8415 21.9983 22.961C22.7513 23.0805 23.504 22.2809 23.6794 21.1752Z" fill="#102770"/>
<path d="M23.1363 20.6458C23.1943 20.2804 23.0364 19.9518 22.7837 19.9117C22.531 19.8716 22.2791 20.1352 22.2212 20.5005C22.1632 20.8659 22.3211 21.1945 22.5738 21.2346C22.8265 21.2747 23.0783 21.0111 23.1363 20.6458Z" fill="white"/>
<path d="M32.783 22.9582C33.5361 22.8388 34.0043 21.8455 33.8289 20.7397C33.6534 19.634 32.9007 18.8345 32.1477 18.9539C31.3946 19.0734 30.9264 20.0667 31.1019 21.1724C31.2773 22.2782 32.03 23.0777 32.783 22.9582Z" fill="#102770"/>
<path d="M32.2055 21.2315C32.4583 21.1914 32.6161 20.8627 32.5582 20.4974C32.5002 20.1321 32.2484 19.8685 31.9956 19.9086C31.7429 19.9487 31.5851 20.2773 31.643 20.6426C31.701 21.0079 31.9528 21.2716 32.2055 21.2315Z" fill="white"/>
</svg>
