<svg width="54" height="54" viewBox="0 0 54 54" fill="none" xmlns="http://www.w3.org/2000/svg">
<path d="M25.3475 20.093V39.3069H5.51074V20.093C5.51074 17.3952 6.55571 14.8079 8.41576 12.9002C10.2758 10.9926 12.7986 9.9209 15.4291 9.9209C18.0596 9.9209 20.5824 10.9926 22.4425 12.9002C24.3025 14.8079 25.3475 17.3952 25.3475 20.093Z" fill="#A87E6B"/>
<path d="M25.3475 20.0932V39.3071H7.71484V20.0932C7.716 17.5919 8.61571 15.1787 10.2421 13.3148C11.8684 11.4509 14.1074 10.2668 16.5312 9.98889C18.955 10.2668 21.1939 11.4509 22.8203 13.3148C24.4466 15.1787 25.3463 17.5919 25.3475 20.0932Z" fill="#BE927C"/>
<path d="M53.978 3.89302C53.978 29.3663 54.1064 28.9251 53.7468 29.8465C53.4818 30.6037 52.9914 31.2597 52.3429 31.7243C51.6944 32.1889 50.9196 32.4396 50.1246 32.4418H37.2798L30.8574 35.0372V3.89302C30.8574 2.86053 31.2634 1.87032 31.9861 1.14024C32.7087 0.410156 33.6889 0 34.7108 0H50.1246C51.1465 0 52.1267 0.410156 52.8493 1.14024C53.572 1.87032 53.978 2.86053 53.978 3.89302Z" fill="#FFCC66"/>
<path d="M53.9776 3.83302C53.9776 28.9133 54.1083 28.4789 53.7423 29.386H40.9051C38.8248 29.386 36.8298 28.5784 35.3588 27.1407C33.8879 25.7031 33.0615 23.7532 33.0615 21.7201V0.230048C33.479 0.0752674 33.9222 -0.00270304 34.3688 7.15249e-05H50.0558C51.096 7.15249e-05 52.0935 0.403899 52.8289 1.12272C53.5644 1.84153 53.9776 2.81646 53.9776 3.83302Z" fill="#FFDE76"/>
<path d="M30.8571 43.0819V54H3.92122e-06V43.0819C-0.00137263 42.023 0.35972 40.9972 1.02031 40.1834C1.6809 39.3696 2.59907 38.8194 3.6147 38.6288C3.7249 38.6288 3.41633 38.6288 12.1225 37.0465C20.4539 37.0465 17.0376 36.73 27.2425 38.6288C28.2581 38.8194 29.1763 39.3696 29.8368 40.1834C30.4974 40.9972 30.8585 42.023 30.8571 43.0819Z" fill="#DB5669"/>
<path d="M30.8568 43.0819V51.7395H5.50984C4.633 51.7395 3.79207 51.3823 3.17206 50.7464C2.55204 50.1105 2.20371 49.2481 2.20371 48.3488C2.20371 42.1891 1.75188 40.3694 3.63637 38.6288L12.1221 37.0465C20.4535 37.0465 17.0372 36.73 27.2421 38.6288C28.2577 38.8194 29.1759 39.3696 29.8365 40.1834C30.4971 40.9972 30.8581 42.023 30.8568 43.0819Z" fill="#F26674"/>
<path d="M18.7343 31.6102V37.0466L15.4282 40.4373L12.1221 37.0466V31.6102C13.1273 32.2054 14.2675 32.5188 15.4282 32.5188C16.5889 32.5188 17.7291 32.2054 18.7343 31.6102Z" fill="#F6CCAF"/>
<path d="M18.7343 32.7404V37.0465L16.5303 39.307L14.3262 37.0465V33.5654C15.8444 33.825 17.4034 33.5332 18.7343 32.7404Z" fill="#FFDEC7"/>
<path d="M7.71482 46.0884V54H5.51074V46.0884C5.51074 45.7886 5.62685 45.5011 5.83352 45.2892C6.0402 45.0772 6.3205 44.9581 6.61278 44.9581C6.90506 44.9581 7.18537 45.0772 7.39204 45.2892C7.59872 45.5011 7.71482 45.7886 7.71482 46.0884Z" fill="#C4455E"/>
<path d="M25.3467 46.0884V54H23.1426V46.0884C23.1426 45.7886 23.2587 45.5011 23.4654 45.2892C23.672 45.0772 23.9523 44.9581 24.2446 44.9581C24.5369 44.9581 24.8172 45.0772 25.0239 45.2892C25.2306 45.5011 25.3467 45.7886 25.3467 46.0884Z" fill="#C4455E"/>
<path d="M15.4294 51.7395C15.203 51.7348 14.9835 51.6587 14.8008 51.5215C14.618 51.3843 14.4809 51.1928 14.4081 50.9728C14.3353 50.7529 14.3303 50.5153 14.3939 50.2924C14.4574 50.0695 14.5864 49.872 14.7632 49.7269C14.94 49.5818 15.1562 49.4961 15.3822 49.4815C15.6082 49.4669 15.8331 49.524 16.0264 49.6451C16.2196 49.7662 16.3717 49.9455 16.4621 50.1584C16.5525 50.3714 16.5767 50.6077 16.5315 50.8353C16.4799 51.0944 16.3415 51.3268 16.1401 51.492C15.9387 51.6573 15.6872 51.7448 15.4294 51.7395Z" fill="#C4455E"/>
<path d="M14.3258 46.3144C14.2966 46.0147 14.3847 45.7153 14.5707 45.4822C14.7567 45.249 15.0254 45.1012 15.3176 45.0712C15.6099 45.0412 15.9018 45.1315 16.1292 45.3223C16.3565 45.5131 16.5007 45.7886 16.5299 46.0884C16.5444 46.2368 16.5302 46.3867 16.4882 46.5295C16.4462 46.6723 16.3771 46.8053 16.285 46.9207C16.1929 47.0361 16.0796 47.1319 15.9514 47.2024C15.8232 47.2729 15.6828 47.3168 15.5381 47.3317C15.3933 47.3465 15.2472 47.332 15.1079 47.2889C14.9687 47.2458 14.8391 47.175 14.7265 47.0805C14.4992 46.8898 14.355 46.6142 14.3258 46.3144Z" fill="#C4455E"/>
<path d="M15.4289 40.4372L12.1228 43.8279L8.18848 37.7812L12.1228 37.0465L15.4289 40.4372Z" fill="#C4455E"/>
<path d="M14.3269 39.307L13.0706 40.5954C12.9563 40.7146 12.8176 40.8062 12.6645 40.8637C12.5115 40.9212 12.3479 40.9432 12.1855 40.9281C12.0232 40.9129 11.8662 40.8611 11.7258 40.7762C11.5853 40.6913 11.465 40.5755 11.3735 40.4372L9.5 37.5438L12.1229 37.0465L14.3269 39.307Z" fill="#DB5669"/>
<path d="M22.6681 37.7812L18.7339 43.8279L15.4277 40.4372L18.7339 37.0465L22.6681 37.7812Z" fill="#C4455E"/>
<path d="M16.5312 39.307L17.7876 40.5954C17.9019 40.7146 18.0406 40.8062 18.1937 40.8637C18.3467 40.9212 18.5103 40.9432 18.6726 40.9281C18.835 40.9129 18.992 40.8611 19.1324 40.7762C19.2729 40.6913 19.3932 40.5755 19.4847 40.4372L21.3582 37.5438L18.7353 37.0465L16.5312 39.307Z" fill="#DB5669"/>
<path d="M22.0409 20.093C21.4458 27.5186 21.7874 29.8695 19.4842 32.0282C18.6577 32.8062 17.6349 33.3307 16.5322 33.5422C15.4294 33.7536 14.2909 33.6435 13.2462 33.2244C12.2014 32.8052 11.2923 32.0938 10.6222 31.171C9.95214 30.2483 9.54794 29.1512 9.45559 28.0046L8.81641 20.093C10.6458 19.4713 12.1887 18.8384 13.2246 16.7023C14.3766 17.8749 15.7581 18.7835 17.2779 19.368C18.7977 19.9525 20.4211 20.1996 22.0409 20.093Z" fill="#F6CCAF"/>
<path d="M22.0409 20.093C21.4899 26.8744 21.8646 30.265 19.1425 32.3221C18.2962 32.5497 17.4116 32.5842 16.5508 32.4231C15.6901 32.2621 14.8743 31.9094 14.1609 31.39C13.4474 30.8706 12.8537 30.1971 12.4216 29.4169C11.9894 28.6367 11.7294 27.7688 11.6597 26.8744L11.0205 19.1549C11.9653 18.5659 12.7291 17.7159 13.2246 16.7023C14.3766 17.8749 15.7582 18.7835 17.2779 19.368C18.7977 19.9525 20.4211 20.1996 22.0409 20.093Z" fill="#FFDEC7"/>
<path d="M49.5328 25.3931L46.8002 17.3421C46.6341 16.8963 46.335 16.5118 45.9432 16.2403C45.5514 15.9688 45.0855 15.8232 44.6082 15.8232C44.131 15.8232 43.6651 15.9688 43.2733 16.2403C42.8815 16.5118 42.5824 16.8963 42.4163 17.3421L39.7129 25.3785C39.632 25.7054 39.6776 26.0507 39.8408 26.3456C40.0039 26.6405 40.2725 26.8634 40.5931 26.9699C40.9137 27.0764 41.2628 27.0586 41.5709 26.9202C41.879 26.7818 42.1234 26.5328 42.2556 26.2229L42.9132 24.2138H46.3618C46.8148 25.5969 47.0048 27.1256 48.2907 27.1256C48.4973 27.119 48.6997 27.065 48.882 26.9679C49.0643 26.8707 49.2216 26.733 49.3418 26.5653C49.4619 26.3977 49.5417 26.2048 49.5748 26.0014C49.608 25.7981 49.5936 25.5899 49.5328 25.3931ZM43.7753 21.5787L44.6082 19.1037L45.4412 21.5787H43.7753Z" fill="#425B72"/>
<path d="M44.7722 2.77075V4.72075H43.6412V12.3907H41.3012V9.24475H40.2092C40.1659 9.97275 39.8972 10.5491 39.4032 10.9737C38.9092 11.3897 38.2679 11.5977 37.4792 11.5977C36.8552 11.5977 36.3092 11.4851 35.8412 11.2597C35.3732 11.0257 35.0092 10.6964 34.7492 10.2717C34.4892 9.84708 34.3592 9.36175 34.3592 8.81575H36.5562C36.5562 9.03241 36.6256 9.21875 36.7642 9.37475C36.9029 9.52208 37.0936 9.59575 37.3362 9.59575C37.5702 9.59575 37.7522 9.52641 37.8822 9.38775C38.0122 9.24041 38.0772 9.04975 38.0772 8.81575C38.0772 8.57308 37.9906 8.37375 37.8172 8.21775C37.6439 8.05308 37.3926 7.97075 37.0632 7.97075H36.4522V6.09875H37.0632C37.3406 6.09875 37.5659 6.03375 37.7392 5.90375C37.9126 5.76508 37.9992 5.58308 37.9992 5.35775C37.9992 5.14108 37.9342 4.96775 37.8042 4.83775C37.6742 4.69908 37.5096 4.62975 37.3102 4.62975C37.1022 4.62975 36.9289 4.69475 36.7902 4.82475C36.6602 4.95475 36.5952 5.11941 36.5952 5.31875H34.4502C34.4502 4.79875 34.5672 4.33941 34.8012 3.94075C35.0352 3.53341 35.3689 3.21708 35.8022 2.99175C36.2356 2.76641 36.7382 2.65375 37.3102 2.65375C38.1596 2.65375 38.8312 2.87041 39.3252 3.30375C39.8279 3.73708 40.0792 4.31775 40.0792 5.04575C40.0792 5.50508 39.9666 5.89941 39.7412 6.22875C39.5159 6.55808 39.1952 6.80075 38.7792 6.95675V7.00875C39.0046 7.06941 39.2212 7.17341 39.4292 7.32075H41.3012V2.77075H44.7722Z" fill="#425B72"/>
</svg>
