<svg width="54" height="54" viewBox="0 0 54 54" fill="none" xmlns="http://www.w3.org/2000/svg">
<path d="M40.1906 52.9723C37.9452 52.9721 36.125 51.1519 36.1248 48.9066V46.6196C36.1248 45.6371 35.3283 44.8406 34.3458 44.8406H4.0681C3.08563 44.8406 2.28906 45.6371 2.28906 46.6196V48.9066C2.28906 51.1519 4.10946 52.9723 6.35483 52.9723H40.1906Z" fill="#D1AB86"/>
<path d="M48.3138 9.50891C50.5594 9.50891 52.3798 11.3293 52.3798 13.5749V15.8625C52.3798 16.845 51.5832 17.6416 50.6008 17.6416H44.248V13.5749C44.248 11.3295 46.0682 9.50913 48.3138 9.50891Z" fill="#D1AB86"/>
<path d="M44.2545 17.6414V48.908C44.2543 51.1534 42.4341 52.9736 40.1887 52.9738C37.9433 52.9736 36.1232 51.1534 36.1229 48.908V46.6195C36.1229 45.6371 35.3264 44.8405 34.3439 44.8405H10.4189V13.5748C10.4189 11.3292 12.2393 9.50879 14.4849 9.50879H48.3131C46.0675 9.50901 44.2474 11.3292 44.2474 13.5748V17.6414H44.2545Z" fill="#FEDBB0"/>
<path d="M35.5584 39.9685H27.3341C26.9663 39.9685 26.667 40.2678 26.667 40.6356C26.667 41.0035 26.9663 41.3028 27.3341 41.3028H35.5584C35.9262 41.3028 36.2255 41.0035 36.2255 40.6356C36.2255 40.2678 35.9262 39.9685 35.5584 39.9685Z" fill="#E59A5C"/>
<path d="M24.7594 39.9685H16.8224C16.4546 39.9685 16.1553 40.2678 16.1553 40.6356C16.1553 41.0035 16.4546 41.3028 16.8224 41.3028H24.7594C25.1272 41.3028 25.4265 41.0035 25.4265 40.6356C25.4265 40.2678 25.1272 39.9685 24.7594 39.9685Z" fill="#E59A5C"/>
<path d="M35.5587 35.7609H24.2541C23.8862 35.7609 23.5869 36.0602 23.5869 36.428C23.5869 36.7958 23.8862 37.0951 24.2541 37.0951H35.5587C35.9265 37.0951 36.2259 36.7958 36.2259 36.428C36.2259 36.0602 35.9265 35.7609 35.5587 35.7609Z" fill="#E59A5C"/>
<path d="M16.8224 37.0951H21.679C22.0468 37.0951 22.3461 36.7958 22.3461 36.428C22.3461 36.0602 22.0468 35.7609 21.679 35.7609H16.8224C16.4546 35.7609 16.1553 36.0602 16.1553 36.428C16.1553 36.7958 16.4546 37.0951 16.8224 37.0951Z" fill="#E59A5C"/>
<path d="M35.5598 31.5547H27.881C27.5132 31.5547 27.2139 31.854 27.2139 32.2218C27.2139 32.5896 27.5132 32.889 27.881 32.889H35.5598C35.9276 32.889 36.2269 32.5896 36.2269 32.2218C36.2269 31.854 35.9276 31.5547 35.5598 31.5547Z" fill="#E59A5C"/>
<path d="M16.8224 32.889H25.3051C25.6729 32.889 25.9722 32.5896 25.9722 32.2218C25.9722 31.854 25.6729 31.5547 25.3051 31.5547H16.8224C16.4546 31.5547 16.1553 31.854 16.1553 32.2218C16.1553 32.5896 16.4546 32.889 16.8224 32.889Z" fill="#E59A5C"/>
<path d="M30.3908 28.683H35.5575C35.9254 28.683 36.2247 28.3837 36.2247 28.0159C36.2247 27.6481 35.9254 27.3488 35.5575 27.3488H30.3908C30.023 27.3488 29.7236 27.6481 29.7236 28.0159C29.7236 28.3837 30.023 28.683 30.3908 28.683Z" fill="#E59A5C"/>
<path d="M16.8224 28.6829H27.8169C28.1847 28.6829 28.484 28.3836 28.484 28.0158C28.484 27.648 28.1847 27.3486 27.8169 27.3486H16.8224C16.4546 27.3486 16.1553 27.648 16.1553 28.0158C16.1553 28.3836 16.4546 28.6829 16.8224 28.6829Z" fill="#E59A5C"/>
<path d="M36.4795 11.1842H35.7857L26.7132 1.88231C26.5451 1.70997 26.2674 1.70997 26.0992 1.88231L17.0266 11.1842H16.3328C16.0379 11.1842 15.7988 11.4233 15.7988 11.7182C15.7988 12.013 16.0379 12.2521 16.3328 12.2521H36.4797C36.7746 12.2521 37.0136 12.013 37.0136 11.7182C37.0134 11.4233 36.7744 11.1842 36.4795 11.1842Z" fill="#C77B61"/>
<path d="M17.4583 22.5775C17.2204 22.5775 17.0273 22.7705 17.0273 23.0085V23.7937C17.0273 24.0317 17.2204 24.2247 17.4583 24.2247H35.3554C35.5934 24.2247 35.7864 24.0317 35.7864 23.7937V23.0085C35.7864 22.7705 35.5934 22.5775 35.3554 22.5775H17.4583Z" fill="#E59A5C"/>
<path d="M26.2892 3.75188L20.0797 10.1184C19.9792 10.2214 20.0524 10.3941 20.1965 10.3941H32.6155C32.7596 10.3941 32.8327 10.2214 32.7322 10.1184L26.5227 3.75188C26.4589 3.68606 26.3533 3.68606 26.2892 3.75188Z" fill="#E59A5C"/>
<path d="M26.3459 5.69169L23.1712 8.94666C23.1199 8.99937 23.1572 9.08765 23.2311 9.08765H29.5804C29.654 9.08765 29.6916 8.99937 29.6403 8.94666L26.4656 5.69169C26.4327 5.65811 26.3786 5.65811 26.3459 5.69169Z" fill="#E8C197"/>
<path d="M21.456 13.5175H18.501V21.7386H21.456V13.5175Z" fill="#E59A5C"/>
<path d="M18.4784 13.5175H21.4794C21.7156 13.5175 21.9071 13.326 21.9071 13.0899V12.2517H18.0508V13.0899C18.0508 13.326 18.2423 13.5175 18.4784 13.5175Z" fill="#A86654"/>
<path d="M18.4784 21.7389C18.2423 21.7389 18.0508 21.9304 18.0508 22.1665V22.5775H21.9073V22.1665C21.9073 21.9304 21.7158 21.7389 21.4797 21.7389H18.4784Z" fill="#A86654"/>
<path d="M27.8866 13.5175H24.9316V21.7386H27.8866V13.5175Z" fill="#E59A5C"/>
<path d="M24.9062 13.5176H27.9072C28.1433 13.5176 28.3348 13.3261 28.3348 13.09V12.2518H24.4785V13.09C24.4785 13.3261 24.67 13.5176 24.9062 13.5176Z" fill="#A86654"/>
<path d="M24.9062 21.7386C24.67 21.7386 24.4785 21.9301 24.4785 22.1663V22.5772H28.335V22.1663C28.335 21.9301 28.1436 21.7386 27.9074 21.7386H24.9062Z" fill="#A86654"/>
<path d="M34.3114 13.5175H31.3564V21.7386H34.3114V13.5175Z" fill="#E59A5C"/>
<path d="M31.3331 13.5174H34.3341C34.5703 13.5174 34.7618 13.3259 34.7618 13.0897V12.2516H30.9053V13.0897C30.9055 13.3259 31.097 13.5174 31.3331 13.5174Z" fill="#A86654"/>
<path d="M31.3329 21.7385C31.0967 21.7385 30.9053 21.93 30.9053 22.1662V22.5771H34.7616V22.1662C34.7616 21.93 34.5701 21.7385 34.3339 21.7385H31.3329Z" fill="#A86654"/>
<path d="M48.3149 8.61934H34.526L27.3494 1.26124C27.103 1.0084 26.7589 0.863403 26.4056 0.863403C26.0522 0.863403 25.7082 1.0084 25.4618 1.26124L18.2849 8.61934H14.4867C11.7543 8.61934 9.53117 10.8425 9.53117 13.5749V43.951H4.06797C2.59648 43.951 1.39941 45.1481 1.39941 46.6196V48.9066C1.39941 51.6389 3.62232 53.8618 6.3547 53.8618H40.1349C40.1535 53.863 40.172 53.8634 40.1905 53.8634C42.9226 53.8632 45.1455 51.6403 45.1457 48.9081V18.531H50.6018C52.0733 18.531 53.2704 17.334 53.2704 15.8625V13.5749C53.2704 10.8425 51.0473 8.61934 48.3149 8.61934ZM52.3809 15.8625C52.3809 16.8449 51.5843 17.6415 50.6018 17.6415H44.2562V48.9081C44.256 51.1535 42.4358 52.9737 40.1905 52.9739C40.18 52.9739 40.17 52.9723 40.1595 52.9723H6.3547C4.10933 52.9723 2.28893 51.1519 2.28893 48.9066V46.6196C2.28893 45.6371 3.0855 44.8406 4.06797 44.8406H10.4207V13.5749C10.4207 11.3293 12.2411 9.50886 14.4867 9.50886H18.6599L26.0985 1.88235C26.1825 1.79606 26.2939 1.75315 26.4056 1.75315C26.517 1.75315 26.6286 1.79629 26.7127 1.88235L34.1513 9.50886H48.3151C50.5607 9.50886 52.3811 11.3293 52.3811 13.5749V15.8625H52.3809Z" fill="#422618"/>
</svg>
