<svg width="54" height="54" viewBox="0 0 54 54" fill="none" xmlns="http://www.w3.org/2000/svg">
<g clip-path="url(#clip0_1007_3830)">
<path d="M34.8317 17.5939C34.8317 17.5939 34.518 14.5135 31.8322 11.6539C31.6545 11.4654 31.4401 11.3154 31.2022 11.2129C30.9643 11.1105 30.708 11.0579 30.449 11.0583L30.2595 11.0287C29.928 10.9771 29.6258 10.8086 29.4076 10.5538C29.1893 10.2989 29.0694 9.9744 29.0694 9.63886V8.09033H25.9044V9.63807C25.9044 9.9736 25.7845 10.2981 25.5663 10.553C25.348 10.8078 25.0459 10.9763 24.7143 11.0279L24.5249 11.0575C24.2658 11.0571 24.0095 11.1097 23.7716 11.2122C23.5337 11.3146 23.3192 11.4646 23.1415 11.6531C20.4558 14.5135 20.1421 17.5939 20.1421 17.5939C20.1421 17.5939 19.4541 20.2171 21.0452 20.7332C22.6363 21.2492 23.5822 20.1741 23.5822 20.1741L23.61 22.31C23.6227 22.9332 23.5638 23.5559 23.4344 24.1657C22.9652 26.2979 23.6683 28.3016 23.6683 28.3016C23.9066 29.0481 23.9594 30.3555 23.9691 31.0842C23.9731 31.3918 23.9598 31.6983 23.9364 32.0053C23.7619 34.2966 23.8836 36.6008 24.2984 38.861C24.3423 39.0758 24.3571 39.2955 24.3424 39.5142C24.2799 40.5523 23.8184 41.5261 23.0543 42.2317C22.9771 42.303 22.9232 42.3959 22.8997 42.4983C22.8761 42.6007 22.884 42.7079 22.9223 42.8057C22.9606 42.9036 23.0275 42.9876 23.1143 43.0469C23.2011 43.1061 23.3037 43.1378 23.4088 43.1378H31.5644C31.6695 43.1378 31.7721 43.1061 31.8589 43.0469C31.9457 42.9876 32.0126 42.9036 32.0509 42.8057C32.0892 42.7079 32.0971 42.6007 32.0735 42.4983C32.05 42.3959 31.9961 42.303 31.9189 42.2317C31.1548 41.5261 30.6932 40.5523 30.6308 39.5142C30.6164 39.2916 30.6319 39.0681 30.677 38.8497C31.09 36.5928 31.2109 34.2921 31.0368 32.0044C31.0133 31.6953 30.9999 31.3867 31.0042 31.0767C31.0141 30.3469 31.0666 29.0457 31.3049 28.3011C31.3049 28.3011 32.0078 26.2975 31.5388 24.1653C31.4094 23.5555 31.3505 22.9328 31.3632 22.3095L31.391 20.1736C31.391 20.1736 32.3369 21.2487 33.928 20.7327C35.5191 20.2167 34.8317 17.5939 34.8317 17.5939Z" fill="#FFD967"/>
<path d="M34.3675 43.1377H20.6055V49.9466H34.3675V43.1377Z" fill="#AAC4EF"/>
<path d="M27.4871 49.9463H19.6877C19.2199 49.9463 18.7713 50.1321 18.4405 50.4629C18.1097 50.7937 17.9238 51.2424 17.9238 51.7102V52.4117H37.0503V51.7102C37.0503 51.2424 36.8645 50.7937 36.5337 50.4629C36.2029 50.1321 35.7542 49.9463 35.2864 49.9463H27.4871Z" fill="#7192C1"/>
<path d="M27.4871 48.4022C28.5144 48.4022 29.3472 47.5694 29.3472 46.542C29.3472 45.5147 28.5144 44.6819 27.4871 44.6819C26.4598 44.6819 25.627 45.5147 25.627 46.542C25.627 47.5694 26.4598 48.4022 27.4871 48.4022Z" fill="white"/>
<path d="M27.4873 17.0483C27.6596 17.0483 27.8247 17.1168 27.9465 17.2386C28.0683 17.3603 28.1367 17.5255 28.1367 17.6978V21.0366H26.8379V17.6978C26.8379 17.5255 26.9063 17.3603 27.0281 17.2386C27.1499 17.1168 27.3151 17.0483 27.4873 17.0483Z" fill="#FF9F52"/>
<path d="M29.1974 20.8218H25.7771C25.6848 20.8218 25.5961 20.8584 25.5306 20.9236C25.4652 20.9887 25.4282 21.0772 25.4277 21.1696C25.4275 21.2958 25.4522 21.4207 25.5004 21.5373C25.5485 21.6539 25.6192 21.7599 25.7083 21.8492C25.7975 21.9385 25.9033 22.0093 26.0199 22.0576C26.1364 22.1059 26.2613 22.1308 26.3875 22.1308H26.5703V41.5104C26.5703 41.7657 26.6441 42.0155 26.7828 42.2298L27.3069 43.0398C27.3263 43.0698 27.353 43.0945 27.3844 43.1116C27.4158 43.1287 27.451 43.1376 27.4867 43.1376C27.5225 43.1376 27.5577 43.1287 27.5891 43.1116C27.6205 43.0945 27.6471 43.0698 27.6665 43.0398L28.1906 42.2298C28.3293 42.0155 28.4031 41.7657 28.4031 41.5104V22.1311H28.5859C28.7121 22.1311 28.837 22.1062 28.9535 22.0579C29.0701 22.0096 29.1759 21.9387 29.2651 21.8495C29.3542 21.7602 29.4249 21.6542 29.473 21.5376C29.5212 21.421 29.5459 21.2961 29.5457 21.1699C29.5454 21.0777 29.5086 20.9893 29.4433 20.9241C29.3781 20.8588 29.2897 20.8221 29.1974 20.8218Z" fill="#FF9F52"/>
<path d="M27.5087 1.58813C24.3189 1.58813 24.8003 5.47185 24.8003 5.47185C24.8003 8.87067 27.5087 9.35556 27.5087 9.35556C27.5087 9.35556 30.2171 8.87067 30.2171 5.47185C30.2163 5.47185 30.6977 1.58813 27.5087 1.58813Z" fill="#FFD967"/>
<path d="M14.6798 47.4565C14.6798 47.4565 13.6679 45.4846 15.2572 42.8145C15.8405 43.2761 16.2668 43.9066 16.478 44.6198C16.8591 45.8656 16.1 47.2037 14.831 47.433C14.7819 47.4423 14.7315 47.4502 14.6798 47.4565Z" fill="#FFD967"/>
<path d="M14.6801 47.4564C14.6801 47.4564 12.5106 47.1084 10.5078 49.4771C11.1211 49.8895 11.8479 50.0998 12.5867 50.0788C12.8937 50.0726 13.196 50.0017 13.4738 49.8706C13.7515 49.7395 13.9985 49.5513 14.1985 49.3182C14.3985 49.0851 14.547 48.8124 14.6343 48.518C14.7216 48.2235 14.7458 47.914 14.7052 47.6095C14.6981 47.5601 14.6901 47.5087 14.6801 47.4564Z" fill="#FFD967"/>
<path d="M10.668 43.5802C10.668 43.5802 10.1083 41.4318 12.2378 39.1792C12.7066 39.7587 12.9858 40.4685 13.0373 41.2121C13.1391 42.5123 12.1084 43.6491 10.8205 43.5913C10.7707 43.5887 10.7199 43.585 10.668 43.5802Z" fill="#FFD967"/>
<path d="M10.6682 43.5802C10.6682 43.5802 8.62682 42.7592 6.15918 44.6257C6.66758 45.1637 7.33087 45.5301 8.05696 45.674C8.35723 45.7364 8.66735 45.7345 8.96682 45.6683C9.26629 45.6021 9.54831 45.4731 9.79425 45.2899C10.0402 45.1066 10.2445 44.8733 10.3936 44.6053C10.5427 44.3372 10.6333 44.0406 10.6593 43.735C10.6631 43.6849 10.6666 43.6329 10.6682 43.5802Z" fill="#FFD967"/>
<path d="M7.61524 38.6012C7.61524 38.6012 7.60475 36.3794 10.2239 34.7378C10.5341 35.4164 10.6287 36.1737 10.4952 36.9078C10.2728 38.1922 8.99287 39.0321 7.76024 38.6499C7.71259 38.6352 7.66426 38.619 7.61524 38.6012Z" fill="#FFD967"/>
<path d="M7.61536 38.6012C7.61536 38.6012 5.84209 37.2896 2.99121 38.472C3.35022 39.1215 3.90148 39.6438 4.56928 39.9674C4.84329 40.1042 5.14331 40.1812 5.44937 40.193C5.75542 40.2049 6.06049 40.1514 6.34426 40.0361C6.62803 39.9208 6.88398 39.7464 7.09508 39.5245C7.30617 39.3026 7.46756 39.0382 7.56851 38.749C7.58455 38.7012 7.60075 38.6518 7.61536 38.6012Z" fill="#FFD967"/>
<path d="M6.07227 33.3769C6.07227 33.3769 6.5427 31.2066 9.45346 30.1846C9.6093 30.9143 9.53786 31.6742 9.24874 32.362C8.75321 33.5661 7.32332 34.1023 6.20329 33.4565C6.15999 33.4316 6.11631 33.4051 6.07227 33.3769Z" fill="#FFD967"/>
<path d="M6.07196 33.377C6.07196 33.377 4.62539 31.7045 1.58789 32.2272C1.79778 32.9408 2.22248 33.5724 2.80416 34.036C3.0406 34.2304 3.31583 34.372 3.61142 34.4514C3.90702 34.5309 4.21617 34.5462 4.51819 34.4965C4.82021 34.4468 5.10813 34.3332 5.3627 34.1633C5.61726 33.9933 5.8326 33.771 5.99429 33.5111C6.02034 33.4679 6.0467 33.4231 6.07196 33.377Z" fill="#FFD967"/>
<path d="M5.89258 27.6881C5.89258 27.6881 7.00339 25.7714 10.0839 25.71C10.0094 26.4512 9.70912 27.1517 9.22358 27.7167C9.02832 27.9523 8.78497 28.1435 8.50982 28.2775C8.23468 28.4114 7.93408 28.485 7.62818 28.4934C7.32227 28.5017 7.01811 28.4446 6.73607 28.3259C6.45403 28.2071 6.20061 28.0295 5.9928 27.8048C5.95891 27.7677 5.92551 27.7288 5.89258 27.6881Z" fill="#FFD967"/>
<path d="M5.89205 27.6881C5.89205 27.6881 5.0271 25.6452 1.97864 25.1919C1.96033 25.9373 2.17097 26.6704 2.58217 27.2923C2.74598 27.5509 2.96311 27.7714 3.21904 27.9393C3.47497 28.1071 3.7638 28.2184 4.06619 28.2656C4.36859 28.3128 4.67758 28.2949 4.9725 28.2131C5.26741 28.1312 5.54145 27.9873 5.77627 27.791C5.81454 27.7583 5.85346 27.7242 5.89205 27.6881Z" fill="#FFD967"/>
<path d="M7.20215 22.0942C7.20215 22.0942 8.78101 20.5496 11.7647 21.3272C11.4966 22.0204 11.0212 22.6138 10.4032 23.0267C10.1511 23.2002 9.86478 23.318 9.56347 23.3721C9.26216 23.4262 8.95278 23.4154 8.65598 23.3403C8.35919 23.2653 8.08183 23.1278 7.84243 22.937C7.60303 22.7462 7.40711 22.5065 7.26774 22.234C7.2454 22.1889 7.22354 22.1423 7.20215 22.0942Z" fill="#FFD967"/>
<path d="M7.20166 22.0942C7.20166 22.0942 6.91133 19.8915 4.09507 18.627C3.87959 19.3414 3.88807 20.1047 4.11937 20.8141C4.51373 22.0558 5.89439 22.7117 7.0638 22.1622C7.10891 22.1411 7.15544 22.1187 7.20166 22.0942Z" fill="#FFD967"/>
<path d="M9.71777 17.3643C9.71777 17.3643 11.6702 16.347 14.3048 17.9633C13.8503 18.5485 13.2253 18.9779 12.5161 19.1923C12.2236 19.2841 11.915 19.3126 11.6106 19.2761C11.3063 19.2395 11.0132 19.1387 10.7507 18.9803C10.4883 18.8219 10.2625 18.6096 10.0884 18.3574C9.91418 18.1051 9.79561 17.8187 9.74049 17.5172C9.73191 17.4675 9.72434 17.4166 9.71777 17.3643Z" fill="#FFD967"/>
<path d="M9.71792 17.3642C9.71792 17.3642 10.0692 15.1705 7.73454 13.137C7.32361 13.7591 7.11366 14.4925 7.13307 15.2379C7.1561 16.5418 8.29073 17.5726 9.56704 17.389C9.6158 17.3818 9.66662 17.3741 9.71792 17.3642Z" fill="#FFD967"/>
<path d="M39.3198 47.4565C39.3198 47.4565 40.3316 45.4846 38.7423 42.8145C38.1591 43.2761 37.7327 43.9066 37.5216 44.6198C37.1404 45.8656 37.8996 47.2037 39.1686 47.433C39.2177 47.4423 39.268 47.4502 39.3198 47.4565Z" fill="#FFD967"/>
<path d="M39.3196 47.4564C39.3196 47.4564 41.4891 47.1084 43.4919 49.4771C42.8786 49.8895 42.1518 50.0998 41.4131 50.0788C41.106 50.0726 40.8037 50.0017 40.5259 49.8706C40.2482 49.7395 40.0012 49.5513 39.8012 49.3182C39.6013 49.0851 39.4527 48.8124 39.3654 48.518C39.2781 48.2235 39.2539 47.914 39.2945 47.6095C39.3017 47.5601 39.3096 47.5087 39.3196 47.4564Z" fill="#FFD967"/>
<path d="M43.3314 43.5802C43.3314 43.5802 43.8911 41.4318 41.7615 39.1792C41.2927 39.7587 41.0136 40.4685 40.962 41.2121C40.8602 42.5123 41.891 43.6491 43.1789 43.5913C43.2286 43.5887 43.2795 43.585 43.3314 43.5802Z" fill="#FFD967"/>
<path d="M43.332 43.5802C43.332 43.5802 45.3734 42.7592 47.841 44.6257C47.3326 45.1637 46.6693 45.5301 45.9433 45.674C45.643 45.7364 45.3329 45.7345 45.0334 45.6683C44.7339 45.6021 44.4519 45.4731 44.206 45.2899C43.96 45.1066 43.7557 44.8733 43.6066 44.6053C43.4575 44.3372 43.367 44.0406 43.3409 43.735C43.3371 43.6849 43.3336 43.6329 43.332 43.5802Z" fill="#FFD967"/>
<path d="M46.3852 38.6012C46.3852 38.6012 46.3957 36.3794 43.7765 34.7378C43.4663 35.4164 43.3717 36.1737 43.5052 36.9078C43.7276 38.1922 45.0075 39.0321 46.2402 38.6499C46.2878 38.6352 46.3362 38.619 46.3852 38.6012Z" fill="#FFD967"/>
<path d="M46.3848 38.6012C46.3848 38.6012 48.158 37.2896 51.0089 38.472C50.6499 39.1215 50.0986 39.6438 49.4308 39.9674C49.1568 40.1042 48.8568 40.1812 48.5508 40.193C48.2447 40.2049 47.9396 40.1514 47.6559 40.0361C47.3721 39.9208 47.1161 39.7464 46.905 39.5245C46.694 39.3026 46.5326 39.0382 46.4316 38.749C46.4156 38.7012 46.3994 38.6518 46.3848 38.6012Z" fill="#FFD967"/>
<path d="M47.9275 33.3769C47.9275 33.3769 47.4571 31.2066 44.5464 30.1846C44.3905 30.9143 44.462 31.6742 44.7511 32.362C45.2466 33.5661 46.6765 34.1023 47.7965 33.4565C47.8399 33.4316 47.8836 33.4051 47.9275 33.3769Z" fill="#FFD967"/>
<path d="M47.9277 33.377C47.9277 33.377 49.3743 31.7045 52.4118 32.2272C52.2018 32.9407 51.7772 33.5721 51.1955 34.0357C50.9591 34.2301 50.6839 34.3717 50.3883 34.4511C50.0927 34.5305 49.7835 34.5459 49.4815 34.4962C49.1795 34.4465 48.8916 34.3329 48.637 34.163C48.3824 33.993 48.1671 33.7707 48.0054 33.5108C47.9794 33.4679 47.953 33.4231 47.9277 33.377Z" fill="#FFD967"/>
<path d="M48.1074 27.6881C48.1074 27.6881 46.9966 25.7714 43.916 25.71C43.9905 26.4512 44.2908 27.1517 44.7764 27.7167C44.9716 27.9523 45.215 28.1435 45.4901 28.2775C45.7653 28.4114 46.0659 28.485 46.3718 28.4934C46.6777 28.5017 46.9818 28.4446 47.2639 28.3259C47.5459 28.2071 47.7993 28.0295 48.0072 27.8048C48.041 27.7677 48.0744 27.7288 48.1074 27.6881Z" fill="#FFD967"/>
<path d="M48.1074 27.6881C48.1074 27.6881 48.9717 25.6452 52.0202 25.1919C52.0385 25.9373 51.8279 26.6704 51.4167 27.2923C51.2529 27.5509 51.0357 27.7714 50.7798 27.9393C50.5239 28.1071 50.235 28.2184 49.9326 28.2656C49.6303 28.3128 49.3213 28.2949 49.0263 28.2131C48.7314 28.1312 48.4574 27.9873 48.2226 27.791C48.1849 27.7583 48.146 27.7242 48.1074 27.6881Z" fill="#FFD967"/>
<path d="M46.7979 22.0942C46.7979 22.0942 45.219 20.5496 42.2354 21.3272C42.5034 22.0204 42.9788 22.6138 43.5968 23.0267C43.8489 23.2002 44.1352 23.318 44.4366 23.3721C44.7379 23.4262 45.0472 23.4154 45.344 23.3403C45.6408 23.2653 45.9182 23.1278 46.1576 22.937C46.397 22.7462 46.5929 22.5065 46.7323 22.234C46.7547 22.1889 46.7766 22.1423 46.7979 22.0942Z" fill="#FFD967"/>
<path d="M46.7979 22.0942C46.7979 22.0942 47.0882 19.8915 49.9044 18.627C50.1199 19.3414 50.1114 20.1047 49.8801 20.8141C49.4858 22.0558 48.1051 22.7109 46.9357 22.1622C46.8906 22.1411 46.8441 22.1187 46.7979 22.0942Z" fill="#FFD967"/>
<path d="M44.2823 17.3643C44.2823 17.3643 42.3299 16.347 39.6953 17.9633C40.1498 18.5485 40.7748 18.9779 41.484 19.1923C41.7765 19.2841 42.0851 19.3126 42.3894 19.2761C42.6938 19.2395 42.9869 19.1387 43.2493 18.9803C43.5118 18.8219 43.7375 18.6096 43.9117 18.3574C44.0859 18.1051 44.2045 17.8187 44.2596 17.5172C44.2682 17.4675 44.2757 17.4166 44.2823 17.3643Z" fill="#FFD967"/>
<path d="M44.2815 17.3642C44.2815 17.3642 43.9302 15.1705 46.2649 13.137C46.6758 13.7591 46.8858 14.4925 46.8663 15.2379C46.8433 16.5418 45.7087 17.5726 44.4324 17.389C44.3836 17.3818 44.3328 17.3741 44.2815 17.3642Z" fill="#FFD967"/>
<path d="M35.2866 49.3111H35.0036V43.1374C35.0036 42.9689 34.9366 42.8073 34.8175 42.6881C34.6984 42.569 34.5368 42.5021 34.3683 42.5021H33.4844C33.0807 42.3391 31.4218 41.5463 31.265 39.4662C31.2547 39.3003 31.2669 39.1337 31.3012 38.9711C31.7271 36.6588 31.8513 34.301 31.6708 31.9567C31.6467 31.639 31.6364 31.356 31.64 31.0925C31.6559 29.9366 31.7531 28.9933 31.9086 28.5018C31.971 28.3196 32.6497 26.2555 32.1598 24.029C32.0412 23.4666 31.9873 22.8926 31.9993 22.318L32.0121 21.3153C32.6921 21.5689 33.4394 21.5767 34.1245 21.3374C35.8101 20.7907 35.7596 18.6758 35.4575 17.4772C35.4014 17.0314 34.9364 14.0307 32.2953 11.2181C32.064 10.9733 31.7863 10.7769 31.4783 10.6403C31.1704 10.5038 30.8384 10.4298 30.5016 10.4227L30.3572 10.4002C30.175 10.3726 30.0088 10.2804 29.889 10.1405C29.7691 10.0005 29.7036 9.82209 29.7044 9.63783V8.73857C30.3339 8.03101 30.8229 6.9877 30.8307 5.50762C30.864 5.18378 31.015 3.20468 29.9114 1.95569C29.3236 1.29022 28.5079 0.952881 27.4873 0.952881C26.4667 0.952881 25.6503 1.29022 25.0627 1.95569C23.9592 3.20468 24.1097 5.18378 24.1435 5.50762C24.1512 6.9877 24.6403 8.03069 25.2694 8.73841V9.63799C25.2703 9.82219 25.2049 10.0006 25.0851 10.1405C24.9654 10.2805 24.7993 10.3727 24.6172 10.4003L24.4726 10.4229C24.1358 10.43 23.8038 10.5039 23.4959 10.6405C23.1879 10.777 22.9102 10.9734 22.6789 11.2183C20.0378 14.031 19.5723 17.0312 19.5164 17.4774C19.2146 18.676 19.1641 20.7909 20.8494 21.3376C21.5345 21.577 22.2818 21.5691 22.9617 21.3155L22.9748 22.3181C22.9865 22.8927 22.9326 23.4668 22.814 24.0291C22.3242 26.2552 23.0027 28.3188 23.0655 28.5018C23.2208 28.9941 23.3186 29.9369 23.3339 31.0927C23.3372 31.3544 23.3272 31.6371 23.303 31.957C23.1226 34.3011 23.2468 36.6588 23.6726 38.9709C23.7068 39.1337 23.7191 39.3003 23.709 39.4663C23.5519 41.5496 21.8879 42.341 21.4896 42.5022H20.6056C20.4371 42.5022 20.2755 42.5692 20.1564 42.6883C20.0372 42.8074 19.9703 42.969 19.9703 43.1375V49.3113H19.6873C19.0512 49.312 18.4414 49.5649 17.9916 50.0147C17.5418 50.4645 17.2888 51.0743 17.2881 51.7103V52.4117C17.2881 52.5802 17.355 52.7418 17.4742 52.8609C17.5933 52.9801 17.7549 53.047 17.9234 53.047H37.0505C37.219 53.047 37.3806 52.9801 37.4997 52.8609C37.6189 52.7418 37.6858 52.5802 37.6858 52.4117V51.7102C37.6851 51.0741 37.4321 50.4643 36.9823 50.0145C36.5325 49.5648 35.9227 49.3118 35.2866 49.3111ZM31.2835 42.5021H29.0123C29.0298 42.4092 29.0388 42.315 29.0391 42.2205V22.7497C29.4061 22.6945 29.7405 22.5078 29.9799 22.2242C30.2193 21.9406 30.3473 21.5796 30.34 21.2086C30.3328 20.8376 30.1908 20.4819 29.9406 20.2079C29.6903 19.9338 29.3489 19.7602 28.98 19.7195V18.4806C29.6298 19.0575 30.2234 19.6946 30.753 20.3833L30.7282 22.3018C30.7151 22.9739 30.779 23.6454 30.9188 24.303C31.3411 26.2231 30.7123 28.0749 30.7058 28.0922C30.7038 28.0977 30.702 28.1033 30.7003 28.1081C30.4485 28.8944 30.3813 30.1559 30.3691 31.0758C30.3651 31.3776 30.3766 31.6975 30.4037 32.0534C30.5717 34.2839 30.4542 36.5268 30.0543 38.7276C29.9978 39.0019 29.9789 39.2826 29.9981 39.5619C30.0628 40.6637 30.5186 41.7063 31.2835 42.5021ZM27.2055 42.2205V22.131C27.2055 21.9626 27.1386 21.801 27.0194 21.6818C26.9003 21.5627 26.7387 21.4957 26.5702 21.4957H26.1616C26.0944 21.4941 26.0306 21.4662 25.9837 21.4181C25.9368 21.3701 25.9105 21.3055 25.9105 21.2384C25.9105 21.1712 25.9368 21.1067 25.9837 21.0586C26.0306 21.0105 26.0944 20.9827 26.1616 20.981H26.6293C26.7978 20.981 26.9594 20.9141 27.0785 20.7949C27.1977 20.6758 27.2646 20.5142 27.2646 20.3457V17.8909C27.2646 17.832 27.288 17.7754 27.3297 17.7337C27.3714 17.692 27.428 17.6686 27.4869 17.6686C27.5459 17.6686 27.6025 17.692 27.6442 17.7337C27.6859 17.7754 27.7093 17.832 27.7093 17.8909V20.3452C27.7093 20.5137 27.7762 20.6753 27.8954 20.7945C28.0145 20.9136 28.1761 20.9805 28.3446 20.9805H28.8123C28.8806 20.9805 28.9461 21.0077 28.9944 21.0559C29.0427 21.1042 29.0698 21.1697 29.0698 21.238C29.0698 21.3063 29.0427 21.3717 28.9944 21.42C28.9461 21.4683 28.8806 21.4954 28.8123 21.4954H28.4043C28.2358 21.4954 28.0742 21.5624 27.9551 21.6815C27.8359 21.8006 27.769 21.9622 27.769 22.1307V42.2205C27.769 42.2952 27.7393 42.3669 27.6865 42.4197C27.6336 42.4725 27.562 42.5022 27.4873 42.5022C27.4125 42.5022 27.3409 42.4725 27.288 42.4197C27.2352 42.3669 27.2055 42.2952 27.2055 42.2205ZM26.0156 2.79714C26.3566 2.4112 26.8383 2.22347 27.4877 2.22347C28.1372 2.22347 28.6165 2.41025 28.9573 2.79412C29.7576 3.6956 29.5675 5.37818 29.5656 5.39375C29.5624 5.41967 29.5609 5.44577 29.5609 5.47189C29.5609 7.93889 27.9301 8.5753 27.4846 8.70315C27.0292 8.57832 25.4148 7.9597 25.4148 5.47189C25.4148 5.44576 25.4131 5.41966 25.4098 5.39375C25.4073 5.37691 25.2237 3.69259 26.0156 2.79714ZM21.2418 20.1288C20.273 19.8146 20.7522 17.7744 20.7571 17.755C20.7652 17.7237 20.7711 17.6918 20.7746 17.6597C20.7776 17.6308 21.1126 14.7426 23.6055 12.0877C23.7239 11.9627 23.8665 11.8632 24.0247 11.7952C24.1829 11.7273 24.3533 11.6923 24.5255 11.6925C24.5582 11.6925 24.5908 11.69 24.623 11.6849L24.8136 11.6555C25.2851 11.584 25.7163 11.3487 26.0316 10.9911C26.347 10.6334 26.5263 10.1761 26.5383 9.69945C26.8037 9.83029 27.0854 9.92494 27.3759 9.98089C27.45 9.99402 27.5258 9.99402 27.5999 9.98089C27.8904 9.92494 28.1721 9.83029 28.4375 9.69945C28.4495 10.1762 28.6289 10.6335 28.9443 10.9911C29.2597 11.3488 29.691 11.584 30.1625 11.6555L30.3523 11.6849C30.3845 11.69 30.4171 11.6925 30.4498 11.6925C30.622 11.6923 30.7924 11.7273 30.9506 11.7952C31.1088 11.8632 31.2514 11.9627 31.3699 12.0877C33.8626 14.7426 34.1969 17.6306 34.2003 17.6581C34.2037 17.6907 34.2095 17.7231 34.2177 17.7548C34.2233 17.7753 34.7101 19.8119 33.7333 20.1286C33.4213 20.2454 33.083 20.2734 32.756 20.2094C32.429 20.1455 32.1262 19.9922 31.8811 19.7665C31.6006 19.3877 29.9309 17.1991 28.343 16.5741C28.2806 16.5524 28.2263 16.5124 28.1871 16.4593C28.1478 16.4062 28.1256 16.3425 28.1232 16.2765C28.1231 16.2272 28.1347 16.1785 28.1571 16.1345C28.1794 16.0905 28.2119 16.0525 28.2518 16.0235C28.2896 15.9947 28.3338 15.9755 28.3806 15.9676C28.4274 15.9597 28.4754 15.9633 28.5206 15.9781C29.8296 16.4117 31.0226 17.1379 32.0091 18.1014C32.1313 18.2175 32.2945 18.2803 32.463 18.276C32.6315 18.2717 32.7913 18.2007 32.9074 18.0785C33.0235 17.9563 33.0863 17.7931 33.082 17.6246C33.0777 17.4561 33.0067 17.2963 32.8846 17.1802C32.6007 16.9102 32.3176 16.6675 32.038 16.4496C31.9232 15.8044 31.7742 15.1657 31.5917 14.5363C31.5441 14.3755 31.4348 14.2402 31.2878 14.1596C31.1407 14.0791 30.9678 14.06 30.8067 14.1064C30.6457 14.1528 30.5095 14.261 30.4278 14.4074C30.3462 14.5539 30.3257 14.7266 30.3709 14.8881C30.4125 15.0331 30.4669 15.2297 30.5252 15.4589C30.0074 15.178 29.4644 14.9462 28.9033 14.7666C28.6679 14.6912 28.4179 14.673 28.174 14.7133C27.9301 14.7537 27.6993 14.8515 27.5006 14.9986C27.4962 15.0018 27.4923 15.0057 27.4879 15.0091C27.4834 15.0057 27.4796 15.0018 27.475 14.9986C27.2765 14.8513 27.0457 14.7534 26.8018 14.7131C26.5579 14.6727 26.3079 14.6911 26.0725 14.7666C25.5114 14.9462 24.9684 15.1779 24.4506 15.4589C24.5046 15.2467 24.5578 15.0521 24.6049 14.8879C24.6489 14.7268 24.6276 14.555 24.5458 14.4094C24.464 14.2639 24.3282 14.1564 24.1678 14.1102C24.0073 14.0641 23.8352 14.0829 23.6885 14.1626C23.5419 14.2424 23.4325 14.3767 23.3841 14.5364C23.2017 15.1658 23.0527 15.8045 22.9378 16.4496C22.6582 16.668 22.375 16.9102 22.0912 17.1802C22.0307 17.2377 21.9822 17.3065 21.9483 17.3828C21.9144 17.459 21.8959 17.5412 21.8937 17.6246C21.8916 17.708 21.9059 17.791 21.9359 17.8689C21.9659 17.9468 22.0109 18.018 22.0684 18.0785C22.1844 18.2007 22.3443 18.2717 22.5128 18.276C22.5962 18.2781 22.6792 18.2638 22.7571 18.2338C22.835 18.2039 22.9062 18.1589 22.9667 18.1014C23.9532 17.1379 25.1462 16.4118 26.4552 15.9781C26.5004 15.9633 26.5484 15.9598 26.5953 15.9677C26.6421 15.9756 26.6863 15.9947 26.7241 16.0235C26.764 16.0525 26.7965 16.0906 26.8188 16.1345C26.8411 16.1785 26.8527 16.2272 26.8526 16.2765C26.8502 16.3424 26.8279 16.4061 26.7887 16.4592C26.7495 16.5123 26.6951 16.5523 26.6328 16.574C25.0446 17.1993 23.3733 19.3899 23.0942 19.7663C22.9992 19.8637 22.3374 20.4839 21.2418 20.1288ZM24.9766 39.5618C24.9956 39.2824 24.9767 39.0018 24.9202 38.7276C24.5203 36.5267 24.4029 34.2837 24.5708 32.0531C24.5979 31.6952 24.6092 31.3755 24.6054 31.0757C24.5932 30.1558 24.526 28.8944 24.2744 28.1081C24.2728 28.1031 24.2709 28.0971 24.2692 28.0922C24.2628 28.0737 23.6339 26.2219 24.0557 24.3018C24.1954 23.6445 24.2594 22.9733 24.2463 22.3015L24.2214 20.3826C24.7506 19.6933 25.3443 19.0561 25.9943 18.4794V19.7193C25.6254 19.7599 25.2839 19.9335 25.0335 20.2075C24.7832 20.4815 24.6411 20.8373 24.6339 21.2084C24.6266 21.5795 24.7547 21.9405 24.9942 22.2241C25.2337 22.5076 25.5682 22.6944 25.9352 22.7493V42.2211C25.9356 42.3156 25.9446 42.4098 25.9621 42.5027H23.6909C24.456 41.7068 24.9119 40.6639 24.9766 39.5618ZM36.4152 51.7764H18.5593V51.7102C18.5596 51.411 18.6787 51.1241 18.8903 50.9126C19.1018 50.701 19.3887 50.582 19.6879 50.5817H27.3284C27.4969 50.5817 27.6585 50.5148 27.7777 50.3957C27.8968 50.2765 27.9637 50.1149 27.9637 49.9464C27.9637 49.778 27.8968 49.6164 27.7777 49.4972C27.6585 49.3781 27.4969 49.3111 27.3284 49.3111H21.2415V43.7727H33.733V49.3111H32.7924C32.6239 49.3111 32.4624 49.3781 32.3432 49.4972C32.2241 49.6164 32.1571 49.778 32.1571 49.9464C32.1571 50.1149 32.2241 50.2765 32.3432 50.3957C32.4624 50.5148 32.6239 50.5817 32.7924 50.5817H35.286C35.5852 50.582 35.872 50.701 36.0836 50.9126C36.2952 51.1241 36.4142 51.411 36.4146 51.7102L36.4152 51.7764Z" fill="#3D3C4C"/>
<path d="M30.1105 49.3113H30.0826C29.9141 49.3113 29.7525 49.3782 29.6333 49.4974C29.5142 49.6165 29.4473 49.7781 29.4473 49.9466C29.4473 50.1151 29.5142 50.2767 29.6333 50.3958C29.7525 50.5149 29.9141 50.5819 30.0826 50.5819H30.1105C30.279 50.5819 30.4406 50.5149 30.5597 50.3958C30.6789 50.2767 30.7458 50.1151 30.7458 49.9466C30.7458 49.7781 30.6789 49.6165 30.5597 49.4974C30.4406 49.3782 30.279 49.3113 30.1105 49.3113Z" fill="#3D3C4C"/>
<path d="M27.487 44.2703C27.0378 44.2703 26.5987 44.4035 26.2252 44.653C25.8517 44.9026 25.5606 45.2573 25.3887 45.6723C25.2168 46.0873 25.1718 46.544 25.2595 46.9845C25.3471 47.4251 25.5634 47.8298 25.881 48.1474C26.1987 48.465 26.6033 48.6813 27.0439 48.769C27.4845 48.8566 27.9411 48.8116 28.3561 48.6397C28.7711 48.4678 29.1259 48.1767 29.3754 47.8032C29.625 47.4297 29.7582 46.9906 29.7582 46.5414C29.7574 45.9393 29.5178 45.3621 29.0921 44.9364C28.6663 44.5106 28.0891 44.2711 27.487 44.2703ZM27.487 47.543C27.2891 47.543 27.0956 47.4843 26.9311 47.3744C26.7666 47.2644 26.6383 47.1081 26.5626 46.9253C26.4868 46.7425 26.467 46.5413 26.5056 46.3472C26.5442 46.1531 26.6395 45.9748 26.7795 45.8349C26.9194 45.6949 27.0977 45.5996 27.2918 45.561C27.4859 45.5224 27.6871 45.5422 27.8699 45.618C28.0527 45.6937 28.209 45.822 28.319 45.9865C28.4289 46.151 28.4876 46.3445 28.4876 46.5424C28.4872 46.8076 28.3817 47.0619 28.1941 47.2495C28.0065 47.4371 27.7523 47.5426 27.487 47.543Z" fill="#3D3C4C"/>
<path d="M15.6204 42.2934C15.5488 42.2435 15.4677 42.209 15.3822 42.1918C15.2966 42.1747 15.2085 42.1754 15.1232 42.1938C15.0379 42.2122 14.9574 42.248 14.8865 42.2989C14.8157 42.3499 14.7561 42.4149 14.7115 42.4898C13.9491 43.7703 13.7293 44.9149 13.7268 45.8072C13.4457 45.5655 13.1688 45.319 12.9009 45.0634C12.8406 45.0057 12.7695 44.9605 12.6918 44.9303C12.614 44.9001 12.531 44.8855 12.4476 44.8873C12.2791 44.8911 12.119 44.9616 12.0025 45.0833C11.886 45.2051 11.8227 45.3682 11.8264 45.5367C11.8302 45.7051 11.9007 45.8652 12.0225 45.9817C12.3819 46.3256 12.7554 46.6571 13.1385 46.9769C12.2453 47.2198 11.1056 47.7856 10.0213 49.0672C9.96569 49.1329 9.92404 49.2093 9.89886 49.2916C9.87369 49.3739 9.86551 49.4605 9.87482 49.5461C9.88414 49.6317 9.91075 49.7145 9.95304 49.7895C9.99534 49.8645 10.0524 49.9301 10.1209 49.9823C10.8236 50.4636 11.6563 50.7192 12.508 50.7151C12.538 50.7151 12.5685 50.7151 12.5988 50.7151C12.9998 50.706 13.3943 50.6118 13.7562 50.4388C14.118 50.2658 14.4391 50.018 14.698 49.7117C15.1167 49.2174 15.3501 48.5926 15.3581 47.9448C15.9553 47.7333 16.4614 47.3223 16.791 46.7813C17.003 46.433 17.1389 46.0439 17.1897 45.6394C17.2405 45.2349 17.2052 44.8242 17.0859 44.4343C16.8317 43.5858 16.3195 42.8375 15.6204 42.2934ZM13.7289 48.8903C13.5864 49.0591 13.4096 49.1957 13.2104 49.2912C13.0112 49.3866 12.7939 49.4387 12.5731 49.4439C12.2304 49.4514 11.889 49.4001 11.5636 49.2923C12.5642 48.3773 13.5221 48.139 14.0822 48.0861C14.0472 48.3834 13.9242 48.6634 13.7289 48.8903ZM15.7059 46.1198C15.5594 46.3646 15.3451 46.5619 15.089 46.6877C14.961 46.1334 14.8806 45.1404 15.4176 43.8924C15.6175 44.1702 15.7706 44.4789 15.8707 44.8061C15.9375 45.0243 15.9573 45.2542 15.9289 45.4806C15.9005 45.707 15.8245 45.9248 15.7059 46.1198Z" fill="#3D3C4C"/>
<path d="M11.2223 44.2081C11.8501 44.1333 12.4327 43.8439 12.8716 43.3889C13.1548 43.0954 13.3725 42.7452 13.5102 42.3613C13.6479 41.9775 13.7025 41.5687 13.6704 41.1622C13.6062 40.2779 13.2694 39.4353 12.7064 38.7504C12.6475 38.686 12.5759 38.6344 12.4962 38.5989C12.4164 38.5634 12.3302 38.5447 12.2429 38.5439H12.2377C12.1512 38.5439 12.0657 38.5616 11.9863 38.5958C11.9069 38.6299 11.8354 38.68 11.776 38.7428C10.9529 39.5759 10.3724 40.6176 10.0969 41.7558C9.84533 41.3886 9.60328 41.0151 9.37648 40.6342C9.33455 40.5611 9.27848 40.497 9.21154 40.4458C9.1446 40.3945 9.06813 40.3571 8.98658 40.3357C8.90503 40.3143 8.82004 40.3093 8.73655 40.3211C8.65307 40.3329 8.57277 40.3612 8.50033 40.4043C8.42788 40.4474 8.36475 40.5045 8.31461 40.5723C8.26446 40.6401 8.22831 40.7172 8.20826 40.7991C8.18821 40.881 8.18466 40.966 8.19781 41.0493C8.21097 41.1326 8.24057 41.2124 8.28489 41.2841C8.58665 41.7914 8.91256 42.2876 9.25546 42.7712C8.33285 42.8128 7.10388 43.1143 5.77548 44.119C5.70682 44.1709 5.64943 44.2363 5.6068 44.311C5.56417 44.3858 5.53718 44.4685 5.52748 44.5541C5.51778 44.6396 5.52557 44.7262 5.55037 44.8087C5.57518 44.8911 5.61648 44.9676 5.67176 45.0336C6.27331 45.6804 7.06272 46.122 7.92865 46.2961C8.32119 46.3765 8.72636 46.3723 9.11716 46.2838C9.50797 46.1954 9.87542 46.0246 10.1951 45.783C10.7104 45.3936 11.0737 44.8366 11.2223 44.2081ZM12.1586 40.2662C12.2939 40.5824 12.3767 40.9184 12.4038 41.2613C12.422 41.4883 12.3917 41.7167 12.315 41.9312C12.2384 42.1457 12.1171 42.3415 11.9591 42.5056C11.7631 42.7116 11.5113 42.8561 11.2346 42.9213C11.2284 42.353 11.364 41.3658 12.1586 40.2662ZM9.43 44.7687C9.25425 44.9015 9.05227 44.9954 8.83746 45.0442C8.62264 45.093 8.39991 45.0956 8.18403 45.0517C7.84676 44.982 7.52375 44.8555 7.22871 44.6779C8.40496 44.0068 9.39173 43.9884 9.94872 44.0615C9.85065 44.3439 9.66992 44.5903 9.43 44.7687Z" fill="#3D3C4C"/>
<path d="M6.615 40.6111C7.20808 40.3643 7.69632 39.9181 7.99533 39.3496C8.11815 39.3669 8.242 39.3757 8.36603 39.3761C8.87105 39.3754 9.36609 39.2353 9.79655 38.9712C10.1436 38.7581 10.4413 38.4735 10.6698 38.1363C10.8982 37.7991 11.0522 37.4172 11.1215 37.0158C11.2774 36.1427 11.1597 35.2428 10.7846 34.4392C10.7436 34.3622 10.6873 34.2945 10.619 34.2402C10.5507 34.186 10.472 34.1463 10.3877 34.1238C10.3035 34.1013 10.2155 34.0964 10.1292 34.1094C10.043 34.1223 9.96035 34.1529 9.88645 34.1992C8.89955 34.7888 8.08925 35.6328 7.5403 36.6429C7.43103 36.3206 7.32685 35.9971 7.23393 35.6715C7.21099 35.5913 7.17247 35.5164 7.12057 35.451C7.06868 35.3857 7.00442 35.3312 6.93147 35.2907C6.85851 35.2502 6.7783 35.2245 6.6954 35.215C6.6125 35.2055 6.52854 35.2124 6.44831 35.2353C6.36809 35.2583 6.29317 35.2968 6.22783 35.3487C6.16249 35.4006 6.10801 35.4648 6.0675 35.5378C6.027 35.6107 6.00126 35.6909 5.99175 35.7738C5.98225 35.8567 5.98916 35.9407 6.01211 36.0209C6.15076 36.5066 6.3072 36.9898 6.47968 37.467C5.57439 37.2682 4.29919 37.242 2.74733 37.8855C2.66769 37.9186 2.59561 37.9675 2.53548 38.0292C2.47535 38.091 2.42842 38.1644 2.39756 38.2449C2.3667 38.3254 2.35255 38.4114 2.35597 38.4975C2.35939 38.5837 2.38031 38.6682 2.41745 38.746C2.83934 39.5234 3.49358 40.1495 4.28871 40.5369C4.64877 40.7144 5.04262 40.8129 5.44386 40.8258C5.8451 40.8387 6.24446 40.7656 6.61516 40.6116L6.615 40.6111ZM9.87644 35.7689C9.93048 36.1101 9.92812 36.4579 9.86945 36.7984C9.83123 37.0218 9.7458 37.2345 9.61886 37.4223C9.49192 37.6101 9.32638 37.7687 9.1333 37.8874C8.89107 38.0377 8.61017 38.1138 8.32521 38.1064C8.4591 37.5587 8.83265 36.6351 9.87644 35.7694V35.7689ZM4.84983 39.3972C4.53947 39.2437 4.25728 39.0389 4.01522 38.7913C5.32106 38.4408 6.28115 38.6741 6.80082 38.8866C6.63727 39.1341 6.40269 39.3264 6.12789 39.4382C5.92425 39.5228 5.70486 39.563 5.48443 39.5559C5.264 39.5489 5.04763 39.4947 4.84983 39.3972Z" fill="#3D3C4C"/>
<path d="M4.17984 35.1579C4.34238 35.1579 4.50461 35.1438 4.66473 35.1158C5.29409 35.0052 5.86506 34.6783 6.27901 34.1915C6.58463 34.3069 6.9086 34.3661 7.23529 34.3662C7.53717 34.3661 7.83697 34.3162 8.12264 34.2186C8.50683 34.087 8.85846 33.8748 9.15399 33.5962C9.44951 33.3176 9.6821 32.9791 9.83618 32.6034C10.1775 31.7847 10.2576 30.8805 10.0655 30.0146C10.0423 29.9307 10.0021 29.8525 9.94738 29.7848C9.89268 29.7171 9.82464 29.6613 9.7475 29.621C9.67036 29.5807 9.58575 29.5567 9.49894 29.5504C9.41212 29.5442 9.32495 29.5558 9.24282 29.5846C8.18074 29.9332 7.22824 30.5534 6.47977 31.3836C6.45086 30.9808 6.42974 30.5774 6.42354 30.1743C6.42099 30.0059 6.35162 29.8453 6.23067 29.7279C6.10973 29.6106 5.94713 29.5461 5.77864 29.5487C5.61015 29.5512 5.44957 29.6206 5.33223 29.7415C5.2149 29.8625 5.15041 30.0251 5.15295 30.1936C5.16248 30.8096 5.19981 31.4268 5.25953 32.0407C4.41887 31.6355 3.16417 31.3101 1.47953 31.6004C1.39429 31.6151 1.31295 31.6471 1.2405 31.6943C1.16804 31.7415 1.10599 31.8031 1.05816 31.8751C1.01032 31.9472 0.977703 32.0282 0.962302 32.1134C0.9469 32.1985 0.94904 32.2858 0.96859 32.3701C1.21184 33.2216 1.71374 33.9764 2.40483 34.5301C2.9073 34.9362 3.53379 35.1578 4.17984 35.1579ZM8.89198 31.1122C8.87098 31.4587 8.79295 31.7993 8.66105 32.1204C8.57593 32.3288 8.44725 32.5166 8.28364 32.6712C8.12003 32.8258 7.92526 32.9436 7.7124 33.0168C7.44141 33.1114 7.14844 33.1234 6.87063 33.0513C7.11935 32.5462 7.68397 31.7262 8.89198 31.1122ZM5.21601 33.4769C5.00413 33.6806 4.73572 33.8156 4.44587 33.8643C4.22772 33.9021 4.00402 33.8928 3.78974 33.8371C3.57546 33.7814 3.37555 33.6806 3.2034 33.5414C2.93359 33.3227 2.70241 33.0603 2.5195 32.7651C3.86934 32.7147 4.75526 33.1547 5.21601 33.4769Z" fill="#3D3C4C"/>
<path d="M1.5852 24.6937C1.51722 24.7476 1.46102 24.8149 1.42004 24.8913C1.37907 24.9678 1.3542 25.0519 1.34696 25.1384C1.31838 26.0246 1.56446 26.8979 2.0515 27.6389C2.2721 27.9784 2.56278 28.2668 2.90402 28.4847C3.24526 28.7026 3.62916 28.845 4.02997 28.9023C4.15814 28.9204 4.28742 28.9295 4.41686 28.9295C4.91956 28.9293 5.4124 28.7901 5.84087 28.5272C6.32554 28.9172 6.92882 29.1301 7.55093 29.1307H7.59174C7.9956 29.1242 8.39338 29.0313 8.75835 28.8582C9.12333 28.6852 9.44704 28.4361 9.70775 28.1276C10.2836 27.4539 10.6366 26.6183 10.7183 25.7359C10.7219 25.6492 10.7077 25.5628 10.6765 25.4819C10.6454 25.401 10.5981 25.3273 10.5374 25.2654C10.4773 25.2028 10.4047 25.1535 10.3243 25.1207C10.244 25.0878 10.1576 25.0722 10.0708 25.0748C8.59726 25.1042 7.52313 25.5224 6.77412 25.9941C6.84432 25.6117 6.92214 25.231 7.01236 24.8552C7.05189 24.6914 7.02473 24.5186 6.93687 24.3748C6.849 24.231 6.70762 24.1281 6.54383 24.0885C6.38003 24.049 6.20724 24.0762 6.06347 24.164C5.9197 24.2519 5.81672 24.3933 5.77719 24.5571C5.65442 25.0653 5.55007 25.5812 5.46287 26.1002C4.78343 25.4708 3.70787 24.8066 2.07231 24.5634C1.98653 24.5507 1.89905 24.5557 1.81528 24.5781C1.73151 24.6005 1.6532 24.6398 1.5852 24.6937ZM8.73877 27.306C8.59507 27.4761 8.41664 27.6135 8.21546 27.7089C8.01428 27.8043 7.79501 27.8556 7.57237 27.8593C7.2808 27.8685 6.99358 27.7869 6.75046 27.6257C7.14084 27.2236 7.92877 26.62 9.26765 26.415C9.14198 26.7393 8.96325 27.0404 8.73877 27.306ZM5.04676 27.518C4.78593 27.6431 4.49369 27.6873 4.20753 27.6451C3.9862 27.6132 3.77424 27.5343 3.58589 27.4138C3.39754 27.2933 3.23714 27.1339 3.11546 26.9462C2.92615 26.6549 2.7866 26.3341 2.70252 25.997C4.0009 26.3697 4.70767 27.0673 5.04676 27.518Z" fill="#3D3C4C"/>
<path d="M4.35557 18.0475C4.27611 18.0118 4.19015 17.9928 4.10304 17.9917C4.01594 17.9907 3.92954 18.0075 3.84922 18.0413C3.76891 18.075 3.69639 18.1249 3.63617 18.1879C3.57596 18.2508 3.52933 18.3255 3.4992 18.4072C3.2362 19.2545 3.24136 20.1623 3.51397 21.0065C3.63654 21.3943 3.84048 21.7513 4.11216 22.0539C4.38384 22.3565 4.71699 22.5976 5.08934 22.761C5.43624 22.913 5.8108 22.9915 6.18951 22.9918C6.43834 22.9905 6.6858 22.9548 6.92486 22.8857C7.29744 23.4077 7.84087 23.7829 8.461 23.9463C8.85 24.0484 9.25631 24.066 9.65269 23.9981C10.0491 23.9302 10.4263 23.7783 10.7592 23.5526C11.494 23.059 12.0568 22.3488 12.3695 21.5206C12.3958 21.4384 12.4051 21.3516 12.3968 21.2657C12.3885 21.1798 12.3627 21.0964 12.3211 21.0207C12.2795 20.9451 12.2228 20.8787 12.1547 20.8257C12.0866 20.7726 12.0083 20.734 11.9248 20.7122C10.4917 20.3388 9.342 20.4522 8.4942 20.7054C8.6392 20.4036 8.78866 20.1039 8.94716 19.8106C8.98818 19.7371 9.01418 19.6562 9.02365 19.5725C9.03313 19.4889 9.02589 19.4042 9.00235 19.3234C8.97881 19.2425 8.93945 19.1672 8.88655 19.1017C8.83365 19.0363 8.76826 18.982 8.69419 18.942C8.62012 18.902 8.53884 18.8771 8.45508 18.8688C8.37131 18.8605 8.28674 18.8689 8.20626 18.8936C8.12577 18.9183 8.051 18.9587 7.98627 19.0125C7.92154 19.0663 7.86815 19.1324 7.8292 19.207C7.61066 19.6116 7.40483 20.0255 7.21074 20.4449C6.72316 19.6552 5.86424 18.7253 4.35557 18.0475ZM10.7921 21.7849C10.5855 22.0637 10.3336 22.3057 10.0467 22.5007C9.86377 22.6248 9.65646 22.7082 9.43864 22.7456C9.22082 22.783 8.99753 22.7733 8.78373 22.7174C8.49806 22.6445 8.24104 22.487 8.04631 22.2657C8.532 21.9834 9.44984 21.6185 10.7921 21.7849ZM5.59853 21.5967C5.39191 21.5058 5.20709 21.3718 5.05644 21.2037C4.90579 21.0355 4.79279 20.8372 4.725 20.6218C4.62056 20.2916 4.57125 19.9464 4.57904 19.6001C5.72829 20.3126 6.22381 21.1753 6.4314 21.7022C6.1494 21.7502 5.85966 21.7135 5.59853 21.5967Z" fill="#3D3C4C"/>
<path d="M9.22535 18.0424C9.43338 18.6529 9.848 19.1715 10.3976 19.5088C10.7393 19.7184 11.1218 19.8526 11.5195 19.9026C11.9172 19.9526 12.321 19.9173 12.7039 19.7989C13.5492 19.5408 14.2924 19.0242 14.8288 18.3218C14.8775 18.2508 14.9112 18.1706 14.9279 18.0861C14.9446 18.0016 14.944 17.9146 14.926 17.8304C14.9081 17.7462 14.8732 17.6665 14.8235 17.5961C14.7738 17.5258 14.7103 17.4663 14.6369 17.4213C12.8135 16.3025 11.2635 16.324 10.3382 16.5072C10.2259 15.5648 9.76932 14.0672 8.15107 12.6583C8.08525 12.601 8.00832 12.5579 7.9251 12.5316C7.84187 12.5054 7.75413 12.4965 7.66734 12.5057C7.58056 12.5148 7.49659 12.5418 7.42067 12.5848C7.34475 12.6278 7.27851 12.6861 7.22608 12.7558C6.73137 13.4918 6.47676 14.3628 6.49724 15.2494C6.50402 15.657 6.59743 16.0586 6.77129 16.4274C6.94514 16.7962 7.19545 17.1238 7.50561 17.3884C7.98622 17.7983 8.59381 18.0294 9.22535 18.0424ZM13.2458 18.1191C12.9684 18.3251 12.6581 18.4827 12.3281 18.5851C12.1177 18.65 11.8959 18.6693 11.6774 18.6417C11.459 18.6142 11.2489 18.5404 11.0612 18.4254C10.8058 18.2713 10.6028 18.044 10.4785 17.7729C11.025 17.6454 12.0092 17.566 13.2457 18.1195L13.2458 18.1191ZM7.91776 14.2114C8.8132 15.2279 9.04239 16.1977 9.09115 16.7636C8.80907 16.726 8.54411 16.6069 8.32879 16.4208C8.15594 16.273 8.01649 16.09 7.91967 15.8842C7.82286 15.6783 7.77088 15.4543 7.76719 15.2268C7.76167 14.8824 7.81253 14.5394 7.91776 14.2114Z" fill="#3D3C4C"/>
<path d="M40.8601 46.9769C41.243 46.6571 41.6165 46.3257 41.976 45.9817C42.0977 45.8652 42.1682 45.7051 42.172 45.5367C42.1757 45.3682 42.1124 45.2051 41.9959 45.0833C41.8794 44.9616 41.7193 44.8911 41.5508 44.8873C41.3823 44.8836 41.2193 44.9469 41.0975 45.0634C40.8304 45.319 40.5535 45.5655 40.2724 45.8072C40.2703 44.9149 40.0501 43.7703 39.2877 42.4898C39.2431 42.4149 39.1835 42.3499 39.1127 42.2989C39.0418 42.248 38.9613 42.2122 38.876 42.1938C38.7907 42.1754 38.7026 42.1747 38.617 42.1918C38.5315 42.209 38.4504 42.2435 38.3788 42.2934C37.6798 42.8375 37.1677 43.5857 36.9135 44.4342C36.7942 44.824 36.7588 45.2347 36.8096 45.6393C36.8605 46.0438 36.9964 46.433 37.2084 46.7813C37.538 47.3224 38.0441 47.7333 38.6415 47.9448C38.6494 48.5926 38.8828 49.2174 39.3017 49.7117C39.5606 50.0176 39.8814 50.2652 40.2431 50.438C40.6047 50.6108 40.9989 50.7048 41.3996 50.714C41.4301 50.714 41.4603 50.714 41.4904 50.714C42.3421 50.7181 43.1748 50.4624 43.8775 49.9812C43.946 49.929 44.0031 49.8634 44.0454 49.7884C44.0877 49.7134 44.1143 49.6306 44.1236 49.545C44.1329 49.4594 44.1247 49.3728 44.0995 49.2905C44.0744 49.2082 44.0327 49.1318 43.9771 49.0661C42.8935 47.7856 41.7533 47.2198 40.8601 46.9769ZM38.1283 44.806C38.2287 44.4792 38.3819 44.171 38.5819 43.8937C39.1182 45.1411 39.038 46.1331 38.91 46.6877C38.6539 46.5619 38.4397 46.3646 38.2932 46.1198C38.1746 45.9247 38.0987 45.7069 38.0704 45.4804C38.0421 45.254 38.0621 45.0241 38.1289 44.806H38.1283ZM41.4259 49.4436C41.2051 49.4384 40.9879 49.3863 40.7886 49.2908C40.5894 49.1954 40.4127 49.0588 40.2702 48.8899C40.075 48.6631 39.9519 48.3831 39.9168 48.0858C40.4771 48.1387 41.4352 48.3773 42.4364 49.2929C42.1109 49.4005 41.7693 49.4516 41.4266 49.4439L41.4259 49.4436Z" fill="#3D3C4C"/>
<path d="M48.2241 44.1192C46.8957 43.1143 45.667 42.813 44.7441 42.7714C45.087 42.2878 45.4128 41.7917 45.7147 41.2844C45.759 41.2126 45.7886 41.1328 45.8018 41.0495C45.8149 40.9663 45.8114 40.8812 45.7913 40.7993C45.7712 40.7174 45.7351 40.6403 45.685 40.5726C45.6348 40.5048 45.5717 40.4477 45.4992 40.4045C45.4268 40.3614 45.3465 40.3331 45.263 40.3214C45.1795 40.3096 45.0945 40.3145 45.013 40.3359C44.9314 40.3573 44.855 40.3947 44.788 40.446C44.7211 40.4973 44.665 40.5613 44.6231 40.6345C44.3963 41.0156 44.1542 41.3889 43.9027 41.7561C43.6272 40.6178 43.0467 39.5761 42.2236 38.743C42.1642 38.6802 42.0926 38.6302 42.0132 38.596C41.9338 38.5618 41.8483 38.5442 41.7619 38.5442H41.7566C41.6693 38.5449 41.5831 38.5636 41.5034 38.5992C41.4237 38.6347 41.3521 38.6863 41.2932 38.7507C40.7302 39.4355 40.3934 40.278 40.3293 41.1622C40.2971 41.5688 40.3517 41.9776 40.4894 42.3615C40.6271 42.7454 40.8448 43.0957 41.128 43.3891C41.5669 43.8442 42.1496 44.1337 42.7774 44.2085C42.926 44.837 43.2892 45.394 43.8045 45.7834C44.1241 46.025 44.4915 46.1957 44.8823 46.2842C45.2731 46.3727 45.6782 46.3769 46.0708 46.2965C46.9367 46.1224 47.7262 45.6808 48.3278 45.034C48.3831 44.968 48.4244 44.8915 48.4492 44.8091C48.474 44.7266 48.4818 44.64 48.4721 44.5545C48.4624 44.4689 48.4354 44.3862 48.3928 44.3114C48.3501 44.2367 48.2927 44.1713 48.2241 44.1194V44.1192ZM41.5959 41.2604C41.6231 40.9179 41.7061 40.5821 41.8418 40.2665C42.6359 41.3657 42.7712 42.3526 42.7658 42.9206C42.489 42.8554 42.2372 42.711 42.0412 42.5049C41.8832 42.3409 41.7618 42.1453 41.6851 41.9309C41.6083 41.7165 41.5779 41.4882 41.5959 41.2612V41.2604ZM45.8154 45.051C45.5995 45.0949 45.3768 45.0923 45.162 45.0435C44.9472 44.9947 44.7453 44.9008 44.5696 44.768C44.3296 44.5896 44.149 44.3432 44.051 44.0608C44.6069 43.9872 45.5951 44.006 46.772 44.6778C46.4765 44.8555 46.153 44.982 45.8154 45.0518V45.051Z" fill="#3D3C4C"/>
<path d="M51.2527 37.885C49.7011 37.2413 48.4256 37.2672 47.5203 37.4662C47.6928 36.989 47.8486 36.5072 47.9877 36.0209C48.0107 35.9407 48.0176 35.8567 48.0081 35.7738C47.9986 35.6909 47.9728 35.6107 47.9323 35.5378C47.8918 35.4648 47.8374 35.4006 47.772 35.3487C47.7067 35.2968 47.6318 35.2583 47.5515 35.2353C47.4713 35.2124 47.3873 35.2055 47.3044 35.215C47.2215 35.2245 47.1413 35.2502 47.0684 35.2907C46.9954 35.3312 46.9312 35.3857 46.8793 35.451C46.8274 35.5164 46.7888 35.5913 46.7659 35.6715C46.673 35.9971 46.5688 36.3206 46.4595 36.6429C45.9106 35.6328 45.1003 34.7888 44.1134 34.1992C44.0395 34.1529 43.9568 34.1223 43.8706 34.1094C43.7844 34.0964 43.6964 34.1013 43.6121 34.1238C43.5279 34.1463 43.4491 34.186 43.3809 34.2402C43.3126 34.2945 43.2562 34.3622 43.2152 34.4392C42.8401 35.243 42.7226 36.1431 42.8787 37.0163C42.948 37.4176 43.1019 37.7996 43.3304 38.1368C43.5589 38.474 43.8565 38.7586 44.2036 38.9717C44.634 39.2359 45.1291 39.376 45.6341 39.3766C45.7582 39.3762 45.882 39.3673 46.0048 39.35C46.3039 39.9185 46.7921 40.3647 47.3852 40.6116C47.7559 40.7657 48.1554 40.8388 48.5567 40.8259C48.958 40.8131 49.3519 40.7146 49.7121 40.5371C50.507 40.1494 51.1611 39.523 51.5827 38.7455C51.6199 38.6677 51.6408 38.5832 51.6442 38.497C51.6476 38.4109 51.6335 38.3249 51.6026 38.2444C51.5717 38.1639 51.5248 38.0906 51.4647 38.0288C51.4045 37.967 51.3323 37.9181 51.2527 37.885ZM44.868 37.8879C44.6749 37.7691 44.5094 37.6106 44.3824 37.4228C44.2555 37.235 44.17 37.0223 44.1318 36.7988C44.0732 36.4584 44.0708 36.1106 44.1247 35.7694C45.1664 36.6337 45.5407 37.5563 45.6753 38.1069C45.3906 38.1141 45.11 38.0379 44.868 37.8879ZM49.1513 39.3967C48.9535 39.4941 48.7371 39.5482 48.5167 39.5552C48.2963 39.5622 48.077 39.522 47.8734 39.4374C47.5986 39.3255 47.3641 39.1332 47.2004 38.8858C47.7204 38.6733 48.6807 38.4398 49.9859 38.7905C49.7437 39.0384 49.4614 39.2436 49.1508 39.3974L49.1513 39.3967Z" fill="#3D3C4C"/>
<path d="M52.52 31.6009C50.835 31.3112 49.5805 31.636 48.74 32.041C48.7997 31.4273 48.837 30.8101 48.8466 30.194C48.8478 30.1106 48.8326 30.0277 48.8019 29.9502C48.7711 29.8726 48.7254 29.8019 48.6673 29.742C48.6091 29.6821 48.5398 29.6343 48.4632 29.6012C48.3866 29.5681 48.3042 29.5504 48.2208 29.5492H48.2111C48.0443 29.5492 47.8841 29.6148 47.7653 29.7318C47.6464 29.8489 47.5784 30.008 47.5758 30.1748C47.5696 30.5779 47.5485 30.9813 47.5196 31.3841C46.7712 30.5538 45.8188 29.9336 44.7569 29.5849C44.6747 29.5561 44.5876 29.5445 44.5007 29.5507C44.4139 29.557 44.3293 29.581 44.2522 29.6213C44.175 29.6616 44.107 29.7174 44.0523 29.7851C43.9976 29.8528 43.9574 29.931 43.9342 30.0149C43.7421 30.8808 43.8222 31.785 44.1635 32.6037C44.3176 32.9795 44.5502 33.3179 44.8457 33.5965C45.1412 33.8751 45.4928 34.0873 45.877 34.2189C46.1627 34.3165 46.4625 34.3664 46.7644 34.3665C47.091 34.3664 47.4149 34.3072 47.7205 34.1918C48.1345 34.6786 48.7055 35.0055 49.3349 35.1161C49.7316 35.1854 50.1384 35.169 50.5281 35.0679C50.9179 34.9669 51.2814 34.7835 51.5944 34.5302C52.2855 33.9765 52.7874 33.2217 53.0306 32.3702C53.0501 32.286 53.0521 32.1987 53.0367 32.1137C53.0212 32.0286 52.9886 31.9476 52.9407 31.8756C52.8929 31.8036 52.8308 31.7422 52.7584 31.695C52.686 31.6478 52.6047 31.6159 52.5195 31.6012L52.52 31.6009ZM46.2878 33.0166C46.0749 32.9434 45.8802 32.8256 45.7165 32.671C45.5529 32.5164 45.4243 32.3286 45.3391 32.1202C45.2076 31.7993 45.1299 31.4589 45.1093 31.1127C46.3141 31.7257 46.8789 32.5441 47.1286 33.0513C46.8511 33.1233 46.5584 33.1112 46.2878 33.0166ZM50.7968 33.5408C50.6246 33.68 50.4247 33.7808 50.2104 33.8365C49.9961 33.8922 49.7724 33.9014 49.5543 33.8636C49.2644 33.8149 48.9959 33.6799 48.784 33.4763C49.2446 33.1539 50.1286 32.7123 51.4807 32.7644C51.2978 33.0598 51.0666 33.3224 50.7968 33.5412V33.5408Z" fill="#3D3C4C"/>
<path d="M43.4627 25.2656C43.402 25.3275 43.3547 25.4012 43.3236 25.4821C43.2925 25.563 43.2782 25.6494 43.2818 25.736C43.3635 26.6184 43.7166 27.4539 44.2924 28.1276C44.5533 28.4359 44.8771 28.6849 45.2422 28.8577C45.6073 29.0306 46.0051 29.1233 46.409 29.1296H46.4498C47.0719 29.129 47.6752 28.9161 48.1599 28.526C48.5884 28.789 49.0813 28.9283 49.5841 28.9285C49.7134 28.9285 49.8427 28.9194 49.9708 28.9013C50.3716 28.844 50.7555 28.7016 51.0967 28.4837C51.438 28.2658 51.7287 27.9774 51.9493 27.6379C52.4363 26.897 52.6824 26.0236 52.6538 25.1374C52.6465 25.0509 52.6215 24.9668 52.5805 24.8903C52.5394 24.8138 52.4831 24.7465 52.415 24.6927C52.3469 24.6388 52.2685 24.5994 52.1847 24.577C52.1008 24.5546 52.0132 24.5497 51.9273 24.5624C50.2915 24.8056 49.2162 25.4698 48.5368 26.0992C48.4496 25.5802 48.3452 25.0645 48.2225 24.5561C48.2029 24.475 48.1675 24.3985 48.1184 24.3311C48.0693 24.2637 48.0074 24.2066 47.9362 24.163C47.865 24.1195 47.7859 24.0905 47.7035 24.0775C47.6211 24.0646 47.5369 24.068 47.4558 24.0876C47.3747 24.1071 47.2983 24.1425 47.2308 24.1916C47.1634 24.2407 47.1063 24.3027 47.0628 24.3738C47.0193 24.445 46.9902 24.5241 46.9773 24.6065C46.9643 24.6889 46.9677 24.7731 46.9873 24.8542C47.078 25.23 47.1558 25.6107 47.2255 25.9931C46.4765 25.5214 45.4024 25.1037 43.9288 25.0739C43.8421 25.0716 43.7558 25.0875 43.6755 25.1206C43.5953 25.1536 43.5228 25.2029 43.4627 25.2656ZM51.2971 25.9961C51.2131 26.3333 51.0736 26.6541 50.8842 26.9454C50.7625 27.133 50.6021 27.2925 50.4138 27.413C50.2254 27.5335 50.0134 27.6124 49.7921 27.6443C49.506 27.6866 49.2138 27.6424 48.9531 27.5172C49.2926 27.0671 49.9991 26.3699 51.2971 25.9961ZM47.2487 27.6261C47.0056 27.7865 46.7189 27.868 46.4278 27.8593C46.2051 27.8556 45.9858 27.8043 45.7847 27.7089C45.5835 27.6134 45.405 27.4761 45.2614 27.306C45.0371 27.0404 44.8587 26.7393 44.7334 26.4151C46.0688 26.6202 46.8564 27.2223 47.2487 27.6261Z" fill="#3D3C4C"/>
<path d="M50.1506 18.0415C50.0703 18.0076 49.9839 17.9907 49.8967 17.9917C49.8096 17.9928 49.7236 18.0118 49.6441 18.0475C48.1353 18.7249 47.2765 19.6553 46.7894 20.4458C46.5953 20.0263 46.3895 19.6124 46.171 19.2079C46.132 19.1333 46.0786 19.0671 46.0139 19.0133C45.9492 18.9595 45.8744 18.9191 45.7939 18.8944C45.7134 18.8698 45.6288 18.8614 45.5451 18.8697C45.4613 18.878 45.38 18.9028 45.306 18.9428C45.2319 18.9828 45.1665 19.0371 45.1136 19.1026C45.0607 19.1681 45.0214 19.2434 44.9978 19.3242C44.9743 19.405 44.967 19.4897 44.9765 19.5734C44.986 19.657 45.012 19.7379 45.053 19.8114C45.2118 20.1049 45.3611 20.4045 45.5061 20.7066C44.658 20.4534 43.5083 20.3398 42.0755 20.7131C41.992 20.7349 41.9137 20.7735 41.8456 20.8265C41.7775 20.8796 41.7209 20.9459 41.6792 21.0216C41.6376 21.0973 41.6119 21.1806 41.6035 21.2666C41.5952 21.3525 41.6045 21.4392 41.6308 21.5215C41.9436 22.3495 42.5064 23.0596 43.2411 23.5532C43.574 23.7789 43.9513 23.9307 44.3476 23.9987C44.744 24.0666 45.1503 24.0489 45.5393 23.9469C46.1593 23.7835 46.7026 23.4084 47.0751 22.8866C47.3143 22.9556 47.5618 22.9914 47.8107 22.9927C48.1894 22.9924 48.5639 22.9138 48.9108 22.7619C49.2832 22.5984 49.6163 22.3574 49.888 22.0548C50.1597 21.7522 50.3636 21.3951 50.4862 21.0074C50.7588 20.1632 50.764 19.2553 50.501 18.4081C50.4709 18.3262 50.4242 18.2514 50.3639 18.1883C50.3037 18.1252 50.231 18.0753 50.1506 18.0415ZM45.216 22.7174C45.0022 22.7734 44.7789 22.783 44.5611 22.7456C44.3432 22.7083 44.1359 22.6248 43.953 22.5008C43.6661 22.3057 43.414 22.0637 43.2075 21.785C44.5491 21.6184 45.4675 21.9835 45.9532 22.2657C45.7586 22.4871 45.5016 22.6445 45.216 22.7174ZM49.2747 20.6219C49.2069 20.8372 49.0939 21.0356 48.9432 21.2037C48.7926 21.3718 48.6078 21.5058 48.4012 21.5968C48.1398 21.7137 47.8496 21.7503 47.5673 21.7021C47.7738 21.1779 48.269 20.3136 49.4203 19.6002C49.4283 19.9465 49.3791 20.2917 49.2747 20.6219Z" fill="#3D3C4C"/>
<path d="M46.3323 12.5051C46.2455 12.4958 46.1577 12.5045 46.0744 12.5308C45.9911 12.557 45.9142 12.6003 45.8485 12.6577C44.2304 14.0671 43.7736 15.5642 43.6613 16.5076C42.736 16.3242 41.1861 16.3027 39.3626 17.4216C39.2892 17.4667 39.2257 17.5262 39.176 17.5965C39.1263 17.6668 39.0915 17.7465 39.0735 17.8307C39.0556 17.915 39.0549 18.002 39.0717 18.0864C39.0884 18.1709 39.1221 18.2511 39.1708 18.3222C39.7072 19.0245 40.4503 19.5411 41.2955 19.7992C41.6785 19.9176 42.0823 19.953 42.48 19.903C42.8777 19.853 43.2602 19.7187 43.6019 19.5092C44.1516 19.1719 44.5662 18.6532 44.7742 18.0428C45.4058 18.0295 46.0134 17.7983 46.494 17.3883C46.8041 17.1236 47.0544 16.796 47.2283 16.4272C47.4021 16.0585 47.4955 15.6569 47.5023 15.2492C47.5228 14.3627 47.2682 13.4916 46.7735 12.7557C46.7211 12.6859 46.6549 12.6276 46.579 12.5844C46.5031 12.5413 46.4191 12.5143 46.3323 12.5051ZM42.9384 18.4255C42.7506 18.5406 42.5405 18.6144 42.322 18.6419C42.1036 18.6695 41.8817 18.6502 41.6713 18.5853C41.3417 18.4827 41.0318 18.325 40.7549 18.1189C41.9908 17.5663 42.9743 17.6456 43.5209 17.7731C43.3967 18.0442 43.1937 18.2715 42.9384 18.4255ZM45.6701 16.4207C45.4549 16.6069 45.1899 16.7261 44.9078 16.7636C44.9565 16.1974 45.1859 15.2275 46.0818 14.2105C46.1868 14.5389 46.2374 14.8823 46.2314 15.227C46.2278 15.4544 46.1759 15.6783 46.0792 15.8841C45.9825 16.0899 45.8431 16.2728 45.6705 16.4207H45.6701Z" fill="#3D3C4C"/>
</g>
<defs>
<clipPath id="clip0_1007_3830">
<rect width="54" height="54" fill="white"/>
</clipPath>
</defs>
</svg>
