<svg xmlns="http://www.w3.org/2000/svg" width="14.085" height="9.798"><path d="M.769 0h12.547a.775.775 0 0 1 .769.774v8.25a.776.776 0 0 1-.774.774H.769A.776.776 0 0 1 0 9.024V.774A.775.775 0 0 1 .769 0Z" fill="#f93"/><path d="M0 3.266h14.085v3.267H0Z" fill="#fff"/><path d="M0 6.532h14.085v2.492a.776.776 0 0 1-.774.774H.769A.776.776 0 0 1 0 9.024V6.532Z" fill="#128807"/><path d="M8.349 4.899a1.307 1.307 0 1 0-1.307 1.307 1.306 1.306 0 0 0 1.307-1.307Z" fill="#008"/><path d="M8.186 4.899a1.143 1.143 0 1 0-1.143 1.143 1.142 1.142 0 0 0 1.143-1.143Z" fill="#fff"/><path d="M7.27 4.899a.228.228 0 1 0-.228.228.229.229 0 0 0 .228-.228ZM8.232 5.056a.057.057 0 1 0-.064.049.058.058 0 0 0 .064-.049Z" fill="#008"/><path d="m7.042 6.042.039-.685-.039-.327-.039.327Z" fill="#008"/><path d="M8.151 5.359a.057.057 0 1 0-.075.031.057.057 0 0 0 .075-.031ZM6.747 6.003l.215-.652.047-.326-.122.306ZM7.995 5.63a.057.057 0 1 0-.08.01.058.058 0 0 0 .08-.01ZM6.47 5.889l.377-.574.13-.3-.2.262ZM7.775 5.851a.057.057 0 1 0-.08-.01.058.058 0 0 0 .08.01ZM6.234 5.707l.512-.457.2-.258-.258.2ZM7.502 6.009a.057.057 0 1 0-.075-.031.057.057 0 0 0 .075.031ZM6.052 5.471l.614-.309.262-.2-.3.13ZM7.199 6.089a.057.057 0 1 0-.064-.049.056.056 0 0 0 .064.049ZM5.939 5.193l.673-.14.3-.121-.326.046ZM6.886 6.089a.057.057 0 1 0-.049-.064.058.058 0 0 0 .049.064ZM5.9 4.899l.685.039.327-.039-.327-.039ZM6.583 6.009a.057.057 0 0 0 .075-.031.058.058 0 0 0-.031-.075.057.057 0 0 0-.075.031.058.058 0 0 0 .031.075ZM5.939 4.603l.652.215.326.047-.3-.123ZM6.312 5.851a.057.057 0 1 0-.01-.08.059.059 0 0 0 .01.08ZM6.052 4.327l.574.377.3.13-.262-.2ZM6.089 5.63a.057.057 0 1 0 .01-.08.058.058 0 0 0-.01.08ZM6.234 4.091l.457.512.258.2-.2-.259ZM5.933 5.359a.057.057 0 1 0 .031-.075.057.057 0 0 0-.031.075ZM6.47 3.909l.309.614.2.262-.13-.3ZM5.852 5.056a.057.057 0 1 0 .049-.064.056.056 0 0 0-.049.064ZM6.747 3.795l.14.673.123.3-.047-.326ZM5.852 4.742a.057.057 0 1 0 .064-.049.058.058 0 0 0-.064.049ZM7.042 3.756l-.039.685.039.327.039-.327ZM5.934 4.44a.057.057 0 0 0 .031.075.058.058 0 0 0 .075-.031.057.057 0 0 0-.105-.044ZM7.338 3.795l-.215.652-.047.326.123-.3ZM6.09 4.172a.057.057 0 1 0 .08-.01.057.057 0 0 0-.08.01ZM7.615 3.909l-.377.575-.13.3.2-.262ZM6.315 3.947a.057.057 0 1 0 .08.01.058.058 0 0 0-.08-.01ZM7.85 4.091l-.512.457-.2.259.258-.2ZM6.583 3.791a.058.058 0 0 0-.031.075.057.057 0 0 0 .105-.044.056.056 0 0 0-.075-.031ZM8.033 4.327l-.614.309-.262.2.3-.13ZM6.886 3.709a.057.057 0 1 0 .015.113.058.058 0 0 0 .049-.064.056.056 0 0 0-.064-.049ZM8.146 4.603l-.673.14-.3.123.326-.047ZM7.2 3.709a.057.057 0 1 0 .049.064.058.058 0 0 0-.049-.064ZM8.185 4.899 7.5 4.86l-.327.039.327.039ZM7.502 3.79a.057.057 0 1 0-.044.105.057.057 0 0 0 .044-.105ZM8.146 5.193l-.652-.215-.326-.046.3.121ZM7.775 3.947a.057.057 0 1 0 .01.08.057.057 0 0 0-.01-.08ZM8.033 5.471l-.574-.377-.3-.13.262.2ZM7.995 4.172a.057.057 0 1 0-.01.08.058.058 0 0 0 .01-.08ZM7.85 5.707l-.457-.512-.258-.2.2.258ZM8.152 4.439a.057.057 0 1 0-.105.044.058.058 0 0 0 .075.031.057.057 0 0 0 .031-.075ZM7.615 5.889l-.309-.614-.2-.262.13.3ZM8.232 4.742a.057.057 0 1 0-.049.064.056.056 0 0 0 .049-.064ZM7.338 6.003l-.14-.672-.123-.306.047.326Z"/></svg>