<svg width="54" height="54" viewBox="0 0 54 54" fill="none" xmlns="http://www.w3.org/2000/svg">
<path d="M17.0837 41.7291C16.9143 40.1995 16.8123 37.9442 16.0196 36.6249C15.087 35.0948 13.9038 33.7325 12.5193 32.595L10.9034 32.4565L9.2877 32.595C8.05112 34.0653 6.96912 35.659 6.05882 37.3508C5.34382 38.7139 4.89086 40.199 4.72343 41.7291C4.46137 44.0966 4.03906 48.5122 4.03906 52.4118H17.7684C17.7684 48.5122 17.3463 44.0966 17.0837 41.7291Z" fill="#BFD6EF"/>
<path d="M8.15137 34.041C9.33238 35.2163 11.7327 36.7901 15.9834 36.5649C15.0564 35.059 13.8861 33.7172 12.52 32.5943L10.9041 32.4558L9.28838 32.5943C9.28838 32.5943 8.80763 33.1464 8.15137 34.041Z" fill="#72A6CE"/>
<path d="M10.9038 29.4268H9.28809V32.595C9.28807 32.8417 9.34355 33.0853 9.45041 33.3077C9.55727 33.53 9.71279 33.7255 9.90543 33.8797L9.98484 33.9432C10.2455 34.1518 10.5695 34.2654 10.9033 34.2654C11.2372 34.2654 11.5611 34.1518 11.8218 33.9432L11.9012 33.8797C12.0939 33.7256 12.2494 33.5301 12.3563 33.3077C12.4632 33.0853 12.5187 32.8417 12.5187 32.595V29.4268H10.9038Z" fill="#FFD6BB"/>
<path d="M12.5193 49.0401L11.7887 37.7171C11.7742 37.4921 11.6746 37.2811 11.5101 37.1269C11.3456 36.9727 11.1286 36.8869 10.9031 36.887C10.6777 36.8869 10.4607 36.9727 10.2962 37.1269C10.1318 37.2811 10.0322 37.4922 10.0177 37.7171L9.28711 49.0401L10.9028 50.3862L12.5193 49.0401Z" fill="#CCCCCC"/>
<path d="M7.00049 35.7273C6.68157 36.2325 6.36027 36.7787 6.05914 37.3508C5.34414 38.7139 4.89118 40.199 4.72375 41.7291C4.46137 44.0965 4.03906 48.5121 4.03906 52.4117H7.00906C7.00033 47.7977 6.98651 38.9297 7.00049 35.7273Z" fill="#728DC1"/>
<path d="M9.36035 49.0401L10.0909 37.7171C10.1055 37.4921 10.2051 37.2811 10.3696 37.1269C10.5341 36.9727 10.7511 36.8869 10.9765 36.887C11.202 36.8869 11.419 36.9727 11.5834 37.1269C11.7479 37.2811 11.8475 37.4922 11.862 37.7171L12.5926 49.0401L10.9769 50.3862L9.36035 49.0401Z" fill="#6F6F7F"/>
<path d="M26.8629 40.5879L25.9294 36.8873L19.759 40.0177L14.5342 34.5742C14.5474 37.869 14.8801 47.8519 14.8715 52.4114H17.7686C17.7686 49.1307 17.5865 46.3016 17.7686 43.6418L18.4911 44.2402C18.8812 44.5633 19.3656 44.751 19.8716 44.7749C20.3775 44.7989 20.8776 44.6578 21.2964 44.373L26.8629 40.5879Z" fill="#728DC1"/>
<path d="M25.9297 36.8871L29.2982 35.1858V38.9467L26.8631 40.588L25.9297 36.8871Z" fill="#F4A28C"/>
<path d="M32.5942 46.5568C31.5862 46.5556 30.6198 46.1547 29.907 45.4419C29.1941 44.7291 28.7932 43.7627 28.792 42.7547V11.9C28.792 11.6262 28.9008 11.3636 29.0944 11.17C29.288 10.9764 29.5505 10.8677 29.8243 10.8677C30.0981 10.8677 30.3607 10.9764 30.5543 11.17C30.7479 11.3636 30.8567 11.6262 30.8567 11.9V42.7553C30.8611 43.2132 31.0461 43.6509 31.3714 43.9732C31.6968 44.2954 32.1362 44.4762 32.5941 44.4762C33.0521 44.4762 33.4915 44.2954 33.8169 43.9732C34.1422 43.6509 34.3272 43.2132 34.3316 42.7553V41.4916C34.3316 41.2178 34.4404 40.9552 34.634 40.7616C34.8276 40.568 35.0902 40.4592 35.364 40.4592C35.6377 40.4592 35.9003 40.568 36.0939 40.7616C36.2875 40.9552 36.3963 41.2178 36.3963 41.4916V42.7553C36.395 43.7632 35.994 44.7295 35.2812 45.4421C34.5685 46.1548 33.6021 46.5556 32.5942 46.5568Z" fill="#6F6F7F"/>
<path d="M29.8244 1.58813C29.8244 1.58813 17.115 2.15021 9.6875 12.4661C9.6875 12.4661 15.0519 12.3424 18.972 15.3959C18.972 15.3959 22.5614 12.6567 29.8244 12.6567C37.0874 12.6567 40.6768 15.3959 40.6768 15.3959C44.5969 12.3424 49.9612 12.4661 49.9612 12.4661C42.5333 2.15021 29.8244 1.58813 29.8244 1.58813Z" fill="#FFDC6C"/>
<path d="M35.8666 2.75586C34.839 4.95017 32.2092 9.55351 27.0889 12.7935C27.9976 12.7014 28.9105 12.6556 29.824 12.6563C37.0863 12.6563 40.6764 15.3955 40.6764 15.3955C44.5965 12.342 49.9607 12.4657 49.9607 12.4657C45.8631 6.77505 40.1585 4.05313 35.8666 2.75586Z" fill="#FCA742"/>
<path d="M29.8241 1.58813C22.1902 5.68864 18.9717 15.3963 18.9717 15.3963C18.9717 15.3963 22.5611 13.2505 29.8241 13.2505C37.0871 13.2505 40.6765 15.3963 40.6765 15.3963C40.6765 15.3963 37.4579 5.68832 29.8241 1.58813Z" fill="white"/>
<path d="M12.5197 32.7717V29.4268H9.28809V32.2093C10.3133 32.6234 11.4148 32.8151 12.5197 32.7717Z" fill="#F4A28C"/>
<path d="M10.9042 23.8013H6.22967C5.92074 23.0556 5.54675 22.3386 5.11202 21.6585C4.50525 20.7342 4.22324 19.6343 4.31044 18.532C4.41257 17.2284 4.76468 15.5514 5.77543 14.1268C5.80839 14.0811 5.8514 14.0437 5.90113 14.0173C5.95087 13.991 6.00599 13.9764 6.06225 13.9748C6.11851 13.9731 6.17439 13.9844 6.22559 14.0078C6.27679 14.0312 6.32193 14.066 6.35752 14.1096L7.87508 15.9597C7.89884 15.989 7.92897 16.0125 7.96318 16.0284C7.99739 16.0443 8.03477 16.0522 8.07249 16.0515C8.11021 16.0508 8.14726 16.0415 8.18084 16.0243C8.21442 16.0071 8.24363 15.9825 8.26626 15.9523C8.55452 15.566 9.16822 14.8554 9.98282 14.531C10.0281 14.5136 10.0764 14.5053 10.125 14.5066C10.1735 14.508 10.2212 14.5189 10.2655 14.5387C10.3098 14.5586 10.3497 14.587 10.383 14.6224C10.4162 14.6577 10.4422 14.6993 10.4593 14.7447C10.8648 15.7319 11.6029 16.5461 12.5456 17.0462C12.8725 17.2238 13.2158 17.3694 13.5706 17.4811C14.076 17.6468 15.2318 18.1018 16.0721 19.0141C16.4912 19.4683 16.7711 20.0331 16.8787 20.6417C16.9863 21.2502 16.9171 21.8768 16.6793 22.4472C16.462 22.9844 16.0754 23.4361 15.5782 23.7337L10.9042 23.8013Z" fill="#6F6F7F"/>
<path d="M9.8089 20.6194C9.48666 20.8607 9.09763 20.9964 8.69522 21.0078C8.29281 21.0191 7.89674 20.9057 7.56139 20.683L7.40097 20.5764C7.28732 20.501 7.15535 20.4578 7.01911 20.4514C6.88287 20.4451 6.74745 20.4758 6.62726 20.5402C6.50708 20.6047 6.40662 20.7006 6.33657 20.8176C6.26653 20.9346 6.22952 21.0685 6.22949 21.2049V26.6538C6.22947 27.2677 6.35037 27.8755 6.58527 28.4427C6.82018 29.0098 7.16449 29.5252 7.59856 29.9593C8.03263 30.3933 8.54795 30.7377 9.1151 30.9726C9.68224 31.2075 10.2901 31.3284 10.904 31.3284C11.5179 31.3285 12.1258 31.2076 12.6929 30.9726C13.2601 30.7377 13.7754 30.3934 14.2095 29.9593C14.6436 29.5252 14.9879 29.0099 15.2228 28.4427C15.4578 27.8756 15.5787 27.2677 15.5786 26.6538V23.7338C15.5785 23.228 15.4356 22.7326 15.1662 22.3045C14.8969 21.8764 14.5121 21.5331 14.0562 21.3141L12.1371 20.3922C11.7653 20.2135 11.3517 20.1403 10.9412 20.1803C10.5307 20.2204 10.1391 20.3723 9.8089 20.6194Z" fill="#FFD6BB"/>
<path d="M8.45592 26.8103C8.44022 27.1981 8.5262 27.5832 8.70531 27.9275C8.88443 28.2717 9.15046 28.5632 9.477 28.7729C9.90066 29.0521 10.3969 29.2009 10.9043 29.2009C11.4116 29.2009 11.9079 29.0521 12.3315 28.7729C12.658 28.5632 12.924 28.2717 13.1031 27.9274C13.2822 27.5832 13.3682 27.198 13.3525 26.8103H8.45592Z" fill="#FF7676"/>
<path d="M14.5583 36.4086C15.1201 36.4262 15.6825 36.4076 16.2419 36.3529L14.5342 34.5742C14.5361 35.0553 14.5448 35.6799 14.5583 36.4086Z" fill="#5671A8"/>
<path d="M34.5132 5.23413C32.9202 7.78801 30.2029 11.1212 25.9463 13.4698C27.2334 13.3212 28.5281 13.2479 29.8238 13.2503C37.0862 13.2503 40.6762 15.396 40.6762 15.396C40.6762 15.396 38.7992 9.73582 34.5132 5.23413Z" fill="#E6E6E6"/>
<path d="M31.2762 34.5742H30.1568C29.3534 34.5742 28.7021 35.2255 28.7021 36.0289V38.5257C28.7021 39.3291 29.3534 39.9804 30.1568 39.9804H31.2762C32.0796 39.9804 32.7309 39.3291 32.7309 38.5257V36.0289C32.7309 35.2255 32.0796 34.5742 31.2762 34.5742Z" fill="#FFD6BB"/>
<path d="M12.6822 29.3029C13.096 29.0352 13.4336 28.6651 13.6622 28.2285C13.8908 27.7919 14.0027 27.3036 13.9869 26.8111C13.9869 26.6426 13.92 26.481 13.8009 26.3619C13.6817 26.2427 13.5201 26.1758 13.3516 26.1758H8.45511C8.28662 26.1758 8.12503 26.2427 8.00589 26.3619C7.88675 26.481 7.81982 26.6426 7.81982 26.8111C7.80408 27.3036 7.91594 27.7919 8.14455 28.2285C8.37315 28.6651 8.71074 29.0352 9.12455 29.3029C9.65337 29.6487 10.2715 29.8328 10.9034 29.8328C11.5352 29.8328 12.1534 29.6487 12.6822 29.3029ZM9.1892 27.4456H12.6176C12.5006 27.7758 12.2757 28.057 11.9791 28.2435C11.6593 28.4528 11.2855 28.5642 10.9034 28.5642C10.5212 28.5642 10.1474 28.4528 9.82767 28.2435C9.5311 28.057 9.30615 27.7758 9.1892 27.4456Z" fill="#494456"/>
<path d="M12.4961 37.6765C12.4704 37.2907 12.2992 36.929 12.0171 36.6645C11.735 36.4 11.363 36.2525 10.9763 36.2517C10.9641 36.2517 10.9523 36.2533 10.9401 36.2535C10.9279 36.2536 10.9159 36.2517 10.9037 36.2517C10.5171 36.2525 10.1452 36.4 9.86312 36.6645C9.58107 36.9289 9.40992 37.2906 9.38425 37.6764L8.65366 48.9994C8.64722 49.0992 8.66447 49.1992 8.70399 49.2911C8.74351 49.3831 8.8042 49.4644 8.88109 49.5284L10.497 50.8744C10.6111 50.9696 10.755 51.0216 10.9036 51.0215C10.9158 51.0215 10.9277 51.0191 10.9399 51.0185C10.9522 51.0178 10.9641 51.0215 10.9761 51.0215C11.1248 51.0217 11.2687 50.9696 11.3829 50.8744L12.9988 49.5284C13.0756 49.4643 13.1363 49.383 13.1758 49.2911C13.2153 49.1992 13.2325 49.0992 13.226 48.9994L12.4961 37.6765ZM10.0156 48.7589L10.7249 37.7581C10.7228 37.7286 10.7267 37.6989 10.7366 37.671C10.7464 37.643 10.7619 37.6174 10.7821 37.5957C10.8023 37.574 10.8267 37.5568 10.8539 37.5449C10.8811 37.5331 10.9104 37.527 10.94 37.527C10.9696 37.527 10.9989 37.5331 11.0261 37.5449C11.0533 37.5568 11.0777 37.574 11.0979 37.5957C11.1181 37.6174 11.1336 37.643 11.1434 37.671C11.1533 37.6989 11.1573 37.7286 11.1551 37.7581L11.8641 48.7589L10.9396 49.5292L10.0156 48.7589Z" fill="#494456"/>
<path d="M37.3165 2.55875C33.1705 1.11456 29.9863 0.959075 29.8525 0.952881C29.8462 0.952881 29.8397 0.952881 29.8333 0.952881H29.8155C29.8092 0.952881 29.8027 0.952881 29.7965 0.952881C29.6629 0.958757 26.4783 1.11425 22.3318 2.55843C18.4995 3.89255 13.1052 6.6313 9.1715 12.0948C9.10249 12.1907 9.06159 12.3039 9.05337 12.4217C9.04514 12.5396 9.06994 12.6574 9.12496 12.7619C9.17906 12.8673 9.262 12.9551 9.3641 13.0151C9.4662 13.0752 9.58327 13.1049 9.70165 13.101C9.75517 13.0981 14.8822 13.0155 18.5812 15.8963C18.607 15.9163 18.6344 15.9344 18.663 15.9503C18.6714 15.955 18.6804 15.9581 18.689 15.9623C18.7103 15.9733 18.7323 15.9831 18.7548 15.9916C18.7694 15.9968 18.7843 16.0003 18.7992 16.0046C18.8142 16.0089 18.8332 16.0143 18.8505 16.0176C18.8678 16.0209 18.8843 16.0227 18.9013 16.0246C18.9183 16.0265 18.9331 16.0279 18.949 16.0286C18.9568 16.0286 18.9649 16.0305 18.9722 16.0305C18.9854 16.0305 18.9985 16.0287 19.0116 16.0278C19.0192 16.0278 19.0275 16.0278 19.0344 16.0263C19.0578 16.0239 19.0809 16.0202 19.1038 16.0152C19.1107 16.0138 19.1178 16.0127 19.1247 16.0109C19.1485 16.0049 19.172 15.9975 19.195 15.9887C19.2009 15.9865 19.2069 15.9849 19.2128 15.9825C19.2401 15.9714 19.2667 15.9583 19.2922 15.9434C19.2936 15.9434 19.2952 15.9422 19.2967 15.9412H19.2978L19.3002 15.9399C19.387 15.8898 22.3523 14.2088 28.1566 13.9267V35.0502L25.6429 36.3197L19.8922 39.2373L15.0052 34.147C14.438 33.4817 13.8194 32.862 13.1551 32.2935V31.461C14.0687 31.0326 14.8415 30.353 15.3832 29.5017C15.9248 28.6503 16.213 27.6624 16.2141 26.6534V24.0681C16.6792 23.7114 17.0417 23.238 17.2645 22.6958C17.5508 22.0127 17.6345 21.2616 17.5056 20.5322C17.3767 19.8028 17.0406 19.1259 16.5374 18.5823C15.6215 17.589 14.4092 17.0882 13.769 16.8784C13.4527 16.7798 13.1468 16.6506 12.8557 16.4925C11.2943 15.6206 10.9876 14.3355 10.9764 14.2866C10.9592 14.2041 10.9258 14.1259 10.8781 14.0564C10.8303 13.987 10.7693 13.9277 10.6985 13.8821C10.6276 13.8365 10.5485 13.8054 10.4655 13.7907C10.3825 13.7759 10.2975 13.7779 10.2153 13.7963C9.27283 14.0079 8.52826 14.6698 8.06656 15.1928L6.55424 13.3475C6.4947 13.2749 6.41982 13.2165 6.33499 13.1763C6.25016 13.1362 6.15749 13.1153 6.06364 13.1153C5.96988 13.1153 5.87728 13.136 5.79248 13.176C5.70769 13.216 5.6328 13.2743 5.57319 13.3467C4.20921 15.0026 3.78929 17.0528 3.67716 18.4813C3.58066 19.7249 3.89902 20.9653 4.58245 22.0088C4.97234 22.6196 5.31095 23.2617 5.59479 23.9284V26.6539C5.59585 27.6629 5.88404 28.6508 6.42568 29.5021C6.96732 30.3534 7.74005 31.033 8.65357 31.4615V32.3618C7.55307 33.6943 6.57399 35.1226 5.72804 36.6296C5.72074 36.6426 5.71375 36.6556 5.70644 36.6686C5.63624 36.7957 5.56668 36.9245 5.49775 37.0549C4.74431 38.4878 4.26767 40.0499 4.0928 41.6593C3.8355 43.979 3.4043 48.4605 3.4043 52.4117C3.4043 52.5802 3.47123 52.7418 3.59037 52.8609C3.70951 52.9801 3.8711 53.047 4.03959 53.047C4.20808 53.047 4.36967 52.9801 4.48881 52.8609C4.60795 52.7418 4.67489 52.5802 4.67489 52.4117C4.67489 48.5205 5.10133 44.0928 5.3556 41.7993C5.37466 41.6266 5.39817 41.4553 5.42453 41.2845C5.43279 41.2315 5.4428 41.1791 5.45185 41.1257C5.47154 41.0083 5.49219 40.8913 5.51538 40.775C5.52777 40.7128 5.54159 40.651 5.55493 40.589C5.57811 40.4823 5.60257 40.3759 5.62814 40.27C5.64392 40.2064 5.66017 40.1429 5.6769 40.0794C5.70454 39.975 5.73355 39.8712 5.76394 39.7679C5.7822 39.7061 5.80015 39.6444 5.81937 39.583C5.85288 39.4755 5.88877 39.3688 5.9253 39.2624C5.94436 39.2071 5.96263 39.1512 5.98248 39.0967C6.02838 38.9697 6.07777 38.8436 6.1278 38.7183C6.14083 38.6857 6.15274 38.6525 6.16608 38.6201C6.22739 38.4713 6.29314 38.3239 6.36032 38.1778C6.35683 42.162 6.36667 48.5013 6.37398 52.4127C6.37432 52.5809 6.4414 52.7422 6.5605 52.8611C6.67961 52.9799 6.841 53.0467 7.00927 53.0467H7.01054C7.17901 53.0463 7.34044 52.9791 7.45934 52.8598C7.57824 52.7404 7.64486 52.5787 7.64457 52.4103C7.63567 47.6224 7.62281 39.2012 7.63552 35.9144C8.15868 35.0984 8.6693 34.3987 9.05984 33.8907C9.18525 34.0732 9.33649 34.2366 9.50884 34.3757L9.58825 34.4392C9.96069 34.74 10.425 34.9041 10.9037 34.9041C11.3824 34.9041 11.8467 34.74 12.2192 34.4392L12.2986 34.3757C12.5217 34.1963 12.709 33.9765 12.8506 33.7277C13.147 34.0068 13.512 34.3732 13.8989 34.8136C13.9102 36.2811 13.9724 38.8437 14.0383 41.5502C14.1327 45.4225 14.2396 49.8113 14.2348 52.4103C14.2346 52.4938 14.2509 52.5766 14.2828 52.6539C14.3146 52.7312 14.3614 52.8014 14.4205 52.8605C14.4795 52.9197 14.5497 52.9666 14.6269 52.9986C14.7041 53.0306 14.7868 53.047 14.8704 53.047H14.8717C15.0399 53.047 15.2013 52.9802 15.3204 52.8614C15.4396 52.7425 15.5066 52.5812 15.507 52.413C15.5119 49.7973 15.4047 45.3996 15.3103 41.5196C15.2619 39.5343 15.2151 37.6251 15.1898 36.1747L19.3009 40.4577C19.3952 40.556 19.5186 40.6214 19.6528 40.6443C19.7871 40.6672 19.9251 40.6463 20.0466 40.5847L25.5075 37.8133L26.1378 40.3124L20.9389 43.8476C20.6334 44.0538 20.2695 44.1558 19.9014 44.1383C19.5333 44.1209 19.1807 43.9849 18.8961 43.7507L18.1736 43.1524C18.0836 43.0779 17.9747 43.0296 17.8591 43.0129C17.7434 42.9963 17.6253 43.0118 17.5179 43.0579C17.4105 43.104 17.3179 43.1788 17.2502 43.2742C17.1826 43.3695 17.1426 43.4817 17.1346 43.5983C17.0134 45.3649 17.0507 47.211 17.0903 49.1657C17.1112 50.206 17.133 51.2814 17.133 52.4114C17.133 52.5799 17.1999 52.7415 17.3191 52.8606C17.4382 52.9797 17.5998 53.0467 17.7683 53.0467C17.9368 53.0467 18.0984 52.9797 18.2175 52.8606C18.3367 52.7415 18.4036 52.5799 18.4036 52.4114C18.4036 51.2679 18.3817 50.1866 18.3607 49.1396C18.3309 47.6705 18.3024 46.2633 18.3426 44.9192C18.8352 45.2422 19.4122 45.4124 20.0012 45.4086C20.5901 45.4048 21.1649 45.2272 21.6533 44.8979L27.2169 41.1146L28.1557 40.482V42.7552C28.1627 43.9275 28.6333 45.0494 29.4647 45.8759C30.2961 46.7023 31.4208 47.1662 32.5931 47.1662C33.7654 47.1662 34.8901 46.7023 35.7215 45.8759C36.553 45.0494 37.0236 43.9275 37.0306 42.7552V41.4915C37.0306 41.0492 36.8549 40.625 36.5421 40.3123C36.2294 39.9995 35.8052 39.8238 35.3629 39.8238C34.9206 39.8238 34.4965 39.9995 34.1837 40.3123C33.871 40.625 33.6953 41.0492 33.6953 41.4915V42.7552C33.6918 43.0453 33.5741 43.3222 33.3678 43.5261C33.1615 43.7299 32.8832 43.8442 32.5931 43.8442C32.3031 43.8442 32.0247 43.7299 31.8184 43.5261C31.6121 43.3222 31.4945 43.0453 31.491 42.7552V40.6046C32.0049 40.5505 32.4806 40.3083 32.8266 39.9244C33.1726 39.5406 33.3644 39.0424 33.3651 38.5256V36.0289C33.3644 35.5122 33.1726 35.0139 32.8266 34.6301C32.4806 34.2463 32.0049 34.0041 31.491 33.9501V15.5488C31.491 15.3803 31.424 15.2187 31.3049 15.0995C31.1858 14.9804 31.0242 14.9135 30.8557 14.9135C30.6872 14.9135 30.5256 14.9804 30.4065 15.0995C30.2873 15.2187 30.2204 15.3803 30.2204 15.5488V33.9389H30.1561C29.9067 33.9394 29.6595 33.9848 29.4263 34.073V13.8892C29.5582 13.8878 29.689 13.8856 29.8233 13.8856C36.7898 13.8856 40.3163 15.9215 40.3498 15.9412C40.3766 15.9571 40.4045 15.971 40.4332 15.9828C40.4423 15.9865 40.4515 15.989 40.4607 15.9924C40.4804 15.9993 40.5002 16.0062 40.5204 16.0113C40.5314 16.0141 40.5425 16.0159 40.5536 16.0181C40.5723 16.0217 40.5911 16.0249 40.61 16.027C40.6217 16.0281 40.6335 16.0287 40.6454 16.0292C40.6573 16.0297 40.6654 16.0313 40.6754 16.0313C40.6824 16.0313 40.6892 16.0298 40.6962 16.0295C40.7146 16.0295 40.7331 16.0273 40.7515 16.0251C40.7661 16.0233 40.7807 16.0216 40.7952 16.0187C40.8137 16.0152 40.832 16.0101 40.8503 16.0049C40.8641 16.0009 40.8779 15.9974 40.8914 15.9925C40.9105 15.9857 40.9286 15.9766 40.947 15.9684C40.9591 15.9627 40.9715 15.9576 40.9834 15.9511C41.0037 15.9393 41.0234 15.9265 41.0423 15.9126C41.0501 15.9071 41.0582 15.9029 41.066 15.8967C44.754 13.0239 49.891 13.1003 49.9456 13.1015C50.064 13.1056 50.1812 13.076 50.2833 13.0159C50.3854 12.9558 50.4683 12.8679 50.5222 12.7624C50.5772 12.6578 50.602 12.54 50.5938 12.4222C50.5855 12.3044 50.5446 12.1912 50.4756 12.0953C46.5432 6.63162 41.149 3.8935 37.3165 2.55875ZM4.94377 18.5805C5.02716 17.5164 5.30065 16.0653 6.09556 14.792L7.59311 16.6176C7.65741 16.696 7.73954 16.7579 7.83264 16.7981C7.92574 16.8382 8.0271 16.8555 8.12825 16.8485C8.2294 16.8415 8.32741 16.8104 8.41407 16.7578C8.50074 16.7051 8.57355 16.6325 8.62641 16.546C8.63277 16.5355 9.1823 15.6644 9.97896 15.233C10.4615 16.2414 11.2519 17.0705 12.2362 17.6006C12.5987 17.7982 12.9796 17.9603 13.3733 18.0847C13.7948 18.2229 14.8556 18.6315 15.6035 19.4425C15.9415 19.8063 16.1675 20.2597 16.2547 20.7486C16.3418 21.2374 16.2864 21.741 16.0949 22.1992C16.0553 22.2919 16.0099 22.3821 15.959 22.4692C15.647 21.7129 15.0678 21.0977 14.3317 20.7409L12.4126 19.8197C11.9363 19.5896 11.4058 19.4952 10.8794 19.5466C10.3529 19.5981 9.85076 19.7935 9.428 20.1114C9.21065 20.2739 8.94844 20.3652 8.67722 20.3729C8.40601 20.3806 8.13903 20.3043 7.91282 20.1545L7.75241 20.0479C7.54304 19.909 7.29992 19.8294 7.04892 19.8177C6.79792 19.8059 6.54844 19.8625 6.32702 19.9813C6.1056 20.1001 5.92053 20.2767 5.79151 20.4923C5.66249 20.7079 5.59434 20.9545 5.59431 21.2057V21.2289C5.10023 20.4382 4.87226 19.5102 4.94377 18.5805ZM6.86554 26.6539V21.2051C6.86469 21.1833 6.87026 21.1618 6.88155 21.1431C6.89285 21.1245 6.90937 21.1096 6.92907 21.1003C6.94776 21.0892 6.96929 21.0838 6.99099 21.0848C7.0127 21.0859 7.03363 21.0932 7.0512 21.106L7.21161 21.2124C7.65649 21.507 8.18151 21.657 8.71486 21.6418C9.24821 21.6266 9.76387 21.4471 10.1913 21.1278C10.4282 20.9501 10.7093 20.8409 11.004 20.8121C11.2987 20.7833 11.5957 20.8361 11.8624 20.9646L13.7815 21.8858C14.1287 22.0541 14.4217 22.3165 14.6272 22.6432C14.8326 22.9698 14.9422 23.3476 14.9435 23.7334V26.6535C14.9368 27.7204 14.5083 28.7414 13.7515 29.4934C12.9947 30.2455 11.9711 30.6676 10.9042 30.6676C9.83727 30.6676 8.81368 30.2455 8.05689 29.4934C7.30011 28.7414 6.87159 27.7204 6.8649 26.6535L6.86554 26.6539ZM11.5056 33.3837L11.4262 33.4472C11.2784 33.5665 11.0943 33.6315 10.9045 33.6315C10.7147 33.6315 10.5306 33.5665 10.3828 33.4472L10.3034 33.3837C10.1849 33.2893 10.0893 33.1693 10.0237 33.0327C9.95806 32.8961 9.92415 32.7465 9.92448 32.595V31.8714C10.5723 31.9944 11.2375 31.9944 11.8853 31.8714V32.595C11.8856 32.7466 11.8516 32.8963 11.7858 33.0329C11.7201 33.1694 11.6243 33.2894 11.5056 33.3837ZM27.2578 39.5556L26.6702 37.2247L28.0678 36.5192V38.5256C28.0681 38.6772 28.085 38.8284 28.1182 38.9763L27.2578 39.5556ZM32.5943 45.1273C33.2233 45.1265 33.8262 44.8764 34.271 44.4318C34.7158 43.9871 34.9661 43.3842 34.967 42.7552V41.4915C34.967 41.3862 35.0088 41.2852 35.0833 41.2107C35.1577 41.1362 35.2587 41.0944 35.364 41.0944C35.4693 41.0944 35.5703 41.1362 35.6448 41.2107C35.7193 41.2852 35.7611 41.3862 35.7611 41.4915V42.7552C35.7552 43.5913 35.4189 44.391 34.8257 44.9801C34.2324 45.5692 33.4303 45.8997 32.5942 45.8997C31.7582 45.8997 30.9561 45.5692 30.3628 44.9801C29.7696 44.391 29.4333 43.5913 29.4274 42.7552V40.4817C29.6606 40.5698 29.9078 40.6152 30.1572 40.6157H30.2215V42.7552C30.2224 43.3842 30.4727 43.9871 30.9175 44.4318C31.3624 44.8764 31.9654 45.1265 32.5943 45.1273ZM30.1572 35.2095H31.2764C31.4936 35.2097 31.7019 35.2961 31.8555 35.4497C32.0092 35.6034 32.0956 35.8117 32.0958 36.0289V38.5256C32.0956 38.7429 32.0092 38.9512 31.8556 39.1048C31.7019 39.2584 31.4937 39.3449 31.2764 39.3451H30.1572C29.9399 39.3449 29.7316 39.2585 29.578 39.1048C29.4243 38.9512 29.3379 38.7429 29.3376 38.5256V36.0289C29.3379 35.8116 29.4243 35.6033 29.578 35.4497C29.7316 35.2961 29.9399 35.2097 30.1572 35.2095ZM22.7106 3.77232C24.1459 3.27093 25.6164 2.8765 27.11 2.59226C22.1328 6.40053 19.5012 12.2543 18.6645 14.3919C15.8827 12.5302 12.6658 12.0178 10.9311 11.8799C14.5804 7.33028 19.2955 4.9673 22.7106 3.77232ZM29.0451 12.624L28.8704 12.628C28.8447 12.628 28.8184 12.6291 28.7929 12.6297H28.7902C28.5691 12.6359 28.3515 12.6439 28.1374 12.6537C28.1068 12.6552 28.0769 12.6571 28.0462 12.6587C27.8283 12.6692 27.6144 12.6818 27.4044 12.6965C27.3547 12.6998 27.3047 12.703 27.2555 12.7066C27.029 12.7231 26.8069 12.7415 26.5892 12.7616C26.547 12.7655 26.506 12.7698 26.464 12.774C26.2713 12.7927 26.0823 12.8128 25.8969 12.8343C25.8591 12.8386 25.8206 12.8427 25.7832 12.8472C25.5767 12.872 25.3749 12.8984 25.1777 12.9266C25.1336 12.9328 25.0902 12.9391 25.0465 12.9455C24.8658 12.9717 24.6884 12.9989 24.5154 13.0273L24.4519 13.0374C24.2643 13.0692 24.0825 13.101 23.9041 13.1348C23.8619 13.1426 23.8203 13.1507 23.7785 13.1586C23.6019 13.1926 23.4283 13.2272 23.2609 13.263L23.245 13.2666C23.0806 13.3017 22.9221 13.3379 22.7666 13.3745L22.6562 13.4005C22.5025 13.4375 22.3524 13.4747 22.2076 13.5117L22.1415 13.5293C22.0124 13.5635 21.8874 13.5978 21.7656 13.6322C21.7352 13.6408 21.7047 13.6492 21.675 13.6578C21.5426 13.6959 21.4145 13.734 21.2907 13.7722L21.21 13.7974C21.1041 13.8308 21.001 13.864 20.9008 13.897L20.8323 13.9196C20.7211 13.957 20.6135 13.9942 20.5102 14.0307L20.4308 14.0592C20.34 14.092 20.2523 14.1244 20.1684 14.1562C20.1586 14.16 20.1473 14.164 20.1367 14.1676C21.3218 11.414 24.4179 5.37357 29.8228 2.31305C35.2278 5.37342 38.3239 11.4136 39.509 14.1676L39.479 14.1565C39.3953 14.1248 39.3076 14.093 39.2169 14.0596C39.1899 14.0498 39.1633 14.0401 39.1355 14.0303C39.0332 13.9939 38.9274 13.9572 38.8167 13.92L38.7411 13.8951C38.6446 13.8633 38.5451 13.8313 38.4425 13.799L38.3533 13.7711C38.2317 13.7336 38.1059 13.6961 37.9759 13.6588C37.9427 13.6492 37.9087 13.6397 37.875 13.6303C37.7586 13.5973 37.6386 13.5644 37.515 13.5317L37.4356 13.5106C37.2936 13.4736 37.1464 13.437 36.9958 13.4008C36.9555 13.3911 36.9146 13.3816 36.8737 13.3721C36.7247 13.337 36.5727 13.3025 36.4154 13.2687L36.3819 13.2612C36.2172 13.2261 36.0465 13.1921 35.8737 13.1586C35.8289 13.1501 35.7843 13.1415 35.7389 13.1331C35.5627 13.1 35.3834 13.0678 35.1989 13.037C35.1741 13.0328 35.1484 13.0289 35.1234 13.0249C34.955 12.9973 34.7826 12.9708 34.6063 12.9455L34.4672 12.9253C34.2715 12.898 34.0715 12.872 33.8671 12.8473C33.8274 12.8426 33.7866 12.8383 33.7466 12.8335C33.5633 12.8123 33.3766 12.7925 33.1866 12.7741C33.1435 12.7698 33.1011 12.7654 33.0576 12.7614C32.841 12.7411 32.6197 12.7228 32.3939 12.7065C32.3435 12.7028 32.2924 12.6996 32.2416 12.6961C32.0326 12.6818 31.8198 12.6693 31.6034 12.6585C31.5716 12.6571 31.5415 12.655 31.51 12.6536C31.2718 12.6425 31.0266 12.6342 30.7785 12.6278C30.72 12.6263 30.6613 12.625 30.6024 12.6237C30.3471 12.6185 30.0887 12.6147 29.8241 12.6147C29.5595 12.6147 29.3008 12.6188 29.0451 12.624ZM40.9842 14.3919C40.1476 12.2544 37.5161 6.40053 32.5387 2.59226C34.0323 2.87647 35.5028 3.2709 36.9381 3.77232C40.3528 4.9673 45.069 7.32996 48.7176 11.8796C46.9831 12.0178 43.7655 12.5311 40.9842 14.3919Z" fill="#494456"/>
<path d="M9.43608 24.6732C9.78694 24.6732 10.0714 24.3887 10.0714 24.0379C10.0714 23.687 9.78694 23.4026 9.43608 23.4026C9.08521 23.4026 8.80078 23.687 8.80078 24.0379C8.80078 24.3887 9.08521 24.6732 9.43608 24.6732Z" fill="#494456"/>
<path d="M12.3697 24.6732C12.7205 24.6732 13.005 24.3887 13.005 24.0379C13.005 23.687 12.7205 23.4026 12.3697 23.4026C12.0188 23.4026 11.7344 23.687 11.7344 24.0379C11.7344 24.3887 12.0188 24.6732 12.3697 24.6732Z" fill="#494456"/>
</svg>
