<svg width="54" height="53" viewBox="0 0 54 53" fill="none" xmlns="http://www.w3.org/2000/svg">
<g clip-path="url(#clip0_1001_3715)">
<path d="M39.1031 52.138H14.8962C13.8675 52.138 13.0342 51.3047 13.0342 50.2759C13.0342 49.2471 13.8675 48.4138 14.8962 48.4138H39.1031C40.1319 48.4138 40.9652 49.2471 40.9652 50.2759C40.9652 51.3047 40.1319 52.138 39.1031 52.138Z" fill="#E7ECED"/>
<path d="M31.6553 40.9655V39.1034H22.345V40.9655C22.345 45.0825 20.8758 48.4137 16.7588 48.4137H37.2415C33.1245 48.4137 31.6553 45.0825 31.6553 40.9655Z" fill="#AFB6BB"/>
<path d="M51.206 40.9655H2.79403C1.25131 40.9655 0 39.7142 0 38.1715V32.5862H54V38.1715C54 39.7142 52.7487 40.9655 51.206 40.9655Z" fill="#E7ECED"/>
<path d="M29.7926 38.1724H24.2064C23.6925 38.1724 23.2754 37.7553 23.2754 37.2413C23.2754 36.7274 23.6925 36.3103 24.2064 36.3103H29.7926C30.3066 36.3103 30.7237 36.7274 30.7237 37.2413C30.7237 37.7553 30.3066 38.1724 29.7926 38.1724Z" fill="#AFB6BB"/>
<path d="M46.5517 0H7.44828H2.79403C1.25131 0 0 1.25131 0 2.79403V33.5172H7.44828H21.4138H32.5862H46.5517H54V2.79403C54 1.25131 52.7487 0 51.206 0H46.5517Z" fill="#212F3F"/>
<path d="M50.2756 3.72412H25.1377V33.5172H50.2756V3.72412Z" fill="#366DB6"/>
<path d="M27.0005 3.72412H3.72461V33.5172H27.0005V3.72412Z" fill="#DD352E"/>
<path d="M13.0348 13.0344H7.44861C6.93468 13.0344 6.51758 12.6173 6.51758 12.1034C6.51758 11.5895 6.93468 11.1724 7.44861 11.1724H13.0348C13.5488 11.1724 13.9659 11.5895 13.9659 12.1034C13.9659 12.6173 13.5488 13.0344 13.0348 13.0344Z" fill="white"/>
<path d="M23.276 13.0344H17.6898C17.1759 13.0344 16.7588 12.6173 16.7588 12.1034C16.7588 11.5895 17.1759 11.1724 17.6898 11.1724H23.276C23.79 11.1724 24.2071 11.5895 24.2071 12.1034C24.2071 12.6173 23.79 13.0344 23.276 13.0344Z" fill="white"/>
<path d="M10.2416 15.8275C9.72765 15.8275 9.31055 15.4104 9.31055 14.8965V9.31031C9.31055 8.79638 9.72765 8.37927 10.2416 8.37927C10.7555 8.37927 11.1726 8.79638 11.1726 9.31031V14.8965C11.1726 15.4104 10.7555 15.8275 10.2416 15.8275Z" fill="white"/>
<path d="M12.1036 27.931C11.8653 27.931 11.627 27.8398 11.4454 27.6583L7.72127 23.9341C7.35723 23.5701 7.35723 22.9817 7.72127 22.6176C8.08437 22.2536 8.67465 22.2536 9.03775 22.6176L12.7619 26.3418C13.1259 26.7058 13.1259 27.2942 12.7619 27.6583C12.5803 27.8398 12.342 27.931 12.1036 27.931Z" fill="white"/>
<path d="M8.37951 27.931C8.14116 27.931 7.90282 27.8398 7.72127 27.6583C7.35723 27.2942 7.35723 26.7058 7.72127 26.3418L11.4454 22.6176C11.8085 22.2536 12.3988 22.2536 12.7619 22.6176C13.1259 22.9817 13.1259 23.5701 12.7619 23.9341L9.03775 27.6583C8.8562 27.8398 8.61785 27.931 8.37951 27.931Z" fill="white"/>
<path d="M18.6207 27.931C18.3824 27.931 18.144 27.8398 17.9625 27.6583C17.5984 27.2942 17.5984 26.7058 17.9625 26.3418L21.6866 22.6176C22.0497 22.2536 22.64 22.2536 23.0031 22.6176C23.3671 22.9817 23.3671 23.5701 23.0031 23.9341L19.279 27.6583C19.0974 27.8398 18.8591 27.931 18.6207 27.931Z" fill="white"/>
<path d="M37.2405 29.7931C37.1008 29.7931 36.9584 29.7614 36.8243 29.6953C36.3644 29.4654 36.1781 28.9058 36.4081 28.4459L39.2012 22.8597C39.4312 22.3998 39.9907 22.2135 40.4507 22.4435C40.9106 22.6735 41.0968 23.233 40.8668 23.693L38.0737 29.2792C37.9108 29.605 37.5822 29.7931 37.2405 29.7931Z" fill="white"/>
<path d="M30.7242 27C30.4859 27 30.2475 26.9088 30.066 26.7272C29.702 26.3632 29.702 25.7748 30.066 25.4107L32.8591 22.6176C33.2222 22.2536 33.8125 22.2536 34.1756 22.6176C34.5396 22.9817 34.5396 23.5701 34.1756 23.9341L31.3825 26.7272C31.2009 26.9088 30.9626 27 30.7242 27Z" fill="white"/>
<path d="M34.4478 19.5517C34.0474 19.5517 33.6918 19.2957 33.5642 18.9149L29.8401 7.74248C29.6772 7.25461 29.9416 6.72765 30.4294 6.56472C30.9154 6.40179 31.4443 6.6662 31.6072 7.15313L34.4478 15.6768L37.2884 7.15406C37.4159 6.77327 37.7716 6.51723 38.1719 6.51723H46.5512C47.0652 6.51723 47.4823 6.93434 47.4823 7.44827C47.4823 7.9622 47.0652 8.3793 46.5512 8.3793H38.8432L35.3313 18.9149C35.2038 19.2957 34.8481 19.5517 34.4478 19.5517Z" fill="white"/>
<path d="M44.6894 15.8275H40.9652C40.4513 15.8275 40.0342 15.4104 40.0342 14.8965C40.0342 14.3826 40.4513 13.9655 40.9652 13.9655H43.7583V12.1034H40.9652C40.4513 12.1034 40.0342 11.6863 40.0342 11.1724C40.0342 10.6584 40.4513 10.2413 40.9652 10.2413H44.6894C45.2033 10.2413 45.6204 10.6584 45.6204 11.1724V14.8965C45.6204 15.4104 45.2033 15.8275 44.6894 15.8275Z" fill="white"/>
<path d="M44.6894 19.5518H40.9652C40.4513 19.5518 40.0342 19.1347 40.0342 18.6207C40.0342 18.1068 40.4513 17.6897 40.9652 17.6897H43.7583V15.8276H40.9652C40.4513 15.8276 40.0342 15.4105 40.0342 14.8966C40.0342 14.3827 40.4513 13.9656 40.9652 13.9656H44.6894C45.2033 13.9656 45.6204 14.3827 45.6204 14.8966V18.6207C45.6204 19.1347 45.2033 19.5518 44.6894 19.5518Z" fill="white"/>
<path d="M33.5173 29.7931C33.279 29.7931 33.0406 29.7019 32.8591 29.5203L30.066 26.7272C29.702 26.3632 29.702 25.7748 30.066 25.4107C30.4291 25.0467 31.0194 25.0467 31.3825 25.4107L34.1756 28.2038C34.5396 28.5679 34.5396 29.1563 34.1756 29.5203C33.994 29.7019 33.7557 29.7931 33.5173 29.7931Z" fill="white"/>
<path d="M46.5515 27C46.3132 27 46.0748 26.9088 45.8933 26.7272L43.1002 23.9341C42.7361 23.5701 42.7361 22.9817 43.1002 22.6176C43.4633 22.2536 44.0536 22.2536 44.4167 22.6176L47.2098 25.4107C47.5738 25.7748 47.5738 26.3632 47.2098 26.7272C47.0282 26.9088 46.7899 27 46.5515 27Z" fill="white"/>
<path d="M43.7584 29.7931C43.5201 29.7931 43.2817 29.7019 43.1002 29.5203C42.7361 29.1563 42.7361 28.5679 43.1002 28.2038L45.8933 25.4107C46.2564 25.0467 46.8467 25.0467 47.2098 25.4107C47.5738 25.7748 47.5738 26.3632 47.2098 26.7272L44.4167 29.5203C44.2351 29.7019 43.9968 29.7931 43.7584 29.7931Z" fill="white"/>
</g>
<defs>
<clipPath id="clip0_1001_3715">
<rect width="54" height="52.1379" fill="white"/>
</clipPath>
</defs>
</svg>
