<svg xmlns="http://www.w3.org/2000/svg" width="15.055" height="17.792"><path d="M7.575 3.1a6.183 6.183 0 0 1 1.023.192 4.359 4.359 0 0 1 3.322 4.271v5.458l.4.4.333.335H2.408l.333-.335.4-.4V7.562a4.359 4.359 0 0 1 3.322-4.271 7.571 7.571 0 0 1 1.023-.192m.043-3.1a1.308 1.308 0 0 0-1.328 1.334v.623a5.766 5.766 0 0 0-4.428 5.6v4.893L0 14.234v.89h15.055v-.89l-1.771-1.779V7.562a5.766 5.766 0 0 0-4.428-5.6v-.628A1.308 1.308 0 0 0 7.528 0ZM9.3 16.012H5.756a1.771 1.771 0 1 0 3.542 0Z" fill="#dfe1fc"/></svg>