<svg width="428" height="286" viewBox="0 0 428 286" fill="none" xmlns="http://www.w3.org/2000/svg">
<path d="M279.899 100.106C255.725 90.4469 234.198 74.9438 215.355 56.9751C207.948 49.9104 200.417 42.1488 190.531 39.4902C182.111 37.2259 172.88 39.1125 165.416 43.6139C157.951 48.1152 152.155 55.0501 148.02 62.7275C138.745 79.9481 137.484 101.778 145.623 119.669L145.617 119.787C148.384 128.333 154.427 132.415 151.905 142.391C148.408 156.234 137.466 167.192 128.417 177.632C122.034 184.998 116 193.042 113.41 202.438C110.82 211.835 112.313 222.896 119.345 229.649C128.025 237.991 142.144 237.378 153.339 232.953C172.453 225.394 187.296 208.842 207.002 202.985C233.866 195.002 263.416 208.644 290.516 201.503C303.728 198.022 315.551 189.523 323.056 178.102C334.261 161.058 334.529 136.356 320.709 121.351C310.217 109.958 294.281 105.854 279.899 100.106Z" fill="#FFBA55"/>
<path d="M266.83 83.7655C265.824 83.5067 264.894 84.1477 264.593 85.3202C264.306 86.4322 264.776 87.4666 265.782 87.7245C266.844 87.9988 267.725 87.3102 268.011 86.199C268.312 85.0266 267.835 84.0234 266.83 83.7655Z" fill="#621112"/>
<path d="M271.92 65.741C270.398 65.3505 268.628 65.4374 267.487 65.9569L267.661 68.1344C268.535 67.7155 269.781 67.6295 270.815 67.8947C272.617 68.3913 273.258 69.7073 272.842 71.3279C272.476 72.7564 271.439 73.8108 269.713 75.1616C267.793 76.6989 266.787 78.4393 266.522 80.1988L266.367 81.0393L268.607 81.6145L268.79 80.7814C269.12 79.1398 269.938 77.8604 271.625 76.5334C273.469 75.0775 274.96 73.8017 275.515 71.6425C276.137 69.23 275.223 66.5897 271.92 65.741Z" fill="#621112"/>
<path d="M290.702 94.7096C289.823 95.4467 289.604 96.5616 290.268 97.3563C290.973 98.1967 292.09 98.151 292.97 97.413C293.899 96.6338 294.095 95.54 293.427 94.7453C292.759 93.9506 291.632 93.9295 290.702 94.7096Z" fill="#621112"/>
<path d="M304.329 80.6479L303.204 82.52C304.158 82.6883 305.222 83.3431 305.908 84.1616C307.083 85.6148 306.838 87.0579 305.557 88.1325C304.427 89.0808 302.97 89.3342 300.782 89.4293C298.321 89.5573 296.496 90.3914 295.253 91.6662L294.639 92.2588L296.125 94.0312L296.759 93.4605C297.983 92.3183 299.393 91.754 301.538 91.658C303.885 91.5473 305.836 91.3781 307.548 89.946C309.458 88.3437 310.251 85.666 308.059 83.0541C307.05 81.8506 305.561 80.8912 304.329 80.6479Z" fill="#621112"/>
<path d="M288.224 122.478C287.081 122.378 286.137 123.01 286.047 124.043C285.951 125.141 286.774 125.893 287.917 125.993C289.126 126.099 290.037 125.464 290.127 124.43C290.218 123.397 289.433 122.584 288.224 122.478Z" fill="#621112"/>
<path d="M305.684 122.694C306.24 123.487 306.529 124.706 306.435 125.766C306.241 127.624 305.047 128.473 303.381 128.327C301.911 128.199 300.701 127.348 299.083 125.868C297.253 124.222 295.371 123.519 293.595 123.542L292.741 123.527L292.539 125.831L293.391 125.876C295.065 125.934 296.461 126.532 298.046 127.979C299.784 129.56 301.287 130.823 303.508 131.016C305.991 131.233 308.446 129.9 308.741 126.502C308.878 124.937 308.502 123.21 307.803 122.164L305.684 122.694Z" fill="#621112"/>
<path d="M163.287 68.2358C160.77 64.6048 155.786 63.7021 152.155 66.2194L94.3894 106.268C90.7584 108.785 89.8556 113.769 92.3728 117.4L114.969 149.994C117.486 153.625 122.471 154.528 126.102 152.01L148.078 136.775C149.959 135.47 152.403 135.301 154.447 136.332V136.332V136.332C157.536 137.891 161.156 135.521 160.961 132.066V132.066V132.066C160.819 129.541 161.999 127.123 164.078 125.682L183.868 111.962C187.499 109.444 188.402 104.46 185.884 100.829L163.287 68.2358Z" fill="#10405F"/>
<path d="M165.887 64.4736C163.369 60.8425 158.385 59.9397 154.754 62.4571L96.9876 102.506C93.3566 105.023 92.4538 110.008 94.9711 113.639L117.568 146.232C120.086 149.863 125.07 150.766 128.701 148.249L150.676 133.013C152.557 131.709 155.001 131.539 157.045 132.57V132.57V132.57C160.135 134.129 163.754 131.759 163.559 128.303V128.303V128.303C163.417 125.779 164.597 123.362 166.675 121.921L186.466 108.2C190.097 105.683 191 100.698 188.483 97.0674L165.887 64.4736Z" fill="#FE5A2C"/>
<path d="M127.28 102.279C127.598 102.751 127.782 103.258 127.832 103.798C127.877 104.331 127.756 104.869 127.469 105.412C127.182 105.955 126.706 106.45 126.041 106.9L124.811 107.73L126.785 110.654L124.8 111.993L119.302 103.848L122.516 101.678C123.166 101.239 123.791 100.981 124.391 100.902C124.991 100.824 125.536 100.906 126.027 101.149C126.517 101.392 126.935 101.769 127.28 102.279ZM124.824 105.423C125.204 105.167 125.426 104.888 125.491 104.585C125.557 104.281 125.48 103.967 125.261 103.642C125.041 103.317 124.779 103.129 124.473 103.076C124.167 103.024 123.825 103.125 123.446 103.381L122.367 104.11L123.745 106.152L124.824 105.423ZM129.454 104.123C129.004 103.457 128.734 102.79 128.642 102.12C128.558 101.445 128.641 100.826 128.891 100.262C129.142 99.6992 129.534 99.2375 130.068 98.8771C130.524 98.569 130.985 98.3929 131.451 98.3488C131.924 98.2995 132.356 98.363 132.745 98.5394L132.126 97.6227L134.11 96.2832L138.481 102.758L136.497 104.097L135.878 103.181C135.889 103.613 135.782 104.039 135.559 104.46C135.344 104.876 135.009 105.237 134.552 105.545C134.026 105.901 133.455 106.089 132.839 106.111C132.218 106.125 131.61 105.966 131.015 105.636C130.423 105.292 129.903 104.788 129.454 104.123ZM134.312 100.86C133.977 100.365 133.574 100.068 133.103 99.9701C132.639 99.8667 132.21 99.9481 131.815 100.214C131.421 100.481 131.181 100.851 131.095 101.325C131.013 101.786 131.138 102.265 131.473 102.76C131.807 103.255 132.208 103.558 132.678 103.669C133.149 103.767 133.582 103.683 133.977 103.417C134.371 103.151 134.608 102.783 134.685 102.314C134.77 101.84 134.646 101.355 134.312 100.86ZM137.943 93.5608C138.4 93.2527 138.861 93.0765 139.326 93.0324C139.8 92.9831 140.231 93.0466 140.621 93.223L140.002 92.3063L141.986 90.9668L146.349 97.43C146.751 98.0257 146.994 98.6443 147.078 99.2858C147.175 99.9298 147.076 100.559 146.782 101.175C146.496 101.785 145.993 102.332 145.273 102.818C144.314 103.466 143.383 103.762 142.479 103.708C141.58 103.661 140.828 103.28 140.22 102.564L142.181 101.24C142.41 101.446 142.688 101.54 143.014 101.523C143.345 101.513 143.681 101.393 144.021 101.163C144.431 100.887 144.675 100.547 144.753 100.146C144.844 99.7465 144.715 99.2878 144.365 98.7695L143.746 97.8528C143.756 98.2851 143.656 98.7128 143.447 99.1359C143.232 99.5513 142.896 99.9131 142.439 100.221C141.906 100.582 141.331 100.773 140.715 100.794C140.094 100.808 139.486 100.65 138.891 100.319C138.299 99.9759 137.778 99.4716 137.329 98.8063C136.88 98.141 136.609 97.4734 136.518 96.8035C136.433 96.1284 136.516 95.5092 136.767 94.946C137.017 94.3828 137.409 93.9211 137.943 93.5608ZM142.187 95.5437C141.853 95.0486 141.45 94.752 140.978 94.6537C140.514 94.5503 140.085 94.6317 139.691 94.898C139.296 95.1644 139.056 95.5346 138.971 96.0088C138.888 96.4701 139.014 96.9483 139.348 97.4434C139.682 97.9384 140.084 98.2416 140.553 98.3528C141.025 98.451 141.458 98.367 141.852 98.1006C142.247 97.8343 142.483 97.4666 142.561 96.9977C142.646 96.5234 142.521 96.0388 142.187 95.5437ZM151.64 89.0106C151.765 89.1962 151.884 89.3975 151.997 89.6143L147.506 92.6457C147.809 93.027 148.145 93.2503 148.516 93.3155C148.889 93.3677 149.242 93.2815 149.574 93.0569C150.069 92.7227 150.273 92.2815 150.184 91.7332L152.296 90.3076C152.475 90.8062 152.536 91.3222 152.479 91.8558C152.431 92.3842 152.259 92.8887 151.964 93.3693C151.669 93.8499 151.259 94.2677 150.733 94.6228C150.098 95.051 149.442 95.2969 148.764 95.3603C148.086 95.4238 147.439 95.2981 146.821 94.9833C146.203 94.6685 145.667 94.1745 145.212 93.5015C144.758 92.8285 144.496 92.1492 144.428 91.4636C144.367 90.7728 144.493 90.1249 144.805 89.52C145.117 88.915 145.594 88.3958 146.236 87.9624C146.863 87.5394 147.509 87.2949 148.174 87.2289C148.839 87.163 149.471 87.2823 150.071 87.5868C150.678 87.8862 151.201 88.3608 151.64 89.0106ZM149.257 89.8592C149.027 89.5188 148.728 89.3264 148.36 89.282C147.992 89.2375 147.634 89.3327 147.286 89.5677C146.954 89.7923 146.737 90.0796 146.635 90.4296C146.541 90.7745 146.587 91.1431 146.774 91.5355L149.257 89.8592ZM126.963 132.251L124.979 133.591L118.268 130.806L121.66 135.831L119.676 137.17L114.177 129.025L116.161 127.685L122.887 130.492L119.48 125.445L121.464 124.105L126.963 132.251ZM131.411 129.383C130.777 129.812 130.113 130.063 129.42 130.137C128.734 130.205 128.075 130.087 127.441 129.783C126.815 129.473 126.275 128.982 125.821 128.309C125.372 127.644 125.125 126.961 125.079 126.259C125.029 125.55 125.167 124.888 125.495 124.273C125.823 123.657 126.304 123.135 126.938 122.707C127.572 122.279 128.236 122.028 128.93 121.954C129.623 121.88 130.289 121.999 130.928 122.311C131.561 122.616 132.102 123.101 132.551 123.766C133 124.431 133.246 125.121 133.289 125.835C133.335 126.536 133.19 127.197 132.854 127.818C132.526 128.433 132.045 128.955 131.411 129.383ZM130.252 127.666C130.631 127.41 130.858 127.054 130.933 126.598C131.016 126.137 130.882 125.647 130.532 125.129C130.182 124.611 129.782 124.301 129.331 124.2C128.888 124.094 128.476 124.169 128.097 124.425C127.711 124.686 127.484 125.042 127.416 125.492C127.344 125.936 127.485 126.42 127.84 126.946C128.19 127.464 128.583 127.779 129.018 127.891C129.462 127.997 129.873 127.922 130.252 127.666ZM138.262 122.174L139.398 123.857L138.389 124.538C137.669 125.024 136.991 125.228 136.354 125.152C135.711 125.067 135.121 124.627 134.583 123.83L132.844 121.254L132.055 121.787L130.943 120.139L131.732 119.606L130.666 118.028L132.651 116.689L133.716 118.267L135.016 117.39L136.128 119.037L134.828 119.915L136.583 122.514C136.713 122.707 136.854 122.815 137.004 122.838C137.154 122.86 137.338 122.798 137.554 122.652L138.262 122.174ZM142.766 109.725L143.839 111.315L140.521 113.555L141.68 115.272L144.163 113.596L145.205 115.139L142.722 116.816L144.946 120.111L142.962 121.451L137.463 113.305L142.766 109.725ZM152.318 115.27C151.684 115.698 151.02 115.949 150.326 116.023C149.641 116.092 148.981 115.974 148.348 115.67C147.722 115.36 147.182 114.869 146.728 114.196C146.279 113.531 146.032 112.847 145.986 112.146C145.935 111.437 146.074 110.775 146.402 110.159C146.73 109.544 147.211 109.022 147.845 108.594C148.479 108.166 149.143 107.915 149.836 107.841C150.53 107.767 151.196 107.886 151.834 108.198C152.468 108.503 153.009 108.987 153.458 109.653C153.907 110.318 154.153 111.008 154.196 111.722C154.242 112.423 154.097 113.084 153.761 113.705C153.433 114.32 152.952 114.842 152.318 115.27ZM151.159 113.553C151.538 113.297 151.765 112.941 151.84 112.485C151.922 112.024 151.789 111.534 151.439 111.016C151.089 110.497 150.689 110.188 150.238 110.087C149.794 109.981 149.383 110.055 149.004 110.311C148.617 110.572 148.39 110.928 148.323 111.379C148.251 111.822 148.392 112.307 148.747 112.833C149.097 113.351 149.49 113.666 149.925 113.777C150.368 113.883 150.78 113.809 151.159 113.553ZM158.719 101.389L163.09 107.863L161.106 109.203L160.51 108.321C160.502 108.743 160.384 109.16 160.156 109.573C159.931 109.973 159.609 110.314 159.192 110.596C158.696 110.93 158.186 111.117 157.661 111.156C157.131 111.188 156.62 111.065 156.129 110.789C155.638 110.512 155.202 110.091 154.821 109.527L152.267 105.744L154.24 104.412L156.613 107.928C156.906 108.361 157.245 108.622 157.631 108.71C158.018 108.799 158.4 108.715 158.779 108.459C159.166 108.198 159.391 107.872 159.453 107.481C159.516 107.089 159.401 106.677 159.108 106.244L156.735 102.728L158.719 101.389ZM164.042 97.6936C164.8 97.1818 165.571 97.0221 166.354 97.2143C167.139 97.3935 167.822 97.9125 168.401 98.7711L170.955 102.554L168.982 103.886L166.609 100.37C166.317 99.9364 165.977 99.6757 165.591 99.5873C165.205 99.4989 164.822 99.5827 164.443 99.8386C164.064 100.094 163.843 100.418 163.781 100.809C163.718 101.2 163.833 101.613 164.126 102.046L166.499 105.562L164.515 106.901L160.144 100.426L162.128 99.087L162.708 99.9457C162.716 99.5237 162.835 99.1166 163.066 98.7244C163.291 98.3244 163.617 97.9808 164.042 97.6936ZM169.746 98.6404C169.297 97.9752 169.026 97.3076 168.935 96.6376C168.85 95.9625 168.934 95.3433 169.184 94.7801C169.434 94.217 169.826 93.7552 170.36 93.3949C170.786 93.1077 171.233 92.9355 171.701 92.8785C172.177 92.8162 172.617 92.868 173.022 93.0339L170.993 90.0286L172.977 88.6891L178.774 97.2758L176.79 98.6152L176.163 97.6869C176.186 98.1217 176.086 98.5494 175.864 98.9701C175.649 99.3855 175.313 99.7472 174.856 100.055C174.323 100.416 173.748 100.607 173.132 100.628C172.511 100.642 171.903 100.484 171.308 100.154C170.716 99.8101 170.195 99.3057 169.746 98.6404ZM174.604 95.3778C174.27 94.8827 173.867 94.5861 173.395 94.4879C172.931 94.3844 172.502 94.4658 172.108 94.7322C171.713 94.9985 171.473 95.3688 171.388 95.843C171.305 96.3042 171.431 96.7824 171.765 97.2775C172.099 97.7726 172.501 98.0757 172.97 98.1869C173.442 98.2851 173.875 98.2011 174.269 97.9348C174.664 97.6684 174.9 97.3008 174.978 96.8318C175.063 96.3576 174.938 95.8729 174.604 95.3778Z" fill="white"/>
<path d="M153.111 198.392C153.111 198.392 155.228 198.018 156.124 194.562C156.124 194.562 157.77 192.075 157.614 186.666C157.614 186.666 155.456 196.578 153.111 198.392Z" fill="#10405F"/>
<path d="M108.898 163.577H94.4546V178.021H108.898V163.577Z" fill="#FFBA55"/>
<path d="M71.4776 200.427H64.6187V207.286H71.4776V200.427Z" fill="#FE5A2C"/>
<path d="M165.224 243.008H158.365V249.867H165.224V243.008Z" fill="#FFBA55"/>
<path d="M156.271 210.612H151.424V215.459H156.271V210.612Z" fill="white"/>
<path d="M299.076 212.501H287.142V224.435H299.076V212.501Z" fill="#FFBA55"/>
<path d="M121.848 59.0869H109.915V71.0206H121.848V59.0869Z" fill="#FFBA55"/>
<path d="M140.316 33.7544H135.314V38.7569H140.316V33.7544Z" fill="#FE5A2C"/>
<path d="M315.963 153.093H306.986V162.07H315.963V153.093Z" fill="#FE5A2C"/>
<path d="M330.845 191.004H323.758V198.091H330.845V191.004Z" fill="#FE5A2C"/>
<path d="M220.928 70.7957H210.709V81.0146H220.928V70.7957Z" fill="white"/>
<path d="M221.947 32.9231H215.035V39.8351H221.947V32.9231Z" fill="#84C5C8"/>
<path d="M247.877 49.1624H233.595V63.4446H247.877V49.1624Z" fill="#FFBA55"/>
<path d="M188.829 47.1421H183.011V52.9603H188.829V47.1421Z" fill="white"/>
<path d="M187.869 71.4221H184.39V74.901H187.869V71.4221Z" fill="white"/>
<path d="M327.316 222.736H323.837V226.214H327.316V222.736Z" fill="#FFBA55"/>
<path d="M132.32 248.931H128.841V252.41H132.32V248.931Z" fill="#FFBA55"/>
<path d="M79.5431 129.317H68.1719V140.689H79.5431V129.317Z" fill="#187EB2"/>
<path d="M124.58 211.622C119.216 203.296 108.362 200.084 99.2137 204.499C89.3175 209.277 85.1665 221.172 89.944 231.069C94.7215 240.966 106.617 245.119 116.511 240.339C125.535 235.983 129.78 225.706 126.838 216.429L129.561 212.108L124.58 211.622Z" fill="#4F9999"/>
<path d="M122.585 209.491C117.303 201.112 106.481 197.793 97.2905 202.118C87.3468 206.797 83.0796 218.651 87.7593 228.595C92.4389 238.539 104.293 242.808 114.237 238.126C123.302 233.859 127.648 223.628 124.798 214.319L127.564 210.021L122.585 209.491Z" fill="#84C5C8"/>
<path d="M115.043 214.295L106.3 218.396L103.156 210.715L100.725 211.71L103.919 219.513L96.3184 223.078L97.4332 225.455L104.915 221.946L108.559 230.852L110.99 229.857L107.295 220.83L116.159 216.672L115.043 214.295Z" fill="white"/>
<path d="M336.112 110.755C326.509 113.606 320.668 123.065 322.082 132.698L318.698 136.526L323.545 137.807C327.502 146.886 337.701 151.799 347.439 148.908C357.974 145.781 363.979 134.707 360.853 124.171C357.726 113.636 346.647 107.628 336.112 110.755Z" fill="#10405F"/>
<path d="M338.005 113.31C328.371 116.067 322.44 125.468 323.759 135.115L320.34 138.909L325.169 140.235C329.037 149.354 339.186 154.366 348.952 151.575C359.517 148.557 365.632 137.536 362.608 126.974C359.585 116.412 348.57 110.285 338.005 113.31Z" fill="#187EB2"/>
<path d="M352.556 128.511L344.609 130.773L342.441 121.399L339.882 121.991L342.079 131.494L332.664 134.174L333.383 136.7L342.672 134.056L344.542 142.142L347.101 141.55L345.201 133.336L353.276 131.037L352.556 128.511Z" fill="white"/>
<path d="M142.013 173.773C137.189 177.568 136.335 179.863 137.754 181.667C139.172 183.47 143.424 180.58 148.244 176.785C153.065 172.99 159.427 167.786 158.008 165.983C156.588 164.179 146.837 169.977 142.013 173.773Z" fill="#FFCAC0"/>
<path d="M246.903 90.6582C243.783 89.4062 240.854 89.3778 240.364 90.6051C239.874 91.8324 242.005 93.8343 245.125 95.0863C248.246 96.3383 251.174 96.3667 251.664 95.1394C252.154 93.9121 250.023 91.9102 246.903 90.6582Z" fill="#911A20"/>
<path d="M255.519 102.832C256.386 101.964 255.939 100.111 254.52 98.6916C253.101 97.2727 251.248 96.8257 250.38 97.6932C249.513 98.5607 249.96 100.414 251.379 101.833C252.798 103.252 254.651 103.699 255.519 102.832Z" fill="#911A20"/>
<path d="M301.703 169.914C298.982 165.229 296.058 160.367 296.058 160.367C296.058 160.367 273.763 141.541 270.097 134.802C270.097 134.802 267.346 127.548 266.968 118.318L271.194 117.32C272.024 118.902 273.253 120.241 274.758 121.205C276.264 122.168 277.994 122.723 279.779 122.815C285.375 123.106 290.219 118.803 290.588 113.212C290.768 110.499 289.867 107.825 288.083 105.774C286.299 103.722 283.776 102.459 281.064 102.26C276.15 101.902 271.751 105.095 270.423 109.659C269.483 109.293 267.209 108.04 265.633 104.288C266.107 104.627 266.668 104.825 267.249 104.859C267.831 104.894 268.411 104.762 268.921 104.481C268.921 104.481 263.022 100.614 260.411 94.2313C257.8 87.8488 249.484 86.6883 248.033 86.8803C246.583 87.0724 239.528 89.3944 239.528 89.3944C239.528 89.3944 234.21 86.9773 232.179 88.6207C230.148 90.2641 221.929 95.3882 221.929 95.3882L217.221 102.588C216.012 104.437 215.472 106.644 215.693 108.842L216.32 115.116C216.32 115.116 216.404 115.497 216.594 116.065C215.232 117.662 213.68 121.3 213.886 123.578C214.091 125.824 216.655 128.761 217.686 129.86L211.238 138.025L209.357 139.407C208.885 139.555 208.386 139.711 207.868 139.875V120.66C207.868 120.266 207.79 119.876 207.639 119.511C207.488 119.147 207.267 118.816 206.988 118.538C206.71 118.259 206.379 118.038 206.014 117.887C205.65 117.736 205.26 117.659 204.865 117.659H189.125C188.73 117.659 188.34 117.736 187.976 117.887C187.611 118.038 187.28 118.259 187.002 118.538C186.723 118.816 186.502 119.147 186.351 119.511C186.2 119.876 186.122 120.266 186.122 120.66V129.412C185.926 129.186 185.736 129.092 185.557 129.106C184.855 129.162 184.296 130.854 183.911 132.666C183.299 135.575 179.166 140.931 178.095 141.544C177.581 141.837 175.799 145.866 174.083 149.977C171.538 151.824 169.159 153.603 168.301 154.399C166.158 156.388 159.887 163.123 158.2 163.582C156.512 164.041 141.674 170.011 141.674 170.011C141.674 170.011 138.154 176.439 138.613 180.418C138.68 180.856 138.805 181.282 138.985 181.685C137.988 184.103 137.304 186.267 136.984 187.346C136.846 187.803 136.777 188.07 136.777 188.07C135.934 190.978 138.073 195.14 138.073 195.14C138.073 195.14 142.244 195.683 145.329 195.683C146.304 195.683 147.877 195.212 149.572 194.567C152.251 196.767 154.931 198.274 156.98 198.171C159.998 198.02 161.391 195.885 162.024 193.761C162.678 193.213 168.092 188.603 169.53 185.009L169.627 184.762C169.495 185.688 169.684 186.866 171.396 186.648C173.957 186.328 178.214 184.021 181.128 181.72C181.363 181.554 181.585 181.37 181.793 181.171C182.387 180.675 182.938 180.128 183.439 179.537C183.314 180.573 183.246 181.167 183.246 181.167C182.961 183.346 182.795 185.799 182.724 188.419C180.375 200.291 186.044 231.538 186.044 231.538L224.849 224.415L224.872 224.522L231.617 223.172L253.806 219.099L253.778 219.113L266.673 216.735L265.85 206.272C265.547 200.602 265.383 193.318 265.864 186.239C268.184 187.572 273.082 190.263 275.258 190.516C278.167 190.862 286.248 194.008 286.248 194.008C286.248 194.008 290.315 199.871 293.233 198.984C295.569 198.276 302.835 194.681 305.649 193.273C306.379 192.908 306.947 192.282 307.24 191.52C308.429 188.433 311.389 180.228 310.306 177.749C309.483 175.874 305.045 172.367 301.703 169.914ZM186.122 145.144L183.47 144.59C183.893 143.19 185.325 141.01 186.122 139.863V145.144ZM218.144 130.614C218.153 130.416 218.165 130.227 218.182 130.05L218.689 128.321C218.497 129.089 218.312 129.863 218.144 130.614ZM257.872 145.491C255.996 145.386 250.122 141.731 248.893 140.955C248.993 140.779 249.092 140.603 249.191 140.428C251.466 138.762 253.652 136.978 255.739 135.082C256.268 136.804 256.89 138.164 257.612 138.766C259.99 140.748 262.566 141.342 262.566 141.342L265.56 146.949C262.523 146.284 258.995 145.553 257.872 145.491ZM264.346 113.168C264.847 113.038 268.104 112.142 270.244 110.365C270.146 110.82 270.079 111.281 270.044 111.745C269.985 112.513 270.012 113.284 270.124 114.046L266.144 114.987L264.346 113.168Z" fill="#FE5A2C"/>
<path d="M225.555 177.161C233.767 177.161 240.423 169.083 240.423 159.118C240.423 149.153 233.767 141.075 225.555 141.075C217.343 141.075 210.687 149.153 210.687 159.118C210.687 169.083 217.343 177.161 225.555 177.161Z" fill="#FFA992"/>
<path d="M213.143 133.658C213.143 133.658 209.161 152.927 215.844 157.264C222.528 161.6 230.35 156.553 230.35 156.553C217.48 156.202 213.143 133.658 213.143 133.658Z" fill="#FE5A2C"/>
<path d="M163.792 185.509C164.463 183.78 163.937 184.495 163.792 185.509Z" fill="#16A3DB"/>
<path d="M156.692 190.163L156.124 194.562L156.189 194.508C156.842 192.326 156.692 190.163 156.692 190.163Z" fill="#16A3DB"/>
<path d="M176.244 145.044C176.244 145.044 164.613 153.156 162.47 155.145C160.327 157.135 154.056 163.869 152.369 164.328C150.681 164.787 135.841 170.756 135.841 170.756C135.841 170.756 132.32 177.184 132.78 181.163C133.239 185.142 145.023 199.222 151.144 198.916C154.162 198.765 155.556 196.629 156.189 194.506L156.124 194.56L156.692 190.161C156.692 190.161 156.838 192.327 156.189 194.506C156.843 193.957 162.257 189.347 163.694 185.754L163.791 185.507C164.462 183.778 163.936 184.493 163.791 185.507C163.66 186.433 163.848 187.61 165.561 187.394C169.235 186.936 176.396 182.387 178.08 179.633C179.764 176.878 188.439 162.29 184.178 146.703L176.244 145.044Z" fill="#16A3DB"/>
<path d="M292.036 167.95L268.027 152.376C268.027 152.376 261.007 164.236 260.171 170.651C259.335 177.067 258.771 186.247 258.771 186.247C258.771 186.247 266.525 190.925 269.429 191.264C272.332 191.603 280.409 194.754 280.409 194.754C280.409 194.754 284.476 200.615 287.394 199.73C289.73 199.021 296.997 195.425 299.81 194.018C300.541 193.653 301.109 193.027 301.402 192.264C302.591 189.178 305.551 180.974 304.468 178.493C303.124 175.421 292.036 167.95 292.036 167.95Z" fill="#16A3DB"/>
<path d="M264.63 148.804C264.63 148.804 254.137 146.356 252.038 146.244C249.939 146.131 242.832 141.564 242.832 141.564C242.832 141.564 236.491 149.589 232.904 158.236C229.317 166.883 228.485 176.151 222.888 173.874C211.695 169.325 207.964 138.777 207.964 138.777C207.964 138.777 187.093 145.19 184.178 146.705C181.264 148.221 177.411 181.915 177.411 181.915C175.196 198.822 180.209 232.285 180.209 232.285L260.84 217.483C260.84 217.483 256.698 181.682 264.392 167.223C272.087 152.764 264.63 148.804 264.63 148.804Z" fill="#187EB2"/>
<path d="M213.328 158.832L214.96 170.721C214.96 170.721 218.108 181.448 217.991 183.78C217.874 186.112 216.475 198.122 216.71 199.871C216.71 199.871 221.491 188.561 221.724 186.112C221.957 183.664 221.491 173.636 221.491 173.636C221.491 173.636 220.09 164.079 213.328 158.832Z" fill="#10405F"/>
<path d="M246.441 176.555C244.692 176.555 233.849 177.954 233.849 177.954C233.849 178.238 233.888 182.662 233.933 187.805C233.974 192.435 234.025 197.648 234.052 200.954C234.06 201.858 234.415 202.725 235.044 203.374C235.673 204.024 236.527 204.407 237.43 204.445L248.643 204.911C249.028 204.927 249.413 204.894 249.79 204.814C250.794 204.598 251.696 204.05 252.351 203.259C253.906 201.386 256.163 198.514 256.466 197.306C256.933 195.441 256.466 173.753 256.466 173.753C256.466 173.753 248.191 176.555 246.441 176.555Z" fill="#FFBA55"/>
<path d="M189.778 181.96C191.343 191.49 197.71 203.661 200.056 207.911C195.793 198.798 192.867 169.849 192.867 169.849L189.778 181.96Z" fill="#10405F"/>
<path d="M200.056 207.911C200.301 208.452 200.593 208.969 200.929 209.459C200.929 209.459 200.601 208.899 200.056 207.911Z" fill="#10405F"/>
<path d="M203.836 177.612L199.172 169.148C199.698 170.025 202.677 188.252 206.533 191.933C206.537 191.933 202.609 185.849 203.836 177.612Z" fill="#10405F"/>
<path d="M227.086 178.887C227.903 176.205 233.383 159.648 232.916 156.966C232.916 156.966 230.551 148.971 227.286 154.223C224.021 159.475 221.489 173.645 221.489 173.645C221.489 173.645 219.974 186.936 219.623 188.686C219.273 190.435 216.476 198.13 216.359 205.009C216.241 211.888 219.041 225.276 219.041 225.276L228.151 223.455C228.151 223.455 223.239 206.993 224.521 197.197C225.803 187.402 226.27 181.568 227.086 178.887Z" fill="#4CBFBC"/>
<path d="M224.022 178.707C223.821 178.706 223.624 178.766 223.457 178.878C223.29 178.989 223.159 179.148 223.082 179.334C223.005 179.52 222.985 179.724 223.024 179.922C223.063 180.119 223.16 180.3 223.302 180.443C223.445 180.585 223.626 180.682 223.823 180.721C224.021 180.76 224.225 180.74 224.411 180.663C224.597 180.586 224.756 180.455 224.867 180.288C224.979 180.121 225.038 179.924 225.038 179.723C225.038 179.589 225.012 179.457 224.961 179.334C224.91 179.21 224.835 179.098 224.741 179.004C224.646 178.91 224.534 178.835 224.411 178.784C224.288 178.733 224.156 178.707 224.022 178.707Z" fill="white"/>
<path d="M224.023 178.581C223.797 178.581 223.576 178.648 223.388 178.773C223.2 178.899 223.053 179.077 222.967 179.286C222.88 179.495 222.857 179.725 222.901 179.946C222.945 180.168 223.054 180.371 223.214 180.531C223.374 180.691 223.577 180.8 223.799 180.844C224.021 180.888 224.25 180.865 224.459 180.779C224.668 180.692 224.846 180.546 224.972 180.358C225.097 180.17 225.164 179.949 225.164 179.723C225.163 179.42 225.043 179.13 224.829 178.916C224.615 178.702 224.325 178.582 224.023 178.581ZM224.023 180.614C223.846 180.614 223.674 180.562 223.527 180.464C223.38 180.367 223.266 180.227 223.198 180.064C223.13 179.902 223.113 179.722 223.147 179.549C223.181 179.376 223.266 179.217 223.391 179.092C223.515 178.968 223.674 178.883 223.847 178.848C224.02 178.814 224.2 178.831 224.363 178.899C224.526 178.966 224.665 179.08 224.763 179.227C224.861 179.374 224.913 179.546 224.913 179.723C224.913 179.959 224.819 180.185 224.652 180.353C224.485 180.52 224.259 180.614 224.023 180.614Z" fill="black"/>
<path d="M221.966 197.638C222.527 197.638 222.982 197.183 222.982 196.622C222.982 196.061 222.527 195.606 221.966 195.606C221.405 195.606 220.95 196.061 220.95 196.622C220.95 197.183 221.405 197.638 221.966 197.638Z" fill="white"/>
<path d="M221.965 195.481C221.74 195.481 221.519 195.548 221.331 195.673C221.143 195.799 220.997 195.977 220.91 196.186C220.824 196.395 220.801 196.625 220.845 196.846C220.889 197.068 220.998 197.271 221.158 197.431C221.318 197.591 221.522 197.699 221.743 197.743C221.965 197.787 222.195 197.765 222.403 197.678C222.612 197.591 222.79 197.445 222.916 197.257C223.041 197.069 223.108 196.848 223.108 196.622C223.107 196.319 222.987 196.029 222.773 195.815C222.558 195.601 222.268 195.481 221.965 195.481ZM221.965 197.514C221.789 197.514 221.617 197.461 221.47 197.363C221.323 197.265 221.209 197.126 221.142 196.963C221.074 196.8 221.057 196.621 221.091 196.448C221.125 196.275 221.21 196.116 221.335 195.992C221.46 195.867 221.619 195.782 221.792 195.748C221.964 195.713 222.144 195.731 222.307 195.798C222.47 195.866 222.609 195.98 222.707 196.127C222.805 196.273 222.857 196.446 222.857 196.622C222.857 196.858 222.763 197.085 222.596 197.252C222.429 197.419 222.202 197.513 221.965 197.514Z" fill="black"/>
<path d="M221.913 210.698C221.712 210.698 221.515 210.758 221.348 210.869C221.181 210.981 221.051 211.14 220.975 211.326C220.898 211.511 220.878 211.716 220.917 211.913C220.956 212.11 221.053 212.291 221.195 212.433C221.337 212.575 221.519 212.671 221.716 212.71C221.913 212.75 222.117 212.729 222.303 212.652C222.488 212.576 222.647 212.445 222.758 212.278C222.87 212.111 222.93 211.915 222.93 211.714C222.93 211.58 222.903 211.448 222.852 211.325C222.801 211.201 222.726 211.089 222.632 210.995C222.537 210.9 222.425 210.826 222.302 210.775C222.178 210.724 222.046 210.698 221.913 210.698Z" fill="white"/>
<path d="M221.912 210.572C221.687 210.572 221.466 210.639 221.278 210.765C221.091 210.89 220.944 211.068 220.858 211.277C220.771 211.485 220.749 211.715 220.793 211.936C220.837 212.158 220.946 212.361 221.105 212.521C221.265 212.68 221.468 212.789 221.69 212.833C221.911 212.877 222.141 212.854 222.349 212.768C222.558 212.682 222.736 212.535 222.861 212.348C222.987 212.16 223.054 211.939 223.054 211.714C223.053 211.411 222.933 211.121 222.719 210.907C222.505 210.693 222.215 210.573 221.912 210.572ZM221.912 212.604C221.736 212.604 221.564 212.552 221.418 212.454C221.271 212.356 221.157 212.217 221.09 212.054C221.023 211.891 221.005 211.712 221.04 211.539C221.074 211.367 221.159 211.208 221.284 211.083C221.408 210.959 221.567 210.874 221.74 210.84C221.913 210.806 222.092 210.823 222.254 210.891C222.417 210.958 222.556 211.072 222.654 211.219C222.752 211.365 222.804 211.537 222.804 211.714C222.804 211.95 222.71 212.176 222.543 212.344C222.375 212.511 222.149 212.604 221.912 212.604Z" fill="black"/>
<path d="M245.633 110.076L252.655 119.74L251.195 113.483L245.633 110.076Z" fill="white"/>
<path d="M245.699 109.97L245.568 110.184L251.085 113.563L252.533 119.769L252.777 119.712L251.305 113.405L245.699 109.97Z" fill="black"/>
<path d="M233.845 177.954L233.813 186.476C237.643 190.217 256.693 182.89 256.693 182.89L256.499 173.437C252.319 175.998 233.845 177.954 233.845 177.954Z" fill="#4CBFBC"/>
<path d="M226.39 158.617C226.39 158.617 221.962 168.894 221.489 173.64C221.489 173.64 227.982 158.162 232.882 160.362L233.116 156.948L230.678 155.109L226.39 158.617Z" fill="#268782"/>
<path d="M232.776 160.992L235.506 167.394C235.506 167.394 242.699 160.621 244.537 142.61L242.78 141.584L232.776 160.992Z" fill="#10405F"/>
<path d="M227.553 153.701C226.037 155.683 221.608 170.842 221.489 173.638C221.489 173.638 224.804 159.488 229.464 156.378C229.707 156.216 229.981 156.107 230.269 156.057C230.557 156.007 230.852 156.018 231.135 156.088C231.419 156.158 231.684 156.287 231.916 156.465C232.147 156.644 232.338 156.869 232.477 157.125C233.564 159.137 235.55 162.954 235.969 164.796C235.969 164.796 242.43 148.799 243.011 141.686C243.013 141.688 229.068 151.721 227.553 153.701Z" fill="#4CBFBC"/>
<path d="M259.249 107.041L259.151 106.877C258.676 107.198 257.851 107.777 259.249 107.041Z" fill="#FE5A2C"/>
<path d="M259.151 106.877L259.249 107.041C257.851 107.773 258.677 107.198 259.151 106.877C258.673 106.066 256.499 102.279 254.194 96.6457C251.587 90.2641 243.265 89.1035 241.815 89.2965C240.366 89.4895 233.306 91.8106 233.306 91.8106C233.306 91.8106 227.987 89.3935 225.957 91.0369C223.926 92.6803 215.706 97.8044 215.706 97.8044L210.667 107.416L213.085 117.443C213.085 117.443 211.879 120.852 215.132 121.537C215.132 121.537 220.277 120.75 221.148 119.782C222.019 118.815 223.027 110.968 223.027 110.968C223.027 110.968 224.43 108.422 227.531 107.901C230.151 109.939 235.737 113.929 241.307 115.646C242.761 116.081 244.284 116.236 245.795 116.103C247.781 118.481 249.308 121.535 248.968 125.17C248.097 134.453 244.687 139.355 244.687 139.355C244.687 139.355 254.764 133.424 257.375 125.688C259.986 117.952 258.057 115.597 258.057 115.597C258.057 115.597 258.026 110.666 260.083 108.267C259.913 107.883 259.694 107.372 259.411 106.7L259.151 106.877Z" fill="#FE5A2C"/>
<path d="M260.087 108.269C261.137 110.647 260.252 108.086 260.252 108.086C260.195 108.146 260.14 108.207 260.087 108.269Z" fill="#FE5A2C"/>
<path d="M233.845 177.954C248.619 178.817 256.499 173.437 256.499 173.437C246.581 172.357 233.845 177.954 233.845 177.954Z" fill="#10405F"/>
<path d="M163.694 185.756C163.146 189.341 165.561 187.395 165.561 187.395C168.879 182.933 167.372 174.764 167.372 174.764C166.902 179.133 163.694 185.756 163.694 185.756Z" fill="#10405F"/>
<path d="M275.138 183.463C275.562 186.773 277.045 189.911 278.875 192.67C279.332 193.366 279.789 194.11 280.272 194.847C281.405 196.585 282.669 198.293 284.462 199.26C287.506 200.907 291.564 197.859 291.564 197.859C282.916 198.874 275.138 183.463 275.138 183.463Z" fill="#10405F"/>
<path d="M269.429 191.267C269.429 191.267 270.576 193.842 273.421 192.182C273.421 192.182 271.88 190.048 271.465 183.585C271.465 183.587 267.987 188.87 269.429 191.267Z" fill="#10405F"/>
<path d="M196.25 162.743L194.674 162.615C195.197 162.687 195.723 162.73 196.25 162.743Z" fill="#FE5A2C"/>
<path d="M247.151 181.904C248.047 181.904 248.773 181.177 248.773 180.281C248.773 179.385 248.047 178.659 247.151 178.659C246.255 178.659 245.528 179.385 245.528 180.281C245.528 181.177 246.255 181.904 247.151 181.904Z" fill="white"/>
<path d="M205.399 138.777L203.341 140.289L200.012 148.279L208.169 154.771L211.165 163.76L217.824 171.25L212.33 152.44L205.399 138.777Z" fill="#10405F"/>
<path d="M215.193 150.203C215.193 150.203 211.296 133.624 212.541 129.73L205.403 138.777L202.934 147.282L210.538 153.937L212.628 162.329C212.628 162.329 220.811 172.34 222.5 177.725C221.781 174.159 219.827 165.385 217.175 160.813C213.794 154.984 215.193 150.203 215.193 150.203Z" fill="#4CBFBC"/>
<path d="M222.505 177.726C222.703 178.708 222.808 179.299 222.808 179.299C222.779 178.763 222.677 178.234 222.505 177.726Z" fill="#4CBFBC"/>
<path d="M215.063 150.089C215.147 150.165 215.194 150.203 215.194 150.203C215.159 150.119 215.125 150.035 215.091 149.95C215.142 149.708 215.202 149.47 215.274 149.235L214.599 148.67C210.898 138.588 212.274 131.053 212.274 131.053C208.075 137.854 210.165 143.55 212.384 146.917C212.466 147.948 213.136 156.063 214.396 157.927C215.743 159.915 220.798 171.606 221.236 174.706L221.539 173.224C221.539 173.224 218.704 161.667 216.143 158.938C216.148 158.938 214.268 154.177 215.063 150.089Z" fill="#268782"/>
<path d="M271.948 164.738C272.999 163.358 273.674 162.543 273.674 162.543L267.754 159.913C259.976 170.747 260.038 187.275 260.19 186.55C261.013 182.628 263.14 178.238 265.47 174.296C265.875 174.046 268.446 170.303 270.875 172.998C274.042 179.182 279.885 189.898 282.686 190.61C286.637 191.616 276.239 165.893 276.239 165.893L271.948 164.738Z" fill="#10405F"/>
<path d="M214.549 123.31C214.549 123.327 214.54 123.345 214.535 123.36L214.549 123.31Z" fill="#FFA992"/>
<path d="M214.534 123.36C214.53 123.376 214.526 123.39 214.521 123.405C214.525 123.391 214.53 123.376 214.534 123.36Z" fill="#FFA992"/>
<path d="M214.569 123.239C214.569 123.253 214.562 123.267 214.558 123.281C214.562 123.266 214.566 123.253 214.569 123.239Z" fill="#FFA992"/>
<path d="M214.559 123.279C214.559 123.291 214.552 123.304 214.548 123.317C214.549 123.301 214.555 123.289 214.559 123.279Z" fill="#FFA992"/>
<path d="M214.606 123.105C214.599 123.13 214.592 123.156 214.583 123.184C214.591 123.158 214.598 123.133 214.606 123.105Z" fill="#FFA992"/>
<path d="M214.585 123.187C214.585 123.202 214.576 123.216 214.573 123.229C214.577 123.211 214.581 123.196 214.585 123.187Z" fill="#FFA992"/>
<path d="M214.609 123.096V123.108C214.609 123.104 214.609 123.1 214.609 123.096Z" fill="#FFA992"/>
<path d="M214.64 122.985L214.618 123.066C214.626 123.032 214.635 123.004 214.64 122.985Z" fill="#FFA992"/>
<path d="M214.429 123.736C214.424 123.753 214.421 123.767 214.417 123.779C214.421 123.762 214.424 123.748 214.429 123.736Z" fill="#FFA992"/>
<path d="M214.521 123.405C214.521 123.42 214.513 123.434 214.509 123.448C214.513 123.434 214.518 123.42 214.521 123.405Z" fill="#FFA992"/>
<path d="M211.665 116.071C210.225 116.62 207.792 121.514 208.048 124.33C208.304 127.147 212.273 131.052 212.273 131.052L214.651 122.954C215.199 121.002 213.105 115.527 211.665 116.071Z" fill="#FFA992"/>
<path d="M214.509 123.447C214.497 123.491 214.485 123.539 214.474 123.576C214.484 123.538 214.496 123.495 214.509 123.447Z" fill="#FFA992"/>
<path d="M214.474 123.575L214.457 123.635C214.462 123.615 214.468 123.595 214.474 123.575Z" fill="#FFA992"/>
<path d="M214.457 123.645C214.449 123.677 214.441 123.703 214.435 123.725L214.457 123.645Z" fill="#FFA992"/>
<path d="M242.614 108.907C232.883 101.609 220.533 99.5502 214.92 121.631C214.92 121.631 211.364 133.232 211.552 136.601C211.739 139.969 215.253 151.332 216.75 152.642C217.808 153.568 221.757 155.68 224.125 156.355C225.207 156.663 226.364 156.578 227.39 156.116C230.343 154.787 236.536 151.704 239.059 148.201C242.426 143.524 248.602 131.361 248.602 131.361C248.602 131.361 252.344 116.204 242.614 108.907Z" fill="#FFA992"/>
<path d="M210.047 125.068L212.409 124.242L211.582 121.29L210.047 125.068Z" fill="#FE5A2C"/>
<path d="M237.736 201.145C237.572 199.671 237.791 188.546 237.791 188.546C237.327 187.928 235.462 187.801 233.933 187.805C233.974 192.436 234.025 197.648 234.052 200.954C234.06 201.858 234.415 202.725 235.044 203.374C235.673 204.024 236.527 204.407 237.43 204.445L248.642 204.912C249.028 204.927 249.413 204.895 249.79 204.814C250.206 204.672 250.441 204.581 250.441 204.581C242.208 204.362 237.899 202.617 237.736 201.145Z" fill="#FE5A2C"/>
<path d="M233.809 184.93L233.869 188.284C235.475 189.704 239.857 188.155 243.463 187.591C250.2 186.537 256.697 184.489 256.697 184.489L256.648 180.174C250.25 183.912 233.809 184.93 233.809 184.93Z" fill="#268782"/>
<path d="M177.553 180.016C179.607 177.418 179.607 154.282 179.607 154.282C179.366 164.068 174.17 182.915 174.17 182.915C175.681 182.855 177.553 180.016 177.553 180.016Z" fill="#10405F"/>
<path d="M199.027 118.407H183.292C181.634 118.407 180.29 119.751 180.29 121.409V157.988C180.29 159.646 181.634 160.99 183.292 160.99H199.027C200.686 160.99 202.03 159.646 202.03 157.988V121.409C202.03 119.751 200.686 118.407 199.027 118.407Z" fill="black"/>
<path d="M203.345 157.793C203.345 157.793 193.549 159.154 192.096 159.244C190.893 159.319 190.376 157.651 190.698 156.459C190.758 156.221 190.863 155.997 191.007 155.797C191.823 154.709 199.532 153.259 199.532 153.259L206.608 150.357C207.173 149.643 207.542 149.09 207.765 148.664C208.906 146.494 206.244 147.635 206.244 147.635L196.811 149.631C196.811 149.631 189.328 151.412 187.439 150.87C187.198 150.8 187.048 150.693 187.017 150.538C186.742 149.177 190.645 145.459 190.645 145.459C190.645 145.459 198.081 142.828 199.714 140.924C200.49 140.018 201.021 138.968 201.227 138.205C201.453 137.362 201.286 136.868 200.62 137.296C199.351 138.112 192.458 140.379 192.458 140.379L186.109 143.464C186.109 143.464 180.319 146.525 178.26 146.605C177.915 146.617 177.676 146.548 177.584 146.366C176.949 145.096 180.833 139.843 180.833 139.843C180.833 139.843 182.515 135.864 181.138 131.887C180.619 130.389 180.144 129.823 179.72 129.858C179.019 129.913 178.459 131.605 178.074 133.418C177.462 136.326 173.33 141.683 172.259 142.294C171.188 142.906 164.615 159.739 164.615 159.739C164.615 159.739 145.79 168.921 140.128 172.288C135.266 175.179 131.988 185.291 131.153 188.092C131.015 188.55 130.946 188.817 130.946 188.817C130.103 191.725 132.242 195.886 132.242 195.886C132.242 195.886 136.414 196.435 139.498 196.435C142.581 196.435 151.65 191.718 151.65 191.718C157.273 186.004 169.155 171.13 169.155 171.13C169.155 171.13 169.311 170.281 172.848 170.916C176.384 171.552 186.84 168.318 188.473 167.593C190.107 166.868 192.645 165.78 193.915 165.416C195.184 165.052 198.813 164.691 198.813 164.691L199.65 163.615L200.082 163.058L196.252 162.748L194.677 162.62L193.368 162.512C193.368 162.512 193.575 162.503 193.938 162.482C196.101 162.363 203.84 161.864 206.791 160.698C207.58 160.387 208.13 160.058 208.511 159.734C209.797 158.636 209.151 157.615 209.151 157.615L203.345 157.793Z" fill="#FFA992"/>
<path d="M192.015 163.954C174.822 168.029 168.956 166.936 168.956 166.936C168.956 166.936 160.908 180.552 148.779 187.61C141.026 192.121 134.755 190.068 131.15 188.092C131.013 188.55 130.943 188.817 130.943 188.817C130.1 191.725 132.239 195.886 132.239 195.886C132.239 195.886 136.411 196.435 139.495 196.435C142.579 196.435 151.647 191.719 151.647 191.719C157.271 186.005 169.152 171.131 169.152 171.131C169.152 171.131 169.804 170.171 173.34 170.806C176.877 171.441 186.839 168.318 188.471 167.593C190.103 166.868 192.643 165.78 193.912 165.416C195.182 165.052 198.811 164.691 198.811 164.691L199.647 163.615C197.473 163.212 194.946 163.259 192.015 163.954Z" fill="#FE5A2C"/>
<path d="M179.724 129.855C180.302 132.331 180.848 135.873 179.916 137.971C178.798 140.486 176.769 144.372 175.734 146.318C175.675 146.43 175.649 146.557 175.661 146.684C175.673 146.81 175.721 146.93 175.8 147.029C175.879 147.129 175.985 147.203 176.105 147.242C176.226 147.282 176.355 147.286 176.478 147.253C177.09 147.087 177.687 146.87 178.263 146.605C177.918 146.617 177.679 146.548 177.587 146.366C176.953 145.096 180.836 139.844 180.836 139.844C180.836 139.844 182.518 135.864 181.141 131.887C180.62 130.386 180.147 129.82 179.724 129.855Z" fill="#FE5A2C"/>
<path d="M185.801 150.032V150.05C185.836 150.22 185.908 150.381 186.013 150.521C186.118 150.66 186.253 150.773 186.408 150.853C186.563 150.933 186.734 150.977 186.908 150.982C187.082 150.987 187.255 150.952 187.415 150.881L187.439 150.87C187.198 150.8 187.048 150.692 187.017 150.538C186.742 149.177 190.645 145.459 190.645 145.459C190.645 145.459 198.082 142.828 199.714 140.923C200.49 140.018 201.021 138.968 201.227 138.205C199.152 139.485 195.627 141.27 192.022 142.892C187.204 145.064 185.801 150.032 185.801 150.032Z" fill="#FE5A2C"/>
<path d="M190.01 155.227C189.914 155.343 189.855 155.485 189.84 155.635C189.826 155.786 189.856 155.937 189.928 156.069C190 156.202 190.109 156.31 190.243 156.38C190.377 156.45 190.528 156.478 190.678 156.462H190.701C190.761 156.224 190.866 156 191.01 155.8C191.826 154.712 199.535 153.262 199.535 153.262L206.611 150.36C207.176 149.646 207.545 149.093 207.768 148.667L200.227 151.53C193.479 152.471 190.954 154.076 190.01 155.227Z" fill="#FE5A2C"/>
<path d="M192.266 161.804C192.707 162.109 193.272 162.329 193.938 162.479C196.102 162.36 203.84 161.861 206.792 160.696C207.58 160.385 208.13 160.056 208.511 159.731C202.047 158.973 192.266 161.804 192.266 161.804Z" fill="#FE5A2C"/>
<path d="M216.842 107.634L214.868 121.662C214.868 121.662 221.794 119.301 222.89 115.825C223.986 112.349 224.366 108.777 224.366 108.777L227.535 107.901C227.535 107.901 239.319 119.921 250.939 114.253L225.891 101.724L216.842 107.634Z" fill="#FE5A2C"/>
<path d="M259.8 105.037C260.274 105.375 260.834 105.573 261.416 105.608C261.997 105.642 262.577 105.511 263.088 105.23C263.088 105.23 257.189 101.362 254.578 94.9794C251.967 88.5969 243.65 87.4373 242.2 87.6303C240.749 87.8232 233.695 90.1443 233.695 90.1443C233.695 90.1443 228.377 87.7272 226.345 89.3706C224.314 91.014 216.095 96.1381 216.095 96.1381L211.383 103.342C210.174 105.191 209.635 107.398 209.855 109.595L210.482 115.869C210.482 115.869 211.614 120.98 214.872 121.664C214.872 121.664 219.479 118.77 220.349 117.803C221.219 116.837 222.283 109.1 222.283 109.1C222.283 109.1 224.822 106.758 227.923 106.236C230.543 108.275 236.128 112.265 241.699 113.982C243.153 114.417 244.676 114.572 246.187 114.439C248.173 116.817 249.701 119.87 249.36 123.505C248.489 132.789 242.784 141.589 242.784 141.589C242.784 141.589 255.839 132.499 258.45 124.762C261.061 117.025 258.45 113.931 258.45 113.931C258.45 113.931 262.801 112.868 265.025 110.547C265.022 110.548 261.83 109.872 259.8 105.037Z" fill="#621112"/>
<path d="M275.23 103.009C269.596 102.598 264.639 106.861 264.21 112.494C264.151 113.261 264.178 114.033 264.291 114.795L240.84 120.335C240.37 120.447 239.963 120.74 239.708 121.152C239.454 121.563 239.373 122.059 239.482 122.53C239.531 122.735 239.619 122.929 239.743 123.1C239.866 123.271 240.022 123.416 240.201 123.527C240.381 123.637 240.58 123.712 240.789 123.746C240.997 123.779 241.21 123.772 241.415 123.723L265.361 118.066C266.191 119.648 267.42 120.987 268.925 121.951C270.43 122.915 272.161 123.47 273.946 123.561C279.542 123.852 284.385 119.55 284.754 113.959C284.934 111.246 284.033 108.572 282.249 106.521C280.465 104.47 277.942 103.207 275.23 103.009Z" fill="black"/>
<path d="M282.581 113.663C282.766 109.148 279.255 105.339 274.741 105.154C270.226 104.97 266.416 108.48 266.232 112.995C266.048 117.509 269.558 121.319 274.073 121.503C278.587 121.688 282.397 118.177 282.581 113.663Z" fill="white"/>
<path d="M300.233 178.555C298.747 175.285 290.224 161.116 290.224 161.116C290.224 161.116 267.93 142.289 264.264 135.551C264.264 135.551 260.994 126.93 261.093 116.529L258.498 113.904L253.364 108.8L245.042 105.431L238.304 103.845C238.304 103.845 238.304 104.935 240.285 106.817C242.236 108.671 245.723 110.141 245.832 110.186L238.967 108.681C238.964 109.038 238.983 109.396 239.023 109.751C239.115 110.618 239.383 111.733 240.089 111.969C241.278 112.365 245.044 114.545 245.044 114.545C245.044 114.545 247.124 118.806 247.62 123.067C248.116 127.327 249.403 137.534 251.781 139.514C254.159 141.495 256.736 142.092 256.736 142.092C256.736 142.092 272.292 171.223 273.779 173.998C275.266 176.772 280.715 188.465 281.508 189.653C282.301 190.841 292.407 194.509 296.173 193.815C296.24 193.802 296.307 193.79 296.373 193.776C297.855 193.467 299.181 192.645 300.117 191.455C301.052 190.265 301.538 188.783 301.489 187.269C301.389 184.333 301.093 180.448 300.233 178.555Z" fill="#FFA992"/>
<path d="M287.752 188.254C286.024 188.163 262.857 146.027 260.582 142.752C258.308 139.477 254.307 139.386 253.306 134.839C252.306 130.292 250.305 116.741 249.032 114.648C248.209 113.295 243.728 111.293 239.021 109.751C239.112 110.618 239.38 111.733 240.086 111.969C241.275 112.365 245.041 114.545 245.041 114.545C245.041 114.545 247.121 118.806 247.617 123.067C248.113 127.327 249.4 137.533 251.778 139.514C254.156 141.495 256.733 142.092 256.733 142.092C256.733 142.092 272.289 171.223 273.776 173.998C275.263 176.772 280.712 188.465 281.505 189.653C282.298 190.841 292.404 194.509 296.17 193.815C296.237 193.802 296.304 193.79 296.37 193.776C297.71 193.502 298.927 192.805 299.842 191.789C300.757 190.772 301.323 189.489 301.456 188.128C296.269 194.429 289.227 188.332 287.752 188.254Z" fill="#FE5A2C"/>
<path d="M238.303 103.843C238.303 103.843 238.805 108.028 247.785 110.868C247.785 110.868 251.145 112.557 252.333 114.966C253.521 117.376 253.653 119.061 253.653 119.061C253.653 119.061 253.423 114.603 252.333 112.659C251.242 110.715 239.857 106.388 238.303 103.843Z" fill="#FE5A2C"/>
<path d="M253.364 108.798L257.114 114.231L259.601 119.391L259.204 116.684C258.639 115.297 253.364 108.798 253.364 108.798Z" fill="#FE5A2C"/>
<path d="M248.044 106.669C254.483 111.291 257.153 118.466 257.153 118.466L256.196 115.661C253.885 108.925 248.044 106.669 248.044 106.669Z" fill="#FE5A2C"/>
<g opacity="0.65">
<path d="M221.476 138.607C222.868 136.356 222.171 133.403 219.92 132.011C217.668 130.62 214.715 131.317 213.324 133.568C211.932 135.819 212.629 138.773 214.881 140.164C217.132 141.556 220.085 140.859 221.476 138.607Z" fill="#FE5A2C"/>
</g>
<g opacity="0.65">
<path d="M236.503 146.638C239.15 146.638 241.295 144.492 241.295 141.845C241.295 139.199 239.15 137.053 236.503 137.053C233.856 137.053 231.711 139.199 231.711 141.845C231.711 144.492 233.856 146.638 236.503 146.638Z" fill="#FE5A2C"/>
</g>
<path d="M245.242 125.828C242.017 124.562 238.436 124.543 235.197 125.775C234.899 125.89 235.029 126.374 235.331 126.258C238.482 125.054 241.97 125.073 245.109 126.31C245.409 126.429 245.539 125.945 245.242 125.828Z" fill="black"/>
<path d="M221.76 118.424C221.441 118.384 221.443 118.882 221.76 118.926C225.449 119.383 228.753 121.792 230.363 125.133C230.503 125.423 230.934 125.17 230.795 124.88C229.103 121.367 225.622 118.904 221.76 118.424Z" fill="black"/>
<path d="M221.994 121.059C220.54 121.059 219.119 121.49 217.91 122.298C216.701 123.106 215.759 124.254 215.203 125.597C214.646 126.94 214.501 128.418 214.784 129.844C215.068 131.27 215.768 132.58 216.796 133.608C217.824 134.636 219.134 135.336 220.56 135.62C221.986 135.903 223.464 135.758 224.807 135.202C226.15 134.645 227.298 133.703 228.106 132.494C228.914 131.285 229.345 129.864 229.345 128.41C229.343 126.461 228.568 124.592 227.19 123.214C225.812 121.836 223.943 121.061 221.994 121.059ZM221.994 135.093C220.672 135.092 219.381 134.7 218.282 133.966C217.183 133.232 216.327 132.188 215.821 130.967C215.315 129.746 215.183 128.402 215.441 127.106C215.699 125.81 216.335 124.619 217.27 123.685C218.205 122.75 219.395 122.114 220.692 121.856C221.988 121.598 223.331 121.731 224.552 122.236C225.773 122.742 226.817 123.599 227.551 124.698C228.286 125.796 228.677 127.088 228.677 128.41C228.676 130.182 227.971 131.881 226.718 133.133C225.465 134.386 223.766 135.091 221.994 135.093Z" fill="white"/>
<path d="M238.032 126.406C236.578 126.406 235.157 126.837 233.948 127.644C232.739 128.452 231.797 129.6 231.241 130.943C230.684 132.287 230.539 133.765 230.822 135.191C231.106 136.617 231.806 137.926 232.834 138.954C233.862 139.983 235.172 140.683 236.598 140.966C238.024 141.25 239.502 141.104 240.845 140.548C242.188 139.992 243.337 139.049 244.144 137.841C244.952 136.632 245.383 135.21 245.383 133.757C245.381 131.808 244.606 129.939 243.228 128.561C241.85 127.183 239.981 126.407 238.032 126.406ZM238.032 140.439C236.71 140.439 235.418 140.047 234.32 139.313C233.221 138.579 232.364 137.535 231.858 136.314C231.353 135.093 231.22 133.749 231.478 132.453C231.736 131.157 232.372 129.966 233.307 129.031C234.241 128.097 235.432 127.46 236.728 127.202C238.025 126.945 239.368 127.077 240.589 127.583C241.81 128.088 242.854 128.945 243.588 130.044C244.323 131.143 244.715 132.435 244.715 133.757C244.713 135.528 244.008 137.227 242.755 138.48C241.502 139.732 239.804 140.437 238.032 140.439Z" fill="white"/>
<path d="M226.992 141.554L228.573 136.333L226.354 137.894L226.992 141.554Z" fill="#FE5A2C"/>
<path d="M225.849 145.555C225.258 145.428 224.343 145.45 223.402 145.53C221.645 145.68 219.799 146.039 219.799 146.039L229.239 150.155C228.846 149.205 228.376 148.29 227.831 147.419C227.25 146.517 226.55 145.706 225.849 145.555Z" fill="black"/>
<path d="M237.613 130.778C237.238 130.629 236.472 131.672 235.9 133.108C235.329 134.544 235.169 135.829 235.544 135.978C235.919 136.127 236.685 135.083 237.256 133.648C237.828 132.212 237.988 130.93 237.613 130.778Z" fill="black"/>
<path d="M221.173 125.133C220.79 125.004 220.08 126.086 219.585 127.55C219.09 129.014 218.998 130.306 219.379 130.435C219.761 130.564 220.472 129.482 220.968 128.019C221.463 126.555 221.555 125.263 221.173 125.133Z" fill="black"/>
<path d="M229.22 129.813L228.938 130.418L231.071 131.414L231.353 130.808L229.22 129.813Z" fill="white"/>
<path d="M225.85 145.555C225.258 145.428 224.343 145.45 223.402 145.53C224.638 146.619 226.191 147.281 227.831 147.418C227.25 146.517 226.55 145.706 225.85 145.555Z" fill="white"/>
<path d="M278.599 155.7C276.878 157.219 280.976 160.547 285.038 165.152C289.099 169.758 295.574 181.108 297.293 179.59C299.011 178.072 290.079 165.225 286.017 160.623C281.956 156.021 280.319 154.182 278.599 155.7Z" fill="#FFCAC0"/>
<path d="M271.963 149.1C271.257 149.686 271.516 151.164 272.542 152.399C273.568 153.635 274.972 154.161 275.679 153.575C276.386 152.989 276.125 151.512 275.099 150.276C274.073 149.039 272.669 148.513 271.963 149.1Z" fill="#FFCAC0"/>
<path d="M177.368 150.423C172.722 150.423 168.644 153.829 168.644 156.238C168.644 158.647 173.241 155.2 177.886 155.2C182.531 155.2 184.844 155.428 184.844 153.019C184.844 150.61 182.013 150.423 177.368 150.423Z" fill="#FFCAC0"/>
<path d="M257.523 119.954C255.67 119.961 258.334 123.489 258.347 127.064C258.359 130.639 258.187 132.418 260.041 132.412C261.895 132.407 261.161 130.561 261.149 126.987C261.137 123.413 259.377 119.949 257.523 119.954Z" fill="#FFCAC0"/>
<path d="M213.555 120.524L213.049 120.962L216.064 124.44L216.569 124.003L213.555 120.524Z" fill="white"/>
<path d="M244.755 134.949C244.768 134.941 244.782 134.935 244.796 134.929L245.044 135.549C245.117 135.52 245.288 135.451 247.573 133.111L247.095 132.644C246.077 133.686 244.924 134.833 244.755 134.949Z" fill="white"/>
<path d="M254.801 149.487C250.075 148.372 246.158 147.727 245.527 150.402C244.896 153.077 248.509 154.124 253.233 155.239C257.958 156.353 261.582 159.024 262.213 156.35C262.844 153.676 259.526 150.603 254.801 149.487Z" fill="#16A3DB"/>
<path d="M199.698 223.532C181.579 221.811 177.025 188.558 177.025 188.558C174.342 199.928 180.214 232.289 180.214 232.289L215.275 225.582C207.324 226.402 199.698 223.532 199.698 223.532Z" fill="#16A3DB"/>
<path d="M253.63 187.362C252.624 187.362 252.735 189.739 252.735 193.086C252.735 196.432 252.625 199.487 253.63 199.487C254.634 199.487 255.449 196.772 255.449 193.423C255.449 190.074 254.635 187.362 253.63 187.362Z" fill="#FFD399"/>
<path d="M247.947 219.864L260.842 217.486L259.852 204.908C259.852 204.908 256.062 215.664 247.947 219.864Z" fill="#FE5A2C"/>
<path d="M202.257 95.1751C202.124 94.9757 201.992 94.7754 201.86 94.5742C201.752 94.7736 201.644 94.9729 201.539 95.1751H202.257Z" fill="black"/>
<path d="M207.331 88.0273C207.25 87.7374 206.848 87.6066 206.635 87.8444C204.788 89.8952 203.185 92.154 201.861 94.5753C201.991 94.7765 202.124 94.9768 202.258 95.1761H201.539C201.644 94.974 201.752 94.7747 201.861 94.5753C199.962 91.6683 198.339 88.59 197.014 85.3806C196.813 84.8923 196.008 85.1063 196.211 85.6019C197.65 89.1025 199.436 92.4504 201.541 95.5959C201.705 95.841 202.106 95.8895 202.259 95.5959C203.494 93.2274 204.998 91.0093 206.741 88.9857C206.671 88.7406 206.599 88.4955 206.531 88.2486L207.227 88.4315C207.063 88.6144 206.9 88.7973 206.741 88.9802C207.678 92.2702 208.803 95.5038 210.111 98.6651C210.313 99.1525 211.117 98.9394 210.913 98.4438C209.506 95.0484 208.31 91.5696 207.331 88.0273Z" fill="black"/>
<path d="M206.527 88.2522C206.595 88.4991 206.667 88.7442 206.737 88.9893C206.897 88.8064 207.059 88.6235 207.223 88.4406L206.527 88.2522Z" fill="black"/>
<path d="M202.344 103.433C202.512 103.616 202.682 103.806 202.852 103.991C202.91 103.743 202.972 103.496 203.039 103.25L202.344 103.433Z" fill="black"/>
<path d="M202.131 107.674C201.931 107.559 201.732 107.442 201.534 107.323C201.52 107.559 201.51 107.796 201.506 108.033L202.131 107.674Z" fill="black"/>
<path d="M207.335 107.183C205.781 105.826 204.31 104.376 202.932 102.841C202.72 102.604 202.317 102.735 202.237 103.024C201.85 104.427 201.615 105.868 201.534 107.322C201.732 107.444 201.931 107.561 202.131 107.673L201.506 108.032C201.506 107.795 201.52 107.558 201.534 107.322C199.96 106.376 198.472 105.294 197.087 104.088C196.684 103.737 196.094 104.323 196.498 104.676C198.109 106.083 199.855 107.328 201.711 108.392C201.774 108.427 201.846 108.446 201.918 108.446C201.991 108.445 202.063 108.426 202.126 108.39C202.189 108.354 202.242 108.302 202.279 108.239C202.316 108.176 202.336 108.105 202.337 108.032C202.366 106.669 202.539 105.313 202.851 103.986C202.681 103.803 202.511 103.62 202.343 103.428L203.038 103.245C202.971 103.492 202.91 103.739 202.851 103.987C204.081 105.316 205.381 106.58 206.746 107.771C207.148 108.122 207.739 107.535 207.335 107.183Z" fill="black"/>
</svg>
