<svg width="55" height="50" viewBox="0 0 55 50" fill="none" xmlns="http://www.w3.org/2000/svg">
<mask id="mask0_983_1638" style="mask-type:luminance" maskUnits="userSpaceOnUse" x="0" y="0" width="28" height="48">
<path d="M27.2128 0.219971H0.129883V47.1849H27.2128V0.219971Z" fill="white"/>
</mask>
<g mask="url(#mask0_983_1638)">
<path d="M11.5054 26.9896L10.2061 27.0365V28.575L11.4863 27.9715L11.1558 44.9569L12.8579 44.8403L14.3683 30.3545L14.7592 30.397C15.2745 29.9169 15.6052 29.0781 15.6091 29.0681C15.6274 29.021 15.6804 28.9977 15.7275 29.016C15.7745 29.0343 15.7979 29.0873 15.7795 29.1343C15.7625 29.1781 15.4118 30.0666 14.8422 30.5681L17.1526 44.7237L19.0176 44.6071L18.1412 36.7938C17.8863 37.0749 17.6204 37.288 17.3959 37.295C17.392 37.2951 17.3881 37.2952 17.3841 37.2952C17.2916 37.2952 17.1652 37.2612 17.0652 37.1083C17.0376 37.066 17.0494 37.0093 17.0917 36.9817C17.1339 36.9541 17.1906 36.966 17.2182 37.0082C17.281 37.1043 17.3462 37.1134 17.3902 37.1122C17.5861 37.1061 17.8521 36.862 18.1135 36.5473L17.1103 27.603L14.792 26.871L15.2588 26.8541L17.016 27.3927L18.1509 27.751L18.2211 27.7052L18.0874 26.752L17.0164 26.7906L17.016 26.7866L11.5054 26.9856L11.5054 26.9896Z" fill="#2568EF"/>
<path d="M14.2105 26.6873L14.3079 26.6414L14.4682 26.6956L18.0614 26.5659L16.8115 17.6556C16.8254 17.6474 16.8404 17.6372 16.8563 17.6254L16.4066 16.3895C16.3928 16.3515 16.4124 16.3095 16.4503 16.2957C16.4883 16.2819 16.5302 16.3015 16.544 16.3394L16.9568 17.4738V15.5481C16.9568 15.5078 16.9896 15.475 17.0299 15.475C17.0703 15.475 17.103 15.5078 17.103 15.5481V17.3898C17.7611 16.6722 19.085 14.7396 20.2745 12.7987C21.8397 10.2447 21.7587 9.84225 21.9657 9.4857L20.9523 7.1333C20.3964 8.04389 19.7646 9.26558 18.5115 10.9662C17.0544 12.9435 15.2039 14.6734 15.2039 14.6734L14.683 14.7724L15.7664 16.1623C15.7941 16.1978 15.7918 16.2481 15.7611 16.2809L14.749 17.3644L15.5007 17.6316C15.5479 17.6484 15.5728 17.7 15.5565 17.7474L15.0228 19.301L15.1904 19.2759C15.2167 19.272 15.2434 19.2797 15.2635 19.2971C15.2837 19.3145 15.2953 19.3398 15.2953 19.3664V21.5083C15.2953 21.5518 15.2647 21.5893 15.2221 21.5979C15.0498 21.633 12.3339 22.1825 10.2061 22.4607V26.8496L14.2606 26.7032L14.2105 26.6873Z" fill="#2568EF"/>
<path d="M14.7168 26.7435C14.7232 26.7235 14.7374 26.7082 14.7549 26.6998L14.7244 26.6904L14.4785 26.6993L14.7151 26.7794C14.7128 26.7678 14.713 26.7556 14.7168 26.7435Z" fill="#2568EF"/>
<path d="M14.2712 26.7066L14.4781 26.6992L14.4674 26.6956L14.2598 26.7031L14.2712 26.7066Z" fill="#2568EF"/>
<path d="M11.9152 17.5795C11.9575 17.6071 11.9696 17.6637 11.942 17.706L11.471 18.4307L12.3819 19.6947L14.8172 19.3311L15.3525 17.7733L14.5547 17.4897C14.5257 17.4794 14.5038 17.4551 14.4965 17.4252C14.4892 17.3953 14.4975 17.3637 14.5186 17.3412L15.5726 16.2129L14.4794 14.8105L10.9811 15.4758L10.623 16.7391L11.9152 17.5795Z" fill="#2568EF"/>
<path d="M15.1119 21.4332V19.4721L14.9011 19.5036C14.901 19.5036 14.9008 19.5036 14.9007 19.5037L12.3556 19.8836C12.3555 19.8837 12.3554 19.8837 12.3552 19.8837L10.9094 20.0996C10.8115 20.1693 10.591 20.4073 10.591 21.1343C10.591 21.1746 10.5582 21.2074 10.5179 21.2074C10.4775 21.2074 10.4447 21.1746 10.4447 21.1343C10.4447 20.6005 10.5601 20.3009 10.6765 20.1343L10.5314 20.156C10.5258 20.1568 10.5202 20.1568 10.5146 20.1566C10.3602 20.2685 9.82654 20.7035 9.7635 21.4128C9.76014 21.4508 9.72822 21.4795 9.69074 21.4795C9.68855 21.4795 9.68639 21.4794 9.68416 21.4792C9.64394 21.4756 9.61421 21.4401 9.6178 21.3998C9.68654 20.6264 10.2489 20.1663 10.4265 20.0393V18.1808C10.4265 18.1303 10.4674 18.0894 10.5179 18.0894C10.5684 18.0894 10.6093 18.1303 10.6093 18.1808V19.9595L12.1796 19.7251L11.2873 18.4868C11.2652 18.4562 11.2642 18.4152 11.2848 18.3836L11.7401 17.683L10.468 16.8556C10.4344 16.8338 10.419 16.7926 10.4299 16.754L10.7814 15.5139L9.58131 15.7421L7.84473 22.3856C7.8471 22.3862 7.84952 22.3865 7.85189 22.3873C8.5902 22.6457 12.8799 21.8847 15.1119 21.4332Z" fill="#2568EF"/>
<path d="M13.2274 14.4769C13.6604 14.5594 14.0974 14.5091 14.5353 14.3277C15.7799 13.6073 15.2161 13.4308 14.7458 12.2547C14.5681 11.81 14.6248 10.9509 14.5514 10.603C14.8296 10.5449 15.5601 10.271 15.4224 9.65091C15.2959 9.0817 14.5974 9.39039 14.3004 9.60845C14.1833 9.25175 14.2556 8.55747 14.0561 8.1315C13.3373 6.59645 11.5464 7.66407 11.5464 7.66407C11.1982 8.0124 11.3187 9.27483 11.1582 9.83745C10.8955 9.5627 10.291 9.06729 10.0213 9.98121C9.79407 10.7515 10.3955 10.7668 10.8445 10.6831C10.9636 11.5746 10.9613 12.0604 11.1482 12.857C11.1576 12.897 11.1736 12.9438 11.1952 12.9953C11.4868 13.4135 12.2036 14.2819 13.2274 14.4769ZM14.3699 10.0657C14.3768 10.054 14.5417 9.77956 14.7318 9.6387L14.7319 9.63862L14.732 9.63859C14.8394 9.55901 14.9374 9.53509 15.0236 9.5675C15.1334 9.60882 15.2099 9.73561 15.2574 9.95503C15.2639 9.98465 15.2451 10.0138 15.2154 10.0203C15.1858 10.0267 15.1566 10.0079 15.1502 9.97829C15.1123 9.80315 15.0551 9.69659 14.985 9.67018C14.946 9.65552 14.898 9.66495 14.8419 9.69746C14.9468 9.85508 14.9776 9.99518 14.9329 10.1144C14.8601 10.3085 14.6159 10.3637 14.6056 10.366C14.6016 10.3668 14.5977 10.3673 14.5939 10.3673C14.5686 10.3673 14.5459 10.3498 14.5403 10.3241C14.5339 10.2945 14.5526 10.2654 14.5822 10.2589C14.5845 10.2583 14.7789 10.2135 14.8303 10.0755C14.8614 9.992 14.8354 9.88686 14.7535 9.7626C14.599 9.89812 14.4656 10.1195 14.4642 10.1219C14.4539 10.1391 14.4357 10.1486 14.417 10.1486C14.4074 10.1486 14.3978 10.1461 14.3889 10.1409C14.3628 10.1253 14.3544 10.0917 14.3699 10.0657ZM14.1571 13.8321C14.0989 13.9575 14.0186 14.0283 13.9185 14.0426C13.9063 14.0444 13.8941 14.0452 13.8819 14.0452C13.7544 14.0452 13.6341 13.9542 13.5692 13.8949C13.4914 13.9944 13.4009 14.0223 13.3342 14.0269C13.1817 14.0374 13.0315 13.9389 12.9566 13.8427C12.938 13.8187 12.9423 13.7843 12.9662 13.7657C12.9901 13.7471 13.0246 13.7514 13.0432 13.7753C13.1011 13.8498 13.2201 13.9251 13.3265 13.9174C13.4017 13.9122 13.4645 13.8665 13.5133 13.7816C13.5221 13.7663 13.5378 13.7562 13.5554 13.7544C13.5729 13.7527 13.5904 13.7595 13.602 13.7728C13.6464 13.8233 13.787 13.9507 13.903 13.934C13.964 13.9252 14.016 13.8754 14.0575 13.7859C14.0703 13.7584 14.1028 13.7465 14.1304 13.7592C14.1579 13.772 14.1698 13.8046 14.1571 13.8321ZM13.3461 10.2964L13.3818 9.91469C13.3861 9.86806 13.4275 9.83383 13.4741 9.83819C13.5153 9.84203 13.5469 9.87487 13.5506 9.91469L13.5863 10.2964C13.5925 10.3627 13.5437 10.4215 13.4774 10.4277C13.4111 10.4339 13.3523 10.3852 13.3461 10.3189C13.3454 10.3115 13.3455 10.3036 13.3461 10.2964ZM12.8719 11.1443L13.3043 11.1404L13.3092 11.1412C13.3718 11.1519 13.4356 11.1345 13.4843 11.0935C13.5329 11.0525 13.5607 10.9925 13.5607 10.9289C13.5607 10.8161 13.476 10.7239 13.3637 10.7143L12.8765 10.6727L12.8896 10.0925C12.8902 10.0623 12.9142 10.0375 12.9456 10.0389C12.9759 10.0396 12.9999 10.0647 12.9992 10.095L12.9885 10.5721L13.373 10.6049C13.5426 10.6194 13.6705 10.7587 13.6705 10.9288C13.6705 11.0248 13.6284 11.1154 13.5551 11.1773C13.483 11.2381 13.3888 11.2645 13.2959 11.2502L12.873 11.254C12.8728 11.254 12.8727 11.254 12.8725 11.254C12.8424 11.254 12.8179 11.2298 12.8176 11.1997C12.8173 11.1694 12.8417 11.1446 12.8719 11.1443ZM13.1677 11.7478C13.3772 11.7236 13.5832 12.0079 13.8158 12.6424C14.0254 12.6381 14.2003 12.6796 14.2671 12.808C14.2811 12.8349 14.2706 12.868 14.2438 12.882C14.2169 12.896 14.1837 12.8855 14.1698 12.8586C14.0481 12.6244 13.2236 12.818 12.7326 12.9951C12.7265 12.9973 12.7202 12.9983 12.7139 12.9983C12.7017 12.9983 12.6896 12.9942 12.6798 12.9864C12.6649 12.9746 12.6572 12.9558 12.6595 12.9369C12.6736 12.8196 12.8077 11.7894 13.1677 11.7478ZM12.2238 10.2964L12.2595 9.91469C12.2638 9.86806 12.3052 9.83383 12.3518 9.83819C12.393 9.84203 12.4246 9.87487 12.4283 9.91469L12.464 10.2964C12.4702 10.3627 12.4214 10.4215 12.3551 10.4277C12.2888 10.4339 12.23 10.3852 12.2238 10.3189C12.2231 10.3115 12.2232 10.3036 12.2238 10.2964ZM11.0002 10.1347C10.9776 10.1548 10.943 10.1529 10.9227 10.1303C10.9213 10.1288 10.7787 9.97072 10.6252 9.90087C10.6152 9.89633 10.6055 9.89238 10.596 9.88884C10.5666 10.0005 10.5728 10.0887 10.6147 10.1516C10.6785 10.2473 10.8093 10.2576 10.8106 10.2577C10.8408 10.2598 10.8636 10.2859 10.8616 10.316C10.8597 10.345 10.8357 10.3673 10.8071 10.3673C10.8059 10.3673 10.8048 10.3672 10.8036 10.3672C10.7961 10.3667 10.6188 10.3542 10.5241 10.2135C10.4648 10.1253 10.4528 10.0099 10.4877 9.87004C10.4631 9.87187 10.4408 9.87863 10.421 9.89063C10.3579 9.92888 10.2787 10.0431 10.2607 10.3697C10.2591 10.3989 10.2349 10.4215 10.206 10.4215C10.205 10.4215 10.204 10.4214 10.2029 10.4214C10.1727 10.4197 10.1495 10.3939 10.1512 10.3636C10.168 10.0588 10.2377 9.8734 10.3642 9.79675C10.4224 9.7615 10.4896 9.75181 10.5644 9.76644C10.5673 9.76673 10.5702 9.76735 10.5731 9.76812C10.6043 9.77496 10.6368 9.7856 10.6706 9.80099C10.8455 9.88053 10.9981 10.05 11.0045 10.0572C11.0247 10.0798 11.0228 10.1145 11.0002 10.1347Z" fill="#FF564F"/>
<path d="M13.1913 11.8562C13.1876 11.8562 13.184 11.8564 13.1805 11.8568C12.9877 11.8791 12.8395 12.4527 12.7803 12.8625C12.9604 12.8019 13.3585 12.6788 13.7015 12.6488C13.4484 11.9691 13.2771 11.8562 13.1913 11.8562Z" fill="#FF564F"/>
<path d="M11.3424 45.1899H12.8286V46.1518H12.0855V45.6708L11.1556 46.3849C11.1556 46.3849 8.36991 47.0262 7.4082 46.3849C7.4082 46.3849 10.5555 46.1226 10.7595 45.6854L11.3424 45.1899Z" fill="#324A58"/>
<path d="M11.7812 15.3241L12.9997 19.5871L13.8679 19.4829L14.1071 14.8818" fill="#FFE7E6"/>
<path d="M11.8833 9.4411C11.9051 9.40138 11.9259 9.37026 11.9495 9.33662C11.9729 9.30381 11.9981 9.27204 12.0256 9.24154C12.0809 9.1816 12.1452 9.1221 12.2353 9.08908C12.2799 9.07309 12.3325 9.06739 12.3809 9.07858C12.4296 9.08937 12.4702 9.11449 12.5027 9.1425C12.5674 9.19996 12.6071 9.26845 12.6403 9.33691C12.6488 9.35432 12.6415 9.37527 12.6241 9.38372C12.6085 9.39133 12.5899 9.38621 12.5802 9.37242L12.58 9.37205C12.5392 9.31416 12.4915 9.26044 12.4387 9.22852C12.4125 9.2129 12.3858 9.20354 12.3615 9.20303C12.3371 9.20233 12.3145 9.20924 12.2917 9.22226C12.2461 9.24856 12.2041 9.29815 12.1694 9.35307C12.152 9.38072 12.136 9.41005 12.1214 9.44022C12.1073 9.46966 12.0929 9.50316 12.0838 9.53022C12.0645 9.58793 12.0021 9.61905 11.9444 9.59974C11.8867 9.58043 11.8556 9.51797 11.8749 9.46026C11.8769 9.45412 11.8794 9.4483 11.8824 9.44278L11.8833 9.4411Z" fill="#324A58"/>
<path d="M13.0368 9.30474C13.0892 9.22769 13.1524 9.16307 13.2349 9.11271C13.276 9.08806 13.3227 9.06901 13.3732 9.05958C13.4236 9.05003 13.4775 9.05127 13.5284 9.06309C13.6315 9.08726 13.7155 9.14851 13.7842 9.21419C13.8525 9.2813 13.908 9.35594 13.9576 9.43252C13.9906 9.48349 13.9761 9.55159 13.9251 9.58465C13.8741 9.61767 13.8061 9.60315 13.773 9.55217C13.7703 9.54793 13.7676 9.54288 13.7654 9.53846C13.7321 9.46638 13.6941 9.39741 13.6484 9.33754C13.6025 9.27885 13.5487 9.22886 13.4871 9.20461C13.426 9.18004 13.355 9.18252 13.2856 9.21193C13.217 9.24049 13.1497 9.29154 13.0979 9.34884L13.0958 9.35115C13.0819 9.36658 13.0581 9.36775 13.0426 9.35382C13.0286 9.34105 13.0264 9.32003 13.0368 9.30474Z" fill="#324A58"/>
<path d="M12.5723 16.0828L13.2652 16.965L13.8844 15.9935L12.5723 16.0828Z" fill="#324A58"/>
<path d="M13.2652 16.9651L12.5723 18.0946L12.9988 19.587L13.867 19.4828L13.9298 18.2761L13.2652 16.9651Z" fill="#324A58"/>
<path d="M13.8363 7.63854C13.8259 7.65276 13.8094 7.66106 13.792 7.66106C13.7903 7.66106 13.7886 7.66099 13.7868 7.66084C13.7676 7.65902 13.7507 7.6472 13.7424 7.62969L13.4824 7.0807C11.9867 7.00862 11.275 6.92264 10.9353 6.84424C10.7256 7.47748 10.8333 9.60823 10.8333 9.60823C10.8333 9.60823 11.4441 10.6132 11.4868 10.2611C11.5443 9.78618 11.5093 8.7978 11.6715 8.53216C12.1508 7.74671 13.651 8.02322 13.8618 8.13128C14.184 8.29647 14.2675 9.4855 14.2675 9.4855L14.9743 6.8461C14.6865 6.93822 14.3914 6.98372 14.3052 6.99582L13.8363 7.63854Z" fill="#324A58"/>
<path d="M13.5671 7.00401L13.8017 7.49935L14.23 6.91226C14.2389 6.90004 14.2524 6.89207 14.2674 6.89017C14.4196 6.87079 14.715 6.81699 14.9787 6.72864C14.6584 6.32026 12.7589 6.32019 12.7589 6.32019L12.4627 6.724V6.33445C12.4627 6.33445 11.2771 6.20265 10.9785 6.74396C11.2902 6.81118 11.9833 6.89942 13.5202 6.97271C13.5404 6.97366 13.5585 6.98569 13.5671 7.00401Z" fill="#324A58"/>
<path d="M26.32 2.38188C26.2995 2.35957 26.3009 2.32487 26.3232 2.30439C26.3455 2.28391 26.3802 2.28533 26.4007 2.3076C26.4095 2.31711 26.5616 2.47904 26.7423 2.50117C26.8003 2.43011 26.8547 2.36356 26.9043 2.30296C27.6037 1.44799 26.9043 1.56458 26.9043 1.56458L24.7132 3.61384L23.8364 4.57739C23.8256 4.58927 23.8108 4.59534 23.7958 4.59534C23.7827 4.59534 23.7694 4.59063 23.7589 4.58105C23.7366 4.56064 23.7349 4.52594 23.7553 4.50355L24.4168 3.77662C24.5402 3.62471 24.685 3.44577 24.8406 3.25217C24.8391 3.25217 24.8375 3.25235 24.836 3.25235C24.793 3.25235 24.7511 3.24551 24.7104 3.2318C24.4887 3.15723 24.3899 2.90578 24.3858 2.89514C24.3749 2.86687 24.389 2.83509 24.4173 2.82426C24.4455 2.8134 24.4773 2.82748 24.4881 2.85571C24.489 2.85784 24.5732 3.07031 24.7459 3.12798C24.8067 3.14835 24.873 3.14655 24.9436 3.12377C25.3232 2.64994 25.7494 2.10972 26.0764 1.67297C25.8032 1.64265 25.6544 1.39603 25.6525 1.3927C25.6371 1.36659 25.6458 1.33298 25.672 1.31762C25.6981 1.3023 25.7316 1.31096 25.747 1.33704C25.7542 1.34922 25.896 1.58063 26.1568 1.5648C26.2011 1.50486 26.2433 1.44722 26.2826 1.39263C26.982 0.421073 26.2826 0.421072 26.2826 0.421072L23.6786 3.47451L23.3162 4.11079C23.3061 4.12857 23.2876 4.13851 23.2685 4.13851C23.2593 4.13851 23.25 4.13621 23.2414 4.13135C23.2151 4.11635 23.2059 4.08285 23.2209 4.05652L23.5301 3.51368C23.6015 3.33398 23.7416 3.02895 23.9998 2.55851C24.0025 2.55361 24.0055 2.54827 24.0082 2.5433C23.8524 2.49641 23.7215 2.37449 23.6534 2.28332C23.6353 2.25904 23.6402 2.22466 23.6645 2.20653C23.6887 2.18842 23.7231 2.19336 23.7412 2.21761C23.7491 2.22817 23.8851 2.40579 24.0628 2.44588C24.2331 2.14556 24.482 1.73642 24.7015 1.36293C24.6989 1.36293 24.6962 1.36322 24.6937 1.36322C24.3955 1.36322 24.2065 1.19957 24.1966 1.19083C24.1739 1.17076 24.1718 1.13609 24.1919 1.11341C24.212 1.09074 24.2466 1.08862 24.2692 1.10866C24.279 1.11718 24.4706 1.27988 24.768 1.24916C24.9878 0.871321 25.1639 0.547897 25.1752 0.440564C25.1895 0.304341 24.7977 0.182893 24.6693 0.230507C24.343 0.35159 23.3684 2.37862 23.077 2.88885C22.8776 3.2378 22.6797 3.66471 22.4331 4.15735C22.6224 5.00288 22.8258 6.59235 21.8103 7.0008C21.8036 7.00351 21.7967 7.00479 21.7899 7.00479C21.7681 7.00479 21.7476 6.99177 21.739 6.97038C21.7277 6.94225 21.7413 6.91033 21.7694 6.89903C22.6481 6.54558 22.5203 5.15889 22.3518 4.31822C22.2327 4.55252 22.1021 4.80032 21.9546 5.06117L21.3709 4.0691C21.1841 4.06713 21.0637 4.01688 21.0541 4.01275C21.0263 4.00068 21.0135 3.96843 21.0256 3.9406C21.0376 3.91284 21.0697 3.90004 21.0976 3.91204C21.1061 3.91566 21.2067 3.95676 21.3645 3.95958C21.4564 3.83586 21.7046 3.45678 21.6409 3.04303C21.5632 2.53781 21.309 2.6774 21.309 2.6774C21.3738 3.06599 20.5918 3.84069 20.5918 3.84069L21.2948 6.46765C21.1616 6.78274 21.2146 6.66692 21.2146 6.66692L22.0296 8.13144C22.0296 8.13144 24.1016 6.47445 24.0643 6.44564C24.0816 6.43152 24.1001 6.41642 24.1194 6.40065C23.7623 5.62051 22.9022 4.9025 22.8915 4.89368C22.8682 4.87441 22.8648 4.83981 22.8842 4.81648C22.9034 4.79311 22.938 4.78982 22.9614 4.80913C23.0055 4.84559 23.8379 5.54086 24.2075 6.32839C24.684 5.93633 25.5654 5.19524 26.1452 4.6118C25.9975 4.51584 25.9014 4.36444 25.8961 4.35578C25.88 4.33007 25.8879 4.29631 25.9136 4.28029C25.9393 4.26428 25.9731 4.2721 25.9891 4.29778C25.9903 4.29971 26.087 4.45155 26.2239 4.53171C26.5289 4.21696 26.7312 3.95786 26.71 3.84105C26.6527 3.52604 25.5194 4.39278 24.927 4.87068L24.4756 5.31793C24.4649 5.32853 24.4509 5.3338 24.437 5.3338C24.4228 5.3338 24.4087 5.32839 24.398 5.31756C24.3767 5.29606 24.3768 5.26132 24.3983 5.24L24.9748 4.66892C25.1049 4.50926 25.2585 4.3207 25.4234 4.11833C25.3591 4.0992 25.3011 4.06954 25.25 4.02873C25.0686 3.88406 25.0418 3.65751 25.0407 3.64793C25.0374 3.61783 25.0591 3.59073 25.0892 3.5874C25.1192 3.58404 25.1463 3.60573 25.1497 3.63582C25.1516 3.65195 25.1924 3.96312 25.5004 4.02376C25.8894 3.54648 26.3282 3.00817 26.6649 2.59599C26.5186 2.55738 26.3904 2.45853 26.32 2.38188Z" fill="#FF564F"/>
<path d="M20.9521 7.13326L21.2946 6.46765L22.1228 8.37488L21.774 8.87413L20.9521 7.13326Z" fill="#FFE7E6"/>
<path d="M18.0403 20.1292L18.0273 20.1315L17.4817 20.0037L15.2656 20.1207L15.251 21.498L18.2394 20.8568L21.0953 21.1501C21.1751 21.1472 21.2384 21.0816 21.2384 21.0017V21.0017C21.2384 20.9321 21.1901 20.8719 21.1222 20.8567L21.0741 20.8402C20.9944 20.8499 20.9106 20.855 20.8228 20.855C19.927 20.855 18.6545 20.3815 18.0403 20.1292Z" fill="#FF564F"/>
<path d="M19.6376 20.3461L18.8136 19.9956L18.3174 20.0813C18.9345 20.322 19.9287 20.6643 20.6805 20.7049L19.6376 20.3461Z" fill="#FF564F"/>
<path d="M21.3393 9.74629C21.4593 9.74629 21.5565 9.64902 21.5565 9.52903C21.5565 9.40904 21.4593 9.31177 21.3393 9.31177C21.2193 9.31177 21.1221 9.40904 21.1221 9.52903C21.1221 9.64902 21.2193 9.74629 21.3393 9.74629Z" fill="#324A58"/>
<path d="M14.7372 24.2775C14.8741 24.2775 14.9851 24.1664 14.9851 24.0295C14.9851 23.8925 14.8741 23.7815 14.7372 23.7815C14.6003 23.7815 14.4893 23.8925 14.4893 24.0295C14.4893 24.1664 14.6003 24.2775 14.7372 24.2775Z" fill="#324A58"/>
<path d="M14.8944 26.0248C15.0314 26.0248 15.1424 25.9137 15.1424 25.7768C15.1424 25.6398 15.0314 25.5288 14.8944 25.5288C14.7575 25.5288 14.6465 25.6398 14.6465 25.7768C14.6465 25.9137 14.7575 26.0248 14.8944 26.0248Z" fill="#324A58"/>
<path d="M10.7265 24.8024C10.697 24.8024 10.6692 24.7844 10.6581 24.7552C10.6438 24.7174 10.6628 24.6751 10.7006 24.6608L12.5478 23.9611C12.5856 23.9467 12.6278 23.9658 12.6421 24.0036C12.6564 24.0413 12.6374 24.0836 12.5996 24.0979L10.7524 24.7976C10.7438 24.8009 10.7351 24.8024 10.7265 24.8024Z" fill="white"/>
<path d="M17.17 24.3508C17.161 24.3508 17.1519 24.3491 17.1431 24.3456L15.89 23.8497C15.8524 23.8348 15.834 23.7923 15.8489 23.7547C15.8638 23.7171 15.9063 23.6988 15.9438 23.7136L17.1969 24.2096C17.2345 24.2245 17.2528 24.267 17.238 24.3045C17.2266 24.3333 17.1991 24.3508 17.17 24.3508Z" fill="white"/>
<path d="M12.1353 39.0756C12.063 39.0756 11.9997 39.0573 11.9483 39.034C11.2248 38.7057 10.8477 36.5403 10.8477 36.5202C10.8477 36.4798 10.8804 36.447 10.9208 36.447C10.9605 36.447 10.9929 36.4787 10.9939 36.5183C11.0042 36.6508 11.411 38.6553 12.021 38.9061C12.1448 38.957 12.2691 38.9257 12.401 38.8102C12.4314 38.7836 12.4776 38.7867 12.5042 38.8171C12.5308 38.8475 12.5277 38.8937 12.4973 38.9203C12.3638 39.0372 12.2401 39.0756 12.1353 39.0756Z" fill="white"/>
<path d="M4.63108 15.6016C4.55261 15.6323 4.47294 15.6717 4.39294 15.7223C3.94269 16.0074 3.60125 16.5704 3.3781 17.3955C3.12029 18.3489 3.01951 19.6608 3.07762 21.2989H2.10387C1.41278 21.2989 0.852539 21.8593 0.852539 22.5505V23.5369L7.62803 22.5505C7.62803 21.8593 7.06779 21.2989 6.37669 21.2989H3.29704C3.16343 17.5805 3.87446 16.3129 4.50727 15.9096C4.55953 15.8763 4.61167 15.8487 4.66326 15.8258C4.66516 15.8314 4.66666 15.8371 4.66874 15.8426C4.80736 16.2168 5.29381 16.4015 5.86786 16.3441C5.58409 15.7919 5.44039 15.0955 5.3696 14.604C4.9263 14.8738 4.64388 15.2528 4.63108 15.6016Z" fill="#324A58"/>
<path d="M8.51594 14.6067C8.3314 14.1085 6.59354 14.1036 5.78997 14.4014C5.69143 14.4379 5.59757 14.4798 5.50879 14.5259C5.57826 15.023 5.72536 15.7656 6.02306 16.3227C6.16555 16.2983 6.31181 16.2595 6.45818 16.2053C7.26179 15.9075 8.70048 15.1048 8.51594 14.6067Z" fill="#324A58"/>
<path d="M17.5264 44.8371V45.8313H18.1478V45.3342L18.7451 45.8313C18.7451 45.8313 21.2804 46.1228 22.3587 45.5107C22.3587 45.5107 19.8416 45.4524 19.357 45.1027C18.8724 44.7529 18.8724 44.7529 18.8724 44.7529L17.5264 44.8371Z" fill="#324A58"/>
<path d="M3.42773 27.2746L5.35584 47.1849H13.4208L15.0004 26.8704L3.42773 27.2746Z" fill="#FF9B19"/>
<path d="M18.2927 21.1345L0.0634766 23.8919V27.2062L19.2022 26.5151L18.2927 21.1345Z" fill="#FF9B19"/>
<path d="M12.7362 14.5236C12.4086 14.3945 12.1204 14.2059 11.8789 14.0085L12.4484 16.2185L13.7306 16.1019L13.8982 14.6858C13.8115 14.6955 13.7247 14.7007 13.638 14.7007C13.3366 14.7007 13.0359 14.6418 12.7362 14.5236Z" fill="#FF564F"/>
<path d="M11.7812 15.3241L13.5191 15.9937L11.8842 16.9652L11.7812 15.3241Z" fill="#FFE7E6"/>
<path d="M12.9854 16.0443L14.1068 14.8817L14.5911 16.7985L12.9854 16.0443Z" fill="#FFE7E6"/>
<path d="M6.07091 28.0264L7.49278 44.8741H11.0708L12.3588 27.9171C12.3625 27.8691 12.4063 27.8332 12.4566 27.8365C12.5069 27.84 12.5448 27.8817 12.5412 27.9296L11.247 44.9674C11.2435 45.0129 11.2037 45.0482 11.1558 45.0482H7.40843C7.36078 45.0482 7.32111 45.0133 7.31731 44.9681L5.88867 28.0404" fill="white"/>
<path d="M5.87845 41.0261L9.40649 37.5107L12.6416 40.3522L13.7637 26.9336L5.00391 27.2499L5.87845 41.0261Z" fill="#FF564F"/>
<path d="M11.6852 37.7208C11.6597 37.7208 11.6348 37.71 11.6171 37.6903L9.20756 35.0018L6.64214 37.3243C6.61604 37.3479 6.5787 37.3544 6.54609 37.3411C6.51351 37.3277 6.4915 37.2968 6.48952 37.2616L6.00015 28.5803C5.99733 28.5305 6.03499 28.4876 6.08476 28.4839L12.3665 28.0263C12.3931 28.0241 12.419 28.0341 12.4378 28.0528C12.4565 28.0716 12.4662 28.0976 12.4643 28.1241L11.7764 37.6359C11.7737 37.6725 11.7495 37.7039 11.7148 37.7158C11.7051 37.7192 11.6951 37.7208 11.6852 37.7208ZM9.21429 34.7809C9.21586 34.7809 9.21747 34.7809 9.21904 34.781C9.24332 34.7823 9.2661 34.7932 9.28233 34.8113L11.6095 37.4079L12.2743 28.2164L6.18769 28.6598L6.66126 37.0603L9.15293 34.8045C9.16982 34.7893 9.19169 34.7809 9.21429 34.7809Z" fill="white"/>
</g>
<mask id="mask1_983_1638" style="mask-type:luminance" maskUnits="userSpaceOnUse" x="27" y="8" width="28" height="42">
<path d="M54.1294 8.82483H27.0918V49.1775H54.1294V8.82483Z" fill="white"/>
</mask>
<g mask="url(#mask1_983_1638)">
<path d="M35.1748 29.3193C35.5912 27.2899 36.46 25.5086 36.784 24.8889C36.3727 25.2629 35.01 26.5399 33.8191 28.097C32.9914 29.1796 32.4079 30.1827 32.085 31.0786C31.687 32.1835 31.6878 33.1248 32.0874 33.876C32.095 33.8908 32.0988 33.9074 32.0983 33.9241C33.1675 34.8693 34.1123 35.2934 34.7917 35.4796C35.3267 35.6301 35.8863 35.6731 36.4381 35.6064C35.817 34.9554 35.3857 34.167 35.1513 33.25C34.8633 32.1224 34.8711 30.8001 35.1748 29.3193Z" fill="#FF9B19"/>
<path d="M36.7805 24.6307C36.7637 24.6452 35.093 26.1111 33.6665 27.9762C32.8262 29.0747 32.2325 30.0959 31.9026 31.0114C31.5449 32.0031 31.4976 32.8744 31.7582 33.608C31.5093 33.3674 31.2549 33.0994 30.9966 32.7966C30.498 32.1862 30.3806 31.0626 30.3309 30.0473C30.2135 27.5501 31.8838 24.2688 36.5692 24.1616L37.2039 24.234L36.7805 24.6307Z" fill="#FF9B19"/>
<path d="M32.0601 30.9407C32.0601 30.9407 34.829 24.537 39.2196 23.6379L34.966 24.3206L34.4779 24.458C34.4779 24.458 31.7678 26.6454 32.0601 30.9407Z" fill="#FFE7E6"/>
<path d="M34.4039 25.3348L32.9691 26.4303C32.9691 26.4303 31.7004 28.7859 32.0855 31.0793C32.0855 31.0793 33.521 28.1427 34.5702 26.8763L34.4039 25.3348Z" fill="#324A58"/>
<path d="M31.9908 25.1948C30.8899 26.124 30.2966 27.2355 30.2188 28.5093C30.49 28.7366 30.4379 28.6877 30.4379 28.6877C31.1815 25.1525 34.321 24.4859 34.6254 24.4033C34.3741 24.3035 34.1319 24.1821 33.9014 24.0406C33.2109 24.3288 32.5671 24.7177 31.9908 25.1948Z" fill="#2568EF"/>
<path d="M29.2619 20.829C29.3605 20.4639 29.4825 20.081 29.6278 19.6803C29.9341 18.8479 30.2972 18.0374 30.7146 17.2547L28.7711 15.9636C27.6749 17.9953 27.1877 19.7793 27.0918 21.3243C27.4847 21.1566 27.8928 21.0269 28.3105 20.937C28.6232 20.8693 28.9419 20.8331 29.2619 20.829Z" fill="#2568EF"/>
<path d="M30.9311 21.2774C31.0606 19.7621 32.1333 18.2723 32.1603 18.2163L30.879 17.3646C30.5749 17.9405 29.8787 19.3317 29.4678 20.8333C30.027 20.8595 30.519 21.0086 30.9311 21.2774Z" fill="#2568EF"/>
<path d="M29.3083 24.0923C30.0194 23.4902 30.9328 23.2758 31.5026 23.1991C31.0615 22.7007 30.9089 22.1076 30.9203 21.507C30.4655 21.176 29.9391 21.0458 29.4175 21.0289C29.1459 22.0947 29.0304 23.1987 29.3083 24.0923Z" fill="#2568EF"/>
<path d="M29.1491 24.2363C28.8626 23.4049 28.8838 22.3298 29.2106 21.0282C28.3324 21.0482 27.4988 21.3607 27.0812 21.5442C27.0049 23.5125 27.5653 25.0833 28.2944 26.2782C28.3233 25.5599 28.5409 24.9507 28.9468 24.4597C29.0102 24.3817 29.0777 24.3071 29.1491 24.2363Z" fill="#2568EF"/>
<path d="M29.2255 24.4351C29.1801 24.482 29.1363 24.5305 29.0944 24.5814C28.6639 25.1037 28.4604 25.7735 28.4866 26.5794C28.9259 27.2337 29.447 27.8293 30.0372 28.3517C30.1223 27.4818 30.4513 26.6535 30.9862 25.962C30.1342 25.6941 29.5425 25.1811 29.2255 24.4351Z" fill="#2568EF"/>
<path d="M29.3897 24.3227C29.6879 25.0527 30.2694 25.5488 31.1171 25.7988C31.3445 25.5241 31.5964 25.2705 31.8697 25.0414C32.2727 24.7048 32.71 24.4116 33.1745 24.1666C32.5092 23.9709 32.0243 23.6971 31.6771 23.3774C31.141 23.4365 30.1184 23.6333 29.3779 24.2914C29.3818 24.3015 29.3854 24.3125 29.3897 24.3227Z" fill="#2568EF"/>
<path d="M32.6749 22.1584C32.6358 22.0782 31.7098 20.1842 32.2687 19.5203C32.4765 19.2735 32.8557 19.2292 33.3958 19.3889L33.3625 19.5015C32.8714 19.3564 32.5336 19.3881 32.3587 19.5958C31.8499 20.2015 32.7708 22.0876 32.7802 22.1064L32.6749 22.1584Z" fill="#324A58"/>
<path d="M40.8779 21.2268C40.6745 21.1207 40.4559 21.0471 40.2298 21.0085C40.8998 19.5328 40.2865 18.7539 39.7277 18.0375C39.4854 17.7265 38.977 17.1212 38.7 16.8407C38.3685 16.505 38.0707 16.4104 37.6875 16.5152C33.8096 16.3204 33.5106 18.6447 33.5274 19.4041C31.7272 21.2726 32.5967 22.7804 33.5783 23.6247C33.9325 23.9353 34.3349 24.1863 34.7696 24.3681C34.8365 24.3516 34.9018 24.336 34.9652 24.3223C35.6142 24.5339 36.3107 24.5527 36.9702 24.3763C36.9913 24.3708 36.951 24.3685 36.9702 24.3763C37.5689 24.1376 38.2675 23.6897 38.9226 22.9287C38.9903 22.8505 39.0549 22.7722 39.1183 22.6975C39.2964 22.7714 39.5551 22.8106 39.9402 22.7969C41.0833 22.755 41.3279 21.4518 40.8779 21.2268ZM34.869 19.0179C34.8921 19.0165 34.9154 19.0196 34.9373 19.0271C34.9593 19.0346 34.9795 19.0464 34.9969 19.0618C35.0143 19.0772 35.0285 19.0958 35.0386 19.1167C35.0488 19.1376 35.0547 19.1603 35.056 19.1834C35.0567 19.1965 35.056 19.2096 35.0541 19.2226L34.9688 19.7269C34.9671 19.758 34.9531 19.7872 34.9299 19.808C34.9068 19.8288 34.8762 19.8396 34.8451 19.838C34.814 19.8363 34.7848 19.8223 34.7639 19.7992C34.7431 19.776 34.7323 19.7455 34.7339 19.7143L34.703 19.2038C34.7017 19.1807 34.705 19.1575 34.7126 19.1357C34.7202 19.1139 34.7321 19.0937 34.7475 19.0765C34.7629 19.0592 34.7815 19.0452 34.8024 19.0351C34.8232 19.0251 34.8459 19.0192 34.869 19.0179ZM34.3496 20.2253V20.2225C34.4009 20.0567 34.5488 19.9538 34.6811 19.9933L35.146 20.1314L35.2153 19.8125C35.2186 19.7973 35.2279 19.784 35.241 19.7755C35.2542 19.7671 35.2701 19.7642 35.2854 19.7675C35.3006 19.7709 35.3139 19.7801 35.3224 19.7932C35.3308 19.8064 35.3337 19.8223 35.3304 19.8376L35.2325 20.2816L34.6455 20.1056C34.5762 20.0848 34.4909 20.1549 34.46 20.2589V20.2617C34.4299 20.365 34.46 20.469 34.5308 20.4898L34.9613 20.6196C34.9687 20.6218 34.9755 20.6255 34.9815 20.6303C34.9874 20.6352 34.9924 20.6411 34.996 20.6479C34.9997 20.6547 35.0019 20.6621 35.0027 20.6697C35.0034 20.6774 35.0027 20.6851 35.0005 20.6924C34.9968 20.7045 34.9893 20.7151 34.9792 20.7226C34.969 20.7302 34.9567 20.7342 34.9441 20.7343C34.9384 20.7342 34.9328 20.7335 34.9273 20.7319L34.4968 20.602C34.3661 20.5617 34.2992 20.3931 34.3496 20.2253ZM35.5065 22.9307C35.3993 23.0656 35.292 23.1337 35.1864 23.1337C35.1658 23.1338 35.1453 23.1313 35.1253 23.1263C34.8024 23.0453 34.6627 22.3219 34.6478 22.2397C34.6475 22.236 34.6475 22.2322 34.6478 22.2284L34.6068 22.2167C34.3286 22.1317 34.0942 21.9422 33.9528 21.6881C33.949 21.6812 33.9466 21.6735 33.9458 21.6656C33.945 21.6577 33.9458 21.6497 33.9482 21.6421C33.9506 21.6345 33.9545 21.6275 33.9596 21.6215C33.9648 21.6154 33.9712 21.6105 33.9783 21.607C33.9855 21.6035 33.9932 21.6015 34.0012 21.6011C34.0091 21.6007 34.017 21.6019 34.0245 21.6047C34.032 21.6074 34.0388 21.6117 34.0446 21.6171C34.0503 21.6226 34.0549 21.6292 34.0581 21.6365C34.1872 21.8617 34.397 22.0295 34.6451 22.1059C35.0114 22.2174 35.4513 22.1286 35.9518 21.8423C35.9608 21.8373 35.9708 21.8346 35.981 21.8346C35.9912 21.8346 36.0013 21.8373 36.0102 21.8423C36.019 21.8472 36.0264 21.8544 36.0316 21.8631C36.0369 21.8719 36.0397 21.8818 36.0399 21.8919C36.0368 21.9056 36.0383 22.2609 35.5065 22.9307ZM36.2364 19.4272C36.2352 19.444 36.2323 19.4606 36.2278 19.4769L36.0544 20.1099C36.0417 20.1554 36.0126 20.1946 35.9727 20.2199C35.9328 20.2451 35.8849 20.2547 35.8383 20.2466C35.7917 20.2386 35.7498 20.2135 35.7207 20.1763C35.6915 20.1391 35.6773 20.0924 35.6806 20.0453L35.7264 19.388C35.7352 19.3237 35.7682 19.2651 35.8186 19.2241C35.8691 19.1832 35.9333 19.163 35.9981 19.1677C36.0629 19.1724 36.1235 19.2016 36.1675 19.2494C36.2116 19.2971 36.2358 19.3599 36.2352 19.4248L36.2364 19.4272ZM40.6462 21.7323C40.6392 21.7357 40.6317 21.7377 40.624 21.7381C40.6163 21.7386 40.6086 21.7375 40.6013 21.735C40.594 21.7324 40.5873 21.7284 40.5816 21.7233C40.5759 21.7181 40.5712 21.7119 40.5679 21.7049C40.5497 21.6661 40.5232 21.6317 40.4903 21.6041C40.4574 21.5766 40.4188 21.5567 40.3773 21.5457C40.2259 21.5007 40.0251 21.5347 39.8267 21.597C39.8388 21.7437 39.8318 22.1595 39.3852 22.2867C39.3799 22.2882 39.3743 22.289 39.3688 22.289C39.3547 22.289 39.3411 22.2838 39.3305 22.2745C39.3199 22.2652 39.313 22.2524 39.311 22.2385C39.3091 22.2245 39.3122 22.2103 39.3199 22.1985C39.3275 22.1866 39.3392 22.178 39.3527 22.174C39.6952 22.0762 39.7198 21.7734 39.7128 21.6361C39.5133 21.7114 39.3204 21.803 39.1359 21.9099C39.1268 21.9153 39.1164 21.9181 39.1058 21.9182C39.0957 21.9182 39.0857 21.9156 39.0769 21.9107C39.068 21.9057 39.0606 21.8986 39.0553 21.89C39.0513 21.8834 39.0487 21.8761 39.0475 21.8684C39.0464 21.8608 39.0467 21.853 39.0486 21.8456C39.0504 21.8381 39.0537 21.831 39.0583 21.8248C39.0629 21.8186 39.0687 21.8134 39.0753 21.8094C39.1105 21.7883 39.9409 21.2926 40.411 21.433C40.4681 21.4486 40.5212 21.4764 40.5665 21.5145C40.6118 21.5526 40.6484 21.6001 40.6736 21.6537C40.6801 21.6676 40.6808 21.6835 40.6757 21.698C40.6706 21.7125 40.66 21.7244 40.6462 21.7311V21.7323Z" fill="#FF564F"/>
<path d="M27.8473 37.7579C27.8473 37.7579 29.455 41.5736 31.17 41.3146L31.9675 41.1151C32.7111 41.0071 33.4445 42.0321 33.5905 42.7497L31.6486 44.1847C31.6486 44.1847 31.3429 43.9109 31.2498 43.5333C31.2107 43.38 31.4013 43.2595 31.4271 43.1734C31.4623 43.056 31.3339 42.9958 31.2099 42.9887C31.2099 42.9887 29.7791 43.0372 29.0879 42.0321C28.4375 41.0858 27.546 39.8307 27.4619 38.6437C27.4176 38.0208 27.6877 36.9187 27.8473 37.7579Z" fill="#324A58"/>
<path d="M40.9431 42.5592L42.5735 41.3546L43.2173 44.2497L42.4138 44.4219L42.0127 43.6246C42.0127 43.6246 41.0182 44.0252 40.9388 44.6617C40.8593 45.2983 36.0547 44.9418 35.8652 44.1848C35.8652 44.1848 40.6241 43.7106 40.9431 42.5592Z" fill="#324A58"/>
<path d="M32.7887 31.4627C32.9234 31.4627 33.0326 31.2558 33.0326 31.0006C33.0326 30.7454 32.9234 30.5386 32.7887 30.5386C32.6541 30.5386 32.5449 30.7454 32.5449 31.0006C32.5449 31.2558 32.6541 31.4627 32.7887 31.4627Z" fill="#324A58"/>
<path d="M32.3557 32.8382C32.4772 32.8382 32.5756 32.624 32.5756 32.3597C32.5756 32.0954 32.4772 31.8812 32.3557 31.8812C32.2342 31.8812 32.1357 32.0954 32.1357 32.3597C32.1357 32.624 32.2342 32.8382 32.3557 32.8382Z" fill="#324A58"/>
<path d="M29.049 17.9589C29.1705 17.9589 29.269 17.7447 29.269 17.4804C29.269 17.2162 29.1705 17.002 29.049 17.002C28.9276 17.002 28.8291 17.2162 28.8291 17.4804C28.8291 17.7447 28.9276 17.9589 29.049 17.9589Z" fill="#324A58"/>
<path d="M34.5566 18.2284C34.5566 18.4631 34.9723 18.89 35.1828 18.9181C35.6043 18.9741 34.9762 18.2828 34.8142 18.1411C34.7629 18.0969 34.5582 17.9764 34.5566 18.2284Z" fill="#324A58"/>
<path d="M36.7619 18.6858C36.6221 18.8721 36.0304 18.9597 35.8445 18.8545C35.4751 18.644 36.3924 18.4742 36.6084 18.4593C36.6765 18.4546 36.9153 18.4843 36.7619 18.6858Z" fill="#324A58"/>
<path d="M34.7705 22.2542C34.8273 22.5379 34.974 22.967 35.1544 23.0124C35.2327 23.0316 35.3184 22.9796 35.4151 22.8559C35.7544 22.4295 35.8655 22.1431 35.9019 21.9995C35.4843 22.221 35.1051 22.3058 34.7705 22.2542Z" fill="#FF564F"/>
<path d="M39.595 17.1971C38.6127 15.4295 37.2265 15.7339 36.6445 15.9651C35.9182 15.7848 34.9914 15.4033 34.7512 14.7789C34.676 14.5833 35.2912 17.8286 37.2308 16.944C37.2308 16.944 38.17 16.5833 38.5841 17.0402C39.1801 17.4632 39.6322 17.7996 39.0408 18.8008C38.7637 19.2703 37.05 21.0308 38.0499 21.273C38.6064 21.4072 40.1934 20.8254 40.8786 21.2257C40.8786 21.2257 41.4136 21.5457 40.7146 22.498C40.7146 22.498 42.0672 22.5825 42.2879 21.8023C42.4484 21.2354 41.497 17.14 39.595 17.1971Z" fill="#324A58"/>
<path d="M33.6564 18.4972C33.6564 18.4972 32.1837 16.5609 33.7241 16.5523C35.2645 16.5437 36.6362 16.4631 36.6362 16.4631C36.6362 16.4631 34.09 17.0042 33.6564 18.4972Z" fill="#324A58"/>
<path d="M34.7056 21.029C34.7056 21.029 34.7056 20.6769 34.2403 20.8107C34.2403 20.8107 33.9104 20.9367 33.8532 20.5865C33.8532 20.5865 33.8047 21.4864 34.5236 21.2258C34.58 21.2055 34.6896 21.1452 34.7056 21.029Z" fill="#324A58"/>
<path d="M35.3597 21.5007C35.3597 21.5007 34.9327 21.485 34.8533 21.2092C34.7738 20.9334 35.0584 20.8371 35.3926 21.0382C35.5695 21.1447 35.5918 21.1701 35.8176 20.9666C35.8176 20.9651 35.7925 21.4115 35.3597 21.5007Z" fill="#324A58"/>
<path d="M36.8203 16.4632C36.9726 16.4898 38.5959 16.9597 38.8945 17.2715C39.1931 17.5833 38.1764 16.2867 38.1764 16.2867L36.8203 16.4632Z" fill="#324A58"/>
<path d="M34.4323 19.5891C34.4832 19.1855 34.2641 18.8254 33.9429 18.7849C33.6216 18.7444 33.3199 19.0388 33.269 19.4424C33.2181 19.8461 33.4372 20.2062 33.7584 20.2467C34.0796 20.2872 34.3813 19.9928 34.4323 19.5891Z" fill="#FFE7E6"/>
<path d="M33.8198 20.3094C33.7328 20.3094 33.647 20.288 33.5702 20.2472C33.2524 20.079 33.1166 19.6157 33.268 19.2147C33.3502 18.996 33.5028 18.8301 33.6919 18.7593C33.7635 18.7314 33.8403 18.7193 33.917 18.7238C33.9938 18.7283 34.0686 18.7494 34.1364 18.7855C34.4542 18.9538 34.59 19.4166 34.4386 19.8176C34.3564 20.0363 34.2018 20.2026 34.0147 20.2734C33.9525 20.2971 33.8865 20.3093 33.8198 20.3094ZM33.8875 18.8403C33.8348 18.8406 33.7826 18.8504 33.7334 18.8693C33.5768 18.9283 33.4484 19.0692 33.3776 19.2566C33.2465 19.6044 33.3576 20.0023 33.6249 20.1435C33.678 20.1722 33.7366 20.189 33.7968 20.1925C33.857 20.196 33.9173 20.1862 33.9733 20.1639C34.1298 20.1052 34.2582 19.9639 34.329 19.7765C34.4601 19.4291 34.349 19.0312 34.0817 18.8896C34.022 18.8575 33.9553 18.8405 33.8875 18.8403Z" fill="#324A58"/>
<path d="M40.4955 28.1045C40.3096 28.009 40.1214 27.9194 39.932 27.8306C39.8059 27.7735 39.6784 27.718 39.5508 27.6655C39.8153 28.4543 40.0525 29.2492 40.2728 30.0521C40.3632 30.3772 40.4486 30.7039 40.5311 31.0301L40.6423 31.0485C40.934 31.0953 41.2281 31.1264 41.5232 31.1416L41.7436 31.1467C41.8167 31.1467 41.8899 31.1428 41.9631 31.1413C42.0363 31.1397 42.1079 31.1295 42.1803 31.1244C42.2527 31.1193 42.3228 31.1021 42.394 31.092C42.2825 30.3322 42.1917 29.5877 42.1506 29.0759C41.9651 28.952 41.7771 28.8318 41.5866 28.7152C41.232 28.4985 40.8689 28.2935 40.4955 28.1045Z" fill="#2568EF"/>
<path d="M48.8307 30.7089C48.4394 30.7089 48.0296 30.9221 47.6504 31.2112L47.8269 31.5042C47.866 31.5661 47.8985 31.6318 47.9345 31.6952L48.0398 31.8873C48.1834 32.1416 48.3083 32.406 48.4378 32.6674C48.5047 32.7973 48.5611 32.9319 48.6202 33.0653L48.7955 33.4659C48.7994 33.4752 48.8019 33.4851 48.8029 33.4952C49.7062 33.4064 50.5875 33.3356 50.5875 33.3356C50.1932 32.4525 49.7341 31.5997 49.2139 30.7844C49.0942 30.7344 48.9658 30.7088 48.8362 30.7089H48.8307Z" fill="#2568EF"/>
<path d="M41.5129 31.3031C41.2116 31.2816 40.9141 31.2381 40.6183 31.19L40.5674 31.181C40.5823 31.2405 40.5971 31.2984 40.6116 31.3586L40.7681 32.0155L40.9145 32.6752C40.965 32.8942 41.0069 33.1161 41.0507 33.3367C41.0945 33.5574 41.1395 33.7784 41.1767 34.0018C41.2139 34.2252 41.255 34.4463 41.2906 34.6669L41.3297 34.9341C41.4597 34.9294 41.5892 34.9201 41.7176 34.9075C41.8887 34.8924 42.0586 34.8662 42.2263 34.8293C42.3918 34.7941 42.5534 34.7428 42.7089 34.6763C42.8647 34.6109 43.0093 34.5216 43.1374 34.4115C43.0592 34.2221 42.9848 34.0202 42.9179 33.8074C42.7656 33.3211 42.5774 32.3062 42.4232 31.2859C42.1211 31.3222 41.8161 31.328 41.5129 31.3031Z" fill="#2568EF"/>
<path d="M46.1372 27.5135C45.7999 27.571 45.5013 27.8011 45.2441 28.1094L45.4723 28.3484C45.5748 28.4525 45.6703 28.5632 45.7682 28.672C45.866 28.7807 45.9638 28.8879 46.057 29.0018L46.338 29.3386C46.4307 29.4517 46.518 29.5691 46.6084 29.6841L46.743 29.8574C46.7877 29.9149 46.8284 29.9748 46.8714 30.035L47.1254 30.3926C47.2072 30.5135 47.2862 30.6364 47.3665 30.7584L47.487 30.9419C47.5081 30.9748 47.5285 31.0084 47.5488 31.0421C47.9535 30.7381 48.3969 30.5155 48.8297 30.5131H48.8364C48.9089 30.5132 48.9812 30.5198 49.0524 30.5331C48.3929 29.5273 47.6651 28.5679 46.8741 27.6618C46.6221 27.5225 46.3765 27.4731 46.1372 27.5135Z" fill="#2568EF"/>
<path d="M43.6617 25.1131C43.2524 25.1886 42.8602 25.4601 42.5068 25.8134C42.8591 26.0536 43.2003 26.3075 43.5353 26.5704C43.9928 26.9347 44.4354 27.3188 44.8565 27.7234L45.1066 27.9695C45.3888 27.6373 45.7214 27.3861 46.1042 27.3208C46.2657 27.2935 46.4311 27.3002 46.5899 27.3404C45.9485 26.6223 45.2692 25.939 44.5548 25.2934C44.2672 25.1174 43.9682 25.0563 43.6617 25.1131Z" fill="#2568EF"/>
<path d="M47.1419 30.9081C47.0609 30.7907 46.9811 30.6698 46.8985 30.552L46.6426 30.2046C46.5995 30.1471 46.558 30.0872 46.5142 30.0313L46.3807 29.8619C46.2915 29.7492 46.2046 29.6342 46.113 29.5235L45.8348 29.1937C45.744 29.0822 45.6442 28.9785 45.5487 28.8709C45.4532 28.7633 45.3573 28.6561 45.256 28.5544L45.0603 28.3529C44.5347 29.1127 44.2197 30.1408 44.1484 30.3873C44.3285 30.5514 44.505 30.719 44.6779 30.8901L44.8987 31.1178L45.0086 31.232L45.1151 31.3494C45.1859 31.4276 45.2579 31.5059 45.3272 31.5841L45.5327 31.8263C45.6023 31.9045 45.6669 31.9898 45.7326 32.0724C45.7984 32.1549 45.8657 32.2371 45.9283 32.3224C45.9909 32.4077 46.0457 32.4812 46.104 32.561C46.3185 32.2676 46.7799 31.6788 47.34 31.207C47.3145 31.1678 47.2891 31.1252 47.2617 31.0849L47.1419 30.9081Z" fill="#2568EF"/>
<path d="M42.1102 25.5501C42.1885 25.5996 42.2652 25.65 42.3403 25.7011C42.7258 25.3098 43.1622 25.0062 43.6259 24.9206C43.7748 24.8928 43.9272 24.8894 44.0772 24.9104C43.0557 24.1425 42.0998 23.6234 41.2093 23.3529C40.4414 23.3404 39.7276 23.6659 39.166 24.0383C40.2066 24.4264 41.1807 24.955 42.1102 25.5501Z" fill="#2568EF"/>
<path d="M44.6457 27.9427C44.2305 27.5452 43.8 27.1626 43.3515 26.8022C43.0126 26.5311 42.6639 26.2737 42.3078 26.0256C41.6155 26.8081 41.1059 27.839 40.9678 28.1328C41.212 28.2656 41.4528 28.4043 41.6902 28.5491C42.4119 28.9896 43.0989 29.4845 43.7452 30.0295C43.8266 30.0992 43.9073 30.1692 43.9871 30.2404C44.0967 29.8738 44.4098 28.929 44.9209 28.2091L44.6457 27.9427Z" fill="#2568EF"/>
<path d="M48.2377 32.7682C48.1027 32.5135 47.9724 32.2564 47.8237 32.0096C47.7505 31.8856 47.682 31.7588 47.6069 31.6363L47.4456 31.3789C46.8801 31.8629 46.4109 32.4744 46.2246 32.7322C46.2497 32.7682 46.2747 32.8046 46.299 32.8409C46.5095 33.1414 46.6989 33.456 46.8817 33.7737C46.9228 33.7044 47.7427 33.6039 48.6037 33.517L48.4295 33.1559C48.3661 33.0244 48.3074 32.893 48.2377 32.7682Z" fill="#2568EF"/>
<path d="M48.6035 33.5157L48.6176 33.5439V33.5478C48.6277 33.5683 48.6447 33.5845 48.6656 33.5938C48.6865 33.6031 48.71 33.6047 48.732 33.5985C48.754 33.5923 48.7731 33.5786 48.786 33.5597C48.7989 33.5409 48.8048 33.5181 48.8027 33.4954L48.6035 33.5157Z" fill="#2568EF"/>
<path d="M29.9467 12.4956C29.8375 12.4384 29.6164 12.5453 29.5221 12.6012C29.5087 12.6939 29.5127 12.7624 29.5397 12.7968C29.6144 12.8856 29.6864 12.9259 29.7533 12.9142C29.8203 12.9025 29.9099 12.8481 30.0195 12.6497C30.014 12.5699 29.9885 12.5179 29.9467 12.4956Z" fill="#FF564F"/>
<path d="M30.2785 12.8936C30.1862 12.8866 30.093 12.9347 30.0022 13.0352C29.976 13.119 29.9377 13.27 29.9936 13.3564C30.0097 13.3782 30.0305 13.396 30.0546 13.4084C30.0786 13.4208 30.1051 13.4275 30.1322 13.428C30.2222 13.4378 30.3278 13.4245 30.5447 13.1475C30.5525 13.1268 30.5607 13.1061 30.5693 13.0845C30.5286 13.0298 30.4186 12.9022 30.2785 12.8936Z" fill="#FF564F"/>
<path d="M30.5957 13.619C30.6071 13.6369 30.6231 13.6515 30.642 13.661C30.661 13.6706 30.6822 13.6749 30.7033 13.6734C30.8235 13.6647 30.9773 13.5106 31.1127 13.3404C31.0783 13.2324 31.0254 13.1651 30.9562 13.1413C30.8329 13.0994 30.6822 13.1925 30.6399 13.2195C30.5679 13.4097 30.5448 13.554 30.5957 13.619Z" fill="#FF564F"/>
<path d="M30.2879 12.7763C30.4366 12.7873 30.5536 12.8882 30.6209 12.9629C30.8863 12.3761 31.4005 11.6273 31.6158 11.3252C31.4338 10.7877 30.8475 11.3198 30.6409 11.5302C30.5137 11.8225 30.2143 12.5107 30.084 12.8213C30.1463 12.7872 30.217 12.7716 30.2879 12.7763Z" fill="#FF564F"/>
<path d="M30.0008 12.3916C30.0423 12.4133 30.0759 12.4473 30.0971 12.489L30.0995 12.4835C30.2392 12.1584 30.4219 11.7378 30.5213 11.5101C30.33 11.1608 30.1085 11.2617 29.9406 11.4374C29.784 11.7684 29.624 12.1678 29.5527 12.4515C29.6752 12.3912 29.8666 12.3216 30.0008 12.3916Z" fill="#FF564F"/>
<path d="M33.8362 13.5755C33.745 13.4972 33.2101 13.5755 32.8688 13.8192C32.8238 13.9147 32.798 14.0148 32.825 14.0931C32.8539 14.1768 32.9463 14.2323 33.0989 14.2582C33.1145 14.2595 33.1289 14.2669 33.139 14.2788C33.1491 14.2907 33.154 14.3062 33.1527 14.3217C33.1514 14.3373 33.144 14.3517 33.1321 14.3618C33.1201 14.3719 33.1047 14.3768 33.0891 14.3755H33.0793C32.8809 14.3419 32.758 14.2605 32.7138 14.133C32.6975 14.0825 32.6927 14.029 32.6997 13.9765C32.6779 14.0038 32.6583 14.0329 32.641 14.0633C32.45 14.4096 32.0908 14.6025 32.0908 14.6025C32.0908 14.6025 32.382 14.0547 32.6688 13.4933C32.2383 13.5946 31.0592 13.9268 30.604 14.6005C30.524 14.7144 30.4684 14.8437 30.4408 14.9802C30.4131 15.1167 30.4141 15.2574 30.4436 15.3935C30.4451 15.4011 30.4451 15.4089 30.4437 15.4164C30.4422 15.424 30.4393 15.4312 30.435 15.4376C30.4308 15.4441 30.4253 15.4496 30.4189 15.4539C30.4125 15.4582 30.4053 15.4612 30.3978 15.4628H30.3856C30.3722 15.4628 30.3591 15.4581 30.3487 15.4495C30.3383 15.441 30.3311 15.4291 30.3285 15.4158C30.2958 15.2644 30.2947 15.1079 30.3254 14.9561C30.356 14.8043 30.4177 14.6605 30.5066 14.5336C31.0326 13.7554 32.409 13.4248 32.7373 13.3556C32.9271 12.9816 33.1044 12.6209 33.1807 12.4323C33.8597 10.759 33.9869 9.89904 33.846 9.17251C33.7944 8.90687 33.3764 8.57001 33.2081 9.6596C33.205 9.67995 33.2011 9.70107 33.1971 9.7222C33.2132 9.78812 33.2378 9.85165 33.2703 9.91116C33.2719 9.9131 33.2732 9.9152 33.2742 9.91742C33.2927 9.94944 33.3158 9.97858 33.3427 10.0039C33.3731 10.0312 33.4097 10.0508 33.4493 10.061C33.4888 10.0712 33.5303 10.0717 33.5701 10.0626C33.5778 10.0613 33.5857 10.0615 33.5933 10.0632C33.601 10.065 33.6082 10.0682 33.6145 10.0727C33.6209 10.0772 33.6263 10.083 33.6305 10.0896C33.6347 10.0962 33.6375 10.1036 33.6388 10.1113C33.6401 10.119 33.6399 10.1269 33.6381 10.1345C33.6364 10.1421 33.6332 10.1493 33.6287 10.1557C33.6241 10.1621 33.6184 10.1675 33.6118 10.1717C33.6052 10.1758 33.5978 10.1786 33.5901 10.1799C33.5642 10.1845 33.538 10.1868 33.5118 10.187C33.4206 10.1882 33.3325 10.1543 33.2656 10.0923C33.2565 10.084 33.2479 10.0754 33.2398 10.0665C33.0418 10.5583 32.1855 12.6846 32.1017 12.8591C32.097 12.8691 32.0895 12.8775 32.0801 12.8834C32.0708 12.8893 32.06 12.8924 32.0489 12.8924C32.039 12.8924 32.0292 12.8898 32.0205 12.885C32.0119 12.8802 32.0045 12.8733 31.9993 12.8649C31.994 12.8565 31.9909 12.8469 31.9904 12.837C31.9898 12.8271 31.9918 12.8172 31.9961 12.8083C32.0207 12.757 32.117 12.525 32.2442 12.2132C32.2622 11.3098 31.8137 11.3916 31.6846 11.4346C31.3374 11.9229 30.9226 12.5782 30.7097 13.05C30.7991 13.0101 30.8996 13.0029 30.9938 13.0297C31.0396 13.047 31.0813 13.0737 31.1162 13.1081C31.1511 13.1424 31.1785 13.1837 31.1965 13.2292C31.2748 13.1216 31.3382 13.0187 31.3762 12.9522L31.793 12.2433C31.7966 12.2362 31.8017 12.2299 31.8078 12.2248C31.814 12.2197 31.8211 12.2159 31.8288 12.2136C31.8365 12.2114 31.8446 12.2107 31.8525 12.2117C31.8605 12.2127 31.8682 12.2153 31.8751 12.2194C31.882 12.2235 31.8879 12.2289 31.8927 12.2354C31.8974 12.2418 31.9007 12.2492 31.9025 12.257C31.9043 12.2648 31.9044 12.2729 31.903 12.2808C31.9015 12.2887 31.8984 12.2961 31.8939 12.3028L31.4764 13.0109C31.4325 13.0892 31.0345 13.7664 30.7109 13.7895H30.6932C30.6558 13.789 30.619 13.7797 30.5859 13.7624C30.5527 13.745 30.524 13.7201 30.5023 13.6897C30.4537 13.6271 30.4467 13.5273 30.4694 13.4037C30.352 13.5113 30.2608 13.5442 30.1692 13.5442C30.1524 13.5442 30.1355 13.5433 30.1187 13.5414C30.0743 13.5393 30.0309 13.5269 29.992 13.5053C29.9531 13.4836 29.9197 13.4533 29.8945 13.4166C29.8053 13.277 29.8663 13.0696 29.8968 12.9765C29.8491 13.0119 29.7912 13.0311 29.7317 13.0313C29.635 13.0313 29.5403 12.9765 29.4491 12.8689C29.4006 12.8106 29.3932 12.7034 29.41 12.5712C29.4084 12.56 29.41 12.5486 29.4147 12.5383C29.4589 12.3178 29.5244 12.1021 29.6104 11.8943C27.9228 13.8814 29.3047 14.9154 29.3047 14.9154L28.7686 15.9624L30.2451 16.9436C30.2451 16.9436 30.3547 16.1052 30.5653 16.0672C31.1464 15.9624 31.6752 15.9233 31.9992 15.7175C32.2008 15.5891 32.4336 15.3532 32.6813 15.0089C32.969 14.6095 33.5768 14.3282 33.7357 14.1052C33.9834 13.766 34.0452 13.7543 33.8362 13.5755Z" fill="#FF564F"/>
<path d="M41.9568 25.7856C41.4781 25.4659 40.9862 25.1667 40.4774 24.894C40.2246 24.7563 39.9684 24.6252 39.7088 24.5008C39.5789 24.439 39.4482 24.3787 39.3174 24.3212C39.2024 24.2703 39.0846 24.2207 38.9691 24.1757C38.6389 24.4151 38.3321 24.6853 38.053 24.9828L39.4356 25.6956C39.4561 25.7064 39.4721 25.7242 39.4808 25.7457C39.4894 25.7672 39.4901 25.7911 39.4828 25.813C39.4755 25.835 39.4606 25.8537 39.4407 25.8657C39.4209 25.8778 39.3975 25.8823 39.3746 25.8787C37.5818 25.5775 36.322 27.8122 35.625 29.55C36.1432 29.7613 36.6703 29.9565 37.2006 30.1369C37.7631 30.3309 38.3311 30.5066 38.9046 30.6639C39.3272 30.7813 39.7542 30.8845 40.1839 30.9679C40.1166 30.6878 40.0484 30.4078 39.9792 30.1279L39.8982 29.802L39.8149 29.4761L39.7339 29.1518L39.6485 28.8267C39.5374 28.3928 39.418 27.9601 39.2998 27.5289L39.2979 27.5219C39.2933 27.5047 39.2935 27.4866 39.2986 27.4695C39.3036 27.4524 39.3134 27.4371 39.3266 27.4252C39.3399 27.4134 39.3562 27.4054 39.3737 27.4022C39.3912 27.399 39.4093 27.4008 39.4259 27.4073C39.6282 27.4832 39.8207 27.5665 40.0129 27.6541C40.205 27.7418 40.3964 27.8333 40.5847 27.9299C40.6555 27.9659 40.7256 28.0031 40.7956 28.0399C40.9435 27.723 41.4449 26.7058 42.1442 25.9135C42.082 25.8709 42.0194 25.8274 41.9568 25.7856ZM38.9707 28.7097C38.9656 28.7311 38.9535 28.7502 38.9362 28.7639C38.919 28.7776 38.8976 28.7851 38.8756 28.7852C38.8681 28.7852 38.8606 28.7844 38.8533 28.7828L37.1705 28.3916C37.1579 28.3887 37.1461 28.3834 37.1356 28.3759C37.1251 28.3684 37.1162 28.3589 37.1094 28.348C37.1026 28.3371 37.098 28.3249 37.0959 28.3122C37.0938 28.2996 37.0942 28.2866 37.0971 28.274C37.1 28.2615 37.1053 28.2497 37.1128 28.2392C37.1203 28.2287 37.1298 28.2198 37.1407 28.213C37.1516 28.2062 37.1638 28.2016 37.1765 28.1995C37.1892 28.1974 37.2022 28.1978 37.2147 28.2007L38.8975 28.5919C38.9101 28.5948 38.9219 28.6002 38.9324 28.6077C38.9429 28.6152 38.9518 28.6246 38.9586 28.6356C38.9654 28.6465 38.97 28.6587 38.972 28.6714C38.9741 28.6841 38.9737 28.6971 38.9707 28.7097Z" fill="#2568EF"/>
<path d="M37.6846 28.2978L37.8071 27.0931C37.8071 27.0931 38.7166 27.5215 38.9514 27.2911L38.524 28.4941L37.6846 28.2978Z" fill="#FF564F"/>
<path d="M32.9623 41.1454L32.9674 41.1419C33.1987 40.9885 33.4245 40.8214 33.6464 40.6458C33.7568 40.557 33.8695 40.4721 33.9787 40.3813L34.3082 40.1121C34.6146 39.8598 34.9187 39.6035 35.2228 39.3469C35.0649 39.2319 34.8996 39.1274 34.7281 39.0339C33.7783 38.5163 32.787 38.3848 32.7768 38.3837C32.7588 38.3814 32.7417 38.3742 32.7275 38.3629L30.4502 40.2749C30.8603 40.2784 32.0015 40.3656 32.9408 41.1645C32.947 41.1571 32.9542 41.1507 32.9623 41.1454Z" fill="#2568EF"/>
<path d="M35.5106 39.5785C35.4026 39.6666 35.294 39.7538 35.185 39.8398C34.9627 40.0194 34.7337 40.1919 34.5064 40.3653C34.279 40.5386 34.0453 40.7056 33.8054 40.8657C33.5756 41.024 33.3363 41.1681 33.0889 41.2972C33.4368 41.6305 33.7475 42.0714 33.971 42.654C34.0947 42.5965 35.1795 42.089 36.4671 41.4271C36.3974 40.7021 36.0769 40.0844 35.5106 39.5785Z" fill="#2568EF"/>
<path d="M37.6195 41.0426C37.4831 41.1162 37.3469 41.1888 37.2109 41.2605C38.1212 41.8287 39.0735 42.3267 40.0596 42.75L42.7283 40.8763C42.7283 40.8763 41.4368 40.036 40.8009 39.0481C40.5835 39.2292 40.357 39.3989 40.1222 39.5567C39.5094 39.9785 38.6676 40.4781 37.6195 41.0426Z" fill="#2568EF"/>
<path d="M41.0725 15.7368C40.5383 15.1476 40.1258 15.8905 39.9614 16.2724L40.1316 16.772C40.1389 16.7962 40.1365 16.8223 40.1249 16.8448C40.1133 16.8673 40.0934 16.8844 40.0694 16.8926C40.0455 16.9007 40.0193 16.8993 39.9963 16.8886C39.9734 16.8778 39.9556 16.8586 39.9465 16.835L39.6307 15.9093C39.1982 14.9793 38.3611 13.3401 38.3392 14.54C38.3118 16.1609 39.8819 17.5959 39.8819 17.5959L40.4811 18.3134C40.4811 18.3134 40.8122 18.34 41.3973 18.072C41.9824 17.804 41.7706 16.5075 41.0725 15.7368Z" fill="#2568EF"/>
<path d="M37.0663 24.7479C37.0526 24.7737 35.8586 26.8813 35.3498 29.3645C35.3039 29.587 35.2648 29.8053 35.2324 30.0194C35.2821 29.8817 35.3357 29.7377 35.3933 29.589C35.3944 29.5821 35.3961 29.5753 35.3984 29.5687C35.4014 29.5615 35.4051 29.5545 35.4093 29.548C35.5561 29.1763 35.7283 28.7804 35.9259 28.3899C36.3674 27.5179 36.8479 26.8434 37.3547 26.3852C37.8616 25.9271 38.3868 25.6873 38.9335 25.6587L37.8498 25.1C37.8367 25.0934 37.8253 25.0838 37.8164 25.0721C37.8075 25.0604 37.8014 25.0468 37.7985 25.0324C37.7956 25.018 37.796 25.0031 37.7996 24.9889C37.8033 24.9746 37.8102 24.9614 37.8197 24.9502C37.8753 24.8841 39.0591 23.4964 40.6144 23.2104C40.38 23.1675 40.1426 23.1437 39.9044 23.1392C39.7054 23.1425 39.507 23.1618 39.3111 23.1971C37.7512 23.4807 37.0718 24.737 37.0663 24.7479Z" fill="#2568EF"/>
<path d="M35.599 34.0273C36.2314 34.1912 36.8681 34.345 37.506 34.4803C37.681 34.5195 37.8559 34.5535 38.0312 34.5864C38.2066 34.6192 38.3835 34.6544 38.5576 34.6849C38.9098 34.7444 39.2621 34.8 39.6143 34.8414C39.9665 34.8829 40.3187 34.9154 40.6709 34.9302C40.759 34.9326 40.847 34.9357 40.9347 34.9361H41.0079L40.9727 34.7182L40.851 34.059C40.8118 33.8387 40.7668 33.6196 40.7226 33.4005C40.6784 33.1814 40.6361 32.9616 40.5872 32.7432C40.4733 32.1986 40.3489 31.6564 40.2197 31.1145C40.0589 31.0828 39.8988 31.048 39.7391 31.0113C39.5931 30.9784 39.4479 30.9432 39.3028 30.9084C39.1576 30.8735 39.0128 30.8352 38.8687 30.7961C38.5799 30.7178 38.2929 30.6357 38.0078 30.5496C37.7221 30.4624 37.4364 30.3755 37.1526 30.282C36.6173 30.1063 36.0854 29.9228 35.5555 29.7264C35.372 30.2006 35.2323 30.6263 35.1368 30.942C35.0637 32.1204 35.2178 33.1488 35.599 34.0273Z" fill="#2568EF"/>
<path d="M38.383 36.9935C38.1873 37.2017 37.9819 37.4012 37.7756 37.5992C37.5694 37.7971 37.3596 37.9904 37.1495 38.1821L36.8305 38.4681L36.5069 38.7486C36.2924 38.9368 36.0709 39.1175 35.8521 39.3014C35.7895 39.3535 35.7261 39.4051 35.6631 39.4579C36.2278 39.9743 36.5632 40.6081 36.6532 41.3358L36.7197 41.2971L37.009 41.1277L37.0246 41.1379C37.1921 41.0495 37.3608 40.9596 37.5306 40.8683C40.6224 39.2017 41.2579 38.4427 41.2959 38.1895C41.3031 38.1907 41.3102 38.1926 41.317 38.1954L41.3229 38.179C40.4772 37.9599 39.4964 37.5882 38.3854 36.9896L38.383 36.9935Z" fill="#2568EF"/>
<path d="M36.5484 35.7339C36.5416 35.7483 36.53 35.7598 36.5155 35.7664C36.4995 35.7711 36.2772 35.8329 35.8937 35.8329C35.5035 35.8297 35.1154 35.7743 34.7399 35.6682C33.8664 35.4287 32.571 34.8102 31.1367 33.2507C31.3844 34.4143 31.9488 36.0226 33.2223 37.6952L34.2183 36.8599C34.187 36.8481 34.1556 36.8356 34.1239 36.8207C34.0402 36.7859 33.958 36.7468 33.877 36.7034C33.8379 36.683 33.7968 36.6599 33.7572 36.6376L33.6978 36.604L33.6398 36.568C33.5616 36.5203 33.488 36.4659 33.4136 36.4115C33.2673 36.2995 33.1326 36.173 33.0117 36.034L32.9268 35.924L32.9057 35.8966L32.8869 35.8673L32.8497 35.8082C32.8236 35.7698 32.8003 35.7295 32.78 35.6877C32.7638 35.6644 32.7558 35.6364 32.7573 35.608C32.7589 35.5796 32.7699 35.5526 32.7886 35.5312C32.881 35.5363 32.9037 35.5704 32.9229 35.6075C32.9441 35.6438 32.9681 35.6785 32.9945 35.7112L33.0336 35.7621L33.0528 35.7871L33.0739 35.8106L33.1589 35.9045C33.2782 36.0255 33.4077 36.1361 33.5459 36.2351C33.6167 36.2836 33.6864 36.3325 33.7608 36.3759L33.8148 36.4103L33.8707 36.4424C33.9099 36.4635 33.9451 36.4855 33.9834 36.505C34.0588 36.5465 34.1356 36.5856 34.2136 36.6224C34.2527 36.6412 34.2918 36.6592 34.331 36.6764C34.3701 36.6936 34.4092 36.712 34.4484 36.7268C34.4647 36.7326 34.4792 36.7425 34.4904 36.7557C34.5016 36.7688 34.5092 36.7846 34.5123 36.8016C34.5154 36.8186 34.514 36.8361 34.5082 36.8524C34.5024 36.8687 34.4925 36.8831 34.4793 36.8943L32.9166 38.2045C33.5826 38.3212 34.2259 38.5422 34.8229 38.8595C35.0159 38.9642 35.2011 39.0826 35.3771 39.2139L35.6154 39.0128L35.9406 38.7362L36.1026 38.5977L36.2658 38.4604L36.5918 38.1846L36.9198 37.9107C37.3409 37.5629 37.7632 37.2163 38.1984 36.8845C38.0058 36.7777 37.8097 36.6646 37.6113 36.5438C37.2267 36.3161 36.8699 36.0443 36.5484 35.7339Z" fill="#2568EF"/>
<path d="M36.7848 24.4184C36.7848 24.4184 35.4487 24.132 35.1482 24.4028C34.8206 24.6978 34.5508 25.0513 34.3525 25.445L36.7848 24.4184Z" fill="#324A58"/>
<path d="M41.5683 38.0405C41.5682 38.0477 41.5673 38.0549 41.5656 38.062C41.9624 38.145 42.3633 38.2073 42.7666 38.2486C43.0641 38.2697 43.3627 38.2697 43.6601 38.2486C44.6451 38.1786 45.2568 37.8832 45.5014 37.74C45.8623 37.2756 44.2464 36.7956 43.2527 34.6672C43.1317 34.7821 42.9959 34.8803 42.8488 34.9591C42.5064 35.1414 42.1338 35.233 41.7655 35.2873C41.6407 35.3053 41.5155 35.3179 41.3906 35.3265V35.3382C41.5084 36.2322 41.5851 37.1351 41.5683 38.0405Z" fill="#2568EF"/>
<path d="M41.3274 37.3746C41.3228 37.2635 41.3083 37.1528 41.2965 37.0417L41.2605 36.7092C41.248 36.598 41.2398 36.4873 41.2241 36.3766L41.2128 36.2984C41.2128 36.2964 41.21 36.2941 41.2085 36.2917L41.174 36.0464C41.1427 35.8254 41.1181 35.6039 41.0782 35.3836L41.0719 35.3445C41.0253 35.3445 40.9784 35.3473 40.9318 35.3473C40.8394 35.3473 40.7479 35.3473 40.6555 35.3441C40.4719 35.3387 40.2888 35.3281 40.1076 35.3144C39.9264 35.3007 39.7436 35.2784 39.5624 35.2557C39.3812 35.233 39.2012 35.2052 39.0212 35.1775C38.8412 35.1497 38.6627 35.1133 38.4846 35.0785C38.3066 35.0437 38.1289 35.0042 37.9516 34.9639C37.7743 34.9236 37.5994 34.8786 37.4237 34.8332C37.2479 34.7878 37.0714 34.7401 36.8992 34.6888C36.7271 34.6376 36.5513 34.5871 36.3791 34.5323C36.1623 34.4631 35.9486 34.3907 35.7334 34.3132C36.1655 35.1588 36.8242 35.85 37.7097 36.3868C39.1276 37.2424 40.3494 37.7318 41.3693 37.9963L41.3494 37.7138L41.3274 37.3746Z" fill="#2568EF"/>
<path d="M53.3222 37.1987C53.3195 37.1987 53.3183 37.2069 53.3183 37.212C53.3183 37.2324 53.3148 37.2562 53.3124 37.2828C53.3011 37.4108 53.2835 37.6048 53.3684 37.6932C53.383 37.708 53.4006 37.7195 53.42 37.7269C53.478 37.6181 53.5249 37.4409 53.5508 37.2433C53.3946 37.1858 53.3398 37.187 53.3222 37.1987Z" fill="#FF564F"/>
<path d="M48.7839 38.8873C48.7886 38.8282 48.6794 38.5743 48.5663 38.3517L48.2979 38.3877C48.3926 38.6107 48.4794 38.7989 48.4935 38.9158C48.4977 38.9458 48.5049 38.9753 48.5151 39.0039C48.6497 38.9644 48.7632 38.9158 48.7839 38.8873Z" fill="#FF564F"/>
<path d="M50.1895 39.9037C50.1668 39.935 50.1413 39.9702 50.1112 40.0093C50.0706 40.0608 50.0462 40.1231 50.0411 40.1884C50.0359 40.2538 50.0502 40.3191 50.0822 40.3763C50.3171 40.2022 50.5084 40.0477 50.6693 39.9096C50.3241 39.7202 50.3077 39.7409 50.1895 39.9037Z" fill="#FF564F"/>
<path d="M52.5312 39.8125L52.4463 40.4486L52.7758 40.5765C52.8447 40.3809 52.8866 40.1137 52.9093 39.9287C52.8052 39.8203 52.6095 39.8105 52.5312 39.8125Z" fill="#FF564F"/>
<path d="M53.7828 35.1188C53.7323 35.1188 53.5828 35.1387 53.3707 35.1606C53.3821 35.2319 53.4099 35.3195 53.4783 35.3261C53.6376 35.3418 53.8282 35.2604 53.8306 35.2592C53.8449 35.253 53.8611 35.2527 53.8756 35.2585C53.8902 35.2642 53.9018 35.2754 53.9081 35.2898C53.9143 35.3041 53.9146 35.3203 53.9088 35.3348C53.9031 35.3493 53.8919 35.361 53.8775 35.3672C53.7642 35.4145 53.6433 35.441 53.5206 35.4455C53.5027 35.4455 53.4848 35.4446 53.467 35.4427C53.3285 35.4294 53.2713 35.2944 53.2525 35.1724C53.0146 35.1947 52.7179 35.2154 52.4006 35.2154C52.0237 35.2154 51.0386 34.7851 50.7259 34.7592C50.5056 34.476 50.2837 34.2264 50.1898 34.1661C49.4877 33.717 49.4634 33.42 49.4634 33.42L47.6123 33.593L48.7081 34.4584L48.343 35.3844C48.1258 35.7565 47.9348 36.76 48.0385 37.5527C48.0706 37.7999 48.1602 38.0511 48.2518 38.2753L48.5919 38.2295C48.6038 38.228 48.6159 38.2301 48.6266 38.2356C48.6373 38.2412 48.6461 38.2498 48.6517 38.2604C48.7852 38.5155 48.9355 38.839 48.8924 38.9337C48.8588 39.008 48.7069 39.0687 48.5793 39.1078C48.8286 39.3648 49.499 38.9005 49.2752 38.4642C49.1899 38.2976 49.0795 37.7068 49.1339 37.5081C49.2486 37.0992 49.5456 36.7111 49.5456 36.7111L50.2215 37.1685C50.2215 37.1685 50.3044 37.3715 50.5937 37.9611C51.0108 38.8113 49.5918 39.8175 49.5969 40.2001C49.5969 40.339 49.7534 40.4673 49.9765 40.4325C49.9338 40.355 49.9148 40.2667 49.9218 40.1784C49.9287 40.0902 49.9614 40.006 50.0156 39.9361C50.0454 39.8993 50.07 39.8648 50.0939 39.8347C50.2551 39.6125 50.3287 39.5871 50.7529 39.8242C50.7547 39.8251 50.7564 39.8262 50.758 39.8273C50.8775 39.721 50.9902 39.6073 51.0954 39.4869C51.1639 39.3997 51.2284 39.3105 51.2868 39.2213C51.4128 39.0018 51.4214 38.8343 51.4304 38.6559C51.4333 38.572 51.4405 38.4883 51.4519 38.4052C51.491 38.1313 51.4382 36.9439 51.4374 36.9318C51.4367 36.9162 51.4423 36.901 51.4528 36.8895C51.4634 36.878 51.478 36.8712 51.4936 36.8705C51.5092 36.8699 51.5244 36.8754 51.5358 36.8859C51.5473 36.8965 51.5542 36.9111 51.5548 36.9267C51.5548 36.9439 51.5627 37.1008 51.5697 37.3081L52.3364 38.4916C52.3364 38.4916 51.7305 41.0679 52.6029 40.8198C52.6596 40.8038 52.707 40.7393 52.7469 40.6493L52.361 40.499L52.462 39.7381L52.4937 39.7353C52.505 39.7353 52.7567 39.7162 52.9199 39.8351C52.9277 39.7616 52.9312 39.715 52.9312 39.715C52.9312 39.715 53.0662 38.7044 53.0682 38.3516C53.0709 37.848 52.4538 36.7279 51.9998 36.2905L51.6433 35.9799C51.6315 35.9695 51.6244 35.9549 51.6235 35.9393C51.6225 35.9237 51.6278 35.9083 51.6382 35.8966C51.6486 35.8848 51.6632 35.8777 51.6788 35.8768C51.6944 35.8758 51.7098 35.8811 51.7215 35.8915L52.0429 36.1716C52.4733 36.3633 52.8807 36.5785 52.8878 36.706C52.9113 37.1286 53.1296 37.886 53.3136 37.8379C53.3251 37.8344 53.336 37.8289 53.3457 37.8218C53.3226 37.8094 53.3016 37.7934 53.2835 37.7745C53.1617 37.6473 53.1821 37.4224 53.1954 37.2721C53.1977 37.2471 53.1997 37.2248 53.2009 37.2056C53.201 37.1847 53.2063 37.1641 53.2162 37.1457C53.2262 37.1272 53.2405 37.1116 53.258 37.1C53.3316 37.0519 53.4506 37.0828 53.5641 37.1231C53.5826 36.9323 53.576 36.7398 53.5445 36.5507C53.5054 36.3516 53.094 36.0977 52.6174 35.8649L52.017 35.6567C52.0023 35.6515 51.9902 35.6407 51.9835 35.6266C51.9767 35.6125 51.9758 35.5963 51.981 35.5816C51.9862 35.5669 51.997 35.5548 52.0111 35.5481C52.0252 35.5413 52.0414 35.5404 52.0562 35.5456L52.3458 35.6462C52.8937 35.6383 53.4807 35.6172 53.7832 35.5679C54.4403 35.4545 54.0016 35.1192 53.7828 35.1188Z" fill="#FF564F"/>
</g>
<mask id="mask2_983_1638" style="mask-type:luminance" maskUnits="userSpaceOnUse" x="26" y="25" width="11" height="8">
<path d="M36.3307 25.4462H26.5029V32.0584H36.3307V25.4462Z" fill="white"/>
</mask>
<g mask="url(#mask2_983_1638)">
<path d="M36.2318 29.4236C36.2318 27.8282 36.1688 25.7974 36.1688 25.7974C36.1688 25.7974 33.3166 25.5986 31.3974 25.5715C29.4297 25.5438 26.7577 25.5715 26.7577 25.5715L26.6016 31.7558C26.6016 31.7558 29.7656 31.6002 32.1387 31.6794C32.811 31.7018 36.2026 31.7949 36.2026 31.7949C36.2026 31.7949 36.2318 31.0187 36.2318 29.4236Z" fill="#324A58"/>
</g>
<mask id="mask3_983_1638" style="mask-type:luminance" maskUnits="userSpaceOnUse" x="22" y="23" width="18" height="25">
<path d="M22.3828 23.499H39.7285V47.0947H22.3828V23.499Z" fill="white"/>
</mask>
<g mask="url(#mask3_983_1638)">
<path d="M29.5599 45.2877H28.2116V46.1589H28.8857V45.7233L29.7293 46.3701C29.7293 46.3701 32.2565 46.9509 33.1289 46.3701C33.1289 46.3701 30.2737 46.1325 30.0886 45.7365L29.5599 45.2877Z" fill="#324A58"/>
<path d="M36.6943 29.0606L34.9452 47.0947H27.6287L26.1958 28.6943L36.6943 29.0606Z" fill="#324A58"/>
<path d="M23.2089 23.499L39.7461 25.9966V28.9986L22.3837 28.3726L23.2089 23.499Z" fill="#324A58"/>
<path d="M34.2976 29.7417L33.0077 45.0018H29.7618L28.5933 29.6426C28.59 29.5992 28.5502 29.5666 28.5046 29.5697C28.4589 29.5728 28.4245 29.6106 28.4279 29.654L29.6019 45.0863C29.6051 45.1276 29.6412 45.1595 29.6847 45.1595H33.0842C33.1274 45.1595 33.1634 45.1279 33.1669 45.087L34.4629 29.7543" fill="white"/>
<path d="M34.4712 41.5161L31.2707 38.3321L28.3358 40.9058L27.3179 28.7516L35.2646 29.0381L34.4712 41.5161Z" fill="#32058E"/>
<path d="M29.2028 38.5222C29.2259 38.5222 29.2485 38.5125 29.2645 38.4946L31.4505 36.0594L33.7778 38.1631C33.8015 38.1845 33.8353 38.1904 33.8649 38.1783C33.8945 38.1661 33.9144 38.1381 33.9162 38.1063L34.3602 30.243C34.3628 30.1979 34.3286 30.159 34.2835 30.1558L28.5847 29.7412C28.5606 29.7393 28.5371 29.7483 28.5201 29.7653C28.5031 29.7822 28.4943 29.8058 28.496 29.8298L29.1201 38.4453C29.1225 38.4785 29.1445 38.507 29.176 38.5177C29.1848 38.5207 29.1938 38.5222 29.2028 38.5222ZM31.4444 35.8594C31.4429 35.8594 31.4415 35.8594 31.4401 35.8595C31.418 35.8606 31.3974 35.8705 31.3826 35.8869L29.2715 38.2389L28.6684 29.9134L34.1901 30.315L33.7604 37.924L31.5 35.8807C31.4847 35.867 31.4649 35.8594 31.4444 35.8594Z" fill="white"/>
</g>
</svg>
