<svg width="305" height="226" viewBox="0 0 305 226" fill="none" xmlns="http://www.w3.org/2000/svg">
<path d="M218.899 70.1062C194.725 60.4469 173.198 44.9438 154.355 26.9751C146.948 19.9104 139.417 12.1488 129.531 9.49024C121.111 7.22586 111.88 9.11254 104.416 13.6139C96.9513 18.1152 91.155 25.0501 87.0204 32.7275C77.7453 49.9481 76.4841 71.778 84.6235 89.6689L84.6171 89.7869C87.3835 98.3332 93.4267 102.415 90.9054 112.391C87.4082 126.234 76.4658 137.192 67.4175 147.632C61.0341 154.998 55 163.042 52.41 172.438C49.8201 181.835 51.3126 192.896 58.3453 199.649C67.0252 207.991 81.1437 207.378 92.3393 202.953C111.453 195.394 126.296 178.842 146.002 172.985C172.866 165.002 202.416 178.644 229.516 171.503C242.728 168.022 254.551 159.523 262.056 148.102C273.261 131.058 273.529 106.356 259.709 91.3507C249.217 79.9584 233.281 75.854 218.899 70.1062Z" fill="#FFBA55"/>
<path d="M205.83 53.7655C204.824 53.5067 203.894 54.1477 203.593 55.3202C203.306 56.4322 203.776 57.4666 204.782 57.7245C205.844 57.9988 206.725 57.3102 207.011 56.199C207.312 55.0266 206.835 54.0234 205.83 53.7655Z" fill="#621112"/>
<path d="M210.92 35.741C209.398 35.3505 207.628 35.4374 206.487 35.9569L206.661 38.1344C207.535 37.7155 208.781 37.6295 209.815 37.8947C211.617 38.3913 212.258 39.7073 211.842 41.3279C211.476 42.7564 210.439 43.8108 208.713 45.1616C206.793 46.6989 205.787 48.4393 205.522 50.1988L205.367 51.0393L207.607 51.6145L207.79 50.7814C208.12 49.1398 208.938 47.8604 210.625 46.5334C212.469 45.0775 213.96 43.8017 214.515 41.6425C215.137 39.23 214.223 36.5897 210.92 35.741Z" fill="#621112"/>
<path d="M229.702 64.7096C228.823 65.4467 228.604 66.5616 229.268 67.3563C229.973 68.1967 231.09 68.151 231.97 67.413C232.899 66.6338 233.095 65.54 232.427 64.7453C231.759 63.9506 230.632 63.9295 229.702 64.7096Z" fill="#621112"/>
<path d="M243.329 50.6479L242.204 52.52C243.158 52.6883 244.222 53.3431 244.908 54.1616C246.083 55.6148 245.838 57.0579 244.557 58.1325C243.427 59.0808 241.97 59.3342 239.782 59.4293C237.321 59.5573 235.496 60.3914 234.253 61.6662L233.639 62.2588L235.125 64.0312L235.759 63.4605C236.983 62.3183 238.393 61.754 240.538 61.658C242.885 61.5473 244.836 61.3781 246.548 59.946C248.458 58.3437 249.251 55.666 247.059 53.0541C246.05 51.8506 244.561 50.8912 243.329 50.6479Z" fill="#621112"/>
<path d="M227.224 92.4776C226.081 92.3779 225.137 93.0098 225.047 94.0433C224.951 95.1407 225.774 95.8934 226.917 95.993C228.126 96.0991 229.037 95.4635 229.127 94.4301C229.218 93.3967 228.433 92.5837 227.224 92.4776Z" fill="#621112"/>
<path d="M244.684 92.6942C245.24 93.4871 245.529 94.7062 245.435 95.7661C245.241 97.6245 244.047 98.4732 242.381 98.3268C240.911 98.1988 239.701 97.3483 238.083 95.8677C236.253 94.2215 234.371 93.5191 232.595 93.542L231.741 93.5274L231.539 95.8311L232.391 95.8759C234.065 95.9335 235.461 96.5316 237.046 97.9793C238.784 99.5596 240.287 100.823 242.508 101.016C244.991 101.233 247.446 99.8998 247.741 96.5023C247.878 94.9367 247.502 93.21 246.803 92.1638L244.684 92.6942Z" fill="#621112"/>
<path d="M102.287 38.2358C99.7701 34.6048 94.7859 33.7021 91.155 36.2194L33.3894 76.2676C29.7584 78.7849 28.8556 83.7691 31.3728 87.4001L53.9692 119.994C56.4865 123.625 61.4707 124.528 65.1018 122.01L87.078 106.775C88.9591 105.47 91.4032 105.301 93.4467 106.332V106.332V106.332C96.5364 107.891 100.156 105.521 99.9609 102.066V102.066V102.066C99.8188 99.5405 100.999 97.1231 103.078 95.6822L122.868 81.9615C126.499 79.4442 127.402 74.4599 124.884 70.8289L102.287 38.2358Z" fill="#10405F"/>
<path d="M104.887 34.4736C102.369 30.8425 97.3849 29.9397 93.7539 32.4571L35.9876 72.506C32.3566 75.0234 31.4538 80.0076 33.9711 83.6386L56.5681 116.232C59.0855 119.863 64.0698 120.766 67.7008 118.249L89.6762 103.013C91.5573 101.709 94.0013 101.539 96.0448 102.57V102.57V102.57C99.1347 104.129 102.754 101.759 102.559 98.3031V98.3031V98.3031C102.417 95.7787 103.597 93.3617 105.675 91.9211L125.466 78.1999C129.097 75.6826 130 70.6984 127.483 67.0674L104.887 34.4736Z" fill="#FE5A2C"/>
<path d="M72.5422 78.1192L70.55 77.4201C70.2824 77.6909 70.0016 77.9255 69.7076 78.1239C68.9418 78.6409 68.1177 78.9382 67.2355 79.0158C66.3609 79.0881 65.52 78.9351 64.7128 78.5566C63.908 78.1652 63.2367 77.5711 62.6988 76.7744C62.161 75.9776 61.8636 75.1367 61.8067 74.2517C61.7575 73.3615 61.93 72.5244 62.3241 71.7403C62.726 70.951 63.3098 70.2979 64.0757 69.7809C64.8415 69.2639 65.6617 68.9693 66.5362 68.8969C67.4185 68.8193 68.2555 68.975 69.0473 69.3639C69.8469 69.7475 70.5155 70.3378 71.0534 71.1345C71.5234 71.8308 71.8111 72.5656 71.9165 73.339C72.0245 74.0994 71.955 74.8389 71.708 75.5573L74.9441 76.4977L72.5422 78.1192ZM64.7295 75.4036C65.2151 76.123 65.7976 76.5688 66.4768 76.7408C67.1585 76.9 67.8281 76.7576 68.4857 76.3137C69.1355 75.8751 69.5076 75.3086 69.6019 74.6143C69.704 73.9148 69.5148 73.2092 69.0344 72.4975C68.5487 71.7781 67.9651 71.3388 67.2833 71.1797C66.6041 71.0076 65.9396 71.1408 65.2898 71.5795C64.6323 72.0234 64.2498 72.5912 64.1425 73.283C64.0429 73.9695 64.2386 74.6764 64.7295 75.4036ZM76.9678 63.6793L81.3386 70.1541L79.3544 71.4936L78.7591 70.6117C78.7512 71.0337 78.6332 71.4511 78.4052 71.8641C78.1797 72.264 77.8581 72.605 77.4404 72.887C76.9453 73.2212 76.4351 73.4079 75.9099 73.4472C75.3794 73.4788 74.8687 73.3562 74.3778 73.0794C73.887 72.8027 73.451 72.382 73.0697 71.8173L70.5162 68.0345L72.4888 66.7029L74.8622 70.2188C75.1546 70.652 75.494 70.9128 75.8802 71.0011C76.2664 71.0895 76.649 71.0057 77.0281 70.7499C77.4149 70.4887 77.6395 70.1626 77.7019 69.7713C77.7644 69.3801 77.6494 68.9679 77.357 68.5347L74.9835 65.0188L76.9678 63.6793ZM78.9366 61.3705C78.5885 61.6055 78.2344 61.6982 77.8743 61.6485C77.5167 61.5859 77.2361 61.4037 77.0324 61.102C76.8235 60.7926 76.7595 60.4642 76.8403 60.1168C76.9236 59.7565 77.1394 59.4589 77.4875 59.2239C77.8279 58.9941 78.1768 58.9106 78.5344 58.9732C78.8945 59.0229 79.179 59.2024 79.3879 59.5119C79.5916 59.8136 79.6517 60.1446 79.5684 60.5049C79.4876 60.8522 79.277 61.1408 78.9366 61.3705ZM80.3772 61.3777L84.7481 67.8525L82.7639 69.192L78.393 62.7172L80.3772 61.3777ZM86.9381 63.9925L89.7462 62.0969L90.8506 63.733L85.8263 67.1247L84.761 65.5466L85.2519 60.4687L82.5831 62.2703L81.4787 60.6342L86.4218 57.2973L87.4871 58.8754L86.9381 63.9925ZM65.9628 102.251L63.9786 103.591L57.2682 100.806L60.66 105.831L58.6758 107.17L53.1769 99.0245L55.1612 97.6851L61.8872 100.492L58.4798 95.4448L60.464 94.1054L65.9628 102.251ZM70.4111 99.3834C69.7767 99.8116 69.1129 100.063 68.4196 100.137C67.734 100.205 67.0745 100.087 66.4411 99.783C65.8155 99.4734 65.2755 98.9821 64.8212 98.3091C64.3721 97.6438 64.1248 96.9605 64.0793 96.2593C64.0286 95.5503 64.1671 94.8881 64.4949 94.2727C64.8227 93.6573 65.3038 93.1355 65.9381 92.7072C66.5724 92.279 67.2363 92.028 67.9296 91.9541C68.6229 91.8802 69.2889 91.9993 69.9275 92.3114C70.5609 92.6158 71.1021 93.1006 71.5512 93.7659C72.0003 94.4312 72.2464 95.1209 72.2893 95.8351C72.3348 96.5364 72.1898 97.1973 71.8543 97.8179C71.5265 98.4334 71.0454 98.9552 70.4111 99.3834ZM69.2518 97.666C69.6308 97.4102 69.8579 97.0542 69.9329 96.5982C70.0156 96.1369 69.8821 95.6471 69.5322 95.1288C69.1823 94.6105 68.7819 94.3009 68.3309 94.2C67.8876 94.0938 67.4765 94.1687 67.0974 94.4246C66.7106 94.6857 66.4836 95.0416 66.4163 95.4924C66.3438 95.9355 66.4851 96.4201 66.8402 96.9461C67.1901 97.4644 67.5828 97.7792 68.0183 97.8906C68.4616 97.9968 68.8727 97.9219 69.2518 97.666ZM77.2622 92.1741L78.398 93.8566L77.3885 94.5381C76.6691 95.0237 75.9908 95.2283 75.3535 95.1517C74.711 95.0674 74.1209 94.6269 73.583 93.8301L71.8441 91.2541L71.055 91.7867L69.9427 90.139L70.7318 89.6064L69.6665 88.0283L71.6507 86.6888L72.716 88.2669L74.0156 87.3896L75.1279 89.0373L73.8283 89.9146L75.5829 92.5138C75.7134 92.7072 75.8538 92.8151 76.0041 92.8376C76.1544 92.86 76.3378 92.7981 76.5544 92.6519L77.2622 92.1741ZM81.7663 79.7251L82.8394 81.3148L79.5208 83.5551L80.6801 85.2724L83.1632 83.5961L84.205 85.1394L81.7219 86.8157L83.9465 90.1111L81.9622 91.4506L76.4634 83.3048L81.7663 79.7251ZM91.3179 85.2701C90.6836 85.6983 90.0198 85.9494 89.3264 86.0233C88.6408 86.0919 87.9814 85.9741 87.348 85.6697C86.7223 85.3601 86.1823 84.8688 85.728 84.1958C85.2789 83.5305 85.0316 82.8472 84.9861 82.146C84.9355 81.437 85.074 80.7748 85.4018 80.1594C85.7296 79.544 86.2106 79.0222 86.845 78.594C87.4793 78.1658 88.1431 77.9147 88.8364 77.8408C89.5298 77.7669 90.1957 77.886 90.8344 78.1981C91.4677 78.5025 92.009 78.9873 92.4581 79.6526C92.9072 80.3179 93.1532 81.0076 93.1962 81.7218C93.2416 82.4231 93.0966 83.084 92.7611 83.7047C92.4333 84.3201 91.9523 84.8419 91.3179 85.2701ZM90.1586 83.5528C90.5377 83.2969 90.7647 82.9409 90.8397 82.4849C90.9225 82.0236 90.7889 81.5339 90.4391 81.0156C90.0892 80.4973 89.6887 80.1876 89.2377 80.0867C88.7945 79.9806 88.3833 80.0554 88.0042 80.3113C87.6175 80.5724 87.3904 80.9284 87.3231 81.3792C87.2506 81.8222 87.3919 82.3068 87.747 82.8328C88.0969 83.3511 88.4896 83.666 88.9251 83.7773C89.3684 83.8835 89.7796 83.8086 90.1586 83.5528ZM97.7189 71.3886L102.09 77.8634L100.106 79.2028L99.5102 78.321C99.5023 78.743 99.3843 79.1604 99.1563 79.5733C98.9309 79.9733 98.6093 80.3143 98.1915 80.5962C97.6964 80.9305 97.1863 81.1172 96.661 81.1565C96.1305 81.188 95.6198 81.0654 95.129 80.7887C94.6381 80.512 94.2021 80.0912 93.8209 79.5265L91.2673 75.7438L93.2399 74.4121L95.6133 77.928C95.9058 78.3612 96.2451 78.622 96.6313 78.7104C97.0175 78.7988 97.4002 78.715 97.7792 78.4591C98.166 78.198 98.3906 77.8718 98.4531 77.4806C98.5155 77.0893 98.4005 76.6771 98.1081 76.2439L95.7347 72.728L97.7189 71.3886ZM103.042 67.6936C103.8 67.1818 104.571 67.0221 105.354 67.2143C106.139 67.3935 106.822 67.9125 107.401 68.7711L109.955 72.5539L107.982 73.8855L105.609 70.3696C105.317 69.9364 104.977 69.6757 104.591 69.5873C104.205 69.4989 103.822 69.5827 103.443 69.8386C103.064 70.0944 102.843 70.418 102.781 70.8093C102.718 71.2005 102.833 71.6127 103.126 72.0459L105.499 75.5618L103.515 76.9013L99.1441 70.4265L101.128 69.087L101.708 69.9457C101.716 69.5237 101.835 69.1166 102.066 68.7244C102.291 68.3244 102.617 67.9808 103.042 67.6936ZM108.746 68.6404C108.297 67.9752 108.026 67.3076 107.935 66.6376C107.85 65.9625 107.934 65.3433 108.184 64.7801C108.434 64.217 108.826 63.7552 109.36 63.3949C109.786 63.1077 110.233 62.9355 110.701 62.8785C111.177 62.8162 111.617 62.868 112.022 63.0339L109.993 60.0286L111.977 58.6891L117.774 67.2758L115.79 68.6152L115.163 67.6869C115.186 68.1217 115.086 68.5494 114.864 68.9701C114.649 69.3855 114.313 69.7472 113.856 70.0553C113.323 70.4157 112.748 70.6067 112.132 70.6284C111.511 70.6423 110.903 70.484 110.308 70.1535C109.716 69.8101 109.195 69.3057 108.746 68.6404ZM113.604 65.3778C113.27 64.8827 112.867 64.5861 112.395 64.4879C111.931 64.3844 111.502 64.4658 111.108 64.7322C110.713 64.9985 110.473 65.3688 110.388 65.843C110.305 66.3042 110.431 66.7824 110.765 67.2775C111.099 67.7726 111.501 68.0757 111.97 68.1869C112.442 68.2851 112.875 68.2011 113.269 67.9348C113.664 67.6684 113.9 67.3008 113.978 66.8318C114.063 66.3576 113.938 65.8729 113.604 65.3778Z" fill="white"/>
<path d="M92.1113 168.392C92.1113 168.392 94.2276 168.018 95.1238 164.562C95.1238 164.562 96.7699 162.075 96.6145 156.666C96.6145 156.666 94.4562 166.578 92.1113 168.392Z" fill="#10405F"/>
<path d="M47.8978 133.577H33.4546V148.021H47.8978V133.577Z" fill="#FFBA55"/>
<path d="M10.4776 170.427H3.61865V177.286H10.4776V170.427Z" fill="#FE5A2C"/>
<path d="M104.224 213.008H97.3647V219.867H104.224V213.008Z" fill="#FFBA55"/>
<path d="M95.2713 180.612H90.4243V185.459H95.2713V180.612Z" fill="white"/>
<path d="M238.076 182.501H226.142V194.435H238.076V182.501Z" fill="#FFBA55"/>
<path d="M60.8483 29.0869H48.9146V41.0206H60.8483V29.0869Z" fill="#FFBA55"/>
<path d="M79.3165 3.75439H74.314V8.75688H79.3165V3.75439Z" fill="#FE5A2C"/>
<path d="M254.963 123.093H245.986V132.07H254.963V123.093Z" fill="#FE5A2C"/>
<path d="M269.845 161.004H262.758V168.091H269.845V161.004Z" fill="#FE5A2C"/>
<path d="M159.928 40.7957H149.709V51.0146H159.928V40.7957Z" fill="white"/>
<path d="M160.947 2.9231H154.035V9.83511H160.947V2.9231Z" fill="#84C5C8"/>
<path d="M186.877 19.1624H172.595V33.4446H186.877V19.1624Z" fill="#FFBA55"/>
<path d="M127.829 17.1421H122.011V22.9603H127.829V17.1421Z" fill="white"/>
<path d="M126.869 41.4221H123.39V44.901H126.869V41.4221Z" fill="white"/>
<path d="M266.316 192.736H262.837V196.214H266.316V192.736Z" fill="#FFBA55"/>
<path d="M71.3197 218.931H67.8408V222.41H71.3197V218.931Z" fill="#FFBA55"/>
<path d="M18.5431 99.3174H7.17188V110.689H18.5431V99.3174Z" fill="#187EB2"/>
<path d="M63.58 181.622C58.2163 173.296 47.3617 170.084 38.2137 174.499C28.3175 179.277 24.1665 191.172 28.944 201.069C33.7215 210.966 45.6168 215.119 55.5111 210.339C64.5348 205.983 68.78 195.706 65.838 186.429L68.5614 182.108L63.58 181.622Z" fill="#4F9999"/>
<path d="M61.5846 179.491C56.3032 171.112 45.4806 167.793 36.2905 172.118C26.3468 176.797 22.0796 188.651 26.7593 198.595C31.4389 208.539 43.2931 212.808 53.2367 208.126C62.3025 203.859 66.6483 193.628 63.7977 184.319L66.5642 180.021L61.5846 179.491Z" fill="#84C5C8"/>
<path d="M54.0434 184.295L45.2995 188.396L42.1563 180.715L39.7255 181.71L42.919 189.513L35.3184 193.078L36.4332 195.455L43.9149 191.946L47.5594 200.852L49.9902 199.857L46.2955 190.83L55.1591 186.672L54.0434 184.295Z" fill="white"/>
<path d="M275.112 80.755C265.509 83.6065 259.668 93.0655 261.082 102.698L257.698 106.526L262.545 107.807C266.502 116.886 276.701 121.799 286.439 118.908C296.974 115.781 302.979 104.707 299.853 94.1711C296.726 83.6357 285.647 77.6282 275.112 80.755Z" fill="#10405F"/>
<path d="M277.005 83.3104C267.371 86.0667 261.44 95.4681 262.759 105.115L259.34 108.909L264.169 110.235C268.037 119.354 278.186 124.366 287.952 121.575C298.517 118.557 304.632 107.536 301.608 96.9744C298.585 86.4124 287.57 80.2851 277.005 83.3104Z" fill="#187EB2"/>
<path d="M291.556 98.5108L283.609 100.773L281.441 91.3994L278.882 91.9911L281.079 101.494L271.664 104.174L272.383 106.7L281.672 104.056L283.542 112.142L286.101 111.55L284.201 103.336L292.276 101.037L291.556 98.5108Z" fill="white"/>
<path d="M81.0127 143.773C76.1885 147.568 75.3353 149.863 76.7537 151.667C78.1722 153.47 82.4238 150.58 87.2443 146.785C92.0648 142.99 98.4272 137.786 97.0078 135.983C95.5885 134.179 85.8368 139.977 81.0127 143.773Z" fill="#FFCAC0"/>
<path d="M185.903 60.6582C182.783 59.4062 179.854 59.3778 179.364 60.6051C178.874 61.8324 181.005 63.8343 184.125 65.0863C187.246 66.3383 190.174 66.3667 190.664 65.1394C191.154 63.9121 189.023 61.9102 185.903 60.6582Z" fill="#911A20"/>
<path d="M194.519 72.8316C195.386 71.9641 194.939 70.1106 193.52 68.6916C192.101 67.2727 190.248 66.8257 189.38 67.6932C188.513 68.5607 188.96 70.4142 190.379 71.8331C191.798 73.2521 193.651 73.6991 194.519 72.8316Z" fill="#911A20"/>
<path d="M240.703 139.914C237.982 135.229 235.058 130.367 235.058 130.367C235.058 130.367 212.763 111.541 209.097 104.802C209.097 104.802 206.346 97.5477 205.968 88.3182L210.194 87.3195C211.024 88.9021 212.253 90.241 213.758 91.2046C215.264 92.1682 216.994 92.7232 218.779 92.815C224.375 93.1058 229.219 88.8029 229.588 83.2124C229.768 80.4993 228.867 77.8253 227.083 75.7735C225.299 73.7218 222.776 72.4588 220.064 72.26C215.15 71.9024 210.751 75.095 209.423 79.6585C208.483 79.2927 206.209 78.0398 204.633 74.2884C205.107 74.6273 205.668 74.8252 206.249 74.8594C206.831 74.8935 207.411 74.7625 207.921 74.4814C207.921 74.4814 202.022 70.6138 199.411 64.2313C196.8 57.8488 188.484 56.6883 187.033 56.8803C185.583 57.0724 178.528 59.3944 178.528 59.3944C178.528 59.3944 173.21 56.9773 171.179 58.6207C169.148 60.2641 160.929 65.3882 160.929 65.3882L156.221 72.5883C155.012 74.4368 154.472 76.6439 154.693 78.8419L155.32 85.1155C155.32 85.1155 155.404 85.4969 155.594 86.0648C154.232 87.6616 152.68 91.2996 152.886 93.5777C153.091 95.8238 155.655 98.7612 156.686 99.8605L150.238 108.025L148.357 109.407C147.885 109.555 147.386 109.711 146.868 109.875V90.6603C146.868 90.2661 146.79 89.8757 146.639 89.5115C146.488 89.1473 146.267 88.8164 145.988 88.5376C145.71 88.2589 145.379 88.0378 145.014 87.8871C144.65 87.7363 144.26 87.6587 143.865 87.6588H128.125C127.73 87.6587 127.34 87.7363 126.976 87.8871C126.611 88.0378 126.28 88.2589 126.002 88.5376C125.723 88.8164 125.502 89.1473 125.351 89.5115C125.2 89.8757 125.122 90.2661 125.122 90.6603V99.4124C124.926 99.1856 124.736 99.0923 124.557 99.106C123.855 99.1618 123.296 100.854 122.911 102.666C122.299 105.575 118.166 110.931 117.095 111.544C116.581 111.837 114.799 115.866 113.083 119.977C110.538 121.824 108.159 123.603 107.301 124.399C105.158 126.388 98.8871 133.123 97.1998 133.582C95.5124 134.041 80.6742 140.011 80.6742 140.011C80.6742 140.011 77.1542 146.439 77.6133 150.418C77.6798 150.856 77.805 151.282 77.9855 151.685C76.9877 154.103 76.3037 156.267 75.9836 157.346C75.8464 157.803 75.7769 158.07 75.7769 158.07C74.9337 160.978 77.0728 165.14 77.0728 165.14C77.0728 165.14 81.244 165.683 84.3287 165.683C85.3035 165.683 86.8765 165.212 88.5721 164.567C91.2507 166.767 93.9312 168.274 95.9798 168.171C98.9977 168.02 100.391 165.885 101.024 163.761C101.678 163.213 107.092 158.603 108.53 155.009L108.627 154.762C108.495 155.688 108.684 156.866 110.396 156.648C112.957 156.328 117.214 154.021 120.128 151.72C120.363 151.554 120.585 151.37 120.793 151.171C121.387 150.675 121.938 150.128 122.439 149.537C122.314 150.573 122.246 151.167 122.246 151.167C121.961 153.346 121.795 155.799 121.724 158.419C119.375 170.291 125.044 201.538 125.044 201.538L163.849 194.415L163.872 194.522L170.617 193.172L192.806 189.099L192.778 189.113L205.673 186.735L204.85 176.272C204.547 170.602 204.383 163.318 204.864 156.239C207.184 157.572 212.082 160.263 214.258 160.516C217.167 160.862 225.248 164.008 225.248 164.008C225.248 164.008 229.315 169.871 232.233 168.984C234.569 168.276 241.835 164.681 244.649 163.273C245.379 162.908 245.947 162.282 246.24 161.52C247.429 158.433 250.389 150.228 249.306 147.749C248.483 145.874 244.045 142.367 240.703 139.914ZM125.122 115.144L122.47 114.59C122.893 113.19 124.325 111.01 125.122 109.863V115.144ZM157.144 100.614C157.153 100.416 157.165 100.227 157.182 100.05L157.689 98.3213C157.497 99.0886 157.312 99.8632 157.144 100.614ZM196.872 115.491C194.996 115.386 189.122 111.731 187.893 110.955C187.993 110.779 188.092 110.603 188.191 110.428C190.466 108.762 192.652 106.978 194.739 105.082C195.268 106.804 195.89 108.164 196.612 108.766C198.99 110.748 201.566 111.342 201.566 111.342L204.56 116.949C201.523 116.284 197.995 115.553 196.872 115.491ZM203.346 83.1676C203.847 83.0377 207.104 82.1424 209.244 80.3655C209.146 80.8204 209.079 81.2814 209.044 81.7455C208.985 82.5128 209.012 83.2842 209.124 84.0455L205.144 84.9866L203.346 83.1676Z" fill="#FE5A2C"/>
<path d="M164.555 147.161C172.767 147.161 179.423 139.083 179.423 129.118C179.423 119.153 172.767 111.075 164.555 111.075C156.343 111.075 149.687 119.153 149.687 129.118C149.687 139.083 156.343 147.161 164.555 147.161Z" fill="#FFA992"/>
<path d="M152.143 103.658C152.143 103.658 148.161 122.927 154.844 127.264C161.528 131.6 169.35 126.553 169.35 126.553C156.48 126.202 152.143 103.658 152.143 103.658Z" fill="#FE5A2C"/>
<path d="M102.792 155.509C103.463 153.78 102.937 154.495 102.792 155.509Z" fill="#16A3DB"/>
<path d="M95.6919 160.163L95.124 164.562L95.189 164.508C95.8419 162.326 95.6919 160.163 95.6919 160.163Z" fill="#16A3DB"/>
<path d="M115.244 115.044C115.244 115.044 103.613 123.156 101.47 125.145C99.327 127.135 93.0561 133.869 91.3688 134.328C89.6815 134.787 74.8405 140.756 74.8405 140.756C74.8405 140.756 71.3205 147.184 71.7796 151.163C72.2387 155.142 84.0233 169.222 90.1442 168.916C93.1622 168.765 94.5559 166.629 95.1888 164.506L95.1239 164.56L95.6918 160.161C95.6918 160.161 95.8381 162.327 95.1888 164.506C95.8427 163.957 101.257 159.347 102.694 155.754L102.791 155.507C103.462 153.778 102.936 154.493 102.791 155.507C102.66 156.433 102.848 157.61 104.561 157.394C108.235 156.936 115.396 152.387 117.08 149.633C118.764 146.878 127.439 132.29 123.178 116.703L115.244 115.044Z" fill="#16A3DB"/>
<path d="M231.036 137.95L207.027 122.376C207.027 122.376 200.007 134.236 199.171 140.651C198.335 147.067 197.771 156.247 197.771 156.247C197.771 156.247 205.525 160.925 208.429 161.264C211.332 161.603 219.409 164.754 219.409 164.754C219.409 164.754 223.476 170.615 226.394 169.73C228.73 169.021 235.997 165.425 238.81 164.018C239.541 163.653 240.109 163.027 240.402 162.264C241.591 159.178 244.551 150.974 243.468 148.493C242.124 145.421 231.036 137.95 231.036 137.95Z" fill="#16A3DB"/>
<path d="M203.63 118.804C203.63 118.804 193.137 116.356 191.038 116.244C188.939 116.131 181.832 111.564 181.832 111.564C181.832 111.564 175.491 119.589 171.904 128.236C168.317 136.883 167.485 146.151 161.888 143.874C150.695 139.325 146.964 108.777 146.964 108.777C146.964 108.777 126.093 115.19 123.178 116.705C120.264 118.221 116.411 151.915 116.411 151.915C114.196 168.822 119.209 202.285 119.209 202.285L199.84 187.483C199.84 187.483 195.698 151.682 203.392 137.223C211.087 122.764 203.63 118.804 203.63 118.804Z" fill="#187EB2"/>
<path d="M152.328 128.832L153.96 140.721C153.96 140.721 157.108 151.448 156.991 153.78C156.874 156.112 155.475 168.122 155.71 169.871C155.71 169.871 160.491 158.561 160.724 156.112C160.957 153.664 160.491 143.636 160.491 143.636C160.491 143.636 159.09 134.079 152.328 128.832Z" fill="#10405F"/>
<path d="M185.441 146.555C183.692 146.555 172.849 147.954 172.849 147.954C172.849 148.238 172.888 152.662 172.933 157.805C172.974 162.435 173.025 167.648 173.052 170.954C173.06 171.858 173.415 172.725 174.044 173.374C174.673 174.024 175.527 174.407 176.43 174.445L187.643 174.911C188.028 174.927 188.413 174.894 188.79 174.814C189.794 174.598 190.696 174.05 191.351 173.259C192.906 171.386 195.163 168.514 195.466 167.306C195.933 165.441 195.466 143.753 195.466 143.753C195.466 143.753 187.191 146.555 185.441 146.555Z" fill="#FFBA55"/>
<path d="M128.778 151.96C130.343 161.49 136.71 173.661 139.056 177.911C134.793 168.798 131.867 139.849 131.867 139.849L128.778 151.96Z" fill="#10405F"/>
<path d="M139.056 177.911C139.301 178.452 139.593 178.969 139.929 179.459C139.929 179.459 139.601 178.899 139.056 177.911Z" fill="#10405F"/>
<path d="M142.836 147.612L138.172 139.148C138.698 140.025 141.677 158.252 145.533 161.933C145.537 161.933 141.609 155.849 142.836 147.612Z" fill="#10405F"/>
<path d="M166.086 148.887C166.903 146.205 172.383 129.648 171.916 126.966C171.916 126.966 169.551 118.971 166.286 124.223C163.021 129.475 160.489 143.645 160.489 143.645C160.489 143.645 158.974 156.936 158.623 158.686C158.273 160.435 155.476 168.13 155.359 175.009C155.241 181.888 158.041 195.276 158.041 195.276L167.151 193.455C167.151 193.455 162.239 176.993 163.521 167.197C164.803 157.402 165.27 151.568 166.086 148.887Z" fill="#4CBFBC"/>
<path d="M163.022 148.707C162.821 148.706 162.624 148.766 162.457 148.878C162.29 148.989 162.159 149.148 162.082 149.334C162.005 149.52 161.985 149.724 162.024 149.922C162.063 150.119 162.16 150.3 162.302 150.443C162.445 150.585 162.626 150.682 162.823 150.721C163.021 150.76 163.225 150.74 163.411 150.663C163.597 150.586 163.756 150.455 163.867 150.288C163.979 150.121 164.038 149.924 164.038 149.723C164.038 149.589 164.012 149.457 163.961 149.334C163.91 149.21 163.835 149.098 163.741 149.004C163.646 148.91 163.534 148.835 163.411 148.784C163.288 148.733 163.156 148.707 163.022 148.707Z" fill="white"/>
<path d="M163.023 148.581C162.797 148.581 162.576 148.648 162.388 148.773C162.2 148.899 162.053 149.077 161.967 149.286C161.88 149.495 161.857 149.725 161.901 149.946C161.945 150.168 162.054 150.371 162.214 150.531C162.374 150.691 162.577 150.8 162.799 150.844C163.021 150.888 163.25 150.865 163.459 150.779C163.668 150.692 163.846 150.546 163.972 150.358C164.097 150.17 164.164 149.949 164.164 149.723C164.163 149.42 164.043 149.13 163.829 148.916C163.615 148.702 163.325 148.582 163.023 148.581ZM163.023 150.614C162.846 150.614 162.674 150.562 162.527 150.464C162.38 150.367 162.266 150.227 162.198 150.064C162.13 149.902 162.113 149.722 162.147 149.549C162.181 149.376 162.266 149.217 162.391 149.092C162.515 148.968 162.674 148.883 162.847 148.848C163.02 148.814 163.2 148.831 163.363 148.899C163.526 148.966 163.665 149.08 163.763 149.227C163.861 149.374 163.913 149.546 163.913 149.723C163.913 149.959 163.819 150.185 163.652 150.353C163.485 150.52 163.259 150.614 163.023 150.614Z" fill="black"/>
<path d="M160.966 167.638C161.527 167.638 161.982 167.183 161.982 166.622C161.982 166.061 161.527 165.606 160.966 165.606C160.405 165.606 159.95 166.061 159.95 166.622C159.95 167.183 160.405 167.638 160.966 167.638Z" fill="white"/>
<path d="M160.965 165.481C160.74 165.481 160.519 165.548 160.331 165.673C160.143 165.799 159.997 165.977 159.91 166.186C159.824 166.395 159.801 166.625 159.845 166.846C159.889 167.068 159.998 167.271 160.158 167.431C160.318 167.591 160.522 167.699 160.743 167.743C160.965 167.787 161.195 167.765 161.403 167.678C161.612 167.591 161.79 167.445 161.916 167.257C162.041 167.069 162.108 166.848 162.108 166.622C162.107 166.319 161.987 166.029 161.773 165.815C161.558 165.601 161.268 165.481 160.965 165.481ZM160.965 167.514C160.789 167.514 160.617 167.461 160.47 167.363C160.323 167.265 160.209 167.126 160.142 166.963C160.074 166.8 160.057 166.621 160.091 166.448C160.125 166.275 160.21 166.116 160.335 165.992C160.46 165.867 160.619 165.782 160.792 165.748C160.964 165.713 161.144 165.731 161.307 165.798C161.47 165.866 161.609 165.98 161.707 166.127C161.805 166.273 161.857 166.446 161.857 166.622C161.857 166.858 161.763 167.085 161.596 167.252C161.429 167.419 161.202 167.513 160.965 167.514Z" fill="black"/>
<path d="M160.913 180.698C160.712 180.698 160.515 180.758 160.348 180.869C160.181 180.981 160.051 181.14 159.975 181.326C159.898 181.511 159.878 181.716 159.917 181.913C159.956 182.11 160.053 182.291 160.195 182.433C160.337 182.575 160.519 182.671 160.716 182.71C160.913 182.75 161.117 182.729 161.303 182.652C161.488 182.576 161.647 182.445 161.758 182.278C161.87 182.111 161.93 181.915 161.93 181.714C161.93 181.58 161.903 181.448 161.852 181.325C161.801 181.201 161.726 181.089 161.632 180.995C161.537 180.9 161.425 180.826 161.302 180.775C161.178 180.724 161.046 180.698 160.913 180.698Z" fill="white"/>
<path d="M160.912 180.572C160.687 180.572 160.466 180.639 160.278 180.765C160.091 180.89 159.944 181.068 159.858 181.277C159.771 181.485 159.749 181.715 159.793 181.936C159.837 182.158 159.946 182.361 160.105 182.521C160.265 182.68 160.468 182.789 160.69 182.833C160.911 182.877 161.141 182.854 161.349 182.768C161.558 182.682 161.736 182.535 161.861 182.348C161.987 182.16 162.054 181.939 162.054 181.714C162.053 181.411 161.933 181.121 161.719 180.907C161.505 180.693 161.215 180.573 160.912 180.572ZM160.912 182.604C160.736 182.604 160.564 182.552 160.418 182.454C160.271 182.356 160.157 182.217 160.09 182.054C160.023 181.891 160.005 181.712 160.04 181.539C160.074 181.367 160.159 181.208 160.284 181.083C160.408 180.959 160.567 180.874 160.74 180.84C160.913 180.806 161.092 180.823 161.254 180.891C161.417 180.958 161.556 181.072 161.654 181.219C161.752 181.365 161.804 181.537 161.804 181.714C161.804 181.95 161.71 182.176 161.543 182.344C161.375 182.511 161.149 182.604 160.912 182.604Z" fill="black"/>
<path d="M184.633 80.0764L191.655 89.7403L190.195 83.483L184.633 80.0764Z" fill="white"/>
<path d="M184.699 79.9705L184.568 80.1836L190.085 83.5627L191.533 89.7687L191.777 89.712L190.305 83.4045L184.699 79.9705Z" fill="black"/>
<path d="M172.845 147.954L172.813 156.476C176.643 160.217 195.693 152.89 195.693 152.89L195.499 143.437C191.319 145.998 172.845 147.954 172.845 147.954Z" fill="#4CBFBC"/>
<path d="M165.39 128.617C165.39 128.617 160.962 138.894 160.489 143.64C160.489 143.64 166.982 128.162 171.882 130.362L172.116 126.948L169.678 125.109L165.39 128.617Z" fill="#268782"/>
<path d="M171.776 130.992L174.506 137.394C174.506 137.394 181.699 130.621 183.537 112.61L181.78 111.584L171.776 130.992Z" fill="#10405F"/>
<path d="M166.553 123.701C165.037 125.683 160.608 140.842 160.489 143.638C160.489 143.638 163.804 129.488 168.464 126.378C168.707 126.216 168.981 126.107 169.269 126.057C169.557 126.007 169.852 126.018 170.135 126.088C170.419 126.158 170.684 126.287 170.916 126.465C171.147 126.644 171.338 126.869 171.477 127.125C172.564 129.137 174.55 132.954 174.969 134.796C174.969 134.796 181.43 118.799 182.011 111.686C182.013 111.688 168.068 121.721 166.553 123.701Z" fill="#4CBFBC"/>
<path d="M198.249 77.0411L198.151 76.8774C197.676 77.1975 196.851 77.7773 198.249 77.0411Z" fill="#FE5A2C"/>
<path d="M198.151 76.8774L198.249 77.0411C196.851 77.7728 197.677 77.1975 198.151 76.8774C197.673 76.0663 195.499 72.2792 193.194 66.6457C190.587 60.2641 182.265 59.1035 180.815 59.2965C179.366 59.4895 172.306 61.8106 172.306 61.8106C172.306 61.8106 166.987 59.3935 164.957 61.0369C162.926 62.6803 154.706 67.8044 154.706 67.8044L149.667 77.4161L152.085 87.443C152.085 87.443 150.879 90.8524 154.132 91.5374C154.132 91.5374 159.277 90.7499 160.148 89.7824C161.019 88.8148 162.027 80.9681 162.027 80.9681C162.027 80.9681 163.43 78.4221 166.531 77.9008C169.151 79.9393 174.737 83.9294 180.307 85.646C181.761 86.0811 183.284 86.2363 184.795 86.1032C186.781 88.481 188.308 91.5346 187.968 95.1699C187.097 104.453 183.687 109.355 183.687 109.355C183.687 109.355 193.764 103.424 196.375 95.6884C198.986 87.9524 197.057 85.5966 197.057 85.5966C197.057 85.5966 197.026 80.6663 199.083 78.2666C198.913 77.8834 198.694 77.3722 198.411 76.7L198.151 76.8774Z" fill="#FE5A2C"/>
<path d="M199.087 78.2693C200.137 80.6471 199.252 78.0864 199.252 78.0864C199.195 78.1456 199.14 78.2065 199.087 78.2693Z" fill="#FE5A2C"/>
<path d="M172.845 147.954C187.619 148.817 195.499 143.437 195.499 143.437C185.581 142.357 172.845 147.954 172.845 147.954Z" fill="#10405F"/>
<path d="M102.694 155.756C102.146 159.341 104.561 157.395 104.561 157.395C107.879 152.933 106.372 144.764 106.372 144.764C105.902 149.133 102.694 155.756 102.694 155.756Z" fill="#10405F"/>
<path d="M214.138 153.463C214.562 156.773 216.045 159.911 217.875 162.67C218.332 163.366 218.789 164.11 219.272 164.847C220.405 166.585 221.669 168.293 223.462 169.26C226.506 170.907 230.564 167.859 230.564 167.859C221.916 168.874 214.138 153.463 214.138 153.463Z" fill="#10405F"/>
<path d="M208.429 161.267C208.429 161.267 209.576 163.842 212.421 162.182C212.421 162.182 210.88 160.048 210.465 153.585C210.465 153.587 206.987 158.87 208.429 161.267Z" fill="#10405F"/>
<path d="M135.25 132.743L133.674 132.615C134.197 132.687 134.723 132.73 135.25 132.743Z" fill="#FE5A2C"/>
<path d="M186.151 151.904C187.047 151.904 187.773 151.177 187.773 150.281C187.773 149.385 187.047 148.659 186.151 148.659C185.255 148.659 184.528 149.385 184.528 150.281C184.528 151.177 185.255 151.904 186.151 151.904Z" fill="white"/>
<path d="M144.399 108.777L142.341 110.289L139.012 118.279L147.169 124.771L150.165 133.76L156.824 141.25L151.33 122.44L144.399 108.777Z" fill="#10405F"/>
<path d="M154.193 120.203C154.193 120.203 150.296 103.624 151.541 99.7297L144.403 108.777L141.934 117.282L149.538 123.937L151.628 132.329C151.628 132.329 159.811 142.34 161.5 147.725C160.781 144.159 158.827 135.385 156.175 130.813C152.794 124.984 154.193 120.203 154.193 120.203Z" fill="#4CBFBC"/>
<path d="M161.505 147.726C161.703 148.708 161.808 149.299 161.808 149.299C161.779 148.763 161.677 148.234 161.505 147.726Z" fill="#4CBFBC"/>
<path d="M154.063 120.089C154.147 120.165 154.194 120.203 154.194 120.203C154.159 120.119 154.125 120.035 154.091 119.95C154.142 119.708 154.202 119.47 154.274 119.235L153.599 118.67C149.898 108.588 151.274 101.053 151.274 101.053C147.075 107.854 149.165 113.55 151.384 116.917C151.466 117.948 152.136 126.063 153.396 127.927C154.743 129.915 159.798 141.606 160.236 144.706L160.539 143.224C160.539 143.224 157.704 131.667 155.143 128.938C155.148 128.938 153.268 124.177 154.063 120.089Z" fill="#268782"/>
<path d="M210.948 134.738C211.999 133.358 212.674 132.543 212.674 132.543L206.754 129.913C198.976 140.747 199.038 157.275 199.19 156.55C200.013 152.628 202.14 148.238 204.47 144.296C204.875 144.046 207.446 140.303 209.875 142.998C213.042 149.182 218.885 159.898 221.686 160.61C225.637 161.616 215.239 135.893 215.239 135.893L210.948 134.738Z" fill="#10405F"/>
<path d="M153.549 93.3098C153.549 93.3273 153.54 93.3447 153.535 93.3604L153.549 93.3098Z" fill="#FFA992"/>
<path d="M153.534 93.3601C153.53 93.3757 153.526 93.3904 153.521 93.4051C153.525 93.3913 153.53 93.3757 153.534 93.3601Z" fill="#FFA992"/>
<path d="M153.569 93.2385C153.569 93.2529 153.562 93.2672 153.558 93.2806C153.562 93.2662 153.566 93.2529 153.569 93.2385Z" fill="#FFA992"/>
<path d="M153.559 93.2786C153.559 93.2909 153.552 93.3042 153.548 93.3165C153.549 93.3011 153.555 93.2888 153.559 93.2786Z" fill="#FFA992"/>
<path d="M153.606 93.105C153.599 93.1298 153.592 93.1555 153.583 93.184C153.591 93.1583 153.598 93.1325 153.606 93.105Z" fill="#FFA992"/>
<path d="M153.585 93.1873C153.585 93.2016 153.576 93.216 153.573 93.2293C153.577 93.2108 153.581 93.1965 153.585 93.1873Z" fill="#FFA992"/>
<path d="M153.609 93.0957V93.108C153.609 93.1039 153.609 93.0998 153.609 93.0957Z" fill="#FFA992"/>
<path d="M153.64 92.9851L153.618 93.066C153.626 93.032 153.635 93.0044 153.64 92.9851Z" fill="#FFA992"/>
<path d="M153.429 93.7358C153.424 93.7527 153.421 93.7668 153.417 93.779C153.421 93.7621 153.424 93.748 153.429 93.7358Z" fill="#FFA992"/>
<path d="M153.521 93.4048C153.521 93.4198 153.513 93.4339 153.509 93.4479C153.513 93.4339 153.518 93.4198 153.521 93.4048Z" fill="#FFA992"/>
<path d="M150.665 86.0713C149.225 86.62 146.792 91.5137 147.048 94.3304C147.304 97.1472 151.273 101.052 151.273 101.052L153.651 92.954C154.199 91.0015 152.105 85.5271 150.665 86.0713Z" fill="#FFA992"/>
<path d="M153.509 93.447C153.497 93.4911 153.485 93.5389 153.474 93.5757C153.484 93.538 153.496 93.4948 153.509 93.447Z" fill="#FFA992"/>
<path d="M153.474 93.575L153.457 93.6347C153.462 93.6154 153.468 93.5952 153.474 93.575Z" fill="#FFA992"/>
<path d="M153.457 93.6445C153.449 93.6767 153.441 93.7033 153.435 93.7254L153.457 93.6445Z" fill="#FFA992"/>
<path d="M181.614 78.9068C171.883 71.6088 159.533 69.5502 153.92 91.6306C153.92 91.6306 150.364 103.232 150.552 106.601C150.739 109.969 154.253 121.332 155.75 122.642C156.808 123.568 160.757 125.68 163.125 126.355C164.207 126.663 165.364 126.578 166.39 126.116C169.343 124.787 175.536 121.704 178.059 118.201C181.426 113.524 187.602 101.361 187.602 101.361C187.602 101.361 191.344 86.2038 181.614 78.9068Z" fill="#FFA992"/>
<path d="M149.047 95.0684L151.409 94.2417L150.582 91.2896L149.047 95.0684Z" fill="#FE5A2C"/>
<path d="M176.736 171.145C176.572 169.671 176.791 158.546 176.791 158.546C176.327 157.928 174.462 157.801 172.933 157.805C172.974 162.436 173.025 167.648 173.052 170.954C173.06 171.858 173.415 172.725 174.044 173.374C174.673 174.024 175.527 174.407 176.43 174.445L187.642 174.912C188.028 174.927 188.413 174.895 188.79 174.814C189.206 174.672 189.441 174.581 189.441 174.581C181.208 174.362 176.899 172.617 176.736 171.145Z" fill="#FE5A2C"/>
<path d="M172.809 154.93L172.869 158.284C174.475 159.704 178.857 158.155 182.463 157.591C189.2 156.537 195.697 154.489 195.697 154.489L195.648 150.174C189.25 153.912 172.809 154.93 172.809 154.93Z" fill="#268782"/>
<path d="M116.553 150.016C118.607 147.418 118.607 124.282 118.607 124.282C118.366 134.068 113.17 152.915 113.17 152.915C114.681 152.855 116.553 150.016 116.553 150.016Z" fill="#10405F"/>
<path d="M138.027 88.407H122.292C120.634 88.407 119.29 89.7512 119.29 91.4094V127.988C119.29 129.646 120.634 130.99 122.292 130.99H138.027C139.686 130.99 141.03 129.646 141.03 127.988V91.4094C141.03 89.7512 139.686 88.407 138.027 88.407Z" fill="black"/>
<path d="M142.345 127.793C142.345 127.793 132.549 129.154 131.096 129.244C129.893 129.319 129.376 127.651 129.698 126.459C129.758 126.221 129.863 125.997 130.007 125.797C130.823 124.709 138.532 123.259 138.532 123.259L145.608 120.357C146.173 119.643 146.542 119.09 146.765 118.664C147.906 116.494 145.244 117.635 145.244 117.635L135.811 119.631C135.811 119.631 128.328 121.412 126.439 120.87C126.198 120.8 126.048 120.693 126.017 120.538C125.742 119.177 129.645 115.459 129.645 115.459C129.645 115.459 137.081 112.828 138.714 110.924C139.49 110.018 140.021 108.968 140.227 108.205C140.453 107.362 140.286 106.868 139.62 107.296C138.351 108.112 131.458 110.379 131.458 110.379L125.109 113.464C125.109 113.464 119.319 116.525 117.26 116.605C116.915 116.617 116.676 116.548 116.584 116.366C115.949 115.096 119.833 109.843 119.833 109.843C119.833 109.843 121.515 105.864 120.138 101.887C119.619 100.389 119.144 99.8229 118.72 99.8577C118.019 99.9126 117.459 101.605 117.074 103.418C116.462 106.326 112.33 111.683 111.259 112.294C110.188 112.906 103.615 129.739 103.615 129.739C103.615 129.739 84.7905 138.921 79.1277 142.288C74.2661 145.179 70.9884 155.291 70.1525 158.092C70.0153 158.55 69.9458 158.817 69.9458 158.817C69.1026 161.725 71.2417 165.886 71.2417 165.886C71.2417 165.886 75.4138 166.435 78.4976 166.435C81.5814 166.435 90.6499 161.718 90.6499 161.718C96.2733 156.004 108.155 141.13 108.155 141.13C108.155 141.13 108.311 140.281 111.848 140.916C115.384 141.552 125.84 138.318 127.473 137.593C129.107 136.868 131.645 135.78 132.915 135.416C134.184 135.052 137.813 134.691 137.813 134.691L138.65 133.615L139.082 133.058L135.252 132.748L133.677 132.62L132.368 132.512C132.368 132.512 132.575 132.503 132.938 132.482C135.101 132.363 142.84 131.864 145.791 130.698C146.58 130.387 147.13 130.058 147.511 129.734C148.797 128.636 148.151 127.615 148.151 127.615L142.345 127.793Z" fill="#FFA992"/>
<path d="M131.015 133.954C113.822 138.029 107.956 136.936 107.956 136.936C107.956 136.936 99.908 150.552 87.7785 157.61C80.0261 162.121 73.7551 160.068 70.1501 158.092C70.0129 158.55 69.9434 158.817 69.9434 158.817C69.1002 161.725 71.2393 165.886 71.2393 165.886C71.2393 165.886 75.4114 166.435 78.4952 166.435C81.5789 166.435 90.6474 161.719 90.6474 161.719C96.2709 156.005 108.152 141.131 108.152 141.131C108.152 141.131 108.804 140.171 112.34 140.806C115.877 141.441 125.839 138.318 127.471 137.593C129.103 136.868 131.643 135.78 132.912 135.416C134.182 135.052 137.811 134.691 137.811 134.691L138.647 133.615C136.473 133.212 133.946 133.259 131.015 133.954Z" fill="#FE5A2C"/>
<path d="M118.724 99.855C119.302 102.331 119.848 105.873 118.916 107.971C117.798 110.486 115.769 114.372 114.734 116.318C114.675 116.43 114.649 116.557 114.661 116.684C114.673 116.81 114.721 116.93 114.8 117.029C114.879 117.129 114.985 117.203 115.105 117.242C115.226 117.282 115.355 117.286 115.478 117.253C116.09 117.087 116.687 116.87 117.263 116.605C116.918 116.617 116.679 116.548 116.587 116.366C115.953 115.096 119.836 109.844 119.836 109.844C119.836 109.844 121.518 105.864 120.141 101.887C119.62 100.386 119.147 99.8203 118.724 99.855Z" fill="#FE5A2C"/>
<path d="M124.801 120.032V120.05C124.836 120.22 124.908 120.381 125.013 120.521C125.118 120.66 125.253 120.773 125.408 120.853C125.563 120.933 125.734 120.977 125.908 120.982C126.082 120.987 126.255 120.952 126.415 120.881L126.439 120.87C126.198 120.8 126.048 120.692 126.017 120.538C125.742 119.177 129.645 115.459 129.645 115.459C129.645 115.459 137.082 112.828 138.714 110.923C139.49 110.018 140.021 108.968 140.227 108.205C138.152 109.485 134.627 111.27 131.022 112.892C126.204 115.064 124.801 120.032 124.801 120.032Z" fill="#FE5A2C"/>
<path d="M129.01 125.227C128.914 125.343 128.855 125.485 128.84 125.635C128.826 125.786 128.856 125.937 128.928 126.069C129 126.202 129.109 126.31 129.243 126.38C129.377 126.45 129.528 126.478 129.678 126.462H129.701C129.761 126.224 129.866 126 130.01 125.8C130.826 124.712 138.535 123.262 138.535 123.262L145.611 120.36C146.176 119.646 146.545 119.093 146.768 118.667L139.227 121.53C132.479 122.471 129.954 124.076 129.01 125.227Z" fill="#FE5A2C"/>
<path d="M131.266 131.804C131.707 132.109 132.272 132.329 132.938 132.479C135.102 132.36 142.84 131.861 145.792 130.696C146.58 130.385 147.13 130.056 147.511 129.731C141.047 128.973 131.266 131.804 131.266 131.804Z" fill="#FE5A2C"/>
<path d="M155.842 77.6338L153.868 91.6618C153.868 91.6618 160.794 89.3014 161.89 85.8253C162.986 82.3491 163.366 78.777 163.366 78.777L166.535 77.9009C166.535 77.9009 178.319 89.9205 189.939 84.2532L164.891 71.7241L155.842 77.6338Z" fill="#FE5A2C"/>
<path d="M198.8 75.0365C199.274 75.3754 199.834 75.5735 200.416 75.6078C200.997 75.6421 201.577 75.5113 202.088 75.2304C202.088 75.2304 196.189 71.3619 193.578 64.9794C190.967 58.5969 182.65 57.4373 181.2 57.6303C179.749 57.8232 172.695 60.1443 172.695 60.1443C172.695 60.1443 167.377 57.7272 165.345 59.3706C163.314 61.014 155.095 66.1381 155.095 66.1381L150.383 73.3419C149.174 75.1907 148.635 77.3976 148.855 79.5954L149.482 85.8691C149.482 85.8691 150.614 90.9795 153.872 91.6636C153.872 91.6636 158.479 88.77 159.349 87.8034C160.219 86.8367 161.283 79.0998 161.283 79.0998C161.283 79.0998 163.822 76.7577 166.923 76.2364C169.543 78.2749 175.128 82.265 180.699 83.9815C182.153 84.4167 183.676 84.5719 185.187 84.4388C187.173 86.8166 188.701 89.8702 188.36 93.5055C187.489 102.789 181.784 111.589 181.784 111.589C181.784 111.589 194.839 102.499 197.45 94.762C200.061 87.0251 197.45 83.9312 197.45 83.9312C197.45 83.9312 201.801 82.8676 204.025 80.5475C204.022 80.5484 200.83 79.8716 198.8 75.0365Z" fill="#621112"/>
<path d="M214.23 73.009C208.596 72.5984 203.639 76.861 203.21 82.4936C203.151 83.2612 203.178 84.033 203.291 84.7946L179.84 90.3348C179.37 90.4467 178.963 90.7405 178.708 91.1518C178.454 91.5632 178.373 92.0586 178.482 92.5297C178.531 92.7349 178.619 92.9286 178.743 93.0997C178.866 93.2707 179.022 93.4158 179.201 93.5267C179.381 93.6375 179.58 93.7119 179.789 93.7456C179.997 93.7793 180.21 93.7717 180.415 93.7231L204.361 88.0659C205.191 89.6485 206.42 90.9875 207.925 91.9511C209.43 92.9146 211.161 93.4696 212.946 93.5613C218.542 93.8521 223.385 89.5501 223.754 83.9587C223.934 81.246 223.033 78.5724 221.249 76.5211C219.465 74.4699 216.942 73.2074 214.23 73.009Z" fill="black"/>
<path d="M221.581 83.6627C221.766 79.148 218.255 75.3386 213.741 75.1541C209.226 74.9696 205.416 78.4799 205.232 82.9946C205.048 87.5093 208.558 91.3187 213.073 91.5032C217.587 91.6877 221.397 88.1774 221.581 83.6627Z" fill="white"/>
<path d="M239.233 148.555C237.747 145.285 229.224 131.116 229.224 131.116C229.224 131.116 206.93 112.289 203.264 105.551C203.264 105.551 199.994 96.9304 200.093 86.5286L197.498 83.9039L192.364 78.7999L184.042 75.4308L177.304 73.845C177.304 73.845 177.304 74.9351 179.285 76.8172C181.236 78.6709 184.723 80.1406 184.832 80.1863L177.967 78.681C177.964 79.0385 177.983 79.3958 178.023 79.751C178.115 80.618 178.383 81.7328 179.089 81.9687C180.278 82.3647 184.044 84.545 184.044 84.545C184.044 84.545 186.124 88.8058 186.62 93.0666C187.116 97.3274 188.403 107.534 190.781 109.514C193.159 111.495 195.736 112.092 195.736 112.092C195.736 112.092 211.292 141.223 212.779 143.998C214.266 146.772 219.715 158.465 220.508 159.653C221.301 160.841 231.407 164.509 235.173 163.815C235.24 163.802 235.307 163.79 235.373 163.776C236.855 163.467 238.181 162.645 239.117 161.455C240.052 160.265 240.538 158.783 240.489 157.269C240.389 154.333 240.093 150.448 239.233 148.555Z" fill="#FFA992"/>
<path d="M226.752 158.254C225.024 158.163 201.857 116.027 199.582 112.752C197.308 109.477 193.307 109.386 192.306 104.839C191.306 100.292 189.305 86.7407 188.032 84.6483C187.209 83.2948 182.728 81.2929 178.021 79.751C178.112 80.618 178.38 81.7328 179.086 81.9687C180.275 82.3647 184.041 84.5449 184.041 84.5449C184.041 84.5449 186.121 88.8057 186.617 93.0665C187.113 97.3273 188.4 107.533 190.778 109.514C193.156 111.495 195.733 112.092 195.733 112.092C195.733 112.092 211.289 141.223 212.776 143.998C214.263 146.772 219.712 158.465 220.505 159.653C221.298 160.841 231.404 164.509 235.17 163.815C235.237 163.802 235.304 163.79 235.37 163.776C236.71 163.502 237.927 162.805 238.842 161.789C239.757 160.772 240.323 159.489 240.456 158.128C235.269 164.429 228.227 158.332 226.752 158.254Z" fill="#FE5A2C"/>
<path d="M177.303 73.843C177.303 73.843 177.805 78.0279 186.785 80.8675C186.785 80.8675 190.145 82.5567 191.333 84.9664C192.521 87.3762 192.653 89.0608 192.653 89.0608C192.653 89.0608 192.423 84.6034 191.333 82.6591C190.242 80.7148 178.857 76.3882 177.303 73.843Z" fill="#FE5A2C"/>
<path d="M192.364 78.7981L196.114 84.2313L198.601 89.3911L198.204 86.6841C197.639 85.2967 192.364 78.7981 192.364 78.7981Z" fill="#FE5A2C"/>
<path d="M187.044 76.6689C193.483 81.291 196.153 88.4664 196.153 88.4664L195.196 85.6606C192.885 78.9251 187.044 76.6689 187.044 76.6689Z" fill="#FE5A2C"/>
<g opacity="0.65">
<path d="M160.476 108.607C161.868 106.356 161.171 103.403 158.92 102.011C156.668 100.62 153.715 101.317 152.324 103.568C150.932 105.819 151.629 108.773 153.881 110.164C156.132 111.556 159.085 110.859 160.476 108.607Z" fill="#FE5A2C"/>
</g>
<g opacity="0.65">
<path d="M175.503 116.638C178.15 116.638 180.295 114.492 180.295 111.845C180.295 109.199 178.15 107.053 175.503 107.053C172.856 107.053 170.711 109.199 170.711 111.845C170.711 114.492 172.856 116.638 175.503 116.638Z" fill="#FE5A2C"/>
</g>
<path d="M184.242 95.8276C181.017 94.562 177.436 94.5434 174.197 95.7755C173.899 95.8898 174.029 96.3745 174.331 96.2583C177.482 95.0542 180.97 95.0728 184.109 96.3105C184.409 96.4294 184.539 95.9447 184.242 95.8276Z" fill="black"/>
<path d="M160.76 88.4244C160.441 88.3842 160.443 88.8817 160.76 88.9256C164.449 89.3829 167.753 91.7917 169.363 95.1334C169.503 95.4233 169.934 95.17 169.795 94.8801C168.103 91.3674 164.622 88.9036 160.76 88.4244Z" fill="black"/>
<path d="M160.994 91.0591C159.54 91.0591 158.119 91.4902 156.91 92.298C155.701 93.1057 154.759 94.2538 154.203 95.597C153.646 96.9402 153.501 98.4182 153.784 99.8442C154.068 101.27 154.768 102.58 155.796 103.608C156.824 104.636 158.134 105.336 159.56 105.62C160.986 105.903 162.464 105.758 163.807 105.202C165.15 104.645 166.298 103.703 167.106 102.494C167.914 101.285 168.345 99.864 168.345 98.4101C168.343 96.4611 167.568 94.5924 166.19 93.2143C164.812 91.8361 162.943 91.061 160.994 91.0591ZM160.994 105.093C159.672 105.092 158.381 104.7 157.282 103.966C156.183 103.232 155.327 102.188 154.821 100.967C154.315 99.7456 154.183 98.402 154.441 97.1058C154.699 95.8096 155.335 94.619 156.27 93.6845C157.205 92.7501 158.395 92.1137 159.692 91.8559C160.988 91.5982 162.331 91.7306 163.552 92.2364C164.773 92.7422 165.817 93.5987 166.551 94.6976C167.286 95.7965 167.677 97.0884 167.677 98.4101C167.676 100.182 166.971 101.881 165.718 103.133C164.465 104.386 162.766 105.091 160.994 105.093Z" fill="white"/>
<path d="M177.032 96.4055C175.578 96.4055 174.157 96.8366 172.948 97.6444C171.739 98.4521 170.797 99.6002 170.241 100.943C169.684 102.287 169.539 103.765 169.822 105.191C170.106 106.617 170.806 107.926 171.834 108.954C172.862 109.983 174.172 110.683 175.598 110.966C177.024 111.25 178.502 111.104 179.845 110.548C181.188 109.992 182.337 109.049 183.144 107.841C183.952 106.632 184.383 105.21 184.383 103.757C184.381 101.808 183.606 99.9389 182.228 98.5607C180.85 97.1826 178.981 96.4075 177.032 96.4055ZM177.032 110.439C175.71 110.439 174.418 110.047 173.32 109.313C172.221 108.579 171.364 107.535 170.858 106.314C170.353 105.093 170.22 103.749 170.478 102.453C170.736 101.157 171.372 99.9659 172.307 99.0313C173.241 98.0967 174.432 97.4603 175.728 97.2024C177.025 96.9446 178.368 97.0769 179.589 97.5827C180.81 98.0885 181.854 98.945 182.588 100.044C183.323 101.143 183.715 102.435 183.715 103.757C183.713 105.528 183.008 107.227 181.755 108.48C180.502 109.732 178.804 110.437 177.032 110.439Z" fill="white"/>
<path d="M165.992 111.554L167.573 106.333L165.354 107.894L165.992 111.554Z" fill="#FE5A2C"/>
<path d="M164.849 115.555C164.258 115.428 163.343 115.45 162.402 115.53C160.645 115.68 158.799 116.039 158.799 116.039L168.239 120.155C167.846 119.205 167.376 118.29 166.831 117.419C166.25 116.517 165.55 115.706 164.849 115.555Z" fill="black"/>
<path d="M176.613 100.778C176.238 100.629 175.472 101.672 174.9 103.108C174.329 104.544 174.169 105.829 174.544 105.978C174.919 106.127 175.685 105.083 176.256 103.648C176.828 102.212 176.988 100.93 176.613 100.778Z" fill="black"/>
<path d="M160.173 95.1332C159.79 95.0043 159.08 96.0862 158.585 97.5503C158.09 99.0145 157.998 100.306 158.379 100.435C158.761 100.564 159.472 99.4818 159.968 98.0186C160.463 96.5553 160.555 95.2631 160.173 95.1332Z" fill="black"/>
<path d="M168.22 99.8127L167.938 100.418L170.071 101.414L170.353 100.808L168.22 99.8127Z" fill="white"/>
<path d="M164.85 115.555C164.258 115.428 163.343 115.45 162.402 115.53C163.638 116.619 165.191 117.281 166.831 117.418C166.25 116.517 165.55 115.706 164.85 115.555Z" fill="white"/>
<path d="M217.599 125.7C215.878 127.219 219.976 130.547 224.038 135.152C228.099 139.758 234.574 151.108 236.293 149.59C238.011 148.072 229.079 135.225 225.017 130.623C220.956 126.021 219.319 124.182 217.599 125.7Z" fill="#FFCAC0"/>
<path d="M210.963 119.1C210.257 119.686 210.516 121.164 211.542 122.399C212.568 123.635 213.972 124.161 214.679 123.575C215.386 122.989 215.125 121.512 214.099 120.276C213.073 119.039 211.669 118.513 210.963 119.1Z" fill="#FFCAC0"/>
<path d="M116.368 120.423C111.722 120.423 107.644 123.829 107.644 126.238C107.644 128.647 112.241 125.2 116.886 125.2C121.531 125.2 123.844 125.428 123.844 123.019C123.844 120.61 121.013 120.423 116.368 120.423Z" fill="#FFCAC0"/>
<path d="M196.523 89.9544C194.67 89.9608 197.334 93.489 197.347 97.0639C197.359 100.639 197.187 102.418 199.041 102.412C200.895 102.407 200.161 100.561 200.149 96.9871C200.137 93.4131 198.377 89.9489 196.523 89.9544Z" fill="#FFCAC0"/>
<path d="M152.555 90.5241L152.049 90.9619L155.064 94.4405L155.569 94.0027L152.555 90.5241Z" fill="white"/>
<path d="M183.755 104.949C183.768 104.941 183.782 104.935 183.796 104.929L184.044 105.549C184.117 105.52 184.288 105.451 186.573 103.111L186.095 102.644C185.077 103.686 183.924 104.833 183.755 104.949Z" fill="white"/>
<path d="M193.801 119.487C189.075 118.372 185.158 117.727 184.527 120.402C183.896 123.077 187.509 124.124 192.233 125.239C196.958 126.353 200.582 129.024 201.213 126.35C201.844 123.676 198.526 120.603 193.801 119.487Z" fill="#16A3DB"/>
<path d="M138.698 193.532C120.579 191.811 116.025 158.558 116.025 158.558C113.342 169.928 119.214 202.289 119.214 202.289L154.275 195.582C146.324 196.402 138.698 193.532 138.698 193.532Z" fill="#16A3DB"/>
<path d="M192.63 157.362C191.624 157.362 191.735 159.739 191.735 163.086C191.735 166.432 191.625 169.487 192.63 169.487C193.634 169.487 194.449 166.772 194.449 163.423C194.449 160.074 193.635 157.362 192.63 157.362Z" fill="#FFD399"/>
<path d="M186.947 189.864L199.842 187.486L198.852 174.908C198.852 174.908 195.062 185.664 186.947 189.864Z" fill="#FE5A2C"/>
<path d="M141.257 65.1751C141.124 64.9757 140.992 64.7754 140.86 64.5742C140.752 64.7736 140.644 64.9729 140.539 65.1751H141.257Z" fill="black"/>
<path d="M146.331 58.0273C146.25 57.7374 145.848 57.6066 145.635 57.8444C143.788 59.8952 142.185 62.154 140.861 64.5753C140.991 64.7765 141.124 64.9768 141.258 65.1761H140.539C140.644 64.974 140.752 64.7747 140.861 64.5753C138.962 61.6683 137.339 58.59 136.014 55.3806C135.813 54.8923 135.008 55.1063 135.211 55.6019C136.65 59.1025 138.436 62.4504 140.541 65.5959C140.705 65.841 141.106 65.8895 141.259 65.5959C142.494 63.2274 143.998 61.0093 145.741 58.9857C145.671 58.7406 145.599 58.4955 145.531 58.2486L146.227 58.4315C146.063 58.6144 145.9 58.7973 145.741 58.9802C146.678 62.2702 147.803 65.5038 149.111 68.6651C149.313 69.1525 150.117 68.9394 149.913 68.4438C148.506 65.0484 147.31 61.5696 146.331 58.0273Z" fill="black"/>
<path d="M145.527 58.2522C145.595 58.4991 145.667 58.7442 145.737 58.9893C145.897 58.8064 146.059 58.6235 146.223 58.4406L145.527 58.2522Z" fill="black"/>
<path d="M141.344 73.4333C141.512 73.6162 141.682 73.8065 141.852 73.9912C141.91 73.7434 141.972 73.4964 142.039 73.2495L141.344 73.4333Z" fill="black"/>
<path d="M141.131 77.6739C140.931 77.5587 140.732 77.4416 140.534 77.3228C140.52 77.5587 140.51 77.7956 140.506 78.0333L141.131 77.6739Z" fill="black"/>
<path d="M146.335 77.1829C144.781 75.8261 143.31 74.376 141.932 72.8407C141.72 72.6038 141.317 72.7346 141.237 73.0236C140.85 74.4272 140.615 75.8681 140.534 77.3219C140.732 77.4438 140.931 77.5609 141.131 77.673L140.506 78.0325C140.506 77.7947 140.52 77.5578 140.534 77.3219C138.96 76.3761 137.472 75.294 136.087 74.0881C135.684 73.7369 135.094 74.3231 135.498 74.6761C137.109 76.0831 138.855 77.3277 140.711 78.3919C140.774 78.4275 140.846 78.446 140.918 78.4457C140.991 78.4453 141.063 78.4261 141.126 78.3899C141.189 78.3537 141.242 78.3017 141.279 78.239C141.316 78.1764 141.336 78.1052 141.337 78.0325C141.366 76.6693 141.539 75.3129 141.851 73.9857C141.681 73.8028 141.511 73.6198 141.343 73.4278L142.038 73.2449C141.971 73.4918 141.91 73.7387 141.851 73.9866C143.081 75.3165 144.381 76.5797 145.746 77.7709C146.148 78.1221 146.739 77.5349 146.335 77.1829Z" fill="black"/>
</svg>
