<svg width="54" height="54" viewBox="0 0 54 54" fill="none" xmlns="http://www.w3.org/2000/svg">
<path d="M53.4595 50.6657L46.0481 37.9858V33.39C46.0481 33.2941 45.9383 33.2156 45.8042 33.2156H38.515C38.3809 33.2156 38.2711 33.2941 38.2711 33.39V37.9858H38.236L30.8532 50.6676C30.2573 51.5713 31.1792 52.6111 32.5762 52.6111H51.7378C53.1361 52.6111 54.0579 51.5695 53.4595 50.6657Z" fill="#B9E9FA"/>
<path d="M51.7381 52.9624H32.5765C31.6584 52.9624 30.8387 52.5494 30.4882 51.9102C30.2365 51.4512 30.2592 50.9321 30.5502 50.4847L37.9161 37.8318V33.3902C37.9161 33.0955 38.1793 32.8646 38.5153 32.8646H45.8045C46.1405 32.8646 46.4037 33.0955 46.4037 33.3902V37.8918L53.7628 50.4822C54.0551 50.9299 54.0786 51.4493 53.8271 51.909C53.477 52.5489 52.657 52.9624 51.7381 52.9624ZM38.4813 38.2693L31.1616 50.8429C31.1582 50.8485 31.1548 50.854 31.1512 50.8595C30.9568 51.1544 31.0231 51.4117 31.113 51.5756C31.2998 51.9163 31.8248 52.2602 32.5765 52.2602H51.7381C52.4904 52.2602 53.0154 51.916 53.202 51.5749C53.2918 51.4108 53.3579 51.1532 53.1625 50.8581C53.1588 50.8527 53.1554 50.8471 53.1521 50.8415L45.7407 38.1616C45.7095 38.1082 45.6931 38.0476 45.6931 37.9859V33.5669H38.6268V37.9859C38.6268 38.0411 38.6136 38.0956 38.5884 38.1448C38.5631 38.1941 38.5264 38.2368 38.4813 38.2693Z" fill="#452E63"/>
<path d="M45.705 33.4958C45.7073 33.4348 45.6851 33.3754 45.6433 33.3305C45.6014 33.2856 45.5434 33.2589 45.4817 33.2561L38.8331 33.2838C38.7715 33.2871 38.7136 33.3143 38.6721 33.3596C38.6306 33.4048 38.6089 33.4644 38.6116 33.5254L38.6141 34.2425L45.7076 34.2129L45.705 33.4958Z" fill="#99E0FA"/>
<path d="M37.4607 33.1923H46.8563C47.5106 33.1923 48.041 32.6681 48.041 32.0214V31.5896C48.041 30.9429 47.5106 30.4187 46.8563 30.4187H37.4607C36.8063 30.4187 36.2759 30.9429 36.2759 31.5896V32.0214C36.2759 32.6681 36.8063 33.1923 37.4607 33.1923Z" fill="#F2FCFF"/>
<path d="M46.8556 33.5435H37.46C37.0517 33.543 36.6602 33.3825 36.3715 33.0972C36.0828 32.8118 35.9204 32.425 35.9199 32.0214V31.5896C35.9204 31.1861 36.0828 30.7992 36.3715 30.5139C36.6602 30.2286 37.0517 30.0681 37.46 30.0676H46.8556C47.2639 30.0681 47.6554 30.2286 47.9441 30.5139C48.2328 30.7992 48.3952 31.1861 48.3957 31.5896V32.0214C48.3952 32.425 48.2328 32.8118 47.9441 33.0972C47.6554 33.3825 47.2639 33.543 46.8556 33.5435ZM37.46 30.7699C37.2401 30.7702 37.0293 30.8566 36.8738 31.0103C36.7183 31.1639 36.6308 31.3723 36.6306 31.5896V32.0214C36.6308 32.2388 36.7183 32.4471 36.8738 32.6008C37.0293 32.7545 37.2401 32.8409 37.46 32.8412H46.8556C47.0755 32.8409 47.2863 32.7545 47.4418 32.6008C47.5973 32.4471 47.6848 32.2388 47.6851 32.0214V31.5896C47.6848 31.3723 47.5973 31.1639 47.4418 31.0103C47.2863 30.8566 47.0755 30.7702 46.8556 30.7699H37.46Z" fill="#452E63"/>
<path d="M45.3229 32.1897L46.786 32.1841C46.9057 32.1833 47.0203 32.1357 47.1047 32.0517C47.189 31.9677 47.2363 31.8541 47.2362 31.7357C47.2354 31.6174 47.1872 31.5041 47.1022 31.4208C47.0172 31.3374 46.9023 31.2907 46.7825 31.2908L45.3194 31.2963C45.1996 31.2971 45.085 31.3448 45.0007 31.4288C44.9163 31.5128 44.869 31.6264 44.8691 31.7447C44.87 31.8631 44.9181 31.9763 45.0031 32.0597C45.0882 32.1431 45.2031 32.1898 45.3229 32.1897Z" fill="#99E0FA"/>
<path d="M37.5319 32.1897L38.9949 32.1841C39.1147 32.1833 39.2293 32.1357 39.3137 32.0517C39.398 31.9677 39.4453 31.8541 39.4452 31.7357C39.4444 31.6174 39.3962 31.5041 39.3112 31.4208C39.2262 31.3374 39.1112 31.2907 38.9915 31.2908L37.5284 31.2963C37.4086 31.2971 37.294 31.3448 37.2097 31.4288C37.1253 31.5128 37.078 31.6264 37.0781 31.7447C37.0789 31.8631 37.1271 31.9763 37.2121 32.0597C37.2971 32.1431 37.4121 32.1898 37.5319 32.1897Z" fill="white"/>
<path d="M53.4608 50.6677C54.0567 51.5714 53.1348 52.6112 51.7378 52.6112H32.5762C31.1779 52.6112 30.2561 51.5697 30.8545 50.6658L34.9899 43.5907L36.2986 44.3737C37.2488 44.9422 38.3682 45.1698 39.4683 45.0181C40.5684 44.8664 41.5821 44.3448 42.3386 43.541C42.9869 42.8522 43.846 42.3928 44.7841 42.2332C45.7221 42.0737 46.6872 42.2229 47.5312 42.6579L49.3409 43.5907L53.4608 50.6677Z" fill="#D4203E"/>
<path d="M51.7381 52.9624H32.5765C31.6577 52.9624 30.8377 52.5489 30.4876 51.9089C30.236 51.4492 30.2596 50.9298 30.5519 50.4822L34.6825 43.4151C34.7062 43.3747 34.7378 43.3393 34.7754 43.311C34.8131 43.2828 34.8561 43.2623 34.9019 43.2506C34.9477 43.239 34.9953 43.2365 35.0421 43.2434C35.0889 43.2502 35.1338 43.2662 35.1742 43.2904L36.483 44.0733C37.3643 44.5967 38.4005 44.8056 39.4189 44.6652C40.4372 44.5248 41.376 44.0436 42.0788 43.3019C42.7811 42.5585 43.7104 42.0627 44.7246 41.8902C45.7389 41.7178 46.7824 41.878 47.6958 42.3466L49.5055 43.2794C49.5656 43.3104 49.6154 43.3576 49.6492 43.4157L53.7644 50.4847C54.0554 50.9321 54.0782 51.4511 53.8265 51.9101C53.476 52.5494 52.6562 52.9624 51.7381 52.9624ZM35.1165 44.0768L31.1625 50.8414C31.1592 50.8471 31.1558 50.8526 31.1522 50.8581C30.9568 51.1532 31.0229 51.4108 31.1126 51.5749C31.2993 51.9159 31.8243 52.2601 32.5765 52.2601H51.7381C52.4898 52.2601 53.0148 51.9163 53.2017 51.5755C53.2916 51.4116 53.3579 51.1544 53.1634 50.8594C53.1598 50.854 53.1564 50.8485 53.1531 50.8428L49.0849 43.8547L47.3672 42.9693C46.5918 42.5715 45.706 42.4355 44.8451 42.5819C43.9841 42.7283 43.1953 43.1492 42.5991 43.7802C41.7869 44.6431 40.6988 45.2031 39.5178 45.3659C38.3367 45.5287 37.135 45.2844 36.1149 44.6741L35.1165 44.0768Z" fill="#452E63"/>
<path d="M30.8532 50.6677C30.2573 51.5714 31.1792 52.6112 32.5762 52.6112H51.7378C53.1361 52.6112 54.0579 51.5697 53.4595 50.6658L49.3241 43.5907L48.0154 44.3737C47.0652 44.9422 45.9458 45.1698 44.8457 45.0181C43.7456 44.8664 42.7319 44.3448 41.9754 43.541C41.3271 42.8522 40.468 42.3928 39.5299 42.2332C38.5919 42.0737 37.6268 42.2229 36.7828 42.6579L34.9731 43.5907L30.8532 50.6677Z" fill="#FF494B"/>
<path d="M51.7381 52.9624H32.5765C31.6584 52.9624 30.8387 52.5494 30.4882 51.9102C30.2365 51.4512 30.2592 50.9321 30.5502 50.4847L34.6655 43.4157C34.6992 43.3577 34.7491 43.3104 34.8091 43.2795L36.6188 42.3467C37.5322 41.8781 38.5757 41.7178 39.59 41.8902C40.6043 42.0627 41.5335 42.5585 42.2359 43.3019C42.9386 44.0437 43.8775 44.5249 44.8958 44.6653C45.9141 44.8057 46.9504 44.5968 47.8317 44.0734L49.1404 43.2904C49.1809 43.2662 49.2258 43.2502 49.2725 43.2434C49.3193 43.2366 49.367 43.2391 49.4128 43.2507C49.4586 43.2623 49.5016 43.2828 49.5392 43.3111C49.5769 43.3393 49.6085 43.3747 49.6321 43.4152L53.7628 50.4822C54.0551 50.9298 54.0786 51.4493 53.8271 51.909C53.477 52.5489 52.657 52.9624 51.7381 52.9624ZM35.2297 43.8547L31.1616 50.8429C31.1582 50.8485 31.1548 50.8541 31.1512 50.8595C30.9568 51.1544 31.0231 51.4117 31.113 51.5756C31.2998 51.9163 31.8248 52.2602 32.5765 52.2602H51.7381C52.4904 52.2602 53.0154 51.916 53.202 51.5749C53.2918 51.4108 53.3579 51.1532 53.1625 50.8581C53.1588 50.8527 53.1554 50.8471 53.1521 50.8415L49.1982 44.0768L48.1997 44.6742C47.1796 45.2845 45.9779 45.5288 44.7969 45.3659C43.6159 45.2031 42.5277 44.6431 41.7156 43.7802C41.1193 43.1492 40.3305 42.7283 39.4696 42.5819C38.6086 42.4355 37.7228 42.5716 36.9474 42.9693L35.2297 43.8547Z" fill="#452E63"/>
<path d="M37.8119 44.0332L38.2482 44.206C38.562 44.3302 38.8129 44.5725 38.9459 44.8796C39.0788 45.1868 39.0829 45.5335 38.9572 45.8436L38.0024 48.1984C37.8766 48.5085 37.6314 48.7565 37.3207 48.8879C37.0099 49.0193 36.6591 49.0233 36.3453 48.899L35.909 48.7263C35.5953 48.602 35.3443 48.3597 35.2114 48.0526C35.0784 47.7455 35.0743 47.3987 35.2001 47.0887L36.1549 44.7338C36.2806 44.4237 36.5258 44.1757 36.8366 44.0443C37.1473 43.9129 37.4982 43.9089 37.8119 44.0332Z" fill="#FF7373"/>
<path d="M38.1627 47.802L38.828 46.1613C38.7173 46.1088 38.597 46.0794 38.4744 46.0747C38.3518 46.0701 38.2295 46.0904 38.1152 46.1344C38.0008 46.1784 37.8968 46.2451 37.8096 46.3304C37.7224 46.4157 37.6539 46.5178 37.6082 46.6303C37.5626 46.7429 37.5408 46.8635 37.5443 46.9847C37.5478 47.106 37.5764 47.2252 37.6283 47.335C37.6803 47.4449 37.7546 47.543 37.8465 47.6233C37.9384 47.7036 38.0461 47.7644 38.1627 47.802Z" fill="#E84F6C"/>
<path d="M53.1782 50.8477C53.1748 50.8426 53.1715 50.8374 53.1684 50.832L49.2047 44.0507L48.1895 44.658C47.1729 45.2653 45.9759 45.5087 44.7993 45.3472C44.7854 45.3453 44.7716 45.3431 44.7578 45.341L46.3589 52.2791H51.7378C52.498 52.2791 53.0293 51.9299 53.2186 51.5839C53.3109 51.4153 53.3788 51.1506 53.1782 50.8477Z" fill="#F23F3F"/>
<path d="M43.0669 47.6067C43.5897 47.3926 43.838 46.8003 43.6214 46.2836C43.4048 45.7669 42.8054 45.5215 42.2826 45.7355C41.7598 45.9495 41.5115 46.5419 41.7281 47.0586C41.9446 47.5753 42.544 47.8207 43.0669 47.6067Z" fill="#E83356"/>
<path d="M49.0219 47.5564C49.1143 47.1694 48.8718 46.7817 48.4803 46.6903C48.0887 46.599 47.6963 46.8386 47.6039 47.2256C47.5115 47.6126 47.7539 48.0003 48.1455 48.0917C48.5371 48.183 48.9294 47.9434 49.0219 47.5564Z" fill="#C22543"/>
<path d="M34.7504 49.9768C35.0349 49.6957 35.0349 49.2399 34.7504 48.9587C34.4659 48.6776 34.0047 48.6776 33.7202 48.9587C33.4357 49.2399 33.4357 49.6957 33.7202 49.9768C34.0047 50.258 34.4659 50.258 34.7504 49.9768Z" fill="#E83356"/>
<path d="M41.308 49.6333C41.4004 49.2463 41.158 48.8586 40.7664 48.7672C40.3748 48.6759 39.9825 48.9155 39.89 49.3025C39.7976 49.6895 40.0401 50.0772 40.4316 50.1686C40.8232 50.2599 41.2156 50.0203 41.308 49.6333Z" fill="#E83356"/>
<path d="M39.0738 47.5859C39.4237 47.2401 39.4237 46.6794 39.0738 46.3335C38.7238 45.9877 38.1564 45.9877 37.8065 46.3335C37.4565 46.6794 37.4565 47.2401 37.8065 47.5859C38.1564 47.9318 38.7238 47.9318 39.0738 47.5859Z" fill="#E83356"/>
<path d="M46.0524 50.2203C46.473 50.2203 46.8139 49.8834 46.8139 49.4678C46.8139 49.0522 46.473 48.7153 46.0524 48.7153C45.6319 48.7153 45.291 49.0522 45.291 49.4678C45.291 49.8834 45.6319 50.2203 46.0524 50.2203Z" fill="#C22543"/>
<path d="M40.2353 44.5959C40.4365 44.5959 40.5996 44.4347 40.5996 44.2359C40.5996 44.0371 40.4365 43.876 40.2353 43.876C40.0342 43.876 39.8711 44.0371 39.8711 44.2359C39.8711 44.4347 40.0342 44.5959 40.2353 44.5959Z" fill="#E83356"/>
<path d="M40.3497 35.0592H40.1229C39.7832 35.0592 39.5078 35.3313 39.5078 35.667V37.7549C39.5078 38.0906 39.7832 38.3627 40.1229 38.3627H40.3497C40.6894 38.3627 40.9648 38.0906 40.9648 37.7549V35.667C40.9648 35.3313 40.6894 35.0592 40.3497 35.0592Z" fill="#D4F0FA"/>
<path d="M13.2261 47.9429C13.2295 47.0182 12.4553 46.2658 11.4971 46.2624C10.5389 46.2591 9.75936 47.006 9.75603 47.9307C9.7527 48.8554 10.5268 49.6077 11.485 49.6111C12.4433 49.6145 13.2228 48.8676 13.2261 47.9429Z" fill="#FF7373"/>
<path d="M5.81744 45.0318C5.81946 44.4704 5.34948 44.0136 4.76771 44.0116C4.18595 44.0096 3.7127 44.463 3.71068 45.0244C3.70866 45.5858 4.17865 46.0425 4.76042 46.0446C5.34218 46.0466 5.81543 45.5932 5.81744 45.0318Z" fill="#FF7373"/>
<path d="M17.7285 43.033C17.7305 42.4716 17.2605 42.0148 16.6788 42.0128C16.097 42.0108 15.6238 42.4642 15.6218 43.0256C15.6198 43.587 16.0898 44.0438 16.6715 44.0458C17.2533 44.0478 17.7265 43.5944 17.7285 43.033Z" fill="#FF7373"/>
<path d="M13.3767 35.0698L13.3892 31.5609C13.3902 31.1686 13.3122 30.78 13.1598 30.4178L6.2558 30.3938C6.10081 30.7549 6.02007 31.1429 6.0183 31.5352L6.00579 35.0451C4.32876 35.7534 2.89917 36.933 1.8945 38.4372C0.889837 39.9415 0.35434 41.7042 0.354492 43.5066C0.354492 48.587 4.5219 52.7055 9.66266 52.7055C14.8034 52.7055 18.9709 48.587 18.9709 43.5066C18.971 41.7147 18.4417 39.9618 17.4479 38.463C16.4541 36.9643 15.0391 35.7849 13.3767 35.0698Z" fill="#B9E9FA"/>
<path d="M9.66349 53.0569C7.457 53.0566 5.31704 52.3101 3.5992 50.9416C1.88136 49.5731 0.689086 47.6648 0.220482 45.534C-0.248121 43.4031 0.0351669 41.1779 1.02327 39.2282C2.01138 37.2785 3.64481 35.7216 5.65214 34.8162L5.66384 31.5341C5.66556 31.0954 5.75579 30.6614 5.92924 30.2576C5.9564 30.1939 6.00194 30.1396 6.06017 30.1014C6.11841 30.0632 6.18674 30.0428 6.25663 30.0428H6.25788L13.1619 30.0669C13.232 30.0671 13.3005 30.0879 13.3587 30.1265C13.4169 30.1651 13.4622 30.2199 13.489 30.2839C13.6596 30.6889 13.7467 31.1235 13.7453 31.5622L13.7336 34.8433C15.7299 35.7594 17.3499 37.3216 18.3258 39.2713C19.3016 41.221 19.5748 43.4415 19.1002 45.5655C18.6255 47.6895 17.4315 49.5898 15.7155 50.952C13.9996 52.3142 11.8645 53.0568 9.66349 53.0569ZM6.50279 30.746C6.41872 31.0013 6.37543 31.2681 6.37447 31.5366L6.36195 35.0465C6.36171 35.1151 6.34116 35.1821 6.30285 35.2392C6.26454 35.2964 6.21013 35.3412 6.14635 35.3682C4.5326 36.0485 3.1569 37.1828 2.19042 38.6298C1.22393 40.0769 0.70933 41.7729 0.710642 43.5068C0.710642 48.3855 4.72687 52.3546 9.66349 52.3546C14.6001 52.3546 18.6164 48.3855 18.6164 43.5068C18.6164 41.7833 18.1073 40.0973 17.1514 38.6557C16.1955 37.2142 14.8346 36.0798 13.2356 35.3919C13.172 35.3645 13.1179 35.3193 13.0799 35.2618C13.042 35.2044 13.0219 35.1373 13.0222 35.0687L13.0347 31.5598C13.0356 31.2913 12.9942 31.0242 12.912 30.7683L6.50279 30.746Z" fill="#452E63"/>
<path d="M12.9416 31.0302C12.9412 30.8572 12.8492 30.7161 12.7373 30.7168L6.65204 30.753C6.54006 30.7537 6.44879 30.8958 6.44922 31.0688L6.45156 32.0064L12.944 31.9678L12.9416 31.0302Z" fill="#99E0FA"/>
<path d="M13.3697 26.6042L5.97069 26.5784C5.71719 26.5774 5.46597 26.6258 5.23139 26.7208C4.99681 26.8158 4.78347 26.9555 4.60355 27.132C4.42363 27.3085 4.28066 27.5183 4.1828 27.7494C4.08494 27.9805 4.03411 28.2284 4.03322 28.479C4.03232 28.7295 4.08138 28.9777 4.17759 29.2095C4.2738 29.4413 4.41527 29.6521 4.59393 29.8298C4.77259 30.0076 4.98493 30.1488 5.21882 30.2454C5.45272 30.342 5.70358 30.3922 5.95709 30.393L13.3561 30.4188C13.8678 30.4203 14.3592 30.221 14.7223 29.8646C15.0853 29.5082 15.2903 29.0239 15.2921 28.5182C15.2939 28.0125 15.0924 27.5267 14.7319 27.1678C14.3714 26.8089 13.8814 26.6061 13.3697 26.6042Z" fill="#D4F0FA"/>
<path d="M13.3627 30.77H13.3546L5.95561 30.7442C5.3508 30.7412 4.77184 30.5014 4.3456 30.0774C3.91936 29.6533 3.6806 29.0796 3.68164 28.4819C3.68269 27.8841 3.92345 27.3112 4.35116 26.8886C4.77888 26.466 5.35867 26.2282 5.96349 26.2273H5.97173L13.3707 26.2531C13.9761 26.2552 14.5559 26.4946 14.9829 26.9187C15.4099 27.3429 15.6491 27.9172 15.648 28.5155C15.647 29.1138 15.4057 29.6872 14.9773 30.1099C14.5488 30.5326 13.9681 30.77 13.3627 30.77ZM5.96357 26.9296C5.54643 26.9296 5.14635 27.0932 4.85114 27.3844C4.55592 27.6757 4.38972 28.0708 4.38899 28.483C4.38827 28.8953 4.5531 29.291 4.84729 29.5832C5.14147 29.8755 5.54099 30.0404 5.95812 30.0419L13.3571 30.0677C13.7741 30.0683 14.1744 29.9053 14.47 29.6146C14.7657 29.3239 14.9326 28.9292 14.934 28.517C14.9355 28.1048 14.7715 27.7089 14.4779 27.4162C14.1844 27.1234 13.7853 26.9577 13.3682 26.9554L5.96922 26.9296H5.96357Z" fill="#452E63"/>
<path d="M11.7827 29.0321L13.6955 29.0248C13.8521 29.0238 14.0019 28.9615 14.1122 28.8517C14.2225 28.7418 14.2843 28.5933 14.2842 28.4386C14.2831 28.2838 14.2201 28.1358 14.109 28.0268C13.9978 27.9178 13.8475 27.8567 13.691 27.8568L11.7781 27.8641C11.6215 27.8651 11.4717 27.9274 11.3614 28.0372C11.2511 28.1471 11.1893 28.2956 11.1895 28.4503C11.1905 28.6051 11.2535 28.7531 11.3646 28.8621C11.4758 28.9711 11.6261 29.0322 11.7827 29.0321Z" fill="#99E0FA"/>
<path d="M5.81586 29.0321L7.72871 29.0248C7.88529 29.0238 8.03509 28.9615 8.14538 28.8517C8.25568 28.7418 8.31751 28.5933 8.31736 28.4386C8.3163 28.2838 8.25332 28.1358 8.14217 28.0268C8.03102 27.9178 7.88074 27.8567 7.72416 27.8568L5.81131 27.8641C5.65473 27.8651 5.50493 27.9274 5.39463 28.0372C5.28434 28.1471 5.22251 28.2956 5.22266 28.4503C5.22372 28.6051 5.2867 28.7531 5.39785 28.8621C5.509 28.9711 5.65928 29.0322 5.81586 29.0321Z" fill="white"/>
<path d="M2.06465 42.8254C3.29382 43.5683 4.74605 43.8659 6.17278 43.6673C7.59952 43.4687 8.91206 42.7863 9.88576 41.7367C10.7202 40.8374 11.8324 40.2364 13.0487 40.0276C14.2651 39.8187 15.5173 40.0137 16.6097 40.5822L18.795 41.7195C18.9121 42.3081 18.971 42.9066 18.9709 43.5065C18.9709 48.5869 14.8034 52.7054 9.66268 52.7054C4.52192 52.7054 0.354492 48.5869 0.354492 43.5065C0.354376 42.9612 0.403042 42.417 0.499918 41.8803L2.06465 42.8254Z" fill="#FC861E"/>
<path d="M9.6635 53.0567C8.39447 53.0567 7.13786 52.8097 5.96543 52.3298C4.793 51.8498 3.7277 51.1464 2.83036 50.2596C1.93302 49.3728 1.22121 48.32 0.735576 47.1613C0.249942 46.0026 -5.7639e-06 44.7607 0 43.5066C5.27616e-05 42.9407 0.050568 42.3759 0.15096 41.8187C0.161109 41.7624 0.184992 41.7095 0.220538 41.6644C0.256085 41.6194 0.302222 41.5836 0.354942 41.5601C0.407662 41.5367 0.465373 41.5263 0.52307 41.5299C0.580767 41.5335 0.636708 41.551 0.686034 41.5807L2.25078 42.5259C4.62968 43.9629 7.73107 43.531 9.62527 41.4989C10.5141 40.5448 11.6968 39.9073 12.9898 39.6854C14.2828 39.4635 15.6137 39.6695 16.7761 40.2716L18.9613 41.4089C19.0083 41.4333 19.049 41.4678 19.0807 41.5098C19.1124 41.5518 19.1342 41.6003 19.1444 41.6518C19.2658 42.2627 19.327 42.8839 19.327 43.5066C19.327 44.7607 19.077 46.0026 18.5914 47.1613C18.1058 48.3199 17.394 49.3727 16.4966 50.2596C15.5993 51.1464 14.534 51.8498 13.3616 52.3298C12.1891 52.8097 10.9325 53.0567 9.6635 53.0567ZM0.773372 42.4566C0.731631 42.8051 0.710678 43.1557 0.710626 43.5066C0.710626 48.3853 4.72688 52.3544 9.6635 52.3544C14.6001 52.3544 18.6164 48.3853 18.6164 43.5066C18.6163 42.9851 18.5701 42.4647 18.4781 41.9512L16.445 40.893C15.4213 40.3629 14.2492 40.1816 13.1106 40.3772C11.972 40.5728 10.9306 41.1344 10.1479 41.9747C9.11851 43.0841 7.731 43.8054 6.22281 44.0152C4.71463 44.2251 3.17952 43.9105 1.88018 43.1252L0.773372 42.4566Z" fill="#452E63"/>
<path d="M17.2607 42.8254C16.0315 43.5683 14.5793 43.8659 13.1526 43.6673C11.7258 43.4687 10.4133 42.7863 9.43958 41.7367C8.60519 40.8374 7.49298 40.2364 6.2766 40.0276C5.06022 39.8187 3.80809 40.0137 2.71566 40.5822L0.530379 41.7195C0.413204 42.3081 0.354296 42.9066 0.354493 43.5065C0.354493 48.5869 4.5219 52.7054 9.66266 52.7054C14.8034 52.7054 18.9709 48.5869 18.9709 43.5065C18.971 42.9612 18.9223 42.417 18.8254 41.8803L17.2607 42.8254Z" fill="#FFB842"/>
<path d="M9.66348 53.0567C8.39445 53.0567 7.13785 52.8097 5.96542 52.3297C4.79299 51.8498 3.72769 51.1464 2.83035 50.2595C1.93302 49.3727 1.22121 48.3199 0.735576 47.1613C0.249943 46.0026 -5.76205e-06 44.7607 1.93536e-09 43.5066C-1.25606e-05 42.8839 0.0611328 42.2627 0.182576 41.6517C0.192814 41.6003 0.21457 41.5518 0.246248 41.5098C0.277926 41.4678 0.318722 41.4333 0.365642 41.4089L2.55094 40.2716C3.71329 39.6695 5.04422 39.4635 6.33719 39.6854C7.63016 39.9073 8.81285 40.5448 9.70171 41.4989C10.2535 42.0898 10.9232 42.5611 11.6686 42.8832C12.414 43.2054 13.2189 43.3713 14.0324 43.3705C15.1064 43.3717 16.1598 43.0794 17.0762 42.5259L18.641 41.5807C18.6903 41.5509 18.7462 41.5335 18.8039 41.5299C18.8616 41.5263 18.9193 41.5367 18.9721 41.5601C19.0248 41.5836 19.0709 41.6194 19.1065 41.6644C19.142 41.7095 19.1659 41.7624 19.176 41.8187C19.2764 42.3758 19.3269 42.9407 19.327 43.5066C19.327 44.7607 19.077 46.0026 18.5914 47.1613C18.1058 48.3199 17.394 49.3727 16.4966 50.2595C15.5993 51.1464 14.534 51.8498 13.3615 52.3298C12.1891 52.8097 10.9325 53.0567 9.66348 53.0567ZM0.848832 41.9512C0.756887 42.4647 0.710643 42.9851 0.710629 43.5066C0.710629 48.3853 4.72686 52.3544 9.66348 52.3544C14.6001 52.3544 18.6164 48.3853 18.6164 43.5066C18.6163 43.1557 18.5954 42.8051 18.5536 42.4566L17.4468 43.1251C16.1475 43.9104 14.6124 44.2251 13.1042 44.0152C11.596 43.8054 10.2085 43.084 9.17909 41.9747C8.39642 41.1344 7.35499 40.5729 6.21641 40.3773C5.07782 40.1817 3.90575 40.363 2.88205 40.893L0.848832 41.9512Z" fill="#452E63"/>
<path d="M9.61407 46.9147C10.3539 46.9147 10.9537 46.322 10.9537 45.5908C10.9537 44.8596 10.3539 44.2668 9.61407 44.2668C8.8742 44.2668 8.27441 44.8596 8.27441 45.5908C8.27441 46.322 8.8742 46.9147 9.61407 46.9147Z" fill="#FF9933"/>
<path d="M8.25768 50.6176C8.62962 50.25 8.62962 49.654 8.25768 49.2865C7.88574 48.9189 7.2827 48.9189 6.91076 49.2865C6.53882 49.654 6.53882 50.25 6.91076 50.6176C7.2827 50.9852 7.88574 50.9852 8.25768 50.6176Z" fill="#FF9933"/>
<path d="M14.9858 47.0579C15.4718 46.859 15.7026 46.3084 15.5013 45.8282C15.3 45.3479 14.7428 45.1198 14.2569 45.3188C13.7709 45.5177 13.5401 46.0683 13.7414 46.5485C13.9427 47.0288 14.4999 47.2569 14.9858 47.0579Z" fill="#FF9933"/>
<path d="M6.11673 45.1155C6.71451 44.8708 6.99838 44.1935 6.75077 43.6027C6.50316 43.012 5.81784 42.7314 5.22007 42.9761C4.62229 43.2208 4.33842 43.8981 4.58603 44.4889C4.83364 45.0796 5.51895 45.3602 6.11673 45.1155Z" fill="#FF9933"/>
<path d="M12.185 50.8248C12.7347 50.8248 13.1804 50.3843 13.1804 49.841C13.1804 49.2976 12.7347 48.8572 12.185 48.8572C11.6352 48.8572 11.1895 49.2976 11.1895 49.841C11.1895 50.3843 11.6352 50.8248 12.185 50.8248Z" fill="#FF9933"/>
<path d="M4.80922 47.6003C5.07222 47.6003 5.28543 47.3896 5.28543 47.1297C5.28543 46.8698 5.07222 46.6591 4.80922 46.6591C4.54621 46.6591 4.33301 46.8698 4.33301 47.1297C4.33301 47.3896 4.54621 47.6003 4.80922 47.6003Z" fill="#FF9933"/>
<path d="M3.76625 45.143C4.68077 45.143 5.42214 44.4104 5.42214 43.5066C5.42214 42.6028 4.68077 41.8701 3.76625 41.8701C2.85172 41.8701 2.11035 42.6028 2.11035 43.5066C2.11035 44.4104 2.85172 45.143 3.76625 45.143Z" fill="#FFDD57"/>
<path d="M4.49512 44.0457C4.49479 44.3225 4.59523 44.5902 4.77808 44.7998C5.05631 44.5867 5.25863 44.2916 5.3557 43.9572C5.45278 43.6228 5.43956 43.2665 5.31797 42.9401C5.07948 43.0136 4.87102 43.1606 4.723 43.3595C4.57497 43.5584 4.49513 43.7988 4.49512 44.0457Z" fill="#FFB842"/>
<path d="M8.35724 33.3533H8.28001C7.77533 33.3533 7.36621 33.7576 7.36621 34.2564V35.107C7.36621 35.6057 7.77533 36.0101 8.28001 36.0101H8.35724C8.86192 36.0101 9.27104 35.6057 9.27104 35.107V34.2564C9.27104 33.7576 8.86192 33.3533 8.35724 33.3533Z" fill="#D4F0FA"/>
<path d="M26.5678 38.3536L26.7507 38.3529C29.2152 38.3435 31.2239 36.3431 31.2144 33.9074L31.1506 17.5535C31.1501 17.4799 31.1202 17.4095 31.0673 17.3577C31.0145 17.3058 30.943 17.2768 30.8685 17.2769L22.2858 17.3095C22.2114 17.31 22.1401 17.3396 22.0877 17.3919C22.0352 17.4441 22.0058 17.5147 22.0059 17.5883L22.0696 33.9423C22.0791 36.3779 24.1033 38.363 26.5678 38.3536Z" fill="#B9E9FA"/>
<path d="M26.5502 38.7047C25.2712 38.7033 24.0448 38.2018 23.1387 37.3097C22.2326 36.4177 21.7205 35.2075 21.7141 33.9436L21.6504 17.5896C21.65 17.4229 21.7165 17.2628 21.8353 17.1445C21.9541 17.0261 22.1156 16.9592 22.2843 16.9583L30.867 16.9257H30.8695C31.0378 16.9259 31.1991 16.9919 31.3183 17.1092C31.4376 17.2266 31.505 17.3858 31.5058 17.5521L31.5695 33.906C31.573 35.1732 31.0678 36.39 30.1646 37.2895C29.2614 38.189 28.0341 38.6977 26.7519 38.704L26.5691 38.7047C26.5629 38.7047 26.5564 38.7047 26.5502 38.7047ZM22.3613 17.6603L22.4248 33.9408C22.4302 35.0191 22.8671 36.0513 23.6401 36.8123C24.413 37.5733 25.4592 38.0011 26.5502 38.0024C26.5556 38.0024 26.5609 38.0024 26.5664 38.0024L26.7492 38.0017C27.8423 37.9941 28.888 37.5595 29.6579 36.7926C30.4279 36.0258 30.8597 34.9891 30.8589 33.9088L30.7955 17.6282L22.3613 17.6603Z" fill="#452E63"/>
<path d="M30.8392 17.5592C30.8414 17.4869 30.8147 17.4167 30.7648 17.3638C30.7149 17.3109 30.6459 17.2797 30.5728 17.2769L22.6406 17.3095C22.5674 17.3129 22.4987 17.3447 22.4492 17.398C22.3996 17.4513 22.3734 17.5217 22.3762 17.594L22.3792 18.4386L30.8422 18.4038L30.8392 17.5592Z" fill="#99E0FA"/>
<path d="M30.8392 22.1925C30.8414 22.1202 30.8147 22.05 30.7648 21.9971C30.7149 21.9442 30.6459 21.913 30.5728 21.9102L22.6406 21.9428C22.5674 21.9462 22.4987 21.978 22.4492 22.0313C22.3996 22.0846 22.3734 22.155 22.3762 22.2273L22.3792 23.0719L30.8422 23.0371L30.8392 22.1925Z" fill="#99E0FA"/>
<path d="M30.8392 19.4866C30.8414 19.4144 30.8147 19.3442 30.7648 19.2913C30.7149 19.2384 30.6459 19.2071 30.5728 19.2043L22.6406 19.237C22.5674 19.2404 22.4987 19.2722 22.4492 19.3255C22.3996 19.3787 22.3734 19.4492 22.3762 19.5215L22.3792 20.3661L30.8422 20.3313L30.8392 19.4866Z" fill="#99E0FA"/>
<path d="M26.5373 38.7048C23.8791 38.7048 21.7114 36.5553 21.701 33.9044L21.6367 17.4055C21.6359 17.2384 21.7022 17.0778 21.8211 16.959C21.9399 16.8402 22.1016 16.7728 22.2706 16.7717L30.8533 16.739H30.8559C31.0245 16.7396 31.186 16.806 31.3052 16.9238C31.4244 17.0417 31.4916 17.2013 31.4922 17.3679L31.5564 33.8668C31.5668 36.5239 29.4057 38.6939 26.739 38.7041L26.5561 38.7048C26.5499 38.7048 26.5435 38.7048 26.5373 38.7048ZM22.3476 17.4737L22.4117 33.9016C22.4205 36.1661 24.2699 38.0025 26.5374 38.0025C26.5428 38.0025 26.548 38.0025 26.5534 38.0025L26.7362 38.0018C29.0111 37.9931 30.8547 36.1394 30.8458 33.8696L30.7818 17.4416L22.3476 17.4737Z" fill="#452E63"/>
<path d="M21.2217 17.2879L32.0116 17.2468C32.415 17.2441 32.8009 17.0838 33.085 16.8008C33.3691 16.5179 33.5284 16.1353 33.528 15.7366L33.5278 15.6753C33.525 15.2766 33.3628 14.8953 33.0765 14.6145C32.7901 14.3337 32.403 14.1763 31.9996 14.1766L21.2098 14.2177C20.8064 14.2204 20.4205 14.3808 20.1364 14.6637C19.8523 14.9467 19.693 15.3293 19.6934 15.7279L19.6936 15.7893C19.6963 16.1879 19.8586 16.5693 20.1449 16.8501C20.4312 17.1309 20.8184 17.2883 21.2217 17.2879Z" fill="#D4F0FA"/>
<path d="M26.6441 38.3534C24.1293 38.363 22.0638 36.3374 22.0541 33.8521L22.0244 26.2325C22.7072 26.5585 23.4663 26.696 24.2217 26.6306C24.977 26.5653 25.7005 26.2994 26.3155 25.8612L26.3895 25.8084C27.0251 25.3556 27.7914 25.1172 28.5748 25.1286C29.3582 25.14 30.1171 25.4005 30.7388 25.8716L31.1692 26.1977L31.1989 33.8173C31.2086 36.3026 29.1589 38.3438 26.6441 38.3534Z" fill="#00D6A1"/>
<path d="M26.625 38.7044C25.3225 38.7008 24.0742 38.1891 23.1515 37.2807C22.2287 36.3722 21.7062 35.1404 21.6977 33.8533L21.668 26.2337C21.6677 26.1742 21.6828 26.1155 21.7119 26.0633C21.7409 26.0111 21.7828 25.9671 21.8338 25.9353C21.8848 25.9035 21.9432 25.8851 22.0033 25.8818C22.0635 25.8784 22.1236 25.8903 22.1778 25.9162C22.8028 26.215 23.498 26.3411 24.1896 26.2813C24.8813 26.2214 25.5436 25.9778 26.1066 25.5762L26.1806 25.5234C26.8781 25.0264 27.7191 24.7648 28.5789 24.7773C29.4387 24.7898 30.2715 25.0758 30.9539 25.5928L31.3843 25.9189C31.4274 25.9515 31.4623 25.9935 31.4864 26.0416C31.5105 26.0896 31.5232 26.1425 31.5234 26.1962L31.5531 33.8157C31.5546 35.1062 31.0391 36.3449 30.1193 37.2609C29.1995 38.1769 27.9502 38.6959 26.6444 38.7044H26.6444C26.638 38.7044 26.6314 38.7044 26.625 38.7044ZM22.3806 26.7563L22.4083 33.8505C22.4161 34.9519 22.8634 36.0058 23.653 36.7831C24.4425 37.5605 25.5106 37.9985 26.625 38.0021C26.6306 38.0021 26.6361 38.0021 26.6416 38.0021H26.6417C27.759 37.9943 28.8278 37.55 29.6149 36.7662C30.4019 35.9824 30.8432 34.9227 30.8424 33.8185L30.8135 26.3713L30.5215 26.1502C29.9617 25.722 29.2763 25.4849 28.5685 25.4746C27.8606 25.4643 27.1685 25.6813 26.5962 26.0931L26.5222 26.1458C25.9315 26.5673 25.2471 26.8427 24.5265 26.9489C23.8059 27.0551 23.0701 26.9891 22.3806 26.7563Z" fill="#452E63"/>
<path d="M26.6441 38.3532C29.1589 38.3437 31.2086 36.3024 31.1989 33.8171L31.1692 26.1975C30.489 26.5287 29.7309 26.672 28.9751 26.6124C28.2193 26.5528 27.4938 26.2924 26.8754 25.8589L26.8009 25.8067C26.1618 25.3587 25.3937 25.1261 24.6104 25.1435C23.8271 25.1608 23.0703 25.4272 22.4522 25.903L22.0244 26.2324L22.0541 33.8519C22.0638 36.3372 24.1293 38.3628 26.6441 38.3532Z" fill="#00F0AC"/>
<path d="M26.625 38.7044C25.3225 38.7007 24.0741 38.1891 23.1514 37.2806C22.2287 36.3721 21.7062 35.1404 21.6977 33.8532L21.668 26.2337C21.6678 26.18 21.68 26.127 21.7037 26.0788C21.7275 26.0305 21.7621 25.9883 21.8049 25.9553L22.2327 25.626C22.9111 25.1037 23.7417 24.8114 24.6013 24.7924C25.461 24.7733 26.304 25.0286 27.0053 25.5202L27.0798 25.5724C27.6459 25.9697 28.3101 26.2083 29.0022 26.2629C29.6943 26.3175 30.3884 26.186 31.0111 25.8825C31.0651 25.8562 31.1251 25.8439 31.1853 25.8468C31.2455 25.8497 31.304 25.8676 31.3552 25.899C31.4064 25.9304 31.4488 25.9741 31.4782 26.0261C31.5076 26.0781 31.5232 26.1366 31.5234 26.1962L31.5531 33.8157C31.5546 35.1062 31.0391 36.3448 30.1193 37.2609C29.1995 38.1769 27.9502 38.6958 26.6444 38.7043C26.6379 38.7044 26.6314 38.7044 26.625 38.7044ZM22.3793 26.4034L22.4083 33.8505C22.4161 34.9519 22.8634 36.0057 23.653 36.7831C24.4425 37.5604 25.5106 37.9985 26.625 38.0021C26.6306 38.0021 26.6361 38.0021 26.6416 38.002C27.7589 37.9943 28.8278 37.55 29.6148 36.7662C30.4019 35.9824 30.8432 34.9227 30.8424 33.8184L30.8148 26.7241C30.1272 26.9621 29.3919 27.0338 28.6705 26.933C27.9491 26.8323 27.2626 26.5622 26.6686 26.1452L26.5942 26.093C26.0187 25.6856 25.3249 25.4739 24.6171 25.4896C23.9094 25.5053 23.2259 25.7475 22.6695 26.18L22.3793 26.4034Z" fill="#452E63"/>
<path d="M28.8051 26.9502L28.8354 34.7077C28.8429 35.686 28.682 36.6585 28.3594 37.5835C29.8263 36.9261 30.845 35.4771 30.8384 33.803L30.8109 26.7418C30.1652 26.9526 29.4811 27.0237 28.8051 26.9502Z" fill="#00D6A1"/>
<path d="M26.6287 35.6097C24.3103 35.6185 22.4062 33.7906 22.3975 31.5476L22.4067 33.9128C22.4154 36.1558 24.3195 37.9838 26.6379 37.9749C28.9563 37.9661 30.846 36.1237 30.8373 33.8807L30.8281 31.5155C30.8368 33.7585 28.9471 35.6009 26.6287 35.6097Z" fill="#8AFF99"/>
<path d="M28.8324 34.9709C28.8141 35.8652 28.6532 36.751 28.3555 37.5956C29.7964 36.943 30.799 35.5188 30.7926 33.8808L30.7834 31.5156C30.789 32.9622 30.0076 34.242 28.8324 34.9709Z" fill="#75F08C"/>
<path d="M30.3352 16.2616L32.0584 16.2551C32.1994 16.2541 32.3344 16.198 32.4337 16.0991C32.5331 16.0001 32.5888 15.8664 32.5887 15.7269C32.5877 15.5875 32.531 15.4542 32.4308 15.356C32.3307 15.2578 32.1953 15.2028 32.0543 15.2029L30.3311 15.2094C30.19 15.2104 30.0551 15.2665 29.9557 15.3654C29.8564 15.4644 29.8007 15.5982 29.8008 15.7376C29.8017 15.877 29.8585 16.0103 29.9586 16.1085C30.0587 16.2067 30.1941 16.2618 30.3352 16.2616Z" fill="#99E0FA"/>
<path d="M21.1604 16.2616L22.8836 16.2551C23.0246 16.2541 23.1596 16.198 23.2589 16.0991C23.3583 16.0001 23.414 15.8664 23.4138 15.7269C23.4129 15.5875 23.3561 15.4542 23.256 15.356C23.1559 15.2578 23.0205 15.2028 22.8795 15.2029L21.1563 15.2094C21.0152 15.2104 20.8803 15.2665 20.7809 15.3654C20.6815 15.4644 20.6258 15.5982 20.626 15.7376C20.6269 15.877 20.6837 16.0103 20.7838 16.1085C20.8839 16.2067 21.0193 16.2618 21.1604 16.2616Z" fill="white"/>
<path d="M24.2052 26.7658L24.238 26.7656C24.3439 26.7652 24.4487 26.7854 24.5466 26.8251C24.6446 26.8647 24.7336 26.9231 24.8087 26.9967C24.8838 27.0704 24.9435 27.158 24.9844 27.2544C25.0253 27.3509 25.0465 27.4544 25.0469 27.5589L25.0681 33.0538C25.0685 33.1584 25.0481 33.262 25.008 33.3587C24.9678 33.4555 24.9088 33.5435 24.8343 33.6177C24.7598 33.692 24.6712 33.7509 24.5736 33.7913C24.476 33.8317 24.3713 33.8527 24.2654 33.8531L24.2326 33.8532C24.1267 33.8536 24.0219 33.8334 23.924 33.7938C23.826 33.7541 23.737 33.6958 23.6619 33.6221C23.5868 33.5485 23.5271 33.4609 23.4862 33.3644C23.4453 33.268 23.4241 33.1645 23.4237 33.0599L23.4025 27.5651C23.4017 27.3539 23.4858 27.151 23.6363 27.0011C23.7868 26.8512 23.9915 26.7666 24.2052 26.7658Z" fill="#00FFB7"/>
<path d="M24.8769 29.3015C25.3798 29.2598 25.7532 28.8231 25.7109 28.3261C25.6687 27.8291 25.2268 27.4601 24.724 27.5018C24.2211 27.5436 23.8477 27.9803 23.8899 28.4772C23.9322 28.9742 24.374 29.3432 24.8769 29.3015Z" fill="#00D6A1"/>
<path d="M26.5331 24.388C27.036 24.3463 27.4094 23.9096 27.3672 23.4127C27.325 22.9157 26.8831 22.5467 26.3802 22.5884C25.8774 22.6301 25.504 23.0668 25.5462 23.5638C25.5884 24.0607 26.0303 24.4298 26.5331 24.388Z" fill="#00F0AC"/>
<path d="M24.5478 19.7632C25.0507 19.7214 25.4241 19.2847 25.3818 18.7878C25.3396 18.2908 24.8977 17.9218 24.3949 17.9635C23.892 18.0052 23.5186 18.4419 23.5608 18.9389C23.6031 19.4358 24.0449 19.8049 24.5478 19.7632Z" fill="#00F0AC"/>
<path d="M27.2572 23.0518C27.1779 22.9099 27.0615 22.7916 26.92 22.7095C26.7786 22.6274 26.6173 22.5844 26.4533 22.5851C26.2892 22.5858 26.1284 22.6301 25.9876 22.7134C25.8469 22.7966 25.7314 22.9158 25.6533 23.0584L27.2572 23.0518Z" fill="#00D6A1"/>
<path d="M25.3073 19.226L23.6367 19.2328C23.7091 19.3923 23.8267 19.5277 23.9754 19.6224C24.1241 19.7171 24.2974 19.7671 24.4742 19.7664C24.6511 19.7657 24.824 19.7142 24.9719 19.6183C25.1197 19.5223 25.2362 19.3861 25.3073 19.226Z" fill="#00D6A1"/>
<path d="M24.468 17.9605C24.3039 17.961 24.1431 18.0052 24.0023 18.0885C23.8616 18.1717 23.7461 18.2908 23.668 18.4333L25.2714 18.4268C25.1921 18.2849 25.0757 18.1668 24.9343 18.0848C24.793 18.0027 24.6319 17.9598 24.468 17.9605Z" fill="#00D6A1"/>
<path d="M28.2226 15.6919C28.7255 15.6501 29.0989 15.2134 29.0567 14.7165C29.0144 14.2195 28.5725 13.8505 28.0697 13.8922C27.5668 13.9339 27.1934 14.3706 27.2356 14.8676C27.2779 15.3646 27.7197 15.7336 28.2226 15.6919Z" fill="#00F0AC"/>
<path d="M27.7195 32.7721C27.9108 32.3907 27.7531 31.9283 27.3672 31.7392C26.9813 31.5501 26.5133 31.706 26.322 32.0874C26.1307 32.4688 26.2884 32.9312 26.6743 33.1203C27.0602 33.3094 27.5282 33.1535 27.7195 32.7721Z" fill="#00D6A1"/>
<path d="M25.4121 30.6971C25.4819 30.7655 25.5296 30.8529 25.5491 30.9482C25.5687 31.0434 25.5592 31.1423 25.5219 31.2322C25.4847 31.3222 25.4212 31.3992 25.3396 31.4535C25.2581 31.5078 25.162 31.537 25.0637 31.5374C24.9653 31.5378 24.8691 31.5093 24.7871 31.4556C24.7051 31.4019 24.641 31.3254 24.603 31.2357C24.5651 31.1461 24.5548 31.0473 24.5736 30.9519C24.5925 30.8565 24.6395 30.7687 24.7088 30.6997C24.8017 30.6072 24.928 30.5549 25.0598 30.5544C25.1917 30.5539 25.3184 30.6052 25.4121 30.6971Z" fill="#00D6A1"/>
<path d="M27.9746 28.7849C28.0444 28.8534 28.0921 28.9408 28.1116 29.0361C28.1312 29.1313 28.1217 29.2302 28.0844 29.3201C28.0471 29.4101 27.9837 29.4871 27.9021 29.5414C27.8206 29.5957 27.7245 29.6249 27.6262 29.6253C27.5278 29.6256 27.4316 29.5972 27.3496 29.5435C27.2676 29.4898 27.2035 29.4133 27.1655 29.3236C27.1276 29.234 27.1173 29.1352 27.1361 29.0398C27.155 28.9444 27.202 28.8566 27.2713 28.7876C27.3173 28.7418 27.3719 28.7054 27.4322 28.6805C27.4924 28.6555 27.557 28.6426 27.6223 28.6423C27.6877 28.6421 27.7524 28.6546 27.8128 28.679C27.8732 28.7035 27.9282 28.7395 27.9746 28.7849Z" fill="#00D6A1"/>
<path d="M28.9218 17.4755C28.9916 17.544 29.0393 17.6314 29.0589 17.7266C29.0785 17.8219 29.069 17.9207 29.0317 18.0107C28.9944 18.1006 28.931 18.1776 28.8494 18.2319C28.7678 18.2863 28.6718 18.3155 28.5734 18.3158C28.4751 18.3162 28.3788 18.2877 28.2968 18.2341C28.2148 18.1804 28.1508 18.1038 28.1128 18.0142C28.0748 17.9245 28.0646 17.8257 28.0834 17.7303C28.1022 17.6349 28.1492 17.5472 28.2185 17.4782C28.2645 17.4324 28.3192 17.396 28.3794 17.371C28.4397 17.3461 28.5043 17.3331 28.5696 17.3329C28.6349 17.3326 28.6996 17.3451 28.7601 17.3696C28.8205 17.394 28.8755 17.43 28.9218 17.4755Z" fill="#00D6A1"/>
<path d="M26.3954 15.5087C26.4653 15.5772 26.513 15.6646 26.5325 15.7598C26.5521 15.8551 26.5426 15.9539 26.5053 16.0439C26.4681 16.1338 26.4046 16.2108 26.323 16.2652C26.2415 16.3195 26.1454 16.3487 26.0471 16.349C25.9487 16.3494 25.8525 16.3209 25.7705 16.2673C25.6885 16.2136 25.6244 16.137 25.5864 16.0474C25.5485 15.9577 25.5382 15.8589 25.557 15.7635C25.5759 15.6681 25.6229 15.5804 25.6922 15.5114C25.7382 15.4656 25.7928 15.4292 25.8531 15.4042C25.9133 15.3793 25.9779 15.3663 26.0432 15.3661C26.1085 15.3658 26.1733 15.3783 26.2337 15.4028C26.2941 15.4272 26.3491 15.4632 26.3954 15.5087Z" fill="#00F0AC"/>
<path d="M24.7088 30.6997C24.6395 30.7687 24.5925 30.8565 24.5736 30.9519C24.5548 31.0473 24.5651 31.1461 24.603 31.2357C24.641 31.3254 24.7051 31.4019 24.7871 31.4556C24.8691 31.5093 24.9653 31.5378 25.0637 31.5374L25.0598 30.5544C24.9945 30.5546 24.9299 30.5675 24.8696 30.5925C24.8094 30.6174 24.7547 30.6539 24.7088 30.6997Z" fill="#00F0AC"/>
<path d="M23.8877 28.4051C23.8882 28.5448 23.9215 28.6824 23.985 28.8072C24.0485 28.932 24.1404 29.0406 24.2535 29.1243C24.3666 29.2081 24.4978 29.2647 24.6368 29.2899C24.7758 29.315 24.9189 29.308 25.0546 29.2692L25.048 27.5751C25.048 27.5606 25.0475 27.5462 25.0467 27.5318C24.9106 27.4944 24.7677 27.4885 24.629 27.5149C24.4903 27.5412 24.3597 27.5989 24.2474 27.6835C24.135 27.7682 24.0441 27.8774 23.9817 28.0026C23.9193 28.1278 23.8871 28.2656 23.8877 28.4051Z" fill="#00F0AC"/>
<g opacity="0.5">
<path d="M26.6404 35.8075C25.5213 35.8075 24.5538 36.3529 24.0908 37.1452C24.8239 37.7131 25.7294 38.0199 26.6609 38.016C27.5787 38.0129 28.4695 37.7082 29.1928 37.1498C28.7309 36.355 27.7617 35.8075 26.6404 35.8075Z" fill="#FFB842"/>
</g>
<path d="M21.2156 17.639C20.7191 17.6385 20.2429 17.4438 19.8912 17.0974C19.5394 16.7511 19.3406 16.2813 19.3381 15.7906L19.3379 15.7292C19.3372 15.2374 19.5335 14.7654 19.884 14.4163C20.2345 14.0673 20.7106 13.8696 21.2082 13.8665L31.9981 13.8255C32.0005 13.8255 32.003 13.8254 32.0054 13.8254C32.5019 13.826 32.9781 14.0207 33.3298 14.367C33.6816 14.7134 33.8805 15.1832 33.8829 15.6739L33.8832 15.7352C33.8839 16.227 33.6876 16.699 33.3371 17.0481C32.9866 17.3972 32.5104 17.5949 32.0128 17.598L21.2229 17.639C21.2205 17.639 21.218 17.639 21.2156 17.639ZM32.0054 14.5277L32.0008 14.5277L21.211 14.5688C20.9018 14.5712 20.6062 14.6942 20.3884 14.911C20.1707 15.1279 20.0485 15.421 20.0485 15.7265L20.0487 15.788C20.0511 16.0927 20.175 16.3842 20.3934 16.5992C20.6119 16.8143 20.9073 16.9356 21.2156 16.9367L21.2202 16.9367L32.0101 16.8957C32.3192 16.8933 32.6149 16.7703 32.8326 16.5535C33.0504 16.3366 33.1726 16.0435 33.1725 15.738L33.1723 15.6766C33.1708 15.3716 33.0472 15.0796 32.8285 14.8644C32.6099 14.6491 32.314 14.5281 32.0054 14.5277Z" fill="#452E63"/>
<path d="M12.3244 52.5399L36.3227 52.4486C36.6088 52.4467 36.8825 52.3329 37.0841 52.1322C37.2856 51.9315 37.3986 51.6602 37.3983 51.3774L37.398 51.3062C37.3936 50.6648 37.1325 50.0511 36.6718 49.5992C36.211 49.1474 35.588 48.8941 34.9389 48.8947L13.6805 48.9756C13.0314 48.9799 12.4104 49.238 11.9532 49.6933C11.4959 50.1487 11.2396 50.7643 11.2402 51.4058L11.2405 51.477C11.2425 51.7597 11.3575 52.0302 11.5606 52.2294C11.7637 52.4286 12.0383 52.5402 12.3244 52.5399Z" fill="#1389A5"/>
<path d="M12.321 52.8909C11.9416 52.8901 11.5779 52.7411 11.3092 52.4765C11.0404 52.2119 10.8883 51.8531 10.886 51.4782L10.8857 51.4069C10.8848 50.6723 11.1782 49.9672 11.7018 49.4458C12.2254 48.9243 12.9366 48.629 13.6799 48.6243L34.9384 48.5433H34.9494C35.6908 48.5453 36.4015 48.8365 36.9267 49.3536C37.452 49.8708 37.7494 50.572 37.7541 51.3047L37.7544 51.3758C37.7555 51.7518 37.6055 52.1129 37.3375 52.3798C37.0695 52.6467 36.7054 52.7977 36.3249 52.7996L12.3266 52.8909H12.321ZM34.9493 49.2456H34.9411L13.6826 49.3266C13.1278 49.3306 12.597 49.5512 12.2062 49.9405C11.8154 50.3297 11.5962 50.8559 11.5964 51.4043L11.5966 51.4755C11.5982 51.6646 11.6751 51.8455 11.8107 51.979C11.9463 52.1125 12.1297 52.1878 12.321 52.1886H12.3239L36.3221 52.0973C36.5142 52.0963 36.6981 52.0201 36.8334 51.8854C36.9686 51.7507 37.0443 51.5684 37.0438 51.3786L37.0435 51.3075C37.0395 50.7605 36.8173 50.2372 36.4252 49.8512C36.0331 49.4651 35.5028 49.2475 34.9493 49.2456Z" fill="#452E63"/>
<path d="M36.7601 50.409C36.5822 50.0708 36.3136 49.7876 35.9837 49.5903C35.6538 49.393 35.2753 49.2892 34.8897 49.2903L13.7312 49.3708C13.1745 49.3736 12.6417 49.5944 12.2496 49.9849C11.8575 50.3754 11.6381 50.9036 11.6397 51.4538C11.6406 51.6376 11.7153 51.8136 11.8473 51.9431C11.9794 52.0726 12.158 52.1451 12.3441 52.1446L13.1065 52.1417C13.2778 51.6603 13.5953 51.243 14.0156 50.9466C14.4359 50.6502 14.9385 50.4892 15.4548 50.4857L36.6134 50.4051C36.6626 50.4049 36.7115 50.4063 36.7601 50.409Z" fill="#189BC4"/>
<path d="M12.2042 22.0715L31.7262 21.9972C32.0123 21.9952 32.2861 21.8815 32.4876 21.6808C32.6891 21.4801 32.8021 21.2087 32.8018 20.926L32.8017 20.8824C32.7997 20.5997 32.6846 20.3292 32.4815 20.13C32.2785 19.9308 32.0039 19.8192 31.7178 19.8195L12.1957 19.8938C11.9096 19.8957 11.6359 20.0094 11.4344 20.2101C11.2328 20.4108 11.1199 20.6822 11.1201 20.965L11.1203 21.0085C11.1222 21.2912 11.2373 21.5617 11.4404 21.7609C11.6435 21.9601 11.9181 22.0717 12.2042 22.0715Z" fill="#189BC4"/>
<path d="M12.2007 22.4226C11.8214 22.4217 11.4577 22.2727 11.1889 22.0081C10.9202 21.7435 10.7681 21.3847 10.7658 21.0098L10.7656 20.9662C10.765 20.5903 10.9151 20.2295 11.183 19.9627C11.4509 19.6959 11.8148 19.5449 12.1952 19.5426L31.7172 19.4683H31.7228C32.1023 19.4687 32.4662 19.6175 32.7351 19.8822C33.0039 20.1469 33.1559 20.506 33.1578 20.881L33.158 20.9246C33.1586 21.3005 33.0085 21.6613 32.7406 21.9281C32.4727 22.1949 32.1087 22.346 31.7284 22.3482L12.2064 22.4226H12.2007ZM12.2036 21.7203L31.7257 21.646C31.9176 21.6444 32.1011 21.568 32.2362 21.4334C32.3714 21.2988 32.4472 21.1169 32.4473 20.9273L32.4472 20.8837C32.4462 20.6943 32.3695 20.5131 32.2338 20.3795C32.098 20.2459 31.9143 20.1708 31.7228 20.1706H31.72L12.1979 20.2449C12.006 20.2464 11.8225 20.3228 11.6874 20.4574C11.5522 20.592 11.4763 20.7739 11.4763 20.9636L11.4764 21.0071C11.478 21.1963 11.5549 21.3772 11.6905 21.5106C11.8261 21.6441 12.0094 21.7194 12.2008 21.7203H12.2036Z" fill="#452E63"/>
<path d="M11.5215 20.985C11.5224 21.1689 11.5971 21.3448 11.7292 21.4743C11.8612 21.6039 12.0399 21.6763 12.2259 21.6758L31.7039 21.6017C31.8899 21.6007 32.068 21.5269 32.1991 21.3964C32.3301 21.2659 32.4034 21.0894 32.4029 20.9055L11.5215 20.985Z" fill="#1389A5"/>
<path d="M17.2605 48.8705L17.1371 17.2208C17.1352 16.9381 17.0201 16.6676 16.817 16.4684C16.6139 16.2692 16.3394 16.1576 16.0532 16.1578L16.0092 16.158C15.7231 16.1599 15.4494 16.2737 15.2478 16.4744C15.0463 16.6751 14.9333 16.9464 14.9336 17.2292L15.057 48.8789L17.2605 48.8705Z" fill="#99B3E0"/>
<path d="M15.0568 49.2302C14.9628 49.2302 14.8726 49.1933 14.806 49.1278C14.7394 49.0622 14.7018 48.9733 14.7015 48.8804L14.5781 17.2306C14.5775 16.8547 14.7276 16.4939 14.9955 16.2271C15.2634 15.9603 15.6273 15.8092 16.0077 15.8069L16.0518 15.8068H16.0574C16.4368 15.8076 16.8004 15.9566 17.0692 16.2212C17.3379 16.4858 17.49 16.8446 17.4923 17.2195L17.6157 48.8693C17.6159 48.9154 17.6068 48.9611 17.5892 49.0037C17.5715 49.0464 17.5454 49.0852 17.5126 49.118C17.4797 49.1507 17.4406 49.1767 17.3976 49.1945C17.3546 49.2123 17.3084 49.2216 17.2617 49.2218L15.0582 49.2302H15.0568ZM16.0573 16.5091H16.0545L16.0104 16.5092C15.8185 16.5108 15.635 16.5872 15.4999 16.7218C15.3647 16.8564 15.2888 17.0383 15.2888 17.2279L15.4107 48.5265L16.9037 48.5208L16.7817 17.2222C16.7801 17.0331 16.7032 16.8522 16.5676 16.7187C16.432 16.5852 16.2487 16.5099 16.0573 16.5091Z" fill="#452E63"/>
<path d="M16.1879 48.4351L16.0665 17.2862C16.0658 17.1877 16.0257 17.0935 15.9549 17.0241C15.8842 16.9547 15.7885 16.9158 15.6889 16.9159L15.6735 16.916C15.5739 16.9166 15.4785 16.9562 15.4083 17.0262C15.3381 17.0961 15.2987 17.1906 15.2988 17.2891L15.4202 48.438L16.1879 48.4351Z" fill="#B6CCF2"/>
<path d="M18.7667 20.988C18.7779 19.5054 17.5709 18.2945 16.0707 18.2833C14.5704 18.2722 13.3451 19.4651 13.3339 20.9477C13.3226 22.4303 14.5296 23.6412 16.0299 23.6524C17.5301 23.6635 18.7554 22.4706 18.7667 20.988Z" fill="#D4203E"/>
<path d="M16.0499 24.0037C15.2363 24.0036 14.4559 23.6845 13.8801 23.1164C13.3043 22.5484 12.98 21.7777 12.9785 20.9737C12.977 20.1696 13.2983 19.3978 13.872 18.8276C14.4457 18.2574 15.2248 17.9354 16.0384 17.9323C16.0425 17.9323 16.0466 17.9323 16.0506 17.9323C16.8632 17.9323 17.6426 18.2506 18.2183 18.8174C18.7939 19.3842 19.1189 20.1533 19.122 20.9563C19.1251 21.7614 18.8045 22.5348 18.2307 23.1063C17.6568 23.6778 16.8767 24.0006 16.0621 24.0037C16.0581 24.0037 16.0539 24.0037 16.0499 24.0037ZM16.0505 18.6345C16.0474 18.6345 16.0443 18.6345 16.0411 18.6346C15.4158 18.637 14.8169 18.8845 14.376 19.3228C13.935 19.761 13.688 20.3543 13.6892 20.9723C13.6904 21.5904 13.9396 22.1827 14.3822 22.6194C14.8248 23.056 15.4246 23.3013 16.05 23.3014C16.0531 23.3014 16.0562 23.3014 16.0593 23.3014C16.6855 23.299 17.2851 23.0509 17.7262 22.6116C18.1673 22.1723 18.4138 21.5778 18.4114 20.959C18.409 20.3417 18.1592 19.7506 17.7167 19.3149C17.2742 18.8793 16.6751 18.6346 16.0505 18.6345Z" fill="#452E63"/>
<path d="M16.1622 22.5931C17.2242 22.4359 17.9562 21.4575 17.7971 20.408C17.638 19.3584 16.6481 18.6351 15.586 18.7923C14.524 18.9496 13.7921 19.9279 13.9512 20.9774C14.1103 22.027 15.1002 22.7503 16.1622 22.5931Z" fill="#F23F3F"/>
<path d="M15.8032 21.4127C16.3391 21.1278 16.5399 20.4676 16.2516 19.9379C15.9634 19.4083 15.2953 19.2099 14.7594 19.4947C14.2235 19.7796 14.0227 20.4398 14.3109 20.9695C14.5992 21.4991 15.2673 21.6975 15.8032 21.4127Z" fill="#FF494B"/>
<path d="M28.4857 48.919L24.8751 48.9328C24.5888 48.9339 24.3137 48.8225 24.1104 48.6231C23.9072 48.4238 23.7923 48.1528 23.7912 47.8698L23.7911 47.8263C23.79 47.5433 23.9027 47.2714 24.1044 47.0705C24.3061 46.8696 24.5803 46.7562 24.8667 46.7551L28.4772 46.7413C28.7636 46.7402 29.0386 46.8516 29.2419 47.051C29.4452 47.2503 29.56 47.5213 29.5611 47.8043L29.5613 47.8478C29.5624 48.1308 29.4497 48.4027 29.248 48.6036C29.0462 48.8045 28.772 48.9179 28.4857 48.919Z" fill="#AFE6FA"/>
<path d="M24.8697 49.284C24.4903 49.2832 24.1266 49.1342 23.8579 48.8696C23.5891 48.605 23.437 48.2461 23.4347 47.8712L23.4346 47.8276C23.434 47.4518 23.584 47.091 23.8519 46.8242C24.1198 46.5574 24.4838 46.4063 24.8641 46.404L28.4746 46.3903H28.4803C28.8596 46.3911 29.2233 46.5401 29.4921 46.8047C29.7608 47.0693 29.9129 47.4281 29.9152 47.803L29.9154 47.8466C29.9164 48.2226 29.7665 48.5837 29.4985 48.8506C29.2305 49.1175 28.8664 49.2684 28.4859 49.2703L24.8754 49.284H24.8697ZM28.4802 47.0925H28.4774L24.8669 47.1063C24.675 47.1079 24.4915 47.1843 24.3564 47.3189C24.2212 47.4535 24.1453 47.6354 24.1452 47.825L24.1454 47.8686C24.1463 48.0579 24.223 48.2392 24.3588 48.3728C24.4945 48.5064 24.6782 48.5815 24.8698 48.5817H24.8726L28.4831 48.568C28.6752 48.567 28.859 48.4908 28.9943 48.3561C29.1296 48.2214 29.2053 48.0391 29.2048 47.8493L29.2046 47.8057C29.203 47.6166 29.1261 47.4357 28.9905 47.3022C28.8549 47.1687 28.6716 47.0934 28.4802 47.0925Z" fill="#452E63"/>
<path d="M25.05 48.3694L26.7732 48.3628C26.9143 48.3619 27.0492 48.3058 27.1486 48.2069C27.2479 48.1079 27.3036 47.9741 27.3035 47.8347C27.3025 47.6953 27.2458 47.562 27.1457 47.4638C27.0455 47.3656 26.9102 47.3105 26.7691 47.3107L25.0459 47.3172C24.9049 47.3182 24.7699 47.3742 24.6706 47.4732C24.5712 47.5721 24.5155 47.7059 24.5156 47.8453C24.5166 47.9847 24.5733 48.1181 24.6734 48.2163C24.7736 48.3145 24.909 48.3695 25.05 48.3694Z" fill="#D4F0FA"/>
<path d="M26.6629 46.6645C26.05 46.6633 25.4624 46.4227 25.0282 45.9951C24.5939 45.5676 24.3483 44.9878 24.3447 44.3821C24.3402 43.2282 26.1553 40.75 26.3623 40.4713C26.3951 40.427 26.4381 40.391 26.4876 40.3661C26.5371 40.3412 26.5918 40.3281 26.6474 40.3279H26.6487C26.7041 40.3279 26.7586 40.3407 26.8081 40.3652C26.8575 40.3897 26.9005 40.4253 26.9336 40.4691C27.1427 40.7463 28.9771 43.2105 28.9816 44.3644C28.9828 44.6653 28.924 44.9635 28.8085 45.2419C28.6931 45.5203 28.5233 45.7736 28.3089 45.9872C28.0944 46.2007 27.8395 46.3705 27.5586 46.4867C27.2778 46.6029 26.9765 46.6633 26.6721 46.6645L26.6629 46.6645Z" fill="#FFB842"/>
<path d="M28.2389 41.7505C27.7347 40.9463 27.2382 40.2867 27.2173 40.259C27.1511 40.1714 27.0652 40.1002 26.9663 40.0511C26.8674 40.0021 26.7583 39.9766 26.6476 39.9766H26.6449C26.5338 39.977 26.4243 40.0032 26.3253 40.053C26.2262 40.1028 26.1404 40.1748 26.0747 40.2634C26.054 40.2912 25.5626 40.9546 25.0648 41.7626C24.0969 43.3334 23.9868 44.0106 23.9883 44.3832C23.9924 45.0818 24.2757 45.7505 24.7765 46.2436C25.2773 46.7366 25.955 47.0141 26.6619 47.0154L26.6723 47.0154C27.0234 47.0141 27.3708 46.9444 27.6947 46.8104C28.0186 46.6764 28.3126 46.4806 28.5599 46.2343C28.8073 45.988 29.0031 45.6959 29.1362 45.3748C29.2693 45.0537 29.3371 44.7099 29.3358 44.3629C29.3343 43.9902 29.219 43.3139 28.2389 41.7505ZM26.6696 46.3131C26.667 46.3132 26.6644 46.3132 26.6619 46.3132C26.1426 46.3131 25.6444 46.1097 25.2765 45.7475C24.9086 45.3853 24.7009 44.8938 24.6989 44.3805C24.6947 43.3091 26.6476 40.6789 26.6476 40.6789C26.6476 40.6789 28.621 43.2941 28.6251 44.3656C28.6261 44.6204 28.5763 44.8728 28.4786 45.1086C28.3809 45.3444 28.2371 45.5588 28.0555 45.7396C27.8739 45.9205 27.6581 46.0642 27.4203 46.1626C27.1825 46.261 26.9274 46.3122 26.6696 46.3131Z" fill="#452E63"/>
<path d="M25.6846 45.347C25.6856 45.6042 25.7899 45.8506 25.9747 46.0318C26.0662 46.1215 26.1747 46.1926 26.294 46.2409C26.4133 46.2892 26.541 46.3138 26.6699 46.3133C26.7988 46.3128 26.9264 46.2872 27.0453 46.238C27.1642 46.1888 27.2721 46.1169 27.3629 46.0265C27.4537 45.9361 27.5256 45.8289 27.5744 45.711C27.6233 45.5931 27.6482 45.4669 27.6477 45.3395C27.6456 44.8038 26.6557 42.6671 26.6557 42.6671C26.6557 42.6671 25.6825 44.8112 25.6846 45.347Z" fill="#FF9933"/>
<path d="M27.6395 9.21689C27.9404 8.58156 27.6631 7.82546 27.0203 7.5281C26.3774 7.23073 25.6123 7.50471 25.3114 8.14004C25.0105 8.77537 25.2878 9.53147 25.9306 9.82883C26.5735 10.1262 27.3386 9.85222 27.6395 9.21689Z" fill="#00F0AC"/>
<path d="M30.6418 7.55841C31.1462 7.5424 31.542 7.12534 31.5258 6.62689C31.5095 6.12843 31.0875 5.73734 30.5832 5.75335C30.0788 5.76937 29.6831 6.18642 29.6993 6.68488C29.7155 7.18333 30.1375 7.57442 30.6418 7.55841Z" fill="#75F08C"/>
<path d="M23.9696 12.4526C24.4738 12.4302 24.864 12.0081 24.8413 11.5099C24.8186 11.0117 24.3915 10.626 23.8874 10.6484C23.3833 10.6709 22.993 11.093 23.0157 11.5912C23.0384 12.0894 23.4655 12.475 23.9696 12.4526Z" fill="#00D6A1"/>
<path d="M22.7309 7.55189C22.8997 7.0819 22.6509 6.56569 22.1753 6.39892C21.6998 6.23214 21.1774 6.47795 21.0087 6.94795C20.8399 7.41794 21.0887 7.93415 21.5642 8.10092C22.0398 8.2677 22.5621 8.02189 22.7309 7.55189Z" fill="#75F08C"/>
<path d="M29.6972 11.902C29.767 11.9705 29.8147 12.0579 29.8343 12.1531C29.8539 12.2484 29.8444 12.3473 29.8071 12.4372C29.7698 12.5271 29.7064 12.6041 29.6248 12.6585C29.5432 12.7128 29.4472 12.742 29.3488 12.7423C29.2505 12.7427 29.1542 12.7143 29.0722 12.6606C28.9902 12.6069 28.9262 12.5304 28.8882 12.4407C28.8502 12.351 28.84 12.2523 28.8588 12.1568C28.8776 12.0614 28.9246 11.9737 28.9939 11.9047C29.0399 11.8589 29.0946 11.8225 29.1548 11.7975C29.2151 11.7726 29.2797 11.7597 29.345 11.7594C29.4103 11.7592 29.475 11.7716 29.5355 11.7961C29.5959 11.8206 29.6509 11.8566 29.6972 11.902Z" fill="#00D6A1"/>
<path d="M26.9122 5.64683C26.9702 5.40414 26.8181 5.16097 26.5725 5.10368C26.327 5.04639 26.0809 5.19668 26.0229 5.43936C25.965 5.68205 26.117 5.92523 26.3626 5.98252C26.6082 6.03981 26.8542 5.88951 26.9122 5.64683Z" fill="#8AFF99"/>
<path d="M29.9942 2.64683C30.0522 2.40414 29.9001 2.16097 29.6546 2.10368C29.409 2.04639 29.1629 2.19668 29.105 2.43936C29.047 2.68205 29.1991 2.92523 29.4446 2.98252C29.6902 3.03981 29.9363 2.88951 29.9942 2.64683Z" fill="#8AFF99"/>
<path d="M22.1013 6.3761C22.2167 6.52551 22.282 6.70679 22.2882 6.89465C22.2944 7.08252 22.2411 7.26761 22.1358 7.42413C22.0305 7.58065 21.8784 7.70079 21.7007 7.76782C21.523 7.83484 21.3286 7.8454 21.1445 7.79803C21.2329 7.91232 21.3476 8.0041 21.4791 8.06572C21.6106 8.12735 21.7551 8.15704 21.9005 8.15232C22.046 8.14761 22.1882 8.10862 22.3153 8.03861C22.4425 7.9686 22.5508 7.86959 22.6314 7.74982C22.712 7.63005 22.7625 7.49299 22.7786 7.35005C22.7948 7.20711 22.7762 7.06243 22.7243 6.92804C22.6724 6.79366 22.5888 6.67346 22.4805 6.57745C22.3721 6.48145 22.2421 6.41241 22.1013 6.3761Z" fill="#00F0AC"/>
<path d="M24.463 10.8176C24.5799 10.994 24.6306 11.2053 24.6063 11.4148C24.5821 11.6242 24.4844 11.8187 24.3303 11.9645C24.1761 12.1102 23.9752 12.1981 23.7623 12.2128C23.5495 12.2275 23.3382 12.1681 23.165 12.0449C23.2385 12.1558 23.3357 12.2494 23.4499 12.319C23.564 12.3886 23.6923 12.4326 23.8256 12.4477C23.9588 12.4628 24.0938 12.4487 24.221 12.4064C24.3481 12.3641 24.4643 12.2947 24.5612 12.203C24.6581 12.1114 24.7334 11.9998 24.7818 11.8761C24.8301 11.7525 24.8503 11.6198 24.841 11.4876C24.8316 11.3553 24.7929 11.2267 24.7276 11.111C24.6622 10.9952 24.5719 10.895 24.463 10.8176Z" fill="#00C494"/>
<path d="M26.6936 5.30459C26.6937 5.38043 26.6745 5.45507 26.6377 5.5216C26.6008 5.58814 26.5476 5.64442 26.483 5.68523C26.4183 5.72605 26.3442 5.75008 26.2677 5.7551C26.1911 5.76012 26.1145 5.74596 26.0449 5.71395C26.073 5.78206 26.1176 5.84235 26.1746 5.88957C26.2317 5.93679 26.2996 5.96951 26.3724 5.98489C26.4452 6.00026 26.5207 5.99782 26.5923 5.97777C26.6639 5.95773 26.7295 5.92069 26.7833 5.86988C26.8371 5.81907 26.8776 5.75603 26.9011 5.68625C26.9247 5.61646 26.9306 5.54205 26.9184 5.46949C26.9062 5.39692 26.8762 5.3284 26.8311 5.26989C26.786 5.21139 26.7271 5.16466 26.6595 5.13379C26.682 5.18799 26.6936 5.24601 26.6936 5.30459Z" fill="#75F08C"/>
<path d="M29.7756 2.30459C29.7757 2.38043 29.7565 2.45507 29.7197 2.5216C29.6829 2.58814 29.6297 2.64442 29.565 2.68523C29.5003 2.72605 29.4263 2.75008 29.3497 2.7551C29.2731 2.76012 29.1965 2.74596 29.127 2.71395C29.1551 2.78206 29.1996 2.84235 29.2567 2.88957C29.3137 2.93679 29.3816 2.96951 29.4544 2.98489C29.5272 3.00026 29.6027 2.99782 29.6743 2.97777C29.7459 2.95773 29.8115 2.92069 29.8653 2.86988C29.9192 2.81907 29.9596 2.75603 29.9831 2.68625C30.0067 2.61646 30.0126 2.54205 30.0004 2.46949C29.9882 2.39692 29.9582 2.3284 29.9131 2.26989C29.868 2.21139 29.8091 2.16466 29.7415 2.13379C29.7641 2.18799 29.7756 2.24601 29.7756 2.30459Z" fill="#75F08C"/>
<path d="M30.6748 5.75525C30.8093 5.87841 30.9032 6.03872 30.9442 6.21532C30.9853 6.39193 30.9716 6.57665 30.905 6.74547C30.8384 6.91429 30.7219 7.0594 30.5707 7.1619C30.4195 7.26441 30.2406 7.31959 30.0573 7.32025C30.0347 7.32033 30.0124 7.31933 29.9902 7.31782C30.0974 7.41601 30.2267 7.48738 30.3675 7.52594C30.5083 7.5645 30.6564 7.56913 30.7994 7.53943C30.9424 7.50973 31.0761 7.44657 31.1892 7.35525C31.3024 7.26394 31.3918 7.14713 31.4498 7.01463C31.5079 6.88213 31.5329 6.7378 31.5229 6.59375C31.5128 6.44971 31.4679 6.31014 31.392 6.18678C31.3161 6.06341 31.2114 5.95984 31.0866 5.88476C30.9618 5.80967 30.8206 5.76526 30.6748 5.75525Z" fill="#00F0AC"/>
<path d="M27.2935 7.86953C27.3847 8.11817 27.3951 8.38875 27.3232 8.64351C27.2513 8.89827 27.1008 9.12448 26.8925 9.29059C26.6843 9.45669 26.4287 9.55439 26.1616 9.57005C25.8944 9.58571 25.629 9.51855 25.4023 9.37794C25.508 9.5363 25.6482 9.66927 25.8126 9.76708C25.9771 9.86489 26.1616 9.92505 26.3527 9.94314C26.5438 9.96124 26.7365 9.93681 26.9168 9.87165C27.097 9.80649 27.2602 9.70225 27.3944 9.56659C27.5285 9.43094 27.6302 9.2673 27.692 9.08771C27.7538 8.90812 27.7741 8.71714 27.7514 8.52878C27.7287 8.34043 27.6636 8.15948 27.5609 7.99924C27.4582 7.839 27.3205 7.70353 27.1579 7.60278C27.2135 7.68613 27.259 7.77567 27.2935 7.86953Z" fill="#00D6A1"/>
<path d="M29.5696 11.8115C29.6116 11.904 29.6236 12.0071 29.604 12.1066C29.5844 12.206 29.5341 12.2971 29.46 12.3672C29.386 12.4374 29.2918 12.4831 29.1903 12.4982C29.0889 12.5133 28.9852 12.497 28.8936 12.4516C28.9261 12.5235 28.9756 12.5867 29.038 12.6357C29.1004 12.6848 29.1738 12.7183 29.252 12.7334C29.3302 12.7486 29.411 12.7449 29.4875 12.7227C29.564 12.7005 29.634 12.6605 29.6915 12.606C29.7491 12.5515 29.7925 12.4841 29.8182 12.4096C29.8439 12.335 29.8511 12.2554 29.8391 12.1775C29.8272 12.0996 29.7965 12.0257 29.7495 11.962C29.7026 11.8983 29.6409 11.8467 29.5696 11.8115Z" fill="#00C494"/>
<path d="M21.6743 7.11347C21.8337 7.11347 21.9629 6.98578 21.9629 6.82828C21.9629 6.67077 21.8337 6.54309 21.6743 6.54309C21.5149 6.54309 21.3857 6.67077 21.3857 6.82828C21.3857 6.98578 21.5149 7.11347 21.6743 7.11347Z" fill="#8AFF99"/>
<path d="M22.7299 7.55201C22.8987 7.08202 22.6499 6.56581 22.1744 6.39904C21.6988 6.23226 21.1765 6.47807 21.0077 6.94807C20.839 7.41807 21.0877 7.93427 21.5633 8.10105C22.0388 8.26782 22.5612 8.02201 22.7299 7.55201Z" fill="#75F08C"/>
<path d="M24.0278 3.45509C24.1965 2.98509 23.9478 2.46889 23.4722 2.30211C22.9966 2.13534 22.4743 2.38115 22.3056 2.85114C22.1368 3.32114 22.3855 3.83735 22.8611 4.00412C23.3367 4.1709 23.859 3.92509 24.0278 3.45509Z" fill="#75F08C"/>
<path d="M22.1013 6.37622C22.2167 6.52564 22.282 6.70691 22.2882 6.89477C22.2944 7.08264 22.2411 7.26773 22.1358 7.42425C22.0305 7.58077 21.8784 7.70092 21.7007 7.76794C21.523 7.83496 21.3286 7.84553 21.1445 7.79815C21.2329 7.91244 21.3476 8.00422 21.4791 8.06585C21.6106 8.12747 21.7551 8.15716 21.9005 8.15244C22.046 8.14773 22.1882 8.10874 22.3153 8.03873C22.4425 7.96872 22.5508 7.86971 22.6314 7.74994C22.712 7.63017 22.7625 7.49312 22.7786 7.35018C22.7948 7.20724 22.7762 7.06255 22.7243 6.92816C22.6724 6.79378 22.5888 6.67358 22.4805 6.57758C22.3721 6.48157 22.2421 6.41254 22.1013 6.37622Z" fill="#00F0AC"/>
<path d="M23.3991 2.2793C23.5145 2.42871 23.5799 2.60999 23.5861 2.79785C23.5923 2.98572 23.539 3.17081 23.4337 3.32733C23.3284 3.48385 23.1763 3.60399 22.9986 3.67102C22.8209 3.73804 22.6264 3.7486 22.4424 3.70123C22.5307 3.81552 22.6454 3.9073 22.7769 3.96892C22.9084 4.03055 23.0529 4.06024 23.1984 4.05552C23.3438 4.0508 23.4861 4.01182 23.6132 3.94181C23.7403 3.87179 23.8487 3.77278 23.9293 3.65302C24.0099 3.53325 24.0603 3.39619 24.0765 3.25325C24.0926 3.11031 24.074 2.96563 24.0221 2.83124C23.9703 2.69685 23.8867 2.57666 23.7783 2.48065C23.67 2.38465 23.5399 2.31561 23.3991 2.2793Z" fill="#00F0AC"/>
<path d="M21.6743 7.11359C21.8337 7.11359 21.9629 6.98591 21.9629 6.8284C21.9629 6.6709 21.8337 6.54321 21.6743 6.54321C21.5149 6.54321 21.3857 6.6709 21.3857 6.8284C21.3857 6.98591 21.5149 7.11359 21.6743 7.11359Z" fill="#8AFF99"/>
<path d="M22.9722 3.01666C23.1315 3.01666 23.2607 2.88898 23.2607 2.73148C23.2607 2.57397 23.1315 2.44629 22.9722 2.44629C22.8128 2.44629 22.6836 2.57397 22.6836 2.73148C22.6836 2.88898 22.8128 3.01666 22.9722 3.01666Z" fill="#8AFF99"/>
<path d="M30.2788 6.65582C30.4382 6.65582 30.5674 6.52814 30.5674 6.37064C30.5674 6.21313 30.4382 6.08545 30.2788 6.08545C30.1194 6.08545 29.9902 6.21313 29.9902 6.37064C29.9902 6.52814 30.1194 6.65582 30.2788 6.65582Z" fill="#8AFF99"/>
<path d="M26.166 8.55836C26.3925 8.55836 26.5762 8.37689 26.5762 8.15302C26.5762 7.92916 26.3925 7.74768 26.166 7.74768C25.9395 7.74768 25.7559 7.92916 25.7559 8.15302C25.7559 8.37689 25.9395 8.55836 26.166 8.55836Z" fill="#23FABD"/>
<path d="M24.0224 11.3766C24.0224 11.4333 24.0054 11.4887 23.9736 11.5358C23.9417 11.583 23.8964 11.6197 23.8434 11.6414C23.7904 11.6631 23.7321 11.6688 23.6758 11.6577C23.6196 11.6466 23.5679 11.6193 23.5273 11.5793C23.4868 11.5392 23.4591 11.4881 23.448 11.4325C23.4368 11.3769 23.4425 11.3193 23.4645 11.2669C23.4864 11.2145 23.5236 11.1698 23.5713 11.1383C23.619 11.1068 23.675 11.09 23.7324 11.09C23.7705 11.09 23.8082 11.0974 23.8434 11.1118C23.8786 11.1262 23.9106 11.1473 23.9375 11.1739C23.9644 11.2005 23.9858 11.2321 24.0004 11.2669C24.0149 11.3017 24.0224 11.3389 24.0224 11.3766Z" fill="#00E0A9"/>
<path d="M29.3467 12.1075C29.3467 12.1359 29.3382 12.1636 29.3222 12.1872C29.3063 12.2107 29.2836 12.2291 29.2571 12.2399C29.2306 12.2508 29.2015 12.2536 29.1734 12.2481C29.1452 12.2426 29.1194 12.2289 29.0991 12.2089C29.0788 12.1888 29.065 12.1633 29.0594 12.1355C29.0538 12.1077 29.0567 12.0789 29.0677 12.0527C29.0787 12.0265 29.0972 12.0041 29.1211 11.9884C29.1449 11.9726 29.173 11.9642 29.2017 11.9642C29.2401 11.9642 29.277 11.9793 29.3042 12.0062C29.3314 12.0331 29.3467 12.0695 29.3467 12.1075Z" fill="#00E0A9"/>
<path d="M26.456 5.39978C26.456 5.42812 26.4475 5.45583 26.4316 5.4794C26.4157 5.50297 26.393 5.52134 26.3665 5.53218C26.34 5.54303 26.3109 5.54587 26.2827 5.54034C26.2546 5.53481 26.2288 5.52116 26.2085 5.50112C26.1882 5.48107 26.1744 5.45554 26.1688 5.42774C26.1632 5.39994 26.1661 5.37112 26.1771 5.34494C26.188 5.31875 26.2066 5.29637 26.2305 5.28062C26.2543 5.26487 26.2824 5.25647 26.311 5.25647C26.3495 5.25647 26.3864 5.27157 26.4136 5.29844C26.4408 5.32532 26.456 5.36177 26.456 5.39978Z" fill="#B0FFBA"/>
<path d="M29.5381 2.39978C29.5381 2.42812 29.5296 2.45583 29.5136 2.4794C29.4977 2.50297 29.4751 2.52134 29.4486 2.53218C29.4221 2.54303 29.3929 2.54587 29.3648 2.54034C29.3366 2.53481 29.3108 2.52116 29.2905 2.50112C29.2702 2.48107 29.2564 2.45554 29.2508 2.42774C29.2452 2.39994 29.2481 2.37112 29.2591 2.34494C29.2701 2.31875 29.2886 2.29637 29.3125 2.28062C29.3363 2.26487 29.3644 2.25647 29.3931 2.25647C29.4315 2.25647 29.4684 2.27157 29.4956 2.29844C29.5228 2.32532 29.5381 2.36177 29.5381 2.39978Z" fill="#B0FFBA"/>
</svg>
