<svg width="54" height="54" viewBox="0 0 54 54" fill="none" xmlns="http://www.w3.org/2000/svg">
<path d="M12.4483 0C8.35172 0 5 3.35172 5 7.44828V44.9746C5.01117 44.9559 5.01676 44.9364 5.02793 44.9187C5.17503 44.6822 5.38545 44.5817 5.60052 44.5649C6.74103 41.9077 9.3861 40.0345 12.4483 40.0345H48.7586V0H12.4483Z" fill="#DD352E"/>
<path d="M12.4483 37.2413C8.35172 37.2413 5 40.5931 5 44.6896C5 48.7862 8.35172 52.1379 12.4483 52.1379H18.9655V44.6896H24.5517V52.1379H48.7586V37.2413H12.4483Z" fill="#F2ECBF"/>
<path d="M12.4487 40.9656C10.3949 40.9656 8.72461 42.6359 8.72461 44.6897C8.72461 46.7436 10.3949 48.4139 12.4487 48.4139H18.966V44.6897H24.5522V48.4139H48.7591V40.9656H12.4487Z" fill="#CCC496"/>
<path d="M18.9659 45.6207H12.4486C11.9347 45.6207 11.5176 45.2046 11.5176 44.6897C11.5176 44.1748 11.9347 43.7587 12.4486 43.7587H18.9659C19.4798 43.7587 19.8969 44.1748 19.8969 44.6897C19.8969 45.2046 19.4798 45.6207 18.9659 45.6207Z" fill="#ADA477"/>
<path d="M30.1383 45.6207H24.5521C24.0382 45.6207 23.6211 45.2046 23.6211 44.6897C23.6211 44.1748 24.0382 43.7587 24.5521 43.7587H30.1383C30.6523 43.7587 31.0694 44.1748 31.0694 44.6897C31.0694 45.2046 30.6523 45.6207 30.1383 45.6207Z" fill="#ADA477"/>
<path d="M11.5172 0.0650635C7.85641 0.527788 5 3.66724 5 7.44817V44.6895C5 40.9086 7.85641 37.7626 11.5172 37.2999V0.0650635Z" fill="#B02721"/>
<path d="M5 13.8353V19.5518C5 15.7709 7.85641 12.6314 11.5172 12.1687V6.45215C7.85641 6.91487 5 10.0543 5 13.8353Z" fill="#911C1C"/>
<path d="M5 28.7968V34.5134C5 30.7324 7.85641 27.593 11.5172 27.1302V21.4137C7.85641 21.8764 5 25.0159 5 28.7968Z" fill="#911C1C"/>
<path d="M24.552 54L21.7589 51.2069L18.9658 54V43.7587H24.552V54Z" fill="#366DB6"/>
<path d="M48.7581 43.7587H44.1029C43.589 43.7587 43.1719 44.1748 43.1719 44.6897C43.1719 45.2046 43.589 45.6207 44.1029 45.6207H48.7581V43.7587Z" fill="#ADA477"/>
<path d="M35.375 10.1841C35.375 6.8268 32.4949 4.1495 29.0951 4.53745C26.5665 4.82593 24.4936 6.88649 24.1723 9.43732C23.9037 11.5654 24.8016 13.4973 26.3064 14.6761C27.115 15.3085 27.6403 16.2407 27.6403 17.2745V18H31.8592V17.3563C31.8592 16.3444 32.2874 15.354 33.0918 14.7521C34.4771 13.7183 35.375 12.0578 35.375 10.1841Z" fill="#EBBA16"/>
<path d="M29.75 21.375C28.5073 21.375 27.5 20.6196 27.5 19.6875V18H32V19.6875C32 20.6196 30.9927 21.375 29.75 21.375Z" fill="#E7ECED"/>
<path d="M29.075 13.5C28.7024 13.5 28.4 13.0977 28.4 12.6C28.4 11.6073 27.7945 10.8 27.05 10.8C26.6774 10.8 26.375 10.3977 26.375 9.9C26.375 9.4023 26.6774 9 27.05 9C28.5391 9 29.75 10.6146 29.75 12.6C29.75 13.0977 29.4476 13.5 29.075 13.5Z" fill="#ED8A19"/>
<path d="M30.425 13.5C30.0524 13.5 29.75 13.0977 29.75 12.6C29.75 10.6146 30.9609 9 32.45 9C32.8226 9 33.125 9.4023 33.125 9.9C33.125 10.3977 32.8226 10.8 32.45 10.8C31.7055 10.8 31.1 11.6073 31.1 12.6C31.1 13.0977 30.7976 13.5 30.425 13.5Z" fill="#ED8A19"/>
<path d="M30.5 16.875H29C28.793 16.875 28.625 16.6236 28.625 16.3125C28.625 16.0014 28.793 15.75 29 15.75H30.5C30.707 15.75 30.875 16.0014 30.875 16.3125C30.875 16.6236 30.707 16.875 30.5 16.875Z" fill="#ED8A19"/>
<path d="M23.4277 31.702C22.5257 31.702 21.7851 31.4893 21.2057 31.064C20.6264 30.6313 20.3147 30.0153 20.2707 29.216H22.5697C22.5917 29.4873 22.6724 29.6853 22.8117 29.81C22.9511 29.9347 23.1307 29.997 23.3507 29.997C23.5487 29.997 23.7101 29.9493 23.8347 29.854C23.9667 29.7513 24.0327 29.612 24.0327 29.436C24.0327 29.2087 23.9264 29.0327 23.7137 28.908C23.5011 28.7833 23.1564 28.644 22.6797 28.49C22.1737 28.3213 21.7631 28.16 21.4477 28.006C21.1397 27.8447 20.8684 27.6137 20.6337 27.313C20.4064 27.005 20.2927 26.6053 20.2927 26.114C20.2927 25.6153 20.4174 25.19 20.6667 24.838C20.9161 24.4787 21.2607 24.2073 21.7007 24.024C22.1407 23.8407 22.6394 23.749 23.1967 23.749C24.0987 23.749 24.8174 23.9617 25.3527 24.387C25.8954 24.805 26.1851 25.3953 26.2217 26.158H23.8787C23.8714 25.9233 23.7981 25.7473 23.6587 25.63C23.5267 25.5127 23.3544 25.454 23.1417 25.454C22.9804 25.454 22.8484 25.5017 22.7457 25.597C22.6431 25.6923 22.5917 25.828 22.5917 26.004C22.5917 26.1507 22.6467 26.279 22.7567 26.389C22.8741 26.4917 23.0171 26.5833 23.1857 26.664C23.3544 26.7373 23.6037 26.8327 23.9337 26.95C24.4251 27.1187 24.8284 27.2873 25.1437 27.456C25.4664 27.6173 25.7414 27.8483 25.9687 28.149C26.2034 28.4423 26.3207 28.8163 26.3207 29.271C26.3207 29.733 26.2034 30.1473 25.9687 30.514C25.7414 30.8807 25.4077 31.1703 24.9677 31.383C24.5351 31.5957 24.0217 31.702 23.4277 31.702ZM30.249 31.702C29.347 31.702 28.6064 31.4893 28.027 31.064C27.4477 30.6313 27.136 30.0153 27.092 29.216H29.391C29.413 29.4873 29.4937 29.6853 29.633 29.81C29.7724 29.9347 29.952 29.997 30.172 29.997C30.37 29.997 30.5314 29.9493 30.656 29.854C30.788 29.7513 30.854 29.612 30.854 29.436C30.854 29.2087 30.7477 29.0327 30.535 28.908C30.3224 28.7833 29.9777 28.644 29.501 28.49C28.995 28.3213 28.5844 28.16 28.269 28.006C27.961 27.8447 27.6897 27.6137 27.455 27.313C27.2277 27.005 27.114 26.6053 27.114 26.114C27.114 25.6153 27.2387 25.19 27.488 24.838C27.7374 24.4787 28.082 24.2073 28.522 24.024C28.962 23.8407 29.4607 23.749 30.018 23.749C30.92 23.749 31.6387 23.9617 32.174 24.387C32.7167 24.805 33.0064 25.3953 33.043 26.158H30.7C30.6927 25.9233 30.6194 25.7473 30.48 25.63C30.348 25.5127 30.1757 25.454 29.963 25.454C29.8017 25.454 29.6697 25.5017 29.567 25.597C29.4644 25.6923 29.413 25.828 29.413 26.004C29.413 26.1507 29.468 26.279 29.578 26.389C29.6954 26.4917 29.8384 26.5833 30.007 26.664C30.1757 26.7373 30.425 26.8327 30.755 26.95C31.2464 27.1187 31.6497 27.2873 31.965 27.456C32.2877 27.6173 32.5627 27.8483 32.79 28.149C33.0247 28.4423 33.142 28.8163 33.142 29.271C33.142 29.733 33.0247 30.1473 32.79 30.514C32.5627 30.8807 32.229 31.1703 31.789 31.383C31.3564 31.5957 30.843 31.702 30.249 31.702ZM33.8803 27.731C33.8803 26.9683 34.038 26.29 34.3533 25.696C34.676 25.0947 35.1307 24.629 35.7173 24.299C36.304 23.9617 36.9787 23.793 37.7413 23.793C38.7093 23.793 39.5233 24.0533 40.1833 24.574C40.8433 25.0873 41.2687 25.7877 41.4593 26.675H39.1383C38.999 26.3817 38.8047 26.158 38.5553 26.004C38.3133 25.85 38.031 25.773 37.7083 25.773C37.2097 25.773 36.81 25.9527 36.5093 26.312C36.216 26.664 36.0693 27.137 36.0693 27.731C36.0693 28.3323 36.216 28.8127 36.5093 29.172C36.81 29.524 37.2097 29.7 37.7083 29.7C38.031 29.7 38.3133 29.623 38.5553 29.469C38.8047 29.315 38.999 29.0913 39.1383 28.798H41.4593C41.2687 29.6853 40.8433 30.3893 40.1833 30.91C39.5233 31.4233 38.7093 31.68 37.7413 31.68C36.9787 31.68 36.304 31.515 35.7173 31.185C35.1307 30.8477 34.676 30.382 34.3533 29.788C34.038 29.1867 33.8803 28.501 33.8803 27.731Z" fill="#FEDBB0"/>
</svg>
