<svg width="54" height="54" viewBox="0 0 54 54" fill="none" xmlns="http://www.w3.org/2000/svg">
<g clip-path="url(#clip0_1001_3805)">
<path d="M22.8409 13.7123C22.822 13.4384 22.7996 13.1522 22.766 12.8701L20.7861 13.1361L20.622 11.9209L22.5783 11.6572C22.5243 11.3761 22.4646 11.1017 22.3958 10.8296L20.5091 11.0835L20.325 9.71849L22.0042 9.49195C21.9106 9.21622 21.808 8.94556 21.7002 8.68041L20.2121 8.88106L20.0485 7.66478L21.1658 7.51453C21.0283 7.24209 20.8836 6.98487 20.7275 6.72096L19.9356 6.82736L19.7682 5.58809L19.9518 5.56401C19.8778 5.46444 19.8037 5.36218 19.7262 5.27022C19.5956 5.1075 19.4628 4.94949 19.3278 4.79619C19.1341 4.57299 18.9327 4.36341 18.724 4.16101L18.8174 4.86738L17.4342 5.05351L17.2701 3.83831L18.2279 3.70883C17.9271 3.44935 17.6116 3.20741 17.2829 2.98422L17.1572 3.00089L17.1425 2.89066C16.9617 2.77291 16.779 2.66219 16.5927 2.55908L16.2518 2.60494L16.3198 3.11384L14.8572 3.30524L14.7887 2.79743L13.9518 2.90929L14.0198 3.41818L12.4498 3.62954L12.3814 3.12174L11.5444 3.2336L11.6124 3.74249L10.1468 3.94041L10.0763 3.43696L9.23885 3.5499L9.30679 4.05879L7.92515 4.24434L7.8618 3.72567L7.51296 3.77442C7.36144 3.92261 7.21457 4.07783 7.07235 4.24009L7.08702 4.35033L6.95858 4.36707C6.70145 4.67024 6.46137 4.98747 6.23947 5.3173L7.19996 5.18775L7.36525 6.40882L5.90167 6.60239L5.82064 6.00255C5.69931 6.21081 5.58267 6.43452 5.47306 6.66019C5.36345 6.88587 5.25324 7.12981 5.15209 7.37138C5.12258 7.43443 5.09959 7.50053 5.07443 7.56562L5.1761 7.55225L5.34354 8.7942L4.63564 8.89091C4.55504 9.1792 4.48262 9.47264 4.42216 9.77168L5.45917 9.63156L5.62272 10.8478L4.20998 11.0347C4.17709 11.3202 4.14964 11.6082 4.13298 11.8985L5.73132 11.6832L5.91536 13.0483L4.1078 13.2915C4.11468 13.5713 4.12968 13.8535 4.15279 14.1382L6.02831 13.8857L6.19186 15.102L4.29278 15.3567C4.33595 15.642 4.38591 15.9194 4.44264 16.1889L6.30372 15.9389L6.48427 17.2519L6.38419 17.2647L4.77034 17.482C4.85128 17.7602 4.93976 18.0327 5.0358 18.2994L6.59287 18.0873L6.75635 19.3009L5.50475 19.4691C5.61989 19.7271 5.74345 19.9784 5.87223 20.2242L5.85176 20.2425C5.85965 20.253 5.86834 20.2628 5.87776 20.2719L6.86821 20.1378L7.04039 21.4178L6.61555 21.476C6.78703 21.7325 6.96476 21.9814 7.14975 22.2204L7.15551 22.2562L7.17581 22.2524C7.47745 22.6409 7.80299 23.0101 8.15054 23.3581L8.15815 23.3616C8.34284 23.5475 8.53319 23.724 8.72711 23.893L8.88094 24.1108L9.73113 23.9932L9.88476 25.1373L10.7222 25.0243L10.5686 23.8803L11.9502 23.6947L12.1043 24.8377L12.9418 24.7247L12.7876 23.5818L14.2532 23.3839L14.4079 24.5284L15.2454 24.4155L15.0946 23.2794L16.6646 23.068L16.8193 24.2126L17.6557 24.0991L17.502 22.9551L18.9671 22.7583L19.1219 23.9028L19.9582 23.7894L19.8046 22.6453L20.6542 22.5288L20.7428 22.2801C20.8618 22.1025 20.9762 21.9175 21.0846 21.7311C21.1045 21.6887 21.133 21.6503 21.1561 21.6095C21.3802 21.2162 21.5809 20.8101 21.7572 20.3933L21.7439 20.2943L21.8038 20.2852C21.9252 19.9948 22.0377 19.6949 22.1388 19.3884L21.6432 19.4533L21.4685 18.1788L22.5408 18.034C22.5464 18.022 22.552 18.0101 22.5576 17.9981L22.5326 17.9864C22.5917 17.7159 22.6447 17.4412 22.688 17.1619L21.3556 17.3414L21.1926 16.1267L22.8304 15.9007L22.8705 15.0421L21.2566 15.2595L21.0768 15.284L20.8963 13.9709L22.8409 13.7123ZM19.9497 13.2496L18.5665 13.4357L18.4025 12.2205L19.7857 12.0344L19.9497 13.2496ZM18.2942 17.7492L16.8291 17.946L16.6656 16.7324L18.1312 16.5345L18.2942 17.7492ZM9.44635 15.5161L10.8291 15.331L11.0096 16.6441L9.62038 16.8261L9.44635 15.5161ZM12.4506 9.93022L10.9801 10.1245L10.816 8.90932L12.2832 8.71082L12.4506 9.93022ZM13.1245 8.601L14.6944 8.38963L14.858 9.60591L13.288 9.81728L13.1245 8.601ZM12.5641 10.7666L12.7454 12.1317L11.2798 12.3296L11.093 10.9619L12.5641 10.7666ZM12.8584 12.9691L13.0224 14.1843L11.559 14.3832L11.3949 13.168L12.8584 12.9691ZM13.1354 15.0217L13.3159 16.3347L11.8503 16.5326L11.6698 15.2196L13.1354 15.0217ZM11.9589 17.368L13.4245 17.1701L13.5875 18.3848L12.1219 18.5827L11.9589 17.368ZM14.2582 17.0567L15.8281 16.8454L15.9911 18.06L14.4211 18.2714L14.2582 17.0567ZM15.7152 16.0079L14.1452 16.2193L13.9652 14.9052L15.5352 14.6938L15.7152 16.0079ZM13.8535 14.0763L13.69 12.86L15.26 12.6487L15.424 13.8639L13.8535 14.0763ZM13.577 12.0226L13.393 10.6576L14.963 10.4462L15.1506 11.8063L13.577 12.0226ZM15.8004 10.3333L17.266 10.1354L17.4495 11.5015L15.9844 11.6983L15.8004 10.3333ZM15.6874 9.49586L15.5239 8.27958L16.989 8.08274L17.1531 9.29794L15.6874 9.49586ZM15.412 7.44267L15.2441 6.2018L16.7097 6.00387L16.8771 7.24583L15.412 7.44267ZM14.5746 7.55561L13.0046 7.76697L12.8367 6.52611L14.4108 6.30873L14.5746 7.55561ZM12.1668 7.88637L10.7031 8.0719L10.5357 6.83263L12.0056 6.63405L12.1668 7.88637ZM9.86672 8.18535L8.484 8.37039L8.31765 7.12895L9.69928 6.9434L9.86672 8.18535ZM9.97858 9.02226L10.1426 10.2375L8.7605 10.4241L8.59695 9.20781L9.97858 9.02226ZM10.2556 11.0749L10.4396 12.4399L9.05749 12.6265L8.87344 11.2615L10.2556 11.0749ZM10.5504 13.2763L10.714 14.4926L9.33232 14.6781L9.16826 13.4629L10.5504 13.2763ZM11.116 17.4784L11.2795 18.692L9.89739 18.8787L9.73441 17.664L11.116 17.4784ZM11.3925 19.5295L11.5647 20.8094L10.1858 20.9976L10.0136 19.7176L11.3925 19.5295ZM12.2299 19.4165L13.695 19.2197L13.8672 20.4996L12.4053 20.6953L12.2299 19.4165ZM14.5324 19.1067L16.1024 18.8954L16.2771 20.1699L14.7111 20.3897L14.5324 19.1067ZM16.9377 18.7814L18.4028 18.5846L18.5775 19.8591L17.1164 20.0644L16.9377 18.7814ZM16.5505 15.894L16.3699 14.5809L17.8355 14.383L18.0161 15.6961L16.5505 15.894ZM16.2613 13.7456L16.0978 12.5293L17.5629 12.3324L17.7269 13.5476L16.2613 13.7456ZM19.676 11.1985L18.287 11.3885L18.1081 10.018L19.4892 9.83085L19.676 11.1985ZM19.3817 8.99597L17.998 9.18319L17.8344 7.96691L19.2176 7.78078L19.3817 8.99597ZM18.9362 5.70089L19.1025 6.94234L17.7204 7.12898L17.5529 5.88702L18.9362 5.70089ZM16.4429 3.94938L16.5978 5.16428L15.1337 5.35894L14.9722 4.13831L16.4429 3.94938ZM14.1327 4.2556L14.2963 5.47189L12.7263 5.68325L12.5622 4.46805L14.1327 4.2556ZM11.7275 4.58093L11.8916 5.79612L10.4238 5.99303L10.2597 4.77784L11.7275 4.58093ZM8.04825 5.07989L9.43039 4.89325L9.59395 6.10954L8.21181 6.29617L8.04825 5.07989ZM6.02063 7.44395L7.48023 7.24189L7.64658 8.48334L6.18096 8.68126L6.02063 7.44395ZM6.30101 9.52333L7.76662 9.32541L7.92576 10.537L6.46014 10.7349L6.30101 9.52333ZM6.57801 11.5759L8.04363 11.378L8.22007 12.7395L6.75445 12.9374L6.57801 11.5759ZM6.87283 13.7774L8.33794 13.5805L8.502 14.7957L7.03363 14.991L6.87283 13.7774ZM7.14824 15.8306L8.61494 15.6332L8.7955 16.9462L7.32988 17.1441L7.14824 15.8306ZM7.43559 17.9715L8.9012 17.7736L9.06418 18.9883L7.59907 19.1851L7.43559 17.9715ZM7.71201 20.0225L9.17712 19.8257L9.3493 21.1057L7.88419 21.3025L7.71201 20.0225ZM8.15373 23.3569L7.99076 22.1422L9.45637 21.9443L9.61935 23.159L8.15373 23.3569ZM10.4568 23.046L10.2997 21.8301L11.6818 21.6435L11.8448 22.8582L10.4568 23.046ZM12.6791 22.7491L12.5161 21.5344L13.9812 21.3376L14.1458 22.5517L12.6791 22.7491ZM14.9821 22.4382L14.8186 21.2246L16.3886 21.0133L16.5521 22.2269L14.9821 22.4382ZM17.3899 22.1075L17.2264 20.8939L18.692 20.6959L18.855 21.9106L17.3899 22.1075ZM21.0756 21.6115L19.6924 21.7977L19.5322 20.5856L20.9154 20.3995L21.0756 21.6115ZM20.7956 19.5654L19.4124 19.7516L19.2376 18.4771L20.6209 18.2909L20.7956 19.5654ZM19.1272 17.6342L18.9643 16.4195L20.3475 16.2334L20.5105 17.4481L19.1272 17.6342ZM20.2345 15.396L18.8513 15.5821L18.6708 14.2691L20.0529 14.0824L20.2345 15.396Z" fill="#D9D9D9"/>
<path d="M6.18149 8.68129L6.26762 9.31267C6.34004 9.08152 6.42116 8.85443 6.50683 8.63743L6.18149 8.68129ZM22.5799 11.6577C22.526 11.3766 22.4662 11.1022 22.3974 10.8301C22.2868 10.3728 22.1592 9.92345 22.0058 9.49248C21.9122 9.21676 21.8096 8.9461 21.7018 8.68094C21.5371 8.27783 21.359 7.8892 21.1674 7.51506C21.0299 7.24262 20.8852 6.9854 20.7291 6.7215C20.491 6.32186 20.2319 5.93513 19.9528 5.56295C19.8788 5.46338 19.8048 5.36112 19.7272 5.26916C19.5966 5.10644 19.4638 4.94843 19.3289 4.79512C19.1352 4.57193 18.9337 4.36235 18.725 4.15995C18.5641 4.00248 18.398 3.85052 18.2305 3.70451C17.9297 3.44503 17.6141 3.20309 17.2855 2.97989C17.2396 2.94779 17.1931 2.91677 17.1451 2.88633C16.9643 2.76858 16.7815 2.65786 16.5952 2.55475C15.1242 1.73367 13.4942 1.36828 11.8429 1.59194C10.1917 1.81561 8.72768 2.5961 7.51349 3.77445C7.36196 3.92263 7.21509 4.07785 7.07288 4.24012C7.03367 4.2814 6.99722 4.3253 6.9591 4.3671C6.70197 4.67027 6.4619 4.9875 6.23999 5.31732C6.09355 5.53769 5.95286 5.7656 5.81791 6.00105C5.69657 6.20931 5.57993 6.43302 5.47032 6.65869C5.36071 6.88437 5.2505 7.12831 5.14936 7.36988C5.11984 7.43293 5.09685 7.49903 5.07169 7.56412C4.90095 7.99728 4.75375 8.43935 4.63073 8.88839C4.55013 9.17668 4.47771 9.47012 4.41725 9.76916C4.3302 10.1816 4.26092 10.6033 4.20942 11.0342C4.17653 11.3197 4.14908 11.6077 4.13242 11.8981C4.10274 12.356 4.09435 12.8203 4.10724 13.2911C4.11412 13.5708 4.12912 13.853 4.15223 14.1377C4.17508 14.44 4.20714 14.7452 4.24834 15.0508C4.26171 15.1525 4.27616 15.2546 4.29221 15.3562C4.33539 15.6415 4.38534 15.9189 4.44207 16.1884C4.53259 16.6293 4.64037 17.0596 4.76543 17.4795C4.84637 17.7577 4.93485 18.0302 5.03089 18.2969C5.17392 18.6991 5.33118 19.0908 5.50419 19.4686C5.61933 19.7266 5.74289 19.9779 5.87167 20.2238L5.8512 20.242C5.85908 20.2525 5.86778 20.2623 5.8772 20.2714L5.93035 20.3334C6.14199 20.7306 6.37039 21.1119 6.6139 21.475C6.78538 21.7315 6.96311 21.9804 7.1481 22.2194L7.17416 22.2515C7.4758 22.6399 7.80134 23.0091 8.14889 23.3571L8.1565 23.3606C8.34119 23.5465 8.53154 23.7231 8.72546 23.892L8.87929 24.1098C13.097 30.1527 15.8042 37.1188 16.774 44.4239L18.4173 44.2032C17.4196 36.9013 18.1874 29.4667 20.6562 22.5229L20.7448 22.2742C20.8637 22.0966 20.9782 21.9116 21.0866 21.7251C21.1065 21.6827 21.135 21.6444 21.1581 21.6035C21.3821 21.2103 21.5829 20.8042 21.7592 20.3874C21.7755 20.3526 21.7923 20.3167 21.8101 20.2786C21.9314 19.9882 22.044 19.6884 22.145 19.3818C22.2821 18.9663 22.4009 18.539 22.5012 18.1C22.5129 18.075 22.5246 18.05 22.5363 18.025C22.548 18 22.5475 18.0011 22.5531 17.9892L22.5281 17.9775C22.5871 17.7069 22.6402 17.4322 22.6834 17.153C22.7496 16.7426 22.7978 16.3225 22.8292 15.8959C22.8519 15.6124 22.8649 15.3269 22.8693 15.0374C22.8794 14.6004 22.8697 14.1567 22.8402 13.7064C22.8213 13.4325 22.7989 13.1464 22.7653 12.8643C22.7535 12.762 22.7406 12.6593 22.7273 12.5576C22.6883 12.2557 22.6354 11.9553 22.5799 11.6577ZM16.415 35.5277C15.2872 32.0989 13.7709 28.8102 11.8959 25.7259C12.9385 26.07 14.0458 26.1726 15.134 26.0257C16.2221 25.8789 17.2626 25.4865 18.1768 24.8783C17.1859 28.3494 16.5948 31.9224 16.415 35.5277ZM21.1906 13.0827C21.2237 13.3633 21.2458 13.6444 21.257 13.9262C21.2802 14.3707 21.28 14.8161 21.2566 15.2606C21.2414 15.5423 21.2185 15.8205 21.1847 16.0936C21.1845 16.1038 21.1833 16.1139 21.1812 16.1238C21.1313 16.5495 21.0578 16.9722 20.9611 17.3897C20.9418 17.4735 20.9214 17.5567 20.901 17.6399C20.8469 17.8545 20.7858 18.0671 20.7203 18.275C20.699 18.3432 20.6777 18.4114 20.6537 18.4797C20.5194 18.8792 20.3612 19.2703 20.1797 19.6507C20.0301 19.9664 19.8629 20.2735 19.6789 20.5706C19.6418 20.6301 19.6041 20.6879 19.5664 20.7458C19.5633 20.7524 19.5603 20.7589 19.5572 20.7654C19.339 21.1001 19.0969 21.4186 18.8328 21.7185C18.764 21.7976 18.6935 21.8746 18.6224 21.95C18.2823 22.3073 17.9063 22.6287 17.5003 22.909L17.4201 22.9642C17.192 23.1155 16.9543 23.2517 16.7084 23.3719C16.2247 23.6125 15.7103 23.7855 15.1796 23.8862C15.0727 23.9077 14.9637 23.9256 14.8545 23.9407C14.6825 23.9627 14.5111 23.9779 14.3402 23.9863C13.8346 24.01 13.328 23.9697 12.8325 23.8663C12.5937 23.8165 12.3579 23.753 12.1264 23.6763L11.9459 23.6143C11.5116 23.4558 11.0936 23.2553 10.6981 23.0157C10.6098 22.9637 10.523 22.9085 10.4372 22.8511C10.1029 22.6327 9.78503 22.3901 9.48627 22.1251L9.47084 22.1099C9.41702 22.0635 9.36422 22.0149 9.3125 21.9669C9.05599 21.729 8.81285 21.4772 8.5842 21.2125C8.2676 20.8461 7.97661 20.4584 7.7133 20.0521L7.69767 20.0289C7.58114 19.8418 7.4657 19.6552 7.35658 19.4637C7.31439 19.3896 7.27271 19.3144 7.23262 19.2387C7.02977 18.8612 6.84678 18.4734 6.68441 18.0769C6.63683 17.9605 6.59193 17.8441 6.54697 17.725C6.48609 17.5719 6.43544 17.4197 6.38363 17.2642C6.24356 16.8415 6.12527 16.4119 6.02923 15.9772C5.96917 15.7034 5.91637 15.4265 5.87082 15.1463C5.85585 15.0452 5.83487 14.9399 5.82745 14.8397C5.78517 14.5337 5.75456 14.2291 5.73562 13.926C5.71485 13.642 5.7059 13.3582 5.70456 13.0779C5.70358 12.6666 5.72121 12.2618 5.75745 11.8635C5.76281 11.8011 5.77028 11.737 5.7763 11.6789C5.8068 11.3844 5.84869 11.0939 5.89876 10.8085C5.97506 10.3771 6.07571 9.95033 6.20023 9.53027C6.22141 9.4567 6.24369 9.38363 6.26813 9.31158C6.34055 9.08043 6.42166 8.85334 6.50734 8.63634C6.68885 8.16994 6.90606 7.71821 7.15701 7.28519C7.24275 7.13316 7.33349 6.98745 7.42697 6.84434C7.53889 6.6732 7.65631 6.50729 7.77923 6.3466C7.89812 6.18888 8.02302 6.0353 8.1524 5.88912C8.46406 5.53124 8.81031 5.20501 9.1861 4.91518C9.25925 4.85799 9.33408 4.80289 9.40744 4.75374C9.65681 4.5791 9.91834 4.4225 10.19 4.28514C10.642 4.05042 11.1222 3.87433 11.6187 3.76116C11.7848 3.72357 11.9542 3.69288 12.1265 3.67016C12.2346 3.65448 12.3459 3.64033 12.4542 3.63538C12.9929 3.5926 13.5349 3.62338 14.0653 3.72687C14.3655 3.78382 14.6611 3.86323 14.9494 3.96443C15.0637 4.00335 15.1765 4.04554 15.2938 4.09513C15.7329 4.27506 16.1534 4.49762 16.5492 4.75963C16.7116 4.86569 16.8707 4.97863 17.0267 5.09845C17.1883 5.22046 17.3447 5.35065 17.4996 5.48679C17.626 5.59897 17.7515 5.716 17.8738 5.83688C18.2303 6.18839 18.5591 6.56693 18.8573 6.96913C18.964 7.1092 19.0666 7.25528 19.1654 7.40361C19.2446 7.51755 19.3169 7.6322 19.3892 7.74953C19.6213 8.12135 19.8319 8.5062 20.0198 8.90218C20.1215 9.11541 20.2152 9.33422 20.3091 9.55839L20.371 9.70928C20.5409 10.1446 20.6869 10.589 20.8081 11.0404C20.8817 11.3107 20.95 11.5866 21.0034 11.866C21.0568 12.1455 21.1199 12.4665 21.1573 12.7716C21.166 12.8777 21.1789 12.9805 21.1906 13.0827ZM6.18149 8.68129L6.26762 9.31267C6.34004 9.08152 6.42116 8.85443 6.50683 8.63743L6.18149 8.68129Z" fill="#D93A46"/>
<path d="M28.0957 39.3526C27.7401 39.3524 27.3878 39.4204 27.0579 39.5529C26.6966 38.9873 26.18 38.5378 25.5698 38.2582C24.9597 37.9786 24.2819 37.8807 23.6176 37.9763C22.9533 38.0719 22.3306 38.3569 21.824 38.7972C21.3175 39.2375 20.9485 39.8144 20.7614 40.4589C20.4498 40.3793 20.1249 40.3669 19.8082 40.4223C19.4914 40.4777 19.19 40.5997 18.924 40.7804C18.6579 40.961 18.4333 41.196 18.2649 41.47C18.0965 41.7439 17.9883 42.0505 17.9472 42.3695C17.9062 42.6884 17.9334 43.0124 18.0271 43.3201C18.1207 43.6277 18.2785 43.9119 18.4902 44.154C18.7019 44.396 18.9626 44.5904 19.2551 44.7241C19.5475 44.8578 19.865 44.9279 20.1866 44.9297H28.0967C28.8358 44.9297 29.5445 44.6362 30.0671 44.1136C30.5896 43.591 30.8832 42.8823 30.8832 42.1433C30.8832 41.4042 30.5896 40.6955 30.0671 40.1729C29.5445 39.6504 28.8358 39.3568 28.0967 39.3568L28.0957 39.3526Z" fill="white"/>
<path d="M43.6073 27.7132C43.8477 27.432 44.0826 27.1412 44.3118 26.841L42.1792 25.2716L43.1432 23.9617L45.2526 25.5121C45.4635 25.1957 45.6565 24.8793 45.8432 24.5555L43.8119 23.0589L44.895 21.5876L46.7038 22.9186C46.8683 22.5706 47.0202 22.2183 47.1626 21.8639L45.5584 20.6837L46.5224 19.3738L47.7269 20.2598C47.8457 19.8723 47.9512 19.4856 48.0433 19.0996L47.1869 18.4731L48.1709 17.1358L48.3681 17.2803C48.3903 17.1178 48.4071 16.9533 48.424 16.7919C48.4507 16.5177 48.4697 16.2446 48.481 15.9725C48.501 15.5833 48.5031 15.1962 48.4905 14.8123L47.9251 15.5696L46.4349 14.4727L47.3978 13.1628L48.4303 13.9221C48.3823 13.3975 48.3045 12.876 48.1972 12.3601L48.0612 12.261L48.1487 12.1418C48.0855 11.8606 48.0123 11.586 47.9294 11.3181L47.5634 11.0481L47.1626 11.5976L45.5806 10.4375L45.9835 9.88901L45.0817 9.22562L44.6778 9.77405L42.9903 8.52952L43.3942 7.98108L42.4914 7.31663L42.0885 7.86507L40.5065 6.70491L40.9104 6.15647L40.0076 5.49308L39.6047 6.04151L38.1165 4.94042L38.5194 4.39198L38.1503 4.11987C37.8698 4.11987 37.586 4.13253 37.3065 4.15679L37.218 4.27597L37.0798 4.1705C36.5556 4.22139 36.0348 4.30238 35.5199 4.41308L36.5546 5.17456L35.5853 6.4887L34.0033 5.32854L34.48 4.68097C34.1657 4.77167 33.8531 4.87433 33.5424 4.98894C33.2207 5.1039 32.9001 5.23257 32.5805 5.37179C32.4961 5.4087 32.4107 5.44562 32.3274 5.48569L32.4381 5.5669L31.453 6.90425L30.6863 6.34104C30.346 6.54073 30.0102 6.75448 29.679 6.9823L30.797 7.80495L29.833 9.11487L28.308 7.99796C28.0137 8.23843 27.7226 8.48839 27.4389 8.7489L29.1612 10.0145L28.0812 11.4921L26.1342 10.0557C25.8822 10.3288 25.6375 10.6104 25.396 10.8994L27.4167 12.3865L26.4528 13.6964L24.4056 12.1946C24.1873 12.5015 23.9837 12.8137 23.7823 13.1269L25.7862 14.6035L24.7463 16.0167L24.6408 15.9376L22.9037 14.6562C22.7255 14.9937 22.5589 15.3354 22.4038 15.6782L24.0892 16.9175L23.1263 18.2263L21.7784 17.2339C21.6511 17.5854 21.5362 17.937 21.4335 18.2885H21.3966C21.3966 18.3054 21.3966 18.3233 21.3966 18.3413L22.465 19.1281L21.4504 20.5066L20.9895 20.168C20.9167 20.5709 20.8566 20.9717 20.8144 21.3703L20.7859 21.4094L20.8081 21.4252C20.7372 22.0738 20.7059 22.7261 20.7142 23.3785C20.7137 23.3823 20.7137 23.3862 20.7142 23.3901C20.7195 23.7371 20.7385 24.0809 20.768 24.4205C20.749 24.5365 20.7321 24.6525 20.7131 24.7696L21.6349 25.4467L20.729 26.6796L21.6307 27.343L22.5378 26.1112L24.027 27.207L23.1199 28.4389L24.0228 29.1033L24.9298 27.8704L26.5118 29.0305L25.6016 30.2656L26.5044 30.929L27.4115 29.6971L29.099 30.9416L28.1919 32.1746L29.0937 32.838L30.0007 31.605L31.5828 32.7652L30.6757 33.9981L31.5775 34.6636L32.4845 33.4317L33.4031 34.1078L33.7196 33.9528C33.9969 33.8926 34.2754 33.8241 34.5517 33.7418C34.6118 33.7271 34.6709 33.7091 34.731 33.6923C35.3083 33.5244 35.8753 33.323 36.429 33.089L36.5081 32.9835L36.5725 33.031C36.9564 32.8657 37.3385 32.6833 37.7189 32.4836L37.1673 32.0786L38.1819 30.7001L39.3421 31.5502L39.3917 31.5323L39.379 31.4974C39.6838 31.2939 39.9876 31.0756 40.286 30.8541L38.8506 29.7994L39.8135 28.4905L41.5822 29.7931L42.4102 29.0116L40.6699 27.7343L40.4748 27.5909L41.5148 26.1776L43.6073 27.7132ZM41.2806 24.6072L39.7861 23.5156L40.7533 22.2014L42.2435 23.2973L41.2806 24.6072ZM35.5537 27.3736L33.9716 26.2135L34.9346 24.9046L36.5166 26.0648L35.5537 27.3736ZM29.1739 17.0925L30.6631 18.1883L29.6231 19.6016L28.1339 18.5058L29.1739 17.0925ZM37.1831 14.5265L35.6011 13.3663L36.5651 12.0564L38.1471 13.2166L37.1831 14.5265ZM39.0489 13.88L40.7417 15.1255L39.7777 16.4355L38.0849 15.1899L39.0489 13.88ZM36.5176 15.4282L35.4345 16.9048L33.8524 15.7446L34.9356 14.2681L36.5176 15.4282ZM34.7732 17.8023L33.8092 19.1123L32.2272 17.9521L33.1912 16.6422L34.7732 17.8023ZM33.1447 20.0172L32.1048 21.4273L30.5228 20.2671L31.5627 18.8549L33.1447 20.0172ZM29.8615 21.171L31.4435 22.3312L30.4806 23.64L28.8986 22.4799L29.8615 21.171ZM32.3432 22.9967L34.0307 24.2412L33.0678 25.5501L31.3803 24.3055L32.3432 22.9967ZM34.6994 23.3394L33.0119 22.0949L34.0518 20.6816L35.7393 21.9262L34.6994 23.3394ZM34.711 19.7799L35.6749 18.47L37.3624 19.7145L36.3985 21.0244L34.711 19.7799ZM36.3383 17.565L37.4215 16.0937L39.109 17.3383L38.0258 18.8148L36.3383 17.565ZM40.015 18.0017L41.597 19.1618L40.5139 20.6384L38.9318 19.4782L40.015 18.0017ZM40.6784 17.0989L41.6424 15.7889L43.2244 16.9491L42.2604 18.259L40.6784 17.0989ZM42.3058 14.884L43.2908 13.5456L44.8729 14.7058L43.8889 16.0442L42.3058 14.884ZM41.404 14.2196L39.7165 12.975L40.7005 11.6366L42.388 12.8822L41.404 14.2196ZM38.8105 12.3148L37.2285 11.1546L38.2125 9.81624L39.7946 10.9764L38.8105 12.3148ZM36.3299 10.4881L34.8396 9.39226L35.8247 8.05386L37.3139 9.15073L36.3299 10.4881ZM35.6655 11.3867L34.7015 12.6966L33.2123 11.6039L34.1762 10.294L35.6655 11.3867ZM34.0381 13.6015L32.9549 15.0781L31.4657 13.9823L32.5489 12.511L34.0381 13.6015ZM32.2915 15.9756L31.3275 17.2855L29.8373 16.1908L30.8012 14.8808L32.2915 15.9756ZM28.9597 20.5023L27.9968 21.8112L26.5076 20.7154L27.4705 19.4065L28.9597 20.5023ZM27.3324 22.7172L26.3178 24.0957L24.8275 22.9977L25.8431 21.6171L27.3324 22.7172ZM28.2352 23.3806L29.8172 24.5407L28.8026 25.9192L27.2206 24.7591L28.2352 23.3806ZM30.7169 25.2031L32.4044 26.4487L31.3898 27.8271L29.7023 26.5826L30.7169 25.2031ZM33.3103 27.1121L34.8924 28.2722L33.8767 29.6517L32.2947 28.4916L33.3103 27.1121ZM35.6011 23.9997L36.64 22.5875L38.222 23.7476L37.1831 25.1609L35.6011 23.9997ZM37.3055 21.6794L38.2684 20.3694L39.8505 21.5296L38.8865 22.8395L37.3055 21.6794ZM42.9048 22.3902L41.4146 21.3007L42.4967 19.8242L43.9869 20.921L42.9048 22.3902ZM44.6556 20.0214L43.1653 18.9245L44.1283 17.6146L45.6185 18.7115L44.6556 20.0214ZM47.2681 16.4713L46.283 17.8097L44.7927 16.7128L45.7778 15.3744L47.2681 16.4713ZM46.5034 12.4994L45.5352 13.8125L43.9532 12.6523L44.9172 11.3424L46.5034 12.4994ZM44.0228 10.6726L43.0588 11.9826L41.3713 10.738L42.3353 9.42812L44.0228 10.6726ZM41.4283 8.76472L40.4643 10.0746L38.8823 8.91448L39.8462 7.60456L41.4283 8.76472ZM37.4521 5.84218L38.9413 6.938L37.9784 8.24792L36.4881 7.1521L37.4521 5.84218ZM33.3388 6.22819L34.9208 7.38835L33.9379 8.72886L32.3558 7.5687L33.3388 6.22819ZM31.6946 8.46835L33.2766 9.62851L32.3158 10.9405L30.7337 9.78038L31.6946 8.46835ZM30.0672 10.6832L31.6492 11.8433L30.566 13.3199L28.984 12.1598L30.0672 10.6832ZM28.3196 13.0573L29.9016 14.2175L28.9408 15.5263L27.3587 14.3662L28.3196 13.0573ZM26.6922 15.2721L28.2742 16.4323L27.2343 17.8456L25.6523 16.6854L26.6922 15.2721ZM24.9889 17.5925L26.5709 18.7526L25.608 20.0615L24.0259 18.9013L24.9889 17.5925ZM23.3615 19.8073L24.9435 20.9675L23.9289 22.347L22.3469 21.1868L23.3615 19.8073ZM20.7248 23.3932L21.6877 22.0844L23.2697 23.2445L22.2962 24.5449L20.7248 23.3932ZM23.2064 25.2189L24.1694 23.91L25.6544 24.9921L24.6914 26.2999L23.2064 25.2189ZM25.5974 26.9792L26.5603 25.6703L28.1424 26.8305L27.1794 28.1393L25.5974 26.9792ZM28.0791 28.8048L29.042 27.496L30.7295 28.7416L29.7666 30.0504L28.0791 28.8048ZM30.6736 30.7138L31.6365 29.405L33.2186 30.5651L32.2556 31.874L30.6736 30.7138ZM34.6361 33.6258L33.1458 32.5289L34.1087 31.2201L35.599 32.3169L34.6361 33.6258ZM36.2635 31.411L34.7732 30.3141L35.7962 28.9388L37.2865 30.0357L36.2635 31.411ZM36.4512 28.036L37.4141 26.7271L38.9055 27.824L37.9415 29.1328L36.4512 28.036ZM39.5689 26.9212L38.0786 25.8253L39.1185 24.4121L40.6088 25.5089L39.5689 26.9212Z" fill="#BB7196"/>
<path d="M32.3583 7.56656L31.8573 8.24684C32.1386 8.09496 32.4227 7.95434 32.7095 7.82496L32.3583 7.56656ZM45.2508 25.5121C45.4618 25.1957 45.6548 24.8793 45.8414 24.5555C46.1571 24.0162 46.443 23.4705 46.6989 22.9186C46.8634 22.5705 47.0153 22.2183 47.1577 21.8639C47.3686 21.3292 47.5616 20.7955 47.722 20.2597C47.8408 19.8723 47.9463 19.4856 48.0384 19.0996C48.1805 18.4991 48.2904 17.8914 48.3674 17.2792C48.3896 17.1168 48.4064 16.9522 48.4233 16.7909C48.45 16.5166 48.469 16.2435 48.4803 15.9714C48.5003 15.5822 48.5024 15.1951 48.4898 14.8112C48.4813 14.5127 48.4634 14.2164 48.4381 13.9221C48.3901 13.3974 48.3123 12.8759 48.205 12.3601C48.1902 12.2884 48.1734 12.2146 48.1565 12.1418C48.0932 11.8605 48.0201 11.586 47.9371 11.3181C47.2874 9.17496 46.0724 7.33137 44.2942 6.0225C42.516 4.71363 40.3919 4.10297 38.1549 4.12406C37.8743 4.12406 37.5906 4.13672 37.3111 4.16098C37.2352 4.16098 37.1593 4.17258 37.0844 4.17891C36.5602 4.2298 36.0394 4.31079 35.5245 4.42148C35.1807 4.4918 34.8365 4.57899 34.492 4.68305C34.1777 4.77375 33.8651 4.87641 33.5543 4.99102C33.2327 5.10598 32.912 5.23465 32.5925 5.37387C32.5081 5.41078 32.4227 5.4477 32.3393 5.48777C31.7773 5.74313 31.2295 6.02867 30.6982 6.34313C30.3502 6.54141 30.0106 6.75445 29.6794 6.98227C29.2161 7.29445 28.7615 7.63301 28.3157 7.99793C28.0214 8.2384 27.7304 8.48836 27.4466 8.74887C26.9973 9.15914 26.5596 9.59262 26.1388 10.0556C25.8868 10.3288 25.6421 10.6104 25.4005 10.8994C25.1432 11.2084 24.8932 11.5322 24.6517 11.8581C24.5702 11.9678 24.49 12.0785 24.4113 12.1903C24.1929 12.4972 23.9894 12.8094 23.7879 13.1227C23.468 13.6261 23.1745 14.1362 22.9073 14.653C22.729 14.9905 22.5624 15.3322 22.4073 15.675C22.1732 16.1907 21.9623 16.7096 21.7745 17.2296C21.6473 17.5812 21.5323 17.9327 21.4296 18.2843H21.3927C21.3927 18.3012 21.3927 18.3191 21.3927 18.337C21.3927 18.3729 21.3927 18.4098 21.3864 18.4425C21.2226 19.017 21.089 19.5893 20.9856 20.1595C20.9129 20.5624 20.8527 20.9632 20.8105 21.3619L20.8042 21.4167C20.7344 22.0682 20.7045 22.7233 20.7146 23.3784C20.7141 23.3823 20.7141 23.3862 20.7146 23.39C20.7198 23.737 20.7388 24.0809 20.7684 24.4205C20.7494 24.5365 20.7325 24.6525 20.7135 24.7696C19.1678 34.4175 15.3312 43.5541 9.52539 51.4131L11.2962 52.7156C17.0725 44.8347 24.6542 38.4537 33.4056 34.1078L33.722 33.9527C33.9994 33.8926 34.2779 33.8241 34.5542 33.7418C34.6143 33.727 34.6734 33.7091 34.7335 33.6922C35.31 33.5243 35.8763 33.3229 36.4294 33.0889L36.5729 33.0288C36.9568 32.8636 37.3389 32.6811 37.7193 32.4814C38.2333 32.2122 38.7402 31.9144 39.2402 31.5881L39.3456 31.5502L39.3952 31.5322L39.3825 31.4974C39.6873 31.2939 39.9911 31.0755 40.2896 30.8541C40.7318 30.5229 41.1639 30.1685 41.5858 29.7909C41.8674 29.541 42.1448 29.2805 42.4137 29.0094C42.8271 28.6002 43.2269 28.1681 43.6129 27.7132C43.8534 27.432 44.0882 27.1412 44.3174 26.841C44.4007 26.7355 44.483 26.6227 44.5632 26.513C44.8022 26.1839 45.0314 25.8503 45.2508 25.5121ZM17.3818 42.598C19.4653 38.289 21.0499 33.7561 22.1046 29.0875C22.7818 30.3755 23.743 31.4928 24.9155 32.3546C26.088 33.2165 27.4411 33.8005 28.8726 34.0624C24.7301 36.4592 20.8749 39.3212 17.3818 42.5927V42.598ZM42.6141 25.5964C42.3835 25.896 42.1458 26.1846 41.9011 26.4623C41.513 26.9072 41.1022 27.3317 40.6703 27.7343C40.3961 27.9874 40.1187 28.2311 39.835 28.461C39.8249 28.4703 39.8144 28.4791 39.8034 28.4873C39.3628 28.8463 38.9034 29.1815 38.427 29.4914L38.1391 29.6739C37.8891 29.8289 37.636 29.9745 37.3818 30.1137C37.2985 30.158 37.2152 30.2033 37.1297 30.2476C36.6333 30.5038 36.1224 30.7306 35.5994 30.9268C35.165 31.0894 34.7221 31.2281 34.2726 31.3424L34.0047 31.4067L33.9773 31.413C33.4607 31.5315 32.9362 31.6122 32.4079 31.6546C32.2697 31.6672 32.1316 31.6757 31.9955 31.682C31.342 31.7101 30.6874 31.6702 30.0422 31.5628C29.999 31.5565 29.9568 31.548 29.9136 31.5407C29.5566 31.476 29.2043 31.388 28.8589 31.277C28.1761 31.0604 27.526 30.7517 26.9267 30.3594C26.8054 30.2803 26.6862 30.198 26.567 30.1116C26.3825 29.9745 26.2042 29.831 26.0344 29.6812C25.5307 29.2377 25.0849 28.7323 24.7076 28.1773C24.5252 27.9095 24.3586 27.6313 24.2088 27.3441C24.1697 27.2702 24.1307 27.1954 24.0948 27.1194C23.8263 26.5669 23.6126 25.9893 23.4568 25.395C23.422 25.2642 23.3893 25.1313 23.3597 24.9963C23.2427 24.48 23.1638 23.9559 23.1235 23.428C23.1235 23.4185 23.1235 23.409 23.1235 23.3995C23.1161 23.3057 23.1108 23.2107 23.1055 23.1169C23.0797 22.6539 23.0797 22.1898 23.1055 21.7268C23.1402 21.0879 23.2192 20.4521 23.3418 19.8241C23.3418 19.8125 23.3418 19.7988 23.3492 19.7872C23.4051 19.5035 23.4694 19.2188 23.5443 18.934C23.5717 18.8285 23.6023 18.7146 23.6339 18.606C23.7879 18.0588 23.9706 17.5202 24.1813 16.9923C24.2425 16.8383 24.3068 16.6843 24.3743 16.5304C24.4587 16.3321 24.5494 16.137 24.6433 15.9408C24.8975 15.4087 25.1791 14.8902 25.487 14.3872C25.6811 14.0708 25.8846 13.7544 26.1019 13.4486C26.18 13.3378 26.2612 13.226 26.3413 13.1153C26.585 12.7852 26.836 12.4656 27.0965 12.1661C27.3391 11.875 27.5911 11.5965 27.8485 11.3286C28.2261 10.9352 28.6173 10.565 29.0181 10.2191C29.0804 10.1653 29.1426 10.1136 29.2069 10.0598C29.5064 9.80672 29.8134 9.56941 30.1234 9.34371C30.5939 9.00313 31.083 8.68905 31.5884 8.40293C31.677 8.35231 31.7645 8.30273 31.8531 8.25633C32.1344 8.10445 32.4184 7.96383 32.7053 7.83445C33.3081 7.55735 33.9311 7.32642 34.5689 7.14363C34.7904 7.0793 35.0119 7.0234 35.2334 6.97277C35.4981 6.91371 35.7607 6.86731 36.0244 6.82406C36.2881 6.78082 36.5423 6.75234 36.8007 6.73231C37.4261 6.67997 38.0552 6.68845 38.6791 6.75762C38.8004 6.77133 38.9227 6.78715 39.0429 6.80508C39.4455 6.86751 39.8431 6.9588 40.2326 7.07824C40.8756 7.27202 41.4912 7.54706 42.0646 7.89668C42.2587 8.01375 42.4485 8.14137 42.6341 8.27742C42.7512 8.36391 42.8651 8.45356 42.978 8.54637C43.5304 9.00275 44.0185 9.53172 44.4292 10.1189C44.6622 10.4505 44.8706 10.7988 45.0525 11.1609C45.1264 11.3051 45.1967 11.452 45.2635 11.6018C45.5158 12.179 45.7112 12.7795 45.8467 13.3948C45.9047 13.6447 45.9522 13.9 45.9902 14.1573C46.0281 14.4146 46.0619 14.691 46.084 14.9631C46.1009 15.1877 46.1125 15.4145 46.1167 15.6423C46.1331 16.3057 46.0979 16.9693 46.0113 17.6272C45.9828 17.8593 45.948 18.0934 45.9058 18.3265C45.8741 18.5058 45.8393 18.684 45.8003 18.8623C45.6794 19.4308 45.5255 19.9918 45.3394 20.5424C45.2403 20.8388 45.1285 21.1372 45.0104 21.4336C44.984 21.499 44.9576 21.5644 44.9291 21.6308C44.6923 22.1985 44.4251 22.753 44.1286 23.292C43.9493 23.6168 43.7584 23.9406 43.5528 24.2591C43.3418 24.5987 43.1088 24.933 42.8662 25.2632C42.7797 25.3739 42.6964 25.4836 42.6141 25.5912V25.5964ZM32.3583 7.56656L31.8573 8.24684C32.1386 8.09496 32.4227 7.95434 32.7095 7.82496L32.3583 7.56656Z" fill="#6FC2E5"/>
<path d="M18.0461 45.3476L13.1777 51.9668C13.0051 52.2015 12.7879 52.3998 12.5386 52.5505C12.2893 52.7012 12.0128 52.8013 11.7248 52.8451C11.4368 52.8889 11.143 52.8756 10.8602 52.8059C10.5773 52.7362 10.311 52.6114 10.0764 52.4388C9.84176 52.2662 9.64344 52.049 9.49274 51.7997C9.34205 51.5504 9.24193 51.2739 9.1981 50.9859C9.15427 50.6979 9.1676 50.4041 9.23732 50.1213C9.30703 49.8384 9.43177 49.5721 9.60442 49.3375L14.4729 42.7214L18.0461 45.3476Z" fill="#BB7196"/>
<path d="M18.046 45.3477L13.1776 51.9669C12.8917 52.3572 12.4858 52.6432 12.022 52.7811C11.5583 52.919 11.0621 52.9012 10.6094 52.7305C10.3112 52.3495 10.146 51.8814 10.1389 51.3976C10.1319 50.9139 10.2834 50.4411 10.5704 50.0516L15.4409 43.4324L18.046 45.3477Z" fill="#DC7DA7"/>
<path d="M50.5854 33.9809C50.5879 35.7402 50.2305 37.4814 49.5351 39.0975C48.8397 40.7136 47.821 42.1703 46.5418 43.3781C46.3583 43.5522 46.1705 43.7209 45.9775 43.8823C43.6575 45.8367 40.7245 46.9137 37.691 46.9251C34.6576 46.9365 31.7166 45.8815 29.382 43.9445C29.1879 43.7842 28.9984 43.6172 28.8135 43.4435C27.5156 42.2327 26.4806 40.7678 25.773 39.1399C25.0654 37.512 24.7002 35.7559 24.7002 33.9809C24.7002 32.2058 25.0654 30.4498 25.773 28.8219C26.4806 27.194 27.5156 25.729 28.8135 24.5182C28.9984 24.3452 29.1879 24.1782 29.382 24.0172C31.7167 22.0804 34.6576 21.0256 37.691 21.037C40.7245 21.0483 43.6574 22.1252 45.9775 24.0795C46.1705 24.2419 46.3583 24.4106 46.5418 24.5836C47.8209 25.7915 48.8394 27.2483 49.5348 28.8643C50.2302 30.4804 50.5877 32.2216 50.5854 33.9809Z" fill="#BABA2E"/>
<path d="M50.5859 33.9809C50.5884 35.7403 50.2309 37.4815 49.5355 39.0976C48.8401 40.7137 47.8215 42.1704 46.5422 43.3782C46.3587 43.5522 46.1709 43.721 45.9779 43.8823C44.0008 45.5534 41.5657 46.5892 38.9906 46.8545C36.4492 46.5916 34.0434 45.5787 32.0793 43.9446C31.8852 43.7843 31.6957 43.6173 31.5108 43.4436C30.2129 42.2328 29.1779 40.7678 28.4703 39.1399C27.7626 37.512 27.3975 35.756 27.3975 33.9809C27.3975 32.2059 27.7626 30.4498 28.4703 28.8219C29.1779 27.194 30.2129 25.7291 31.5108 24.5183C31.6957 24.3453 31.8852 24.1783 32.0793 24.0173C34.0436 22.3836 36.4493 21.3708 38.9906 21.1074C41.5654 21.3737 44.0003 22.4094 45.9779 24.0795C46.1709 24.242 46.3587 24.4107 46.5422 24.5837C47.8213 25.7916 48.8399 27.2483 49.5352 28.8644C50.2306 30.4804 50.5882 32.2216 50.5859 33.9809Z" fill="url(#paint0_linear_1001_3805)"/>
<path d="M45.2543 42.0567C44.8466 41.5725 44.476 41.0581 44.1458 40.518C43.8894 40.0996 43.658 39.6664 43.4529 39.2207C43.4371 39.1869 43.4234 39.1532 43.4075 39.1205C43.2351 38.7362 43.0823 38.3433 42.9498 37.9435C42.8517 37.6534 42.7652 37.3571 42.6904 37.0565C42.6155 36.7559 42.5469 36.4426 42.4942 36.1294C42.3952 35.5651 42.3364 34.9945 42.318 34.4219C42.3117 34.2753 42.3086 34.1287 42.3086 33.981C42.3086 33.6878 42.3188 33.3971 42.3391 33.1088C42.3602 32.7924 42.394 32.4855 42.4383 32.1785C42.5258 31.5634 42.6605 30.9558 42.8412 30.3613C43.1548 29.3202 43.6034 28.3245 44.1754 27.3997C44.5148 26.8469 44.8974 26.3218 45.3197 25.8293C45.6986 25.3866 46.1073 24.9705 46.5431 24.5837C46.3586 24.4097 46.1708 24.242 45.9778 24.0796C45.4689 24.5377 44.9953 25.0338 44.5614 25.5635C43.4373 26.94 42.5993 28.527 42.0966 30.2316C41.9199 30.8272 41.7866 31.4349 41.6979 32.0499C41.6197 32.5827 41.5746 33.1199 41.5629 33.6583C41.5629 33.7637 41.5576 33.8692 41.5576 33.981C41.5576 34.1287 41.5576 34.2753 41.5661 34.4219C41.5843 35.0283 41.6453 35.6328 41.7485 36.2306C41.796 36.5101 41.854 36.7854 41.9183 37.0565C41.9964 37.3919 42.0871 37.7209 42.1946 38.0468C42.2822 38.3253 42.3803 38.6016 42.4889 38.8726C42.5353 38.9887 42.5828 39.1057 42.6323 39.2207C42.8697 39.7758 43.1456 40.3136 43.4582 40.8301C43.783 41.3714 44.1461 41.8888 44.5445 42.3784C44.9832 42.9155 45.4624 43.4183 45.9778 43.8824C46.1708 43.72 46.3586 43.5523 46.5431 43.3783C46.0823 42.9693 45.6516 42.5277 45.2543 42.0567Z" fill="white"/>
<path d="M33.7347 32.0794C33.6472 31.4643 33.5158 30.8563 33.3413 30.26C33.2612 29.9784 33.1694 29.701 33.0692 29.4268C32.5635 28.0437 31.831 26.7545 30.9018 25.612C30.8333 25.5255 30.7626 25.4401 30.6909 25.3547C30.2857 24.8792 29.848 24.4323 29.381 24.0173C29.1869 24.1787 28.9971 24.3443 28.8125 24.5194C29.2915 24.9372 29.7379 25.391 30.1477 25.8767C30.1667 25.8957 30.1825 25.9168 30.1994 25.9358C31.2909 27.2431 32.1057 28.7584 32.5946 30.3898C32.7738 30.9848 32.9075 31.5927 32.9943 32.208C33.0773 32.7953 33.1182 33.3878 33.1167 33.981C33.1167 34.1286 33.1167 34.2752 33.1072 34.4218C33.0891 34.9876 33.0321 35.5514 32.9363 36.1093C32.8815 36.431 32.814 36.7474 32.7359 37.0585C32.6621 37.3503 32.5777 37.6383 32.4828 37.9223C32.3379 38.3653 32.1675 38.7995 31.9723 39.2228C31.7787 39.6452 31.5622 40.0568 31.3237 40.4557C30.9972 40.997 30.6301 41.5128 30.2258 41.9987C30.2195 42.0082 30.2121 42.0166 30.2036 42.0272C29.7788 42.5346 29.3151 43.0082 28.8167 43.4436C29.0013 43.6176 29.1911 43.7843 29.3852 43.9457C29.8512 43.5314 30.2876 43.0849 30.6909 42.6094C30.7732 42.5144 30.8512 42.4185 30.9282 42.3214C31.6905 41.3779 32.3203 40.3347 32.8003 39.2207C32.9669 38.8304 33.1167 38.4317 33.2464 38.0246C33.3519 37.7082 33.4373 37.3844 33.5132 37.0564C33.5723 36.8146 33.6229 36.5685 33.6651 36.3182C33.6746 36.2812 33.6809 36.2422 33.6873 36.2032C33.7874 35.6128 33.847 35.0162 33.8655 34.4176C33.8708 34.271 33.8739 34.1244 33.8739 33.9767C33.8734 33.3418 33.8269 32.7076 33.7347 32.0794Z" fill="white"/>
</g>
<defs>
<linearGradient id="paint0_linear_1001_3805" x1="38.9917" y1="21.1074" x2="38.9917" y2="46.8545" gradientUnits="userSpaceOnUse">
<stop stop-color="#CDD132"/>
<stop offset="0.583333" stop-color="#C9E82A" stop-opacity="0.510417"/>
<stop offset="1" stop-color="#C6FF22" stop-opacity="0"/>
</linearGradient>
<clipPath id="clip0_1001_3805">
<rect width="54" height="54" fill="white"/>
</clipPath>
</defs>
</svg>
