<svg width="17" height="16" viewBox="0 0 17 16" fill="none" xmlns="http://www.w3.org/2000/svg">
<path fill-rule="evenodd" clip-rule="evenodd" d="M5.5775 8.00008C5.5775 9.4223 6.75061 10.5795 8.19898 10.5795C9.6408 10.5795 10.8139 9.4223 10.8139 8.00008C10.8139 6.57139 9.6408 5.41422 8.19898 5.41422C6.75061 5.41422 5.5775 6.57139 5.5775 8.00008ZM12.0526 4.03079C13.1995 4.90998 14.176 6.19644 14.8772 7.80614C14.9297 7.92897 14.9297 8.07119 14.8772 8.18756C13.4747 11.4069 10.9778 13.3334 8.199 13.3334H8.19245C5.42023 13.3334 2.92326 11.4069 1.52077 8.18756C1.46834 8.07119 1.46834 7.92897 1.52077 7.80614C2.92326 4.58675 5.42023 2.66675 8.19245 2.66675H8.199C9.58839 2.66675 10.9057 3.14513 12.0526 4.03079ZM8.19981 9.60836C9.09766 9.60836 9.83168 8.88432 9.83168 7.99866C9.83168 7.10654 9.09766 6.3825 8.19981 6.3825C8.12116 6.3825 8.04252 6.38896 7.97043 6.40189C7.94421 7.113 7.35438 7.68189 6.62691 7.68189H6.59415C6.57448 7.78533 6.56138 7.88876 6.56138 7.99866C6.56138 8.88432 7.29539 9.60836 8.19981 9.60836Z" fill="#979ACA"/>
</svg>
