<svg width="40" height="54" viewBox="0 0 40 54" fill="none" xmlns="http://www.w3.org/2000/svg">
<g clip-path="url(#clip0_1001_3691)">
<path d="M39.1035 6.51733H0V45.6208H39.1035V6.51733Z" fill="#EBBA16"/>
<path d="M36.0627 54H3.04076C1.36117 54 0 52.6389 0 50.9593V44.6897H39.1035V50.9593C39.1035 52.6389 37.7423 54 36.0627 54Z" fill="#E7ECED"/>
<path d="M3.04076 0H36.0636C37.7423 0 39.1035 1.36117 39.1035 3.04076V7.44828H0V3.04076C0 1.36117 1.36117 0 3.04076 0Z" fill="#E7ECED"/>
<path d="M35.3798 7.44824H3.72461V44.6896H35.3798V7.44824Z" fill="white"/>
<path d="M31.6548 30.7241H28.8617C28.3478 30.7241 27.9307 30.307 27.9307 29.7931C27.9307 29.2792 28.3478 28.8621 28.8617 28.8621H31.6548C32.1687 28.8621 32.5858 29.2792 32.5858 29.7931C32.5858 30.307 32.1687 30.7241 31.6548 30.7241Z" fill="#366DB6"/>
<path d="M25.1383 30.7241H7.44861C6.93468 30.7241 6.51758 30.307 6.51758 29.7931C6.51758 29.2792 6.93468 28.8621 7.44861 28.8621H25.1383C25.6522 28.8621 26.0693 29.2792 26.0693 29.7931C26.0693 30.307 25.6522 30.7241 25.1383 30.7241Z" fill="#EBBA16"/>
<path d="M31.6548 38.1724H28.8617C28.3478 38.1724 27.9307 37.7553 27.9307 37.2413C27.9307 36.7274 28.3478 36.3103 28.8617 36.3103H31.6548C32.1687 36.3103 32.5858 36.7274 32.5858 37.2413C32.5858 37.7553 32.1687 38.1724 31.6548 38.1724Z" fill="#25AE88"/>
<path d="M25.1383 38.1724H7.44861C6.93468 38.1724 6.51758 37.7553 6.51758 37.2413C6.51758 36.7274 6.93468 36.3103 7.44861 36.3103H25.1383C25.6522 36.3103 26.0693 36.7274 26.0693 37.2413C26.0693 37.7553 25.6522 38.1724 25.1383 38.1724Z" fill="#CB465F"/>
<path d="M10.2417 34.4483H7.44861C6.93468 34.4483 6.51758 34.0311 6.51758 33.5172C6.51758 33.0033 6.93468 32.5862 7.44861 32.5862H10.2417C10.7556 32.5862 11.1728 33.0033 11.1728 33.5172C11.1728 34.0311 10.7556 34.4483 10.2417 34.4483Z" fill="#DD352E"/>
<path d="M31.6549 34.4483H13.9652C13.4513 34.4483 13.0342 34.0311 13.0342 33.5172C13.0342 33.0033 13.4513 32.5862 13.9652 32.5862H31.6549C32.1688 32.5862 32.5859 33.0033 32.5859 33.5172C32.5859 34.0311 32.1688 34.4483 31.6549 34.4483Z" fill="#DC691D"/>
<path d="M10.2417 41.8965H7.44861C6.93468 41.8965 6.51758 41.4794 6.51758 40.9655C6.51758 40.4515 6.93468 40.0344 7.44861 40.0344H10.2417C10.7556 40.0344 11.1728 40.4515 11.1728 40.9655C11.1728 41.4794 10.7556 41.8965 10.2417 41.8965Z" fill="#25AE88"/>
<path d="M31.6549 41.8965H13.9652C13.4513 41.8965 13.0342 41.4794 13.0342 40.9655C13.0342 40.4515 13.4513 40.0344 13.9652 40.0344H31.6549C32.1688 40.0344 32.5859 40.4515 32.5859 40.9655C32.5859 41.4794 32.1688 41.8965 31.6549 41.8965Z" fill="#75348B"/>
<path d="M20.4827 11.1724H7.44824V26.0689H20.4827V11.1724Z" fill="#366DB6"/>
<path d="M16.7585 23.2759C16.2445 23.2759 15.8274 22.8588 15.8274 22.3449V16.755C15.8274 16.2438 15.4112 15.8276 14.9001 15.8276H13.0306C12.5195 15.8276 12.1033 16.2438 12.1033 16.755V22.3449C12.1033 22.8588 11.6862 23.2759 11.1722 23.2759C10.6583 23.2759 10.2412 22.8588 10.2412 22.3449V16.755C10.2412 15.2169 11.4925 13.9656 13.0306 13.9656H14.9001C16.4382 13.9656 17.6895 15.2169 17.6895 16.755V22.3449C17.6895 22.8588 17.2724 23.2759 16.7585 23.2759Z" fill="white"/>
<path d="M16.7585 19.5518H11.1722C10.6583 19.5518 10.2412 19.1347 10.2412 18.6207C10.2412 18.1068 10.6583 17.6897 11.1722 17.6897H16.7585C17.2724 17.6897 17.6895 18.1068 17.6895 18.6207C17.6895 19.1347 17.2724 19.5518 16.7585 19.5518Z" fill="white"/>
<path d="M31.6547 12.1035H24.2064C23.6925 12.1035 23.2754 11.6864 23.2754 11.1725C23.2754 10.6586 23.6925 10.2415 24.2064 10.2415H31.6547C32.1686 10.2415 32.5857 10.6586 32.5857 11.1725C32.5857 11.6864 32.1686 12.1035 31.6547 12.1035Z" fill="#DD352E"/>
<path d="M31.6547 27H24.2064C23.6925 27 23.2754 26.5829 23.2754 26.069C23.2754 25.555 23.6925 25.1379 24.2064 25.1379H31.6547C32.1686 25.1379 32.5857 25.555 32.5857 26.069C32.5857 26.5829 32.1686 27 31.6547 27Z" fill="#75348B"/>
<path d="M31.6547 23.2759H24.2064C23.6925 23.2759 23.2754 22.8588 23.2754 22.3449C23.2754 21.8309 23.6925 21.4138 24.2064 21.4138H31.6547C32.1686 21.4138 32.5857 21.8309 32.5857 22.3449C32.5857 22.8588 32.1686 23.2759 31.6547 23.2759Z" fill="#25AE88"/>
<path d="M31.6547 19.5518H24.2064C23.6925 19.5518 23.2754 19.1347 23.2754 18.6207C23.2754 18.1068 23.6925 17.6897 24.2064 17.6897H31.6547C32.1686 17.6897 32.5857 18.1068 32.5857 18.6207C32.5857 19.1347 32.1686 19.5518 31.6547 19.5518Z" fill="#CB465F"/>
<path d="M31.6547 15.8276H24.2064C23.6925 15.8276 23.2754 15.4105 23.2754 14.8966C23.2754 14.3827 23.6925 13.9656 24.2064 13.9656H31.6547C32.1686 13.9656 32.5857 14.3827 32.5857 14.8966C32.5857 15.4105 32.1686 15.8276 31.6547 15.8276Z" fill="#DC691D"/>
<path d="M24.2072 4.65528H14.8969C14.3829 4.65528 13.9658 4.23818 13.9658 3.72425C13.9658 3.21032 14.3829 2.79321 14.8969 2.79321H24.2072C24.7211 2.79321 25.1382 3.21032 25.1382 3.72425C25.1382 4.23818 24.7211 4.65528 24.2072 4.65528Z" fill="#AFB6BB"/>
<path d="M20.7073 51.2068H18.3955C17.4915 51.2068 16.7588 50.4741 16.7588 49.5691V49.1194C16.7588 48.2154 17.4915 47.4827 18.3965 47.4827H20.7082C21.6123 47.4827 22.345 48.2154 22.345 49.1204V49.57C22.345 50.4741 21.6123 51.2068 20.7073 51.2068Z" fill="#AFB6BB"/>
</g>
<defs>
<clipPath id="clip0_1001_3691">
<rect width="39.1035" height="54" fill="white"/>
</clipPath>
</defs>
</svg>
