<svg xmlns="http://www.w3.org/2000/svg" width="19.648" height="21.435"><g fill="#f5f6ff"><path d="M2.233 12.057h2.679a.447.447 0 0 0 .447-.447V.447A.447.447 0 0 0 4.912 0H2.233a.447.447 0 0 0-.447.447V11.61a.447.447 0 0 0 .447.447ZM2.679.893h1.786v10.271H2.679ZM12.95 21.434h6.25a.447.447 0 0 0 .447-.447v-.893a3.572 3.572 0 0 0-2.036-3.22 2.456 2.456 0 1 0-3.072 0 3.6 3.6 0 0 0-1.59 1.5 3.6 3.6 0 0 0-1.59-1.5 2.456 2.456 0 1 0-3.072 0 3.6 3.6 0 0 0-1.59 1.5 3.6 3.6 0 0 0-1.59-1.5 2.456 2.456 0 1 0-3.072 0A3.572 3.572 0 0 0 0 20.095v.893a.447.447 0 0 0 .447.447Zm1.563-6.475a1.563 1.563 0 1 1 1.563 1.563 1.563 1.563 0 0 1-1.563-1.563ZM13.4 20.095a2.68 2.68 0 1 1 5.359 0v.447H13.4ZM8.265 14.96a1.563 1.563 0 1 1 1.563 1.563 1.563 1.563 0 0 1-1.567-1.564Zm-1.12 5.135a2.68 2.68 0 1 1 5.359 0v.447H7.145Zm-5.136-5.136a1.563 1.563 0 1 1 1.563 1.563 1.563 1.563 0 0 1-1.563-1.563Zm4.242 5.582H.893v-.447a2.68 2.68 0 1 1 5.359 0ZM8.485 12.057h2.679a.447.447 0 0 0 .447-.447v-6.7a.447.447 0 0 0-.447-.444H8.485a.447.447 0 0 0-.447.447v6.7a.447.447 0 0 0 .447.444Zm.447-6.7h1.786v5.809H8.931ZM14.737 12.057h2.679a.447.447 0 0 0 .447-.447V2.233a.447.447 0 0 0-.447-.447h-2.679a.447.447 0 0 0-.447.447v9.378a.447.447 0 0 0 .447.446Zm.447-9.378h1.786v8.485h-1.787Z"/></g></svg>