<svg xmlns="http://www.w3.org/2000/svg" width="28.538" height="7.927"><path d="M.084.15v4.579h1.737a.85.85 0 0 1 .895-.632c.642 0 .99.368.99 1.063 0 .663-.295 1.158-.979 1.158a.91.91 0 0 1-.967-.76H0c.06 1.326 1.06 2.284 2.79 2.284a2.451 2.451 0 0 0 2.652-2.673A2.266 2.266 0 0 0 3.126 2.65a1.928 1.928 0 0 0-1.411.526v-1.45H5V.15Zm6.222 3.745c0 2.274.768 3.916 2.958 3.916s2.958-1.642 2.958-3.916C12.222 1.642 11.454 0 9.264 0S6.306 1.642 6.306 3.895Zm4.148 0c0 1.221-.126 2.232-1.19 2.232s-1.19-1.011-1.19-2.232c0-1.179.126-2.211 1.19-2.211s1.189 1.032 1.189 2.211Zm4.673 3.063a1 1 0 0 0-1.063-.99 1 1 0 0 0-1.074.99.994.994 0 0 0 1.07.969.991.991 0 0 0 1.067-.969Zm0-4.284a1 1 0 0 0-1.063-.99 1 1 0 0 0-1.074.99.994.994 0 0 0 1.074.968.991.991 0 0 0 1.063-.968ZM16.401.15v4.579h1.737a.85.85 0 0 1 .895-.632c.642 0 .99.368.99 1.063 0 .663-.295 1.158-.979 1.158a.91.91 0 0 1-.968-.758h-1.76c.064 1.324 1.064 2.282 2.79 2.282a2.451 2.451 0 0 0 2.654-2.673 2.266 2.266 0 0 0-2.317-2.519 1.928 1.928 0 0 0-1.411.526v-1.45h3.284V.15Zm6.221 3.748c0 2.274.768 3.916 2.958 3.916s2.958-1.642 2.958-3.916c0-2.253-.768-3.895-2.958-3.895s-2.958 1.639-2.958 3.892Zm4.148 0c0 1.221-.126 2.232-1.19 2.232s-1.19-1.011-1.19-2.232c0-1.179.126-2.211 1.19-2.211s1.189 1.029 1.189 2.208Z" fill="#dfe1fc"/></svg>