<svg xmlns="http://www.w3.org/2000/svg" width="22.361" height="23.401"><g fill="#dfe1fc"><path d="m11.04 20.536-.982 2.058a.562.562 0 0 0 .748.748l9.637-4.772h.047l-9.684-4.772a.562.562 0 0 0-.748.748l.982 2.105h-.281c-5.426-1.074-9.683-2.571-9.683-8.188 0-.468.047-.936.094-1.4A11.458 11.458 0 0 0 0 12.115c0 5.988 4.725 7.672 10.619 8.327ZM11.318 2.946 12.397.698a.494.494 0 0 0-.655-.655L1.965 4.911h-.047l9.824 4.865a.494.494 0 0 0 .655-.655l-1.079-2.245h.281c5.427 1.029 9.684 2.526 9.684 8.187 0 .468-.047.936-.094 1.4a11.458 11.458 0 0 0 1.17-5.052c0-6.035-4.725-7.719-10.619-8.374Z"/></g></svg>