<svg xmlns="http://www.w3.org/2000/svg" width="20.924" height="21.505"><g fill="#f5f6ff"><path d="M6.957 3.591a.581.581 0 0 0-.151-.291l-.43-.447a3.735 3.735 0 1 0-5.282 5.282l.447.442a.581.581 0 0 0 .291.151 9.239 9.239 0 0 0 .994 8.8l-.912.9a1.8 1.8 0 1 0 2.539 2.545l.965-.965a9.239 9.239 0 0 0 10.337-.192l1.162 1.162a1.8 1.8 0 1 0 2.539-2.545l-1.2-1.2A9.146 9.146 0 0 0 19.74 12.2a9.239 9.239 0 0 0-.68-3.486.581.581 0 0 0 .325-.157l.447-.442a3.726 3.726 0 0 0-5.27-5.27l-.442.447a.581.581 0 0 0-.147.308 9.082 9.082 0 0 0-2.946-.668v-.027h1.162a.581.581 0 0 0 .581-.581V.581A.581.581 0 0 0 12.186 0H8.7a.581.581 0 0 0-.581.581v1.743a.581.581 0 0 0 .581.581h1.162v.029a9.128 9.128 0 0 0-2.905.657Zm-5.81 1.9a2.528 2.528 0 0 1 .75-1.813 2.562 2.562 0 0 1 3.62 0l.035.029-3.6 3.626-.033-.033a2.522 2.522 0 0 1-.773-1.807Zm2.458 14.66a.645.645 0 0 1-.889 0 .631.631 0 0 1 0-.895l.813-.813c.145.163.3.32.459.471.139.134.285.261.43.389Zm15.194-.451a.628.628 0 0 1-.192.447.645.645 0 0 1-.889 0l-1.063-1.057c.18-.163.354-.337.523-.517s.244-.261.36-.4l1.069 1.075a.622.622 0 0 1 .215.447Zm-1.766-2.737a8.169 8.169 0 0 1-6.589 3.37 8.036 8.036 0 0 1-4.765-1.546 7.844 7.844 0 0 1-1.627-1.569A8.036 8.036 0 0 1 2.309 12.2a8.135 8.135 0 0 1 16.269 0 8.036 8.036 0 0 1-1.546 4.766ZM15.388 3.678a2.56 2.56 0 1 1 3.62 3.62l-.029.035-3.626-3.626ZM9.281 1.162h2.324v.581H9.281Z"/><path d="M10.443 5.229a6.972 6.972 0 0 0-6.972 6.972 6.885 6.885 0 0 0 1.493 4.306 6.624 6.624 0 0 0 1.412 1.342 6.967 6.967 0 1 0 4.067-12.62Zm4.706 10.372a5.81 5.81 0 0 1-8.135 1.3 5.549 5.549 0 0 1-1.162-1.116 5.729 5.729 0 0 1-1.22-3.585 5.81 5.81 0 1 1 11.621 0 5.729 5.729 0 0 1-1.103 3.401Z"/><path d="M13.964 10.169a.581.581 0 0 0-.79-.215.583.583 0 0 0-1.011.581l-.581.349a1.685 1.685 0 0 0-.54-.314v-.691a.581.581 0 0 0 0-1.162.581.581 0 1 0-1.162 0 .581.581 0 0 0 0 1.162v.691a1.685 1.685 0 0 0-.54.314l-.581-.349a.583.583 0 0 0-1.011-.581.583.583 0 0 0-.581 1.011.558.558 0 1 0 .953.581l.581.343a2.446 2.446 0 0 0 .041.628l-.581.343a.583.583 0 1 0-1.011.581.583.583 0 0 0 .581 1.011.566.566 0 1 0 .97-.581l.581-.349a1.685 1.685 0 0 0 .54.314v.691a.581.581 0 1 0 0 1.162.581.581 0 0 0 1.162 0 .581.581 0 1 0 0-1.162v-.692a1.685 1.685 0 0 0 .54-.314l.581.349a.583.583 0 0 0 1.011.581.585.585 0 0 0 .581-1.016.583.583 0 0 0-1.011-.581l-.581-.343a1.935 1.935 0 0 0 .081-.314 1.935 1.935 0 0 0-.041-.314l.581-.343a.583.583 0 0 0 1.011-.581.581.581 0 0 0 .227-.8Zm-3.016 1.743a.581.581 0 0 1 .076.291.633.633 0 0 1-.076.291.581.581 0 0 1-1.087-.291.633.633 0 0 1 .076-.291.582.582 0 0 1 1.011.006Z"/></g></svg>